<svg width="1100" viewBox="0.0 0.0 550.0 178.2" xmlns="http://www.w3.org/2000/svg">
<polygon fill="none" stroke-width="1" stroke-dasharray="2" stroke="gray" points="19.2,125.2 34.2,125.2 34.2,135.9 19.2,135.9 19.2,140.2 164.2,140.2 164.2,135.9 179.2,139.8 179.2,139.8 179.2,121.3 179.2,121.3 164.2,125.2 164.2,99.0 179.2,102.9 179.2,84.5 164.2,88.4 164.2,62.2 179.2,66.0 179.2,66.0 179.2,47.6 179.2,47.6 164.2,51.5 164.2,47.2 19.2,47.2 19.2,51.5 19.2,51.5 34.2,51.5 34.2,62.2 19.2,62.2 19.2,88.4 34.2,88.4 34.2,99.0 19.2,99.0 19.2,99.0 19.2,125.2" />
<polygon fill="rgba(192,192,192,0.75)" stroke-width="1" stroke-dasharray="" stroke="black" points="157.7,30.7 164.2,34.2 19.2,34.2 18.5,30.7 157.7,30.7" />
<polygon fill="none" stroke-width="1" stroke-dasharray="2" stroke="gray" points="157.7,43.7 18.5,43.7 19.2,47.2 164.2,47.2 157.7,43.7" />
<polygon fill="rgba(192,192,192,0.75)" stroke-width="1" stroke-dasharray="" stroke="black" points="157.7,136.7 164.2,140.2 19.2,140.2 18.5,136.7 157.7,136.7" />
<polygon fill="none" stroke-width="1" stroke-dasharray="2" stroke="gray" points="157.7,149.7 18.5,149.7 19.2,153.2 164.2,153.2 157.7,149.7" />
<polygon fill="none" stroke-width="1" stroke-dasharray="2" stroke="gray" points="17.5,38.4 19.2,51.5 19.2,47.2 18.5,43.7 18.5,30.7 19.2,34.2 19.2,29.2 17.5,20.0 17.5,38.4" />
<polygon fill="none" stroke-width="1" stroke-dasharray="2" stroke="gray" points="17.5,56.8 17.5,75.3 19.2,88.4 19.2,62.2 17.5,56.8" />
<polygon fill="none" stroke-width="1" stroke-dasharray="2" stroke="gray" points="17.5,93.7 17.5,112.2 19.2,125.2 19.2,99.0 17.5,93.7" />
<polygon fill="none" stroke-width="1" stroke-dasharray="2" stroke="gray" points="17.5,130.6 17.5,149.0 19.2,158.2 19.2,153.2 18.5,149.7 18.5,136.7 19.2,140.2 19.2,135.9 17.5,130.6" />
<polygon fill="rgba(255,255,255,0.75)" stroke-width="1" stroke-dasharray="" stroke="black" points="17.5,38.4 32.5,38.4 34.2,51.5 19.2,51.5" />
<polygon fill="none" stroke-width="1" stroke-dasharray="2" stroke="gray" points="19.2,62.2 34.2,62.2 32.5,56.9 17.5,56.9" />
<polygon fill="rgba(255,255,255,0.75)" stroke-width="1" stroke-dasharray="" stroke="black" points="17.5,75.3 32.5,75.3 34.2,88.4 19.2,88.4" />
<polygon fill="none" stroke-width="1" stroke-dasharray="2" stroke="gray" points="19.2,99.0 34.2,99.0 32.5,93.7 17.5,93.7" />
<polygon fill="rgba(255,255,255,0.75)" stroke-width="1" stroke-dasharray="" stroke="black" points="17.5,112.1 32.5,112.1 34.2,125.2 19.2,125.2" />
<polygon fill="none" stroke-width="1" stroke-dasharray="2" stroke="gray" points="19.2,135.9 34.2,135.9 32.5,130.6 17.5,130.6" />
<polygon fill="none" stroke-width="1" stroke-dasharray="2" stroke="gray" points="32.5,38.4 32.5,56.9 34.2,62.2 34.2,51.5 32.5,38.4" />
<polygon fill="none" stroke-width="1" stroke-dasharray="2" stroke="gray" points="32.5,75.3 32.5,93.7 34.2,99.0 34.2,88.4 32.5,75.3" />
<polygon fill="none" stroke-width="1" stroke-dasharray="2" stroke="gray" points="32.5,112.1 32.5,130.6 34.2,135.9 34.2,125.2 32.5,112.1" />
<polygon fill="none" stroke-width="1" stroke-dasharray="2" stroke="gray" points="147.5,20.0 17.5,20.0 19.2,29.2 164.2,29.2 147.5,20.0" />
<polygon fill="rgba(192,192,192,0.75)" stroke-width="1" stroke-dasharray="" stroke="black" points="147.5,149.0 164.2,158.2 19.2,158.2 17.5,149.0 147.5,149.0" />
<polygon fill="rgba(255,255,255,0.75)" stroke-width="1" stroke-dasharray="" stroke="black" points="164.2,51.5 147.5,42.3 147.5,20.0 164.2,29.2 164.2,34.2 157.8,30.7 157.8,43.7 164.2,47.2 164.2,51.5" />
<polygon fill="rgba(255,255,255,0.75)" stroke-width="1" stroke-dasharray="" stroke="black" points="164.2,62.2 164.2,88.4 147.5,79.2 147.5,53.0 164.2,62.2" />
<polygon fill="rgba(255,255,255,0.75)" stroke-width="1" stroke-dasharray="" stroke="black" points="164.2,99.0 164.2,125.2 147.5,116.0 147.5,89.8 164.2,99.0" />
<polygon fill="rgba(255,255,255,0.75)" stroke-width="1" stroke-dasharray="" stroke="black" points="164.2,135.9 164.2,140.2 157.8,136.7 157.8,149.7 164.2,153.2 164.2,158.2 147.5,149.0 147.5,126.7 164.2,135.9" />
<polygon fill="none" stroke-width="1" stroke-dasharray="2" stroke="gray" points="162.5,38.4 147.5,42.3 164.2,51.5 179.2,47.6" />
<polygon fill="rgba(192,192,192,0.75)" stroke-width="1" stroke-dasharray="" stroke="silver" points="179.2,66.0 164.2,62.2 147.5,53.0 162.5,56.9" />
<polygon fill="none" stroke-width="1" stroke-dasharray="2" stroke="gray" points="162.5,75.3 147.5,79.2 164.2,88.4 179.2,84.5" />
<polygon fill="rgba(192,192,192,0.75)" stroke-width="1" stroke-dasharray="" stroke="silver" points="179.2,102.9 164.2,99.0 147.5,89.8 162.5,93.7" />
<polygon fill="none" stroke-width="1" stroke-dasharray="2" stroke="gray" points="162.5,112.1 147.5,116.0 164.2,125.2 179.2,121.3" />
<polygon fill="rgba(192,192,192,0.75)" stroke-width="1" stroke-dasharray="" stroke="silver" points="179.2,139.8 164.2,135.9 147.5,126.7 162.5,130.6" />
<polygon fill="rgba(255,255,255,0.75)" stroke-width="1" stroke-dasharray="" stroke="black" points="179.2,47.6 179.2,66.1 162.5,56.9 162.5,38.4 179.2,47.6" />
<polygon fill="rgba(255,255,255,0.75)" stroke-width="1" stroke-dasharray="" stroke="black" points="179.2,84.5 179.2,102.9 162.5,93.7 162.5,75.3 179.2,84.5" />
<polygon fill="rgba(255,255,255,0.75)" stroke-width="1" stroke-dasharray="" stroke="black" points="179.2,121.3 179.2,139.8 162.5,130.6 162.5,112.1 179.2,121.3" />
<polygon fill="rgba(255,255,255,0.75)" stroke-width="1" stroke-dasharray="" stroke="black" points="17.5,130.6 32.5,130.6 32.5,112.1 17.5,112.1 17.5,93.7 32.5,93.7 32.5,75.3 17.5,75.3 17.5,75.3 17.5,56.9 17.5,56.9 32.5,56.9 32.5,38.4 17.5,38.4 17.5,20.0 147.5,20.0 147.5,20.0 147.5,42.3 162.5,38.4 162.5,56.8 147.5,53.0 147.5,79.2 162.5,75.3 162.5,75.3 162.5,93.7 162.5,93.7 147.5,89.8 147.5,116.0 162.5,112.2 162.5,130.6 147.5,126.7 147.5,149.0 147.5,149.0 17.5,149.0 17.5,130.6" />
<polygon fill="none" stroke-width="1" stroke-dasharray="2" stroke="gray" points="309.2,125.2 324.2,125.2 324.2,135.9 309.2,135.9 309.2,140.2 454.2,140.2 454.2,135.9 469.2,139.8 469.2,139.8 469.2,121.3 469.2,121.3 454.2,125.2 454.2,99.0 469.2,102.9 469.2,84.5 454.2,88.4 454.2,62.2 469.2,66.0 469.2,66.0 469.2,47.6 469.2,47.6 454.2,51.5 454.2,47.2 309.2,47.2 309.2,51.5 309.2,51.5 324.2,51.5 324.2,62.2 309.2,62.2 309.2,88.4 324.2,88.4 324.2,99.0 309.2,99.0 309.2,99.0 309.2,125.2" />
<polygon fill="rgba(192,192,192,0.75)" stroke-width="1" stroke-dasharray="" stroke="black" points="447.7,30.7 454.2,34.2 309.2,34.2 308.5,30.7 447.7,30.7" />
<polygon fill="none" stroke-width="1" stroke-dasharray="2" stroke="gray" points="447.7,43.7 308.5,43.7 309.2,47.2 454.2,47.2 447.7,43.7" />
<polygon fill="rgba(192,192,192,0.75)" stroke-width="1" stroke-dasharray="" stroke="black" points="447.7,136.7 454.2,140.2 309.2,140.2 308.5,136.7 447.7,136.7" />
<polygon fill="none" stroke-width="1" stroke-dasharray="2" stroke="gray" points="447.7,149.7 308.5,149.7 309.2,153.2 454.2,153.2 447.7,149.7" />
<polygon fill="none" stroke-width="1" stroke-dasharray="2" stroke="gray" points="307.5,38.4 309.2,51.5 309.2,47.2 308.5,43.7 308.5,30.7 309.2,34.2 309.2,29.2 307.5,20.0 307.5,38.4" />
<polygon fill="none" stroke-width="1" stroke-dasharray="2" stroke="gray" points="307.5,56.8 307.5,75.3 309.2,88.4 309.2,62.2 307.5,56.8" />
<polygon fill="none" stroke-width="1" stroke-dasharray="2" stroke="gray" points="307.5,93.7 307.5,112.2 309.2,125.2 309.2,99.0 307.5,93.7" />
<polygon fill="none" stroke-width="1" stroke-dasharray="2" stroke="gray" points="307.5,130.6 307.5,149.0 309.2,158.2 309.2,153.2 308.5,149.7 308.5,136.7 309.2,140.2 309.2,135.9 307.5,130.6" />
<polygon fill="rgba(255,255,255,0.75)" stroke-width="1" stroke-dasharray="" stroke="black" points="307.5,38.4 322.5,38.4 324.2,51.5 309.2,51.5" />
<polygon fill="none" stroke-width="1" stroke-dasharray="2" stroke="gray" points="309.2,62.2 324.2,62.2 322.5,56.9 307.5,56.9" />
<polygon fill="rgba(255,255,255,0.75)" stroke-width="1" stroke-dasharray="" stroke="black" points="307.5,75.3 322.5,75.3 324.2,88.4 309.2,88.4" />
<polygon fill="none" stroke-width="1" stroke-dasharray="2" stroke="gray" points="309.2,99.0 324.2,99.0 322.5,93.7 307.5,93.7" />
<polygon fill="rgba(255,255,255,0.75)" stroke-width="1" stroke-dasharray="" stroke="black" points="307.5,112.1 322.5,112.1 324.2,125.2 309.2,125.2" />
<polygon fill="none" stroke-width="1" stroke-dasharray="2" stroke="gray" points="309.2,135.9 324.2,135.9 322.5,130.6 307.5,130.6" />
<polygon fill="none" stroke-width="1" stroke-dasharray="2" stroke="gray" points="322.5,38.4 322.5,56.9 324.2,62.2 324.2,51.5 322.5,38.4" />
<polygon fill="none" stroke-width="1" stroke-dasharray="2" stroke="gray" points="322.5,75.3 322.5,93.7 324.2,99.0 324.2,88.4 322.5,75.3" />
<polygon fill="none" stroke-width="1" stroke-dasharray="2" stroke="gray" points="322.5,112.1 322.5,130.6 324.2,135.9 324.2,125.2 322.5,112.1" />
<polygon fill="none" stroke-width="1" stroke-dasharray="2" stroke="gray" points="437.5,20.0 307.5,20.0 309.2,29.2 454.2,29.2 437.5,20.0" />
<polygon fill="rgba(192,192,192,0.75)" stroke-width="1" stroke-dasharray="" stroke="black" points="437.5,149.0 454.2,158.2 309.2,158.2 307.5,149.0 437.5,149.0" />
<polygon fill="rgba(255,255,255,0.75)" stroke-width="1" stroke-dasharray="" stroke="black" points="454.2,51.5 437.5,42.3 437.5,20.0 454.2,29.2 454.2,34.2 447.8,30.7 447.8,43.7 454.2,47.2 454.2,51.5" />
<polygon fill="rgba(255,255,255,0.75)" stroke-width="1" stroke-dasharray="" stroke="black" points="454.2,62.2 454.2,88.4 437.5,79.2 437.5,53.0 454.2,62.2" />
<polygon fill="rgba(255,255,255,0.75)" stroke-width="1" stroke-dasharray="" stroke="black" points="454.2,99.0 454.2,125.2 437.5,116.0 437.5,89.8 454.2,99.0" />
<polygon fill="rgba(255,255,255,0.75)" stroke-width="1" stroke-dasharray="" stroke="black" points="454.2,135.9 454.2,140.2 447.8,136.7 447.8,149.7 454.2,153.2 454.2,158.2 437.5,149.0 437.5,126.7 454.2,135.9" />
<polygon fill="none" stroke-width="1" stroke-dasharray="2" stroke="gray" points="452.5,38.4 437.5,42.3 454.2,51.5 469.2,47.6" />
<polygon fill="rgba(192,192,192,0.75)" stroke-width="1" stroke-dasharray="" stroke="silver" points="469.2,66.0 454.2,62.2 437.5,53.0 452.5,56.9" />
<polygon fill="none" stroke-width="1" stroke-dasharray="2" stroke="gray" points="452.5,75.3 437.5,79.2 454.2,88.4 469.2,84.5" />
<polygon fill="rgba(192,192,192,0.75)" stroke-width="1" stroke-dasharray="" stroke="silver" points="469.2,102.9 454.2,99.0 437.5,89.8 452.5,93.7" />
<polygon fill="none" stroke-width="1" stroke-dasharray="2" stroke="gray" points="452.5,112.1 437.5,116.0 454.2,125.2 469.2,121.3" />
<polygon fill="rgba(192,192,192,0.75)" stroke-width="1" stroke-dasharray="" stroke="silver" points="469.2,139.8 454.2,135.9 437.5,126.7 452.5,130.6" />
<polygon fill="rgba(255,255,255,0.75)" stroke-width="1" stroke-dasharray="" stroke="black" points="469.2,47.6 469.2,66.1 452.5,56.9 452.5,38.4 469.2,47.6" />
<polygon fill="rgba(255,255,255,0.75)" stroke-width="1" stroke-dasharray="" stroke="black" points="469.2,84.5 469.2,102.9 452.5,93.7 452.5,75.3 469.2,84.5" />
<polygon fill="rgba(255,255,255,0.75)" stroke-width="1" stroke-dasharray="" stroke="black" points="469.2,121.3 469.2,139.8 452.5,130.6 452.5,112.1 469.2,121.3" />
<polygon fill="rgba(255,255,255,0.75)" stroke-width="1" stroke-dasharray="" stroke="black" points="307.5,130.6 322.5,130.6 322.5,112.1 307.5,112.1 307.5,93.7 322.5,93.7 322.5,75.3 307.5,75.3 307.5,75.3 307.5,56.9 307.5,56.9 322.5,56.9 322.5,38.4 307.5,38.4 307.5,20.0 437.5,20.0 437.5,20.0 437.5,42.3 452.5,38.4 452.5,56.8 437.5,53.0 437.5,79.2 452.5,75.3 452.5,75.3 452.5,93.7 452.5,93.7 437.5,89.8 437.5,116.0 452.5,112.2 452.5,130.6 437.5,126.7 437.5,149.0 437.5,149.0 307.5,149.0 307.5,130.6" />
<circle cx="430" cy="32.0" r="5" stroke="orange" fill="white" stroke-width="1" />
<circle cx="430" cy="75.0" r="5" stroke="orange" fill="white" stroke-width="1" />
<circle cx="430" cy="118.0" r="5" stroke="orange" fill="white" stroke-width="1" />
</svg>
