<svg width="1100" viewBox="0.0 -167.6 550.0 306.6" xmlns="http://www.w3.org/2000/svg">
<polygon fill="none" stroke-width="1" stroke-dasharray="2" stroke="gray" points="180.1,-149.1 195.1,-145.3 195.1,-149.6 189.3,-149.6 189.3,-162.6 195.1,-162.6 195.1,-167.6 180.1,-167.6 180.1,-149.1" />
<polygon fill="none" stroke-width="1" stroke-dasharray="2" stroke="gray" points="180.1,-130.7 180.1,-112.3 195.1,-108.4 195.1,-134.6 180.1,-130.7" />
<polygon fill="none" stroke-width="1" stroke-dasharray="2" stroke="gray" points="180.1,-93.9 180.1,-75.4 195.1,-71.5 195.1,-97.8 180.1,-93.9" />
<polygon fill="none" stroke-width="1" stroke-dasharray="2" stroke="gray" points="180.1,-57.0 180.1,-38.6 195.1,-38.6 195.1,-43.6 189.3,-43.6 189.3,-56.6 195.1,-56.6 195.1,-60.9 180.1,-57.0" />
<polygon fill="none" stroke-width="1" stroke-dasharray="2" stroke="gray" points="325.1,-57.0 310.0,-57.0 310.0,-75.4 325.1,-75.4 325.1,-93.9 310.0,-93.9 310.0,-112.3 325.1,-112.3 325.1,-112.3 325.1,-130.7 325.1,-130.7 310.0,-130.7 310.0,-149.2 325.1,-149.2 325.1,-167.6 195.1,-167.6 195.1,-167.6 195.1,-145.3 180.1,-149.1 180.1,-130.7 195.1,-134.6 195.1,-108.4 180.1,-112.3 180.1,-112.3 180.1,-93.9 180.1,-93.9 195.1,-97.8 195.1,-71.5 180.1,-75.4 180.1,-57.0 195.1,-60.9 195.1,-38.6 195.1,-38.6 325.1,-38.6 325.1,-57.0" />
<polygon fill="none" stroke-width="1" stroke-dasharray="2" stroke="gray" points="310.0,-149.2 310.0,-130.7 325.1,-130.7 325.1,-149.2 310.0,-149.2" />
<polygon fill="none" stroke-width="1" stroke-dasharray="2" stroke="gray" points="310.0,-112.3 310.0,-93.9 325.1,-93.9 325.1,-112.3 310.0,-112.3" />
<polygon fill="none" stroke-width="1" stroke-dasharray="2" stroke="gray" points="310.0,-75.4 310.0,-57.0 325.1,-57.0 325.1,-75.4 310.0,-75.4" />
<polygon fill="none" stroke-width="1" stroke-dasharray="2" stroke="gray" points="180.1,-149.1 163.4,-140.0 178.4,-136.1 195.1,-145.3" />
<polygon fill="rgba(255,255,255,0.75)" stroke-width="1" stroke-dasharray="" stroke="silver" points="195.1,-134.6 178.4,-125.4 163.4,-121.5 180.1,-130.7" />
<polygon fill="none" stroke-width="1" stroke-dasharray="2" stroke="gray" points="180.1,-112.3 163.4,-103.1 178.4,-99.2 195.1,-108.4" />
<polygon fill="rgba(255,255,255,0.75)" stroke-width="1" stroke-dasharray="" stroke="silver" points="195.1,-97.7 178.4,-88.6 163.4,-84.7 180.1,-93.9" />
<polygon fill="none" stroke-width="1" stroke-dasharray="2" stroke="gray" points="180.1,-75.4 163.4,-66.2 178.4,-62.4 195.1,-71.5" />
<polygon fill="rgba(255,255,255,0.75)" stroke-width="1" stroke-dasharray="" stroke="silver" points="195.1,-60.9 178.4,-51.7 163.4,-47.8 180.1,-57.0" />
<polygon fill="none" stroke-width="1" stroke-dasharray="2" stroke="gray" points="163.4,-140.0 163.4,-121.5 180.1,-130.7 180.1,-149.2 163.4,-140.0" />
<polygon fill="none" stroke-width="1" stroke-dasharray="2" stroke="gray" points="163.4,-103.1 163.4,-84.7 180.1,-93.9 180.1,-112.3 163.4,-103.1" />
<polygon fill="none" stroke-width="1" stroke-dasharray="2" stroke="gray" points="163.4,-66.2 163.4,-47.8 180.1,-57.0 180.1,-75.4 163.4,-66.2" />
<polygon fill="rgba(255,255,255,0.75)" stroke-width="1" stroke-dasharray="" stroke="black" points="180.1,-149.1 195.1,-145.3 178.4,-136.1 163.4,-140.0" />
<polygon fill="none" stroke-width="1" stroke-dasharray="2" stroke="gray" points="163.4,-121.5 178.4,-125.4 195.1,-134.6 180.1,-130.7" />
<polygon fill="rgba(255,255,255,0.75)" stroke-width="1" stroke-dasharray="" stroke="black" points="180.1,-112.3 195.1,-108.4 178.4,-99.2 163.4,-103.1" />
<polygon fill="none" stroke-width="1" stroke-dasharray="2" stroke="gray" points="163.4,-84.7 178.4,-88.6 195.1,-97.7 180.1,-93.9" />
<polygon fill="rgba(255,255,255,0.75)" stroke-width="1" stroke-dasharray="" stroke="black" points="180.1,-75.4 195.1,-71.5 178.4,-62.4 163.4,-66.2" />
<polygon fill="none" stroke-width="1" stroke-dasharray="2" stroke="gray" points="163.4,-47.8 178.4,-51.7 195.1,-60.9 180.1,-57.0" />
<polygon fill="none" stroke-width="1" stroke-dasharray="2" stroke="gray" points="178.4,-136.1 195.1,-145.3 195.1,-167.6 178.4,-158.4 178.4,-153.4 184.8,-156.9 184.8,-143.9 178.4,-140.4 178.4,-136.1" />
<polygon fill="none" stroke-width="1" stroke-dasharray="2" stroke="gray" points="178.4,-125.4 178.4,-99.2 195.1,-108.4 195.1,-134.6 178.4,-125.4" />
<polygon fill="none" stroke-width="1" stroke-dasharray="2" stroke="gray" points="178.4,-88.6 178.4,-62.3 195.1,-71.5 195.1,-97.8 178.4,-88.6" />
<polygon fill="none" stroke-width="1" stroke-dasharray="2" stroke="gray" points="178.4,-51.7 178.4,-47.4 184.8,-50.9 184.8,-37.9 178.4,-34.4 178.4,-29.4 195.1,-38.6 195.1,-60.9 178.4,-51.7" />
<polygon fill="rgba(255,255,255,0.75)" stroke-width="1" stroke-dasharray="" stroke="black" points="195.1,-167.6 325.1,-167.6 323.4,-158.4 178.4,-158.4 195.1,-167.6" />
<polygon fill="none" stroke-width="1" stroke-dasharray="2" stroke="gray" points="195.1,-38.6 178.4,-29.4 323.4,-29.4 325.1,-38.6 195.1,-38.6" />
<polygon fill="rgba(255,255,255,0.75)" stroke-width="1" stroke-dasharray="" stroke="silver" points="310.0,-149.2 310.0,-130.7 308.4,-125.4 308.4,-136.1 310.0,-149.2" />
<polygon fill="rgba(255,255,255,0.75)" stroke-width="1" stroke-dasharray="" stroke="silver" points="310.0,-112.3 310.0,-93.9 308.4,-88.5 308.4,-99.2 310.0,-112.3" />
<polygon fill="rgba(255,255,255,0.75)" stroke-width="1" stroke-dasharray="" stroke="silver" points="310.0,-75.4 310.0,-57.0 308.4,-51.7 308.4,-62.4 310.0,-75.4" />
<polygon fill="rgba(255,255,255,0.75)" stroke-width="1" stroke-dasharray="" stroke="black" points="325.1,-149.1 323.4,-136.1 308.4,-136.1 310.0,-149.1" />
<polygon fill="none" stroke-width="1" stroke-dasharray="2" stroke="gray" points="310.0,-130.7 308.4,-125.4 323.4,-125.4 325.1,-130.7" />
<polygon fill="rgba(255,255,255,0.75)" stroke-width="1" stroke-dasharray="" stroke="black" points="325.1,-112.3 323.4,-99.2 308.4,-99.2 310.0,-112.3" />
<polygon fill="none" stroke-width="1" stroke-dasharray="2" stroke="gray" points="310.0,-93.9 308.4,-88.6 323.4,-88.6 325.1,-93.9" />
<polygon fill="rgba(255,255,255,0.75)" stroke-width="1" stroke-dasharray="" stroke="black" points="325.1,-75.4 323.4,-62.4 308.4,-62.4 310.0,-75.4" />
<polygon fill="none" stroke-width="1" stroke-dasharray="2" stroke="gray" points="310.0,-57.0 308.4,-51.7 323.4,-51.7 325.1,-57.0" />
<polygon fill="none" stroke-width="1" stroke-dasharray="2" stroke="gray" points="325.1,-149.1 310.0,-149.1 308.4,-136.1 323.4,-136.1" />
<polygon fill="rgba(255,255,255,0.75)" stroke-width="1" stroke-dasharray="" stroke="silver" points="323.4,-125.4 308.4,-125.4 310.0,-130.7 325.1,-130.7" />
<polygon fill="none" stroke-width="1" stroke-dasharray="2" stroke="gray" points="325.1,-112.3 310.0,-112.3 308.4,-99.2 323.4,-99.2" />
<polygon fill="rgba(255,255,255,0.75)" stroke-width="1" stroke-dasharray="" stroke="silver" points="323.4,-88.6 308.4,-88.6 310.0,-93.9 325.1,-93.9" />
<polygon fill="none" stroke-width="1" stroke-dasharray="2" stroke="gray" points="325.1,-75.4 310.0,-75.4 308.4,-62.4 323.4,-62.4" />
<polygon fill="rgba(255,255,255,0.75)" stroke-width="1" stroke-dasharray="" stroke="silver" points="323.4,-51.7 308.4,-51.7 310.0,-57.0 325.1,-57.0" />
<polygon fill="rgba(255,255,255,0.75)" stroke-width="1" stroke-dasharray="" stroke="silver" points="325.1,-149.1 323.4,-136.1 323.4,-140.4 324.0,-143.9 324.0,-156.9 323.4,-153.4 323.4,-158.4 325.1,-167.6 325.1,-149.1" />
<polygon fill="rgba(255,255,255,0.75)" stroke-width="1" stroke-dasharray="" stroke="silver" points="325.1,-130.7 325.1,-112.3 323.4,-99.2 323.4,-125.4 325.1,-130.7" />
<polygon fill="rgba(255,255,255,0.75)" stroke-width="1" stroke-dasharray="" stroke="silver" points="325.1,-93.9 325.1,-75.4 323.4,-62.3 323.4,-88.6 325.1,-93.9" />
<polygon fill="rgba(255,255,255,0.75)" stroke-width="1" stroke-dasharray="" stroke="silver" points="325.1,-57.0 325.1,-38.6 323.4,-29.4 323.4,-34.4 324.0,-37.9 324.0,-50.9 323.4,-47.4 323.4,-51.7 325.1,-57.0" />
<polygon fill="none" stroke-width="1" stroke-dasharray="2" stroke="gray" points="184.8,-156.9 178.4,-153.4 323.4,-153.4 324.0,-156.9 184.8,-156.9" />
<polygon fill="rgba(255,255,255,0.75)" stroke-width="1" stroke-dasharray="" stroke="black" points="184.8,-143.9 324.0,-143.9 323.4,-140.4 178.4,-140.4 184.8,-143.9" />
<polygon fill="none" stroke-width="1" stroke-dasharray="2" stroke="gray" points="184.8,-50.9 178.4,-47.4 323.4,-47.4 324.0,-50.9 184.8,-50.9" />
<polygon fill="rgba(255,255,255,0.75)" stroke-width="1" stroke-dasharray="" stroke="black" points="184.8,-37.9 324.0,-37.9 323.4,-34.4 178.4,-34.4 184.8,-37.9" />
<polygon fill="none" stroke-width="1" stroke-dasharray="2" stroke="gray" points="163.4,-140.0 163.4,-121.5 178.4,-125.4 178.4,-136.1 163.4,-140.0" />
<polygon fill="none" stroke-width="1" stroke-dasharray="2" stroke="gray" points="163.4,-103.1 163.4,-84.7 178.4,-88.5 178.4,-99.2 163.4,-103.1" />
<polygon fill="none" stroke-width="1" stroke-dasharray="2" stroke="gray" points="163.4,-66.2 163.4,-47.8 178.4,-51.7 178.4,-62.4 163.4,-66.2" />
<polygon fill="none" stroke-width="1" stroke-dasharray="2" stroke="gray" points="308.4,-125.4 308.4,-99.2 323.4,-99.2 323.4,-125.4 308.4,-125.4" />
<polygon fill="none" stroke-width="1" stroke-dasharray="2" stroke="gray" points="308.4,-88.6 308.4,-62.3 323.4,-62.3 323.4,-88.6 308.4,-88.6" />
<polygon fill="none" stroke-width="1" stroke-dasharray="2" stroke="gray" points="308.4,-136.1 323.4,-136.1 323.4,-158.4 308.4,-158.4 308.4,-153.4 314.1,-153.4 314.1,-140.4 308.4,-140.4 308.4,-136.1" />
<polygon fill="none" stroke-width="1" stroke-dasharray="2" stroke="gray" points="308.4,-51.7 308.4,-47.4 314.1,-47.4 314.1,-34.4 308.4,-34.4 308.4,-29.4 323.4,-29.4 323.4,-51.7 308.4,-51.7" />
<polygon fill="rgba(255,255,255,0.75)" stroke-width="1" stroke-dasharray="" stroke="black" points="323.4,-62.4 308.3,-62.4 308.3,-51.7 323.4,-51.7 323.4,-47.4 178.4,-47.4 178.4,-51.7 163.4,-47.8 163.4,-47.8 163.4,-66.2 163.4,-66.2 178.4,-62.3 178.4,-88.6 163.4,-84.7 163.4,-103.1 178.4,-99.2 178.4,-125.4 163.4,-121.5 163.4,-121.5 163.4,-139.9 163.4,-139.9 178.4,-136.1 178.4,-140.4 323.4,-140.4 323.4,-136.1 323.4,-136.1 308.3,-136.1 308.3,-125.4 323.4,-125.4 323.4,-99.2 308.3,-99.2 308.3,-88.5 323.4,-88.5 323.4,-88.5 323.4,-62.4" />
<polygon fill="rgba(255,255,255,0.75)" stroke-width="1" stroke-dasharray="" stroke="black" points="35.5,-88.0 180.1,-167.6 195.1,-167.6 33.8,-78.8 35.5,-88.0" />
<polygon fill="none" stroke-width="1" stroke-dasharray="2" stroke="gray" points="35.5,41.0 33.8,50.2 195.1,-38.6 180.1,-38.6 35.5,41.0" />
<polygon fill="none" stroke-width="1" stroke-dasharray="2" stroke="gray" points="34.5,-77.3 33.8,-73.8 195.1,-162.6 189.3,-162.6 34.5,-77.3" />
<polygon fill="rgba(255,255,255,0.75)" stroke-width="1" stroke-dasharray="" stroke="black" points="34.5,-64.3 189.3,-149.6 195.1,-149.6 33.8,-60.8 34.5,-64.3" />
<polygon fill="none" stroke-width="1" stroke-dasharray="2" stroke="gray" points="34.5,28.7 33.8,32.2 195.1,-56.6 189.3,-56.6 34.5,28.7" />
<polygon fill="rgba(255,255,255,0.75)" stroke-width="1" stroke-dasharray="" stroke="black" points="34.5,41.7 189.3,-43.6 195.1,-43.6 33.8,45.2 34.5,41.7" />
<polygon fill="none" stroke-width="1" stroke-dasharray="2" stroke="gray" points="180.1,-57.0 163.4,-47.8 163.4,-66.2 180.1,-75.4 180.1,-93.9 163.4,-84.7 163.4,-103.1 180.1,-112.3 180.1,-112.3 180.1,-130.7 180.1,-130.7 163.4,-121.5 163.4,-140.0 180.1,-149.2 180.1,-167.6 35.5,-88.0 35.5,-88.0 35.5,-65.7 18.8,-60.3 18.8,-41.9 35.5,-55.0 35.5,-28.8 18.8,-23.5 18.8,-23.5 18.8,-5.1 18.8,-5.1 35.5,-18.2 35.5,8.1 18.8,13.4 18.8,31.8 35.5,18.7 35.5,41.0 35.5,41.0 180.1,-38.6 180.1,-57.0" />
<polygon fill="rgba(255,255,255,0.75)" stroke-width="1" stroke-dasharray="" stroke="silver" points="308.8,31.8 310.5,22.6 310.5,4.1 308.8,13.3 308.8,-5.1 310.5,-14.3 310.5,-32.7 308.8,-23.5 308.8,-23.5 308.8,-41.9 308.8,-41.9 310.5,-51.1 310.5,-69.6 308.8,-60.4 308.8,-78.8 323.4,-158.4 323.4,-158.4 323.4,-136.1 325.1,-149.1 325.1,-130.7 323.4,-125.4 323.4,-99.2 325.1,-112.3 325.1,-112.3 325.1,-93.9 325.1,-93.9 323.4,-88.6 323.4,-62.3 325.1,-75.4 325.1,-57.0 323.4,-51.7 323.4,-29.4 323.4,-29.4 308.8,50.2 308.8,31.8" />
<polygon fill="rgba(255,255,255,0.75)" stroke-width="1" stroke-dasharray="" stroke="black" points="195.1,-71.6 178.4,-62.4 178.4,-51.7 195.1,-60.9 195.1,-56.6 33.8,32.2 33.8,27.9 17.1,41.0 17.1,41.0 17.1,22.6 17.1,22.6 33.8,17.2 33.8,-9.0 17.1,4.1 17.1,-14.3 33.8,-19.6 33.8,-45.8 17.1,-32.8 17.1,-32.8 17.1,-51.2 17.1,-51.2 33.8,-56.5 33.8,-60.8 195.1,-149.6 195.1,-145.3 195.1,-145.3 178.4,-136.1 178.4,-125.4 195.1,-134.6 195.1,-108.4 178.4,-99.2 178.4,-88.5 195.1,-97.7 195.1,-97.7 195.1,-71.6" />
<polygon fill="none" stroke-width="1" stroke-dasharray="2" stroke="gray" points="292.1,26.4 293.8,17.2 293.8,27.9 292.1,37.1 292.1,41.4 308.4,-47.4 308.4,-51.7 310.0,-57.0 310.0,-57.0 310.0,-75.4 310.0,-75.4 308.4,-62.3 308.4,-88.6 310.0,-93.9 310.0,-112.3 308.4,-99.2 308.4,-125.4 310.0,-130.7 310.0,-130.7 310.0,-149.1 310.0,-149.1 308.4,-136.1 308.4,-140.4 292.1,-51.6 292.1,-47.3 292.1,-47.3 293.8,-56.5 293.8,-45.8 292.1,-36.6 292.1,-10.4 293.8,-19.6 293.8,-9.0 292.1,0.2 292.1,0.2 292.1,26.4" />
<polygon fill="none" stroke-width="1" stroke-dasharray="2" stroke="gray" points="314.1,-153.4 308.4,-153.4 292.1,-64.6 298.5,-68.1 314.1,-153.4" />
<polygon fill="rgba(255,255,255,0.75)" stroke-width="1" stroke-dasharray="" stroke="black" points="314.1,-140.4 298.5,-55.1 292.1,-51.6 308.4,-140.4 314.1,-140.4" />
<polygon fill="none" stroke-width="1" stroke-dasharray="2" stroke="gray" points="314.1,-47.4 308.4,-47.4 292.1,41.4 298.5,37.9 314.1,-47.4" />
<polygon fill="rgba(255,255,255,0.75)" stroke-width="1" stroke-dasharray="" stroke="black" points="314.1,-34.4 298.5,50.9 292.1,54.4 308.4,-34.4 314.1,-34.4" />
<polygon fill="rgba(255,255,255,0.75)" stroke-width="1" stroke-dasharray="" stroke="black" points="323.4,-158.4 308.8,-78.8 292.1,-69.6 308.4,-158.4 323.4,-158.4" />
<polygon fill="none" stroke-width="1" stroke-dasharray="2" stroke="gray" points="323.4,-29.4 308.4,-29.4 292.1,59.4 308.8,50.2 323.4,-29.4" />
<polygon fill="none" stroke-width="1" stroke-dasharray="2" stroke="gray" points="18.8,-60.3 35.5,-65.7 35.5,-70.0 29.1,-66.4 29.1,-79.4 35.5,-83.0 35.5,-88.0 18.8,-78.8 18.8,-60.3" />
<polygon fill="none" stroke-width="1" stroke-dasharray="2" stroke="gray" points="18.8,-41.9 18.8,-23.5 35.5,-28.8 35.5,-55.0 18.8,-41.9" />
<polygon fill="none" stroke-width="1" stroke-dasharray="2" stroke="gray" points="18.8,-5.1 18.8,13.4 35.5,8.1 35.5,-18.2 18.8,-5.1" />
<polygon fill="none" stroke-width="1" stroke-dasharray="2" stroke="gray" points="18.8,31.8 18.8,50.2 35.5,41.0 35.5,36.0 29.1,39.6 29.1,26.6 35.5,23.0 35.5,18.7 18.8,31.8" />
<polygon fill="none" stroke-width="1" stroke-dasharray="2" stroke="gray" points="33.8,-56.5 35.5,-65.7 35.5,-88.0 33.8,-78.8 33.8,-73.8 34.4,-77.3 34.4,-64.3 33.8,-60.8 33.8,-56.5" />
<polygon fill="none" stroke-width="1" stroke-dasharray="2" stroke="gray" points="33.8,-45.8 33.8,-19.6 35.5,-28.8 35.5,-55.0 33.8,-45.8" />
<polygon fill="none" stroke-width="1" stroke-dasharray="2" stroke="gray" points="33.8,-9.0 33.8,17.3 35.5,8.1 35.5,-18.2 33.8,-9.0" />
<polygon fill="none" stroke-width="1" stroke-dasharray="2" stroke="gray" points="33.8,27.9 33.8,32.2 34.4,28.7 34.4,41.7 33.8,45.2 33.8,50.2 35.5,41.0 35.5,18.7 33.8,27.9" />
<polygon fill="rgba(255,255,255,0.75)" stroke-width="1" stroke-dasharray="" stroke="silver" points="310.5,-69.6 310.5,-51.1 308.8,-41.9 308.8,-60.4 310.5,-69.6" />
<polygon fill="rgba(255,255,255,0.75)" stroke-width="1" stroke-dasharray="" stroke="silver" points="310.5,-32.7 310.5,-14.3 308.8,-5.1 308.8,-23.5 310.5,-32.7" />
<polygon fill="rgba(255,255,255,0.75)" stroke-width="1" stroke-dasharray="" stroke="silver" points="310.5,4.2 310.5,22.6 308.8,31.8 308.8,13.3 310.5,4.2" />
<polygon fill="rgba(255,255,255,0.75)" stroke-width="1" stroke-dasharray="" stroke="black" points="310.5,-69.6 310.5,-51.1 293.8,-45.8 293.8,-56.5 310.5,-69.6" />
<polygon fill="rgba(255,255,255,0.75)" stroke-width="1" stroke-dasharray="" stroke="black" points="310.5,-32.7 310.5,-14.3 293.8,-8.9 293.8,-19.6 310.5,-32.7" />
<polygon fill="rgba(255,255,255,0.75)" stroke-width="1" stroke-dasharray="" stroke="black" points="310.5,4.2 310.5,22.6 293.8,27.9 293.8,17.2 310.5,4.2" />
<polygon fill="none" stroke-width="1" stroke-dasharray="2" stroke="gray" points="18.8,-60.4 17.1,-51.2 33.8,-56.5 35.5,-65.7" />
<polygon fill="rgba(255,255,255,0.75)" stroke-width="1" stroke-dasharray="" stroke="silver" points="35.5,-55.0 33.8,-45.8 17.1,-32.7 18.8,-41.9" />
<polygon fill="none" stroke-width="1" stroke-dasharray="2" stroke="gray" points="18.8,-23.5 17.1,-14.3 33.8,-19.6 35.5,-28.8" />
<polygon fill="rgba(255,255,255,0.75)" stroke-width="1" stroke-dasharray="" stroke="silver" points="35.5,-18.2 33.8,-9.0 17.1,4.1 18.8,-5.1" />
<polygon fill="none" stroke-width="1" stroke-dasharray="2" stroke="gray" points="18.8,13.4 17.1,22.5 33.8,17.2 35.5,8.0" />
<polygon fill="rgba(255,255,255,0.75)" stroke-width="1" stroke-dasharray="" stroke="silver" points="35.5,18.7 33.8,27.9 17.1,41.0 18.8,31.8" />
<polygon fill="rgba(255,255,255,0.75)" stroke-width="1" stroke-dasharray="" stroke="black" points="18.8,-60.4 35.5,-65.7 33.8,-56.5 17.1,-51.2" />
<polygon fill="none" stroke-width="1" stroke-dasharray="2" stroke="gray" points="17.1,-32.7 33.8,-45.8 35.5,-55.0 18.8,-41.9" />
<polygon fill="rgba(255,255,255,0.75)" stroke-width="1" stroke-dasharray="" stroke="black" points="18.8,-23.5 35.5,-28.8 33.8,-19.6 17.1,-14.3" />
<polygon fill="none" stroke-width="1" stroke-dasharray="2" stroke="gray" points="17.1,4.1 33.8,-9.0 35.5,-18.2 18.8,-5.1" />
<polygon fill="rgba(255,255,255,0.75)" stroke-width="1" stroke-dasharray="" stroke="black" points="18.8,13.4 35.5,8.0 33.8,17.2 17.1,22.5" />
<polygon fill="none" stroke-width="1" stroke-dasharray="2" stroke="gray" points="17.1,41.0 33.8,27.9 35.5,18.7 18.8,31.8" />
<polygon fill="rgba(255,255,255,0.75)" stroke-width="1" stroke-dasharray="" stroke="silver" points="308.8,-60.4 292.1,-47.3 293.8,-56.5 310.5,-69.6" />
<polygon fill="none" stroke-width="1" stroke-dasharray="2" stroke="gray" points="310.5,-51.1 293.8,-45.8 292.1,-36.6 308.8,-41.9" />
<polygon fill="rgba(255,255,255,0.75)" stroke-width="1" stroke-dasharray="" stroke="silver" points="308.8,-23.5 292.1,-10.4 293.8,-19.6 310.5,-32.7" />
<polygon fill="none" stroke-width="1" stroke-dasharray="2" stroke="gray" points="310.5,-14.3 293.8,-9.0 292.1,0.2 308.8,-5.1" />
<polygon fill="rgba(255,255,255,0.75)" stroke-width="1" stroke-dasharray="" stroke="silver" points="308.8,13.4 292.1,26.4 293.8,17.2 310.5,4.2" />
<polygon fill="none" stroke-width="1" stroke-dasharray="2" stroke="gray" points="310.5,22.6 293.8,27.9 292.1,37.1 308.8,31.8" />
<polygon fill="none" stroke-width="1" stroke-dasharray="2" stroke="gray" points="308.8,-60.4 310.5,-69.6 293.8,-56.5 292.1,-47.3" />
<polygon fill="rgba(255,255,255,0.75)" stroke-width="1" stroke-dasharray="" stroke="black" points="292.1,-36.6 293.8,-45.8 310.5,-51.1 308.8,-41.9" />
<polygon fill="none" stroke-width="1" stroke-dasharray="2" stroke="gray" points="308.8,-23.5 310.5,-32.7 293.8,-19.6 292.1,-10.4" />
<polygon fill="rgba(255,255,255,0.75)" stroke-width="1" stroke-dasharray="" stroke="black" points="292.1,0.2 293.8,-9.0 310.5,-14.3 308.8,-5.1" />
<polygon fill="none" stroke-width="1" stroke-dasharray="2" stroke="gray" points="308.8,13.4 310.5,4.2 293.8,17.2 292.1,26.4" />
<polygon fill="rgba(255,255,255,0.75)" stroke-width="1" stroke-dasharray="" stroke="black" points="292.1,37.1 293.8,27.9 310.5,22.6 308.8,31.8" />
<polygon fill="none" stroke-width="1" stroke-dasharray="2" stroke="gray" points="17.1,-51.2 17.1,-32.7 33.8,-45.8 33.8,-56.5 17.1,-51.2" />
<polygon fill="none" stroke-width="1" stroke-dasharray="2" stroke="gray" points="17.1,-14.3 17.1,4.1 33.8,-8.9 33.8,-19.6 17.1,-14.3" />
<polygon fill="none" stroke-width="1" stroke-dasharray="2" stroke="gray" points="17.1,22.5 17.1,41.0 33.8,27.9 33.8,17.2 17.1,22.5" />
<polygon fill="none" stroke-width="1" stroke-dasharray="2" stroke="gray" points="17.1,-51.2 17.1,-32.7 18.8,-41.9 18.8,-60.4 17.1,-51.2" />
<polygon fill="none" stroke-width="1" stroke-dasharray="2" stroke="gray" points="17.1,-14.3 17.1,4.1 18.8,-5.1 18.8,-23.5 17.1,-14.3" />
<polygon fill="none" stroke-width="1" stroke-dasharray="2" stroke="gray" points="17.1,22.5 17.1,41.0 18.8,31.8 18.8,13.3 17.1,22.5" />
<polygon fill="rgba(255,255,255,0.75)" stroke-width="1" stroke-dasharray="" stroke="silver" points="293.8,-56.5 292.1,-47.3 292.1,-69.6 293.8,-78.8 293.8,-73.8 293.1,-70.3 293.1,-57.3 293.8,-60.8 293.8,-56.5" />
<polygon fill="rgba(255,255,255,0.75)" stroke-width="1" stroke-dasharray="" stroke="silver" points="293.8,-45.8 293.8,-19.6 292.1,-10.4 292.1,-36.6 293.8,-45.8" />
<polygon fill="rgba(255,255,255,0.75)" stroke-width="1" stroke-dasharray="" stroke="silver" points="293.8,-9.0 293.8,17.3 292.1,26.4 292.1,0.2 293.8,-9.0" />
<polygon fill="rgba(255,255,255,0.75)" stroke-width="1" stroke-dasharray="" stroke="silver" points="293.8,27.9 293.8,32.2 293.1,35.7 293.1,48.7 293.8,45.2 293.8,50.2 292.1,59.4 292.1,37.1 293.8,27.9" />
<polygon fill="rgba(255,255,255,0.75)" stroke-width="1" stroke-dasharray="" stroke="black" points="308.8,-60.3 292.1,-47.3 292.1,-51.6 298.5,-55.1 298.5,-68.1 292.1,-64.6 292.1,-69.6 308.8,-78.8 308.8,-60.3" />
<polygon fill="rgba(255,255,255,0.75)" stroke-width="1" stroke-dasharray="" stroke="black" points="308.8,-41.9 308.8,-23.5 292.1,-10.4 292.1,-36.6 308.8,-41.9" />
<polygon fill="rgba(255,255,255,0.75)" stroke-width="1" stroke-dasharray="" stroke="black" points="308.8,-5.1 308.8,13.4 292.1,26.4 292.1,0.2 308.8,-5.1" />
<polygon fill="rgba(255,255,255,0.75)" stroke-width="1" stroke-dasharray="" stroke="black" points="308.8,31.8 308.8,50.2 292.1,59.4 292.1,54.4 298.5,50.9 298.5,37.9 292.1,41.4 292.1,37.1 308.8,31.8" />
<polygon fill="none" stroke-width="1" stroke-dasharray="2" stroke="gray" points="13.4,5.8 19.2,5.8 35.5,-83.0 29.1,-79.4 13.4,5.8" />
<polygon fill="rgba(255,255,255,0.75)" stroke-width="1" stroke-dasharray="" stroke="black" points="13.4,18.8 29.1,-66.4 35.5,-70.0 19.2,18.8 13.4,18.8" />
<polygon fill="none" stroke-width="1" stroke-dasharray="2" stroke="gray" points="13.4,111.8 19.2,111.8 35.5,23.0 29.1,26.6 13.4,111.8" />
<polygon fill="rgba(255,255,255,0.75)" stroke-width="1" stroke-dasharray="" stroke="black" points="13.4,124.8 29.1,39.6 35.5,36.0 19.2,124.8 13.4,124.8" />
<polygon fill="rgba(255,255,255,0.75)" stroke-width="1" stroke-dasharray="" stroke="black" points="4.2,0.8 18.8,-78.8 35.5,-88.0 19.2,0.8 4.2,0.8" />
<polygon fill="none" stroke-width="1" stroke-dasharray="2" stroke="gray" points="4.2,129.8 19.2,129.8 35.5,41.0 18.8,50.2 4.2,129.8" />
<polygon fill="rgba(255,255,255,0.75)" stroke-width="1" stroke-dasharray="" stroke="silver" points="35.5,8.0 33.8,17.2 33.8,27.9 35.5,18.7 35.5,23.0 19.2,111.8 19.2,107.5 17.5,120.6 17.5,120.6 17.5,102.2 17.5,102.2 19.2,96.8 19.2,70.6 17.5,83.7 17.5,65.3 19.2,60.0 19.2,33.8 17.5,46.8 17.5,46.8 17.5,28.4 17.5,28.4 19.2,23.1 19.2,18.8 35.5,-70.0 35.5,-65.7 35.5,-65.7 33.8,-56.5 33.8,-45.8 35.5,-55.0 35.5,-28.8 33.8,-19.6 33.8,-8.9 35.5,-18.1 35.5,-18.1 35.5,8.0" />
<polygon fill="none" stroke-width="1" stroke-dasharray="2" stroke="gray" points="132.5,106.0 149.2,96.8 149.2,107.5 132.5,116.7 132.5,121.0 293.7,32.2 293.7,27.9 310.5,22.6 310.5,22.6 310.5,4.2 310.5,4.2 293.7,17.3 293.7,-9.0 310.5,-14.3 310.5,-32.7 293.7,-19.6 293.7,-45.8 310.5,-51.1 310.5,-51.1 310.5,-69.5 310.5,-69.5 293.7,-56.5 293.7,-60.8 132.5,28.0 132.5,32.3 132.5,32.3 149.2,23.1 149.2,33.8 132.5,43.0 132.5,69.2 149.2,60.0 149.2,70.6 132.5,79.8 132.5,79.8 132.5,106.0" />
<polygon fill="none" stroke-width="1" stroke-dasharray="2" stroke="gray" points="18.8,31.8 17.1,41.0 17.1,22.5 18.8,13.3 18.8,-5.1 17.1,4.1 17.1,-14.3 18.8,-23.5 18.8,-23.5 18.8,-41.9 18.8,-41.9 17.1,-32.7 17.1,-51.2 18.8,-60.4 18.8,-78.8 4.2,0.8 4.2,0.8 4.2,23.1 2.5,28.4 2.5,46.8 4.2,33.8 4.2,60.0 2.5,65.3 2.5,65.3 2.5,83.7 2.5,83.7 4.2,70.6 4.2,96.8 2.5,102.2 2.5,120.6 4.2,107.5 4.2,129.8 4.2,129.8 18.8,50.2 18.8,31.8" />
<polygon fill="rgba(255,255,255,0.75)" stroke-width="1" stroke-dasharray="" stroke="black" points="147.5,120.6 164.2,111.4 164.2,92.9 147.5,102.1 147.5,83.7 164.2,74.5 164.2,56.1 147.5,65.3 147.5,65.3 147.5,46.9 147.5,46.9 164.2,37.7 164.2,19.2 147.5,28.4 147.5,10.0 292.1,-69.6 292.1,-69.6 292.1,-47.3 308.8,-60.3 308.8,-41.9 292.1,-36.6 292.1,-10.4 308.8,-23.5 308.8,-23.5 308.8,-5.1 308.8,-5.1 292.1,0.2 292.1,26.4 308.8,13.4 308.8,31.8 292.1,37.1 292.1,59.4 292.1,59.4 147.5,139.0 147.5,120.6" />
<polygon fill="none" stroke-width="1" stroke-dasharray="2" stroke="gray" points="293.1,-70.2 293.7,-73.8 132.5,15.0 138.2,15.0 293.1,-70.2" />
<polygon fill="rgba(255,255,255,0.75)" stroke-width="1" stroke-dasharray="" stroke="black" points="293.1,-57.2 138.2,28.0 132.5,28.0 293.7,-60.8 293.1,-57.2" />
<polygon fill="none" stroke-width="1" stroke-dasharray="2" stroke="gray" points="293.1,35.8 293.7,32.2 132.5,121.0 138.2,121.0 293.1,35.8" />
<polygon fill="rgba(255,255,255,0.75)" stroke-width="1" stroke-dasharray="" stroke="black" points="293.1,48.8 138.2,134.0 132.5,134.0 293.7,45.2 293.1,48.8" />
<polygon fill="rgba(255,255,255,0.75)" stroke-width="1" stroke-dasharray="" stroke="black" points="292.1,-69.6 147.5,10.0 132.5,10.0 293.7,-78.8 292.1,-69.6" />
<polygon fill="none" stroke-width="1" stroke-dasharray="2" stroke="gray" points="292.1,59.4 293.7,50.2 132.5,139.0 147.5,139.0 292.1,59.4" />
<polygon fill="rgba(255,255,255,0.75)" stroke-width="1" stroke-dasharray="" stroke="black" points="19.2,23.1 4.2,23.1 4.2,0.8 19.2,0.8 19.2,5.8 13.4,5.8 13.4,18.8 19.2,18.8 19.2,23.1" />
<polygon fill="rgba(255,255,255,0.75)" stroke-width="1" stroke-dasharray="" stroke="black" points="19.2,107.5 19.2,111.8 13.4,111.8 13.4,124.8 19.2,124.8 19.2,129.8 4.2,129.8 4.2,107.5 19.2,107.5" />
<polygon fill="rgba(255,255,255,0.75)" stroke-width="1" stroke-dasharray="" stroke="black" points="19.2,33.8 19.2,60.0 4.2,60.0 4.2,33.8 19.2,33.8" />
<polygon fill="rgba(255,255,255,0.75)" stroke-width="1" stroke-dasharray="" stroke="black" points="19.2,70.6 19.2,96.8 4.2,96.8 4.2,70.6 19.2,70.6" />
<polygon fill="none" stroke-width="1" stroke-dasharray="2" stroke="gray" points="4.2,96.8 19.2,96.8 19.2,107.5 4.2,107.5 4.2,111.8 149.2,111.8 149.2,107.5 164.2,111.4 164.2,111.4 164.2,93.0 164.2,93.0 149.2,96.8 149.2,70.6 164.2,74.5 164.2,56.1 149.2,60.0 149.2,33.8 164.2,37.7 164.2,37.7 164.2,19.2 164.2,19.2 149.2,23.1 149.2,18.8 4.2,18.8 4.2,23.1 4.2,23.1 19.2,23.1 19.2,33.8 4.2,33.8 4.2,60.0 19.2,60.0 19.2,70.6 4.2,70.6 4.2,70.6 4.2,96.8" />
<polygon fill="rgba(255,255,255,0.75)" stroke-width="1" stroke-dasharray="" stroke="black" points="164.2,19.2 164.2,37.7 149.2,33.8 149.2,23.1 164.2,19.2" />
<polygon fill="rgba(255,255,255,0.75)" stroke-width="1" stroke-dasharray="" stroke="black" points="164.2,56.1 164.2,74.5 149.2,70.6 149.2,60.0 164.2,56.1" />
<polygon fill="rgba(255,255,255,0.75)" stroke-width="1" stroke-dasharray="" stroke="black" points="164.2,92.9 164.2,111.4 149.2,107.5 149.2,96.8 164.2,92.9" />
<polygon fill="none" stroke-width="1" stroke-dasharray="2" stroke="gray" points="142.7,9.3 149.2,5.8 4.2,5.8 3.5,9.3 142.7,9.3" />
<polygon fill="rgba(255,255,255,0.75)" stroke-width="1" stroke-dasharray="" stroke="black" points="142.7,22.3 3.5,22.3 4.2,18.8 149.2,18.8 142.7,22.3" />
<polygon fill="none" stroke-width="1" stroke-dasharray="2" stroke="gray" points="142.7,115.3 149.2,111.8 4.2,111.8 3.5,115.3 142.7,115.3" />
<polygon fill="rgba(255,255,255,0.75)" stroke-width="1" stroke-dasharray="" stroke="black" points="142.7,128.3 3.5,128.3 4.2,124.8 149.2,124.8 142.7,128.3" />
<polygon fill="rgba(255,255,255,0.75)" stroke-width="1" stroke-dasharray="" stroke="silver" points="2.5,28.4 4.2,23.1 19.2,23.1 17.5,28.4" />
<polygon fill="none" stroke-width="1" stroke-dasharray="2" stroke="gray" points="17.5,46.9 19.2,33.8 4.2,33.8 2.5,46.9" />
<polygon fill="rgba(255,255,255,0.75)" stroke-width="1" stroke-dasharray="" stroke="silver" points="2.5,65.3 4.2,60.0 19.2,60.0 17.5,65.3" />
<polygon fill="none" stroke-width="1" stroke-dasharray="2" stroke="gray" points="17.5,83.7 19.2,70.6 4.2,70.6 2.5,83.7" />
<polygon fill="rgba(255,255,255,0.75)" stroke-width="1" stroke-dasharray="" stroke="silver" points="2.5,102.1 4.2,96.8 19.2,96.8 17.5,102.1" />
<polygon fill="none" stroke-width="1" stroke-dasharray="2" stroke="gray" points="17.5,120.6 19.2,107.5 4.2,107.5 2.5,120.6" />
<polygon fill="none" stroke-width="1" stroke-dasharray="2" stroke="gray" points="2.5,28.4 4.2,23.1 4.2,18.8 3.5,22.3 3.5,9.3 4.2,5.8 4.2,0.8 2.5,10.0 2.5,28.4" />
<polygon fill="none" stroke-width="1" stroke-dasharray="2" stroke="gray" points="2.5,46.8 2.5,65.3 4.2,60.0 4.2,33.8 2.5,46.8" />
<polygon fill="none" stroke-width="1" stroke-dasharray="2" stroke="gray" points="2.5,83.7 2.5,102.2 4.2,96.8 4.2,70.6 2.5,83.7" />
<polygon fill="none" stroke-width="1" stroke-dasharray="2" stroke="gray" points="2.5,120.6 2.5,139.0 4.2,129.8 4.2,124.8 3.5,128.3 3.5,115.3 4.2,111.8 4.2,107.5 2.5,120.6" />
<polygon fill="none" stroke-width="1" stroke-dasharray="2" stroke="gray" points="2.5,28.4 17.5,28.4 19.2,23.1 4.2,23.1" />
<polygon fill="rgba(255,255,255,0.75)" stroke-width="1" stroke-dasharray="" stroke="black" points="4.2,33.8 19.2,33.8 17.5,46.9 2.5,46.9" />
<polygon fill="none" stroke-width="1" stroke-dasharray="2" stroke="gray" points="2.5,65.3 17.5,65.3 19.2,60.0 4.2,60.0" />
<polygon fill="rgba(255,255,255,0.75)" stroke-width="1" stroke-dasharray="" stroke="black" points="4.2,70.6 19.2,70.6 17.5,83.7 2.5,83.7" />
<polygon fill="none" stroke-width="1" stroke-dasharray="2" stroke="gray" points="2.5,102.1 17.5,102.1 19.2,96.8 4.2,96.8" />
<polygon fill="rgba(255,255,255,0.75)" stroke-width="1" stroke-dasharray="" stroke="black" points="4.2,107.5 19.2,107.5 17.5,120.6 2.5,120.6" />
<polygon fill="none" stroke-width="1" stroke-dasharray="2" stroke="gray" points="17.5,28.4 17.5,46.9 19.2,33.8 19.2,23.1 17.5,28.4" />
<polygon fill="none" stroke-width="1" stroke-dasharray="2" stroke="gray" points="17.5,65.3 17.5,83.7 19.2,70.6 19.2,60.0 17.5,65.3" />
<polygon fill="none" stroke-width="1" stroke-dasharray="2" stroke="gray" points="17.5,102.1 17.5,120.6 19.2,107.5 19.2,96.8 17.5,102.1" />
<polygon fill="rgba(255,255,255,0.75)" stroke-width="1" stroke-dasharray="" stroke="black" points="132.5,10.0 2.5,10.0 4.2,0.8 149.2,0.8 132.5,10.0" />
<polygon fill="none" stroke-width="1" stroke-dasharray="2" stroke="gray" points="132.5,139.0 149.2,129.8 4.2,129.8 2.5,139.0 132.5,139.0" />
<polygon fill="rgba(255,255,255,0.75)" stroke-width="1" stroke-dasharray="" stroke="black" points="149.2,23.1 132.5,32.3 132.5,10.0 149.2,0.8 149.2,5.8 142.7,9.3 142.7,22.3 149.2,18.8 149.2,23.1" />
<polygon fill="rgba(255,255,255,0.75)" stroke-width="1" stroke-dasharray="" stroke="black" points="149.2,33.8 149.2,60.0 132.5,69.2 132.5,43.0 149.2,33.8" />
<polygon fill="rgba(255,255,255,0.75)" stroke-width="1" stroke-dasharray="" stroke="black" points="149.2,70.6 149.2,96.8 132.5,106.0 132.5,79.8 149.2,70.6" />
<polygon fill="rgba(255,255,255,0.75)" stroke-width="1" stroke-dasharray="" stroke="black" points="149.2,107.5 149.2,111.8 142.7,115.3 142.7,128.3 149.2,124.8 149.2,129.8 132.5,139.0 132.5,116.7 149.2,107.5" />
<polygon fill="rgba(255,255,255,0.75)" stroke-width="1" stroke-dasharray="" stroke="silver" points="147.5,28.4 132.5,32.3 149.2,23.1 164.2,19.2" />
<polygon fill="none" stroke-width="1" stroke-dasharray="2" stroke="gray" points="164.2,37.7 149.2,33.8 132.5,43.0 147.5,46.9" />
<polygon fill="rgba(255,255,255,0.75)" stroke-width="1" stroke-dasharray="" stroke="silver" points="147.5,65.3 132.5,69.2 149.2,60.0 164.2,56.1" />
<polygon fill="none" stroke-width="1" stroke-dasharray="2" stroke="gray" points="164.2,74.5 149.2,70.6 132.5,79.8 147.5,83.7" />
<polygon fill="rgba(255,255,255,0.75)" stroke-width="1" stroke-dasharray="" stroke="silver" points="147.5,102.1 132.5,106.0 149.2,96.8 164.2,93.0" />
<polygon fill="none" stroke-width="1" stroke-dasharray="2" stroke="gray" points="164.2,111.4 149.2,107.5 132.5,116.7 147.5,120.6" />
<polygon fill="rgba(255,255,255,0.75)" stroke-width="1" stroke-dasharray="" stroke="black" points="164.2,19.2 164.2,37.7 147.5,46.9 147.5,28.4 164.2,19.2" />
<polygon fill="rgba(255,255,255,0.75)" stroke-width="1" stroke-dasharray="" stroke="black" points="164.2,56.1 164.2,74.5 147.5,83.7 147.5,65.3 164.2,56.1" />
<polygon fill="rgba(255,255,255,0.75)" stroke-width="1" stroke-dasharray="" stroke="black" points="164.2,92.9 164.2,111.4 147.5,120.6 147.5,102.1 164.2,92.9" />
<polygon fill="none" stroke-width="1" stroke-dasharray="2" stroke="gray" points="147.5,28.4 164.2,19.2 149.2,23.1 132.5,32.3" />
<polygon fill="rgba(255,255,255,0.75)" stroke-width="1" stroke-dasharray="" stroke="black" points="132.5,43.0 149.2,33.8 164.2,37.7 147.5,46.9" />
<polygon fill="none" stroke-width="1" stroke-dasharray="2" stroke="gray" points="147.5,65.3 164.2,56.1 149.2,60.0 132.5,69.2" />
<polygon fill="rgba(255,255,255,0.75)" stroke-width="1" stroke-dasharray="" stroke="black" points="132.5,79.8 149.2,70.6 164.2,74.5 147.5,83.7" />
<polygon fill="none" stroke-width="1" stroke-dasharray="2" stroke="gray" points="147.5,102.1 164.2,93.0 149.2,96.8 132.5,106.0" />
<polygon fill="rgba(255,255,255,0.75)" stroke-width="1" stroke-dasharray="" stroke="black" points="132.5,116.7 149.2,107.5 164.2,111.4 147.5,120.6" />
<polygon fill="rgba(255,255,255,0.75)" stroke-width="1" stroke-dasharray="" stroke="black" points="17.5,28.4 17.5,46.9 2.5,46.9 2.5,28.4 17.5,28.4" />
<polygon fill="rgba(255,255,255,0.75)" stroke-width="1" stroke-dasharray="" stroke="black" points="17.5,65.3 17.5,83.7 2.5,83.7 2.5,65.3 17.5,65.3" />
<polygon fill="rgba(255,255,255,0.75)" stroke-width="1" stroke-dasharray="" stroke="black" points="17.5,102.1 17.5,120.6 2.5,120.6 2.5,102.1 17.5,102.1" />
<polygon fill="rgba(255,255,255,0.75)" stroke-width="1" stroke-dasharray="" stroke="black" points="147.5,28.4 132.5,32.3 132.5,28.0 138.2,28.0 138.2,15.0 132.5,15.0 132.5,10.0 147.5,10.0 147.5,28.4" />
<polygon fill="rgba(255,255,255,0.75)" stroke-width="1" stroke-dasharray="" stroke="black" points="147.5,46.8 147.5,65.3 132.5,69.2 132.5,43.0 147.5,46.8" />
<polygon fill="rgba(255,255,255,0.75)" stroke-width="1" stroke-dasharray="" stroke="black" points="147.5,83.7 147.5,102.2 132.5,106.0 132.5,79.8 147.5,83.7" />
<polygon fill="rgba(255,255,255,0.75)" stroke-width="1" stroke-dasharray="" stroke="black" points="147.5,120.6 147.5,139.0 132.5,139.0 132.5,134.0 138.2,134.0 138.2,121.0 132.5,121.0 132.5,116.7 147.5,120.6" />
<polygon fill="rgba(255,255,255,0.75)" stroke-width="1" stroke-dasharray="" stroke="black" points="2.5,120.6 17.5,120.6 17.5,102.1 2.5,102.1 2.5,83.7 17.5,83.7 17.5,65.3 2.5,65.3 2.5,65.3 2.5,46.9 2.5,46.9 17.5,46.9 17.5,28.4 2.5,28.4 2.5,10.0 132.5,10.0 132.5,10.0 132.5,32.3 147.5,28.4 147.5,46.8 132.5,43.0 132.5,69.2 147.5,65.3 147.5,65.3 147.5,83.7 147.5,83.7 132.5,79.8 132.5,106.0 147.5,102.2 147.5,120.6 132.5,116.7 132.5,139.0 132.5,139.0 2.5,139.0 2.5,120.6" />
</svg>
