<svg width="1100" viewBox="0.0 0.0 550.0 524.6" xmlns="http://www.w3.org/2000/svg">
<polygon fill="none" stroke-width="1" stroke-dasharray="2" stroke="gray" points="19.2,29.2 19.2,34.2 179.2,34.2 179.2,29.2" />
<polygon fill="none" stroke-width="1" stroke-dasharray="2" stroke="gray" points="19.2,47.2 19.2,150.2 179.2,150.2 179.2,47.2" />
<polygon fill="none" stroke-width="1" stroke-dasharray="2" stroke="gray" points="19.2,163.2 19.2,168.2 179.2,168.2 179.2,163.2" />
<polygon fill="rgba(192,192,192,0.75)" stroke-width="1" stroke-dasharray="" stroke="black" points="18.5,30.7 172.8,30.7 179.2,34.2 19.2,34.2" />
<polygon fill="none" stroke-width="1" stroke-dasharray="2" stroke="gray" points="19.2,47.2 179.2,47.2 172.8,43.7 18.5,43.7" />
<polygon fill="rgba(192,192,192,0.75)" stroke-width="1" stroke-dasharray="" stroke="black" points="18.5,146.7 172.8,146.7 179.2,150.2 19.2,150.2" />
<polygon fill="none" stroke-width="1" stroke-dasharray="2" stroke="gray" points="19.2,163.2 179.2,163.2 172.8,159.7 18.5,159.7" />
<polygon fill="none" stroke-width="1" stroke-dasharray="2" stroke="gray" points="18.5,30.7 18.5,43.7 172.8,43.7 172.8,30.7" />
<polygon fill="none" stroke-width="1" stroke-dasharray="2" stroke="gray" points="18.5,146.7 18.5,159.7 172.8,159.7 172.8,146.7" />
<polygon fill="none" stroke-width="1" stroke-dasharray="2" stroke="gray" points="17.5,20.0 17.5,159.0 19.2,168.2 19.2,163.2 18.5,159.7 18.5,146.7 19.2,150.2 19.2,47.2 18.5,43.7 18.5,30.7 19.2,34.2 19.2,29.2" />
<polygon fill="none" stroke-width="1" stroke-dasharray="2" stroke="gray" points="19.2,29.2 179.2,29.2 162.5,20.0 17.5,20.0" />
<polygon fill="rgba(192,192,192,0.75)" stroke-width="1" stroke-dasharray="" stroke="black" points="17.5,159.0 162.5,159.0 179.2,168.2 19.2,168.2" />
<polygon fill="rgba(255,255,255,0.75)" stroke-width="1" stroke-dasharray="" stroke="black" points="179.2,29.2 179.2,34.2 172.8,30.7 172.8,43.7 179.2,47.2 179.2,150.2 172.8,146.7 172.8,159.7 179.2,163.2 179.2,168.2 162.5,159.0 162.5,20.0" />
<polygon fill="rgba(255,255,255,0.75)" stroke-width="1" stroke-dasharray="" stroke="black" points="17.5,20.0 162.5,20.0 162.5,159.0 17.5,159.0" />
<polygon fill="rgba(192,192,192,0.5)" stroke-width="1" stroke-dasharray="" stroke="none" points="162.5,63.0 179.2,72.2 179.2,77.2 162.5,68.0" />
<polygon fill="rgba(192,192,192,0.5)" stroke-width="1" stroke-dasharray="" stroke="none" points="162.5,111.0 179.2,120.2 179.2,125.2 162.5,116.0" />
<polygon fill="rgba(192,192,192,0.5)" stroke-width="1" stroke-dasharray="" stroke="none" points="17.5,63.0 162.5,63.0 162.5,68.0 17.5,68.0" />
<polygon fill="rgba(192,192,192,0.5)" stroke-width="1" stroke-dasharray="" stroke="none" points="17.5,111.0 162.5,111.0 162.5,116.0 17.5,116.0" />
<polygon fill="none" stroke-width="1" stroke-dasharray="2" stroke="gray" points="19.2,197.4 19.2,202.4 179.2,202.4 179.2,197.4" />
<polygon fill="none" stroke-width="1" stroke-dasharray="2" stroke="gray" points="19.2,215.4 19.2,318.4 179.2,318.4 179.2,215.4" />
<polygon fill="none" stroke-width="1" stroke-dasharray="2" stroke="gray" points="19.2,331.4 19.2,336.4 179.2,336.4 179.2,331.4" />
<polygon fill="rgba(192,192,192,0.75)" stroke-width="1" stroke-dasharray="" stroke="black" points="18.5,198.8 172.8,198.8 179.2,202.4 19.2,202.4" />
<polygon fill="none" stroke-width="1" stroke-dasharray="2" stroke="gray" points="19.2,215.4 179.2,215.4 172.8,211.8 18.5,211.8" />
<polygon fill="rgba(192,192,192,0.75)" stroke-width="1" stroke-dasharray="" stroke="black" points="18.5,314.8 172.8,314.8 179.2,318.4 19.2,318.4" />
<polygon fill="none" stroke-width="1" stroke-dasharray="2" stroke="gray" points="19.2,331.4 179.2,331.4 172.8,327.8 18.5,327.8" />
<polygon fill="none" stroke-width="1" stroke-dasharray="2" stroke="gray" points="18.5,198.8 18.5,211.8 172.8,211.8 172.8,198.8" />
<polygon fill="none" stroke-width="1" stroke-dasharray="2" stroke="gray" points="18.5,314.8 18.5,327.8 172.8,327.8 172.8,314.8" />
<polygon fill="none" stroke-width="1" stroke-dasharray="2" stroke="gray" points="17.5,188.2 17.5,327.2 19.2,336.4 19.2,331.4 18.5,327.8 18.5,314.8 19.2,318.4 19.2,215.4 18.5,211.8 18.5,198.8 19.2,202.4 19.2,197.4" />
<polygon fill="none" stroke-width="1" stroke-dasharray="2" stroke="gray" points="19.2,197.4 179.2,197.4 162.5,188.2 17.5,188.2" />
<polygon fill="rgba(192,192,192,0.75)" stroke-width="1" stroke-dasharray="" stroke="black" points="17.5,327.2 162.5,327.2 179.2,336.4 19.2,336.4" />
<polygon fill="rgba(255,255,255,0.75)" stroke-width="1" stroke-dasharray="" stroke="black" points="179.2,197.4 179.2,202.4 172.8,198.8 172.8,211.8 179.2,215.4 179.2,318.4 172.8,314.8 172.8,327.8 179.2,331.4 179.2,336.4 162.5,327.2 162.5,188.2" />
<polygon fill="rgba(255,255,255,0.75)" stroke-width="1" stroke-dasharray="" stroke="black" points="17.5,188.2 162.5,188.2 162.5,327.2 17.5,327.2" />
<polygon fill="rgba(192,192,192,0.5)" stroke-width="1" stroke-dasharray="" stroke="none" points="162.5,231.2 179.2,240.4 179.2,245.4 162.5,236.2" />
<polygon fill="rgba(192,192,192,0.5)" stroke-width="1" stroke-dasharray="" stroke="none" points="162.5,279.2 179.2,288.4 179.2,293.4 162.5,284.2" />
<polygon fill="rgba(192,192,192,0.5)" stroke-width="1" stroke-dasharray="" stroke="none" points="17.5,231.2 162.5,231.2 162.5,236.2 17.5,236.2" />
<polygon fill="rgba(192,192,192,0.5)" stroke-width="1" stroke-dasharray="" stroke="none" points="17.5,279.2 162.5,279.2 162.5,284.2 17.5,284.2" />
<circle cx="140" cy="200.2" r="5" stroke="orange" fill="white" stroke-width="1" />
<circle cx="140" cy="248.2" r="5" stroke="orange" fill="white" stroke-width="1" />
<circle cx="140" cy="296.2" r="5" stroke="orange" fill="white" stroke-width="1" />
<polygon fill="none" stroke-width="1" stroke-dasharray="2" stroke="gray" points="19.2,365.6 19.2,370.6 179.2,370.6 179.2,365.6" />
<polygon fill="none" stroke-width="1" stroke-dasharray="2" stroke="gray" points="19.2,383.6 19.2,486.6 179.2,486.6 179.2,383.6" />
<polygon fill="none" stroke-width="1" stroke-dasharray="2" stroke="gray" points="19.2,499.6 19.2,504.6 179.2,504.6 179.2,499.6" />
<polygon fill="rgba(192,192,192,0.75)" stroke-width="1" stroke-dasharray="" stroke="black" points="18.5,367.0 172.8,367.0 179.2,370.6 19.2,370.6" />
<polygon fill="none" stroke-width="1" stroke-dasharray="2" stroke="gray" points="19.2,383.6 179.2,383.6 172.8,380.0 18.5,380.0" />
<polygon fill="rgba(192,192,192,0.75)" stroke-width="1" stroke-dasharray="" stroke="black" points="18.5,483.0 172.8,483.0 179.2,486.6 19.2,486.6" />
<polygon fill="none" stroke-width="1" stroke-dasharray="2" stroke="gray" points="19.2,499.6 179.2,499.6 172.8,496.0 18.5,496.0" />
<polygon fill="none" stroke-width="1" stroke-dasharray="2" stroke="gray" points="18.5,367.0 18.5,380.0 172.8,380.0 172.8,367.0" />
<polygon fill="none" stroke-width="1" stroke-dasharray="2" stroke="gray" points="18.5,483.0 18.5,496.0 172.8,496.0 172.8,483.0" />
<polygon fill="none" stroke-width="1" stroke-dasharray="2" stroke="gray" points="17.5,356.4 17.5,495.4 19.2,504.6 19.2,499.6 18.5,496.0 18.5,483.0 19.2,486.6 19.2,383.6 18.5,380.0 18.5,367.0 19.2,370.6 19.2,365.6" />
<polygon fill="none" stroke-width="1" stroke-dasharray="2" stroke="gray" points="19.2,365.6 179.2,365.6 162.5,356.4 17.5,356.4" />
<polygon fill="rgba(192,192,192,0.75)" stroke-width="1" stroke-dasharray="" stroke="black" points="17.5,495.4 162.5,495.4 179.2,504.6 19.2,504.6" />
<polygon fill="rgba(255,255,255,0.75)" stroke-width="1" stroke-dasharray="" stroke="black" points="179.2,365.6 179.2,370.6 172.8,367.0 172.8,380.0 179.2,383.6 179.2,486.6 172.8,483.0 172.8,496.0 179.2,499.6 179.2,504.6 162.5,495.4 162.5,356.4" />
<polygon fill="rgba(255,255,255,0.75)" stroke-width="1" stroke-dasharray="" stroke="black" points="17.5,356.4 162.5,356.4 162.5,495.4 17.5,495.4" />
<polygon fill="rgba(192,192,192,0.5)" stroke-width="1" stroke-dasharray="" stroke="none" points="162.5,399.4 179.2,408.6 179.2,413.6 162.5,404.4" />
<polygon fill="rgba(192,192,192,0.5)" stroke-width="1" stroke-dasharray="" stroke="none" points="162.5,447.4 179.2,456.6 179.2,461.6 162.5,452.4" />
<polygon fill="rgba(192,192,192,0.5)" stroke-width="1" stroke-dasharray="" stroke="none" points="17.5,399.4 162.5,399.4 162.5,404.4 17.5,404.4" />
<polygon fill="rgba(192,192,192,0.5)" stroke-width="1" stroke-dasharray="" stroke="none" points="17.5,447.4 162.5,447.4 162.5,452.4 17.5,452.4" />
<polygon fill="none" stroke-width="1" stroke-dasharray="2" stroke="gray" points="309.2,29.2 309.2,34.2 469.2,34.2 469.2,29.2" />
<polygon fill="none" stroke-width="1" stroke-dasharray="2" stroke="gray" points="309.2,47.2 309.2,150.2 469.2,150.2 469.2,47.2" />
<polygon fill="none" stroke-width="1" stroke-dasharray="2" stroke="gray" points="309.2,163.2 309.2,168.2 469.2,168.2 469.2,163.2" />
<polygon fill="rgba(192,192,192,0.75)" stroke-width="1" stroke-dasharray="" stroke="black" points="308.5,30.7 462.8,30.7 469.2,34.2 309.2,34.2" />
<polygon fill="none" stroke-width="1" stroke-dasharray="2" stroke="gray" points="309.2,47.2 469.2,47.2 462.8,43.7 308.5,43.7" />
<polygon fill="rgba(192,192,192,0.75)" stroke-width="1" stroke-dasharray="" stroke="black" points="308.5,146.7 462.8,146.7 469.2,150.2 309.2,150.2" />
<polygon fill="none" stroke-width="1" stroke-dasharray="2" stroke="gray" points="309.2,163.2 469.2,163.2 462.8,159.7 308.5,159.7" />
<polygon fill="none" stroke-width="1" stroke-dasharray="2" stroke="gray" points="308.5,30.7 308.5,43.7 462.8,43.7 462.8,30.7" />
<polygon fill="none" stroke-width="1" stroke-dasharray="2" stroke="gray" points="308.5,146.7 308.5,159.7 462.8,159.7 462.8,146.7" />
<polygon fill="none" stroke-width="1" stroke-dasharray="2" stroke="gray" points="307.5,20.0 307.5,159.0 309.2,168.2 309.2,163.2 308.5,159.7 308.5,146.7 309.2,150.2 309.2,47.2 308.5,43.7 308.5,30.7 309.2,34.2 309.2,29.2" />
<polygon fill="none" stroke-width="1" stroke-dasharray="2" stroke="gray" points="309.2,29.2 469.2,29.2 452.5,20.0 307.5,20.0" />
<polygon fill="rgba(192,192,192,0.75)" stroke-width="1" stroke-dasharray="" stroke="black" points="307.5,159.0 452.5,159.0 469.2,168.2 309.2,168.2" />
<polygon fill="rgba(255,255,255,0.75)" stroke-width="1" stroke-dasharray="" stroke="black" points="469.2,29.2 469.2,34.2 462.8,30.7 462.8,43.7 469.2,47.2 469.2,150.2 462.8,146.7 462.8,159.7 469.2,163.2 469.2,168.2 452.5,159.0 452.5,20.0" />
<polygon fill="rgba(255,255,255,0.75)" stroke-width="1" stroke-dasharray="" stroke="black" points="307.5,20.0 452.5,20.0 452.5,159.0 307.5,159.0" />
<polygon fill="rgba(192,192,192,0.5)" stroke-width="1" stroke-dasharray="" stroke="none" points="452.5,63.0 469.2,72.2 469.2,77.2 452.5,68.0" />
<polygon fill="rgba(192,192,192,0.5)" stroke-width="1" stroke-dasharray="" stroke="none" points="452.5,111.0 469.2,120.2 469.2,125.2 452.5,116.0" />
<polygon fill="rgba(192,192,192,0.5)" stroke-width="1" stroke-dasharray="" stroke="none" points="307.5,63.0 452.5,63.0 452.5,68.0 307.5,68.0" />
<polygon fill="rgba(192,192,192,0.5)" stroke-width="1" stroke-dasharray="" stroke="none" points="307.5,111.0 452.5,111.0 452.5,116.0 307.5,116.0" />
<polygon fill="none" stroke-width="1" stroke-dasharray="2" stroke="gray" points="309.2,197.4 309.2,202.4 469.2,202.4 469.2,197.4" />
<polygon fill="none" stroke-width="1" stroke-dasharray="2" stroke="gray" points="309.2,215.4 309.2,318.4 469.2,318.4 469.2,215.4" />
<polygon fill="none" stroke-width="1" stroke-dasharray="2" stroke="gray" points="309.2,331.4 309.2,336.4 469.2,336.4 469.2,331.4" />
<polygon fill="rgba(192,192,192,0.75)" stroke-width="1" stroke-dasharray="" stroke="black" points="308.5,198.8 462.8,198.8 469.2,202.4 309.2,202.4" />
<polygon fill="none" stroke-width="1" stroke-dasharray="2" stroke="gray" points="309.2,215.4 469.2,215.4 462.8,211.8 308.5,211.8" />
<polygon fill="rgba(192,192,192,0.75)" stroke-width="1" stroke-dasharray="" stroke="black" points="308.5,314.8 462.8,314.8 469.2,318.4 309.2,318.4" />
<polygon fill="none" stroke-width="1" stroke-dasharray="2" stroke="gray" points="309.2,331.4 469.2,331.4 462.8,327.8 308.5,327.8" />
<polygon fill="none" stroke-width="1" stroke-dasharray="2" stroke="gray" points="308.5,198.8 308.5,211.8 462.8,211.8 462.8,198.8" />
<polygon fill="none" stroke-width="1" stroke-dasharray="2" stroke="gray" points="308.5,314.8 308.5,327.8 462.8,327.8 462.8,314.8" />
<polygon fill="none" stroke-width="1" stroke-dasharray="2" stroke="gray" points="307.5,188.2 307.5,327.2 309.2,336.4 309.2,331.4 308.5,327.8 308.5,314.8 309.2,318.4 309.2,215.4 308.5,211.8 308.5,198.8 309.2,202.4 309.2,197.4" />
<polygon fill="none" stroke-width="1" stroke-dasharray="2" stroke="gray" points="309.2,197.4 469.2,197.4 452.5,188.2 307.5,188.2" />
<polygon fill="rgba(192,192,192,0.75)" stroke-width="1" stroke-dasharray="" stroke="black" points="307.5,327.2 452.5,327.2 469.2,336.4 309.2,336.4" />
<polygon fill="rgba(255,255,255,0.75)" stroke-width="1" stroke-dasharray="" stroke="black" points="469.2,197.4 469.2,202.4 462.8,198.8 462.8,211.8 469.2,215.4 469.2,318.4 462.8,314.8 462.8,327.8 469.2,331.4 469.2,336.4 452.5,327.2 452.5,188.2" />
<polygon fill="rgba(255,255,255,0.75)" stroke-width="1" stroke-dasharray="" stroke="black" points="307.5,188.2 452.5,188.2 452.5,327.2 307.5,327.2" />
<polygon fill="rgba(192,192,192,0.5)" stroke-width="1" stroke-dasharray="" stroke="none" points="452.5,231.2 469.2,240.4 469.2,245.4 452.5,236.2" />
<polygon fill="rgba(192,192,192,0.5)" stroke-width="1" stroke-dasharray="" stroke="none" points="452.5,279.2 469.2,288.4 469.2,293.4 452.5,284.2" />
<polygon fill="rgba(192,192,192,0.5)" stroke-width="1" stroke-dasharray="" stroke="none" points="307.5,231.2 452.5,231.2 452.5,236.2 307.5,236.2" />
<polygon fill="rgba(192,192,192,0.5)" stroke-width="1" stroke-dasharray="" stroke="none" points="307.5,279.2 452.5,279.2 452.5,284.2 307.5,284.2" />
<circle cx="430" cy="200.2" r="5" stroke="orange" fill="white" stroke-width="1" />
<circle cx="430" cy="248.2" r="5" stroke="orange" fill="white" stroke-width="1" />
<circle cx="430" cy="296.2" r="5" stroke="orange" fill="white" stroke-width="1" />
<polygon fill="none" stroke-width="1" stroke-dasharray="2" stroke="gray" points="309.2,365.6 309.2,370.6 469.2,370.6 469.2,365.6" />
<polygon fill="none" stroke-width="1" stroke-dasharray="2" stroke="gray" points="309.2,383.6 309.2,486.6 469.2,486.6 469.2,383.6" />
<polygon fill="none" stroke-width="1" stroke-dasharray="2" stroke="gray" points="309.2,499.6 309.2,504.6 469.2,504.6 469.2,499.6" />
<polygon fill="rgba(192,192,192,0.75)" stroke-width="1" stroke-dasharray="" stroke="black" points="308.5,367.0 462.8,367.0 469.2,370.6 309.2,370.6" />
<polygon fill="none" stroke-width="1" stroke-dasharray="2" stroke="gray" points="309.2,383.6 469.2,383.6 462.8,380.0 308.5,380.0" />
<polygon fill="rgba(192,192,192,0.75)" stroke-width="1" stroke-dasharray="" stroke="black" points="308.5,483.0 462.8,483.0 469.2,486.6 309.2,486.6" />
<polygon fill="none" stroke-width="1" stroke-dasharray="2" stroke="gray" points="309.2,499.6 469.2,499.6 462.8,496.0 308.5,496.0" />
<polygon fill="none" stroke-width="1" stroke-dasharray="2" stroke="gray" points="308.5,367.0 308.5,380.0 462.8,380.0 462.8,367.0" />
<polygon fill="none" stroke-width="1" stroke-dasharray="2" stroke="gray" points="308.5,483.0 308.5,496.0 462.8,496.0 462.8,483.0" />
<polygon fill="none" stroke-width="1" stroke-dasharray="2" stroke="gray" points="307.5,356.4 307.5,495.4 309.2,504.6 309.2,499.6 308.5,496.0 308.5,483.0 309.2,486.6 309.2,383.6 308.5,380.0 308.5,367.0 309.2,370.6 309.2,365.6" />
<polygon fill="none" stroke-width="1" stroke-dasharray="2" stroke="gray" points="309.2,365.6 469.2,365.6 452.5,356.4 307.5,356.4" />
<polygon fill="rgba(192,192,192,0.75)" stroke-width="1" stroke-dasharray="" stroke="black" points="307.5,495.4 452.5,495.4 469.2,504.6 309.2,504.6" />
<polygon fill="rgba(255,255,255,0.75)" stroke-width="1" stroke-dasharray="" stroke="black" points="469.2,365.6 469.2,370.6 462.8,367.0 462.8,380.0 469.2,383.6 469.2,486.6 462.8,483.0 462.8,496.0 469.2,499.6 469.2,504.6 452.5,495.4 452.5,356.4" />
<polygon fill="rgba(255,255,255,0.75)" stroke-width="1" stroke-dasharray="" stroke="black" points="307.5,356.4 452.5,356.4 452.5,495.4 307.5,495.4" />
<polygon fill="rgba(192,192,192,0.5)" stroke-width="1" stroke-dasharray="" stroke="none" points="452.5,399.4 469.2,408.6 469.2,413.6 452.5,404.4" />
<polygon fill="rgba(192,192,192,0.5)" stroke-width="1" stroke-dasharray="" stroke="none" points="452.5,447.4 469.2,456.6 469.2,461.6 452.5,452.4" />
<polygon fill="rgba(192,192,192,0.5)" stroke-width="1" stroke-dasharray="" stroke="none" points="307.5,399.4 452.5,399.4 452.5,404.4 307.5,404.4" />
<polygon fill="rgba(192,192,192,0.5)" stroke-width="1" stroke-dasharray="" stroke="none" points="307.5,447.4 452.5,447.4 452.5,452.4 307.5,452.4" />
<rect x="310" y="389.3847763108502" width="40" height="10.0" style="fill: none; stroke: orange; stroke-width: 1;" />
</svg>
