<svg width="1100" viewBox="0 0 550 692.7695526217004" xmlns="http://www.w3.org/2000/svg">
<polygon fill="none" stroke-width="1" stroke-dasharray="2" stroke="gray" points="19.19238815542512,29.192388155425117 19.19238815542512,168.1923881554251 489.19238815542514,168.1923881554251 489.19238815542514,29.192388155425117" />
<polygon fill="none" stroke-width="1" stroke-dasharray="2" stroke="gray" points="10.0,20.0 10.0,159.0 19.19238815542512,168.1923881554251 19.19238815542512,29.192388155425117" />
<polygon fill="none" stroke-width="1" stroke-dasharray="2" stroke="gray" points="19.19238815542512,29.192388155425117 489.19238815542514,29.192388155425117 480.0,20.0 10.0,20.0" />
<polygon fill="rgba(192,192,192,0.75)" stroke-width="1" stroke-dasharray="" stroke="black" points="10.0,159.0 480.0,159.0 489.19238815542514,168.1923881554251 19.19238815542512,168.1923881554251" />
<polygon fill="rgba(255,255,255,0.75)" stroke-width="1" stroke-dasharray="" stroke="black" points="489.19238815542514,29.192388155425117 489.19238815542514,168.1923881554251 480.0,159.0 480.0,20.0" />
<polygon fill="rgba(255,255,255,0.75)" stroke-width="1" stroke-dasharray="" stroke="black" points="10.0,20.0 480.0,20.0 480.0,159.0 10.0,159.0" />
<polygon fill="rgba(192,192,192,0.5)" stroke-width="1" stroke-dasharray="" stroke="none" points="480.0,63.0 489.19238815542514,72.19238815542512 489.19238815542514,77.19238815542512 480.0,68.0" />
<polygon fill="rgba(192,192,192,0.5)" stroke-width="1" stroke-dasharray="" stroke="none" points="480.0,111.0 489.19238815542514,120.19238815542512 489.19238815542514,125.19238815542512 480.0,116.0" />
<polygon fill="rgba(192,192,192,0.5)" stroke-width="1" stroke-dasharray="" stroke="none" points="10.0,63.0 480.0,63.0 480.0,68.0 10.0,68.0" />
<polygon fill="rgba(192,192,192,0.5)" stroke-width="1" stroke-dasharray="" stroke="none" points="10.0,111.0 480.0,111.0 480.0,116.0 10.0,116.0" />
<circle cx="150" cy="32.0" r="5" stroke="orange" fill="white" stroke-width="1" />
<circle cx="185" cy="51.0" r="5" stroke="orange" fill="white" stroke-width="1" />
<circle cx="150" cy="80.0" r="5" stroke="orange" fill="white" stroke-width="1" />
<circle cx="185" cy="99.0" r="5" stroke="orange" fill="white" stroke-width="1" />
<circle cx="150" cy="128.0" r="5" stroke="orange" fill="white" stroke-width="1" />
<circle cx="185" cy="147.0" r="5" stroke="orange" fill="white" stroke-width="1" />
<polygon fill="none" stroke-width="1" stroke-dasharray="2" stroke="gray" points="19.19238815542512,197.3847763108502 19.19238815542512,336.3847763108502 489.19238815542514,336.3847763108502 489.19238815542514,197.3847763108502" />
<polygon fill="none" stroke-width="1" stroke-dasharray="2" stroke="gray" points="10.0,188.1923881554251 10.0,327.1923881554251 19.19238815542512,336.3847763108502 19.19238815542512,197.3847763108502" />
<polygon fill="none" stroke-width="1" stroke-dasharray="2" stroke="gray" points="19.19238815542512,197.3847763108502 489.19238815542514,197.3847763108502 480.0,188.1923881554251 10.0,188.1923881554251" />
<polygon fill="rgba(192,192,192,0.75)" stroke-width="1" stroke-dasharray="" stroke="black" points="10.0,327.1923881554251 480.0,327.1923881554251 489.19238815542514,336.3847763108502 19.19238815542512,336.3847763108502" />
<polygon fill="rgba(255,255,255,0.75)" stroke-width="1" stroke-dasharray="" stroke="black" points="489.19238815542514,197.3847763108502 489.19238815542514,336.3847763108502 480.0,327.1923881554251 480.0,188.1923881554251" />
<polygon fill="rgba(255,255,255,0.75)" stroke-width="1" stroke-dasharray="" stroke="black" points="10.0,188.1923881554251 480.0,188.1923881554251 480.0,327.1923881554251 10.0,327.1923881554251" />
<polygon fill="rgba(192,192,192,0.5)" stroke-width="1" stroke-dasharray="" stroke="none" points="480.0,231.1923881554251 489.19238815542514,240.3847763108502 489.19238815542514,245.3847763108502 480.0,236.1923881554251" />
<polygon fill="rgba(192,192,192,0.5)" stroke-width="1" stroke-dasharray="" stroke="none" points="480.0,279.1923881554251 489.19238815542514,288.3847763108502 489.19238815542514,293.3847763108502 480.0,284.1923881554251" />
<polygon fill="rgba(192,192,192,0.5)" stroke-width="1" stroke-dasharray="" stroke="none" points="10.0,231.1923881554251 480.0,231.1923881554251 480.0,236.1923881554251 10.0,236.1923881554251" />
<polygon fill="rgba(192,192,192,0.5)" stroke-width="1" stroke-dasharray="" stroke="none" points="10.0,279.1923881554251 480.0,279.1923881554251 480.0,284.1923881554251 10.0,284.1923881554251" />
<circle cx="150" cy="200.1923881554251" r="5" stroke="orange" fill="white" stroke-width="1" />
<circle cx="185" cy="219.1923881554251" r="5" stroke="orange" fill="white" stroke-width="1" />
<rect x="275" y="236.1923881554251" width="40" height="10.0" style="fill: none; stroke: orange; stroke-width: 1;" />
<circle cx="150" cy="248.1923881554251" r="5" stroke="orange" fill="white" stroke-width="1" />
<circle cx="185" cy="267.1923881554251" r="5" stroke="orange" fill="white" stroke-width="1" />
<circle cx="150" cy="296.1923881554251" r="5" stroke="orange" fill="white" stroke-width="1" />
<circle cx="185" cy="315.1923881554251" r="5" stroke="orange" fill="white" stroke-width="1" />
<polygon fill="none" stroke-width="1" stroke-dasharray="2" stroke="gray" points="19.19238815542512,365.57716446627535 19.19238815542512,504.57716446627535 509.19238815542514,504.57716446627535 509.19238815542514,365.57716446627535" />
<polygon fill="none" stroke-width="1" stroke-dasharray="2" stroke="gray" points="10.0,356.3847763108502 10.0,361.3847763108502 13.535533905932738,364.9203102167829 13.535533905932738,377.9203102167829 10.0,374.3847763108502 10.0,477.3847763108502 13.535533905932738,480.9203102167829 13.535533905932738,493.9203102167829 10.0,490.3847763108502 10.0,495.3847763108502 19.19238815542512,504.57716446627535 19.19238815542512,365.57716446627535" />
<polygon fill="none" stroke-width="1" stroke-dasharray="2" stroke="gray" points="19.19238815542512,365.57716446627535 509.19238815542514,365.57716446627535 500.0,356.3847763108502 10.0,356.3847763108502" />
<polygon fill="rgba(192,192,192,0.75)" stroke-width="1" stroke-dasharray="" stroke="black" points="10.0,495.3847763108502 500.0,495.3847763108502 509.19238815542514,504.57716446627535 19.19238815542512,504.57716446627535" />
<polygon fill="rgba(255,255,255,0.75)" stroke-width="1" stroke-dasharray="" stroke="black" points="509.19238815542514,365.57716446627535 509.19238815542514,504.57716446627535 500.0,495.3847763108502 500.0,490.3847763108502 503.53553390593277,493.9203102167829 503.53553390593277,480.9203102167829 500.0,477.3847763108502 500.0,374.3847763108502 503.53553390593277,377.9203102167829 503.53553390593277,364.9203102167829 500.0,361.3847763108502 500.0,356.3847763108502" />
<polygon fill="rgba(255,255,255,0.75)" stroke-width="1" stroke-dasharray="" stroke="black" points="13.535533905932738,364.9203102167829 503.53553390593277,364.9203102167829 503.53553390593277,377.9203102167829 13.535533905932738,377.9203102167829" />
<polygon fill="rgba(255,255,255,0.75)" stroke-width="1" stroke-dasharray="" stroke="black" points="13.535533905932738,480.9203102167829 503.53553390593277,480.9203102167829 503.53553390593277,493.9203102167829 13.535533905932738,493.9203102167829" />
<polygon fill="rgba(192,192,192,0.75)" stroke-width="1" stroke-dasharray="" stroke="black" points="10.0,361.3847763108502 500.0,361.3847763108502 503.53553390593277,364.9203102167829 13.535533905932738,364.9203102167829" />
<polygon fill="none" stroke-width="1" stroke-dasharray="2" stroke="gray" points="13.535533905932738,377.9203102167829 503.53553390593277,377.9203102167829 500.0,374.3847763108502 10.0,374.3847763108502" />
<polygon fill="rgba(192,192,192,0.75)" stroke-width="1" stroke-dasharray="" stroke="black" points="10.0,477.3847763108502 500.0,477.3847763108502 503.53553390593277,480.9203102167829 13.535533905932738,480.9203102167829" />
<polygon fill="none" stroke-width="1" stroke-dasharray="2" stroke="gray" points="13.535533905932738,493.9203102167829 503.53553390593277,493.9203102167829 500.0,490.3847763108502 10.0,490.3847763108502" />
<polygon fill="rgba(255,255,255,0.75)" stroke-width="1" stroke-dasharray="" stroke="black" points="10.0,356.3847763108502 500.0,356.3847763108502 500.0,361.3847763108502 10.0,361.3847763108502" />
<polygon fill="rgba(255,255,255,0.75)" stroke-width="1" stroke-dasharray="" stroke="black" points="10.0,374.3847763108502 500.0,374.3847763108502 500.0,477.3847763108502 10.0,477.3847763108502" />
<polygon fill="rgba(255,255,255,0.75)" stroke-width="1" stroke-dasharray="" stroke="black" points="10.0,490.3847763108502 500.0,490.3847763108502 500.0,495.3847763108502 10.0,495.3847763108502" />
<polygon fill="rgba(192,192,192,0.5)" stroke-width="1" stroke-dasharray="" stroke="none" points="500.0,399.3847763108502 509.19238815542514,408.57716446627535 509.19238815542514,413.57716446627535 500.0,404.3847763108502" />
<polygon fill="rgba(192,192,192,0.5)" stroke-width="1" stroke-dasharray="" stroke="none" points="500.0,447.3847763108502 509.19238815542514,456.57716446627535 509.19238815542514,461.57716446627535 500.0,452.3847763108502" />
<polygon fill="rgba(192,192,192,0.5)" stroke-width="1" stroke-dasharray="" stroke="none" points="10.0,399.3847763108502 500.0,399.3847763108502 500.0,404.3847763108502 10.0,404.3847763108502" />
<polygon fill="rgba(192,192,192,0.5)" stroke-width="1" stroke-dasharray="" stroke="none" points="10.0,447.3847763108502 500.0,447.3847763108502 500.0,452.3847763108502 10.0,452.3847763108502" />
<circle cx="305" cy="368.3847763108502" r="5" stroke="orange" fill="white" stroke-width="1" />
<circle cx="340" cy="387.3847763108502" r="5" stroke="orange" fill="white" stroke-width="1" />
<circle cx="305" cy="416.3847763108502" r="5" stroke="orange" fill="white" stroke-width="1" />
<circle cx="340" cy="435.3847763108502" r="5" stroke="orange" fill="white" stroke-width="1" />
<circle cx="305" cy="464.3847763108502" r="5" stroke="orange" fill="white" stroke-width="1" />
<circle cx="340" cy="483.3847763108502" r="5" stroke="orange" fill="white" stroke-width="1" />
<polygon fill="rgba(0,255,0,0.25)" stroke-width="1" stroke-dasharray="" stroke="green" points="170.0,356.3847763108502 176.0,356.3847763108502 176.0,495.3847763108502 185.1923881554251,504.57716446627535 179.1923881554251,504.57716446627535 170.0,495.3847763108502" />
<text style="" text-anchor="left" x="180" y="366.3847763108502" fill="black">1</text>
<polygon fill="rgba(0,255,0,0.25)" stroke-width="1" stroke-dasharray="" stroke="green" points="335.0,356.3847763108502 341.0,356.3847763108502 341.0,495.3847763108502 350.19238815542514,504.57716446627535 344.19238815542514,504.57716446627535 335.0,495.3847763108502" />
<text style="" text-anchor="left" x="345" y="366.3847763108502" fill="black">2</text>
<polygon fill="none" stroke-width="1" stroke-dasharray="2" stroke="gray" points="19.19238815542512,533.7695526217004 19.19238815542512,672.7695526217004 509.19238815542514,672.7695526217004 509.19238815542514,533.7695526217004" />
<polygon fill="none" stroke-width="1" stroke-dasharray="2" stroke="gray" points="10.0,524.5771644662753 10.0,529.5771644662753 13.535533905932738,533.1126983722081 13.535533905932738,546.1126983722081 10.0,542.5771644662753 10.0,645.5771644662753 13.535533905932738,649.1126983722081 13.535533905932738,662.1126983722081 10.0,658.5771644662753 10.0,663.5771644662753 19.19238815542512,672.7695526217004 19.19238815542512,533.7695526217004" />
<polygon fill="none" stroke-width="1" stroke-dasharray="2" stroke="gray" points="19.19238815542512,533.7695526217004 509.19238815542514,533.7695526217004 500.0,524.5771644662753 10.0,524.5771644662753" />
<polygon fill="rgba(192,192,192,0.75)" stroke-width="1" stroke-dasharray="" stroke="black" points="10.0,663.5771644662753 500.0,663.5771644662753 509.19238815542514,672.7695526217004 19.19238815542512,672.7695526217004" />
<polygon fill="rgba(255,255,255,0.75)" stroke-width="1" stroke-dasharray="" stroke="black" points="509.19238815542514,533.7695526217004 509.19238815542514,672.7695526217004 500.0,663.5771644662753 500.0,658.5771644662753 503.53553390593277,662.1126983722081 503.53553390593277,649.1126983722081 500.0,645.5771644662753 500.0,542.5771644662753 503.53553390593277,546.1126983722081 503.53553390593277,533.1126983722081 500.0,529.5771644662753 500.0,524.5771644662753" />
<polygon fill="rgba(255,255,255,0.75)" stroke-width="1" stroke-dasharray="" stroke="black" points="13.535533905932738,533.1126983722081 503.53553390593277,533.1126983722081 503.53553390593277,546.1126983722081 13.535533905932738,546.1126983722081" />
<polygon fill="rgba(255,255,255,0.75)" stroke-width="1" stroke-dasharray="" stroke="black" points="13.535533905932738,649.1126983722081 503.53553390593277,649.1126983722081 503.53553390593277,662.1126983722081 13.535533905932738,662.1126983722081" />
<polygon fill="rgba(192,192,192,0.75)" stroke-width="1" stroke-dasharray="" stroke="black" points="10.0,529.5771644662753 500.0,529.5771644662753 503.53553390593277,533.1126983722081 13.535533905932738,533.1126983722081" />
<polygon fill="none" stroke-width="1" stroke-dasharray="2" stroke="gray" points="13.535533905932738,546.1126983722081 503.53553390593277,546.1126983722081 500.0,542.5771644662753 10.0,542.5771644662753" />
<polygon fill="rgba(192,192,192,0.75)" stroke-width="1" stroke-dasharray="" stroke="black" points="10.0,645.5771644662753 500.0,645.5771644662753 503.53553390593277,649.1126983722081 13.535533905932738,649.1126983722081" />
<polygon fill="none" stroke-width="1" stroke-dasharray="2" stroke="gray" points="13.535533905932738,662.1126983722081 503.53553390593277,662.1126983722081 500.0,658.5771644662753 10.0,658.5771644662753" />
<polygon fill="rgba(255,255,255,0.75)" stroke-width="1" stroke-dasharray="" stroke="black" points="10.0,524.5771644662753 500.0,524.5771644662753 500.0,529.5771644662753 10.0,529.5771644662753" />
<polygon fill="rgba(255,255,255,0.75)" stroke-width="1" stroke-dasharray="" stroke="black" points="10.0,542.5771644662753 500.0,542.5771644662753 500.0,645.5771644662753 10.0,645.5771644662753" />
<polygon fill="rgba(255,255,255,0.75)" stroke-width="1" stroke-dasharray="" stroke="black" points="10.0,658.5771644662753 500.0,658.5771644662753 500.0,663.5771644662753 10.0,663.5771644662753" />
<polygon fill="rgba(192,192,192,0.5)" stroke-width="1" stroke-dasharray="" stroke="none" points="500.0,567.5771644662753 509.19238815542514,576.7695526217004 509.19238815542514,581.7695526217004 500.0,572.5771644662753" />
<polygon fill="rgba(192,192,192,0.5)" stroke-width="1" stroke-dasharray="" stroke="none" points="500.0,615.5771644662753 509.19238815542514,624.7695526217004 509.19238815542514,629.7695526217004 500.0,620.5771644662753" />
<polygon fill="rgba(192,192,192,0.5)" stroke-width="1" stroke-dasharray="" stroke="none" points="10.0,567.5771644662753 500.0,567.5771644662753 500.0,572.5771644662753 10.0,572.5771644662753" />
<polygon fill="rgba(192,192,192,0.5)" stroke-width="1" stroke-dasharray="" stroke="none" points="10.0,615.5771644662753 500.0,615.5771644662753 500.0,620.5771644662753 10.0,620.5771644662753" />
<rect x="350" y="557.5771644662753" width="40" height="10.0" style="fill: none; stroke: orange; stroke-width: 1;" />
<circle cx="305" cy="536.5771644662753" r="5" stroke="orange" fill="white" stroke-width="1" />
<circle cx="340" cy="555.5771644662753" r="5" stroke="orange" fill="white" stroke-width="1" />
<circle cx="305" cy="584.5771644662753" r="5" stroke="orange" fill="white" stroke-width="1" />
<circle cx="340" cy="603.5771644662753" r="5" stroke="orange" fill="white" stroke-width="1" />
<circle cx="305" cy="632.5771644662753" r="5" stroke="orange" fill="white" stroke-width="1" />
<circle cx="340" cy="651.5771644662753" r="5" stroke="orange" fill="white" stroke-width="1" />
<polygon fill="rgba(0,255,0,0.25)" stroke-width="1" stroke-dasharray="" stroke="green" points="170.0,524.5771644662753 176.0,524.5771644662753 176.0,663.5771644662753 185.1923881554251,672.7695526217004 179.1923881554251,672.7695526217004 170.0,663.5771644662753" />
<text style="" text-anchor="left" x="180" y="534.5771644662753" fill="black">1</text>
<polygon fill="rgba(0,255,0,0.25)" stroke-width="1" stroke-dasharray="" stroke="green" points="335.0,524.5771644662753 341.0,524.5771644662753 341.0,663.5771644662753 350.19238815542514,672.7695526217004 344.19238815542514,672.7695526217004 335.0,663.5771644662753" />
<text style="" text-anchor="left" x="345" y="534.5771644662753" fill="black">2</text>
</svg>
