<svg width="1100" viewBox="0 0 550 188.1923881554251" xmlns="http://www.w3.org/2000/svg">
<polygon fill="none" stroke-width="1" stroke-dasharray="2" stroke="gray" points="164.17128115649484,34.19238815542512 164.17128115649487,29.192388155425117 19.19238815542512,29.192388155425117 19.19238815542512,34.19238815542512 164.17128115649484,34.19238815542512" />
<polygon fill="none" stroke-width="1" stroke-dasharray="2" stroke="gray" points="164.1712811564949,168.1923881554251 164.17128115649487,163.1923881554251 19.19238815542512,163.1923881554251 19.19238815542512,168.1923881554251 164.1712811564949,168.1923881554251" />
<polygon fill="none" stroke-width="1" stroke-dasharray="2" stroke="gray" points="19.19238815542512,125.73421520148666 34.213495154355364,125.73421520148666 34.213495154355364,134.31722777603022 19.19238815542512,134.31722777603022 19.19238815542512,150.1923881554251 164.17128115649487,150.1923881554251 164.17128115649487,134.2972277760302 179.1923881554251,138.17980340875297 179.1923881554251,138.17980340875297 179.1923881554251,121.87163956876391 179.1923881554251,121.87163956876391 164.17128115649487,125.75421520148667 164.17128115649487,102.96389444269688 179.1923881554251,106.84647007541965 179.1923881554251,90.53830623543057 164.17128115649487,94.42088186815334 164.17128115649487,71.63056110936355 179.1923881554251,75.51313674208632 179.1923881554251,75.51313674208632 179.1923881554251,59.20497290209727 179.1923881554251,59.20497290209727 164.17128115649487,63.08754853482 164.17128115649487,47.19238815542512 19.19238815542512,47.19238815542512 19.19238815542512,63.067548534820006 19.19238815542512,63.067548534820006 34.213495154355364,63.067548534820006 34.213495154355364,71.65056110936355 19.19238815542512,71.65056110936355 19.19238815542512,94.40088186815332 34.213495154355364,94.40088186815333 34.213495154355364,102.9838944426969 19.19238815542512,102.9838944426969 19.19238815542512,102.9838944426969 19.19238815542512,125.73421520148666" />
<polygon fill="rgba(192,192,192,0.75)" stroke-width="1" stroke-dasharray="" stroke="black" points="157.74899590461402,30.65685424949238 164.17128115649487,34.19238815542512 19.19238815542512,34.19238815542512 18.54360559544051,30.65685424949238 157.74899590461402,30.65685424949238" />
<polygon fill="none" stroke-width="1" stroke-dasharray="2" stroke="gray" points="157.74899590461402,43.65685424949238 18.54360559544051,43.65685424949238 19.19238815542512,47.19238815542512 164.17128115649487,47.19238815542512 157.74899590461402,43.65685424949238" />
<polygon fill="rgba(192,192,192,0.75)" stroke-width="1" stroke-dasharray="" stroke="black" points="157.74899590461402,146.65685424949237 164.17128115649487,150.1923881554251 19.19238815542512,150.1923881554251 18.54360559544051,146.65685424949237 157.74899590461402,146.65685424949237" />
<polygon fill="none" stroke-width="1" stroke-dasharray="2" stroke="gray" points="157.74899590461402,159.65685424949237 18.54360559544051,159.65685424949237 19.19238815542512,163.1923881554251 164.17128115649487,163.1923881554251 157.74899590461402,159.65685424949237" />
<polygon fill="none" stroke-width="1" stroke-dasharray="2" stroke="gray" points="157.74899590461402,43.65685424949238 157.74899590461402,30.65685424949238 18.54360559544051,30.65685424949238 18.54360559544051,43.65685424949238 157.74899590461402,43.65685424949238" />
<polygon fill="none" stroke-width="1" stroke-dasharray="2" stroke="gray" points="157.74899590461402,159.65685424949237 157.74899590461402,146.65685424949237 18.54360559544051,146.65685424949237 18.54360559544051,159.65685424949237 157.74899590461402,159.65685424949237" />
<polygon fill="none" stroke-width="1" stroke-dasharray="2" stroke="gray" points="17.505553499465137,50.01298399414701 19.19238815542512,63.084564540673014 19.19238815542512,47.19238815542512 18.54360559544051,43.65685424949238 18.54360559544051,30.65685424949238 19.19238815542512,34.19238815542512 19.19238815542512,29.192388155425117 17.505553499465137,20.0 17.505553499465137,50.01298399414701" />
<polygon fill="none" stroke-width="1" stroke-dasharray="2" stroke="gray" points="17.505553499465137,66.32034933918632 17.505553499465137,81.34631732748034 19.19238815542512,94.41789787400634 19.19238815542512,71.63354510351056 17.505553499465137,66.32034933918632" />
<polygon fill="none" stroke-width="1" stroke-dasharray="2" stroke="gray" points="17.505553499465137,97.65368267251965 17.505553499465137,112.67965066081366 19.19238815542512,125.75123120733967 19.19238815542512,102.96687843684388 17.505553499465137,97.65368267251965" />
<polygon fill="none" stroke-width="1" stroke-dasharray="2" stroke="gray" points="17.505553499465137,128.98701600585298 17.505553499465137,159.0 19.19238815542512,168.1923881554251 19.19238815542512,163.1923881554251 18.54360559544051,159.65685424949237 18.54360559544051,146.65685424949237 19.19238815542512,150.1923881554251 19.19238815542512,134.3002117701772 17.505553499465137,128.98701600585298" />
<polygon fill="rgba(255,255,255,0.75)" stroke-width="1" stroke-dasharray="" stroke="black" points="17.505553499465137,50.0 32.51666049839538,50.0 34.203495154355366,63.07754853482001 19.19238815542512,63.07754853482001" />
<polygon fill="none" stroke-width="1" stroke-dasharray="2" stroke="gray" points="19.19238815542512,71.64056110936356 34.203495154355366,71.64056110936356 32.51666049839538,66.33333333333333 17.505553499465137,66.33333333333333" />
<polygon fill="rgba(255,255,255,0.75)" stroke-width="1" stroke-dasharray="" stroke="black" points="17.505553499465137,81.33333333333333 32.51666049839538,81.33333333333333 34.203495154355366,94.41088186815334 19.19238815542512,94.41088186815334" />
<polygon fill="none" stroke-width="1" stroke-dasharray="2" stroke="gray" points="19.19238815542512,102.97389444269689 34.203495154355366,102.97389444269689 32.51666049839538,97.66666666666666 17.505553499465137,97.66666666666666" />
<polygon fill="rgba(255,255,255,0.75)" stroke-width="1" stroke-dasharray="" stroke="black" points="17.505553499465137,112.66666666666666 32.51666049839538,112.66666666666666 34.203495154355366,125.74421520148667 19.19238815542512,125.74421520148667" />
<polygon fill="none" stroke-width="1" stroke-dasharray="2" stroke="gray" points="19.19238815542512,134.3072277760302 34.203495154355366,134.3072277760302 32.51666049839538,129.0 17.505553499465137,129.0" />
<polygon fill="none" stroke-width="1" stroke-dasharray="2" stroke="gray" points="32.51666049839538,49.992983994147 32.51666049839538,66.34034933918633 34.203495154355366,71.65354510351058 34.203495154355366,63.064564540673004 32.51666049839538,49.992983994147" />
<polygon fill="none" stroke-width="1" stroke-dasharray="2" stroke="gray" points="32.51666049839538,81.32631732748033 32.51666049839538,97.67368267251965 34.203495154355366,102.9868784368439 34.203495154355366,94.39789787400633 32.51666049839538,81.32631732748033" />
<polygon fill="none" stroke-width="1" stroke-dasharray="2" stroke="gray" points="32.51666049839538,112.65965066081365 32.51666049839538,129.007016005853 34.203495154355366,134.32021177017722 34.203495154355366,125.73123120733966 32.51666049839538,112.65965066081365" />
<polygon fill="none" stroke-width="1" stroke-dasharray="2" stroke="gray" points="147.47333950160464,20.0 17.505553499465137,20.0 19.19238815542512,29.192388155425117 164.17128115649487,29.192388155425117 147.47333950160464,20.0" />
<polygon fill="rgba(192,192,192,0.75)" stroke-width="1" stroke-dasharray="" stroke="black" points="147.47333950160464,159.0 164.17128115649487,168.1923881554251 19.19238815542512,168.1923881554251 17.505553499465137,159.0 147.47333950160464,159.0" />
<polygon fill="rgba(255,255,255,0.75)" stroke-width="1" stroke-dasharray="" stroke="black" points="164.18128115649486,63.08754853482 147.48333950160463,53.895160379394895 147.48333950160463,20.0 164.18128115649486,29.192388155425117 164.18128115649486,34.19238815542512 157.758995904614,30.65685424949238 157.758995904614,43.65685424949238 164.18128115649486,47.19238815542512 164.18128115649486,63.08754853482" />
<polygon fill="rgba(255,255,255,0.75)" stroke-width="1" stroke-dasharray="" stroke="black" points="164.18128115649486,71.63056110936355 164.18128115649486,94.42088186815334 147.48333950160463,85.22849371272822 147.48333950160463,62.43817295393845 164.18128115649486,71.63056110936355" />
<polygon fill="rgba(255,255,255,0.75)" stroke-width="1" stroke-dasharray="" stroke="black" points="164.18128115649486,102.96389444269688 164.18128115649486,125.75421520148667 147.48333950160463,116.56182704606155 147.48333950160463,93.77150628727176 164.18128115649486,102.96389444269688" />
<polygon fill="rgba(255,255,255,0.75)" stroke-width="1" stroke-dasharray="" stroke="black" points="164.18128115649486,134.29722777603018 164.18128115649486,150.1923881554251 157.758995904614,146.65685424949237 157.758995904614,159.65685424949237 164.18128115649486,163.1923881554251 164.18128115649486,168.1923881554251 147.48333950160463,159.0 147.48333950160463,125.10483962060509 164.18128115649486,134.29722777603018" />
<polygon fill="none" stroke-width="1" stroke-dasharray="2" stroke="gray" points="162.49444650053488,50.0 147.48333950160463,53.88516037939489 164.18128115649486,63.07754853482001 179.1923881554251,59.19238815542512" />
<polygon fill="rgba(192,192,192,0.75)" stroke-width="1" stroke-dasharray="" stroke="silver" points="179.1923881554251,75.52572148875845 164.18128115649486,71.64056110936356 147.48333950160463,62.44817295393844 162.49444650053488,66.33333333333333" />
<polygon fill="none" stroke-width="1" stroke-dasharray="2" stroke="gray" points="162.49444650053488,81.33333333333333 147.48333950160463,85.21849371272822 164.18128115649486,94.41088186815334 179.1923881554251,90.52572148875845" />
<polygon fill="rgba(192,192,192,0.75)" stroke-width="1" stroke-dasharray="" stroke="silver" points="179.1923881554251,106.85905482209178 164.18128115649486,102.97389444269689 147.48333950160463,93.78150628727177 162.49444650053488,97.66666666666666" />
<polygon fill="none" stroke-width="1" stroke-dasharray="2" stroke="gray" points="162.49444650053488,112.66666666666666 147.48333950160463,116.55182704606155 164.18128115649486,125.74421520148667 179.1923881554251,121.85905482209178" />
<polygon fill="rgba(192,192,192,0.75)" stroke-width="1" stroke-dasharray="" stroke="silver" points="179.1923881554251,138.1923881554251 164.18128115649486,134.3072277760302 147.48333950160463,125.1148396206051 162.49444650053488,129.0" />
<polygon fill="rgba(255,255,255,0.75)" stroke-width="1" stroke-dasharray="" stroke="black" points="179.1923881554251,59.182388155425116 179.1923881554251,75.53572148875845 162.49444650053488,66.34333333333333 162.49444650053488,49.98999999999998 179.1923881554251,59.182388155425116" />
<polygon fill="rgba(255,255,255,0.75)" stroke-width="1" stroke-dasharray="" stroke="black" points="179.1923881554251,90.51572148875844 179.1923881554251,106.8690548220918 162.49444650053488,97.67666666666668 162.49444650053488,81.32333333333332 179.1923881554251,90.51572148875844" />
<polygon fill="rgba(255,255,255,0.75)" stroke-width="1" stroke-dasharray="" stroke="black" points="179.1923881554251,121.84905482209177 179.1923881554251,138.2023881554251 162.49444650053488,129.01 162.49444650053488,112.65666666666665 179.1923881554251,121.84905482209177" />
<polygon fill="rgba(255,255,255,0.75)" stroke-width="1" stroke-dasharray="" stroke="black" points="17.505553499465137,129.01 32.52666049839538,129.01 32.52666049839538,112.65666666666665 17.505553499465137,112.65666666666664 17.505553499465137,97.67666666666666 32.52666049839538,97.67666666666666 32.52666049839538,81.32333333333332 17.505553499465137,81.32333333333332 17.505553499465137,81.32333333333332 17.505553499465137,66.34333333333333 17.505553499465137,66.34333333333333 32.52666049839538,66.34333333333333 32.52666049839538,49.989999999999995 17.505553499465137,49.98999999999998 17.505553499465137,20.0 147.47333950160464,20.0 147.47333950160464,20.0 147.47333950160464,53.89516037939489 162.49444650053488,50.01258474667213 162.49444650053488,66.32074858666118 147.47333950160464,62.43817295393844 147.47333950160464,85.22849371272822 162.49444650053488,81.34591808000545 162.49444650053488,81.34591808000545 162.49444650053488,97.65408191999452 162.49444650053488,97.65408191999452 147.47333950160464,93.77150628727176 147.47333950160464,116.56182704606155 162.49444650053488,112.67925141333879 162.49444650053488,128.98741525332787 147.47333950160464,125.10483962060509 147.47333950160464,159.0 147.47333950160464,159.0 17.505553499465137,159.0 17.505553499465137,129.01" />
<polygon fill="rgba(192,192,192,0.5)" stroke-width="1" stroke-dasharray="" stroke="none" points="32.51666049839538,63.0 147.48333950160463,63.0 147.48333950160463,68.0 17.505553499465137,68.0 17.505553499465137,66.33333333333334 32.51666049839538,66.33333333333333 32.51666049839538,63.0" />
<polygon fill="rgba(192,192,192,0.5)" stroke-width="1" stroke-dasharray="" stroke="none" points="147.4833395016047,111.0 17.505553499465137,111.0 17.505553499465137,112.66666666666664 32.51666049839538,112.66666666666666 32.516660498395396,116.0 147.48333950160463,116.0 147.4833395016047,111.0" />
<polygon fill="none" stroke-width="1" stroke-dasharray="2" stroke="gray" points="469.19238815542514,125.73421520148666 469.19238815542514,102.9838944426969 469.19238815542514,102.9838944426969 454.1712811564949,102.9838944426969 454.1712811564949,94.40088186815333 469.19238815542514,94.40088186815335 469.19238815542514,71.65056110936357 454.1712811564949,71.65056110936355 454.1712811564949,63.067548534820006 469.19238815542514,63.067548534820006 469.19238815542514,63.067548534820006 469.19238815542514,47.19238815542512 324.21349515435537,47.19238815542512 324.21349515435537,63.08754853482 309.19238815542514,59.20497290209725 309.19238815542514,59.20497290209725 309.19238815542514,75.51313674208632 309.19238815542514,75.51313674208632 324.21349515435537,71.63056110936355 324.21349515435537,94.42088186815334 309.19238815542514,90.53830623543058 309.19238815542514,106.84647007541963 324.21349515435537,102.96389444269688 324.21349515435537,125.75421520148667 309.19238815542514,121.87163956876391 309.19238815542514,121.87163956876391 309.19238815542514,138.17980340875295 309.19238815542514,138.17980340875295 324.21349515435537,134.2972277760302 324.21349515435537,150.1923881554251 469.19238815542514,150.1923881554251 469.19238815542514,134.31722777603022 454.1712811564949,134.31722777603022 454.1712811564949,125.73421520148666 469.19238815542514,125.73421520148666" />
<polygon fill="none" stroke-width="1" stroke-dasharray="2" stroke="gray" points="324.21349515435537,168.1923881554251 469.19238815542514,168.1923881554251 469.19238815542514,163.1923881554251 324.21349515435537,163.1923881554251 324.21349515435537,168.1923881554251" />
<polygon fill="none" stroke-width="1" stroke-dasharray="2" stroke="gray" points="324.21349515435537,34.19238815542512 469.19238815542514,34.19238815542512 469.19238815542514,29.192388155425117 324.21349515435537,29.192388155425117 324.21349515435537,34.19238815542512" />
<polygon fill="rgba(192,192,192,0.75)" stroke-width="1" stroke-dasharray="" stroke="black" points="323.56471259437075,30.65685424949238 462.7701029035442,30.65685424949238 469.19238815542514,34.19238815542512 324.21349515435537,34.19238815542512 323.56471259437075,30.65685424949238" />
<polygon fill="none" stroke-width="1" stroke-dasharray="2" stroke="gray" points="323.56471259437075,43.65685424949238 324.21349515435537,47.19238815542512 469.19238815542514,47.19238815542512 462.7701029035442,43.65685424949238 323.56471259437075,43.65685424949238" />
<polygon fill="rgba(192,192,192,0.75)" stroke-width="1" stroke-dasharray="" stroke="black" points="323.56471259437075,146.65685424949237 462.7701029035442,146.65685424949237 469.19238815542514,150.1923881554251 324.21349515435537,150.1923881554251 323.56471259437075,146.65685424949237" />
<polygon fill="none" stroke-width="1" stroke-dasharray="2" stroke="gray" points="323.56471259437075,159.65685424949237 324.21349515435537,163.1923881554251 469.19238815542514,163.1923881554251 462.7701029035442,159.65685424949237 323.56471259437075,159.65685424949237" />
<polygon fill="none" stroke-width="1" stroke-dasharray="2" stroke="gray" points="323.56471259437075,43.65685424949238 462.7701029035442,43.65685424949238 462.7701029035442,30.65685424949238 323.56471259437075,30.65685424949238 323.56471259437075,43.65685424949238" />
<polygon fill="none" stroke-width="1" stroke-dasharray="2" stroke="gray" points="323.56471259437075,159.65685424949237 462.7701029035442,159.65685424949237 462.7701029035442,146.65685424949237 323.56471259437075,146.65685424949237 323.56471259437075,159.65685424949237" />
<polygon fill="none" stroke-width="1" stroke-dasharray="2" stroke="gray" points="307.5055534994651,49.989999999999995 307.5055534994651,66.34333333333333 309.19238815542514,75.53572148875845 309.19238815542514,59.182388155425116 307.5055534994651,49.989999999999995" />
<polygon fill="none" stroke-width="1" stroke-dasharray="2" stroke="gray" points="307.5055534994651,81.32333333333332 307.5055534994651,97.67666666666666 309.19238815542514,106.8690548220918 309.19238815542514,90.51572148875844 307.5055534994651,81.32333333333332" />
<polygon fill="none" stroke-width="1" stroke-dasharray="2" stroke="gray" points="307.5055534994651,112.65666666666665 307.5055534994651,129.01 309.19238815542514,138.2023881554251 309.19238815542514,121.84905482209177 307.5055534994651,112.65666666666665" />
<polygon fill="none" stroke-width="1" stroke-dasharray="2" stroke="gray" points="309.19238815542514,59.19238815542512 324.2034951543554,63.07754853482001 322.51666049839537,53.88516037939489 307.5055534994651,50.0" />
<polygon fill="rgba(255,255,255,0.75)" stroke-width="1" stroke-dasharray="" stroke="black" points="307.5055534994651,66.33333333333333 322.51666049839537,62.44817295393844 324.2034951543554,71.64056110936356 309.19238815542514,75.52572148875845" />
<polygon fill="none" stroke-width="1" stroke-dasharray="2" stroke="gray" points="309.19238815542514,90.52572148875845 324.2034951543554,94.41088186815334 322.51666049839537,85.21849371272822 307.5055534994651,81.33333333333333" />
<polygon fill="rgba(255,255,255,0.75)" stroke-width="1" stroke-dasharray="" stroke="black" points="307.5055534994651,97.66666666666666 322.51666049839537,93.78150628727177 324.2034951543554,102.97389444269689 309.19238815542514,106.85905482209178" />
<polygon fill="none" stroke-width="1" stroke-dasharray="2" stroke="gray" points="309.19238815542514,121.85905482209178 324.2034951543554,125.74421520148667 322.51666049839537,116.55182704606155 307.5055534994651,112.66666666666666" />
<polygon fill="rgba(255,255,255,0.75)" stroke-width="1" stroke-dasharray="" stroke="black" points="307.5055534994651,129.0 322.51666049839537,125.1148396206051 324.2034951543554,134.3072277760302 309.19238815542514,138.1923881554251" />
<polygon fill="none" stroke-width="1" stroke-dasharray="2" stroke="gray" points="322.51666049839537,53.89516037939489 324.2034951543554,63.087548534820016 324.2034951543554,47.19238815542512 323.55471259437076,43.65685424949238 323.55471259437076,30.65685424949238 324.2034951543554,34.19238815542512 324.2034951543554,29.192388155425117 322.51666049839537,20.0 322.51666049839537,53.89516037939489" />
<polygon fill="none" stroke-width="1" stroke-dasharray="2" stroke="gray" points="322.51666049839537,62.43817295393844 322.51666049839537,85.22849371272822 324.2034951543554,94.42088186815334 324.2034951543554,71.63056110936357 322.51666049839537,62.43817295393844" />
<polygon fill="none" stroke-width="1" stroke-dasharray="2" stroke="gray" points="322.51666049839537,93.77150628727176 322.51666049839537,116.56182704606155 324.2034951543554,125.75421520148667 324.2034951543554,102.96389444269688 322.51666049839537,93.77150628727176" />
<polygon fill="none" stroke-width="1" stroke-dasharray="2" stroke="gray" points="322.51666049839537,125.10483962060509 322.51666049839537,159.0 324.2034951543554,168.1923881554251 324.2034951543554,163.1923881554251 323.55471259437076,159.65685424949237 323.55471259437076,146.65685424949237 324.2034951543554,150.1923881554251 324.2034951543554,134.2972277760302 322.51666049839537,125.10483962060509" />
<polygon fill="none" stroke-width="1" stroke-dasharray="2" stroke="gray" points="322.52666049839536,20.0 324.21349515435537,29.192388155425117 469.19238815542514,29.192388155425117 452.4944465005349,20.0 322.52666049839536,20.0" />
<polygon fill="rgba(192,192,192,0.75)" stroke-width="1" stroke-dasharray="" stroke="black" points="322.52666049839536,159.0 452.4944465005349,159.0 469.19238815542514,168.1923881554251 324.21349515435537,168.1923881554251 322.52666049839536,159.0" />
<polygon fill="rgba(255,255,255,0.75)" stroke-width="1" stroke-dasharray="" stroke="black" points="454.1812811564949,63.064564540673004 454.1812811564949,71.65354510351055 437.48333950160463,66.34034933918633 437.48333950160463,49.992983994147 454.1812811564949,63.064564540673004" />
<polygon fill="rgba(255,255,255,0.75)" stroke-width="1" stroke-dasharray="" stroke="black" points="454.1812811564949,94.39789787400633 454.1812811564949,102.9868784368439 437.48333950160463,97.67368267251966 437.48333950160463,81.32631732748033 454.1812811564949,94.39789787400633" />
<polygon fill="rgba(255,255,255,0.75)" stroke-width="1" stroke-dasharray="" stroke="black" points="454.1812811564949,125.73123120733966 454.1812811564949,134.3202117701772 437.48333950160463,129.007016005853 437.48333950160463,112.65965066081365 454.1812811564949,125.73123120733966" />
<polygon fill="rgba(255,255,255,0.75)" stroke-width="1" stroke-dasharray="" stroke="black" points="469.19238815542514,63.07754853482001 454.1812811564949,63.07754853482001 437.48333950160463,50.0 452.4944465005349,50.0" />
<polygon fill="none" stroke-width="1" stroke-dasharray="2" stroke="gray" points="452.4944465005349,66.33333333333333 437.48333950160463,66.33333333333333 454.1812811564949,71.64056110936356 469.19238815542514,71.64056110936356" />
<polygon fill="rgba(255,255,255,0.75)" stroke-width="1" stroke-dasharray="" stroke="black" points="469.19238815542514,94.41088186815334 454.1812811564949,94.41088186815334 437.48333950160463,81.33333333333333 452.4944465005349,81.33333333333333" />
<polygon fill="none" stroke-width="1" stroke-dasharray="2" stroke="gray" points="452.4944465005349,97.66666666666666 437.48333950160463,97.66666666666666 454.1812811564949,102.97389444269689 469.19238815542514,102.97389444269689" />
<polygon fill="rgba(255,255,255,0.75)" stroke-width="1" stroke-dasharray="" stroke="black" points="469.19238815542514,125.74421520148667 454.1812811564949,125.74421520148667 437.48333950160463,112.66666666666666 452.4944465005349,112.66666666666666" />
<polygon fill="none" stroke-width="1" stroke-dasharray="2" stroke="gray" points="452.4944465005349,129.0 437.48333950160463,129.0 454.1812811564949,134.3072277760302 469.19238815542514,134.3072277760302" />
<polygon fill="rgba(255,255,255,0.75)" stroke-width="1" stroke-dasharray="" stroke="black" points="469.19238815542514,63.084564540673 452.4944465005349,50.01298399414701 452.4944465005349,20.0 469.19238815542514,29.192388155425117 469.19238815542514,34.19238815542512 462.7701029035442,30.65685424949238 462.7701029035442,43.65685424949238 469.19238815542514,47.19238815542512 469.19238815542514,63.084564540673" />
<polygon fill="rgba(255,255,255,0.75)" stroke-width="1" stroke-dasharray="" stroke="black" points="469.19238815542514,71.63354510351056 469.19238815542514,94.41789787400634 452.4944465005349,81.34631732748032 452.4944465005349,66.32034933918632 469.19238815542514,71.63354510351056" />
<polygon fill="rgba(255,255,255,0.75)" stroke-width="1" stroke-dasharray="" stroke="black" points="469.19238815542514,102.96687843684388 469.19238815542514,125.75123120733967 452.4944465005349,112.67965066081368 452.4944465005349,97.65368267251965 469.19238815542514,102.96687843684388" />
<polygon fill="rgba(255,255,255,0.75)" stroke-width="1" stroke-dasharray="" stroke="black" points="469.19238815542514,134.3002117701772 469.19238815542514,150.1923881554251 462.7701029035442,146.65685424949237 462.7701029035442,159.65685424949237 469.19238815542514,163.1923881554251 469.19238815542514,168.1923881554251 452.4944465005349,159.0 452.4944465005349,128.98701600585298 469.19238815542514,134.3002117701772" />
<polygon fill="rgba(255,255,255,0.75)" stroke-width="1" stroke-dasharray="" stroke="black" points="452.4944465005349,129.01 452.4944465005349,159.0 322.52666049839536,159.0 322.52666049839536,159.0 322.52666049839536,125.10483962060509 307.5055534994651,128.98741525332784 307.5055534994651,112.67925141333879 322.52666049839536,116.56182704606155 322.52666049839536,93.77150628727176 307.5055534994651,97.65408191999452 307.5055534994651,97.65408191999452 307.5055534994651,81.34591808000545 307.5055534994651,81.34591808000545 322.52666049839536,85.22849371272822 322.52666049839536,62.43817295393844 307.5055534994651,66.32074858666117 307.5055534994651,50.01258474667215 322.52666049839536,53.89516037939489 322.52666049839536,20.0 322.52666049839536,20.0 452.4944465005349,20.0 452.4944465005349,49.99000000000001 437.47333950160464,49.989999999999995 437.47333950160464,66.34333333333333 452.4944465005349,66.34333333333333 452.4944465005349,66.34333333333333 452.4944465005349,81.32333333333332 452.4944465005349,81.32333333333332 437.47333950160464,81.32333333333332 437.47333950160464,97.67666666666666 452.4944465005349,97.67666666666666 452.4944465005349,112.65666666666665 437.47333950160464,112.65666666666665 437.47333950160464,129.01 452.4944465005349,129.01" />
<polygon fill="rgba(192,192,192,0.5)" stroke-width="1" stroke-dasharray="" stroke="none" points="320.3043468034914,63.0 307.5055534994651,63.0 307.5055534994651,66.30816383998904 320.3043468034914,63.0" />
<polygon fill="rgba(192,192,192,0.5)" stroke-width="1" stroke-dasharray="" stroke="none" points="322.51666049839537,111.0 452.4944465005349,111.0 452.4944465005349,112.66666666666666 437.48333950160463,112.66666666666666 437.48333950160463,116.0 322.51666049839537,116.0 322.51666049839537,111.0" />
<circle cx="430" cy="32.0" r="5" stroke="orange" fill="white" stroke-width="1" />
<circle cx="430" cy="80.0" r="5" stroke="orange" fill="white" stroke-width="1" />
<circle cx="430" cy="128.0" r="5" stroke="orange" fill="white" stroke-width="1" />
</svg>
