<svg width="1100" viewBox="0.0 0.0 550.0 692.8" xmlns="http://www.w3.org/2000/svg">
<polygon fill="none" stroke-width="1" stroke-dasharray="2" stroke="gray" points="19.2,29.2 19.2,168.2 489.2,168.2 489.2,29.2" />
<polygon fill="none" stroke-width="1" stroke-dasharray="2" stroke="gray" points="10.0,20.0 10.0,159.0 19.2,168.2 19.2,29.2" />
<polygon fill="none" stroke-width="1" stroke-dasharray="2" stroke="gray" points="19.2,29.2 489.2,29.2 480.0,20.0 10.0,20.0" />
<polygon fill="rgba(192,192,192,0.75)" stroke-width="1" stroke-dasharray="" stroke="black" points="10.0,159.0 480.0,159.0 489.2,168.2 19.2,168.2" />
<polygon fill="rgba(255,255,255,0.75)" stroke-width="1" stroke-dasharray="" stroke="black" points="489.2,29.2 489.2,168.2 480.0,159.0 480.0,20.0" />
<polygon fill="rgba(255,255,255,0.75)" stroke-width="1" stroke-dasharray="" stroke="black" points="10.0,20.0 480.0,20.0 480.0,159.0 10.0,159.0" />
<polygon fill="rgba(192,192,192,0.5)" stroke-width="1" stroke-dasharray="" stroke="none" points="480.0,63.0 489.2,72.2 489.2,77.2 480.0,68.0" />
<polygon fill="rgba(192,192,192,0.5)" stroke-width="1" stroke-dasharray="" stroke="none" points="480.0,111.0 489.2,120.2 489.2,125.2 480.0,116.0" />
<polygon fill="rgba(192,192,192,0.5)" stroke-width="1" stroke-dasharray="" stroke="none" points="10.0,63.0 480.0,63.0 480.0,68.0 10.0,68.0" />
<polygon fill="rgba(192,192,192,0.5)" stroke-width="1" stroke-dasharray="" stroke="none" points="10.0,111.0 480.0,111.0 480.0,116.0 10.0,116.0" />
<circle cx="150" cy="32.0" r="5" stroke="orange" fill="white" stroke-width="1" />
<circle cx="185" cy="51.0" r="5" stroke="orange" fill="white" stroke-width="1" />
<circle cx="150" cy="80.0" r="5" stroke="orange" fill="white" stroke-width="1" />
<circle cx="185" cy="99.0" r="5" stroke="orange" fill="white" stroke-width="1" />
<circle cx="150" cy="128.0" r="5" stroke="orange" fill="white" stroke-width="1" />
<circle cx="185" cy="147.0" r="5" stroke="orange" fill="white" stroke-width="1" />
<polygon fill="none" stroke-width="1" stroke-dasharray="2" stroke="gray" points="19.2,197.4 19.2,336.4 489.2,336.4 489.2,197.4" />
<polygon fill="none" stroke-width="1" stroke-dasharray="2" stroke="gray" points="10.0,188.2 10.0,327.2 19.2,336.4 19.2,197.4" />
<polygon fill="none" stroke-width="1" stroke-dasharray="2" stroke="gray" points="19.2,197.4 489.2,197.4 480.0,188.2 10.0,188.2" />
<polygon fill="rgba(192,192,192,0.75)" stroke-width="1" stroke-dasharray="" stroke="black" points="10.0,327.2 480.0,327.2 489.2,336.4 19.2,336.4" />
<polygon fill="rgba(255,255,255,0.75)" stroke-width="1" stroke-dasharray="" stroke="black" points="489.2,197.4 489.2,336.4 480.0,327.2 480.0,188.2" />
<polygon fill="rgba(255,255,255,0.75)" stroke-width="1" stroke-dasharray="" stroke="black" points="10.0,188.2 480.0,188.2 480.0,327.2 10.0,327.2" />
<polygon fill="rgba(192,192,192,0.5)" stroke-width="1" stroke-dasharray="" stroke="none" points="480.0,231.2 489.2,240.4 489.2,245.4 480.0,236.2" />
<polygon fill="rgba(192,192,192,0.5)" stroke-width="1" stroke-dasharray="" stroke="none" points="480.0,279.2 489.2,288.4 489.2,293.4 480.0,284.2" />
<polygon fill="rgba(192,192,192,0.5)" stroke-width="1" stroke-dasharray="" stroke="none" points="10.0,231.2 480.0,231.2 480.0,236.2 10.0,236.2" />
<polygon fill="rgba(192,192,192,0.5)" stroke-width="1" stroke-dasharray="" stroke="none" points="10.0,279.2 480.0,279.2 480.0,284.2 10.0,284.2" />
<circle cx="150" cy="200.2" r="5" stroke="orange" fill="white" stroke-width="1" />
<circle cx="185" cy="219.2" r="5" stroke="orange" fill="white" stroke-width="1" />
<rect x="275" y="236.1923881554251" width="40" height="10.0" style="fill: none; stroke: orange; stroke-width: 1;" />
<circle cx="150" cy="248.2" r="5" stroke="orange" fill="white" stroke-width="1" />
<circle cx="185" cy="267.2" r="5" stroke="orange" fill="white" stroke-width="1" />
<circle cx="150" cy="296.2" r="5" stroke="orange" fill="white" stroke-width="1" />
<circle cx="185" cy="315.2" r="5" stroke="orange" fill="white" stroke-width="1" />
<polygon fill="none" stroke-width="1" stroke-dasharray="2" stroke="gray" points="19.2,365.6 19.2,504.6 509.2,504.6 509.2,365.6" />
<polygon fill="none" stroke-width="1" stroke-dasharray="2" stroke="gray" points="10.0,356.4 10.0,361.4 13.5,364.9 13.5,377.9 10.0,374.4 10.0,477.4 13.5,480.9 13.5,493.9 10.0,490.4 10.0,495.4 19.2,504.6 19.2,365.6" />
<polygon fill="none" stroke-width="1" stroke-dasharray="2" stroke="gray" points="19.2,365.6 509.2,365.6 500.0,356.4 10.0,356.4" />
<polygon fill="rgba(192,192,192,0.75)" stroke-width="1" stroke-dasharray="" stroke="black" points="10.0,495.4 500.0,495.4 509.2,504.6 19.2,504.6" />
<polygon fill="rgba(255,255,255,0.75)" stroke-width="1" stroke-dasharray="" stroke="black" points="509.2,365.6 509.2,504.6 500.0,495.4 500.0,490.4 503.5,493.9 503.5,480.9 500.0,477.4 500.0,374.4 503.5,377.9 503.5,364.9 500.0,361.4 500.0,356.4" />
<polygon fill="rgba(255,255,255,0.75)" stroke-width="1" stroke-dasharray="" stroke="black" points="13.5,364.9 503.5,364.9 503.5,377.9 13.5,377.9" />
<polygon fill="rgba(255,255,255,0.75)" stroke-width="1" stroke-dasharray="" stroke="black" points="13.5,480.9 503.5,480.9 503.5,493.9 13.5,493.9" />
<polygon fill="rgba(192,192,192,0.75)" stroke-width="1" stroke-dasharray="" stroke="black" points="10.0,361.4 500.0,361.4 503.5,364.9 13.5,364.9" />
<polygon fill="none" stroke-width="1" stroke-dasharray="2" stroke="gray" points="13.5,377.9 503.5,377.9 500.0,374.4 10.0,374.4" />
<polygon fill="rgba(192,192,192,0.75)" stroke-width="1" stroke-dasharray="" stroke="black" points="10.0,477.4 500.0,477.4 503.5,480.9 13.5,480.9" />
<polygon fill="none" stroke-width="1" stroke-dasharray="2" stroke="gray" points="13.5,493.9 503.5,493.9 500.0,490.4 10.0,490.4" />
<polygon fill="rgba(255,255,255,0.75)" stroke-width="1" stroke-dasharray="" stroke="black" points="10.0,356.4 500.0,356.4 500.0,361.4 10.0,361.4" />
<polygon fill="rgba(255,255,255,0.75)" stroke-width="1" stroke-dasharray="" stroke="black" points="10.0,374.4 500.0,374.4 500.0,477.4 10.0,477.4" />
<polygon fill="rgba(255,255,255,0.75)" stroke-width="1" stroke-dasharray="" stroke="black" points="10.0,490.4 500.0,490.4 500.0,495.4 10.0,495.4" />
<polygon fill="rgba(192,192,192,0.5)" stroke-width="1" stroke-dasharray="" stroke="none" points="500.0,399.4 509.2,408.6 509.2,413.6 500.0,404.4" />
<polygon fill="rgba(192,192,192,0.5)" stroke-width="1" stroke-dasharray="" stroke="none" points="500.0,447.4 509.2,456.6 509.2,461.6 500.0,452.4" />
<polygon fill="rgba(192,192,192,0.5)" stroke-width="1" stroke-dasharray="" stroke="none" points="10.0,399.4 500.0,399.4 500.0,404.4 10.0,404.4" />
<polygon fill="rgba(192,192,192,0.5)" stroke-width="1" stroke-dasharray="" stroke="none" points="10.0,447.4 500.0,447.4 500.0,452.4 10.0,452.4" />
<circle cx="305" cy="368.4" r="5" stroke="orange" fill="white" stroke-width="1" />
<circle cx="340" cy="387.4" r="5" stroke="orange" fill="white" stroke-width="1" />
<circle cx="305" cy="416.4" r="5" stroke="orange" fill="white" stroke-width="1" />
<circle cx="340" cy="435.4" r="5" stroke="orange" fill="white" stroke-width="1" />
<circle cx="305" cy="464.4" r="5" stroke="orange" fill="white" stroke-width="1" />
<circle cx="340" cy="483.4" r="5" stroke="orange" fill="white" stroke-width="1" />
<polygon fill="rgba(0,255,0,0.25)" stroke-width="1" stroke-dasharray="" stroke="green" points="170.0,356.4 176.0,356.4 176.0,495.4 185.2,504.6 179.2,504.6 170.0,495.4" />
<text style="" text-anchor="left" x="180" y="366.3847763108502" fill="black">1</text>
<polygon fill="rgba(0,255,0,0.25)" stroke-width="1" stroke-dasharray="" stroke="green" points="335.0,356.4 341.0,356.4 341.0,495.4 350.2,504.6 344.2,504.6 335.0,495.4" />
<text style="" text-anchor="left" x="345" y="366.3847763108502" fill="black">2</text>
<polygon fill="none" stroke-width="1" stroke-dasharray="2" stroke="gray" points="19.2,533.8 19.2,672.8 509.2,672.8 509.2,533.8" />
<polygon fill="none" stroke-width="1" stroke-dasharray="2" stroke="gray" points="10.0,524.6 10.0,529.6 13.5,533.1 13.5,546.1 10.0,542.6 10.0,645.6 13.5,649.1 13.5,662.1 10.0,658.6 10.0,663.6 19.2,672.8 19.2,533.8" />
<polygon fill="none" stroke-width="1" stroke-dasharray="2" stroke="gray" points="19.2,533.8 509.2,533.8 500.0,524.6 10.0,524.6" />
<polygon fill="rgba(192,192,192,0.75)" stroke-width="1" stroke-dasharray="" stroke="black" points="10.0,663.6 500.0,663.6 509.2,672.8 19.2,672.8" />
<polygon fill="rgba(255,255,255,0.75)" stroke-width="1" stroke-dasharray="" stroke="black" points="509.2,533.8 509.2,672.8 500.0,663.6 500.0,658.6 503.5,662.1 503.5,649.1 500.0,645.6 500.0,542.6 503.5,546.1 503.5,533.1 500.0,529.6 500.0,524.6" />
<polygon fill="rgba(255,255,255,0.75)" stroke-width="1" stroke-dasharray="" stroke="black" points="13.5,533.1 503.5,533.1 503.5,546.1 13.5,546.1" />
<polygon fill="rgba(255,255,255,0.75)" stroke-width="1" stroke-dasharray="" stroke="black" points="13.5,649.1 503.5,649.1 503.5,662.1 13.5,662.1" />
<polygon fill="rgba(192,192,192,0.75)" stroke-width="1" stroke-dasharray="" stroke="black" points="10.0,529.6 500.0,529.6 503.5,533.1 13.5,533.1" />
<polygon fill="none" stroke-width="1" stroke-dasharray="2" stroke="gray" points="13.5,546.1 503.5,546.1 500.0,542.6 10.0,542.6" />
<polygon fill="rgba(192,192,192,0.75)" stroke-width="1" stroke-dasharray="" stroke="black" points="10.0,645.6 500.0,645.6 503.5,649.1 13.5,649.1" />
<polygon fill="none" stroke-width="1" stroke-dasharray="2" stroke="gray" points="13.5,662.1 503.5,662.1 500.0,658.6 10.0,658.6" />
<polygon fill="rgba(255,255,255,0.75)" stroke-width="1" stroke-dasharray="" stroke="black" points="10.0,524.6 500.0,524.6 500.0,529.6 10.0,529.6" />
<polygon fill="rgba(255,255,255,0.75)" stroke-width="1" stroke-dasharray="" stroke="black" points="10.0,542.6 500.0,542.6 500.0,645.6 10.0,645.6" />
<polygon fill="rgba(255,255,255,0.75)" stroke-width="1" stroke-dasharray="" stroke="black" points="10.0,658.6 500.0,658.6 500.0,663.6 10.0,663.6" />
<polygon fill="rgba(192,192,192,0.5)" stroke-width="1" stroke-dasharray="" stroke="none" points="500.0,567.6 509.2,576.8 509.2,581.8 500.0,572.6" />
<polygon fill="rgba(192,192,192,0.5)" stroke-width="1" stroke-dasharray="" stroke="none" points="500.0,615.6 509.2,624.8 509.2,629.8 500.0,620.6" />
<polygon fill="rgba(192,192,192,0.5)" stroke-width="1" stroke-dasharray="" stroke="none" points="10.0,567.6 500.0,567.6 500.0,572.6 10.0,572.6" />
<polygon fill="rgba(192,192,192,0.5)" stroke-width="1" stroke-dasharray="" stroke="none" points="10.0,615.6 500.0,615.6 500.0,620.6 10.0,620.6" />
<rect x="350" y="557.5771644662753" width="40" height="10.0" style="fill: none; stroke: orange; stroke-width: 1;" />
<circle cx="305" cy="536.6" r="5" stroke="orange" fill="white" stroke-width="1" />
<circle cx="340" cy="555.6" r="5" stroke="orange" fill="white" stroke-width="1" />
<circle cx="305" cy="584.6" r="5" stroke="orange" fill="white" stroke-width="1" />
<circle cx="340" cy="603.6" r="5" stroke="orange" fill="white" stroke-width="1" />
<circle cx="305" cy="632.6" r="5" stroke="orange" fill="white" stroke-width="1" />
<circle cx="340" cy="651.6" r="5" stroke="orange" fill="white" stroke-width="1" />
<polygon fill="rgba(0,255,0,0.25)" stroke-width="1" stroke-dasharray="" stroke="green" points="170.0,524.6 176.0,524.6 176.0,663.6 185.2,672.8 179.2,672.8 170.0,663.6" />
<text style="" text-anchor="left" x="180" y="534.5771644662753" fill="black">1</text>
<polygon fill="rgba(0,255,0,0.25)" stroke-width="1" stroke-dasharray="" stroke="green" points="335.0,524.6 341.0,524.6 341.0,663.6 350.2,672.8 344.2,672.8 335.0,663.6" />
<text style="" text-anchor="left" x="345" y="534.5771644662753" fill="black">2</text>
</svg>
