<svg width="1100" viewBox="0.0 0.0 550.0 188.2" xmlns="http://www.w3.org/2000/svg">
<polygon fill="none" stroke-width="1" stroke-dasharray="2" stroke="gray" points="19.2,125.7 34.2,125.7 34.2,134.3 19.2,134.3 19.2,150.2 164.2,150.2 164.2,134.3 179.2,138.2 179.2,138.2 179.2,121.9 179.2,121.9 164.2,125.8 164.2,103.0 179.2,106.8 179.2,90.5 164.2,94.4 164.2,71.6 179.2,75.5 179.2,75.5 179.2,59.2 179.2,59.2 164.2,63.1 164.2,47.2 19.2,47.2 19.2,63.1 19.2,63.1 34.2,63.1 34.2,71.7 19.2,71.7 19.2,94.4 34.2,94.4 34.2,103.0 19.2,103.0 19.2,103.0 19.2,125.7" />
<polygon fill="rgba(192,192,192,0.75)" stroke-width="1" stroke-dasharray="" stroke="black" points="157.7,30.7 164.2,34.2 19.2,34.2 18.5,30.7 157.7,30.7" />
<polygon fill="none" stroke-width="1" stroke-dasharray="2" stroke="gray" points="157.7,43.7 18.5,43.7 19.2,47.2 164.2,47.2 157.7,43.7" />
<polygon fill="rgba(192,192,192,0.75)" stroke-width="1" stroke-dasharray="" stroke="black" points="157.7,146.7 164.2,150.2 19.2,150.2 18.5,146.7 157.7,146.7" />
<polygon fill="none" stroke-width="1" stroke-dasharray="2" stroke="gray" points="157.7,159.7 18.5,159.7 19.2,163.2 164.2,163.2 157.7,159.7" />
<polygon fill="none" stroke-width="1" stroke-dasharray="2" stroke="gray" points="17.5,50.0 19.2,63.1 19.2,47.2 18.5,43.7 18.5,30.7 19.2,34.2 19.2,29.2 17.5,20.0 17.5,50.0" />
<polygon fill="none" stroke-width="1" stroke-dasharray="2" stroke="gray" points="17.5,66.3 17.5,81.3 19.2,94.4 19.2,71.6 17.5,66.3" />
<polygon fill="none" stroke-width="1" stroke-dasharray="2" stroke="gray" points="17.5,97.7 17.5,112.7 19.2,125.8 19.2,103.0 17.5,97.7" />
<polygon fill="none" stroke-width="1" stroke-dasharray="2" stroke="gray" points="17.5,129.0 17.5,159.0 19.2,168.2 19.2,163.2 18.5,159.7 18.5,146.7 19.2,150.2 19.2,134.3 17.5,129.0" />
<polygon fill="rgba(255,255,255,0.75)" stroke-width="1" stroke-dasharray="" stroke="black" points="17.5,50.0 32.5,50.0 34.2,63.1 19.2,63.1" />
<polygon fill="none" stroke-width="1" stroke-dasharray="2" stroke="gray" points="19.2,71.6 34.2,71.6 32.5,66.3 17.5,66.3" />
<polygon fill="rgba(255,255,255,0.75)" stroke-width="1" stroke-dasharray="" stroke="black" points="17.5,81.3 32.5,81.3 34.2,94.4 19.2,94.4" />
<polygon fill="none" stroke-width="1" stroke-dasharray="2" stroke="gray" points="19.2,103.0 34.2,103.0 32.5,97.7 17.5,97.7" />
<polygon fill="rgba(255,255,255,0.75)" stroke-width="1" stroke-dasharray="" stroke="black" points="17.5,112.7 32.5,112.7 34.2,125.7 19.2,125.7" />
<polygon fill="none" stroke-width="1" stroke-dasharray="2" stroke="gray" points="19.2,134.3 34.2,134.3 32.5,129.0 17.5,129.0" />
<polygon fill="none" stroke-width="1" stroke-dasharray="2" stroke="gray" points="32.5,50.0 32.5,66.3 34.2,71.7 34.2,63.1 32.5,50.0" />
<polygon fill="none" stroke-width="1" stroke-dasharray="2" stroke="gray" points="32.5,81.3 32.5,97.7 34.2,103.0 34.2,94.4 32.5,81.3" />
<polygon fill="none" stroke-width="1" stroke-dasharray="2" stroke="gray" points="32.5,112.7 32.5,129.0 34.2,134.3 34.2,125.7 32.5,112.7" />
<polygon fill="none" stroke-width="1" stroke-dasharray="2" stroke="gray" points="147.5,20.0 17.5,20.0 19.2,29.2 164.2,29.2 147.5,20.0" />
<polygon fill="rgba(192,192,192,0.75)" stroke-width="1" stroke-dasharray="" stroke="black" points="147.5,159.0 164.2,168.2 19.2,168.2 17.5,159.0 147.5,159.0" />
<polygon fill="rgba(255,255,255,0.75)" stroke-width="1" stroke-dasharray="" stroke="black" points="164.2,63.1 147.5,53.9 147.5,20.0 164.2,29.2 164.2,34.2 157.8,30.7 157.8,43.7 164.2,47.2 164.2,63.1" />
<polygon fill="rgba(255,255,255,0.75)" stroke-width="1" stroke-dasharray="" stroke="black" points="164.2,71.6 164.2,94.4 147.5,85.2 147.5,62.4 164.2,71.6" />
<polygon fill="rgba(255,255,255,0.75)" stroke-width="1" stroke-dasharray="" stroke="black" points="164.2,103.0 164.2,125.8 147.5,116.6 147.5,93.8 164.2,103.0" />
<polygon fill="rgba(255,255,255,0.75)" stroke-width="1" stroke-dasharray="" stroke="black" points="164.2,134.3 164.2,150.2 157.8,146.7 157.8,159.7 164.2,163.2 164.2,168.2 147.5,159.0 147.5,125.1 164.2,134.3" />
<polygon fill="none" stroke-width="1" stroke-dasharray="2" stroke="gray" points="162.5,50.0 147.5,53.9 164.2,63.1 179.2,59.2" />
<polygon fill="rgba(192,192,192,0.75)" stroke-width="1" stroke-dasharray="" stroke="silver" points="179.2,75.5 164.2,71.6 147.5,62.4 162.5,66.3" />
<polygon fill="none" stroke-width="1" stroke-dasharray="2" stroke="gray" points="162.5,81.3 147.5,85.2 164.2,94.4 179.2,90.5" />
<polygon fill="rgba(192,192,192,0.75)" stroke-width="1" stroke-dasharray="" stroke="silver" points="179.2,106.9 164.2,103.0 147.5,93.8 162.5,97.7" />
<polygon fill="none" stroke-width="1" stroke-dasharray="2" stroke="gray" points="162.5,112.7 147.5,116.6 164.2,125.7 179.2,121.9" />
<polygon fill="rgba(192,192,192,0.75)" stroke-width="1" stroke-dasharray="" stroke="silver" points="179.2,138.2 164.2,134.3 147.5,125.1 162.5,129.0" />
<polygon fill="rgba(255,255,255,0.75)" stroke-width="1" stroke-dasharray="" stroke="black" points="179.2,59.2 179.2,75.5 162.5,66.3 162.5,50.0 179.2,59.2" />
<polygon fill="rgba(255,255,255,0.75)" stroke-width="1" stroke-dasharray="" stroke="black" points="179.2,90.5 179.2,106.9 162.5,97.7 162.5,81.3 179.2,90.5" />
<polygon fill="rgba(255,255,255,0.75)" stroke-width="1" stroke-dasharray="" stroke="black" points="179.2,121.8 179.2,138.2 162.5,129.0 162.5,112.7 179.2,121.8" />
<polygon fill="rgba(255,255,255,0.75)" stroke-width="1" stroke-dasharray="" stroke="black" points="17.5,129.0 32.5,129.0 32.5,112.7 17.5,112.7 17.5,97.7 32.5,97.7 32.5,81.3 17.5,81.3 17.5,81.3 17.5,66.3 17.5,66.3 32.5,66.3 32.5,50.0 17.5,50.0 17.5,20.0 147.5,20.0 147.5,20.0 147.5,53.9 162.5,50.0 162.5,66.3 147.5,62.4 147.5,85.2 162.5,81.3 162.5,81.3 162.5,97.7 162.5,97.7 147.5,93.8 147.5,116.6 162.5,112.7 162.5,129.0 147.5,125.1 147.5,159.0 147.5,159.0 17.5,159.0 17.5,129.0" />
<polygon fill="rgba(192,192,192,0.5)" stroke-width="1" stroke-dasharray="" stroke="none" points="179.2,75.5 179.2,72.2 162.5,63.0 162.5,66.4 179.2,75.5" />
<polygon fill="rgba(192,192,192,0.5)" stroke-width="1" stroke-dasharray="" stroke="none" points="179.2,121.8 179.2,125.2 162.5,116.0 162.5,112.6 179.2,121.8" />
<polygon fill="rgba(192,192,192,0.5)" stroke-width="1" stroke-dasharray="" stroke="none" points="32.5,63.0 147.5,63.0 147.5,68.0 17.5,68.0 17.5,66.3 32.5,66.3 32.5,63.0" />
<polygon fill="rgba(192,192,192,0.5)" stroke-width="1" stroke-dasharray="" stroke="none" points="147.5,111.0 17.5,111.0 17.5,112.7 32.5,112.7 32.5,116.0 147.5,116.0 147.5,111.0" />
<polygon fill="none" stroke-width="1" stroke-dasharray="2" stroke="gray" points="469.2,125.7 469.2,103.0 469.2,103.0 454.2,103.0 454.2,94.4 469.2,94.4 469.2,71.7 454.2,71.7 454.2,63.1 469.2,63.1 469.2,63.1 469.2,47.2 324.2,47.2 324.2,63.1 309.2,59.2 309.2,59.2 309.2,75.5 309.2,75.5 324.2,71.6 324.2,94.4 309.2,90.5 309.2,106.8 324.2,103.0 324.2,125.8 309.2,121.9 309.2,121.9 309.2,138.2 309.2,138.2 324.2,134.3 324.2,150.2 469.2,150.2 469.2,134.3 454.2,134.3 454.2,125.7 469.2,125.7" />
<polygon fill="rgba(192,192,192,0.75)" stroke-width="1" stroke-dasharray="" stroke="black" points="323.6,30.7 462.8,30.7 469.2,34.2 324.2,34.2 323.6,30.7" />
<polygon fill="none" stroke-width="1" stroke-dasharray="2" stroke="gray" points="323.6,43.7 324.2,47.2 469.2,47.2 462.8,43.7 323.6,43.7" />
<polygon fill="rgba(192,192,192,0.75)" stroke-width="1" stroke-dasharray="" stroke="black" points="323.6,146.7 462.8,146.7 469.2,150.2 324.2,150.2 323.6,146.7" />
<polygon fill="none" stroke-width="1" stroke-dasharray="2" stroke="gray" points="323.6,159.7 324.2,163.2 469.2,163.2 462.8,159.7 323.6,159.7" />
<polygon fill="none" stroke-width="1" stroke-dasharray="2" stroke="gray" points="307.5,50.0 307.5,66.3 309.2,75.5 309.2,59.2 307.5,50.0" />
<polygon fill="none" stroke-width="1" stroke-dasharray="2" stroke="gray" points="307.5,81.3 307.5,97.7 309.2,106.9 309.2,90.5 307.5,81.3" />
<polygon fill="none" stroke-width="1" stroke-dasharray="2" stroke="gray" points="307.5,112.7 307.5,129.0 309.2,138.2 309.2,121.8 307.5,112.7" />
<polygon fill="none" stroke-width="1" stroke-dasharray="2" stroke="gray" points="309.2,59.2 324.2,63.1 322.5,53.9 307.5,50.0" />
<polygon fill="rgba(255,255,255,0.75)" stroke-width="1" stroke-dasharray="" stroke="black" points="307.5,66.3 322.5,62.4 324.2,71.6 309.2,75.5" />
<polygon fill="none" stroke-width="1" stroke-dasharray="2" stroke="gray" points="309.2,90.5 324.2,94.4 322.5,85.2 307.5,81.3" />
<polygon fill="rgba(255,255,255,0.75)" stroke-width="1" stroke-dasharray="" stroke="black" points="307.5,97.7 322.5,93.8 324.2,103.0 309.2,106.9" />
<polygon fill="none" stroke-width="1" stroke-dasharray="2" stroke="gray" points="309.2,121.9 324.2,125.7 322.5,116.6 307.5,112.7" />
<polygon fill="rgba(255,255,255,0.75)" stroke-width="1" stroke-dasharray="" stroke="black" points="307.5,129.0 322.5,125.1 324.2,134.3 309.2,138.2" />
<polygon fill="none" stroke-width="1" stroke-dasharray="2" stroke="gray" points="322.5,53.9 324.2,63.1 324.2,47.2 323.6,43.7 323.6,30.7 324.2,34.2 324.2,29.2 322.5,20.0 322.5,53.9" />
<polygon fill="none" stroke-width="1" stroke-dasharray="2" stroke="gray" points="322.5,62.4 322.5,85.2 324.2,94.4 324.2,71.6 322.5,62.4" />
<polygon fill="none" stroke-width="1" stroke-dasharray="2" stroke="gray" points="322.5,93.8 322.5,116.6 324.2,125.8 324.2,103.0 322.5,93.8" />
<polygon fill="none" stroke-width="1" stroke-dasharray="2" stroke="gray" points="322.5,125.1 322.5,159.0 324.2,168.2 324.2,163.2 323.6,159.7 323.6,146.7 324.2,150.2 324.2,134.3 322.5,125.1" />
<polygon fill="none" stroke-width="1" stroke-dasharray="2" stroke="gray" points="322.5,20.0 324.2,29.2 469.2,29.2 452.5,20.0 322.5,20.0" />
<polygon fill="rgba(192,192,192,0.75)" stroke-width="1" stroke-dasharray="" stroke="black" points="322.5,159.0 452.5,159.0 469.2,168.2 324.2,168.2 322.5,159.0" />
<polygon fill="rgba(255,255,255,0.75)" stroke-width="1" stroke-dasharray="" stroke="black" points="454.2,63.1 454.2,71.7 437.5,66.3 437.5,50.0 454.2,63.1" />
<polygon fill="rgba(255,255,255,0.75)" stroke-width="1" stroke-dasharray="" stroke="black" points="454.2,94.4 454.2,103.0 437.5,97.7 437.5,81.3 454.2,94.4" />
<polygon fill="rgba(255,255,255,0.75)" stroke-width="1" stroke-dasharray="" stroke="black" points="454.2,125.7 454.2,134.3 437.5,129.0 437.5,112.7 454.2,125.7" />
<polygon fill="rgba(255,255,255,0.75)" stroke-width="1" stroke-dasharray="" stroke="black" points="469.2,63.1 454.2,63.1 437.5,50.0 452.5,50.0" />
<polygon fill="none" stroke-width="1" stroke-dasharray="2" stroke="gray" points="452.5,66.3 437.5,66.3 454.2,71.6 469.2,71.6" />
<polygon fill="rgba(255,255,255,0.75)" stroke-width="1" stroke-dasharray="" stroke="black" points="469.2,94.4 454.2,94.4 437.5,81.3 452.5,81.3" />
<polygon fill="none" stroke-width="1" stroke-dasharray="2" stroke="gray" points="452.5,97.7 437.5,97.7 454.2,103.0 469.2,103.0" />
<polygon fill="rgba(255,255,255,0.75)" stroke-width="1" stroke-dasharray="" stroke="black" points="469.2,125.7 454.2,125.7 437.5,112.7 452.5,112.7" />
<polygon fill="none" stroke-width="1" stroke-dasharray="2" stroke="gray" points="452.5,129.0 437.5,129.0 454.2,134.3 469.2,134.3" />
<polygon fill="rgba(255,255,255,0.75)" stroke-width="1" stroke-dasharray="" stroke="black" points="469.2,63.1 452.5,50.0 452.5,20.0 469.2,29.2 469.2,34.2 462.8,30.7 462.8,43.7 469.2,47.2 469.2,63.1" />
<polygon fill="rgba(255,255,255,0.75)" stroke-width="1" stroke-dasharray="" stroke="black" points="469.2,71.6 469.2,94.4 452.5,81.3 452.5,66.3 469.2,71.6" />
<polygon fill="rgba(255,255,255,0.75)" stroke-width="1" stroke-dasharray="" stroke="black" points="469.2,103.0 469.2,125.8 452.5,112.7 452.5,97.7 469.2,103.0" />
<polygon fill="rgba(255,255,255,0.75)" stroke-width="1" stroke-dasharray="" stroke="black" points="469.2,134.3 469.2,150.2 462.8,146.7 462.8,159.7 469.2,163.2 469.2,168.2 452.5,159.0 452.5,129.0 469.2,134.3" />
<polygon fill="rgba(255,255,255,0.75)" stroke-width="1" stroke-dasharray="" stroke="black" points="452.5,129.0 452.5,159.0 322.5,159.0 322.5,159.0 322.5,125.1 307.5,129.0 307.5,112.7 322.5,116.6 322.5,93.8 307.5,97.7 307.5,97.7 307.5,81.3 307.5,81.3 322.5,85.2 322.5,62.4 307.5,66.3 307.5,50.0 322.5,53.9 322.5,20.0 322.5,20.0 452.5,20.0 452.5,50.0 437.5,50.0 437.5,66.3 452.5,66.3 452.5,66.3 452.5,81.3 452.5,81.3 437.5,81.3 437.5,97.7 452.5,97.7 452.5,112.7 437.5,112.7 437.5,129.0 452.5,129.0" />
<polygon fill="rgba(192,192,192,0.5)" stroke-width="1" stroke-dasharray="" stroke="none" points="466.8,70.8 469.2,72.2 469.2,77.2 452.5,68.0 452.5,66.3 466.8,70.8" />
<polygon fill="rgba(192,192,192,0.5)" stroke-width="1" stroke-dasharray="" stroke="none" points="466.8,123.8 469.2,125.2 469.2,120.2 452.5,111.0 452.5,112.7 466.8,123.8" />
<polygon fill="rgba(192,192,192,0.5)" stroke-width="1" stroke-dasharray="" stroke="none" points="451.9,123.9 437.5,116.0 437.5,112.7 451.9,123.9" />
<polygon fill="rgba(192,192,192,0.5)" stroke-width="1" stroke-dasharray="" stroke="none" points="451.9,70.9 437.5,63.0 437.5,66.3 451.9,70.9" />
<polygon fill="rgba(192,192,192,0.5)" stroke-width="1" stroke-dasharray="" stroke="none" points="320.3,63.0 307.5,63.0 307.5,66.3 320.3,63.0" />
<polygon fill="rgba(192,192,192,0.5)" stroke-width="1" stroke-dasharray="" stroke="none" points="322.5,111.0 452.5,111.0 452.5,112.7 437.5,112.7 437.5,116.0 322.5,116.0 322.5,111.0" />
<circle cx="430" cy="32.0" r="5" stroke="orange" fill="white" stroke-width="1" />
<circle cx="430" cy="80.0" r="5" stroke="orange" fill="white" stroke-width="1" />
<circle cx="430" cy="128.0" r="5" stroke="orange" fill="white" stroke-width="1" />
</svg>
