<svg width="1100" viewBox="0.0 0.0 550.0 188.2" xmlns="http://www.w3.org/2000/svg">
<polygon fill="none" stroke-width="1" stroke-dasharray="2" stroke="gray" points="19.2,125.7 34.2,125.7 34.2,134.3 19.2,134.3 19.2,150.2 164.2,150.2 164.2,134.3 179.2,138.2 179.2,138.2 179.2,121.9 179.2,121.9 164.2,125.8 164.2,103.0 179.2,106.8 179.2,90.5 164.2,94.4 164.2,71.6 179.2,75.5 179.2,75.5 179.2,59.2 179.2,59.2 164.2,63.1 164.2,47.2 19.2,47.2 19.2,63.1 19.2,63.1 34.2,63.1 34.2,71.7 19.2,71.7 19.2,94.4 34.2,94.4 34.2,103.0 19.2,103.0 19.2,103.0 19.2,125.7" />
<polygon fill="rgba(192,192,192,0.75)" stroke-width="1" stroke-dasharray="" stroke="black" points="157.7,30.7 164.2,34.2 19.2,34.2 18.5,30.7 157.7,30.7" />
<polygon fill="none" stroke-width="1" stroke-dasharray="2" stroke="gray" points="157.7,43.7 18.5,43.7 19.2,47.2 164.2,47.2 157.7,43.7" />
<polygon fill="rgba(192,192,192,0.75)" stroke-width="1" stroke-dasharray="" stroke="black" points="157.7,146.7 164.2,150.2 19.2,150.2 18.5,146.7 157.7,146.7" />
<polygon fill="none" stroke-width="1" stroke-dasharray="2" stroke="gray" points="157.7,159.7 18.5,159.7 19.2,163.2 164.2,163.2 157.7,159.7" />
<polygon fill="none" stroke-width="1" stroke-dasharray="2" stroke="gray" points="17.5,50.0 19.2,63.1 19.2,47.2 18.5,43.7 18.5,30.7 19.2,34.2 19.2,29.2 17.5,20.0 17.5,50.0" />
<polygon fill="none" stroke-width="1" stroke-dasharray="2" stroke="gray" points="17.5,66.3 17.5,81.3 19.2,94.4 19.2,71.6 17.5,66.3" />
<polygon fill="none" stroke-width="1" stroke-dasharray="2" stroke="gray" points="17.5,97.7 17.5,112.7 19.2,125.8 19.2,103.0 17.5,97.7" />
<polygon fill="none" stroke-width="1" stroke-dasharray="2" stroke="gray" points="17.5,129.0 17.5,159.0 19.2,168.2 19.2,163.2 18.5,159.7 18.5,146.7 19.2,150.2 19.2,134.3 17.5,129.0" />
<polygon fill="rgba(255,255,255,0.75)" stroke-width="1" stroke-dasharray="" stroke="black" points="17.5,50.0 32.5,50.0 34.2,63.1 19.2,63.1" />
<polygon fill="none" stroke-width="1" stroke-dasharray="2" stroke="gray" points="19.2,71.6 34.2,71.6 32.5,66.3 17.5,66.3" />
<polygon fill="rgba(255,255,255,0.75)" stroke-width="1" stroke-dasharray="" stroke="black" points="17.5,81.3 32.5,81.3 34.2,94.4 19.2,94.4" />
<polygon fill="none" stroke-width="1" stroke-dasharray="2" stroke="gray" points="19.2,103.0 34.2,103.0 32.5,97.7 17.5,97.7" />
<polygon fill="rgba(255,255,255,0.75)" stroke-width="1" stroke-dasharray="" stroke="black" points="17.5,112.7 32.5,112.7 34.2,125.7 19.2,125.7" />
<polygon fill="none" stroke-width="1" stroke-dasharray="2" stroke="gray" points="19.2,134.3 34.2,134.3 32.5,129.0 17.5,129.0" />
<polygon fill="none" stroke-width="1" stroke-dasharray="2" stroke="gray" points="32.5,50.0 32.5,66.3 34.2,71.7 34.2,63.1 32.5,50.0" />
<polygon fill="none" stroke-width="1" stroke-dasharray="2" stroke="gray" points="32.5,81.3 32.5,97.7 34.2,103.0 34.2,94.4 32.5,81.3" />
<polygon fill="none" stroke-width="1" stroke-dasharray="2" stroke="gray" points="32.5,112.7 32.5,129.0 34.2,134.3 34.2,125.7 32.5,112.7" />
<polygon fill="none" stroke-width="1" stroke-dasharray="2" stroke="gray" points="147.5,20.0 17.5,20.0 19.2,29.2 164.2,29.2 147.5,20.0" />
<polygon fill="rgba(192,192,192,0.75)" stroke-width="1" stroke-dasharray="" stroke="black" points="147.5,159.0 164.2,168.2 19.2,168.2 17.5,159.0 147.5,159.0" />
<polygon fill="rgba(255,255,255,0.75)" stroke-width="1" stroke-dasharray="" stroke="black" points="164.2,63.1 147.5,53.9 147.5,20.0 164.2,29.2 164.2,34.2 157.8,30.7 157.8,43.7 164.2,47.2 164.2,63.1" />
<polygon fill="rgba(255,255,255,0.75)" stroke-width="1" stroke-dasharray="" stroke="black" points="164.2,71.6 164.2,94.4 147.5,85.2 147.5,62.4 164.2,71.6" />
<polygon fill="rgba(255,255,255,0.75)" stroke-width="1" stroke-dasharray="" stroke="black" points="164.2,103.0 164.2,125.8 147.5,116.6 147.5,93.8 164.2,103.0" />
<polygon fill="rgba(255,255,255,0.75)" stroke-width="1" stroke-dasharray="" stroke="black" points="164.2,134.3 164.2,150.2 157.8,146.7 157.8,159.7 164.2,163.2 164.2,168.2 147.5,159.0 147.5,125.1 164.2,134.3" />
<polygon fill="none" stroke-width="1" stroke-dasharray="2" stroke="gray" points="162.5,50.0 147.5,53.9 164.2,63.1 179.2,59.2" />
<polygon fill="rgba(192,192,192,0.75)" stroke-width="1" stroke-dasharray="" stroke="silver" points="179.2,75.5 164.2,71.6 147.5,62.4 162.5,66.3" />
<polygon fill="none" stroke-width="1" stroke-dasharray="2" stroke="gray" points="162.5,81.3 147.5,85.2 164.2,94.4 179.2,90.5" />
<polygon fill="rgba(192,192,192,0.75)" stroke-width="1" stroke-dasharray="" stroke="silver" points="179.2,106.9 164.2,103.0 147.5,93.8 162.5,97.7" />
<polygon fill="none" stroke-width="1" stroke-dasharray="2" stroke="gray" points="162.5,112.7 147.5,116.6 164.2,125.7 179.2,121.9" />
<polygon fill="rgba(192,192,192,0.75)" stroke-width="1" stroke-dasharray="" stroke="silver" points="179.2,138.2 164.2,134.3 147.5,125.1 162.5,129.0" />
<polygon fill="rgba(255,255,255,0.75)" stroke-width="1" stroke-dasharray="" stroke="black" points="179.2,59.2 179.2,75.5 162.5,66.3 162.5,50.0 179.2,59.2" />
<polygon fill="rgba(255,255,255,0.75)" stroke-width="1" stroke-dasharray="" stroke="black" points="179.2,90.5 179.2,106.9 162.5,97.7 162.5,81.3 179.2,90.5" />
<polygon fill="rgba(255,255,255,0.75)" stroke-width="1" stroke-dasharray="" stroke="black" points="179.2,121.8 179.2,138.2 162.5,129.0 162.5,112.7 179.2,121.8" />
<polygon fill="rgba(255,255,255,0.75)" stroke-width="1" stroke-dasharray="" stroke="black" points="17.5,129.0 32.5,129.0 32.5,112.7 17.5,112.7 17.5,97.7 32.5,97.7 32.5,81.3 17.5,81.3 17.5,81.3 17.5,66.3 17.5,66.3 32.5,66.3 32.5,50.0 17.5,50.0 17.5,20.0 147.5,20.0 147.5,20.0 147.5,53.9 162.5,50.0 162.5,66.3 147.5,62.4 147.5,85.2 162.5,81.3 162.5,81.3 162.5,97.7 162.5,97.7 147.5,93.8 147.5,116.6 162.5,112.7 162.5,129.0 147.5,125.1 147.5,159.0 147.5,159.0 17.5,159.0 17.5,129.0" />
<polygon fill="rgba(192,192,192,0.5)" stroke-width="1" stroke-dasharray="" stroke="none" points="179.2,75.5 179.2,72.2 162.5,63.0 162.5,66.4 179.2,75.5" />
<polygon fill="rgba(192,192,192,0.5)" stroke-width="1" stroke-dasharray="" stroke="none" points="179.2,121.8 179.2,125.2 162.5,116.0 162.5,112.6 179.2,121.8" />
<polygon fill="rgba(192,192,192,0.5)" stroke-width="1" stroke-dasharray="" stroke="none" points="32.5,63.0 147.5,63.0 147.5,68.0 17.5,68.0 17.5,66.3 32.5,66.3 32.5,63.0" />
<polygon fill="rgba(192,192,192,0.5)" stroke-width="1" stroke-dasharray="" stroke="none" points="147.5,111.0 17.5,111.0 17.5,112.7 32.5,112.7 32.5,116.0 147.5,116.0 147.5,111.0" />
<polygon fill="none" stroke-width="1" stroke-dasharray="2" stroke="gray" points="309.2,125.7 324.2,125.7 324.2,134.3 309.2,134.3 309.2,150.2 454.2,150.2 454.2,134.3 469.2,138.2 469.2,138.2 469.2,121.9 469.2,121.9 454.2,125.8 454.2,103.0 469.2,106.8 469.2,90.5 454.2,94.4 454.2,71.6 469.2,75.5 469.2,75.5 469.2,59.2 469.2,59.2 454.2,63.1 454.2,47.2 309.2,47.2 309.2,63.1 309.2,63.1 324.2,63.1 324.2,71.7 309.2,71.7 309.2,94.4 324.2,94.4 324.2,103.0 309.2,103.0 309.2,103.0 309.2,125.7" />
<polygon fill="rgba(192,192,192,0.75)" stroke-width="1" stroke-dasharray="" stroke="black" points="447.7,30.7 454.2,34.2 309.2,34.2 308.5,30.7 447.7,30.7" />
<polygon fill="none" stroke-width="1" stroke-dasharray="2" stroke="gray" points="447.7,43.7 308.5,43.7 309.2,47.2 454.2,47.2 447.7,43.7" />
<polygon fill="rgba(192,192,192,0.75)" stroke-width="1" stroke-dasharray="" stroke="black" points="447.7,146.7 454.2,150.2 309.2,150.2 308.5,146.7 447.7,146.7" />
<polygon fill="none" stroke-width="1" stroke-dasharray="2" stroke="gray" points="447.7,159.7 308.5,159.7 309.2,163.2 454.2,163.2 447.7,159.7" />
<polygon fill="none" stroke-width="1" stroke-dasharray="2" stroke="gray" points="307.5,50.0 309.2,63.1 309.2,47.2 308.5,43.7 308.5,30.7 309.2,34.2 309.2,29.2 307.5,20.0 307.5,50.0" />
<polygon fill="none" stroke-width="1" stroke-dasharray="2" stroke="gray" points="307.5,66.3 307.5,81.3 309.2,94.4 309.2,71.6 307.5,66.3" />
<polygon fill="none" stroke-width="1" stroke-dasharray="2" stroke="gray" points="307.5,97.7 307.5,112.7 309.2,125.8 309.2,103.0 307.5,97.7" />
<polygon fill="none" stroke-width="1" stroke-dasharray="2" stroke="gray" points="307.5,129.0 307.5,159.0 309.2,168.2 309.2,163.2 308.5,159.7 308.5,146.7 309.2,150.2 309.2,134.3 307.5,129.0" />
<polygon fill="rgba(255,255,255,0.75)" stroke-width="1" stroke-dasharray="" stroke="black" points="307.5,50.0 322.5,50.0 324.2,63.1 309.2,63.1" />
<polygon fill="none" stroke-width="1" stroke-dasharray="2" stroke="gray" points="309.2,71.6 324.2,71.6 322.5,66.3 307.5,66.3" />
<polygon fill="rgba(255,255,255,0.75)" stroke-width="1" stroke-dasharray="" stroke="black" points="307.5,81.3 322.5,81.3 324.2,94.4 309.2,94.4" />
<polygon fill="none" stroke-width="1" stroke-dasharray="2" stroke="gray" points="309.2,103.0 324.2,103.0 322.5,97.7 307.5,97.7" />
<polygon fill="rgba(255,255,255,0.75)" stroke-width="1" stroke-dasharray="" stroke="black" points="307.5,112.7 322.5,112.7 324.2,125.7 309.2,125.7" />
<polygon fill="none" stroke-width="1" stroke-dasharray="2" stroke="gray" points="309.2,134.3 324.2,134.3 322.5,129.0 307.5,129.0" />
<polygon fill="none" stroke-width="1" stroke-dasharray="2" stroke="gray" points="322.5,50.0 322.5,66.3 324.2,71.7 324.2,63.1 322.5,50.0" />
<polygon fill="none" stroke-width="1" stroke-dasharray="2" stroke="gray" points="322.5,81.3 322.5,97.7 324.2,103.0 324.2,94.4 322.5,81.3" />
<polygon fill="none" stroke-width="1" stroke-dasharray="2" stroke="gray" points="322.5,112.7 322.5,129.0 324.2,134.3 324.2,125.7 322.5,112.7" />
<polygon fill="none" stroke-width="1" stroke-dasharray="2" stroke="gray" points="437.5,20.0 307.5,20.0 309.2,29.2 454.2,29.2 437.5,20.0" />
<polygon fill="rgba(192,192,192,0.75)" stroke-width="1" stroke-dasharray="" stroke="black" points="437.5,159.0 454.2,168.2 309.2,168.2 307.5,159.0 437.5,159.0" />
<polygon fill="rgba(255,255,255,0.75)" stroke-width="1" stroke-dasharray="" stroke="black" points="454.2,63.1 437.5,53.9 437.5,20.0 454.2,29.2 454.2,34.2 447.8,30.7 447.8,43.7 454.2,47.2 454.2,63.1" />
<polygon fill="rgba(255,255,255,0.75)" stroke-width="1" stroke-dasharray="" stroke="black" points="454.2,71.6 454.2,94.4 437.5,85.2 437.5,62.4 454.2,71.6" />
<polygon fill="rgba(255,255,255,0.75)" stroke-width="1" stroke-dasharray="" stroke="black" points="454.2,103.0 454.2,125.8 437.5,116.6 437.5,93.8 454.2,103.0" />
<polygon fill="rgba(255,255,255,0.75)" stroke-width="1" stroke-dasharray="" stroke="black" points="454.2,134.3 454.2,150.2 447.8,146.7 447.8,159.7 454.2,163.2 454.2,168.2 437.5,159.0 437.5,125.1 454.2,134.3" />
<polygon fill="none" stroke-width="1" stroke-dasharray="2" stroke="gray" points="452.5,50.0 437.5,53.9 454.2,63.1 469.2,59.2" />
<polygon fill="rgba(192,192,192,0.75)" stroke-width="1" stroke-dasharray="" stroke="silver" points="469.2,75.5 454.2,71.6 437.5,62.4 452.5,66.3" />
<polygon fill="none" stroke-width="1" stroke-dasharray="2" stroke="gray" points="452.5,81.3 437.5,85.2 454.2,94.4 469.2,90.5" />
<polygon fill="rgba(192,192,192,0.75)" stroke-width="1" stroke-dasharray="" stroke="silver" points="469.2,106.9 454.2,103.0 437.5,93.8 452.5,97.7" />
<polygon fill="none" stroke-width="1" stroke-dasharray="2" stroke="gray" points="452.5,112.7 437.5,116.6 454.2,125.7 469.2,121.9" />
<polygon fill="rgba(192,192,192,0.75)" stroke-width="1" stroke-dasharray="" stroke="silver" points="469.2,138.2 454.2,134.3 437.5,125.1 452.5,129.0" />
<polygon fill="rgba(255,255,255,0.75)" stroke-width="1" stroke-dasharray="" stroke="black" points="469.2,59.2 469.2,75.5 452.5,66.3 452.5,50.0 469.2,59.2" />
<polygon fill="rgba(255,255,255,0.75)" stroke-width="1" stroke-dasharray="" stroke="black" points="469.2,90.5 469.2,106.9 452.5,97.7 452.5,81.3 469.2,90.5" />
<polygon fill="rgba(255,255,255,0.75)" stroke-width="1" stroke-dasharray="" stroke="black" points="469.2,121.8 469.2,138.2 452.5,129.0 452.5,112.7 469.2,121.8" />
<polygon fill="rgba(255,255,255,0.75)" stroke-width="1" stroke-dasharray="" stroke="black" points="307.5,129.0 322.5,129.0 322.5,112.7 307.5,112.7 307.5,97.7 322.5,97.7 322.5,81.3 307.5,81.3 307.5,81.3 307.5,66.3 307.5,66.3 322.5,66.3 322.5,50.0 307.5,50.0 307.5,20.0 437.5,20.0 437.5,20.0 437.5,53.9 452.5,50.0 452.5,66.3 437.5,62.4 437.5,85.2 452.5,81.3 452.5,81.3 452.5,97.7 452.5,97.7 437.5,93.8 437.5,116.6 452.5,112.7 452.5,129.0 437.5,125.1 437.5,159.0 437.5,159.0 307.5,159.0 307.5,129.0" />
<polygon fill="rgba(192,192,192,0.5)" stroke-width="1" stroke-dasharray="" stroke="none" points="469.2,75.5 469.2,72.2 452.5,63.0 452.5,66.4 469.2,75.5" />
<polygon fill="rgba(192,192,192,0.5)" stroke-width="1" stroke-dasharray="" stroke="none" points="469.2,121.8 469.2,125.2 452.5,116.0 452.5,112.6 469.2,121.8" />
<polygon fill="rgba(192,192,192,0.5)" stroke-width="1" stroke-dasharray="" stroke="none" points="322.5,63.0 437.5,63.0 437.5,68.0 307.5,68.0 307.5,66.3 322.5,66.3 322.5,63.0" />
<polygon fill="rgba(192,192,192,0.5)" stroke-width="1" stroke-dasharray="" stroke="none" points="437.5,111.0 307.5,111.0 307.5,112.7 322.5,112.7 322.5,116.0 437.5,116.0 437.5,111.0" />
<circle cx="430" cy="32.0" r="5" stroke="orange" fill="white" stroke-width="1" />
<circle cx="430" cy="80.0" r="5" stroke="orange" fill="white" stroke-width="1" />
<circle cx="430" cy="128.0" r="5" stroke="orange" fill="white" stroke-width="1" />
</svg>
