<svg width="1100" viewBox="0 0 550 353.19238815542514" xmlns="http://www.w3.org/2000/svg">
<polygon fill="none" stroke-width="1" stroke-dasharray="2" stroke="gray" points="19.19238815542512,29.192388155425117 19.19238815542512,168.1923881554251 489.19238815542514,168.1923881554251 489.19238815542514,29.192388155425117" />
<polygon fill="none" stroke-width="1" stroke-dasharray="2" stroke="gray" points="10.0,20.0 10.0,159.0 19.19238815542512,168.1923881554251 19.19238815542512,29.192388155425117" />
<polygon fill="none" stroke-width="1" stroke-dasharray="2" stroke="gray" points="19.19238815542512,29.192388155425117 489.19238815542514,29.192388155425117 480.0,20.0 10.0,20.0" />
<polygon fill="rgba(192,192,192,0.75)" stroke-width="1" stroke-dasharray="" stroke="black" points="10.0,159.0 480.0,159.0 489.19238815542514,168.1923881554251 19.19238815542512,168.1923881554251" />
<polygon fill="rgba(255,255,255,0.75)" stroke-width="1" stroke-dasharray="" stroke="black" points="489.19238815542514,29.192388155425117 489.19238815542514,168.1923881554251 480.0,159.0 480.0,20.0" />
<polygon fill="rgba(255,255,255,0.75)" stroke-width="1" stroke-dasharray="" stroke="black" points="10.0,20.0 480.0,20.0 480.0,159.0 10.0,159.0" />
<polygon fill="rgba(192,192,192,0.5)" stroke-width="1" stroke-dasharray="" stroke="none" points="10.0,63.0 480.0,63.0 489.19238815542514,72.19238815542512 489.19238815542514,77.19238815542512 480.0,68.0 10.0,68.0" />
<polygon fill="rgba(192,192,192,0.5)" stroke-width="1" stroke-dasharray="" stroke="none" points="10.0,111.0 480.0,111.0 489.19238815542514,120.19238815542512 489.19238815542514,125.19238815542512 480.0,116.0 10.0,116.0" />
<circle cx="150" cy="32.0" r="5" stroke="orange" fill="white" stroke-width="1" />
<circle cx="185" cy="51.0" r="5" stroke="orange" fill="white" stroke-width="1" />
<circle cx="150" cy="80.0" r="5" stroke="orange" fill="white" stroke-width="1" />
<circle cx="185" cy="99.0" r="5" stroke="orange" fill="white" stroke-width="1" />
<circle cx="150" cy="128.0" r="5" stroke="orange" fill="white" stroke-width="1" />
<circle cx="185" cy="147.0" r="5" stroke="orange" fill="white" stroke-width="1" />
<polygon fill="none" stroke-width="1" stroke-dasharray="2" stroke="gray" points="19.19238815542512,194.1923881554251 19.19238815542512,333.19238815542514 489.19238815542514,333.19238815542514 489.19238815542514,194.1923881554251" />
<polygon fill="none" stroke-width="1" stroke-dasharray="2" stroke="gray" points="10.0,185.0 10.0,324.0 19.19238815542512,333.19238815542514 19.19238815542512,194.1923881554251" />
<polygon fill="none" stroke-width="1" stroke-dasharray="2" stroke="gray" points="19.19238815542512,194.1923881554251 489.19238815542514,194.1923881554251 480.0,185.0 10.0,185.0" />
<polygon fill="rgba(192,192,192,0.75)" stroke-width="1" stroke-dasharray="" stroke="black" points="10.0,324.0 480.0,324.0 489.19238815542514,333.19238815542514 19.19238815542512,333.19238815542514" />
<polygon fill="rgba(255,255,255,0.75)" stroke-width="1" stroke-dasharray="" stroke="black" points="489.19238815542514,194.1923881554251 489.19238815542514,333.19238815542514 480.0,324.0 480.0,185.0" />
<polygon fill="rgba(255,255,255,0.75)" stroke-width="1" stroke-dasharray="" stroke="black" points="10.0,185.0 480.0,185.0 480.0,324.0 10.0,324.0" />
<polygon fill="rgba(192,192,192,0.5)" stroke-width="1" stroke-dasharray="" stroke="none" points="10.0,228.0 480.0,228.0 489.19238815542514,237.1923881554251 489.19238815542514,242.1923881554251 480.0,233.0 10.0,233.0" />
<polygon fill="rgba(192,192,192,0.5)" stroke-width="1" stroke-dasharray="" stroke="none" points="10.0,276.0 480.0,276.0 489.19238815542514,285.19238815542514 489.19238815542514,290.19238815542514 480.0,281.0 10.0,281.0" />
<circle cx="150" cy="197.0" r="5" stroke="orange" fill="white" stroke-width="1" />
<circle cx="185" cy="216.0" r="5" stroke="orange" fill="white" stroke-width="1" />
<rect x="275" y="233.0" width="40" height="10.0" style="fill: none; stroke: orange; stroke-width: 1;" />
<circle cx="150" cy="245.0" r="5" stroke="orange" fill="white" stroke-width="1" />
<circle cx="185" cy="264.0" r="5" stroke="orange" fill="white" stroke-width="1" />
<circle cx="150" cy="293.0" r="5" stroke="orange" fill="white" stroke-width="1" />
<circle cx="185" cy="312.0" r="5" stroke="orange" fill="white" stroke-width="1" />
<polygon fill="none" stroke-width="1" stroke-dasharray="3" stroke="green" points="215.4833395016047,40.3641386247653 283.97778600213957,159.0 10.0,159.0 78.49444650053489,40.36413862476533" />
<polygon fill="none" stroke-width="1" stroke-dasharray="3" stroke="green" points="484.5434455009388,19.999999999999986 416.0489990004039,138.6358613752347 279.06010599933416,138.6358613752347 210.56565949879922,20.000000000000014" />
<polygon fill="none" stroke-width="1" stroke-dasharray="3" stroke="green" points="283.97778600213957,185.0 215.4833395016047,303.6358613752347 78.49444650053495,303.6358613752347 10.0,185.0" />
<polygon fill="none" stroke-width="1" stroke-dasharray="3" stroke="green" points="416.0489990004039,205.3641386247653 484.5434455009388,324.0 210.56565949879922,324.0 279.0601059993341,205.36413862476533" />
</svg>
