<svg width="1100" viewBox="0 0 550 518.1923881554251" xmlns="http://www.w3.org/2000/svg">
<polygon fill="none" stroke-width="1" stroke-dasharray="2" stroke="gray" points="19.19238815542512,29.192388155425117 19.19238815542512,34.19238815542512 179.1923881554251,34.19238815542512 179.1923881554251,29.192388155425117" />
<polygon fill="none" stroke-width="1" stroke-dasharray="2" stroke="gray" points="19.19238815542512,47.19238815542512 19.19238815542512,150.1923881554251 179.1923881554251,150.1923881554251 179.1923881554251,47.19238815542512" />
<polygon fill="none" stroke-width="1" stroke-dasharray="2" stroke="gray" points="19.19238815542512,163.1923881554251 19.19238815542512,168.1923881554251 179.1923881554251,168.1923881554251 179.1923881554251,163.1923881554251" />
<polygon fill="rgba(192,192,192,0.75)" stroke-width="1" stroke-dasharray="" stroke="black" points="18.54360559544051,30.65685424949238 172.77010290354426,30.65685424949238 179.1923881554251,34.19238815542512 19.19238815542512,34.19238815542512" />
<polygon fill="none" stroke-width="1" stroke-dasharray="2" stroke="gray" points="19.19238815542512,47.19238815542512 179.1923881554251,47.19238815542512 172.77010290354426,43.65685424949238 18.54360559544051,43.65685424949238" />
<polygon fill="rgba(192,192,192,0.75)" stroke-width="1" stroke-dasharray="" stroke="black" points="18.54360559544051,146.65685424949237 172.77010290354426,146.65685424949237 179.1923881554251,150.1923881554251 19.19238815542512,150.1923881554251" />
<polygon fill="none" stroke-width="1" stroke-dasharray="2" stroke="gray" points="19.19238815542512,163.1923881554251 179.1923881554251,163.1923881554251 172.77010290354426,159.65685424949237 18.54360559544051,159.65685424949237" />
<polygon fill="none" stroke-width="1" stroke-dasharray="2" stroke="gray" points="18.54360559544051,30.65685424949238 18.54360559544051,43.65685424949238 172.77010290354426,43.65685424949238 172.77010290354426,30.65685424949238" />
<polygon fill="none" stroke-width="1" stroke-dasharray="2" stroke="gray" points="18.54360559544051,146.65685424949237 18.54360559544051,159.65685424949237 172.77010290354426,159.65685424949237 172.77010290354426,146.65685424949237" />
<polygon fill="none" stroke-width="1" stroke-dasharray="2" stroke="gray" points="17.505553499465137,20.0 17.505553499465137,159.0 19.19238815542512,168.1923881554251 19.19238815542512,163.1923881554251 18.54360559544051,159.65685424949237 18.54360559544051,146.65685424949237 19.19238815542512,150.1923881554251 19.19238815542512,47.19238815542512 18.54360559544051,43.65685424949238 18.54360559544051,30.65685424949238 19.19238815542512,34.19238815542512 19.19238815542512,29.192388155425117" />
<polygon fill="none" stroke-width="1" stroke-dasharray="2" stroke="gray" points="19.19238815542512,29.192388155425117 179.1923881554251,29.192388155425117 162.49444650053488,20.0 17.505553499465137,20.0" />
<polygon fill="rgba(192,192,192,0.75)" stroke-width="1" stroke-dasharray="" stroke="black" points="17.505553499465137,159.0 162.49444650053488,159.0 179.1923881554251,168.1923881554251 19.19238815542512,168.1923881554251" />
<polygon fill="rgba(255,255,255,0.75)" stroke-width="1" stroke-dasharray="" stroke="black" points="179.1923881554251,29.192388155425117 179.1923881554251,34.19238815542512 172.77010290354426,30.65685424949238 172.77010290354426,43.65685424949238 179.1923881554251,47.19238815542512 179.1923881554251,150.1923881554251 172.77010290354426,146.65685424949237 172.77010290354426,159.65685424949237 179.1923881554251,163.1923881554251 179.1923881554251,168.1923881554251 162.49444650053488,159.0 162.49444650053488,20.0" />
<polygon fill="rgba(255,255,255,0.75)" stroke-width="1" stroke-dasharray="" stroke="black" points="17.505553499465137,20.0 162.49444650053488,20.0 162.49444650053488,159.0 17.505553499465137,159.0" />
<polygon fill="rgba(192,192,192,0.5)" stroke-width="1" stroke-dasharray="" stroke="none" points="17.505553499465137,63.0 162.49444650053488,63.0 162.49444650053488,68.0 17.505553499465137,68.0" />
<polygon fill="rgba(192,192,192,0.5)" stroke-width="1" stroke-dasharray="" stroke="none" points="17.505553499465137,111.0 162.49444650053488,111.0 162.49444650053488,116.0 17.505553499465137,116.0" />
<polygon fill="none" stroke-width="1" stroke-dasharray="2" stroke="gray" points="19.19238815542512,194.1923881554251 19.19238815542512,199.1923881554251 179.1923881554251,199.1923881554251 179.1923881554251,194.1923881554251" />
<polygon fill="none" stroke-width="1" stroke-dasharray="2" stroke="gray" points="19.19238815542512,212.1923881554251 19.19238815542512,315.19238815542514 179.1923881554251,315.19238815542514 179.1923881554251,212.1923881554251" />
<polygon fill="none" stroke-width="1" stroke-dasharray="2" stroke="gray" points="19.19238815542512,328.19238815542514 19.19238815542512,333.19238815542514 179.1923881554251,333.19238815542514 179.1923881554251,328.19238815542514" />
<polygon fill="rgba(192,192,192,0.75)" stroke-width="1" stroke-dasharray="" stroke="black" points="18.54360559544051,195.65685424949237 172.77010290354426,195.65685424949237 179.1923881554251,199.1923881554251 19.19238815542512,199.1923881554251" />
<polygon fill="none" stroke-width="1" stroke-dasharray="2" stroke="gray" points="19.19238815542512,212.1923881554251 179.1923881554251,212.1923881554251 172.77010290354426,208.65685424949237 18.54360559544051,208.65685424949237" />
<polygon fill="rgba(192,192,192,0.75)" stroke-width="1" stroke-dasharray="" stroke="black" points="18.54360559544051,311.65685424949237 172.77010290354426,311.65685424949237 179.1923881554251,315.19238815542514 19.19238815542512,315.19238815542514" />
<polygon fill="none" stroke-width="1" stroke-dasharray="2" stroke="gray" points="19.19238815542512,328.19238815542514 179.1923881554251,328.19238815542514 172.77010290354426,324.65685424949237 18.54360559544051,324.65685424949237" />
<polygon fill="none" stroke-width="1" stroke-dasharray="2" stroke="gray" points="18.54360559544051,195.65685424949237 18.54360559544051,208.65685424949237 172.77010290354426,208.65685424949237 172.77010290354426,195.65685424949237" />
<polygon fill="none" stroke-width="1" stroke-dasharray="2" stroke="gray" points="18.54360559544051,311.65685424949237 18.54360559544051,324.65685424949237 172.77010290354426,324.65685424949237 172.77010290354426,311.65685424949237" />
<polygon fill="none" stroke-width="1" stroke-dasharray="2" stroke="gray" points="17.505553499465137,185.0 17.505553499465137,324.0 19.19238815542512,333.19238815542514 19.19238815542512,328.19238815542514 18.54360559544051,324.65685424949237 18.54360559544051,311.65685424949237 19.19238815542512,315.19238815542514 19.19238815542512,212.1923881554251 18.54360559544051,208.65685424949237 18.54360559544051,195.65685424949237 19.19238815542512,199.1923881554251 19.19238815542512,194.1923881554251" />
<polygon fill="none" stroke-width="1" stroke-dasharray="2" stroke="gray" points="19.19238815542512,194.1923881554251 179.1923881554251,194.1923881554251 162.49444650053488,185.0 17.505553499465137,185.0" />
<polygon fill="rgba(192,192,192,0.75)" stroke-width="1" stroke-dasharray="" stroke="black" points="17.505553499465137,324.0 162.49444650053488,324.0 179.1923881554251,333.19238815542514 19.19238815542512,333.19238815542514" />
<polygon fill="rgba(255,255,255,0.75)" stroke-width="1" stroke-dasharray="" stroke="black" points="179.1923881554251,194.1923881554251 179.1923881554251,199.1923881554251 172.77010290354426,195.65685424949237 172.77010290354426,208.65685424949237 179.1923881554251,212.1923881554251 179.1923881554251,315.19238815542514 172.77010290354426,311.65685424949237 172.77010290354426,324.65685424949237 179.1923881554251,328.19238815542514 179.1923881554251,333.19238815542514 162.49444650053488,324.0 162.49444650053488,185.0" />
<polygon fill="rgba(255,255,255,0.75)" stroke-width="1" stroke-dasharray="" stroke="black" points="17.505553499465137,185.0 162.49444650053488,185.0 162.49444650053488,324.0 17.505553499465137,324.0" />
<polygon fill="rgba(192,192,192,0.5)" stroke-width="1" stroke-dasharray="" stroke="none" points="17.505553499465137,228.0 162.49444650053488,228.0 162.49444650053488,233.0 17.505553499465137,233.0" />
<polygon fill="rgba(192,192,192,0.5)" stroke-width="1" stroke-dasharray="" stroke="none" points="17.505553499465137,276.0 162.49444650053488,276.0 162.49444650053488,281.0 17.505553499465137,281.0" />
<circle cx="140" cy="197.0" r="5" stroke="orange" fill="white" stroke-width="1" />
<circle cx="140" cy="245.0" r="5" stroke="orange" fill="white" stroke-width="1" />
<circle cx="140" cy="293.0" r="5" stroke="orange" fill="white" stroke-width="1" />
<polygon fill="none" stroke-width="1" stroke-dasharray="2" stroke="gray" points="19.19238815542512,359.19238815542514 19.19238815542512,364.19238815542514 179.1923881554251,364.19238815542514 179.1923881554251,359.19238815542514" />
<polygon fill="none" stroke-width="1" stroke-dasharray="2" stroke="gray" points="19.19238815542512,377.19238815542514 19.19238815542512,480.19238815542514 179.1923881554251,480.19238815542514 179.1923881554251,377.19238815542514" />
<polygon fill="none" stroke-width="1" stroke-dasharray="2" stroke="gray" points="19.19238815542512,493.19238815542514 19.19238815542512,498.19238815542514 179.1923881554251,498.19238815542514 179.1923881554251,493.19238815542514" />
<polygon fill="rgba(192,192,192,0.75)" stroke-width="1" stroke-dasharray="" stroke="black" points="18.54360559544051,360.65685424949237 172.77010290354426,360.65685424949237 179.1923881554251,364.19238815542514 19.19238815542512,364.19238815542514" />
<polygon fill="none" stroke-width="1" stroke-dasharray="2" stroke="gray" points="19.19238815542512,377.19238815542514 179.1923881554251,377.19238815542514 172.77010290354426,373.65685424949237 18.54360559544051,373.65685424949237" />
<polygon fill="rgba(192,192,192,0.75)" stroke-width="1" stroke-dasharray="" stroke="black" points="18.54360559544051,476.65685424949237 172.77010290354426,476.65685424949237 179.1923881554251,480.19238815542514 19.19238815542512,480.19238815542514" />
<polygon fill="none" stroke-width="1" stroke-dasharray="2" stroke="gray" points="19.19238815542512,493.19238815542514 179.1923881554251,493.19238815542514 172.77010290354426,489.65685424949237 18.54360559544051,489.65685424949237" />
<polygon fill="none" stroke-width="1" stroke-dasharray="2" stroke="gray" points="18.54360559544051,360.65685424949237 18.54360559544051,373.65685424949237 172.77010290354426,373.65685424949237 172.77010290354426,360.65685424949237" />
<polygon fill="none" stroke-width="1" stroke-dasharray="2" stroke="gray" points="18.54360559544051,476.65685424949237 18.54360559544051,489.65685424949237 172.77010290354426,489.65685424949237 172.77010290354426,476.65685424949237" />
<polygon fill="none" stroke-width="1" stroke-dasharray="2" stroke="gray" points="17.505553499465137,350.0 17.505553499465137,489.0 19.19238815542512,498.19238815542514 19.19238815542512,493.19238815542514 18.54360559544051,489.65685424949237 18.54360559544051,476.65685424949237 19.19238815542512,480.19238815542514 19.19238815542512,377.19238815542514 18.54360559544051,373.65685424949237 18.54360559544051,360.65685424949237 19.19238815542512,364.19238815542514 19.19238815542512,359.19238815542514" />
<polygon fill="none" stroke-width="1" stroke-dasharray="2" stroke="gray" points="19.19238815542512,359.19238815542514 179.1923881554251,359.19238815542514 162.49444650053488,350.0 17.505553499465137,350.0" />
<polygon fill="rgba(192,192,192,0.75)" stroke-width="1" stroke-dasharray="" stroke="black" points="17.505553499465137,489.0 162.49444650053488,489.0 179.1923881554251,498.19238815542514 19.19238815542512,498.19238815542514" />
<polygon fill="rgba(255,255,255,0.75)" stroke-width="1" stroke-dasharray="" stroke="black" points="179.1923881554251,359.19238815542514 179.1923881554251,364.19238815542514 172.77010290354426,360.65685424949237 172.77010290354426,373.65685424949237 179.1923881554251,377.19238815542514 179.1923881554251,480.19238815542514 172.77010290354426,476.65685424949237 172.77010290354426,489.65685424949237 179.1923881554251,493.19238815542514 179.1923881554251,498.19238815542514 162.49444650053488,489.0 162.49444650053488,350.0" />
<polygon fill="rgba(255,255,255,0.75)" stroke-width="1" stroke-dasharray="" stroke="black" points="17.505553499465137,350.0 162.49444650053488,350.0 162.49444650053488,489.0 17.505553499465137,489.0" />
<polygon fill="rgba(192,192,192,0.5)" stroke-width="1" stroke-dasharray="" stroke="none" points="17.505553499465137,393.0 162.49444650053488,393.0 162.49444650053488,398.0 17.505553499465137,398.0" />
<polygon fill="rgba(192,192,192,0.5)" stroke-width="1" stroke-dasharray="" stroke="none" points="17.505553499465137,441.0 162.49444650053488,441.0 162.49444650053488,446.0 17.505553499465137,446.0" />
<polygon fill="none" stroke-width="1" stroke-dasharray="2" stroke="gray" points="309.19238815542514,29.192388155425117 309.19238815542514,34.19238815542512 469.19238815542514,34.19238815542512 469.19238815542514,29.192388155425117" />
<polygon fill="none" stroke-width="1" stroke-dasharray="2" stroke="gray" points="309.19238815542514,47.19238815542512 309.19238815542514,150.1923881554251 469.19238815542514,150.1923881554251 469.19238815542514,47.19238815542512" />
<polygon fill="none" stroke-width="1" stroke-dasharray="2" stroke="gray" points="309.19238815542514,163.1923881554251 309.19238815542514,168.1923881554251 469.19238815542514,168.1923881554251 469.19238815542514,163.1923881554251" />
<polygon fill="rgba(192,192,192,0.75)" stroke-width="1" stroke-dasharray="" stroke="black" points="308.5436055954405,30.65685424949238 462.7701029035442,30.65685424949238 469.19238815542514,34.19238815542512 309.19238815542514,34.19238815542512" />
<polygon fill="none" stroke-width="1" stroke-dasharray="2" stroke="gray" points="309.19238815542514,47.19238815542512 469.19238815542514,47.19238815542512 462.7701029035442,43.65685424949238 308.5436055954405,43.65685424949238" />
<polygon fill="rgba(192,192,192,0.75)" stroke-width="1" stroke-dasharray="" stroke="black" points="308.5436055954405,146.65685424949237 462.7701029035442,146.65685424949237 469.19238815542514,150.1923881554251 309.19238815542514,150.1923881554251" />
<polygon fill="none" stroke-width="1" stroke-dasharray="2" stroke="gray" points="309.19238815542514,163.1923881554251 469.19238815542514,163.1923881554251 462.7701029035442,159.65685424949237 308.5436055954405,159.65685424949237" />
<polygon fill="none" stroke-width="1" stroke-dasharray="2" stroke="gray" points="308.5436055954405,30.65685424949238 308.5436055954405,43.65685424949238 462.7701029035442,43.65685424949238 462.7701029035442,30.65685424949238" />
<polygon fill="none" stroke-width="1" stroke-dasharray="2" stroke="gray" points="308.5436055954405,146.65685424949237 308.5436055954405,159.65685424949237 462.7701029035442,159.65685424949237 462.7701029035442,146.65685424949237" />
<polygon fill="none" stroke-width="1" stroke-dasharray="2" stroke="gray" points="307.5055534994651,20.0 307.5055534994651,159.0 309.19238815542514,168.1923881554251 309.19238815542514,163.1923881554251 308.5436055954405,159.65685424949237 308.5436055954405,146.65685424949237 309.19238815542514,150.1923881554251 309.19238815542514,47.19238815542512 308.5436055954405,43.65685424949238 308.5436055954405,30.65685424949238 309.19238815542514,34.19238815542512 309.19238815542514,29.192388155425117" />
<polygon fill="none" stroke-width="1" stroke-dasharray="2" stroke="gray" points="309.19238815542514,29.192388155425117 469.19238815542514,29.192388155425117 452.4944465005349,20.0 307.5055534994651,20.0" />
<polygon fill="rgba(192,192,192,0.75)" stroke-width="1" stroke-dasharray="" stroke="black" points="307.5055534994651,159.0 452.4944465005349,159.0 469.19238815542514,168.1923881554251 309.19238815542514,168.1923881554251" />
<polygon fill="rgba(255,255,255,0.75)" stroke-width="1" stroke-dasharray="" stroke="black" points="469.19238815542514,29.192388155425117 469.19238815542514,34.19238815542512 462.7701029035442,30.65685424949238 462.7701029035442,43.65685424949238 469.19238815542514,47.19238815542512 469.19238815542514,150.1923881554251 462.7701029035442,146.65685424949237 462.7701029035442,159.65685424949237 469.19238815542514,163.1923881554251 469.19238815542514,168.1923881554251 452.4944465005349,159.0 452.4944465005349,20.0" />
<polygon fill="rgba(255,255,255,0.75)" stroke-width="1" stroke-dasharray="" stroke="black" points="307.5055534994651,20.0 452.4944465005349,20.0 452.4944465005349,159.0 307.5055534994651,159.0" />
<polygon fill="rgba(192,192,192,0.5)" stroke-width="1" stroke-dasharray="" stroke="none" points="307.5055534994651,63.0 452.4944465005349,63.0 452.4944465005349,68.0 307.5055534994651,68.0" />
<polygon fill="rgba(192,192,192,0.5)" stroke-width="1" stroke-dasharray="" stroke="none" points="307.5055534994651,111.0 452.4944465005349,111.0 452.4944465005349,116.0 307.5055534994651,116.0" />
<polygon fill="none" stroke-width="1" stroke-dasharray="2" stroke="gray" points="309.19238815542514,194.1923881554251 309.19238815542514,199.1923881554251 469.19238815542514,199.1923881554251 469.19238815542514,194.1923881554251" />
<polygon fill="none" stroke-width="1" stroke-dasharray="2" stroke="gray" points="309.19238815542514,212.1923881554251 309.19238815542514,315.19238815542514 469.19238815542514,315.19238815542514 469.19238815542514,212.1923881554251" />
<polygon fill="none" stroke-width="1" stroke-dasharray="2" stroke="gray" points="309.19238815542514,328.19238815542514 309.19238815542514,333.19238815542514 469.19238815542514,333.19238815542514 469.19238815542514,328.19238815542514" />
<polygon fill="rgba(192,192,192,0.75)" stroke-width="1" stroke-dasharray="" stroke="black" points="308.5436055954405,195.65685424949237 462.7701029035442,195.65685424949237 469.19238815542514,199.1923881554251 309.19238815542514,199.1923881554251" />
<polygon fill="none" stroke-width="1" stroke-dasharray="2" stroke="gray" points="309.19238815542514,212.1923881554251 469.19238815542514,212.1923881554251 462.7701029035442,208.65685424949237 308.5436055954405,208.65685424949237" />
<polygon fill="rgba(192,192,192,0.75)" stroke-width="1" stroke-dasharray="" stroke="black" points="308.5436055954405,311.65685424949237 462.7701029035442,311.65685424949237 469.19238815542514,315.19238815542514 309.19238815542514,315.19238815542514" />
<polygon fill="none" stroke-width="1" stroke-dasharray="2" stroke="gray" points="309.19238815542514,328.19238815542514 469.19238815542514,328.19238815542514 462.7701029035442,324.65685424949237 308.5436055954405,324.65685424949237" />
<polygon fill="none" stroke-width="1" stroke-dasharray="2" stroke="gray" points="308.5436055954405,195.65685424949237 308.5436055954405,208.65685424949237 462.7701029035442,208.65685424949237 462.7701029035442,195.65685424949237" />
<polygon fill="none" stroke-width="1" stroke-dasharray="2" stroke="gray" points="308.5436055954405,311.65685424949237 308.5436055954405,324.65685424949237 462.7701029035442,324.65685424949237 462.7701029035442,311.65685424949237" />
<polygon fill="none" stroke-width="1" stroke-dasharray="2" stroke="gray" points="307.5055534994651,185.0 307.5055534994651,324.0 309.19238815542514,333.19238815542514 309.19238815542514,328.19238815542514 308.5436055954405,324.65685424949237 308.5436055954405,311.65685424949237 309.19238815542514,315.19238815542514 309.19238815542514,212.1923881554251 308.5436055954405,208.65685424949237 308.5436055954405,195.65685424949237 309.19238815542514,199.1923881554251 309.19238815542514,194.1923881554251" />
<polygon fill="none" stroke-width="1" stroke-dasharray="2" stroke="gray" points="309.19238815542514,194.1923881554251 469.19238815542514,194.1923881554251 452.4944465005349,185.0 307.5055534994651,185.0" />
<polygon fill="rgba(192,192,192,0.75)" stroke-width="1" stroke-dasharray="" stroke="black" points="307.5055534994651,324.0 452.4944465005349,324.0 469.19238815542514,333.19238815542514 309.19238815542514,333.19238815542514" />
<polygon fill="rgba(255,255,255,0.75)" stroke-width="1" stroke-dasharray="" stroke="black" points="469.19238815542514,194.1923881554251 469.19238815542514,199.1923881554251 462.7701029035442,195.65685424949237 462.7701029035442,208.65685424949237 469.19238815542514,212.1923881554251 469.19238815542514,315.19238815542514 462.7701029035442,311.65685424949237 462.7701029035442,324.65685424949237 469.19238815542514,328.19238815542514 469.19238815542514,333.19238815542514 452.4944465005349,324.0 452.4944465005349,185.0" />
<polygon fill="rgba(255,255,255,0.75)" stroke-width="1" stroke-dasharray="" stroke="black" points="307.5055534994651,185.0 452.4944465005349,185.0 452.4944465005349,324.0 307.5055534994651,324.0" />
<polygon fill="rgba(192,192,192,0.5)" stroke-width="1" stroke-dasharray="" stroke="none" points="307.5055534994651,228.0 452.4944465005349,228.0 452.4944465005349,233.0 307.5055534994651,233.0" />
<polygon fill="rgba(192,192,192,0.5)" stroke-width="1" stroke-dasharray="" stroke="none" points="307.5055534994651,276.0 452.4944465005349,276.0 452.4944465005349,281.0 307.5055534994651,281.0" />
<circle cx="430" cy="197.0" r="5" stroke="orange" fill="white" stroke-width="1" />
<circle cx="430" cy="245.0" r="5" stroke="orange" fill="white" stroke-width="1" />
<circle cx="430" cy="293.0" r="5" stroke="orange" fill="white" stroke-width="1" />
<polygon fill="none" stroke-width="1" stroke-dasharray="2" stroke="gray" points="309.19238815542514,359.19238815542514 309.19238815542514,364.19238815542514 469.19238815542514,364.19238815542514 469.19238815542514,359.19238815542514" />
<polygon fill="none" stroke-width="1" stroke-dasharray="2" stroke="gray" points="309.19238815542514,377.19238815542514 309.19238815542514,480.19238815542514 469.19238815542514,480.19238815542514 469.19238815542514,377.19238815542514" />
<polygon fill="none" stroke-width="1" stroke-dasharray="2" stroke="gray" points="309.19238815542514,493.19238815542514 309.19238815542514,498.19238815542514 469.19238815542514,498.19238815542514 469.19238815542514,493.19238815542514" />
<polygon fill="rgba(192,192,192,0.75)" stroke-width="1" stroke-dasharray="" stroke="black" points="308.5436055954405,360.65685424949237 462.7701029035442,360.65685424949237 469.19238815542514,364.19238815542514 309.19238815542514,364.19238815542514" />
<polygon fill="none" stroke-width="1" stroke-dasharray="2" stroke="gray" points="309.19238815542514,377.19238815542514 469.19238815542514,377.19238815542514 462.7701029035442,373.65685424949237 308.5436055954405,373.65685424949237" />
<polygon fill="rgba(192,192,192,0.75)" stroke-width="1" stroke-dasharray="" stroke="black" points="308.5436055954405,476.65685424949237 462.7701029035442,476.65685424949237 469.19238815542514,480.19238815542514 309.19238815542514,480.19238815542514" />
<polygon fill="none" stroke-width="1" stroke-dasharray="2" stroke="gray" points="309.19238815542514,493.19238815542514 469.19238815542514,493.19238815542514 462.7701029035442,489.65685424949237 308.5436055954405,489.65685424949237" />
<polygon fill="none" stroke-width="1" stroke-dasharray="2" stroke="gray" points="308.5436055954405,360.65685424949237 308.5436055954405,373.65685424949237 462.7701029035442,373.65685424949237 462.7701029035442,360.65685424949237" />
<polygon fill="none" stroke-width="1" stroke-dasharray="2" stroke="gray" points="308.5436055954405,476.65685424949237 308.5436055954405,489.65685424949237 462.7701029035442,489.65685424949237 462.7701029035442,476.65685424949237" />
<polygon fill="none" stroke-width="1" stroke-dasharray="2" stroke="gray" points="307.5055534994651,350.0 307.5055534994651,489.0 309.19238815542514,498.19238815542514 309.19238815542514,493.19238815542514 308.5436055954405,489.65685424949237 308.5436055954405,476.65685424949237 309.19238815542514,480.19238815542514 309.19238815542514,377.19238815542514 308.5436055954405,373.65685424949237 308.5436055954405,360.65685424949237 309.19238815542514,364.19238815542514 309.19238815542514,359.19238815542514" />
<polygon fill="none" stroke-width="1" stroke-dasharray="2" stroke="gray" points="309.19238815542514,359.19238815542514 469.19238815542514,359.19238815542514 452.4944465005349,350.0 307.5055534994651,350.0" />
<polygon fill="rgba(192,192,192,0.75)" stroke-width="1" stroke-dasharray="" stroke="black" points="307.5055534994651,489.0 452.4944465005349,489.0 469.19238815542514,498.19238815542514 309.19238815542514,498.19238815542514" />
<polygon fill="rgba(255,255,255,0.75)" stroke-width="1" stroke-dasharray="" stroke="black" points="469.19238815542514,359.19238815542514 469.19238815542514,364.19238815542514 462.7701029035442,360.65685424949237 462.7701029035442,373.65685424949237 469.19238815542514,377.19238815542514 469.19238815542514,480.19238815542514 462.7701029035442,476.65685424949237 462.7701029035442,489.65685424949237 469.19238815542514,493.19238815542514 469.19238815542514,498.19238815542514 452.4944465005349,489.0 452.4944465005349,350.0" />
<polygon fill="rgba(255,255,255,0.75)" stroke-width="1" stroke-dasharray="" stroke="black" points="307.5055534994651,350.0 452.4944465005349,350.0 452.4944465005349,489.0 307.5055534994651,489.0" />
<polygon fill="rgba(192,192,192,0.5)" stroke-width="1" stroke-dasharray="" stroke="none" points="307.5055534994651,393.0 452.4944465005349,393.0 452.4944465005349,398.0 307.5055534994651,398.0" />
<polygon fill="rgba(192,192,192,0.5)" stroke-width="1" stroke-dasharray="" stroke="none" points="307.5055534994651,441.0 452.4944465005349,441.0 452.4944465005349,446.0 307.5055534994651,446.0" />
<rect x="310" y="383.0" width="40" height="10.0" style="fill: none; stroke: orange; stroke-width: 1;" />
</svg>
