<svg width="1100" viewBox="0 0 550 356.3847763108502" xmlns="http://www.w3.org/2000/svg">
<polygon fill="none" stroke-width="1" stroke-dasharray="2" stroke="gray" points="19.19238815542512,29.192388155425117 19.19238815542512,168.1923881554251 489.19238815542514,168.1923881554251 489.19238815542514,29.192388155425117" />
<polygon fill="none" stroke-width="1" stroke-dasharray="2" stroke="gray" points="10.0,20.0 10.0,159.0 19.19238815542512,168.1923881554251 19.19238815542512,29.192388155425117" />
<polygon fill="none" stroke-width="1" stroke-dasharray="2" stroke="gray" points="19.19238815542512,29.192388155425117 489.19238815542514,29.192388155425117 480.0,20.0 10.0,20.0" />
<polygon fill="rgba(192,192,192,0.75)" stroke-width="1" stroke-dasharray="" stroke="black" points="10.0,159.0 480.0,159.0 489.19238815542514,168.1923881554251 19.19238815542512,168.1923881554251" />
<polygon fill="rgba(255,255,255,0.75)" stroke-width="1" stroke-dasharray="" stroke="black" points="489.19238815542514,29.192388155425117 489.19238815542514,168.1923881554251 480.0,159.0 480.0,20.0" />
<polygon fill="rgba(255,255,255,0.75)" stroke-width="1" stroke-dasharray="" stroke="black" points="10.0,20.0 480.0,20.0 480.0,159.0 10.0,159.0" />
<polygon fill="rgba(192,192,192,0.5)" stroke-width="1" stroke-dasharray="" stroke="none" points="480.0,63.0 489.19238815542514,72.19238815542512 489.19238815542514,77.19238815542512 480.0,68.0" />
<polygon fill="rgba(192,192,192,0.5)" stroke-width="1" stroke-dasharray="" stroke="none" points="480.0,111.0 489.19238815542514,120.19238815542512 489.19238815542514,125.19238815542512 480.0,116.0" />
<polygon fill="rgba(192,192,192,0.5)" stroke-width="1" stroke-dasharray="" stroke="none" points="10.0,63.0 480.0,63.0 480.0,68.0 10.0,68.0" />
<polygon fill="rgba(192,192,192,0.5)" stroke-width="1" stroke-dasharray="" stroke="none" points="10.0,111.0 480.0,111.0 480.0,116.0 10.0,116.0" />
<circle cx="150" cy="32.0" r="5" stroke="orange" fill="white" stroke-width="1" />
<circle cx="185" cy="51.0" r="5" stroke="orange" fill="white" stroke-width="1" />
<circle cx="150" cy="80.0" r="5" stroke="orange" fill="white" stroke-width="1" />
<circle cx="185" cy="99.0" r="5" stroke="orange" fill="white" stroke-width="1" />
<circle cx="150" cy="128.0" r="5" stroke="orange" fill="white" stroke-width="1" />
<circle cx="185" cy="147.0" r="5" stroke="orange" fill="white" stroke-width="1" />
<polygon fill="none" stroke-width="1" stroke-dasharray="2" stroke="gray" points="19.19238815542512,197.3847763108502 19.19238815542512,336.3847763108502 489.19238815542514,336.3847763108502 489.19238815542514,197.3847763108502" />
<polygon fill="none" stroke-width="1" stroke-dasharray="2" stroke="gray" points="10.0,188.1923881554251 10.0,327.1923881554251 19.19238815542512,336.3847763108502 19.19238815542512,197.3847763108502" />
<polygon fill="none" stroke-width="1" stroke-dasharray="2" stroke="gray" points="19.19238815542512,197.3847763108502 489.19238815542514,197.3847763108502 480.0,188.1923881554251 10.0,188.1923881554251" />
<polygon fill="rgba(192,192,192,0.75)" stroke-width="1" stroke-dasharray="" stroke="black" points="10.0,327.1923881554251 480.0,327.1923881554251 489.19238815542514,336.3847763108502 19.19238815542512,336.3847763108502" />
<polygon fill="rgba(255,255,255,0.75)" stroke-width="1" stroke-dasharray="" stroke="black" points="489.19238815542514,197.3847763108502 489.19238815542514,336.3847763108502 480.0,327.1923881554251 480.0,188.1923881554251" />
<polygon fill="rgba(255,255,255,0.75)" stroke-width="1" stroke-dasharray="" stroke="black" points="10.0,188.1923881554251 480.0,188.1923881554251 480.0,327.1923881554251 10.0,327.1923881554251" />
<polygon fill="rgba(192,192,192,0.5)" stroke-width="1" stroke-dasharray="" stroke="none" points="480.0,231.1923881554251 489.19238815542514,240.3847763108502 489.19238815542514,245.3847763108502 480.0,236.1923881554251" />
<polygon fill="rgba(192,192,192,0.5)" stroke-width="1" stroke-dasharray="" stroke="none" points="480.0,279.1923881554251 489.19238815542514,288.3847763108502 489.19238815542514,293.3847763108502 480.0,284.1923881554251" />
<polygon fill="rgba(192,192,192,0.5)" stroke-width="1" stroke-dasharray="" stroke="none" points="10.0,231.1923881554251 480.0,231.1923881554251 480.0,236.1923881554251 10.0,236.1923881554251" />
<polygon fill="rgba(192,192,192,0.5)" stroke-width="1" stroke-dasharray="" stroke="none" points="10.0,279.1923881554251 480.0,279.1923881554251 480.0,284.1923881554251 10.0,284.1923881554251" />
<circle cx="150" cy="200.1923881554251" r="5" stroke="orange" fill="white" stroke-width="1" />
<circle cx="185" cy="219.1923881554251" r="5" stroke="orange" fill="white" stroke-width="1" />
<rect x="275" y="236.1923881554251" width="40" height="10.0" style="fill: none; stroke: orange; stroke-width: 1;" />
<circle cx="150" cy="248.1923881554251" r="5" stroke="orange" fill="white" stroke-width="1" />
<circle cx="185" cy="267.1923881554251" r="5" stroke="orange" fill="white" stroke-width="1" />
<circle cx="150" cy="296.1923881554251" r="5" stroke="orange" fill="white" stroke-width="1" />
<circle cx="185" cy="315.1923881554251" r="5" stroke="orange" fill="white" stroke-width="1" />
<polygon fill="none" stroke-width="1" stroke-dasharray="3" stroke="green" points="215.4833395016047,40.3641386247653 283.97778600213957,159.0 10.0,159.0 78.49444650053489,40.36413862476533" />
<polygon fill="none" stroke-width="1" stroke-dasharray="3" stroke="green" points="484.5434455009388,19.999999999999986 416.0489990004039,138.6358613752347 279.06010599933416,138.6358613752347 210.56565949879922,20.000000000000014" />
<polygon fill="none" stroke-width="1" stroke-dasharray="3" stroke="green" points="283.97778600213957,188.19238815542508 215.4833395016047,306.82824953065983 78.49444650053495,306.82824953065983 10.0,188.19238815542514" />
<polygon fill="none" stroke-width="1" stroke-dasharray="3" stroke="green" points="416.0489990004039,208.5565267801904 484.5434455009388,327.1923881554251 210.56565949879922,327.1923881554251 279.0601059993341,208.55652678019044" />
</svg>
