<svg width="1000" viewBox="0.0 -5.0 1000.0 875.6" xmlns="http://www.w3.org/2000/svg">
<polygon fill="none" stroke-width="1" stroke-dasharray="2" stroke="gray" points="28.5,18.5 28.5,198.5 818.5,198.5 818.5,18.5" />
<polygon fill="none" stroke-width="1" stroke-dasharray="2" stroke="gray" points="20.0,10.0 20.0,190.0 28.5,198.5 28.5,18.5" />
<polygon fill="none" stroke-width="1" stroke-dasharray="2" stroke="gray" points="28.5,18.5 818.5,18.5 810.0,10.0 20.0,10.0" />
<polygon fill="rgba(192,192,192,0.75)" stroke-width="1" stroke-dasharray="" stroke="black" points="20.0,190.0 810.0,190.0 818.5,198.5 28.5,198.5" />
<polygon fill="rgba(255,255,255,0.75)" stroke-width="1" stroke-dasharray="" stroke="black" points="818.5,18.5 818.5,198.5 810.0,190.0 810.0,10.0" />
<polygon fill="rgba(255,255,255,0.75)" stroke-width="1" stroke-dasharray="" stroke="black" points="20.0,10.0 810.0,10.0 810.0,190.0 20.0,190.0" />
<polygon fill="rgba(224,255,224,0.25)" stroke-width="1" stroke-dasharray="" stroke="none" points="810.0,10.0 818.5,18.5 818.5,198.5 810.0,190.0" />
<polygon fill="rgba(224,255,224,0.25)" stroke-width="1" stroke-dasharray="" stroke="none" points="20.0,10.0 810.0,10.0 810.0,190.0 20.0,190.0" />
<text style="" text-anchor="middle" x="415.0" y="100.0" fill="black">a-1 (used)</text>
<polygon fill="none" stroke-width="1" stroke-dasharray="2" stroke="gray" points="48.5,38.5 48.5,218.5 838.5,218.5 838.5,38.5" />
<polygon fill="none" stroke-width="1" stroke-dasharray="2" stroke="gray" points="40.0,30.0 40.0,210.0 48.5,218.5 48.5,38.5" />
<polygon fill="none" stroke-width="1" stroke-dasharray="2" stroke="gray" points="48.5,38.5 838.5,38.5 830.0,30.0 40.0,30.0" />
<polygon fill="rgba(192,192,192,0.75)" stroke-width="1" stroke-dasharray="" stroke="black" points="40.0,210.0 830.0,210.0 838.5,218.5 48.5,218.5" />
<polygon fill="rgba(255,255,255,0.75)" stroke-width="1" stroke-dasharray="" stroke="black" points="838.5,38.5 838.5,218.5 830.0,210.0 830.0,30.0" />
<polygon fill="rgba(255,255,255,0.75)" stroke-width="1" stroke-dasharray="" stroke="black" points="40.0,30.0 830.0,30.0 830.0,210.0 40.0,210.0" />
<polygon fill="rgba(224,255,224,0.25)" stroke-width="1" stroke-dasharray="" stroke="none" points="830.0,30.0 838.5,38.5 838.5,218.5 830.0,210.0" />
<polygon fill="rgba(224,255,224,0.25)" stroke-width="1" stroke-dasharray="" stroke="none" points="40.0,30.0 830.0,30.0 830.0,210.0 40.0,210.0" />
<text style="" text-anchor="middle" x="435.0" y="120.0" fill="black">a-2 (used)</text>
<polygon fill="none" stroke-width="1" stroke-dasharray="2" stroke="gray" points="68.5,58.5 68.5,238.5 858.5,238.5 858.5,58.5" />
<polygon fill="none" stroke-width="1" stroke-dasharray="2" stroke="gray" points="60.0,50.0 60.0,230.0 68.5,238.5 68.5,58.5" />
<polygon fill="none" stroke-width="1" stroke-dasharray="2" stroke="gray" points="68.5,58.5 858.5,58.5 850.0,50.0 60.0,50.0" />
<polygon fill="rgba(192,192,192,0.75)" stroke-width="1" stroke-dasharray="" stroke="black" points="60.0,230.0 850.0,230.0 858.5,238.5 68.5,238.5" />
<polygon fill="rgba(255,255,255,0.75)" stroke-width="1" stroke-dasharray="" stroke="black" points="858.5,58.5 858.5,238.5 850.0,230.0 850.0,50.0" />
<polygon fill="rgba(255,255,255,0.75)" stroke-width="1" stroke-dasharray="" stroke="black" points="60.0,50.0 850.0,50.0 850.0,230.0 60.0,230.0" />
<polygon fill="rgba(224,255,224,0.25)" stroke-width="1" stroke-dasharray="" stroke="none" points="850.0,50.0 858.5,58.5 858.5,238.5 850.0,230.0" />
<polygon fill="rgba(224,255,224,0.25)" stroke-width="1" stroke-dasharray="" stroke="none" points="60.0,50.0 850.0,50.0 850.0,230.0 60.0,230.0" />
<text style="" text-anchor="middle" x="455.0" y="140.0" fill="black">a-3 (used)</text>
<polyline fill="none" stroke-width="1" stroke-dasharray="2" stroke="silver" points="810.0,10.0 810.0,0.0" />
<polyline fill="none" stroke-width="1" stroke-dasharray="2" stroke="silver" points="20.0,10.0 20.0,0.0" />
<polyline fill="none" stroke-width="1" stroke-dasharray="2" stroke="gray" points="20.0,0.0 810.0,0.0" />
<polyline fill="none" stroke-width="1" stroke-dasharray="" stroke="gray" points="-4.0,-2.0 0.0,0.0 -4.0,2.0" transform="translate(809.0, 0.0) rotate(0.0)" />
<polyline fill="none" stroke-width="1" stroke-dasharray="" stroke="gray" points="-4.0,-2.0 0.0,0.0 -4.0,2.0" transform="translate(21.0, -1.2246467991473532e-16) rotate(180.0)" />
<rect x="400.0" y="-5.0" width="30" height="10" style="fill: rgba(255,255,255,0.75); stroke: none; stroke-width: 1;" />
<text style="font-size:12px" text-anchor="middle" x="415.0" y="3.0" fill="black">790</text>
<polyline fill="none" stroke-width="1" stroke-dasharray="2" stroke="silver" points="20.0,190.0 10.0,190.0" />
<polyline fill="none" stroke-width="1" stroke-dasharray="2" stroke="silver" points="20.0,10.0 10.0,10.0" />
<polyline fill="none" stroke-width="1" stroke-dasharray="2" stroke="gray" points="10.0,10.0 10.0,190.0" />
<polyline fill="none" stroke-width="1" stroke-dasharray="" stroke="gray" points="-4.0,-2.0 0.0,0.0 -4.0,2.0" transform="translate(10.0, 189.0) rotate(90.0)" />
<polyline fill="none" stroke-width="1" stroke-dasharray="" stroke="gray" points="-4.0,-2.0 0.0,0.0 -4.0,2.0" transform="translate(10.0, 11.0) rotate(-90.0)" />
<rect x="5.0" y="85.0" width="10" height="30" style="fill: rgba(255,255,255,0.75); stroke: none; stroke-width: 1;" />
<text style="font-size:12px" text-anchor="middle" x="0" y="0" fill="black" transform="translate(13.0 100.0) rotate(-90)">180</text>
<polyline fill="none" stroke-width="1" stroke-dasharray="2" stroke="silver" points="818.5,18.5 828.5,8.5" />
<polyline fill="none" stroke-width="1" stroke-dasharray="2" stroke="silver" points="810.0,10.0 820.0,0.0" />
<polyline fill="none" stroke-width="1" stroke-dasharray="2" stroke="gray" points="820.0,0.0 828.5,8.5" />
<polyline fill="none" stroke-width="1" stroke-dasharray="" stroke="gray" points="-4.0,-2.0 0.0,0.0 -4.0,2.0" transform="translate(827.778174593052, 7.77817459305202) rotate(45.00000000000015)" />
<polyline fill="none" stroke-width="1" stroke-dasharray="" stroke="gray" points="-4.0,-2.0 0.0,0.0 -4.0,2.0" transform="translate(820.7071067811866, 0.7071067811865495) rotate(-134.99999999999986)" />
<rect x="811.7426406871193" y="-0.7573593128807152" width="25" height="10" style="fill: rgba(255,255,255,0.75); stroke: none; stroke-width: 1;" />
<text style="font-size:12px" text-anchor="middle" x="824.2426406871193" y="7.242640687119285" fill="black">12</text>
<polygon fill="none" stroke-width="1" stroke-dasharray="2" stroke="gray" points="30.6,280.6 30.6,415.6 770.6,415.6 770.6,280.6" />
<polygon fill="none" stroke-width="1" stroke-dasharray="2" stroke="gray" points="20.0,270.0 20.0,405.0 30.6,415.6 30.6,280.6" />
<polygon fill="none" stroke-width="1" stroke-dasharray="2" stroke="gray" points="30.6,280.6 770.6,280.6 760.0,270.0 20.0,270.0" />
<polygon fill="rgba(192,192,192,0.75)" stroke-width="1" stroke-dasharray="" stroke="black" points="20.0,405.0 760.0,405.0 770.6,415.6 30.6,415.6" />
<polygon fill="rgba(255,255,255,0.75)" stroke-width="1" stroke-dasharray="" stroke="black" points="770.6,280.6 770.6,415.6 760.0,405.0 760.0,270.0" />
<polygon fill="rgba(255,255,255,0.75)" stroke-width="1" stroke-dasharray="" stroke="black" points="20.0,270.0 760.0,270.0 760.0,405.0 20.0,405.0" />
<polygon fill="rgba(224,255,224,0.25)" stroke-width="1" stroke-dasharray="" stroke="none" points="760.0,270.0 770.6,280.6 770.6,415.6 760.0,405.0" />
<polygon fill="rgba(224,255,224,0.25)" stroke-width="1" stroke-dasharray="" stroke="none" points="20.0,270.0 760.0,270.0 760.0,405.0 20.0,405.0" />
<text style="" text-anchor="middle" x="390.0" y="337.5" fill="black">b-1 (used)</text>
<polygon fill="none" stroke-width="1" stroke-dasharray="2" stroke="gray" points="50.6,300.6 50.6,435.6 790.6,435.6 790.6,300.6" />
<polygon fill="none" stroke-width="1" stroke-dasharray="2" stroke="gray" points="40.0,290.0 40.0,425.0 50.6,435.6 50.6,300.6" />
<polygon fill="none" stroke-width="1" stroke-dasharray="2" stroke="gray" points="50.6,300.6 790.6,300.6 780.0,290.0 40.0,290.0" />
<polygon fill="rgba(192,192,192,0.75)" stroke-width="1" stroke-dasharray="" stroke="black" points="40.0,425.0 780.0,425.0 790.6,435.6 50.6,435.6" />
<polygon fill="rgba(255,255,255,0.75)" stroke-width="1" stroke-dasharray="" stroke="black" points="790.6,300.6 790.6,435.6 780.0,425.0 780.0,290.0" />
<polygon fill="rgba(255,255,255,0.75)" stroke-width="1" stroke-dasharray="" stroke="black" points="40.0,290.0 780.0,290.0 780.0,425.0 40.0,425.0" />
<polygon fill="rgba(224,255,224,0.25)" stroke-width="1" stroke-dasharray="" stroke="none" points="780.0,290.0 790.6,300.6 790.6,435.6 780.0,425.0" />
<polygon fill="rgba(224,255,224,0.25)" stroke-width="1" stroke-dasharray="" stroke="none" points="40.0,290.0 780.0,290.0 780.0,425.0 40.0,425.0" />
<text style="" text-anchor="middle" x="410.0" y="357.5" fill="black">b-2 (used)</text>
<polygon fill="none" stroke-width="1" stroke-dasharray="2" stroke="gray" points="70.6,320.6 70.6,455.6 810.6,455.6 810.6,320.6" />
<polygon fill="none" stroke-width="1" stroke-dasharray="2" stroke="gray" points="60.0,310.0 60.0,445.0 70.6,455.6 70.6,320.6" />
<polygon fill="none" stroke-width="1" stroke-dasharray="2" stroke="gray" points="70.6,320.6 810.6,320.6 800.0,310.0 60.0,310.0" />
<polygon fill="rgba(192,192,192,0.75)" stroke-width="1" stroke-dasharray="" stroke="black" points="60.0,445.0 800.0,445.0 810.6,455.6 70.6,455.6" />
<polygon fill="rgba(255,255,255,0.75)" stroke-width="1" stroke-dasharray="" stroke="black" points="810.6,320.6 810.6,455.6 800.0,445.0 800.0,310.0" />
<polygon fill="rgba(255,255,255,0.75)" stroke-width="1" stroke-dasharray="" stroke="black" points="60.0,310.0 800.0,310.0 800.0,445.0 60.0,445.0" />
<polygon fill="rgba(224,255,224,0.25)" stroke-width="1" stroke-dasharray="" stroke="none" points="800.0,310.0 810.6,320.6 810.6,455.6 800.0,445.0" />
<polygon fill="rgba(224,255,224,0.25)" stroke-width="1" stroke-dasharray="" stroke="none" points="60.0,310.0 800.0,310.0 800.0,445.0 60.0,445.0" />
<text style="" text-anchor="middle" x="430.0" y="377.5" fill="black">b-3 (used)</text>
<polyline fill="none" stroke-width="1" stroke-dasharray="2" stroke="silver" points="760.0,270.0 760.0,260.0" />
<polyline fill="none" stroke-width="1" stroke-dasharray="2" stroke="silver" points="20.0,270.0 20.0,260.0" />
<polyline fill="none" stroke-width="1" stroke-dasharray="2" stroke="gray" points="20.0,260.0 760.0,260.0" />
<polyline fill="none" stroke-width="1" stroke-dasharray="" stroke="gray" points="-4.0,-2.0 0.0,0.0 -4.0,2.0" transform="translate(759.0, 260.0) rotate(0.0)" />
<polyline fill="none" stroke-width="1" stroke-dasharray="" stroke="gray" points="-4.0,-2.0 0.0,0.0 -4.0,2.0" transform="translate(21.0, 260.0) rotate(180.0)" />
<rect x="375.0" y="255.0" width="30" height="10" style="fill: rgba(255,255,255,0.75); stroke: none; stroke-width: 1;" />
<text style="font-size:12px" text-anchor="middle" x="390.0" y="263.0" fill="black">740</text>
<polyline fill="none" stroke-width="1" stroke-dasharray="2" stroke="silver" points="20.0,405.0 10.0,405.0" />
<polyline fill="none" stroke-width="1" stroke-dasharray="2" stroke="silver" points="20.0,270.0 10.0,270.0" />
<polyline fill="none" stroke-width="1" stroke-dasharray="2" stroke="gray" points="10.0,270.0 10.0,405.0" />
<polyline fill="none" stroke-width="1" stroke-dasharray="" stroke="gray" points="-4.0,-2.0 0.0,0.0 -4.0,2.0" transform="translate(10.0, 404.0) rotate(90.0)" />
<polyline fill="none" stroke-width="1" stroke-dasharray="" stroke="gray" points="-4.0,-2.0 0.0,0.0 -4.0,2.0" transform="translate(10.0, 271.0) rotate(-90.0)" />
<rect x="5.0" y="322.5" width="10" height="30" style="fill: rgba(255,255,255,0.75); stroke: none; stroke-width: 1;" />
<text style="font-size:12px" text-anchor="middle" x="0" y="0" fill="black" transform="translate(13.0 337.5) rotate(-90)">135</text>
<polyline fill="none" stroke-width="1" stroke-dasharray="2" stroke="silver" points="770.6,280.6 780.6,270.6" />
<polyline fill="none" stroke-width="1" stroke-dasharray="2" stroke="silver" points="760.0,270.0 770.0,260.0" />
<polyline fill="none" stroke-width="1" stroke-dasharray="2" stroke="gray" points="770.0,260.0 780.6,270.6" />
<polyline fill="none" stroke-width="1" stroke-dasharray="" stroke="gray" points="-4.0,-2.0 0.0,0.0 -4.0,2.0" transform="translate(779.8994949366116, 269.89949493661163) rotate(45.0)" />
<polyline fill="none" stroke-width="1" stroke-dasharray="" stroke="gray" points="-4.0,-2.0 0.0,0.0 -4.0,2.0" transform="translate(770.7071067811866, 260.70710678118655) rotate(-135.0)" />
<rect x="762.8033008588991" y="260.3033008588991" width="25" height="10" style="fill: rgba(255,255,255,0.75); stroke: none; stroke-width: 1;" />
<text style="font-size:12px" text-anchor="middle" x="775.3033008588991" y="268.3033008588991" fill="black">15</text>
<polygon fill="none" stroke-width="1" stroke-dasharray="2" stroke="gray" points="22.1,487.1 22.1,807.1 442.1,807.1 442.1,487.1" />
<polygon fill="none" stroke-width="1" stroke-dasharray="2" stroke="gray" points="20.0,485.0 20.0,805.0 22.1,807.1 22.1,487.1" />
<polygon fill="none" stroke-width="1" stroke-dasharray="2" stroke="gray" points="22.1,487.1 442.1,487.1 440.0,485.0 20.0,485.0" />
<polygon fill="rgba(192,192,192,0.75)" stroke-width="1" stroke-dasharray="" stroke="black" points="20.0,805.0 440.0,805.0 442.1,807.1 22.1,807.1" />
<polygon fill="rgba(255,255,255,0.75)" stroke-width="1" stroke-dasharray="" stroke="black" points="442.1,487.1 442.1,807.1 440.0,805.0 440.0,485.0" />
<polygon fill="rgba(255,255,255,0.75)" stroke-width="1" stroke-dasharray="" stroke="black" points="20.0,485.0 440.0,485.0 440.0,805.0 20.0,805.0" />
<polygon fill="rgba(224,255,224,0.25)" stroke-width="1" stroke-dasharray="" stroke="none" points="440.0,485.0 442.1,487.1 442.1,807.1 440.0,805.0" />
<polygon fill="rgba(224,255,224,0.25)" stroke-width="1" stroke-dasharray="" stroke="none" points="20.0,485.0 440.0,485.0 440.0,805.0 20.0,805.0" />
<text style="" text-anchor="middle" x="230.0" y="645.0" fill="black">ply-1 (used)</text>
<polyline fill="none" stroke-width="1" stroke-dasharray="2" stroke="silver" points="440.0,485.0 440.0,475.0" />
<polyline fill="none" stroke-width="1" stroke-dasharray="2" stroke="silver" points="20.0,485.0 20.0,475.0" />
<polyline fill="none" stroke-width="1" stroke-dasharray="2" stroke="gray" points="20.0,475.0 440.0,475.0" />
<polyline fill="none" stroke-width="1" stroke-dasharray="" stroke="gray" points="-4.0,-2.0 0.0,0.0 -4.0,2.0" transform="translate(439.0, 475.0) rotate(0.0)" />
<polyline fill="none" stroke-width="1" stroke-dasharray="" stroke="gray" points="-4.0,-2.0 0.0,0.0 -4.0,2.0" transform="translate(21.0, 475.0) rotate(180.0)" />
<rect x="215.0" y="470.0" width="30" height="10" style="fill: rgba(255,255,255,0.75); stroke: none; stroke-width: 1;" />
<text style="font-size:12px" text-anchor="middle" x="230.0" y="478.0" fill="black">420</text>
<polyline fill="none" stroke-width="1" stroke-dasharray="2" stroke="silver" points="20.0,805.0 10.0,805.0" />
<polyline fill="none" stroke-width="1" stroke-dasharray="2" stroke="silver" points="20.0,485.0 10.0,485.0" />
<polyline fill="none" stroke-width="1" stroke-dasharray="2" stroke="gray" points="10.0,485.0 10.0,805.0" />
<polyline fill="none" stroke-width="1" stroke-dasharray="" stroke="gray" points="-4.0,-2.0 0.0,0.0 -4.0,2.0" transform="translate(10.0, 804.0) rotate(90.0)" />
<polyline fill="none" stroke-width="1" stroke-dasharray="" stroke="gray" points="-4.0,-2.0 0.0,0.0 -4.0,2.0" transform="translate(10.0, 486.0) rotate(-90.0)" />
<rect x="5.0" y="630.0" width="10" height="30" style="fill: rgba(255,255,255,0.75); stroke: none; stroke-width: 1;" />
<text style="font-size:12px" text-anchor="middle" x="0" y="0" fill="black" transform="translate(13.0 645.0) rotate(-90)">320</text>
<polyline fill="none" stroke-width="1" stroke-dasharray="2" stroke="silver" points="442.1,487.1 452.1,477.1" />
<polyline fill="none" stroke-width="1" stroke-dasharray="2" stroke="silver" points="440.0,485.0 450.0,475.0" />
<polyline fill="none" stroke-width="1" stroke-dasharray="2" stroke="gray" points="450.0,475.0 452.1,477.1" />
<polyline fill="none" stroke-width="1" stroke-dasharray="" stroke="gray" points="-4.0,-2.0 0.0,0.0 -4.0,2.0" transform="translate(451.4142135623731, 476.4142135623731) rotate(45.0)" />
<polyline fill="none" stroke-width="1" stroke-dasharray="" stroke="gray" points="-4.0,-2.0 0.0,0.0 -4.0,2.0" transform="translate(450.70710678118655, 475.70710678118655) rotate(-135.0)" />
<rect x="441.06066017177983" y="471.06066017177983" width="20" height="10" style="fill: rgba(255,255,255,0.75); stroke: none; stroke-width: 1;" />
<text style="font-size:12px" text-anchor="middle" x="451.06066017177983" y="479.06066017177983" fill="black">3</text>
<polygon fill="none" stroke-width="1" stroke-dasharray="2" stroke="gray" points="30.6,855.6 30.6,870.6 430.6,870.6 430.6,855.6" />
<polygon fill="none" stroke-width="1" stroke-dasharray="2" stroke="gray" points="20.0,845.0 20.0,860.0 30.6,870.6 30.6,855.6" />
<polygon fill="none" stroke-width="1" stroke-dasharray="2" stroke="gray" points="30.6,855.6 430.6,855.6 420.0,845.0 20.0,845.0" />
<polygon fill="rgba(192,192,192,0.75)" stroke-width="1" stroke-dasharray="" stroke="black" points="20.0,860.0 420.0,860.0 430.6,870.6 30.6,870.6" />
<polygon fill="rgba(255,255,255,0.75)" stroke-width="1" stroke-dasharray="" stroke="black" points="430.6,855.6 430.6,870.6 420.0,860.0 420.0,845.0" />
<polygon fill="rgba(255,255,255,0.75)" stroke-width="1" stroke-dasharray="" stroke="black" points="20.0,845.0 420.0,845.0 420.0,860.0 20.0,860.0" />
<polygon fill="rgba(224,255,224,0.25)" stroke-width="1" stroke-dasharray="" stroke="none" points="420.0,845.0 430.6,855.6 430.6,870.6 420.0,860.0" />
<polygon fill="rgba(224,255,224,0.25)" stroke-width="1" stroke-dasharray="" stroke="none" points="20.0,845.0 420.0,845.0 420.0,860.0 20.0,860.0" />
<text style="" text-anchor="middle" x="220.0" y="852.5" fill="black">stick-1 (used)</text>
<polyline fill="none" stroke-width="1" stroke-dasharray="2" stroke="silver" points="420.0,845.0 420.0,835.0" />
<polyline fill="none" stroke-width="1" stroke-dasharray="2" stroke="silver" points="20.0,845.0 20.0,835.0" />
<polyline fill="none" stroke-width="1" stroke-dasharray="2" stroke="gray" points="20.0,835.0 420.0,835.0" />
<polyline fill="none" stroke-width="1" stroke-dasharray="" stroke="gray" points="-4.0,-2.0 0.0,0.0 -4.0,2.0" transform="translate(419.0, 835.0) rotate(0.0)" />
<polyline fill="none" stroke-width="1" stroke-dasharray="" stroke="gray" points="-4.0,-2.0 0.0,0.0 -4.0,2.0" transform="translate(21.0, 835.0) rotate(180.0)" />
<rect x="205.0" y="830.0" width="30" height="10" style="fill: rgba(255,255,255,0.75); stroke: none; stroke-width: 1;" />
<text style="font-size:12px" text-anchor="middle" x="220.0" y="838.0" fill="black">400</text>
<polyline fill="none" stroke-width="1" stroke-dasharray="2" stroke="silver" points="20.0,860.0 10.0,860.0" />
<polyline fill="none" stroke-width="1" stroke-dasharray="2" stroke="silver" points="20.0,845.0 10.0,845.0" />
<polyline fill="none" stroke-width="1" stroke-dasharray="2" stroke="gray" points="10.0,845.0 10.0,860.0" />
<polyline fill="none" stroke-width="1" stroke-dasharray="" stroke="gray" points="-4.0,-2.0 0.0,0.0 -4.0,2.0" transform="translate(10.0, 859.0) rotate(90.0)" />
<polyline fill="none" stroke-width="1" stroke-dasharray="" stroke="gray" points="-4.0,-2.0 0.0,0.0 -4.0,2.0" transform="translate(10.0, 846.0) rotate(-90.0)" />
<rect x="5.0" y="840.0" width="10" height="25" style="fill: rgba(255,255,255,0.75); stroke: none; stroke-width: 1;" />
<text style="font-size:12px" text-anchor="middle" x="0" y="0" fill="black" transform="translate(13.0 852.5) rotate(-90)">15</text>
<polyline fill="none" stroke-width="1" stroke-dasharray="2" stroke="silver" points="430.6,855.6 440.6,845.6" />
<polyline fill="none" stroke-width="1" stroke-dasharray="2" stroke="silver" points="420.0,845.0 430.0,835.0" />
<polyline fill="none" stroke-width="1" stroke-dasharray="2" stroke="gray" points="430.0,835.0 440.6,845.6" />
<polyline fill="none" stroke-width="1" stroke-dasharray="" stroke="gray" points="-4.0,-2.0 0.0,0.0 -4.0,2.0" transform="translate(439.89949493661163, 844.8994949366116) rotate(45.0)" />
<polyline fill="none" stroke-width="1" stroke-dasharray="" stroke="gray" points="-4.0,-2.0 0.0,0.0 -4.0,2.0" transform="translate(430.70710678118655, 835.7071067811866) rotate(-135.0)" />
<rect x="422.8033008588991" y="835.3033008588991" width="25" height="10" style="fill: rgba(255,255,255,0.75); stroke: none; stroke-width: 1;" />
<text style="font-size:12px" text-anchor="middle" x="435.3033008588991" y="843.3033008588991" fill="black">15</text>
</svg>
