<svg width="1100" viewBox="0.0 0.0 550.0 1016.5" xmlns="http://www.w3.org/2000/svg">
<polygon fill="none" stroke-width="1" stroke-dasharray="2" stroke="gray" points="430.5,118.5 430.5,105.0 442.5,108.1 442.5,85.7 430.5,88.8 430.5,60.2 442.5,63.3 442.5,63.3 442.5,40.9 442.5,40.9 430.5,44.0 430.5,18.5 30.5,18.5 30.5,44.0 18.5,40.9 18.5,40.9 18.5,63.3 18.5,63.3 30.5,60.2 30.5,88.8 18.5,85.7 18.5,108.1 30.5,105.0 30.5,118.5 30.5,118.5 430.5,118.5" />
<polygon fill="rgba(192,192,192,0.75)" stroke-width="1" stroke-dasharray="" stroke="black" points="426.9,114.9 430.5,118.5 30.5,118.5 27.0,114.9 27.0,114.9 426.9,114.9" />
<polygon fill="none" stroke-width="1" stroke-dasharray="2" stroke="gray" points="426.9,119.9 27.0,119.9 27.0,119.9 30.5,123.5 430.5,123.5 426.9,119.9" />
<polygon fill="none" stroke-width="1" stroke-dasharray="2" stroke="gray" points="10.0,32.4 10.0,54.8 18.5,63.3 18.5,40.9 10.0,32.4" />
<polygon fill="none" stroke-width="1" stroke-dasharray="2" stroke="gray" points="10.0,77.2 10.0,99.6 18.5,108.1 18.5,85.7 10.0,77.2" />
<polygon fill="none" stroke-width="1" stroke-dasharray="2" stroke="gray" points="18.5,40.9 30.5,44.0 22.0,35.5 10.0,32.4" />
<polygon fill="rgba(255,255,255,0.75)" stroke-width="1" stroke-dasharray="" stroke="black" points="10.0,54.8 22.0,51.7 30.5,60.2 18.5,63.3" />
<polygon fill="none" stroke-width="1" stroke-dasharray="2" stroke="gray" points="18.5,85.7 30.5,88.8 22.0,80.3 10.0,77.2" />
<polygon fill="rgba(255,255,255,0.75)" stroke-width="1" stroke-dasharray="" stroke="black" points="10.0,99.6 22.0,96.5 30.5,105.0 18.5,108.1" />
<polygon fill="none" stroke-width="1" stroke-dasharray="2" stroke="gray" points="22.0,35.5 30.5,44.0 30.5,18.5 22.0,10.0 22.0,35.5" />
<polygon fill="none" stroke-width="1" stroke-dasharray="2" stroke="gray" points="22.0,51.7 22.0,80.3 30.5,88.8 30.5,60.2 22.0,51.7" />
<polygon fill="none" stroke-width="1" stroke-dasharray="2" stroke="gray" points="22.0,96.5 22.0,122.0 30.5,130.5 30.5,123.5 26.9,119.9 26.9,114.9 30.5,118.5 30.5,105.0 22.0,96.5" />
<polygon fill="none" stroke-width="1" stroke-dasharray="2" stroke="gray" points="422.0,10.0 22.0,10.0 22.0,10.0 30.5,18.5 430.5,18.5 422.0,10.0" />
<polygon fill="rgba(192,192,192,0.75)" stroke-width="1" stroke-dasharray="" stroke="black" points="422.0,122.0 430.5,130.5 30.5,130.5 22.0,122.0 22.0,122.0 422.0,122.0" />
<polygon fill="rgba(255,255,255,0.75)" stroke-width="1" stroke-dasharray="" stroke="black" points="430.5,44.0 422.0,35.5 422.0,10.0 430.5,18.5 430.5,44.0" />
<polygon fill="rgba(255,255,255,0.75)" stroke-width="1" stroke-dasharray="" stroke="black" points="430.5,60.2 430.5,88.8 422.0,80.3 422.0,51.7 430.5,60.2" />
<polygon fill="rgba(255,255,255,0.75)" stroke-width="1" stroke-dasharray="" stroke="black" points="430.5,105.0 430.5,118.5 426.9,114.9 426.9,119.9 430.5,123.5 430.5,130.5 422.0,122.0 422.0,96.5 430.5,105.0" />
<polygon fill="none" stroke-width="1" stroke-dasharray="2" stroke="gray" points="434.0,32.4 422.0,35.5 430.5,44.0 442.5,40.9" />
<polygon fill="rgba(192,192,192,0.75)" stroke-width="1" stroke-dasharray="" stroke="silver" points="442.5,63.3 430.5,60.2 422.0,51.7 434.0,54.8" />
<polygon fill="none" stroke-width="1" stroke-dasharray="2" stroke="gray" points="434.0,77.2 422.0,80.3 430.5,88.8 442.5,85.7" />
<polygon fill="rgba(192,192,192,0.75)" stroke-width="1" stroke-dasharray="" stroke="silver" points="442.5,108.1 430.5,105.0 422.0,96.5 434.0,99.6" />
<polygon fill="rgba(255,255,255,0.75)" stroke-width="1" stroke-dasharray="" stroke="black" points="442.5,40.9 442.5,63.3 434.0,54.8 434.0,32.4 442.5,40.9" />
<polygon fill="rgba(255,255,255,0.75)" stroke-width="1" stroke-dasharray="" stroke="black" points="442.5,85.7 442.5,108.1 434.0,99.6 434.0,77.2 442.5,85.7" />
<polygon fill="rgba(255,255,255,0.75)" stroke-width="1" stroke-dasharray="" stroke="black" points="434.0,99.6 422.0,96.5 422.0,122.0 22.0,122.0 22.0,96.5 10.0,99.6 10.0,99.6 10.0,77.2 10.0,77.2 22.0,80.3 22.0,51.7 10.0,54.8 10.0,32.4 22.0,35.5 22.0,10.0 22.0,10.0 422.0,10.0 422.0,10.0 422.0,35.5 434.0,32.4 434.0,54.8 422.0,51.7 422.0,80.3 434.0,77.2 434.0,77.2 434.0,99.6" />
<text style="" text-anchor="middle" x="222.0" y="66.0" fill="black">base front</text>
<polygon fill="none" stroke-width="1" stroke-dasharray="2" stroke="gray" points="242.5,229.3 242.5,200.7 242.5,200.7 230.5,200.7 230.5,184.5 242.5,184.5 242.5,159.0 18.5,159.0 18.5,184.5 18.5,184.5 30.5,184.5 30.5,200.7 18.5,200.7 18.5,229.3 30.5,229.3 30.5,245.5 18.5,245.5 18.5,245.5 18.5,259.0 242.5,259.0 242.5,245.5 230.5,245.5 230.5,229.3 242.5,229.3" />
<polygon fill="rgba(192,192,192,0.75)" stroke-width="1" stroke-dasharray="" stroke="black" points="14.9,255.4 238.9,255.4 242.5,259.0 18.5,259.0" />
<polygon fill="none" stroke-width="1" stroke-dasharray="2" stroke="gray" points="18.5,264.0 242.5,264.0 238.9,260.4 14.9,260.4" />
<polygon fill="none" stroke-width="1" stroke-dasharray="2" stroke="gray" points="10.0,172.9 18.5,184.5 18.5,159.0 10.0,150.5 10.0,172.9" />
<polygon fill="none" stroke-width="1" stroke-dasharray="2" stroke="gray" points="10.0,195.3 10.0,217.7 18.5,229.3 18.5,200.7 10.0,195.3" />
<polygon fill="none" stroke-width="1" stroke-dasharray="2" stroke="gray" points="10.0,240.1 10.0,262.5 18.5,271.0 18.5,264.0 14.9,260.4 14.9,255.4 18.5,259.0 18.5,245.5 10.0,240.1" />
<polygon fill="rgba(255,255,255,0.75)" stroke-width="1" stroke-dasharray="" stroke="black" points="10.0,172.9 22.0,172.9 30.5,184.5 18.5,184.5" />
<polygon fill="none" stroke-width="1" stroke-dasharray="2" stroke="gray" points="18.5,200.7 30.5,200.7 22.0,195.3 10.0,195.3" />
<polygon fill="rgba(255,255,255,0.75)" stroke-width="1" stroke-dasharray="" stroke="black" points="10.0,217.7 22.0,217.7 30.5,229.3 18.5,229.3" />
<polygon fill="none" stroke-width="1" stroke-dasharray="2" stroke="gray" points="18.5,245.5 30.5,245.5 22.0,240.1 10.0,240.1" />
<polygon fill="none" stroke-width="1" stroke-dasharray="2" stroke="gray" points="22.0,172.9 22.0,195.3 30.5,200.7 30.5,184.5 22.0,172.9" />
<polygon fill="none" stroke-width="1" stroke-dasharray="2" stroke="gray" points="22.0,217.7 22.0,240.1 30.5,245.5 30.5,229.3 22.0,217.7" />
<polygon fill="none" stroke-width="1" stroke-dasharray="2" stroke="gray" points="18.5,159.0 242.5,159.0 234.0,150.5 10.0,150.5" />
<polygon fill="rgba(192,192,192,0.75)" stroke-width="1" stroke-dasharray="" stroke="black" points="10.0,262.5 234.0,262.5 242.5,271.0 18.5,271.0" />
<polygon fill="rgba(255,255,255,0.75)" stroke-width="1" stroke-dasharray="" stroke="black" points="230.5,184.5 230.5,200.7 222.0,195.3 222.0,172.9 230.5,184.5" />
<polygon fill="rgba(255,255,255,0.75)" stroke-width="1" stroke-dasharray="" stroke="black" points="230.5,229.3 230.5,245.5 222.0,240.1 222.0,217.7 230.5,229.3" />
<polygon fill="rgba(255,255,255,0.75)" stroke-width="1" stroke-dasharray="" stroke="black" points="242.5,184.5 230.5,184.5 222.0,172.9 234.0,172.9" />
<polygon fill="none" stroke-width="1" stroke-dasharray="2" stroke="gray" points="234.0,195.3 222.0,195.3 230.5,200.7 242.5,200.7" />
<polygon fill="rgba(255,255,255,0.75)" stroke-width="1" stroke-dasharray="" stroke="black" points="242.5,229.3 230.5,229.3 222.0,217.7 234.0,217.7" />
<polygon fill="none" stroke-width="1" stroke-dasharray="2" stroke="gray" points="234.0,240.1 222.0,240.1 230.5,245.5 242.5,245.5" />
<polygon fill="rgba(255,255,255,0.75)" stroke-width="1" stroke-dasharray="" stroke="black" points="242.5,184.5 234.0,172.9 234.0,150.5 242.5,159.0 242.5,184.5" />
<polygon fill="rgba(255,255,255,0.75)" stroke-width="1" stroke-dasharray="" stroke="black" points="242.5,200.7 242.5,229.3 234.0,217.7 234.0,195.3 242.5,200.7" />
<polygon fill="rgba(255,255,255,0.75)" stroke-width="1" stroke-dasharray="" stroke="black" points="242.5,245.5 242.5,259.0 238.9,255.4 238.9,260.4 242.5,264.0 242.5,271.0 234.0,262.5 234.0,240.1 242.5,245.5" />
<polygon fill="rgba(255,255,255,0.75)" stroke-width="1" stroke-dasharray="" stroke="black" points="234.0,240.1 234.0,262.5 10.0,262.5 10.0,240.1 22.0,240.1 22.0,217.7 10.0,217.7 10.0,217.7 10.0,195.3 10.0,195.3 22.0,195.3 22.0,172.9 10.0,172.9 10.0,150.5 234.0,150.5 234.0,172.9 234.0,172.9 222.0,172.9 222.0,195.3 234.0,195.3 234.0,217.7 222.0,217.7 222.0,240.1 234.0,240.1" />
<text style="" text-anchor="middle" x="122.0" y="206.48528137423858" fill="black">base left</text>
<polygon fill="none" stroke-width="1" stroke-dasharray="2" stroke="gray" points="430.5,399.5 430.5,385.9 442.5,389.0 442.5,366.7 430.5,369.8 430.5,341.1 442.5,344.2 442.5,344.2 442.5,321.9 442.5,321.9 430.5,325.0 430.5,299.5 30.5,299.5 30.5,325.0 18.5,321.9 18.5,321.9 18.5,344.2 18.5,344.2 30.5,341.1 30.5,369.8 18.5,366.7 18.5,389.0 30.5,385.9 30.5,399.5 30.5,399.5 430.5,399.5" />
<polygon fill="rgba(192,192,192,0.75)" stroke-width="1" stroke-dasharray="" stroke="black" points="426.9,395.9 430.5,399.5 30.5,399.5 27.0,395.9 27.0,395.9 426.9,395.9" />
<polygon fill="none" stroke-width="1" stroke-dasharray="2" stroke="gray" points="426.9,400.9 27.0,400.9 27.0,400.9 30.5,404.5 430.5,404.5 426.9,400.9" />
<polygon fill="none" stroke-width="1" stroke-dasharray="2" stroke="gray" points="10.0,313.4 10.0,335.8 18.5,344.3 18.5,321.8 10.0,313.4" />
<polygon fill="none" stroke-width="1" stroke-dasharray="2" stroke="gray" points="10.0,358.2 10.0,380.6 18.5,389.1 18.5,366.6 10.0,358.2" />
<polygon fill="none" stroke-width="1" stroke-dasharray="2" stroke="gray" points="18.5,321.9 30.5,325.0 22.0,316.5 10.0,313.4" />
<polygon fill="rgba(255,255,255,0.75)" stroke-width="1" stroke-dasharray="" stroke="black" points="10.0,335.8 22.0,332.7 30.5,341.2 18.5,344.3" />
<polygon fill="none" stroke-width="1" stroke-dasharray="2" stroke="gray" points="18.5,366.7 30.5,369.8 22.0,361.3 10.0,358.2" />
<polygon fill="rgba(255,255,255,0.75)" stroke-width="1" stroke-dasharray="" stroke="black" points="10.0,380.6 22.0,377.5 30.5,386.0 18.5,389.1" />
<polygon fill="none" stroke-width="1" stroke-dasharray="2" stroke="gray" points="22.0,316.5 30.5,325.0 30.5,299.5 22.0,291.0 22.0,316.5" />
<polygon fill="none" stroke-width="1" stroke-dasharray="2" stroke="gray" points="22.0,332.7 22.0,361.3 30.5,369.8 30.5,341.1 22.0,332.7" />
<polygon fill="none" stroke-width="1" stroke-dasharray="2" stroke="gray" points="22.0,377.5 22.0,403.0 30.5,411.5 30.5,404.5 26.9,400.9 26.9,395.9 30.5,399.5 30.5,385.9 22.0,377.5" />
<polygon fill="none" stroke-width="1" stroke-dasharray="2" stroke="gray" points="422.0,291.0 22.0,291.0 22.0,291.0 30.5,299.5 430.5,299.5 422.0,291.0" />
<polygon fill="rgba(192,192,192,0.75)" stroke-width="1" stroke-dasharray="" stroke="black" points="422.0,403.0 430.5,411.5 30.5,411.5 22.0,403.0 22.0,403.0 422.0,403.0" />
<polygon fill="rgba(255,255,255,0.75)" stroke-width="1" stroke-dasharray="" stroke="black" points="430.5,325.0 422.0,316.5 422.0,291.0 430.5,299.5 430.5,325.0" />
<polygon fill="rgba(255,255,255,0.75)" stroke-width="1" stroke-dasharray="" stroke="black" points="430.5,341.1 430.5,369.8 422.0,361.3 422.0,332.7 430.5,341.1" />
<polygon fill="rgba(255,255,255,0.75)" stroke-width="1" stroke-dasharray="" stroke="black" points="430.5,385.9 430.5,399.5 426.9,395.9 426.9,400.9 430.5,404.5 430.5,411.5 422.0,403.0 422.0,377.5 430.5,385.9" />
<polygon fill="none" stroke-width="1" stroke-dasharray="2" stroke="gray" points="434.0,313.4 422.0,316.5 430.5,325.0 442.5,321.9" />
<polygon fill="rgba(192,192,192,0.75)" stroke-width="1" stroke-dasharray="" stroke="silver" points="442.5,344.3 430.5,341.2 422.0,332.7 434.0,335.8" />
<polygon fill="none" stroke-width="1" stroke-dasharray="2" stroke="gray" points="434.0,358.2 422.0,361.3 430.5,369.8 442.5,366.7" />
<polygon fill="rgba(192,192,192,0.75)" stroke-width="1" stroke-dasharray="" stroke="silver" points="442.5,389.1 430.5,386.0 422.0,377.5 434.0,380.6" />
<polygon fill="rgba(255,255,255,0.75)" stroke-width="1" stroke-dasharray="" stroke="black" points="442.5,321.8 442.5,344.3 434.0,335.8 434.0,313.4 442.5,321.8" />
<polygon fill="rgba(255,255,255,0.75)" stroke-width="1" stroke-dasharray="" stroke="black" points="442.5,366.6 442.5,389.1 434.0,380.6 434.0,358.2 442.5,366.6" />
<polygon fill="rgba(255,255,255,0.75)" stroke-width="1" stroke-dasharray="" stroke="black" points="434.0,380.6 422.0,377.5 422.0,403.0 22.0,403.0 22.0,377.5 10.0,380.6 10.0,380.6 10.0,358.2 10.0,358.2 22.0,361.3 22.0,332.7 10.0,335.8 10.0,313.4 22.0,316.5 22.0,291.0 22.0,291.0 422.0,291.0 422.0,291.0 422.0,316.5 434.0,313.4 434.0,335.8 422.0,332.7 422.0,361.3 434.0,358.2 434.0,358.2 434.0,380.6" />
<text style="" text-anchor="middle" x="222.0" y="346.97056274847716" fill="black">base back</text>
<polygon fill="none" stroke-width="1" stroke-dasharray="2" stroke="gray" points="242.5,510.2 242.5,481.6 242.5,481.6 230.5,481.6 230.5,465.4 242.5,465.4 242.5,439.9 18.5,439.9 18.5,465.4 18.5,465.4 30.5,465.4 30.5,481.6 18.5,481.6 18.5,510.2 30.5,510.2 30.5,526.4 18.5,526.4 18.5,526.4 18.5,539.9 242.5,539.9 242.5,526.4 230.5,526.4 230.5,510.2 242.5,510.2" />
<polygon fill="rgba(192,192,192,0.75)" stroke-width="1" stroke-dasharray="" stroke="black" points="14.9,536.4 238.9,536.4 242.5,539.9 18.5,539.9" />
<polygon fill="none" stroke-width="1" stroke-dasharray="2" stroke="gray" points="18.5,544.9 242.5,544.9 238.9,541.4 14.9,541.4" />
<polygon fill="none" stroke-width="1" stroke-dasharray="2" stroke="gray" points="10.0,453.9 18.5,465.5 18.5,439.9 10.0,431.5 10.0,453.9" />
<polygon fill="none" stroke-width="1" stroke-dasharray="2" stroke="gray" points="10.0,476.2 10.0,498.7 18.5,510.3 18.5,481.6 10.0,476.2" />
<polygon fill="none" stroke-width="1" stroke-dasharray="2" stroke="gray" points="10.0,521.0 10.0,543.5 18.5,551.9 18.5,544.9 14.9,541.4 14.9,536.4 18.5,539.9 18.5,526.4 10.0,521.0" />
<polygon fill="rgba(255,255,255,0.75)" stroke-width="1" stroke-dasharray="" stroke="black" points="10.0,453.9 22.0,453.9 30.5,465.4 18.5,465.4" />
<polygon fill="none" stroke-width="1" stroke-dasharray="2" stroke="gray" points="18.5,481.6 30.5,481.6 22.0,476.3 10.0,476.3" />
<polygon fill="rgba(255,255,255,0.75)" stroke-width="1" stroke-dasharray="" stroke="black" points="10.0,498.7 22.0,498.7 30.5,510.2 18.5,510.2" />
<polygon fill="none" stroke-width="1" stroke-dasharray="2" stroke="gray" points="18.5,526.4 30.5,526.4 22.0,521.1 10.0,521.1" />
<polygon fill="none" stroke-width="1" stroke-dasharray="2" stroke="gray" points="22.0,453.8 22.0,476.3 30.5,481.6 30.5,465.4 22.0,453.8" />
<polygon fill="none" stroke-width="1" stroke-dasharray="2" stroke="gray" points="22.0,498.6 22.0,521.1 30.5,526.4 30.5,510.2 22.0,498.6" />
<polygon fill="none" stroke-width="1" stroke-dasharray="2" stroke="gray" points="18.5,439.9 242.5,439.9 234.0,431.5 10.0,431.5" />
<polygon fill="rgba(192,192,192,0.75)" stroke-width="1" stroke-dasharray="" stroke="black" points="10.0,543.5 234.0,543.5 242.5,551.9 18.5,551.9" />
<polygon fill="rgba(255,255,255,0.75)" stroke-width="1" stroke-dasharray="" stroke="black" points="230.5,465.4 230.5,481.6 222.0,476.3 222.0,453.8 230.5,465.4" />
<polygon fill="rgba(255,255,255,0.75)" stroke-width="1" stroke-dasharray="" stroke="black" points="230.5,510.2 230.5,526.4 222.0,521.1 222.0,498.6 230.5,510.2" />
<polygon fill="rgba(255,255,255,0.75)" stroke-width="1" stroke-dasharray="" stroke="black" points="242.5,465.4 230.5,465.4 222.0,453.9 234.0,453.9" />
<polygon fill="none" stroke-width="1" stroke-dasharray="2" stroke="gray" points="234.0,476.3 222.0,476.3 230.5,481.6 242.5,481.6" />
<polygon fill="rgba(255,255,255,0.75)" stroke-width="1" stroke-dasharray="" stroke="black" points="242.5,510.2 230.5,510.2 222.0,498.7 234.0,498.7" />
<polygon fill="none" stroke-width="1" stroke-dasharray="2" stroke="gray" points="234.0,521.1 222.0,521.1 230.5,526.4 242.5,526.4" />
<polygon fill="rgba(255,255,255,0.75)" stroke-width="1" stroke-dasharray="" stroke="black" points="242.5,465.5 234.0,453.9 234.0,431.5 242.5,439.9 242.5,465.5" />
<polygon fill="rgba(255,255,255,0.75)" stroke-width="1" stroke-dasharray="" stroke="black" points="242.5,481.6 242.5,510.3 234.0,498.7 234.0,476.2 242.5,481.6" />
<polygon fill="rgba(255,255,255,0.75)" stroke-width="1" stroke-dasharray="" stroke="black" points="242.5,526.4 242.5,539.9 238.9,536.4 238.9,541.4 242.5,544.9 242.5,551.9 234.0,543.5 234.0,521.0 242.5,526.4" />
<polygon fill="rgba(255,255,255,0.75)" stroke-width="1" stroke-dasharray="" stroke="black" points="234.0,521.1 234.0,543.5 10.0,543.5 10.0,521.1 22.0,521.1 22.0,498.6 10.0,498.6 10.0,498.6 10.0,476.3 10.0,476.3 22.0,476.3 22.0,453.8 10.0,453.8 10.0,431.5 234.0,431.5 234.0,453.8 234.0,453.8 222.0,453.8 222.0,476.3 234.0,476.3 234.0,498.6 222.0,498.6 222.0,521.1 234.0,521.1" />
<text style="" text-anchor="middle" x="122.0" y="487.45584412271575" fill="black">base right</text>
<polygon fill="none" stroke-width="1" stroke-dasharray="2" stroke="gray" points="20.6,582.5 20.6,1006.5 244.6,1006.5 244.6,582.5" />
<polygon fill="none" stroke-width="1" stroke-dasharray="2" stroke="gray" points="10.0,571.9 10.0,995.9 20.6,1006.5 20.6,582.5" />
<polygon fill="none" stroke-width="1" stroke-dasharray="2" stroke="gray" points="20.6,582.5 244.6,582.5 234.0,571.9 10.0,571.9" />
<polygon fill="rgba(192,192,192,0.75)" stroke-width="1" stroke-dasharray="" stroke="black" points="10.0,995.9 234.0,995.9 244.6,1006.5 20.6,1006.5" />
<polygon fill="rgba(255,255,255,0.75)" stroke-width="1" stroke-dasharray="" stroke="black" points="244.6,582.5 244.6,1006.5 234.0,995.9 234.0,571.9" />
<polygon fill="rgba(255,255,255,0.75)" stroke-width="1" stroke-dasharray="" stroke="black" points="10.0,571.9 234.0,571.9 234.0,995.9 10.0,995.9" />
<text style="" text-anchor="middle" x="122.0" y="783.9411254969543" fill="black">base bottom</text>
</svg>
