<svg width="1100" viewBox="0.0 0.0 550.0 364.5" xmlns="http://www.w3.org/2000/svg">
<polygon fill="none" stroke-width="1" stroke-dasharray="2" stroke="gray" points="405.6,50.6 405.6,36.7 420.6,40.6 420.6,30.6 405.6,34.5 405.6,20.6 405.6,20.6 35.6,20.6 35.6,34.5 20.6,30.6 20.6,30.6 20.6,40.6 20.6,40.6 35.6,36.7 35.6,50.6 405.6,50.6" />
<polygon fill="none" stroke-width="1" stroke-dasharray="2" stroke="gray" points="10.0,20.0 10.0,30.0 20.6,40.6 20.6,30.6 10.0,20.0" />
<polygon fill="none" stroke-width="1" stroke-dasharray="2" stroke="gray" points="20.6,30.6 35.6,34.5 25.0,23.9 10.0,20.0" />
<polygon fill="rgba(255,255,255,0.75)" stroke-width="1" stroke-dasharray="" stroke="black" points="10.0,30.0 25.0,26.1 35.6,36.7 20.6,40.6" />
<polygon fill="none" stroke-width="1" stroke-dasharray="2" stroke="gray" points="25.0,23.9 35.6,34.5 35.6,20.6 25.0,10.0 25.0,23.9" />
<polygon fill="none" stroke-width="1" stroke-dasharray="2" stroke="gray" points="25.0,26.1 25.0,40.0 35.6,50.6 35.6,36.7 25.0,26.1" />
<polygon fill="none" stroke-width="1" stroke-dasharray="2" stroke="gray" points="395.0,10.0 25.0,10.0 25.0,10.0 35.6,20.6 405.6,20.6 395.0,10.0" />
<polygon fill="rgba(192,192,192,0.75)" stroke-width="1" stroke-dasharray="" stroke="black" points="395.0,40.0 405.6,50.6 35.6,50.6 25.0,40.0 25.0,40.0 395.0,40.0" />
<polygon fill="rgba(255,255,255,0.75)" stroke-width="1" stroke-dasharray="" stroke="black" points="405.6,34.5 395.0,23.9 395.0,10.0 405.6,20.6 405.6,34.5" />
<polygon fill="rgba(255,255,255,0.75)" stroke-width="1" stroke-dasharray="" stroke="black" points="405.6,36.7 405.6,50.6 395.0,40.0 395.0,26.1 405.6,36.7" />
<polygon fill="none" stroke-width="1" stroke-dasharray="2" stroke="gray" points="410.0,20.0 395.0,23.9 405.6,34.5 420.6,30.6" />
<polygon fill="rgba(192,192,192,0.75)" stroke-width="1" stroke-dasharray="" stroke="silver" points="420.6,40.6 405.6,36.7 395.0,26.1 410.0,30.0" />
<polygon fill="rgba(255,255,255,0.75)" stroke-width="1" stroke-dasharray="" stroke="black" points="420.6,30.6 420.6,40.6 410.0,30.0 410.0,20.0 420.6,30.6" />
<polygon fill="rgba(255,255,255,0.75)" stroke-width="1" stroke-dasharray="" stroke="black" points="410.0,30.0 395.0,26.1 395.0,40.0 25.0,40.0 25.0,40.0 25.0,26.1 10.0,30.0 10.0,20.0 25.0,23.9 25.0,10.0 25.0,10.0 395.0,10.0 395.0,23.9 410.0,20.0 410.0,20.0 410.0,30.0" />
<text style="" text-anchor="middle" x="210.0" y="25.0" fill="black">till front</text>
<polygon fill="none" stroke-width="1" stroke-dasharray="2" stroke="gray" points="120.6,95.1 120.6,81.2 20.6,81.2 20.6,95.1 20.6,95.1 35.6,95.1 35.6,97.3 20.6,97.3 20.6,111.2 120.6,111.2 120.6,97.3 105.6,97.3 105.6,95.1 120.6,95.1" />
<polygon fill="none" stroke-width="1" stroke-dasharray="2" stroke="gray" points="10.0,80.6 20.6,95.1 20.6,81.2 10.0,70.6 10.0,80.6" />
<polygon fill="none" stroke-width="1" stroke-dasharray="2" stroke="gray" points="10.0,90.6 10.0,100.6 20.6,111.2 20.6,97.3 10.0,90.6" />
<polygon fill="rgba(255,255,255,0.75)" stroke-width="1" stroke-dasharray="" stroke="black" points="10.0,80.6 25.0,80.6 35.6,95.1 20.6,95.1" />
<polygon fill="none" stroke-width="1" stroke-dasharray="2" stroke="gray" points="20.6,97.3 35.6,97.3 25.0,90.6 10.0,90.6" />
<polygon fill="none" stroke-width="1" stroke-dasharray="2" stroke="gray" points="25.0,80.6 25.0,90.6 35.6,97.3 35.6,95.1 25.0,80.6" />
<polygon fill="none" stroke-width="1" stroke-dasharray="2" stroke="gray" points="20.6,81.2 120.6,81.2 110.0,70.6 10.0,70.6" />
<polygon fill="rgba(192,192,192,0.75)" stroke-width="1" stroke-dasharray="" stroke="black" points="10.0,100.6 110.0,100.6 120.6,111.2 20.6,111.2" />
<polygon fill="rgba(255,255,255,0.75)" stroke-width="1" stroke-dasharray="" stroke="black" points="105.6,95.1 105.6,97.3 95.0,90.6 95.0,80.6 105.6,95.1" />
<polygon fill="rgba(255,255,255,0.75)" stroke-width="1" stroke-dasharray="" stroke="black" points="120.6,95.1 105.6,95.1 95.0,80.6 110.0,80.6" />
<polygon fill="none" stroke-width="1" stroke-dasharray="2" stroke="gray" points="110.0,90.6 95.0,90.6 105.6,97.3 120.6,97.3" />
<polygon fill="rgba(255,255,255,0.75)" stroke-width="1" stroke-dasharray="" stroke="black" points="120.6,95.1 110.0,80.6 110.0,70.6 120.6,81.2 120.6,95.1" />
<polygon fill="rgba(255,255,255,0.75)" stroke-width="1" stroke-dasharray="" stroke="black" points="120.6,97.3 120.6,111.2 110.0,100.6 110.0,90.6 120.6,97.3" />
<polygon fill="rgba(255,255,255,0.75)" stroke-width="1" stroke-dasharray="" stroke="black" points="110.0,90.6 110.0,100.6 10.0,100.6 10.0,90.6 10.0,90.6 25.0,90.6 25.0,80.6 10.0,80.6 10.0,70.6 110.0,70.6 110.0,80.6 95.0,80.6 95.0,90.6 110.0,90.6" />
<text style="" text-anchor="middle" x="60.0" y="85.60660171779821" fill="black">till right</text>
<polygon fill="none" stroke-width="1" stroke-dasharray="2" stroke="gray" points="405.6,171.8 405.6,157.9 420.6,161.8 420.6,151.8 405.6,155.7 405.6,141.8 405.6,141.8 35.6,141.8 35.6,155.7 20.6,151.8 20.6,151.8 20.6,161.8 20.6,161.8 35.6,157.9 35.6,171.8 405.6,171.8" />
<polygon fill="none" stroke-width="1" stroke-dasharray="2" stroke="gray" points="10.0,141.2 10.0,151.2 20.6,161.8 20.6,151.8 10.0,141.2" />
<polygon fill="none" stroke-width="1" stroke-dasharray="2" stroke="gray" points="20.6,151.8 35.6,155.7 25.0,145.1 10.0,141.2" />
<polygon fill="rgba(255,255,255,0.75)" stroke-width="1" stroke-dasharray="" stroke="black" points="10.0,151.2 25.0,147.3 35.6,157.9 20.6,161.8" />
<polygon fill="none" stroke-width="1" stroke-dasharray="2" stroke="gray" points="25.0,145.1 35.6,155.7 35.6,141.8 25.0,131.2 25.0,145.1" />
<polygon fill="none" stroke-width="1" stroke-dasharray="2" stroke="gray" points="25.0,147.3 25.0,161.2 35.6,171.8 35.6,157.9 25.0,147.3" />
<polygon fill="none" stroke-width="1" stroke-dasharray="2" stroke="gray" points="395.0,131.2 25.0,131.2 25.0,131.2 35.6,141.8 405.6,141.8 395.0,131.2" />
<polygon fill="rgba(192,192,192,0.75)" stroke-width="1" stroke-dasharray="" stroke="black" points="395.0,161.2 405.6,171.8 35.6,171.8 25.0,161.2 25.0,161.2 395.0,161.2" />
<polygon fill="rgba(255,255,255,0.75)" stroke-width="1" stroke-dasharray="" stroke="black" points="405.6,155.7 395.0,145.1 395.0,131.2 405.6,141.8 405.6,155.7" />
<polygon fill="rgba(255,255,255,0.75)" stroke-width="1" stroke-dasharray="" stroke="black" points="405.6,157.9 405.6,171.8 395.0,161.2 395.0,147.3 405.6,157.9" />
<polygon fill="none" stroke-width="1" stroke-dasharray="2" stroke="gray" points="410.0,141.2 395.0,145.1 405.6,155.7 420.6,151.8" />
<polygon fill="rgba(192,192,192,0.75)" stroke-width="1" stroke-dasharray="" stroke="silver" points="420.6,161.8 405.6,157.9 395.0,147.3 410.0,151.2" />
<polygon fill="rgba(255,255,255,0.75)" stroke-width="1" stroke-dasharray="" stroke="black" points="420.6,151.8 420.6,161.8 410.0,151.2 410.0,141.2 420.6,151.8" />
<polygon fill="rgba(255,255,255,0.75)" stroke-width="1" stroke-dasharray="" stroke="black" points="410.0,151.2 395.0,147.3 395.0,161.2 25.0,161.2 25.0,161.2 25.0,147.3 10.0,151.2 10.0,141.2 25.0,145.1 25.0,131.2 25.0,131.2 395.0,131.2 395.0,145.1 410.0,141.2 410.0,141.2 410.0,151.2" />
<text style="" text-anchor="middle" x="210.0" y="146.21320343559643" fill="black">till back</text>
<polygon fill="none" stroke-width="1" stroke-dasharray="2" stroke="gray" points="120.6,216.3 120.6,202.4 20.6,202.4 20.6,216.3 20.6,216.3 35.6,216.3 35.6,218.6 20.6,218.6 20.6,232.4 120.6,232.4 120.6,218.6 105.6,218.6 105.6,216.3 120.6,216.3" />
<polygon fill="none" stroke-width="1" stroke-dasharray="2" stroke="gray" points="10.0,201.8 20.6,216.3 20.6,202.4 10.0,191.8 10.0,201.8" />
<polygon fill="none" stroke-width="1" stroke-dasharray="2" stroke="gray" points="10.0,211.8 10.0,221.8 20.6,232.4 20.6,218.5 10.0,211.8" />
<polygon fill="rgba(255,255,255,0.75)" stroke-width="1" stroke-dasharray="" stroke="black" points="10.0,201.8 25.0,201.8 35.6,216.3 20.6,216.3" />
<polygon fill="none" stroke-width="1" stroke-dasharray="2" stroke="gray" points="20.6,218.5 35.6,218.5 25.0,211.8 10.0,211.8" />
<polygon fill="none" stroke-width="1" stroke-dasharray="2" stroke="gray" points="25.0,201.8 25.0,211.8 35.6,218.6 35.6,216.3 25.0,201.8" />
<polygon fill="none" stroke-width="1" stroke-dasharray="2" stroke="gray" points="20.6,202.4 120.6,202.4 110.0,191.8 10.0,191.8" />
<polygon fill="rgba(192,192,192,0.75)" stroke-width="1" stroke-dasharray="" stroke="black" points="10.0,221.8 110.0,221.8 120.6,232.4 20.6,232.4" />
<polygon fill="rgba(255,255,255,0.75)" stroke-width="1" stroke-dasharray="" stroke="black" points="105.6,216.3 105.6,218.6 95.0,211.8 95.0,201.8 105.6,216.3" />
<polygon fill="rgba(255,255,255,0.75)" stroke-width="1" stroke-dasharray="" stroke="black" points="120.6,216.3 105.6,216.3 95.0,201.8 110.0,201.8" />
<polygon fill="none" stroke-width="1" stroke-dasharray="2" stroke="gray" points="110.0,211.8 95.0,211.8 105.6,218.5 120.6,218.5" />
<polygon fill="rgba(255,255,255,0.75)" stroke-width="1" stroke-dasharray="" stroke="black" points="120.6,216.3 110.0,201.8 110.0,191.8 120.6,202.4 120.6,216.3" />
<polygon fill="rgba(255,255,255,0.75)" stroke-width="1" stroke-dasharray="" stroke="black" points="120.6,218.5 120.6,232.4 110.0,221.8 110.0,211.8 120.6,218.5" />
<polygon fill="rgba(255,255,255,0.75)" stroke-width="1" stroke-dasharray="" stroke="black" points="110.0,211.8 110.0,221.8 10.0,221.8 10.0,211.8 10.0,211.8 25.0,211.8 25.0,201.8 10.0,201.8 10.0,191.8 110.0,191.8 110.0,201.8 95.0,201.8 95.0,211.8 110.0,211.8" />
<text style="" text-anchor="middle" x="60.0" y="206.81980515339464" fill="black">till left</text>
<polygon fill="none" stroke-width="1" stroke-dasharray="2" stroke="gray" points="12.1,254.5 12.1,354.5 412.1,354.5 412.1,254.5" />
<polygon fill="none" stroke-width="1" stroke-dasharray="2" stroke="gray" points="10.0,252.4 10.0,352.4 12.1,354.5 12.1,254.5" />
<polygon fill="none" stroke-width="1" stroke-dasharray="2" stroke="gray" points="12.1,254.5 412.1,254.5 410.0,252.4 10.0,252.4" />
<polygon fill="rgba(192,192,192,0.75)" stroke-width="1" stroke-dasharray="" stroke="black" points="10.0,352.4 410.0,352.4 412.1,354.5 12.1,354.5" />
<polygon fill="rgba(255,255,255,0.75)" stroke-width="1" stroke-dasharray="" stroke="black" points="412.1,254.5 412.1,354.5 410.0,352.4 410.0,252.4" />
<polygon fill="rgba(255,255,255,0.75)" stroke-width="1" stroke-dasharray="" stroke="black" points="10.0,252.4 410.0,252.4 410.0,352.4 10.0,352.4" />
<text style="" text-anchor="middle" x="210.0" y="302.42640687119285" fill="black">till bottom</text>
</svg>
