<svg width="1600" viewBox="0.0 -216.9 800.0 265.4" xmlns="http://www.w3.org/2000/svg">
<polygon fill="none" stroke-width="1" stroke-dasharray="2" stroke="gray" points="181.9,-185.1 193.9,-182.0 193.9,-201.9 181.9,-201.9 181.9,-185.1" />
<polygon fill="none" stroke-width="1" stroke-dasharray="2" stroke="gray" points="181.9,-168.3 181.9,-151.5 193.9,-148.4 193.9,-171.4 181.9,-168.3" />
<polygon fill="none" stroke-width="1" stroke-dasharray="2" stroke="gray" points="181.9,-134.7 181.9,-117.9 193.9,-117.9 193.9,-137.8 181.9,-134.7" />
<polygon fill="none" stroke-width="1" stroke-dasharray="2" stroke="gray" points="181.9,-134.7 193.9,-137.8 193.9,-117.9 569.9,-117.9 569.9,-137.8 581.9,-134.7 581.9,-134.7 581.9,-151.5 581.9,-151.5 569.9,-148.4 569.9,-171.4 581.9,-168.3 581.9,-185.1 569.9,-182.0 569.9,-201.9 569.9,-201.9 193.9,-201.9 193.9,-201.9 193.9,-182.0 181.9,-185.1 181.9,-168.3 193.9,-171.4 193.9,-148.4 181.9,-151.5 181.9,-151.5 181.9,-134.7" />
<polygon fill="none" stroke-width="1" stroke-dasharray="2" stroke="gray" points="181.9,-213.9 181.9,-201.9 211.9,-201.9 211.9,-213.9" />
<polygon fill="none" stroke-width="1" stroke-dasharray="2" stroke="gray" points="211.9,-213.9 211.9,-201.9 241.9,-201.9 241.9,-213.9" />
<polygon fill="none" stroke-width="1" stroke-dasharray="2" stroke="gray" points="181.9,-117.9 181.9,-114.9 581.9,-114.9 581.9,-117.9" />
<polygon fill="none" stroke-width="1" stroke-dasharray="2" stroke="gray" points="506.9,-213.9 506.9,-201.9 536.9,-201.9 536.9,-213.9" />
<polygon fill="none" stroke-width="1" stroke-dasharray="2" stroke="gray" points="536.9,-216.9 536.9,-201.9 551.9,-201.9 551.9,-216.9" />
<polygon fill="none" stroke-width="1" stroke-dasharray="2" stroke="gray" points="551.9,-213.9 551.9,-201.9 581.9,-201.9 581.9,-213.9" />
<polygon fill="none" stroke-width="1" stroke-dasharray="2" stroke="gray" points="569.9,-182.0 581.9,-185.1 581.9,-201.9 569.9,-201.9 569.9,-182.0" />
<polygon fill="none" stroke-width="1" stroke-dasharray="2" stroke="gray" points="569.9,-171.4 569.9,-148.4 581.9,-151.5 581.9,-168.3 569.9,-171.4" />
<polygon fill="none" stroke-width="1" stroke-dasharray="2" stroke="gray" points="569.9,-137.8 569.9,-117.9 581.9,-117.9 581.9,-134.7 569.9,-137.8" />
<polygon fill="none" stroke-width="1" stroke-dasharray="2" stroke="gray" points="173.4,-176.6 173.4,-159.8 181.9,-168.3 181.9,-185.1 173.4,-176.6" />
<polygon fill="none" stroke-width="1" stroke-dasharray="2" stroke="gray" points="173.4,-143.0 173.4,-126.2 181.9,-134.7 181.9,-151.5 173.4,-143.0" />
<polygon fill="rgba(255,255,255,0.75)" stroke-width="1" stroke-dasharray="" stroke="black" points="181.9,-185.1 193.9,-182.0 185.4,-173.5 173.4,-176.6" />
<polygon fill="none" stroke-width="1" stroke-dasharray="2" stroke="gray" points="181.9,-185.1 173.4,-176.6 185.4,-173.5 193.9,-182.0" />
<polygon fill="none" stroke-width="1" stroke-dasharray="2" stroke="gray" points="173.4,-159.8 185.4,-162.9 193.9,-171.4 181.9,-168.3" />
<polygon fill="rgba(255,255,255,0.75)" stroke-width="1" stroke-dasharray="" stroke="silver" points="193.9,-171.4 185.4,-162.9 173.4,-159.8 181.9,-168.3" />
<polygon fill="rgba(255,255,255,0.75)" stroke-width="1" stroke-dasharray="" stroke="black" points="181.9,-151.5 193.9,-148.4 185.4,-139.9 173.4,-143.0" />
<polygon fill="none" stroke-width="1" stroke-dasharray="2" stroke="gray" points="181.9,-151.5 173.4,-143.0 185.4,-139.9 193.9,-148.4" />
<polygon fill="none" stroke-width="1" stroke-dasharray="2" stroke="gray" points="173.4,-126.2 185.4,-129.3 193.9,-137.8 181.9,-134.7" />
<polygon fill="rgba(255,255,255,0.75)" stroke-width="1" stroke-dasharray="" stroke="silver" points="193.9,-137.8 185.4,-129.3 173.4,-126.2 181.9,-134.7" />
<polygon fill="none" stroke-width="1" stroke-dasharray="2" stroke="gray" points="185.4,-173.5 193.9,-182.0 193.9,-201.9 185.4,-193.4 185.4,-173.5" />
<polygon fill="none" stroke-width="1" stroke-dasharray="2" stroke="gray" points="185.4,-162.9 185.4,-139.9 193.9,-148.4 193.9,-171.4 185.4,-162.9" />
<polygon fill="none" stroke-width="1" stroke-dasharray="2" stroke="gray" points="185.4,-129.3 185.4,-109.4 193.9,-117.9 193.9,-137.8 185.4,-129.3" />
<polygon fill="rgba(255,255,255,0.75)" stroke-width="1" stroke-dasharray="" stroke="black" points="193.9,-201.9 569.9,-201.9 569.9,-201.9 561.4,-193.4 185.4,-193.4 193.9,-201.9" />
<polygon fill="none" stroke-width="1" stroke-dasharray="2" stroke="gray" points="193.9,-117.9 185.4,-109.4 561.4,-109.4 569.9,-117.9 569.9,-117.9 193.9,-117.9" />
<polygon fill="rgba(255,255,255,0.75)" stroke-width="1" stroke-dasharray="" stroke="black" points="569.9,-182.0 561.4,-173.5 561.4,-193.4 569.9,-201.9 569.9,-182.0" />
<polygon fill="rgba(255,255,255,0.75)" stroke-width="1" stroke-dasharray="" stroke="black" points="569.9,-171.4 569.9,-148.4 561.4,-139.9 561.4,-162.9 569.9,-171.4" />
<polygon fill="rgba(255,255,255,0.75)" stroke-width="1" stroke-dasharray="" stroke="black" points="569.9,-137.8 569.9,-117.9 561.4,-109.4 561.4,-129.3 569.9,-137.8" />
<polygon fill="none" stroke-width="1" stroke-dasharray="2" stroke="gray" points="569.9,-182.0 561.4,-173.5 573.4,-176.6 581.9,-185.1" />
<polygon fill="rgba(255,255,255,0.75)" stroke-width="1" stroke-dasharray="" stroke="silver" points="573.4,-176.6 561.4,-173.5 569.9,-182.0 581.9,-185.1" />
<polygon fill="rgba(255,255,255,0.75)" stroke-width="1" stroke-dasharray="" stroke="black" points="581.9,-168.3 573.4,-159.8 561.4,-162.9 569.9,-171.4" />
<polygon fill="none" stroke-width="1" stroke-dasharray="2" stroke="gray" points="581.9,-168.3 569.9,-171.4 561.4,-162.9 573.4,-159.8" />
<polygon fill="none" stroke-width="1" stroke-dasharray="2" stroke="gray" points="569.9,-148.4 561.4,-139.9 573.4,-143.0 581.9,-151.5" />
<polygon fill="rgba(255,255,255,0.75)" stroke-width="1" stroke-dasharray="" stroke="silver" points="573.4,-143.0 561.4,-139.9 569.9,-148.4 581.9,-151.5" />
<polygon fill="rgba(255,255,255,0.75)" stroke-width="1" stroke-dasharray="" stroke="black" points="581.9,-134.7 573.4,-126.2 561.4,-129.3 569.9,-137.8" />
<polygon fill="none" stroke-width="1" stroke-dasharray="2" stroke="gray" points="581.9,-134.7 569.9,-137.8 561.4,-129.3 573.4,-126.2" />
<polygon fill="rgba(255,255,255,0.75)" stroke-width="1" stroke-dasharray="" stroke="black" points="581.9,-185.1 581.9,-168.3 573.4,-159.8 573.4,-176.6 581.9,-185.1" />
<polygon fill="rgba(255,255,255,0.75)" stroke-width="1" stroke-dasharray="" stroke="black" points="581.9,-151.5 581.9,-134.7 573.4,-126.2 573.4,-143.0 581.9,-151.5" />
<polygon fill="none" stroke-width="1" stroke-dasharray="2" stroke="gray" points="173.4,-176.6 173.4,-159.8 185.4,-162.9 185.4,-173.5 173.4,-176.6" />
<polygon fill="none" stroke-width="1" stroke-dasharray="2" stroke="gray" points="173.4,-143.0 173.4,-126.2 185.4,-129.3 185.4,-139.9 173.4,-143.0" />
<polygon fill="rgba(255,255,255,0.75)" stroke-width="1" stroke-dasharray="" stroke="black" points="185.4,-109.4 185.4,-129.3 173.4,-126.2 173.4,-143.0 185.4,-139.9 185.4,-162.9 173.4,-159.8 173.4,-159.8 173.4,-176.6 173.4,-176.6 185.4,-173.5 185.4,-193.4 561.4,-193.4 561.4,-173.5 573.4,-176.6 573.4,-176.6 573.4,-159.8 573.4,-159.8 561.4,-162.9 561.4,-139.9 573.4,-143.0 573.4,-126.2 561.4,-129.3 561.4,-109.4 561.4,-109.4 185.4,-109.4" />
<polygon fill="none" stroke-width="1" stroke-dasharray="2" stroke="gray" points="185.4,-193.4 185.4,-178.4 561.4,-178.4 561.4,-193.4" />
<polygon fill="none" stroke-width="1" stroke-dasharray="2" stroke="gray" points="561.4,-173.5 561.4,-162.9 573.4,-159.8 573.4,-176.6 561.4,-173.5" />
<polygon fill="none" stroke-width="1" stroke-dasharray="2" stroke="gray" points="561.4,-139.9 561.4,-129.3 573.4,-126.2 573.4,-143.0 561.4,-139.9" />
<polygon fill="none" stroke-width="1" stroke-dasharray="2" stroke="gray" points="40.5,6.7 40.5,23.5 181.9,-117.9 181.9,-134.7 173.4,-126.2 173.4,-143.0 181.9,-151.5 181.9,-151.5 181.9,-168.3 181.9,-168.3 173.4,-159.8 173.4,-176.6 181.9,-185.1 181.9,-201.9 40.5,-60.5 40.5,-43.7 40.5,-43.7 49.0,-52.2 49.0,-35.4 40.5,-26.9 40.5,-10.1 49.0,-18.6 49.0,-1.8 40.5,6.7" />
<polygon fill="rgba(255,255,255,0.75)" stroke-width="1" stroke-dasharray="" stroke="black" points="193.9,-201.9 52.5,-60.5 40.5,-60.5 181.9,-201.9" />
<polygon fill="none" stroke-width="1" stroke-dasharray="2" stroke="gray" points="181.9,-117.9 40.5,23.5 52.5,23.5 193.9,-117.9" />
<polygon fill="rgba(255,255,255,0.75)" stroke-width="1" stroke-dasharray="" stroke="black" points="52.5,-7.0 52.5,-30.0 52.5,-30.0 61.0,-38.5 61.0,-49.1 52.5,-40.6 52.5,-60.5 193.9,-201.9 193.9,-182.0 193.9,-182.0 185.4,-173.5 185.4,-162.9 193.9,-171.4 193.9,-148.4 185.4,-139.9 185.4,-129.3 193.9,-137.8 193.9,-137.8 193.9,-117.9 52.5,23.5 52.5,3.6 61.0,-4.9 61.0,-15.5 52.5,-7.0" />
<polygon fill="none" stroke-width="1" stroke-dasharray="2" stroke="gray" points="40.5,-72.5 40.5,-60.5 181.9,-201.9 181.9,-213.9" />
<polygon fill="none" stroke-width="1" stroke-dasharray="2" stroke="gray" points="40.5,23.5 40.5,26.5 181.9,-114.9 181.9,-117.9" />
<polygon fill="none" stroke-width="1" stroke-dasharray="2" stroke="gray" points="61.0,-69.0 61.0,-54.0 185.4,-178.4 185.4,-193.4" />
<polygon fill="rgba(255,255,255,0.75)" stroke-width="1" stroke-dasharray="" stroke="black" points="181.9,-213.9 211.9,-213.9 70.5,-72.5 40.5,-72.5" />
<polygon fill="none" stroke-width="1" stroke-dasharray="2" stroke="gray" points="40.5,-60.5 70.5,-60.5 211.9,-201.9 181.9,-201.9" />
<polygon fill="rgba(255,255,255,0.75)" stroke-width="1" stroke-dasharray="" stroke="black" points="211.9,-213.9 211.9,-201.9 70.5,-60.5 70.5,-72.5" />
<polygon fill="none" stroke-width="1" stroke-dasharray="2" stroke="gray" points="70.5,-72.5 70.5,-60.5 211.9,-201.9 211.9,-213.9" />
<polygon fill="rgba(255,255,255,0.75)" stroke-width="1" stroke-dasharray="" stroke="black" points="211.9,-213.9 241.9,-213.9 100.5,-72.5 70.5,-72.5" />
<polygon fill="none" stroke-width="1" stroke-dasharray="2" stroke="gray" points="70.5,-60.5 100.5,-60.5 241.9,-201.9 211.9,-201.9" />
<polygon fill="rgba(255,255,255,0.75)" stroke-width="1" stroke-dasharray="" stroke="black" points="241.9,-213.9 241.9,-201.9 100.5,-60.5 100.5,-72.5" />
<polygon fill="rgba(255,255,255,0.75)" stroke-width="1" stroke-dasharray="" stroke="black" points="185.4,-193.4 561.4,-193.4 437.0,-69.0 61.0,-69.0" />
<polygon fill="none" stroke-width="1" stroke-dasharray="2" stroke="gray" points="61.0,-54.0 437.0,-54.0 561.4,-178.4 185.4,-178.4" />
<polygon fill="rgba(255,255,255,0.75)" stroke-width="1" stroke-dasharray="" stroke="black" points="181.9,-117.9 581.9,-117.9 440.5,23.5 40.5,23.5" />
<polygon fill="none" stroke-width="1" stroke-dasharray="2" stroke="gray" points="40.5,26.5 440.5,26.5 581.9,-114.9 181.9,-114.9" />
<polygon fill="none" stroke-width="1" stroke-dasharray="2" stroke="gray" points="365.5,-72.5 365.5,-60.5 506.9,-201.9 506.9,-213.9" />
<polygon fill="rgba(255,255,255,0.75)" stroke-width="1" stroke-dasharray="" stroke="black" points="506.9,-213.9 536.9,-213.9 395.5,-72.5 365.5,-72.5" />
<polygon fill="none" stroke-width="1" stroke-dasharray="2" stroke="gray" points="365.5,-60.5 395.5,-60.5 536.9,-201.9 506.9,-201.9" />
<polygon fill="none" stroke-width="1" stroke-dasharray="2" stroke="gray" points="395.5,-75.5 395.5,-60.5 536.9,-201.9 536.9,-216.9" />
<polygon fill="rgba(255,255,255,0.75)" stroke-width="1" stroke-dasharray="" stroke="black" points="536.9,-213.9 536.9,-201.9 395.5,-60.5 395.5,-72.5" />
<polygon fill="rgba(255,255,255,0.75)" stroke-width="1" stroke-dasharray="" stroke="black" points="536.9,-216.9 551.9,-216.9 410.5,-75.5 395.5,-75.5" />
<polygon fill="none" stroke-width="1" stroke-dasharray="2" stroke="gray" points="395.5,-60.5 410.5,-60.5 551.9,-201.9 536.9,-201.9" />
<polygon fill="rgba(255,255,255,0.75)" stroke-width="1" stroke-dasharray="" stroke="black" points="551.9,-216.9 551.9,-201.9 410.5,-60.5 410.5,-75.5" />
<polygon fill="none" stroke-width="1" stroke-dasharray="2" stroke="gray" points="410.5,-72.5 410.5,-60.5 551.9,-201.9 551.9,-213.9" />
<polygon fill="rgba(255,255,255,0.75)" stroke-width="1" stroke-dasharray="" stroke="black" points="551.9,-213.9 581.9,-213.9 440.5,-72.5 410.5,-72.5" />
<polygon fill="none" stroke-width="1" stroke-dasharray="2" stroke="gray" points="410.5,-60.5 440.5,-60.5 581.9,-201.9 551.9,-201.9" />
<polygon fill="rgba(255,255,255,0.75)" stroke-width="1" stroke-dasharray="" stroke="black" points="561.4,-193.4 561.4,-178.4 437.0,-54.0 437.0,-69.0" />
<polygon fill="none" stroke-width="1" stroke-dasharray="2" stroke="gray" points="569.9,-148.4 569.9,-171.4 569.9,-171.4 561.4,-162.9 561.4,-173.5 569.9,-182.0 569.9,-201.9 428.5,-60.5 428.5,-40.6 428.5,-40.6 437.0,-49.1 437.0,-38.5 428.5,-30.0 428.5,-7.0 437.0,-15.5 437.0,-4.9 428.5,3.6 428.5,3.6 428.5,23.5 569.9,-117.9 569.9,-137.8 561.4,-129.3 561.4,-139.9 569.9,-148.4" />
<polygon fill="rgba(255,255,255,0.75)" stroke-width="1" stroke-dasharray="" stroke="black" points="428.5,-60.5 569.9,-201.9 581.9,-201.9 440.5,-60.5" />
<polygon fill="none" stroke-width="1" stroke-dasharray="2" stroke="gray" points="440.5,23.5 581.9,-117.9 569.9,-117.9 428.5,23.5" />
<polygon fill="rgba(255,255,255,0.75)" stroke-width="1" stroke-dasharray="" stroke="black" points="581.9,-213.9 581.9,-201.9 440.5,-60.5 440.5,-72.5" />
<polygon fill="rgba(255,255,255,0.75)" stroke-width="1" stroke-dasharray="" stroke="black" points="581.9,-134.7 581.9,-117.9 440.5,23.5 440.5,6.7 449.0,-1.8 449.0,-18.6 440.5,-10.1 440.5,-10.1 440.5,-26.9 440.5,-26.9 449.0,-35.4 449.0,-52.2 440.5,-43.7 440.5,-60.5 581.9,-201.9 581.9,-185.1 581.9,-185.1 573.4,-176.6 573.4,-159.8 581.9,-168.3 581.9,-151.5 573.4,-143.0 573.4,-126.2 581.9,-134.7" />
<polygon fill="rgba(255,255,255,0.75)" stroke-width="1" stroke-dasharray="" stroke="black" points="581.9,-117.9 581.9,-114.9 440.5,26.5 440.5,23.5" />
<polygon fill="rgba(255,255,255,0.75)" stroke-width="1" stroke-dasharray="" stroke="black" points="61.0,-49.1 61.0,-38.5 49.0,-35.4 49.0,-52.2 61.0,-49.1" />
<polygon fill="rgba(255,255,255,0.75)" stroke-width="1" stroke-dasharray="" stroke="black" points="61.0,-15.5 61.0,-4.9 49.0,-1.8 49.0,-18.6 61.0,-15.5" />
<polygon fill="rgba(255,255,255,0.75)" stroke-width="1" stroke-dasharray="" stroke="black" points="61.0,-69.0 437.0,-69.0 437.0,-54.0 61.0,-54.0" />
<polygon fill="none" stroke-width="1" stroke-dasharray="2" stroke="gray" points="437.0,15.0 437.0,-4.9 449.0,-1.8 449.0,-18.6 437.0,-15.5 437.0,-38.5 449.0,-35.4 449.0,-35.4 449.0,-52.2 449.0,-52.2 437.0,-49.1 437.0,-69.0 61.0,-69.0 61.0,-49.1 49.0,-52.2 49.0,-52.2 49.0,-35.4 49.0,-35.4 61.0,-38.5 61.0,-15.5 49.0,-18.6 49.0,-1.8 61.0,-4.9 61.0,15.0 61.0,15.0 437.0,15.0" />
<polygon fill="rgba(255,255,255,0.75)" stroke-width="1" stroke-dasharray="" stroke="black" points="449.0,-52.2 449.0,-35.4 437.0,-38.5 437.0,-49.1 449.0,-52.2" />
<polygon fill="rgba(255,255,255,0.75)" stroke-width="1" stroke-dasharray="" stroke="black" points="449.0,-18.6 449.0,-1.8 437.0,-4.9 437.0,-15.5 449.0,-18.6" />
<polygon fill="none" stroke-width="1" stroke-dasharray="2" stroke="gray" points="52.5,-40.6 61.0,-49.1 49.0,-52.2 40.5,-43.7" />
<polygon fill="rgba(255,255,255,0.75)" stroke-width="1" stroke-dasharray="" stroke="silver" points="40.5,-26.9 49.0,-35.4 61.0,-38.5 52.5,-30.0" />
<polygon fill="none" stroke-width="1" stroke-dasharray="2" stroke="gray" points="52.5,-7.0 61.0,-15.5 49.0,-18.6 40.5,-10.1" />
<polygon fill="rgba(255,255,255,0.75)" stroke-width="1" stroke-dasharray="" stroke="silver" points="40.5,6.7 49.0,-1.8 61.0,-4.9 52.5,3.6" />
<polygon fill="none" stroke-width="1" stroke-dasharray="2" stroke="gray" points="40.5,-43.7 40.5,-26.9 49.0,-35.4 49.0,-52.2 40.5,-43.7" />
<polygon fill="none" stroke-width="1" stroke-dasharray="2" stroke="gray" points="40.5,-10.1 40.5,6.7 49.0,-1.8 49.0,-18.6 40.5,-10.1" />
<polygon fill="rgba(255,255,255,0.75)" stroke-width="1" stroke-dasharray="" stroke="black" points="49.0,-52.2 61.0,-49.1 52.5,-40.6 40.5,-43.7" />
<polygon fill="none" stroke-width="1" stroke-dasharray="2" stroke="gray" points="40.5,-26.9 52.5,-30.0 61.0,-38.5 49.0,-35.4" />
<polygon fill="rgba(255,255,255,0.75)" stroke-width="1" stroke-dasharray="" stroke="black" points="49.0,-18.6 61.0,-15.5 52.5,-7.0 40.5,-10.1" />
<polygon fill="none" stroke-width="1" stroke-dasharray="2" stroke="gray" points="40.5,6.7 52.5,3.6 61.0,-4.9 49.0,-1.8" />
<polygon fill="none" stroke-width="1" stroke-dasharray="2" stroke="gray" points="52.5,-40.6 61.0,-49.1 61.0,-69.0 52.5,-60.5 52.5,-40.6" />
<polygon fill="none" stroke-width="1" stroke-dasharray="2" stroke="gray" points="52.5,-30.0 52.5,-7.0 61.0,-15.5 61.0,-38.5 52.5,-30.0" />
<polygon fill="none" stroke-width="1" stroke-dasharray="2" stroke="gray" points="52.5,3.6 52.5,23.5 61.0,15.0 61.0,-4.9 52.5,3.6" />
<polygon fill="rgba(255,255,255,0.75)" stroke-width="1" stroke-dasharray="" stroke="black" points="428.5,-60.5 52.5,-60.5 52.5,-60.5 61.0,-69.0 437.0,-69.0 428.5,-60.5" />
<polygon fill="none" stroke-width="1" stroke-dasharray="2" stroke="gray" points="428.5,23.5 437.0,15.0 61.0,15.0 52.5,23.5 52.5,23.5 428.5,23.5" />
<polygon fill="rgba(255,255,255,0.75)" stroke-width="1" stroke-dasharray="" stroke="black" points="437.0,-49.1 428.5,-40.6 428.5,-60.5 437.0,-69.0 437.0,-49.1" />
<polygon fill="rgba(255,255,255,0.75)" stroke-width="1" stroke-dasharray="" stroke="black" points="437.0,-38.5 437.0,-15.5 428.5,-7.0 428.5,-30.0 437.0,-38.5" />
<polygon fill="rgba(255,255,255,0.75)" stroke-width="1" stroke-dasharray="" stroke="black" points="437.0,-4.9 437.0,15.0 428.5,23.5 428.5,3.6 437.0,-4.9" />
<polygon fill="rgba(255,255,255,0.75)" stroke-width="1" stroke-dasharray="" stroke="silver" points="440.5,-43.7 428.5,-40.6 437.0,-49.1 449.0,-52.2" />
<polygon fill="none" stroke-width="1" stroke-dasharray="2" stroke="gray" points="440.5,-43.7 449.0,-52.2 437.0,-49.1 428.5,-40.6" />
<polygon fill="none" stroke-width="1" stroke-dasharray="2" stroke="gray" points="449.0,-35.4 437.0,-38.5 428.5,-30.0 440.5,-26.9" />
<polygon fill="rgba(255,255,255,0.75)" stroke-width="1" stroke-dasharray="" stroke="black" points="428.5,-30.0 437.0,-38.5 449.0,-35.4 440.5,-26.9" />
<polygon fill="rgba(255,255,255,0.75)" stroke-width="1" stroke-dasharray="" stroke="silver" points="440.5,-10.1 428.5,-7.0 437.0,-15.5 449.0,-18.6" />
<polygon fill="none" stroke-width="1" stroke-dasharray="2" stroke="gray" points="440.5,-10.1 449.0,-18.6 437.0,-15.5 428.5,-7.0" />
<polygon fill="none" stroke-width="1" stroke-dasharray="2" stroke="gray" points="449.0,-1.8 437.0,-4.9 428.5,3.6 440.5,6.7" />
<polygon fill="rgba(255,255,255,0.75)" stroke-width="1" stroke-dasharray="" stroke="black" points="428.5,3.6 437.0,-4.9 449.0,-1.8 440.5,6.7" />
<polygon fill="rgba(255,255,255,0.75)" stroke-width="1" stroke-dasharray="" stroke="black" points="449.0,-52.2 449.0,-35.4 440.5,-26.9 440.5,-43.7 449.0,-52.2" />
<polygon fill="rgba(255,255,255,0.75)" stroke-width="1" stroke-dasharray="" stroke="black" points="449.0,-18.6 449.0,-1.8 440.5,6.7 440.5,-10.1 449.0,-18.6" />
<polygon fill="rgba(255,255,255,0.75)" stroke-width="1" stroke-dasharray="" stroke="black" points="52.5,-40.6 40.5,-43.7 40.5,-60.5 52.5,-60.5 52.5,-40.6" />
<polygon fill="rgba(255,255,255,0.75)" stroke-width="1" stroke-dasharray="" stroke="black" points="52.5,-30.0 52.5,-7.0 40.5,-10.1 40.5,-26.9 52.5,-30.0" />
<polygon fill="rgba(255,255,255,0.75)" stroke-width="1" stroke-dasharray="" stroke="black" points="52.5,3.6 52.5,23.5 40.5,23.5 40.5,6.7 52.5,3.6" />
<polygon fill="rgba(255,255,255,0.75)" stroke-width="1" stroke-dasharray="" stroke="black" points="40.5,-72.5 70.5,-72.5 70.5,-60.5 40.5,-60.5" />
<polygon fill="rgba(255,255,255,0.75)" stroke-width="1" stroke-dasharray="" stroke="black" points="70.5,-72.5 100.5,-72.5 100.5,-60.5 70.5,-60.5" />
<polygon fill="rgba(255,255,255,0.75)" stroke-width="1" stroke-dasharray="" stroke="black" points="440.5,6.7 428.5,3.6 428.5,23.5 52.5,23.5 52.5,3.6 40.5,6.7 40.5,6.7 40.5,-10.1 40.5,-10.1 52.5,-7.0 52.5,-30.0 40.5,-26.9 40.5,-43.7 52.5,-40.6 52.5,-60.5 52.5,-60.5 428.5,-60.5 428.5,-60.5 428.5,-40.6 440.5,-43.7 440.5,-26.9 428.5,-30.0 428.5,-7.0 440.5,-10.1 440.5,-10.1 440.5,6.7" />
<polygon fill="rgba(255,255,255,0.75)" stroke-width="1" stroke-dasharray="" stroke="black" points="40.5,23.5 440.5,23.5 440.5,26.5 40.5,26.5" />
<polygon fill="rgba(255,255,255,0.75)" stroke-width="1" stroke-dasharray="" stroke="black" points="365.5,-72.5 395.5,-72.5 395.5,-60.5 365.5,-60.5" />
<polygon fill="rgba(255,255,255,0.75)" stroke-width="1" stroke-dasharray="" stroke="black" points="395.5,-75.5 410.5,-75.5 410.5,-60.5 395.5,-60.5" />
<polygon fill="rgba(255,255,255,0.75)" stroke-width="1" stroke-dasharray="" stroke="black" points="410.5,-72.5 440.5,-72.5 440.5,-60.5 410.5,-60.5" />
<polygon fill="rgba(255,255,255,0.75)" stroke-width="1" stroke-dasharray="" stroke="black" points="440.5,-43.7 428.5,-40.6 428.5,-60.5 440.5,-60.5 440.5,-43.7" />
<polygon fill="rgba(255,255,255,0.75)" stroke-width="1" stroke-dasharray="" stroke="black" points="440.5,-26.9 440.5,-10.1 428.5,-7.0 428.5,-30.0 440.5,-26.9" />
<polygon fill="rgba(255,255,255,0.75)" stroke-width="1" stroke-dasharray="" stroke="black" points="440.5,6.7 440.5,23.5 428.5,23.5 428.5,3.6 440.5,6.7" />
<polyline fill="none" stroke-width="1" stroke-dasharray="2" stroke="silver" points="40.5,23.5 20.5,23.5" />
<polyline fill="none" stroke-width="1" stroke-dasharray="2" stroke="silver" points="40.5,-60.5 20.5,-60.5" />
<polyline fill="none" stroke-width="1" stroke-dasharray="2" stroke="gray" points="20.5,-60.5 20.5,23.5" />
<polyline fill="none" stroke-width="1" stroke-dasharray="" stroke="gray" points="-4.0,-2.0 0.0,0.0 -4.0,2.0" transform="translate(20.48528137423857, 22.514718625761432) rotate(90.0)" />
<polyline fill="none" stroke-width="1" stroke-dasharray="" stroke="gray" points="-4.0,-2.0 0.0,0.0 -4.0,2.0" transform="translate(20.48528137423857, -59.48528137423857) rotate(-90.0)" />
<rect x="15.485281374238571" y="-30.985281374238568" width="10" height="25" style="fill: rgba(255,255,255,0.75); stroke: none; stroke-width: 1;" />
<text style="font-size:12px" text-anchor="middle" x="0" y="0" fill="black" transform="translate(23.48528137423857 -18.485281374238568) rotate(-90)">84</text>
<polyline fill="none" stroke-width="1" stroke-dasharray="2" stroke="silver" points="440.5,23.5 440.5,43.5" />
<polyline fill="none" stroke-width="1" stroke-dasharray="2" stroke="silver" points="40.5,23.5 40.5,43.5" />
<polyline fill="none" stroke-width="1" stroke-dasharray="2" stroke="gray" points="40.5,43.5 440.5,43.5" />
<polyline fill="none" stroke-width="1" stroke-dasharray="" stroke="gray" points="-4.0,-2.0 0.0,0.0 -4.0,2.0" transform="translate(439.4852813742386, 43.51471862576143) rotate(0.0)" />
<polyline fill="none" stroke-width="1" stroke-dasharray="" stroke="gray" points="-4.0,-2.0 0.0,0.0 -4.0,2.0" transform="translate(41.48528137423857, 43.51471862576143) rotate(180.0)" />
<rect x="225.48528137423858" y="38.51471862576143" width="30" height="10" style="fill: rgba(255,255,255,0.75); stroke: none; stroke-width: 1;" />
<text style="font-size:12px" text-anchor="middle" x="240.48528137423858" y="46.51471862576143" fill="black">400</text>
<polyline fill="none" stroke-width="1" stroke-dasharray="2" stroke="silver" points="581.9,-117.9 581.9,-97.9" />
<polyline fill="none" stroke-width="1" stroke-dasharray="2" stroke="silver" points="440.5,23.5 440.5,43.5" />
<polyline fill="none" stroke-width="1" stroke-dasharray="2" stroke="gray" points="440.5,43.5 581.9,-97.9" />
<polyline fill="none" stroke-width="1" stroke-dasharray="" stroke="gray" points="-4.0,-2.0 0.0,0.0 -4.0,2.0" transform="translate(581.1995308303616, -97.19953083036151) rotate(-44.999999999999986)" />
<polyline fill="none" stroke-width="1" stroke-dasharray="" stroke="gray" points="-4.0,-2.0 0.0,0.0 -4.0,2.0" transform="translate(441.19238815542514, 42.807611844574886) rotate(135.00000000000003)" />
<rect x="496.1959594928934" y="-32.195959492893316" width="30" height="10" style="fill: rgba(255,255,255,0.75); stroke: none; stroke-width: 1;" />
<text style="font-size:12px" text-anchor="middle" x="511.1959594928934" y="-24.195959492893316" fill="black">200</text>
</svg>
