<svg width="1100" viewBox="0.0 0.0 550.0 1134.2" xmlns="http://www.w3.org/2000/svg">
<polygon fill="none" stroke-width="1" stroke-dasharray="2" stroke="gray" points="406.5,94.5 406.5,81.4 418.5,84.5 418.5,59.0 406.5,62.1 406.5,50.9 418.5,54.0 418.5,54.0 418.5,28.5 418.5,28.5 406.5,31.6 406.5,18.5 30.5,18.5 30.5,31.6 18.5,28.5 18.5,28.5 18.5,54.0 18.5,54.0 30.5,50.9 30.5,62.1 18.5,59.0 18.5,84.5 30.5,81.4 30.5,94.5 30.5,94.5 406.5,94.5" />
<polygon fill="none" stroke-width="1" stroke-dasharray="2" stroke="gray" points="10.0,20.0 10.0,45.5 18.5,54.0 18.5,28.5 10.0,20.0" />
<polygon fill="none" stroke-width="1" stroke-dasharray="2" stroke="gray" points="10.0,50.5 10.0,76.0 18.5,84.5 18.5,59.0 10.0,50.5" />
<polygon fill="none" stroke-width="1" stroke-dasharray="2" stroke="gray" points="18.5,28.5 30.5,31.6 22.0,23.1 10.0,20.0" />
<polygon fill="rgba(255,255,255,0.75)" stroke-width="1" stroke-dasharray="" stroke="black" points="10.0,45.5 22.0,42.4 30.5,50.9 18.5,54.0" />
<polygon fill="none" stroke-width="1" stroke-dasharray="2" stroke="gray" points="18.5,59.0 30.5,62.1 22.0,53.6 10.0,50.5" />
<polygon fill="rgba(255,255,255,0.75)" stroke-width="1" stroke-dasharray="" stroke="black" points="10.0,76.0 22.0,72.9 30.5,81.4 18.5,84.5" />
<polygon fill="none" stroke-width="1" stroke-dasharray="2" stroke="gray" points="22.0,23.1 30.5,31.6 30.5,18.5 22.0,10.0 22.0,23.1" />
<polygon fill="none" stroke-width="1" stroke-dasharray="2" stroke="gray" points="22.0,42.4 22.0,53.6 30.5,62.1 30.5,50.9 22.0,42.4" />
<polygon fill="none" stroke-width="1" stroke-dasharray="2" stroke="gray" points="22.0,72.9 22.0,86.0 30.5,94.5 30.5,81.4 22.0,72.9" />
<polygon fill="none" stroke-width="1" stroke-dasharray="2" stroke="gray" points="398.0,10.0 22.0,10.0 22.0,10.0 30.5,18.5 406.5,18.5 398.0,10.0" />
<polygon fill="rgba(192,192,192,0.75)" stroke-width="1" stroke-dasharray="" stroke="black" points="398.0,86.0 406.5,94.5 30.5,94.5 22.0,86.0 22.0,86.0 398.0,86.0" />
<polygon fill="rgba(255,255,255,0.75)" stroke-width="1" stroke-dasharray="" stroke="black" points="406.5,31.6 398.0,23.1 398.0,10.0 406.5,18.5 406.5,31.6" />
<polygon fill="rgba(255,255,255,0.75)" stroke-width="1" stroke-dasharray="" stroke="black" points="406.5,50.9 406.5,62.1 398.0,53.6 398.0,42.4 406.5,50.9" />
<polygon fill="rgba(255,255,255,0.75)" stroke-width="1" stroke-dasharray="" stroke="black" points="406.5,81.4 406.5,94.5 398.0,86.0 398.0,72.9 406.5,81.4" />
<polygon fill="none" stroke-width="1" stroke-dasharray="2" stroke="gray" points="410.0,20.0 398.0,23.1 406.5,31.6 418.5,28.5" />
<polygon fill="rgba(192,192,192,0.75)" stroke-width="1" stroke-dasharray="" stroke="silver" points="418.5,54.0 406.5,50.9 398.0,42.4 410.0,45.5" />
<polygon fill="none" stroke-width="1" stroke-dasharray="2" stroke="gray" points="410.0,50.5 398.0,53.6 406.5,62.1 418.5,59.0" />
<polygon fill="rgba(192,192,192,0.75)" stroke-width="1" stroke-dasharray="" stroke="silver" points="418.5,84.5 406.5,81.4 398.0,72.9 410.0,76.0" />
<polygon fill="rgba(255,255,255,0.75)" stroke-width="1" stroke-dasharray="" stroke="black" points="418.5,28.5 418.5,54.0 410.0,45.5 410.0,20.0 418.5,28.5" />
<polygon fill="rgba(255,255,255,0.75)" stroke-width="1" stroke-dasharray="" stroke="black" points="418.5,59.0 418.5,84.5 410.0,76.0 410.0,50.5 418.5,59.0" />
<polygon fill="rgba(255,255,255,0.75)" stroke-width="1" stroke-dasharray="" stroke="black" points="410.0,76.0 398.0,72.9 398.0,86.0 22.0,86.0 22.0,72.9 10.0,76.0 10.0,76.0 10.0,50.5 10.0,50.5 22.0,53.6 22.0,42.4 10.0,45.5 10.0,20.0 22.0,23.1 22.0,10.0 22.0,10.0 398.0,10.0 398.0,10.0 398.0,23.1 410.0,20.0 410.0,45.5 398.0,42.4 398.0,53.6 410.0,50.5 410.0,50.5 410.0,76.0" />
<text style="" text-anchor="middle" x="210.0" y="48.0" fill="black">box front</text>
<polygon fill="none" stroke-width="1" stroke-dasharray="2" stroke="gray" points="218.5,166.6 218.5,155.4 218.5,155.4 206.5,155.4 206.5,136.1 218.5,136.1 218.5,123.0 18.5,123.0 18.5,136.1 18.5,136.1 30.5,136.1 30.5,155.4 18.5,155.4 18.5,166.6 30.5,166.6 30.5,185.9 18.5,185.9 18.5,185.9 18.5,199.0 218.5,199.0 218.5,185.9 206.5,185.9 206.5,166.6 218.5,166.6" />
<polygon fill="none" stroke-width="1" stroke-dasharray="2" stroke="gray" points="10.0,124.5 18.5,136.1 18.5,123.0 10.0,114.5 10.0,124.5" />
<polygon fill="none" stroke-width="1" stroke-dasharray="2" stroke="gray" points="10.0,150.0 10.0,155.0 18.5,166.6 18.5,155.4 10.0,150.0" />
<polygon fill="none" stroke-width="1" stroke-dasharray="2" stroke="gray" points="10.0,180.5 10.0,190.5 18.5,199.0 18.5,185.9 10.0,180.5" />
<polygon fill="rgba(255,255,255,0.75)" stroke-width="1" stroke-dasharray="" stroke="black" points="10.0,124.5 22.0,124.5 30.5,136.1 18.5,136.1" />
<polygon fill="none" stroke-width="1" stroke-dasharray="2" stroke="gray" points="18.5,155.4 30.5,155.4 22.0,150.0 10.0,150.0" />
<polygon fill="rgba(255,255,255,0.75)" stroke-width="1" stroke-dasharray="" stroke="black" points="10.0,155.0 22.0,155.0 30.5,166.6 18.5,166.6" />
<polygon fill="none" stroke-width="1" stroke-dasharray="2" stroke="gray" points="18.5,185.9 30.5,185.9 22.0,180.5 10.0,180.5" />
<polygon fill="none" stroke-width="1" stroke-dasharray="2" stroke="gray" points="22.0,124.5 22.0,150.0 30.5,155.4 30.5,136.1 22.0,124.5" />
<polygon fill="none" stroke-width="1" stroke-dasharray="2" stroke="gray" points="22.0,155.0 22.0,180.5 30.5,185.9 30.5,166.6 22.0,155.0" />
<polygon fill="none" stroke-width="1" stroke-dasharray="2" stroke="gray" points="18.5,123.0 218.5,123.0 210.0,114.5 10.0,114.5" />
<polygon fill="rgba(192,192,192,0.75)" stroke-width="1" stroke-dasharray="" stroke="black" points="10.0,190.5 210.0,190.5 218.5,199.0 18.5,199.0" />
<polygon fill="rgba(255,255,255,0.75)" stroke-width="1" stroke-dasharray="" stroke="black" points="206.5,136.1 206.5,155.4 198.0,150.0 198.0,124.5 206.5,136.1" />
<polygon fill="rgba(255,255,255,0.75)" stroke-width="1" stroke-dasharray="" stroke="black" points="206.5,166.6 206.5,185.9 198.0,180.5 198.0,155.0 206.5,166.6" />
<polygon fill="rgba(255,255,255,0.75)" stroke-width="1" stroke-dasharray="" stroke="black" points="218.5,136.1 206.5,136.1 198.0,124.5 210.0,124.5" />
<polygon fill="none" stroke-width="1" stroke-dasharray="2" stroke="gray" points="210.0,150.0 198.0,150.0 206.5,155.4 218.5,155.4" />
<polygon fill="rgba(255,255,255,0.75)" stroke-width="1" stroke-dasharray="" stroke="black" points="218.5,166.6 206.5,166.6 198.0,155.0 210.0,155.0" />
<polygon fill="none" stroke-width="1" stroke-dasharray="2" stroke="gray" points="210.0,180.5 198.0,180.5 206.5,185.9 218.5,185.9" />
<polygon fill="rgba(255,255,255,0.75)" stroke-width="1" stroke-dasharray="" stroke="black" points="218.5,136.1 210.0,124.5 210.0,114.5 218.5,123.0 218.5,136.1" />
<polygon fill="rgba(255,255,255,0.75)" stroke-width="1" stroke-dasharray="" stroke="black" points="218.5,155.4 218.5,166.6 210.0,155.0 210.0,150.0 218.5,155.4" />
<polygon fill="rgba(255,255,255,0.75)" stroke-width="1" stroke-dasharray="" stroke="black" points="218.5,185.9 218.5,199.0 210.0,190.5 210.0,180.5 218.5,185.9" />
<polygon fill="rgba(255,255,255,0.75)" stroke-width="1" stroke-dasharray="" stroke="black" points="210.0,180.5 210.0,190.5 10.0,190.5 10.0,180.5 22.0,180.5 22.0,155.0 10.0,155.0 10.0,155.0 10.0,150.0 10.0,150.0 22.0,150.0 22.0,124.5 10.0,124.5 10.0,114.5 210.0,114.5 210.0,124.5 210.0,124.5 198.0,124.5 198.0,150.0 210.0,150.0 210.0,155.0 198.0,155.0 198.0,180.5 210.0,180.5" />
<text style="" text-anchor="middle" x="110.0" y="152.48528137423858" fill="black">box left</text>
<polygon fill="none" stroke-width="1" stroke-dasharray="2" stroke="gray" points="406.5,303.5 406.5,290.3 418.5,293.4 418.5,268.0 406.5,271.1 406.5,259.8 418.5,262.9 418.5,262.9 418.5,237.5 418.5,237.5 406.5,240.6 406.5,227.5 30.5,227.5 30.5,240.6 18.5,237.5 18.5,237.5 18.5,262.9 18.5,262.9 30.5,259.8 30.5,271.1 18.5,268.0 18.5,293.4 30.5,290.3 30.5,303.5 30.5,303.5 406.5,303.5" />
<polygon fill="none" stroke-width="1" stroke-dasharray="2" stroke="gray" points="10.0,229.0 10.0,254.5 18.5,263.0 18.5,237.4 10.0,229.0" />
<polygon fill="none" stroke-width="1" stroke-dasharray="2" stroke="gray" points="10.0,259.5 10.0,285.0 18.5,293.5 18.5,267.9 10.0,259.5" />
<polygon fill="none" stroke-width="1" stroke-dasharray="2" stroke="gray" points="18.5,237.5 30.5,240.6 22.0,232.1 10.0,229.0" />
<polygon fill="rgba(255,255,255,0.75)" stroke-width="1" stroke-dasharray="" stroke="black" points="10.0,254.5 22.0,251.4 30.5,259.9 18.5,263.0" />
<polygon fill="none" stroke-width="1" stroke-dasharray="2" stroke="gray" points="18.5,268.0 30.5,271.1 22.0,262.6 10.0,259.5" />
<polygon fill="rgba(255,255,255,0.75)" stroke-width="1" stroke-dasharray="" stroke="black" points="10.0,285.0 22.0,281.9 30.5,290.4 18.5,293.5" />
<polygon fill="none" stroke-width="1" stroke-dasharray="2" stroke="gray" points="22.0,232.1 30.5,240.6 30.5,227.5 22.0,219.0 22.0,232.1" />
<polygon fill="none" stroke-width="1" stroke-dasharray="2" stroke="gray" points="22.0,251.4 22.0,262.6 30.5,271.1 30.5,259.8 22.0,251.4" />
<polygon fill="none" stroke-width="1" stroke-dasharray="2" stroke="gray" points="22.0,281.9 22.0,295.0 30.5,303.5 30.5,290.3 22.0,281.9" />
<polygon fill="none" stroke-width="1" stroke-dasharray="2" stroke="gray" points="398.0,219.0 22.0,219.0 22.0,219.0 30.5,227.5 406.5,227.5 398.0,219.0" />
<polygon fill="rgba(192,192,192,0.75)" stroke-width="1" stroke-dasharray="" stroke="black" points="398.0,295.0 406.5,303.5 30.5,303.5 22.0,295.0 22.0,295.0 398.0,295.0" />
<polygon fill="rgba(255,255,255,0.75)" stroke-width="1" stroke-dasharray="" stroke="black" points="406.5,240.6 398.0,232.1 398.0,219.0 406.5,227.5 406.5,240.6" />
<polygon fill="rgba(255,255,255,0.75)" stroke-width="1" stroke-dasharray="" stroke="black" points="406.5,259.8 406.5,271.1 398.0,262.6 398.0,251.4 406.5,259.8" />
<polygon fill="rgba(255,255,255,0.75)" stroke-width="1" stroke-dasharray="" stroke="black" points="406.5,290.3 406.5,303.5 398.0,295.0 398.0,281.9 406.5,290.3" />
<polygon fill="none" stroke-width="1" stroke-dasharray="2" stroke="gray" points="410.0,229.0 398.0,232.1 406.5,240.6 418.5,237.5" />
<polygon fill="rgba(192,192,192,0.75)" stroke-width="1" stroke-dasharray="" stroke="silver" points="418.5,263.0 406.5,259.9 398.0,251.4 410.0,254.5" />
<polygon fill="none" stroke-width="1" stroke-dasharray="2" stroke="gray" points="410.0,259.5 398.0,262.6 406.5,271.1 418.5,268.0" />
<polygon fill="rgba(192,192,192,0.75)" stroke-width="1" stroke-dasharray="" stroke="silver" points="418.5,293.5 406.5,290.4 398.0,281.9 410.0,285.0" />
<polygon fill="rgba(255,255,255,0.75)" stroke-width="1" stroke-dasharray="" stroke="black" points="418.5,237.4 418.5,263.0 410.0,254.5 410.0,229.0 418.5,237.4" />
<polygon fill="rgba(255,255,255,0.75)" stroke-width="1" stroke-dasharray="" stroke="black" points="418.5,267.9 418.5,293.5 410.0,285.0 410.0,259.5 418.5,267.9" />
<polygon fill="rgba(255,255,255,0.75)" stroke-width="1" stroke-dasharray="" stroke="black" points="410.0,285.0 398.0,281.9 398.0,295.0 22.0,295.0 22.0,281.9 10.0,285.0 10.0,285.0 10.0,259.5 10.0,259.5 22.0,262.6 22.0,251.4 10.0,254.5 10.0,229.0 22.0,232.1 22.0,219.0 22.0,219.0 398.0,219.0 398.0,219.0 398.0,232.1 410.0,229.0 410.0,254.5 398.0,251.4 398.0,262.6 410.0,259.5 410.0,259.5 410.0,285.0" />
<text style="" text-anchor="middle" x="210.0" y="256.97056274847716" fill="black">box back</text>
<polygon fill="none" stroke-width="1" stroke-dasharray="2" stroke="gray" points="218.5,375.5 218.5,364.3 218.5,364.3 206.5,364.3 206.5,345.0 218.5,345.0 218.5,331.9 18.5,331.9 18.5,345.0 18.5,345.0 30.5,345.0 30.5,364.3 18.5,364.3 18.5,375.5 30.5,375.5 30.5,394.8 18.5,394.8 18.5,394.8 18.5,407.9 218.5,407.9 218.5,394.8 206.5,394.8 206.5,375.5 218.5,375.5" />
<polygon fill="none" stroke-width="1" stroke-dasharray="2" stroke="gray" points="10.0,333.5 18.5,345.1 18.5,331.9 10.0,323.5 10.0,333.5" />
<polygon fill="none" stroke-width="1" stroke-dasharray="2" stroke="gray" points="10.0,358.9 10.0,364.0 18.5,375.6 18.5,364.3 10.0,358.9" />
<polygon fill="none" stroke-width="1" stroke-dasharray="2" stroke="gray" points="10.0,389.4 10.0,399.5 18.5,407.9 18.5,394.8 10.0,389.4" />
<polygon fill="rgba(255,255,255,0.75)" stroke-width="1" stroke-dasharray="" stroke="black" points="10.0,333.5 22.0,333.5 30.5,345.0 18.5,345.0" />
<polygon fill="none" stroke-width="1" stroke-dasharray="2" stroke="gray" points="18.5,364.3 30.5,364.3 22.0,359.0 10.0,359.0" />
<polygon fill="rgba(255,255,255,0.75)" stroke-width="1" stroke-dasharray="" stroke="black" points="10.0,364.0 22.0,364.0 30.5,375.5 18.5,375.5" />
<polygon fill="none" stroke-width="1" stroke-dasharray="2" stroke="gray" points="18.5,394.8 30.5,394.8 22.0,389.5 10.0,389.5" />
<polygon fill="none" stroke-width="1" stroke-dasharray="2" stroke="gray" points="22.0,333.4 22.0,359.0 30.5,364.3 30.5,345.0 22.0,333.4" />
<polygon fill="none" stroke-width="1" stroke-dasharray="2" stroke="gray" points="22.0,363.9 22.0,389.5 30.5,394.8 30.5,375.5 22.0,363.9" />
<polygon fill="none" stroke-width="1" stroke-dasharray="2" stroke="gray" points="18.5,331.9 218.5,331.9 210.0,323.5 10.0,323.5" />
<polygon fill="rgba(192,192,192,0.75)" stroke-width="1" stroke-dasharray="" stroke="black" points="10.0,399.5 210.0,399.5 218.5,407.9 18.5,407.9" />
<polygon fill="rgba(255,255,255,0.75)" stroke-width="1" stroke-dasharray="" stroke="black" points="206.5,345.0 206.5,364.3 198.0,359.0 198.0,333.4 206.5,345.0" />
<polygon fill="rgba(255,255,255,0.75)" stroke-width="1" stroke-dasharray="" stroke="black" points="206.5,375.5 206.5,394.8 198.0,389.5 198.0,363.9 206.5,375.5" />
<polygon fill="rgba(255,255,255,0.75)" stroke-width="1" stroke-dasharray="" stroke="black" points="218.5,345.0 206.5,345.0 198.0,333.5 210.0,333.5" />
<polygon fill="none" stroke-width="1" stroke-dasharray="2" stroke="gray" points="210.0,359.0 198.0,359.0 206.5,364.3 218.5,364.3" />
<polygon fill="rgba(255,255,255,0.75)" stroke-width="1" stroke-dasharray="" stroke="black" points="218.5,375.5 206.5,375.5 198.0,364.0 210.0,364.0" />
<polygon fill="none" stroke-width="1" stroke-dasharray="2" stroke="gray" points="210.0,389.5 198.0,389.5 206.5,394.8 218.5,394.8" />
<polygon fill="rgba(255,255,255,0.75)" stroke-width="1" stroke-dasharray="" stroke="black" points="218.5,345.1 210.0,333.5 210.0,323.5 218.5,331.9 218.5,345.1" />
<polygon fill="rgba(255,255,255,0.75)" stroke-width="1" stroke-dasharray="" stroke="black" points="218.5,364.3 218.5,375.6 210.0,364.0 210.0,358.9 218.5,364.3" />
<polygon fill="rgba(255,255,255,0.75)" stroke-width="1" stroke-dasharray="" stroke="black" points="218.5,394.8 218.5,407.9 210.0,399.5 210.0,389.4 218.5,394.8" />
<polygon fill="rgba(255,255,255,0.75)" stroke-width="1" stroke-dasharray="" stroke="black" points="210.0,389.5 210.0,399.5 10.0,399.5 10.0,389.5 22.0,389.5 22.0,363.9 10.0,363.9 10.0,363.9 10.0,359.0 10.0,359.0 22.0,359.0 22.0,333.4 10.0,333.4 10.0,323.5 210.0,323.5 210.0,333.4 210.0,333.4 198.0,333.4 198.0,359.0 210.0,359.0 210.0,363.9 198.0,363.9 198.0,389.5 210.0,389.5" />
<text style="" text-anchor="middle" x="110.0" y="361.4558441227157" fill="black">box right</text>
<polygon fill="none" stroke-width="1" stroke-dasharray="2" stroke="gray" points="20.6,438.5 20.6,622.5 396.6,622.5 396.6,438.5" />
<polygon fill="none" stroke-width="1" stroke-dasharray="2" stroke="gray" points="10.0,427.9 10.0,611.9 20.6,622.5 20.6,438.5" />
<polygon fill="none" stroke-width="1" stroke-dasharray="2" stroke="gray" points="20.6,438.5 396.6,438.5 386.0,427.9 10.0,427.9" />
<polygon fill="rgba(192,192,192,0.75)" stroke-width="1" stroke-dasharray="" stroke="black" points="10.0,611.9 386.0,611.9 396.6,622.5 20.6,622.5" />
<polygon fill="rgba(255,255,255,0.75)" stroke-width="1" stroke-dasharray="" stroke="black" points="396.6,438.5 396.6,622.5 386.0,611.9 386.0,427.9" />
<polygon fill="rgba(255,255,255,0.75)" stroke-width="1" stroke-dasharray="" stroke="black" points="10.0,427.9 386.0,427.9 386.0,611.9 10.0,611.9" />
<text style="" text-anchor="middle" x="198.0" y="519.9411254969543" fill="black">box lid</text>
<polygon fill="none" stroke-width="1" stroke-dasharray="2" stroke="gray" points="12.1,644.7 12.1,844.7 412.1,844.7 412.1,644.7" />
<polygon fill="none" stroke-width="1" stroke-dasharray="2" stroke="gray" points="10.0,642.5 10.0,842.5 12.1,844.7 12.1,644.7" />
<polygon fill="none" stroke-width="1" stroke-dasharray="2" stroke="gray" points="12.1,644.7 412.1,644.7 410.0,642.5 10.0,642.5" />
<polygon fill="rgba(192,192,192,0.75)" stroke-width="1" stroke-dasharray="" stroke="black" points="10.0,842.5 410.0,842.5 412.1,844.7 12.1,844.7" />
<polygon fill="rgba(255,255,255,0.75)" stroke-width="1" stroke-dasharray="" stroke="black" points="412.1,644.7 412.1,844.7 410.0,842.5 410.0,642.5" />
<polygon fill="rgba(255,255,255,0.75)" stroke-width="1" stroke-dasharray="" stroke="black" points="10.0,642.5 410.0,642.5 410.0,842.5 10.0,842.5" />
<text style="" text-anchor="middle" x="210.0" y="742.5477272147525" fill="black">box bottom</text>
<polygon fill="none" stroke-width="1" stroke-dasharray="2" stroke="gray" points="20.6,875.3 20.6,890.3 220.6,890.3 220.6,875.3" />
<polygon fill="none" stroke-width="1" stroke-dasharray="2" stroke="gray" points="10.0,864.7 10.0,879.7 20.6,890.3 20.6,875.3" />
<polygon fill="none" stroke-width="1" stroke-dasharray="2" stroke="gray" points="20.6,875.3 220.6,875.3 210.0,864.7 10.0,864.7" />
<polygon fill="rgba(192,192,192,0.75)" stroke-width="1" stroke-dasharray="" stroke="black" points="10.0,879.7 210.0,879.7 220.6,890.3 20.6,890.3" />
<polygon fill="rgba(255,255,255,0.75)" stroke-width="1" stroke-dasharray="" stroke="black" points="220.6,875.3 220.6,890.3 210.0,879.7 210.0,864.7" />
<polygon fill="rgba(255,255,255,0.75)" stroke-width="1" stroke-dasharray="" stroke="black" points="10.0,864.7 210.0,864.7 210.0,879.7 10.0,879.7" />
<text style="" text-anchor="middle" x="110.0" y="872.1690475583122" fill="black">wedge</text>
<polygon fill="none" stroke-width="1" stroke-dasharray="2" stroke="gray" points="18.5,918.8 18.5,948.8 218.5,948.8 218.5,918.8" />
<polygon fill="none" stroke-width="1" stroke-dasharray="2" stroke="gray" points="10.0,910.3 10.0,940.3 18.5,948.8 18.5,918.8" />
<polygon fill="none" stroke-width="1" stroke-dasharray="2" stroke="gray" points="18.5,918.8 218.5,918.8 210.0,910.3 10.0,910.3" />
<polygon fill="rgba(192,192,192,0.75)" stroke-width="1" stroke-dasharray="" stroke="black" points="10.0,940.3 210.0,940.3 218.5,948.8 18.5,948.8" />
<polygon fill="rgba(255,255,255,0.75)" stroke-width="1" stroke-dasharray="" stroke="black" points="218.5,918.8 218.5,948.8 210.0,940.3 210.0,910.3" />
<polygon fill="rgba(255,255,255,0.75)" stroke-width="1" stroke-dasharray="" stroke="black" points="10.0,910.3 210.0,910.3 210.0,940.3 10.0,940.3" />
<text style="" text-anchor="middle" x="110.0" y="925.2756492761104" fill="black">batten</text>
<polygon fill="none" stroke-width="1" stroke-dasharray="2" stroke="gray" points="18.5,977.2 18.5,1007.2 218.5,1007.2 218.5,977.2" />
<polygon fill="none" stroke-width="1" stroke-dasharray="2" stroke="gray" points="10.0,968.8 10.0,998.8 18.5,1007.2 18.5,977.2" />
<polygon fill="none" stroke-width="1" stroke-dasharray="2" stroke="gray" points="18.5,977.2 218.5,977.2 210.0,968.8 10.0,968.8" />
<polygon fill="rgba(192,192,192,0.75)" stroke-width="1" stroke-dasharray="" stroke="black" points="10.0,998.8 210.0,998.8 218.5,1007.2 18.5,1007.2" />
<polygon fill="rgba(255,255,255,0.75)" stroke-width="1" stroke-dasharray="" stroke="black" points="218.5,977.2 218.5,1007.2 210.0,998.8 210.0,968.8" />
<polygon fill="rgba(255,255,255,0.75)" stroke-width="1" stroke-dasharray="" stroke="black" points="10.0,968.8 210.0,968.8 210.0,998.8 10.0,998.8" />
<text style="" text-anchor="middle" x="110.0" y="983.7609306503489" fill="black">batten</text>
<polygon fill="none" stroke-width="1" stroke-dasharray="2" stroke="gray" points="18.5,1035.7 18.5,1065.7 218.5,1065.7 218.5,1035.7" />
<polygon fill="none" stroke-width="1" stroke-dasharray="2" stroke="gray" points="10.0,1027.2 10.0,1057.2 18.5,1065.7 18.5,1035.7" />
<polygon fill="none" stroke-width="1" stroke-dasharray="2" stroke="gray" points="18.5,1035.7 218.5,1035.7 210.0,1027.2 10.0,1027.2" />
<polygon fill="rgba(192,192,192,0.75)" stroke-width="1" stroke-dasharray="" stroke="black" points="10.0,1057.2 210.0,1057.2 218.5,1065.7 18.5,1065.7" />
<polygon fill="rgba(255,255,255,0.75)" stroke-width="1" stroke-dasharray="" stroke="black" points="218.5,1035.7 218.5,1065.7 210.0,1057.2 210.0,1027.2" />
<polygon fill="rgba(255,255,255,0.75)" stroke-width="1" stroke-dasharray="" stroke="black" points="10.0,1027.2 210.0,1027.2 210.0,1057.2 10.0,1057.2" />
<text style="" text-anchor="middle" x="110.0" y="1042.2462120245875" fill="black">batten</text>
<polygon fill="none" stroke-width="1" stroke-dasharray="2" stroke="gray" points="18.5,1094.2 18.5,1124.2 218.5,1124.2 218.5,1094.2" />
<polygon fill="none" stroke-width="1" stroke-dasharray="2" stroke="gray" points="10.0,1085.7 10.0,1115.7 18.5,1124.2 18.5,1094.2" />
<polygon fill="none" stroke-width="1" stroke-dasharray="2" stroke="gray" points="18.5,1094.2 218.5,1094.2 210.0,1085.7 10.0,1085.7" />
<polygon fill="rgba(192,192,192,0.75)" stroke-width="1" stroke-dasharray="" stroke="black" points="10.0,1115.7 210.0,1115.7 218.5,1124.2 18.5,1124.2" />
<polygon fill="rgba(255,255,255,0.75)" stroke-width="1" stroke-dasharray="" stroke="black" points="218.5,1094.2 218.5,1124.2 210.0,1115.7 210.0,1085.7" />
<polygon fill="rgba(255,255,255,0.75)" stroke-width="1" stroke-dasharray="" stroke="black" points="10.0,1085.7 210.0,1085.7 210.0,1115.7 10.0,1115.7" />
<text style="" text-anchor="middle" x="110.0" y="1100.7314933988262" fill="black">bottom brace</text>
</svg>
