<svg width="1600" viewBox="0.0 -193.9 800.0 325.9" xmlns="http://www.w3.org/2000/svg">
<polygon fill="none" stroke-width="1" stroke-dasharray="2" stroke="gray" points="178.4,-108.4 190.4,-105.3 190.4,-138.4 178.4,-138.4 178.4,-108.4" />
<polygon fill="none" stroke-width="1" stroke-dasharray="2" stroke="gray" points="178.4,-89.9 178.4,-74.9 190.4,-71.8 190.4,-93.0 178.4,-89.9" />
<polygon fill="none" stroke-width="1" stroke-dasharray="2" stroke="gray" points="178.4,-56.4 178.4,-26.4 190.4,-26.4 190.4,-33.4 185.4,-33.4 185.4,-38.4 190.4,-38.4 190.4,-59.5 178.4,-56.4" />
<polygon fill="none" stroke-width="1" stroke-dasharray="2" stroke="gray" points="178.4,-56.4 190.4,-59.5 190.4,-26.4 590.4,-26.4 590.4,-59.5 602.4,-56.4 602.4,-56.4 602.4,-74.9 602.4,-74.9 590.4,-71.8 590.4,-93.0 602.4,-89.9 602.4,-108.4 590.4,-105.3 590.4,-138.4 590.4,-138.4 190.4,-138.4 190.4,-138.4 190.4,-105.3 178.4,-108.4 178.4,-89.9 190.4,-93.0 190.4,-71.8 178.4,-74.9 178.4,-74.9 178.4,-56.4" />
<polygon fill="none" stroke-width="1" stroke-dasharray="2" stroke="gray" points="590.4,-105.3 602.4,-108.4 602.4,-138.4 590.4,-138.4 590.4,-105.3" />
<polygon fill="none" stroke-width="1" stroke-dasharray="2" stroke="gray" points="590.4,-93.0 590.4,-71.8 602.4,-74.9 602.4,-89.9 590.4,-93.0" />
<polygon fill="none" stroke-width="1" stroke-dasharray="2" stroke="gray" points="590.4,-59.5 590.4,-38.4 595.4,-38.4 595.4,-33.4 590.4,-33.4 590.4,-26.4 602.4,-26.4 602.4,-56.4 590.4,-59.5" />
<polygon fill="none" stroke-width="1" stroke-dasharray="2" stroke="gray" points="169.9,-99.9 169.9,-81.4 178.4,-89.9 178.4,-108.4 169.9,-99.9" />
<polygon fill="none" stroke-width="1" stroke-dasharray="2" stroke="gray" points="169.9,-66.4 169.9,-47.9 178.4,-56.4 178.4,-74.9 169.9,-66.4" />
<polygon fill="rgba(255,255,255,0.75)" stroke-width="1" stroke-dasharray="" stroke="black" points="178.4,-108.4 190.4,-105.3 181.9,-96.8 169.9,-99.9" />
<polygon fill="none" stroke-width="1" stroke-dasharray="2" stroke="gray" points="178.4,-108.4 169.9,-99.9 181.9,-96.8 190.4,-105.3" />
<polygon fill="none" stroke-width="1" stroke-dasharray="2" stroke="gray" points="169.9,-81.4 181.9,-84.5 190.4,-93.0 178.4,-89.9" />
<polygon fill="rgba(255,255,255,0.75)" stroke-width="1" stroke-dasharray="" stroke="silver" points="190.4,-93.0 181.9,-84.5 169.9,-81.4 178.4,-89.9" />
<polygon fill="rgba(255,255,255,0.75)" stroke-width="1" stroke-dasharray="" stroke="black" points="178.4,-74.9 190.4,-71.8 181.9,-63.3 169.9,-66.4" />
<polygon fill="none" stroke-width="1" stroke-dasharray="2" stroke="gray" points="178.4,-74.9 169.9,-66.4 181.9,-63.3 190.4,-71.8" />
<polygon fill="none" stroke-width="1" stroke-dasharray="2" stroke="gray" points="169.9,-47.9 181.9,-51.0 190.4,-59.5 178.4,-56.4" />
<polygon fill="rgba(255,255,255,0.75)" stroke-width="1" stroke-dasharray="" stroke="silver" points="190.4,-59.5 181.9,-51.0 169.9,-47.9 178.4,-56.4" />
<polygon fill="none" stroke-width="1" stroke-dasharray="2" stroke="gray" points="181.9,-96.8 190.4,-105.3 190.4,-138.4 181.9,-129.9 181.9,-96.8" />
<polygon fill="none" stroke-width="1" stroke-dasharray="2" stroke="gray" points="181.9,-84.5 181.9,-63.3 190.4,-71.8 190.4,-93.0 181.9,-84.5" />
<polygon fill="none" stroke-width="1" stroke-dasharray="2" stroke="gray" points="181.9,-51.0 181.9,-29.9 185.4,-33.4 185.4,-28.4 181.9,-24.9 181.9,-17.9 190.4,-26.4 190.4,-59.5 181.9,-51.0" />
<polygon fill="rgba(255,255,255,0.75)" stroke-width="1" stroke-dasharray="" stroke="black" points="190.4,-138.4 590.4,-138.4 590.4,-138.4 581.9,-129.9 181.9,-129.9 190.4,-138.4" />
<polygon fill="none" stroke-width="1" stroke-dasharray="2" stroke="gray" points="190.4,-26.4 181.9,-17.9 581.9,-17.9 590.4,-26.4 590.4,-26.4 190.4,-26.4" />
<polygon fill="rgba(255,255,255,0.75)" stroke-width="1" stroke-dasharray="" stroke="black" points="590.4,-105.3 581.9,-96.8 581.9,-129.9 590.4,-138.4 590.4,-105.3" />
<polygon fill="rgba(255,255,255,0.75)" stroke-width="1" stroke-dasharray="" stroke="black" points="590.4,-93.0 590.4,-71.8 581.9,-63.3 581.9,-84.5 590.4,-93.0" />
<polygon fill="rgba(255,255,255,0.75)" stroke-width="1" stroke-dasharray="" stroke="black" points="590.4,-59.5 590.4,-26.4 581.9,-17.9 581.9,-24.9 585.4,-28.4 585.4,-33.4 581.9,-29.9 581.9,-51.0 590.4,-59.5" />
<polygon fill="none" stroke-width="1" stroke-dasharray="2" stroke="gray" points="590.4,-105.3 581.9,-96.8 593.9,-99.9 602.4,-108.4" />
<polygon fill="rgba(255,255,255,0.75)" stroke-width="1" stroke-dasharray="" stroke="silver" points="593.9,-99.9 581.9,-96.8 590.4,-105.3 602.4,-108.4" />
<polygon fill="rgba(255,255,255,0.75)" stroke-width="1" stroke-dasharray="" stroke="black" points="602.4,-89.9 593.9,-81.4 581.9,-84.5 590.4,-93.0" />
<polygon fill="none" stroke-width="1" stroke-dasharray="2" stroke="gray" points="602.4,-89.9 590.4,-93.0 581.9,-84.5 593.9,-81.4" />
<polygon fill="none" stroke-width="1" stroke-dasharray="2" stroke="gray" points="590.4,-71.8 581.9,-63.3 593.9,-66.4 602.4,-74.9" />
<polygon fill="rgba(255,255,255,0.75)" stroke-width="1" stroke-dasharray="" stroke="silver" points="593.9,-66.4 581.9,-63.3 590.4,-71.8 602.4,-74.9" />
<polygon fill="rgba(255,255,255,0.75)" stroke-width="1" stroke-dasharray="" stroke="black" points="602.4,-56.4 593.9,-47.9 581.9,-51.0 590.4,-59.5" />
<polygon fill="none" stroke-width="1" stroke-dasharray="2" stroke="gray" points="602.4,-56.4 590.4,-59.5 581.9,-51.0 593.9,-47.9" />
<polygon fill="rgba(255,255,255,0.75)" stroke-width="1" stroke-dasharray="" stroke="black" points="602.4,-108.4 602.4,-89.9 593.9,-81.4 593.9,-99.9 602.4,-108.4" />
<polygon fill="rgba(255,255,255,0.75)" stroke-width="1" stroke-dasharray="" stroke="black" points="602.4,-74.9 602.4,-56.4 593.9,-47.9 593.9,-66.4 602.4,-74.9" />
<polygon fill="none" stroke-width="1" stroke-dasharray="2" stroke="gray" points="185.5,-33.4 181.9,-29.9 581.9,-29.9 585.4,-33.4 585.4,-33.4 185.5,-33.4" />
<polygon fill="rgba(255,255,255,0.75)" stroke-width="1" stroke-dasharray="" stroke="black" points="185.5,-28.4 585.4,-28.4 585.4,-28.4 581.9,-24.9 181.9,-24.9 185.5,-28.4" />
<polygon fill="none" stroke-width="1" stroke-dasharray="2" stroke="gray" points="169.9,-99.9 169.9,-81.4 181.9,-84.5 181.9,-96.8 169.9,-99.9" />
<polygon fill="none" stroke-width="1" stroke-dasharray="2" stroke="gray" points="169.9,-66.4 169.9,-47.9 181.9,-51.0 181.9,-63.3 169.9,-66.4" />
<polygon fill="none" stroke-width="1" stroke-dasharray="2" stroke="gray" points="181.9,-183.9 193.9,-180.8 193.9,-193.9 181.9,-193.9 181.9,-183.9" />
<polygon fill="none" stroke-width="1" stroke-dasharray="2" stroke="gray" points="181.9,-158.4 181.9,-153.4 193.9,-150.3 193.9,-161.5 181.9,-158.4" />
<polygon fill="none" stroke-width="1" stroke-dasharray="2" stroke="gray" points="181.9,-127.9 181.9,-117.9 193.9,-117.9 193.9,-131.0 181.9,-127.9" />
<polygon fill="none" stroke-width="1" stroke-dasharray="2" stroke="gray" points="181.9,-102.9 196.9,-99.0 196.9,-112.9 181.9,-112.9 181.9,-102.9" />
<polygon fill="none" stroke-width="1" stroke-dasharray="2" stroke="gray" points="181.9,-92.9 181.9,-82.9 196.9,-82.9 196.9,-96.8 181.9,-92.9" />
<polygon fill="none" stroke-width="1" stroke-dasharray="2" stroke="gray" points="181.9,-127.9 193.9,-131.0 193.9,-117.9 569.9,-117.9 569.9,-131.0 581.9,-127.9 581.9,-127.9 581.9,-153.4 581.9,-153.4 569.9,-150.3 569.9,-161.5 581.9,-158.4 581.9,-183.9 569.9,-180.8 569.9,-193.9 569.9,-193.9 193.9,-193.9 193.9,-193.9 193.9,-180.8 181.9,-183.9 181.9,-158.4 193.9,-161.5 193.9,-150.3 181.9,-153.4 181.9,-153.4 181.9,-127.9" />
<polygon fill="none" stroke-width="1" stroke-dasharray="2" stroke="gray" points="181.9,-92.9 196.9,-96.8 196.9,-82.9 566.9,-82.9 566.9,-82.9 566.9,-96.8 581.9,-92.9 581.9,-102.9 566.9,-99.0 566.9,-112.9 566.9,-112.9 196.9,-112.9 196.9,-99.0 181.9,-102.9 181.9,-102.9 181.9,-92.9" />
<polygon fill="rgba(255,255,255,0.75)" stroke-width="1" stroke-dasharray="" stroke="black" points="181.9,-29.9 181.9,-51.0 169.9,-47.9 169.9,-66.4 181.9,-63.3 181.9,-84.5 169.9,-81.4 169.9,-81.4 169.9,-99.9 169.9,-99.9 181.9,-96.8 181.9,-129.9 581.9,-129.9 581.9,-96.8 593.9,-99.9 593.9,-99.9 593.9,-81.4 593.9,-81.4 581.9,-84.5 581.9,-63.3 593.9,-66.4 593.9,-47.9 581.9,-51.0 581.9,-29.9 581.9,-29.9 181.9,-29.9" />
<polygon fill="none" stroke-width="1" stroke-dasharray="2" stroke="gray" points="566.9,-99.0 581.9,-102.9 581.9,-112.9 566.9,-112.9 566.9,-99.0" />
<polygon fill="none" stroke-width="1" stroke-dasharray="2" stroke="gray" points="566.9,-96.8 566.9,-82.9 581.9,-82.9 581.9,-92.9 566.9,-96.8" />
<polygon fill="none" stroke-width="1" stroke-dasharray="2" stroke="gray" points="569.9,-180.8 581.9,-183.9 581.9,-193.9 569.9,-193.9 569.9,-180.8" />
<polygon fill="none" stroke-width="1" stroke-dasharray="2" stroke="gray" points="569.9,-161.5 569.9,-150.3 581.9,-153.4 581.9,-158.4 569.9,-161.5" />
<polygon fill="none" stroke-width="1" stroke-dasharray="2" stroke="gray" points="569.9,-131.0 569.9,-117.9 581.9,-117.9 581.9,-127.9 569.9,-131.0" />
<polygon fill="none" stroke-width="1" stroke-dasharray="2" stroke="gray" points="581.9,-96.8 581.9,-84.5 593.9,-81.4 593.9,-99.9 581.9,-96.8" />
<polygon fill="none" stroke-width="1" stroke-dasharray="2" stroke="gray" points="581.9,-63.3 581.9,-51.0 593.9,-47.9 593.9,-66.4 581.9,-63.3" />
<polygon fill="none" stroke-width="1" stroke-dasharray="2" stroke="gray" points="173.4,-175.4 173.4,-149.9 181.9,-158.4 181.9,-183.9 173.4,-175.4" />
<polygon fill="none" stroke-width="1" stroke-dasharray="2" stroke="gray" points="173.4,-144.9 173.4,-119.4 181.9,-127.9 181.9,-153.4 173.4,-144.9" />
<polygon fill="rgba(255,255,255,0.75)" stroke-width="1" stroke-dasharray="" stroke="black" points="181.9,-183.9 193.9,-180.8 185.4,-172.3 173.4,-175.4" />
<polygon fill="none" stroke-width="1" stroke-dasharray="2" stroke="gray" points="181.9,-183.9 173.4,-175.4 185.4,-172.3 193.9,-180.8" />
<polygon fill="none" stroke-width="1" stroke-dasharray="2" stroke="gray" points="173.4,-149.9 185.4,-153.0 193.9,-161.5 181.9,-158.4" />
<polygon fill="rgba(255,255,255,0.75)" stroke-width="1" stroke-dasharray="" stroke="silver" points="193.9,-161.5 185.4,-153.0 173.4,-149.9 181.9,-158.4" />
<polygon fill="rgba(255,255,255,0.75)" stroke-width="1" stroke-dasharray="" stroke="black" points="181.9,-153.4 193.9,-150.3 185.4,-141.8 173.4,-144.9" />
<polygon fill="none" stroke-width="1" stroke-dasharray="2" stroke="gray" points="181.9,-153.4 173.4,-144.9 185.4,-141.8 193.9,-150.3" />
<polygon fill="none" stroke-width="1" stroke-dasharray="2" stroke="gray" points="173.4,-119.4 185.4,-122.5 193.9,-131.0 181.9,-127.9" />
<polygon fill="rgba(255,255,255,0.75)" stroke-width="1" stroke-dasharray="" stroke="silver" points="193.9,-131.0 185.4,-122.5 173.4,-119.4 181.9,-127.9" />
<polygon fill="none" stroke-width="1" stroke-dasharray="2" stroke="gray" points="185.4,-172.3 193.9,-180.8 193.9,-193.9 185.4,-185.4 185.4,-172.3" />
<polygon fill="none" stroke-width="1" stroke-dasharray="2" stroke="gray" points="185.4,-153.0 185.4,-141.8 193.9,-150.3 193.9,-161.5 185.4,-153.0" />
<polygon fill="none" stroke-width="1" stroke-dasharray="2" stroke="gray" points="185.4,-122.5 185.4,-109.4 193.9,-117.9 193.9,-131.0 185.4,-122.5" />
<polygon fill="rgba(255,255,255,0.75)" stroke-width="1" stroke-dasharray="" stroke="black" points="193.9,-193.9 569.9,-193.9 569.9,-193.9 561.4,-185.4 185.4,-185.4 193.9,-193.9" />
<polygon fill="none" stroke-width="1" stroke-dasharray="2" stroke="gray" points="193.9,-117.9 185.4,-109.4 561.4,-109.4 569.9,-117.9 569.9,-117.9 193.9,-117.9" />
<polygon fill="rgba(255,255,255,0.75)" stroke-width="1" stroke-dasharray="" stroke="black" points="569.9,-180.8 561.4,-172.3 561.4,-185.4 569.9,-193.9 569.9,-180.8" />
<polygon fill="rgba(255,255,255,0.75)" stroke-width="1" stroke-dasharray="" stroke="black" points="569.9,-161.5 569.9,-150.3 561.4,-141.8 561.4,-153.0 569.9,-161.5" />
<polygon fill="rgba(255,255,255,0.75)" stroke-width="1" stroke-dasharray="" stroke="black" points="569.9,-131.0 569.9,-117.9 561.4,-109.4 561.4,-122.5 569.9,-131.0" />
<polygon fill="none" stroke-width="1" stroke-dasharray="2" stroke="gray" points="569.9,-180.8 561.4,-172.3 573.4,-175.4 581.9,-183.9" />
<polygon fill="rgba(255,255,255,0.75)" stroke-width="1" stroke-dasharray="" stroke="silver" points="573.4,-175.4 561.4,-172.3 569.9,-180.8 581.9,-183.9" />
<polygon fill="rgba(255,255,255,0.75)" stroke-width="1" stroke-dasharray="" stroke="black" points="581.9,-158.4 573.4,-149.9 561.4,-153.0 569.9,-161.5" />
<polygon fill="none" stroke-width="1" stroke-dasharray="2" stroke="gray" points="581.9,-158.4 569.9,-161.5 561.4,-153.0 573.4,-149.9" />
<polygon fill="none" stroke-width="1" stroke-dasharray="2" stroke="gray" points="569.9,-150.3 561.4,-141.8 573.4,-144.9 581.9,-153.4" />
<polygon fill="rgba(255,255,255,0.75)" stroke-width="1" stroke-dasharray="" stroke="silver" points="573.4,-144.9 561.4,-141.8 569.9,-150.3 581.9,-153.4" />
<polygon fill="rgba(255,255,255,0.75)" stroke-width="1" stroke-dasharray="" stroke="black" points="581.9,-127.9 573.4,-119.4 561.4,-122.5 569.9,-131.0" />
<polygon fill="none" stroke-width="1" stroke-dasharray="2" stroke="gray" points="581.9,-127.9 569.9,-131.0 561.4,-122.5 573.4,-119.4" />
<polygon fill="rgba(255,255,255,0.75)" stroke-width="1" stroke-dasharray="" stroke="black" points="581.9,-183.9 581.9,-158.4 573.4,-149.9 573.4,-175.4 581.9,-183.9" />
<polygon fill="rgba(255,255,255,0.75)" stroke-width="1" stroke-dasharray="" stroke="black" points="581.9,-153.4 581.9,-127.9 573.4,-119.4 573.4,-144.9 581.9,-153.4" />
<polygon fill="none" stroke-width="1" stroke-dasharray="2" stroke="gray" points="171.3,-92.3 171.3,-82.3 181.9,-92.9 181.9,-102.9 171.3,-92.3" />
<polygon fill="rgba(255,255,255,0.75)" stroke-width="1" stroke-dasharray="" stroke="black" points="181.9,-102.9 196.9,-99.0 186.3,-88.4 171.3,-92.3" />
<polygon fill="none" stroke-width="1" stroke-dasharray="2" stroke="gray" points="181.9,-102.9 171.3,-92.3 186.3,-88.4 196.9,-99.0" />
<polygon fill="none" stroke-width="1" stroke-dasharray="2" stroke="gray" points="171.3,-82.3 186.3,-86.2 196.9,-96.8 181.9,-92.9" />
<polygon fill="rgba(255,255,255,0.75)" stroke-width="1" stroke-dasharray="" stroke="silver" points="196.9,-96.8 186.3,-86.2 171.3,-82.3 181.9,-92.9" />
<polygon fill="none" stroke-width="1" stroke-dasharray="2" stroke="gray" points="186.3,-88.4 196.9,-99.0 196.9,-112.9 186.3,-102.3 186.3,-88.4" />
<polygon fill="none" stroke-width="1" stroke-dasharray="2" stroke="gray" points="186.3,-86.2 186.3,-72.3 196.9,-82.9 196.9,-96.8 186.3,-86.2" />
<polygon fill="rgba(255,255,255,0.75)" stroke-width="1" stroke-dasharray="" stroke="black" points="196.9,-112.9 566.9,-112.9 566.9,-112.9 556.3,-102.3 186.3,-102.3 196.9,-112.9" />
<polygon fill="none" stroke-width="1" stroke-dasharray="2" stroke="gray" points="196.9,-82.9 186.3,-72.3 556.3,-72.3 566.9,-82.9 566.9,-82.9 196.9,-82.9" />
<polygon fill="rgba(255,255,255,0.75)" stroke-width="1" stroke-dasharray="" stroke="black" points="566.9,-99.0 556.3,-88.4 556.3,-102.3 566.9,-112.9 566.9,-99.0" />
<polygon fill="rgba(255,255,255,0.75)" stroke-width="1" stroke-dasharray="" stroke="black" points="566.9,-96.8 566.9,-82.9 556.3,-72.3 556.3,-86.2 566.9,-96.8" />
<polygon fill="none" stroke-width="1" stroke-dasharray="2" stroke="gray" points="566.9,-99.0 556.3,-88.4 571.3,-92.3 581.9,-102.9" />
<polygon fill="rgba(255,255,255,0.75)" stroke-width="1" stroke-dasharray="" stroke="silver" points="571.3,-92.3 556.3,-88.4 566.9,-99.0 581.9,-102.9" />
<polygon fill="rgba(255,255,255,0.75)" stroke-width="1" stroke-dasharray="" stroke="black" points="581.9,-92.9 571.3,-82.3 556.3,-86.2 566.9,-96.8" />
<polygon fill="none" stroke-width="1" stroke-dasharray="2" stroke="gray" points="581.9,-92.9 566.9,-96.8 556.3,-86.2 571.3,-82.3" />
<polygon fill="rgba(255,255,255,0.75)" stroke-width="1" stroke-dasharray="" stroke="black" points="581.9,-102.9 581.9,-92.9 571.3,-82.3 571.3,-92.3 581.9,-102.9" />
<polygon fill="none" stroke-width="1" stroke-dasharray="2" stroke="gray" points="173.4,-175.4 173.4,-149.9 185.4,-153.0 185.4,-172.3 173.4,-175.4" />
<polygon fill="none" stroke-width="1" stroke-dasharray="2" stroke="gray" points="173.4,-144.9 173.4,-119.4 185.4,-122.5 185.4,-141.8 173.4,-144.9" />
<polygon fill="rgba(255,255,255,0.75)" stroke-width="1" stroke-dasharray="" stroke="black" points="185.4,-109.4 185.4,-122.5 173.4,-119.4 173.4,-144.9 185.4,-141.8 185.4,-153.0 173.4,-149.9 173.4,-149.9 173.4,-175.4 173.4,-175.4 185.4,-172.3 185.4,-185.4 561.4,-185.4 561.4,-172.3 573.4,-175.4 573.4,-175.4 573.4,-149.9 573.4,-149.9 561.4,-153.0 561.4,-141.8 573.4,-144.9 573.4,-119.4 561.4,-122.5 561.4,-109.4 561.4,-109.4 185.4,-109.4" />
<polygon fill="none" stroke-width="1" stroke-dasharray="2" stroke="gray" points="561.4,-172.3 561.4,-153.0 573.4,-149.9 573.4,-175.4 561.4,-172.3" />
<polygon fill="none" stroke-width="1" stroke-dasharray="2" stroke="gray" points="561.4,-141.8 561.4,-122.5 573.4,-119.4 573.4,-144.9 561.4,-141.8" />
<polygon fill="none" stroke-width="1" stroke-dasharray="2" stroke="gray" points="171.3,-92.3 171.3,-82.3 186.3,-86.2 186.3,-88.4 171.3,-92.3" />
<polygon fill="rgba(255,255,255,0.75)" stroke-width="1" stroke-dasharray="" stroke="black" points="186.3,-72.3 186.3,-86.2 171.3,-82.3 171.3,-92.3 186.3,-88.4 186.3,-102.3 186.3,-102.3 556.3,-102.3 556.3,-88.4 571.3,-92.3 571.3,-92.3 571.3,-82.3 571.3,-82.3 556.3,-86.2 556.3,-72.3 186.3,-72.3" />
<polygon fill="none" stroke-width="1" stroke-dasharray="2" stroke="gray" points="556.3,-88.4 556.3,-86.2 571.3,-82.3 571.3,-92.3 556.3,-88.4" />
<polygon fill="none" stroke-width="1" stroke-dasharray="2" stroke="gray" points="111.2,-22.2 111.2,-12.2 181.9,-82.9 181.9,-92.9 181.9,-92.9 171.3,-82.3 171.3,-92.3 181.9,-102.9 181.9,-112.9 111.2,-42.2 111.2,-32.2 121.8,-42.8 121.8,-32.8 111.2,-22.2" />
<polygon fill="rgba(255,255,255,0.75)" stroke-width="1" stroke-dasharray="" stroke="black" points="196.9,-112.9 126.2,-42.2 111.2,-42.2 181.9,-112.9" />
<polygon fill="none" stroke-width="1" stroke-dasharray="2" stroke="gray" points="181.9,-82.9 111.2,-12.2 126.2,-12.2 196.9,-82.9" />
<polygon fill="rgba(255,255,255,0.75)" stroke-width="1" stroke-dasharray="" stroke="black" points="126.2,-28.3 126.2,-42.2 196.9,-112.9 196.9,-99.0 196.9,-99.0 186.3,-88.4 186.3,-86.2 196.9,-96.8 196.9,-82.9 126.2,-12.2 126.2,-26.1 136.8,-36.7 136.8,-38.9 126.2,-28.3" />
<polygon fill="none" stroke-width="1" stroke-dasharray="2" stroke="gray" points="566.9,-99.0 566.9,-112.9 496.2,-42.2 496.2,-28.3 496.2,-28.3 506.8,-38.9 506.8,-36.7 496.2,-26.1 496.2,-12.2 566.9,-82.9 566.9,-96.8 556.3,-86.2 556.3,-88.4 566.9,-99.0" />
<polygon fill="rgba(255,255,255,0.75)" stroke-width="1" stroke-dasharray="" stroke="black" points="496.2,-42.2 566.9,-112.9 581.9,-112.9 511.2,-42.2" />
<polygon fill="none" stroke-width="1" stroke-dasharray="2" stroke="gray" points="511.2,-12.2 581.9,-82.9 566.9,-82.9 496.2,-12.2" />
<polygon fill="rgba(255,255,255,0.75)" stroke-width="1" stroke-dasharray="" stroke="black" points="581.9,-92.9 581.9,-82.9 511.2,-12.2 511.2,-22.2 511.2,-22.2 521.8,-32.8 521.8,-42.8 511.2,-32.2 511.2,-42.2 581.9,-112.9 581.9,-102.9 571.3,-92.3 571.3,-82.3 581.9,-92.9" />
<polygon fill="rgba(255,255,255,0.75)" stroke-width="1" stroke-dasharray="" stroke="black" points="136.8,-38.9 136.8,-36.7 121.8,-32.8 121.8,-42.8 136.8,-38.9" />
<polygon fill="none" stroke-width="1" stroke-dasharray="2" stroke="gray" points="506.8,-22.8 506.8,-36.7 521.8,-32.8 521.8,-42.8 506.8,-38.9 506.8,-52.8 506.8,-52.8 136.8,-52.8 136.8,-38.9 121.8,-42.8 121.8,-42.8 121.8,-32.8 121.8,-32.8 136.8,-36.7 136.8,-22.8 506.8,-22.8" />
<polygon fill="rgba(255,255,255,0.75)" stroke-width="1" stroke-dasharray="" stroke="black" points="521.8,-42.8 521.8,-32.8 506.8,-36.7 506.8,-38.9 521.8,-42.8" />
<polygon fill="none" stroke-width="1" stroke-dasharray="2" stroke="gray" points="126.2,-28.3 136.8,-38.9 121.8,-42.8 111.2,-32.2" />
<polygon fill="rgba(255,255,255,0.75)" stroke-width="1" stroke-dasharray="" stroke="silver" points="111.2,-22.2 121.8,-32.8 136.8,-36.7 126.2,-26.1" />
<polygon fill="none" stroke-width="1" stroke-dasharray="2" stroke="gray" points="111.2,-32.2 111.2,-22.2 121.8,-32.8 121.8,-42.8 111.2,-32.2" />
<polygon fill="rgba(255,255,255,0.75)" stroke-width="1" stroke-dasharray="" stroke="black" points="121.8,-42.8 136.8,-38.9 126.2,-28.3 111.2,-32.2" />
<polygon fill="none" stroke-width="1" stroke-dasharray="2" stroke="gray" points="111.2,-22.2 126.2,-26.1 136.8,-36.7 121.8,-32.8" />
<polygon fill="none" stroke-width="1" stroke-dasharray="2" stroke="gray" points="126.2,-28.3 136.8,-38.9 136.8,-52.8 126.2,-42.2 126.2,-28.3" />
<polygon fill="none" stroke-width="1" stroke-dasharray="2" stroke="gray" points="126.2,-26.1 126.2,-12.2 136.8,-22.8 136.8,-36.7 126.2,-26.1" />
<polygon fill="rgba(255,255,255,0.75)" stroke-width="1" stroke-dasharray="" stroke="black" points="496.2,-42.2 126.2,-42.2 126.2,-42.2 136.8,-52.8 506.8,-52.8 496.2,-42.2" />
<polygon fill="none" stroke-width="1" stroke-dasharray="2" stroke="gray" points="496.2,-12.2 506.8,-22.8 136.8,-22.8 126.2,-12.2 126.2,-12.2 496.2,-12.2" />
<polygon fill="rgba(255,255,255,0.75)" stroke-width="1" stroke-dasharray="" stroke="black" points="506.8,-38.9 496.2,-28.3 496.2,-42.2 506.8,-52.8 506.8,-38.9" />
<polygon fill="rgba(255,255,255,0.75)" stroke-width="1" stroke-dasharray="" stroke="black" points="506.8,-36.7 506.8,-22.8 496.2,-12.2 496.2,-26.1 506.8,-36.7" />
<polygon fill="rgba(255,255,255,0.75)" stroke-width="1" stroke-dasharray="" stroke="silver" points="511.2,-32.2 496.2,-28.3 506.8,-38.9 521.8,-42.8" />
<polygon fill="none" stroke-width="1" stroke-dasharray="2" stroke="gray" points="511.2,-32.2 521.8,-42.8 506.8,-38.9 496.2,-28.3" />
<polygon fill="none" stroke-width="1" stroke-dasharray="2" stroke="gray" points="521.8,-32.8 506.8,-36.7 496.2,-26.1 511.2,-22.2" />
<polygon fill="rgba(255,255,255,0.75)" stroke-width="1" stroke-dasharray="" stroke="black" points="496.2,-26.1 506.8,-36.7 521.8,-32.8 511.2,-22.2" />
<polygon fill="rgba(255,255,255,0.75)" stroke-width="1" stroke-dasharray="" stroke="black" points="521.8,-42.8 521.8,-32.8 511.2,-22.2 511.2,-32.2 521.8,-42.8" />
<polygon fill="none" stroke-width="1" stroke-dasharray="2" stroke="gray" points="20.0,102.0 20.0,132.0 178.4,-26.4 178.4,-56.4 169.9,-47.9 169.9,-66.4 178.4,-74.9 178.4,-74.9 178.4,-89.9 178.4,-89.9 169.9,-81.4 169.9,-99.9 178.4,-108.4 178.4,-138.4 20.0,20.0 20.0,50.0 20.0,50.0 28.5,41.5 28.5,60.0 20.0,68.5 20.0,83.5 28.5,75.0 28.5,93.5 20.0,102.0" />
<polygon fill="rgba(255,255,255,0.75)" stroke-width="1" stroke-dasharray="" stroke="black" points="190.4,-138.4 32.0,20.0 20.0,20.0 178.4,-138.4" />
<polygon fill="none" stroke-width="1" stroke-dasharray="2" stroke="gray" points="178.4,-26.4 20.0,132.0 32.0,132.0 190.4,-26.4" />
<polygon fill="none" stroke-width="1" stroke-dasharray="2" stroke="gray" points="185.4,-38.4 27.0,120.0 32.0,120.0 190.4,-38.4" />
<polygon fill="rgba(255,255,255,0.75)" stroke-width="1" stroke-dasharray="" stroke="black" points="190.4,-33.4 32.0,125.0 27.0,125.0 185.4,-33.4" />
<polygon fill="rgba(255,255,255,0.75)" stroke-width="1" stroke-dasharray="" stroke="black" points="32.0,86.6 32.0,65.4 32.0,65.4 40.5,56.9 40.5,44.6 32.0,53.1 32.0,20.0 190.4,-138.4 190.4,-105.3 190.4,-105.3 181.9,-96.8 181.9,-84.5 190.4,-93.0 190.4,-71.8 181.9,-63.3 181.9,-51.0 190.4,-59.5 190.4,-59.5 190.4,-38.4 32.0,120.0 32.0,98.9 40.5,90.4 40.5,78.1 32.0,86.6" />
<polygon fill="none" stroke-width="1" stroke-dasharray="2" stroke="gray" points="40.5,13.5 40.5,23.5 181.9,-117.9 181.9,-127.9 173.4,-119.4 173.4,-144.9 181.9,-153.4 181.9,-153.4 181.9,-158.4 181.9,-158.4 173.4,-149.9 173.4,-175.4 181.9,-183.9 181.9,-193.9 40.5,-52.5 40.5,-42.5 40.5,-42.5 49.0,-51.0 49.0,-25.5 40.5,-17.0 40.5,-12.0 49.0,-20.5 49.0,5.0 40.5,13.5" />
<polygon fill="rgba(255,255,255,0.75)" stroke-width="1" stroke-dasharray="" stroke="black" points="193.9,-193.9 52.5,-52.5 40.5,-52.5 181.9,-193.9" />
<polygon fill="none" stroke-width="1" stroke-dasharray="2" stroke="gray" points="181.9,-117.9 40.5,23.5 52.5,23.5 193.9,-117.9" />
<polygon fill="rgba(255,255,255,0.75)" stroke-width="1" stroke-dasharray="" stroke="black" points="126.2,-28.3 111.2,-32.2 111.2,-42.2 126.2,-42.2 126.2,-28.3" />
<polygon fill="rgba(255,255,255,0.75)" stroke-width="1" stroke-dasharray="" stroke="black" points="126.2,-26.1 126.2,-12.2 111.2,-12.2 111.2,-22.2 126.2,-26.1" />
<polygon fill="rgba(255,255,255,0.75)" stroke-width="1" stroke-dasharray="" stroke="black" points="52.5,-8.9 52.5,-20.1 52.5,-20.1 61.0,-28.6 61.0,-47.9 52.5,-39.4 52.5,-52.5 193.9,-193.9 193.9,-180.8 193.9,-180.8 185.4,-172.3 185.4,-153.0 193.9,-161.5 193.9,-150.3 185.4,-141.8 185.4,-122.5 193.9,-131.0 193.9,-131.0 193.9,-117.9 52.5,23.5 52.5,10.4 61.0,1.9 61.0,-17.4 52.5,-8.9" />
<polygon fill="rgba(255,255,255,0.75)" stroke-width="1" stroke-dasharray="" stroke="black" points="511.2,-22.2 496.2,-26.1 496.2,-12.2 126.2,-12.2 126.2,-12.2 126.2,-26.1 111.2,-22.2 111.2,-32.2 126.2,-28.3 126.2,-42.2 126.2,-42.2 496.2,-42.2 496.2,-28.3 511.2,-32.2 511.2,-32.2 511.2,-22.2" />
<polygon fill="none" stroke-width="1" stroke-dasharray="2" stroke="gray" points="569.9,-150.3 569.9,-161.5 569.9,-161.5 561.4,-153.0 561.4,-172.3 569.9,-180.8 569.9,-193.9 428.5,-52.5 428.5,-39.4 428.5,-39.4 437.0,-47.9 437.0,-28.6 428.5,-20.1 428.5,-8.9 437.0,-17.4 437.0,1.9 428.5,10.4 428.5,10.4 428.5,23.5 569.9,-117.9 569.9,-131.0 561.4,-122.5 561.4,-141.8 569.9,-150.3" />
<polygon fill="rgba(255,255,255,0.75)" stroke-width="1" stroke-dasharray="" stroke="black" points="511.2,-32.2 496.2,-28.3 496.2,-42.2 511.2,-42.2 511.2,-32.2" />
<polygon fill="rgba(255,255,255,0.75)" stroke-width="1" stroke-dasharray="" stroke="black" points="511.2,-22.2 511.2,-12.2 496.2,-12.2 496.2,-26.1 511.2,-22.2" />
<polygon fill="rgba(255,255,255,0.75)" stroke-width="1" stroke-dasharray="" stroke="black" points="428.5,-52.5 569.9,-193.9 581.9,-193.9 440.5,-52.5" />
<polygon fill="none" stroke-width="1" stroke-dasharray="2" stroke="gray" points="440.5,23.5 581.9,-117.9 569.9,-117.9 428.5,23.5" />
<polygon fill="rgba(255,255,255,0.75)" stroke-width="1" stroke-dasharray="" stroke="black" points="581.9,-127.9 581.9,-117.9 440.5,23.5 440.5,13.5 449.0,5.0 449.0,-20.5 440.5,-12.0 440.5,-12.0 440.5,-17.0 440.5,-17.0 449.0,-25.5 449.0,-51.0 440.5,-42.5 440.5,-52.5 581.9,-193.9 581.9,-183.9 581.9,-183.9 573.4,-175.4 573.4,-149.9 581.9,-158.4 581.9,-153.4 573.4,-144.9 573.4,-119.4 581.9,-127.9" />
<polygon fill="none" stroke-width="1" stroke-dasharray="2" stroke="gray" points="590.4,-71.8 590.4,-93.0 590.4,-93.0 581.9,-84.5 581.9,-96.8 590.4,-105.3 590.4,-138.4 432.0,20.0 432.0,53.1 432.0,53.1 440.5,44.6 440.5,56.9 432.0,65.4 432.0,86.6 440.5,78.1 440.5,90.4 432.0,98.9 432.0,98.9 432.0,120.0 590.4,-38.4 590.4,-59.5 581.9,-51.0 581.9,-63.3 590.4,-71.8" />
<polygon fill="none" stroke-width="1" stroke-dasharray="2" stroke="gray" points="437.0,120.0 595.4,-38.4 590.4,-38.4 432.0,120.0" />
<polygon fill="rgba(255,255,255,0.75)" stroke-width="1" stroke-dasharray="" stroke="black" points="432.0,125.0 590.4,-33.4 595.4,-33.4 437.0,125.0" />
<polygon fill="rgba(255,255,255,0.75)" stroke-width="1" stroke-dasharray="" stroke="black" points="432.0,20.0 590.4,-138.4 602.4,-138.4 444.0,20.0" />
<polygon fill="none" stroke-width="1" stroke-dasharray="2" stroke="gray" points="444.0,132.0 602.4,-26.4 590.4,-26.4 432.0,132.0" />
<polygon fill="rgba(255,255,255,0.75)" stroke-width="1" stroke-dasharray="" stroke="black" points="602.4,-56.4 602.4,-26.4 444.0,132.0 444.0,102.0 452.5,93.5 452.5,75.0 444.0,83.5 444.0,83.5 444.0,68.5 444.0,68.5 452.5,60.0 452.5,41.5 444.0,50.0 444.0,20.0 602.4,-138.4 602.4,-108.4 602.4,-108.4 593.9,-99.9 593.9,-81.4 602.4,-89.9 602.4,-74.9 593.9,-66.4 593.9,-47.9 602.4,-56.4" />
<polygon fill="rgba(255,255,255,0.75)" stroke-width="1" stroke-dasharray="" stroke="black" points="61.0,-47.9 61.0,-28.6 49.0,-25.5 49.0,-51.0 61.0,-47.9" />
<polygon fill="rgba(255,255,255,0.75)" stroke-width="1" stroke-dasharray="" stroke="black" points="61.0,-17.4 61.0,1.9 49.0,5.0 49.0,-20.5 61.0,-17.4" />
<polygon fill="none" stroke-width="1" stroke-dasharray="2" stroke="gray" points="437.0,15.0 437.0,1.9 449.0,5.0 449.0,-20.5 437.0,-17.4 437.0,-28.6 449.0,-25.5 449.0,-25.5 449.0,-51.0 449.0,-51.0 437.0,-47.9 437.0,-61.0 61.0,-61.0 61.0,-47.9 49.0,-51.0 49.0,-51.0 49.0,-25.5 49.0,-25.5 61.0,-28.6 61.0,-17.4 49.0,-20.5 49.0,5.0 61.0,1.9 61.0,15.0 61.0,15.0 437.0,15.0" />
<polygon fill="rgba(255,255,255,0.75)" stroke-width="1" stroke-dasharray="" stroke="black" points="449.0,-51.0 449.0,-25.5 437.0,-28.6 437.0,-47.9 449.0,-51.0" />
<polygon fill="rgba(255,255,255,0.75)" stroke-width="1" stroke-dasharray="" stroke="black" points="449.0,-20.5 449.0,5.0 437.0,1.9 437.0,-17.4 449.0,-20.5" />
<polygon fill="none" stroke-width="1" stroke-dasharray="2" stroke="gray" points="52.5,-39.4 61.0,-47.9 49.0,-51.0 40.5,-42.5" />
<polygon fill="rgba(255,255,255,0.75)" stroke-width="1" stroke-dasharray="" stroke="silver" points="40.5,-17.0 49.0,-25.5 61.0,-28.6 52.5,-20.1" />
<polygon fill="none" stroke-width="1" stroke-dasharray="2" stroke="gray" points="52.5,-8.9 61.0,-17.4 49.0,-20.5 40.5,-12.0" />
<polygon fill="rgba(255,255,255,0.75)" stroke-width="1" stroke-dasharray="" stroke="silver" points="40.5,13.5 49.0,5.0 61.0,1.9 52.5,10.4" />
<polygon fill="none" stroke-width="1" stroke-dasharray="2" stroke="gray" points="40.5,-42.5 40.5,-17.0 49.0,-25.5 49.0,-51.0 40.5,-42.5" />
<polygon fill="none" stroke-width="1" stroke-dasharray="2" stroke="gray" points="40.5,-12.0 40.5,13.5 49.0,5.0 49.0,-20.5 40.5,-12.0" />
<polygon fill="rgba(255,255,255,0.75)" stroke-width="1" stroke-dasharray="" stroke="black" points="49.0,-51.0 61.0,-47.9 52.5,-39.4 40.5,-42.5" />
<polygon fill="none" stroke-width="1" stroke-dasharray="2" stroke="gray" points="40.5,-17.0 52.5,-20.1 61.0,-28.6 49.0,-25.5" />
<polygon fill="rgba(255,255,255,0.75)" stroke-width="1" stroke-dasharray="" stroke="black" points="49.0,-20.5 61.0,-17.4 52.5,-8.9 40.5,-12.0" />
<polygon fill="none" stroke-width="1" stroke-dasharray="2" stroke="gray" points="40.5,13.5 52.5,10.4 61.0,1.9 49.0,5.0" />
<polygon fill="none" stroke-width="1" stroke-dasharray="2" stroke="gray" points="52.5,-39.4 61.0,-47.9 61.0,-61.0 52.5,-52.5 52.5,-39.4" />
<polygon fill="none" stroke-width="1" stroke-dasharray="2" stroke="gray" points="52.5,-20.1 52.5,-8.9 61.0,-17.4 61.0,-28.6 52.5,-20.1" />
<polygon fill="none" stroke-width="1" stroke-dasharray="2" stroke="gray" points="52.5,10.4 52.5,23.5 61.0,15.0 61.0,1.9 52.5,10.4" />
<polygon fill="rgba(255,255,255,0.75)" stroke-width="1" stroke-dasharray="" stroke="black" points="428.5,-52.5 52.5,-52.5 52.5,-52.5 61.0,-61.0 437.0,-61.0 428.5,-52.5" />
<polygon fill="none" stroke-width="1" stroke-dasharray="2" stroke="gray" points="428.5,23.5 437.0,15.0 61.0,15.0 52.5,23.5 52.5,23.5 428.5,23.5" />
<polygon fill="rgba(255,255,255,0.75)" stroke-width="1" stroke-dasharray="" stroke="black" points="437.0,-47.9 428.5,-39.4 428.5,-52.5 437.0,-61.0 437.0,-47.9" />
<polygon fill="rgba(255,255,255,0.75)" stroke-width="1" stroke-dasharray="" stroke="black" points="437.0,-28.6 437.0,-17.4 428.5,-8.9 428.5,-20.1 437.0,-28.6" />
<polygon fill="rgba(255,255,255,0.75)" stroke-width="1" stroke-dasharray="" stroke="black" points="437.0,1.9 437.0,15.0 428.5,23.5 428.5,10.4 437.0,1.9" />
<polygon fill="rgba(255,255,255,0.75)" stroke-width="1" stroke-dasharray="" stroke="silver" points="440.5,-42.5 428.5,-39.4 437.0,-47.9 449.0,-51.0" />
<polygon fill="none" stroke-width="1" stroke-dasharray="2" stroke="gray" points="440.5,-42.5 449.0,-51.0 437.0,-47.9 428.5,-39.4" />
<polygon fill="none" stroke-width="1" stroke-dasharray="2" stroke="gray" points="449.0,-25.5 437.0,-28.6 428.5,-20.1 440.5,-17.0" />
<polygon fill="rgba(255,255,255,0.75)" stroke-width="1" stroke-dasharray="" stroke="black" points="428.5,-20.1 437.0,-28.6 449.0,-25.5 440.5,-17.0" />
<polygon fill="rgba(255,255,255,0.75)" stroke-width="1" stroke-dasharray="" stroke="silver" points="440.5,-12.0 428.5,-8.9 437.0,-17.4 449.0,-20.5" />
<polygon fill="none" stroke-width="1" stroke-dasharray="2" stroke="gray" points="440.5,-12.0 449.0,-20.5 437.0,-17.4 428.5,-8.9" />
<polygon fill="none" stroke-width="1" stroke-dasharray="2" stroke="gray" points="449.0,5.0 437.0,1.9 428.5,10.4 440.5,13.5" />
<polygon fill="rgba(255,255,255,0.75)" stroke-width="1" stroke-dasharray="" stroke="black" points="428.5,10.4 437.0,1.9 449.0,5.0 440.5,13.5" />
<polygon fill="rgba(255,255,255,0.75)" stroke-width="1" stroke-dasharray="" stroke="black" points="449.0,-51.0 449.0,-25.5 440.5,-17.0 440.5,-42.5 449.0,-51.0" />
<polygon fill="rgba(255,255,255,0.75)" stroke-width="1" stroke-dasharray="" stroke="black" points="449.0,-20.5 449.0,5.0 440.5,13.5 440.5,-12.0 449.0,-20.5" />
<polygon fill="rgba(255,255,255,0.75)" stroke-width="1" stroke-dasharray="" stroke="black" points="40.5,44.6 40.5,56.9 28.5,60.0 28.5,41.5 40.5,44.6" />
<polygon fill="rgba(255,255,255,0.75)" stroke-width="1" stroke-dasharray="" stroke="black" points="40.5,78.1 40.5,90.4 28.5,93.5 28.5,75.0 40.5,78.1" />
<polygon fill="rgba(255,255,255,0.75)" stroke-width="1" stroke-dasharray="" stroke="black" points="52.5,-39.4 40.5,-42.5 40.5,-52.5 52.5,-52.5 52.5,-39.4" />
<polygon fill="rgba(255,255,255,0.75)" stroke-width="1" stroke-dasharray="" stroke="black" points="52.5,-20.1 52.5,-8.9 40.5,-12.0 40.5,-17.0 52.5,-20.1" />
<polygon fill="rgba(255,255,255,0.75)" stroke-width="1" stroke-dasharray="" stroke="black" points="52.5,10.4 52.5,23.5 40.5,23.5 40.5,13.5 52.5,10.4" />
<polygon fill="rgba(255,255,255,0.75)" stroke-width="1" stroke-dasharray="" stroke="black" points="440.5,13.5 428.5,10.4 428.5,23.5 52.5,23.5 52.5,10.4 40.5,13.5 40.5,13.5 40.5,-12.0 40.5,-12.0 52.5,-8.9 52.5,-20.1 40.5,-17.0 40.5,-42.5 52.5,-39.4 52.5,-52.5 52.5,-52.5 428.5,-52.5 428.5,-52.5 428.5,-39.4 440.5,-42.5 440.5,-17.0 428.5,-20.1 428.5,-8.9 440.5,-12.0 440.5,-12.0 440.5,13.5" />
<polygon fill="none" stroke-width="1" stroke-dasharray="2" stroke="gray" points="440.5,111.5 440.5,90.4 452.5,93.5 452.5,75.0 440.5,78.1 440.5,56.9 452.5,60.0 452.5,60.0 452.5,41.5 452.5,41.5 440.5,44.6 440.5,11.5 40.5,11.5 40.5,44.6 28.5,41.5 28.5,41.5 28.5,60.0 28.5,60.0 40.5,56.9 40.5,78.1 28.5,75.0 28.5,93.5 40.5,90.4 40.5,111.5 40.5,111.5 440.5,111.5" />
<polygon fill="rgba(255,255,255,0.75)" stroke-width="1" stroke-dasharray="" stroke="black" points="440.5,-42.5 428.5,-39.4 428.5,-52.5 440.5,-52.5 440.5,-42.5" />
<polygon fill="rgba(255,255,255,0.75)" stroke-width="1" stroke-dasharray="" stroke="black" points="440.5,-17.0 440.5,-12.0 428.5,-8.9 428.5,-20.1 440.5,-17.0" />
<polygon fill="rgba(255,255,255,0.75)" stroke-width="1" stroke-dasharray="" stroke="black" points="440.5,13.5 440.5,23.5 428.5,23.5 428.5,10.4 440.5,13.5" />
<polygon fill="rgba(255,255,255,0.75)" stroke-width="1" stroke-dasharray="" stroke="black" points="452.5,41.5 452.5,60.0 440.5,56.9 440.5,44.6 452.5,41.5" />
<polygon fill="rgba(255,255,255,0.75)" stroke-width="1" stroke-dasharray="" stroke="black" points="452.5,75.0 452.5,93.5 440.5,90.4 440.5,78.1 452.5,75.0" />
<polygon fill="none" stroke-width="1" stroke-dasharray="2" stroke="gray" points="436.9,115.1 440.5,111.5 40.5,111.5 37.0,115.1 37.0,115.1 436.9,115.1" />
<polygon fill="rgba(255,255,255,0.75)" stroke-width="1" stroke-dasharray="" stroke="black" points="436.9,120.1 37.0,120.1 37.0,120.1 40.5,116.5 440.5,116.5 436.9,120.1" />
<polygon fill="none" stroke-width="1" stroke-dasharray="2" stroke="gray" points="32.0,53.1 40.5,44.6 28.5,41.5 20.0,50.0" />
<polygon fill="rgba(255,255,255,0.75)" stroke-width="1" stroke-dasharray="" stroke="silver" points="20.0,68.5 28.5,60.0 40.5,56.9 32.0,65.4" />
<polygon fill="none" stroke-width="1" stroke-dasharray="2" stroke="gray" points="32.0,86.6 40.5,78.1 28.5,75.0 20.0,83.5" />
<polygon fill="rgba(255,255,255,0.75)" stroke-width="1" stroke-dasharray="" stroke="silver" points="20.0,102.0 28.5,93.5 40.5,90.4 32.0,98.9" />
<polygon fill="none" stroke-width="1" stroke-dasharray="2" stroke="gray" points="20.0,50.0 20.0,68.5 28.5,60.0 28.5,41.5 20.0,50.0" />
<polygon fill="none" stroke-width="1" stroke-dasharray="2" stroke="gray" points="20.0,83.5 20.0,102.0 28.5,93.5 28.5,75.0 20.0,83.5" />
<polygon fill="rgba(255,255,255,0.75)" stroke-width="1" stroke-dasharray="" stroke="black" points="28.5,41.5 40.5,44.6 32.0,53.1 20.0,50.0" />
<polygon fill="none" stroke-width="1" stroke-dasharray="2" stroke="gray" points="20.0,68.5 32.0,65.4 40.5,56.9 28.5,60.0" />
<polygon fill="rgba(255,255,255,0.75)" stroke-width="1" stroke-dasharray="" stroke="black" points="28.5,75.0 40.5,78.1 32.0,86.6 20.0,83.5" />
<polygon fill="none" stroke-width="1" stroke-dasharray="2" stroke="gray" points="20.0,102.0 32.0,98.9 40.5,90.4 28.5,93.5" />
<polygon fill="none" stroke-width="1" stroke-dasharray="2" stroke="gray" points="32.0,53.1 40.5,44.6 40.5,11.5 32.0,20.0 32.0,53.1" />
<polygon fill="none" stroke-width="1" stroke-dasharray="2" stroke="gray" points="32.0,65.4 32.0,86.6 40.5,78.1 40.5,56.9 32.0,65.4" />
<polygon fill="none" stroke-width="1" stroke-dasharray="2" stroke="gray" points="32.0,98.9 32.0,132.0 40.5,123.5 40.5,116.5 36.9,120.1 36.9,115.1 40.5,111.5 40.5,90.4 32.0,98.9" />
<polygon fill="rgba(255,255,255,0.75)" stroke-width="1" stroke-dasharray="" stroke="black" points="432.0,20.0 32.0,20.0 32.0,20.0 40.5,11.5 440.5,11.5 432.0,20.0" />
<polygon fill="none" stroke-width="1" stroke-dasharray="2" stroke="gray" points="432.0,132.0 440.5,123.5 40.5,123.5 32.0,132.0 32.0,132.0 432.0,132.0" />
<polygon fill="rgba(255,255,255,0.75)" stroke-width="1" stroke-dasharray="" stroke="black" points="440.5,44.6 432.0,53.1 432.0,20.0 440.5,11.5 440.5,44.6" />
<polygon fill="rgba(255,255,255,0.75)" stroke-width="1" stroke-dasharray="" stroke="black" points="440.5,56.9 440.5,78.1 432.0,86.6 432.0,65.4 440.5,56.9" />
<polygon fill="rgba(255,255,255,0.75)" stroke-width="1" stroke-dasharray="" stroke="black" points="440.5,90.4 440.5,111.5 436.9,115.1 436.9,120.1 440.5,116.5 440.5,123.5 432.0,132.0 432.0,98.9 440.5,90.4" />
<polygon fill="rgba(255,255,255,0.75)" stroke-width="1" stroke-dasharray="" stroke="silver" points="444.0,50.0 432.0,53.1 440.5,44.6 452.5,41.5" />
<polygon fill="none" stroke-width="1" stroke-dasharray="2" stroke="gray" points="444.0,50.0 452.5,41.5 440.5,44.6 432.0,53.1" />
<polygon fill="none" stroke-width="1" stroke-dasharray="2" stroke="gray" points="452.5,60.0 440.5,56.9 432.0,65.4 444.0,68.5" />
<polygon fill="rgba(255,255,255,0.75)" stroke-width="1" stroke-dasharray="" stroke="black" points="432.0,65.4 440.5,56.9 452.5,60.0 444.0,68.5" />
<polygon fill="rgba(255,255,255,0.75)" stroke-width="1" stroke-dasharray="" stroke="silver" points="444.0,83.5 432.0,86.6 440.5,78.1 452.5,75.0" />
<polygon fill="none" stroke-width="1" stroke-dasharray="2" stroke="gray" points="444.0,83.5 452.5,75.0 440.5,78.1 432.0,86.6" />
<polygon fill="none" stroke-width="1" stroke-dasharray="2" stroke="gray" points="452.5,93.5 440.5,90.4 432.0,98.9 444.0,102.0" />
<polygon fill="rgba(255,255,255,0.75)" stroke-width="1" stroke-dasharray="" stroke="black" points="432.0,98.9 440.5,90.4 452.5,93.5 444.0,102.0" />
<polygon fill="rgba(255,255,255,0.75)" stroke-width="1" stroke-dasharray="" stroke="black" points="452.5,41.5 452.5,60.0 444.0,68.5 444.0,50.0 452.5,41.5" />
<polygon fill="rgba(255,255,255,0.75)" stroke-width="1" stroke-dasharray="" stroke="black" points="452.5,75.0 452.5,93.5 444.0,102.0 444.0,83.5 452.5,75.0" />
<polygon fill="rgba(255,255,255,0.75)" stroke-width="1" stroke-dasharray="" stroke="black" points="32.0,53.1 20.0,50.0 20.0,20.0 32.0,20.0 32.0,53.1" />
<polygon fill="rgba(255,255,255,0.75)" stroke-width="1" stroke-dasharray="" stroke="black" points="32.0,65.4 32.0,86.6 20.0,83.5 20.0,68.5 32.0,65.4" />
<polygon fill="rgba(255,255,255,0.75)" stroke-width="1" stroke-dasharray="" stroke="black" points="32.0,98.9 32.0,120.0 27.0,120.0 27.0,125.0 32.0,125.0 32.0,132.0 20.0,132.0 20.0,102.0 32.0,98.9" />
<polygon fill="rgba(255,255,255,0.75)" stroke-width="1" stroke-dasharray="" stroke="black" points="444.0,50.0 432.0,53.1 432.0,20.0 444.0,20.0 444.0,50.0" />
<polygon fill="rgba(255,255,255,0.75)" stroke-width="1" stroke-dasharray="" stroke="black" points="444.0,68.5 444.0,83.5 432.0,86.6 432.0,65.4 444.0,68.5" />
<polygon fill="rgba(255,255,255,0.75)" stroke-width="1" stroke-dasharray="" stroke="black" points="444.0,102.0 444.0,132.0 432.0,132.0 432.0,125.0 437.0,125.0 437.0,120.0 432.0,120.0 432.0,98.9 444.0,102.0" />
<polygon fill="rgba(255,255,255,0.75)" stroke-width="1" stroke-dasharray="" stroke="black" points="444.0,102.0 432.0,98.9 432.0,132.0 32.0,132.0 32.0,98.9 20.0,102.0 20.0,102.0 20.0,83.5 20.0,83.5 32.0,86.6 32.0,65.4 20.0,68.5 20.0,50.0 32.0,53.1 32.0,20.0 32.0,20.0 432.0,20.0 432.0,20.0 432.0,53.1 444.0,50.0 444.0,68.5 432.0,65.4 432.0,86.6 444.0,83.5 444.0,83.5 444.0,102.0" />
</svg>
