<svg width="1400" viewBox="0 0 1400 1478.6066017177982" xmlns="http://www.w3.org/2000/svg">
<polygon fill="none" stroke-width="1" stroke-dasharray="2" stroke="gray" points="12.121320343559642,12.121320343559642 12.121320343559642,332.12132034355966 432.12132034355966,332.12132034355966 432.12132034355966,12.121320343559642" />
<polygon fill="none" stroke-width="1" stroke-dasharray="2" stroke="gray" points="10.0,10.0 10.0,330.0 12.121320343559642,332.12132034355966 12.121320343559642,12.121320343559642" />
<polygon fill="none" stroke-width="1" stroke-dasharray="2" stroke="gray" points="12.121320343559642,12.121320343559642 432.12132034355966,12.121320343559642 430.0,10.0 10.0,10.0" />
<polygon fill="rgba(192,192,192,0.75)" stroke-width="1" stroke-dasharray="" stroke="black" points="10.0,330.0 430.0,330.0 432.12132034355966,332.12132034355966 12.121320343559642,332.12132034355966" />
<polygon fill="rgba(255,255,255,0.75)" stroke-width="1" stroke-dasharray="" stroke="black" points="432.12132034355966,12.121320343559642 432.12132034355966,332.12132034355966 430.0,330.0 430.0,10.0" />
<polygon fill="rgba(255,255,255,0.75)" stroke-width="1" stroke-dasharray="" stroke="black" points="10.0,10.0 430.0,10.0 430.0,330.0 10.0,330.0" />
<polygon fill="rgba(0,255,0,0.25)" stroke-width="1" stroke-dasharray="" stroke="green" points="410.0,10.0 416.0,10.0 416.0,330.0 418.12132034355966,332.12132034355966 412.12132034355966,332.12132034355966 410.0,330.0" />
<text style="" text-anchor="left" x="420.0" y="20" fill="black">1</text>
<polygon fill="rgba(255,0,0,0.25)" stroke-width="1" stroke-dasharray="" stroke="rgba(255,0,0,0.25)" points="415.0,10.0 431.0,10.0 431.0,330.0 433.12132034355966,332.12132034355966 417.12132034355966,332.12132034355966 415.0,330.0" />
<polygon fill="rgba(0,0,255,0.25)" stroke-width="1" stroke-dasharray="" stroke="blue" points="10.0,110.0 411.0,110.0 411.0,115.0 10.0,115.0" />
<text style="" text-anchor="left" x="20" y="120.0" fill="black">2</text>
<polygon fill="rgba(0,0,255,0.25)" stroke-width="1" stroke-dasharray="" stroke="blue" points="10.0,315.0 411.0,315.0 411.0,320.0 10.0,320.0" />
<text style="" text-anchor="left" x="20" y="325.0" fill="black">3</text>
<polygon fill="rgba(255,0,0,0.25)" stroke-width="1" stroke-dasharray="" stroke="rgba(255,0,0,0.25)" points="10.0,320.0 411.0,320.0 411.0,330.0 413.12132034355966,332.12132034355966 12.121320343559642,332.12132034355966 10.0,330.0" />
<text style="" text-anchor="start" x="210.0" y="60.0" fill="black">till bottom</text>
<text style="" text-anchor="start" x="210.0" y="215.0" fill="black">box bottom</text>
<polygon fill="none" stroke-width="1" stroke-dasharray="2" stroke="gray" points="20.606601717798213,346.6066017177982 20.606601717798213,481.6066017177982 760.6066017177982,481.6066017177982 760.6066017177982,346.6066017177982" />
<polygon fill="none" stroke-width="1" stroke-dasharray="2" stroke="gray" points="10.0,336.0 10.0,471.0 20.606601717798213,481.6066017177982 20.606601717798213,346.6066017177982" />
<polygon fill="none" stroke-width="1" stroke-dasharray="2" stroke="gray" points="20.606601717798213,346.6066017177982 760.6066017177982,346.6066017177982 750.0,336.0 10.0,336.0" />
<polygon fill="rgba(192,192,192,0.75)" stroke-width="1" stroke-dasharray="" stroke="black" points="10.0,471.0 750.0,471.0 760.6066017177982,481.6066017177982 20.606601717798213,481.6066017177982" />
<polygon fill="rgba(255,255,255,0.75)" stroke-width="1" stroke-dasharray="" stroke="black" points="760.6066017177982,346.6066017177982 760.6066017177982,481.6066017177982 750.0,471.0 750.0,336.0" />
<polygon fill="rgba(255,255,255,0.75)" stroke-width="1" stroke-dasharray="" stroke="black" points="10.0,336.0 750.0,336.0 750.0,471.0 10.0,471.0" />
<polygon fill="rgba(0,255,0,0.25)" stroke-width="1" stroke-dasharray="" stroke="green" points="434.0,336.0 440.0,336.0 440.0,471.0 450.6066017177982,481.6066017177982 444.6066017177982,481.6066017177982 434.0,471.0" />
<text style="" text-anchor="left" x="444.0" y="346" fill="black">1</text>
<polygon fill="rgba(0,255,0,0.25)" stroke-width="1" stroke-dasharray="" stroke="green" points="823.0,336.0 829.0,336.0 829.0,471.0 839.6066017177982,481.6066017177982 833.6066017177982,481.6066017177982 823.0,471.0" />
<text style="" text-anchor="left" x="833.0" y="346" fill="black">2</text>
<polygon fill="rgba(255,0,0,0.25)" stroke-width="1" stroke-dasharray="" stroke="rgba(255,0,0,0.25)" points="828.0,336.0 751.0,336.0 751.0,471.0 761.6066017177982,481.6066017177982 838.6066017177982,481.6066017177982 828.0,471.0" />
<text style="" text-anchor="start" x="222.0" y="403.5" fill="black">base bottom a</text>
<text style="" text-anchor="start" x="631.0" y="403.5" fill="black">box lid a</text>
<polygon fill="none" stroke-width="1" stroke-dasharray="2" stroke="gray" points="20.606601717798213,511.6066017177982 20.606601717798213,646.6066017177982 760.6066017177982,646.6066017177982 760.6066017177982,511.6066017177982" />
<polygon fill="none" stroke-width="1" stroke-dasharray="2" stroke="gray" points="10.0,501.0 10.0,636.0 20.606601717798213,646.6066017177982 20.606601717798213,511.6066017177982" />
<polygon fill="none" stroke-width="1" stroke-dasharray="2" stroke="gray" points="20.606601717798213,511.6066017177982 760.6066017177982,511.6066017177982 750.0,501.0 10.0,501.0" />
<polygon fill="rgba(192,192,192,0.75)" stroke-width="1" stroke-dasharray="" stroke="black" points="10.0,636.0 750.0,636.0 760.6066017177982,646.6066017177982 20.606601717798213,646.6066017177982" />
<polygon fill="rgba(255,255,255,0.75)" stroke-width="1" stroke-dasharray="" stroke="black" points="760.6066017177982,511.6066017177982 760.6066017177982,646.6066017177982 750.0,636.0 750.0,501.0" />
<polygon fill="rgba(255,255,255,0.75)" stroke-width="1" stroke-dasharray="" stroke="black" points="10.0,501.0 750.0,501.0 750.0,636.0 10.0,636.0" />
<polygon fill="rgba(0,255,0,0.25)" stroke-width="1" stroke-dasharray="" stroke="green" points="434.0,501.0 440.0,501.0 440.0,636.0 450.6066017177982,646.6066017177982 444.6066017177982,646.6066017177982 434.0,636.0" />
<text style="" text-anchor="left" x="444.0" y="511" fill="black">1</text>
<polygon fill="rgba(0,255,0,0.25)" stroke-width="1" stroke-dasharray="" stroke="green" points="823.0,501.0 829.0,501.0 829.0,636.0 839.6066017177982,646.6066017177982 833.6066017177982,646.6066017177982 823.0,636.0" />
<text style="" text-anchor="left" x="833.0" y="511" fill="black">2</text>
<polygon fill="rgba(255,0,0,0.25)" stroke-width="1" stroke-dasharray="" stroke="rgba(255,0,0,0.25)" points="828.0,501.0 751.0,501.0 751.0,636.0 761.6066017177982,646.6066017177982 838.6066017177982,646.6066017177982 828.0,636.0" />
<text style="" text-anchor="start" x="222.0" y="568.5" fill="black">base bottom b</text>
<text style="" text-anchor="start" x="631.0" y="568.5" fill="black">box lid b</text>
<polygon fill="none" stroke-width="1" stroke-dasharray="2" stroke="gray" points="18.48528137423857,674.4852813742385 18.48528137423857,854.4852813742385 808.4852813742385,854.4852813742385 808.4852813742385,674.4852813742385" />
<polygon fill="none" stroke-width="1" stroke-dasharray="2" stroke="gray" points="10.0,666.0 10.0,846.0 18.48528137423857,854.4852813742385 18.48528137423857,674.4852813742385" />
<polygon fill="none" stroke-width="1" stroke-dasharray="2" stroke="gray" points="18.48528137423857,674.4852813742385 808.4852813742385,674.4852813742385 800.0,666.0 10.0,666.0" />
<polygon fill="rgba(192,192,192,0.75)" stroke-width="1" stroke-dasharray="" stroke="black" points="10.0,846.0 800.0,846.0 808.4852813742385,854.4852813742385 18.48528137423857,854.4852813742385" />
<polygon fill="rgba(255,255,255,0.75)" stroke-width="1" stroke-dasharray="" stroke="black" points="808.4852813742385,674.4852813742385 808.4852813742385,854.4852813742385 800.0,846.0 800.0,666.0" />
<polygon fill="rgba(255,255,255,0.75)" stroke-width="1" stroke-dasharray="" stroke="black" points="10.0,666.0 800.0,666.0 800.0,846.0 10.0,846.0" />
<polygon fill="rgba(0,0,255,0.25)" stroke-width="1" stroke-dasharray="" stroke="blue" points="10.0,778.0 801.0,778.0 801.0,783.0 10.0,783.0" />
<text style="" text-anchor="left" x="20" y="788.0" fill="black">1</text>
<polygon fill="rgba(0,0,255,0.25)" stroke-width="1" stroke-dasharray="" stroke="blue" points="10.0,813.0 801.0,813.0 801.0,818.0 10.0,818.0" />
<text style="" text-anchor="left" x="20" y="823.0" fill="black">2</text>
<polygon fill="rgba(255,0,0,0.25)" stroke-width="1" stroke-dasharray="" stroke="rgba(255,0,0,0.25)" points="10.0,818.0 801.0,818.0 801.0,846.0 809.4852813742385,854.4852813742385 18.48528137423857,854.4852813742385 10.0,846.0" />
<polygon fill="rgba(0,255,0,0.25)" stroke-width="1" stroke-dasharray="" stroke="green" points="434.0,666.0 440.0,666.0 440.0,778.0 434.0,778.0" />
<text style="" text-anchor="left" x="444.0" y="676" fill="black">3</text>
<polygon fill="rgba(0,255,0,0.25)" stroke-width="1" stroke-dasharray="" stroke="green" points="663.0,666.0 669.0,666.0 669.0,778.0 663.0,778.0" />
<text style="" text-anchor="left" x="673.0" y="676" fill="black">4</text>
<polygon fill="rgba(255,0,0,0.25)" stroke-width="1" stroke-dasharray="" stroke="rgba(255,0,0,0.25)" points="668.0,666.0 801.0,666.0 801.0,778.0 668.0,778.0" />
<text style="" text-anchor="start" x="222.0" y="722.0" fill="black">base front</text>
<text style="" text-anchor="start" x="551.0" y="722.0" fill="black">base left</text>
<polygon fill="rgba(0,255,0,0.25)" stroke-width="1" stroke-dasharray="" stroke="green" points="210.0,783.0 216.0,783.0 216.0,813.0 210.0,813.0" />
<text style="" text-anchor="left" x="220.0" y="793.0" fill="black">5</text>
<polygon fill="rgba(0,255,0,0.25)" stroke-width="1" stroke-dasharray="" stroke="green" points="415.0,783.0 421.0,783.0 421.0,813.0 415.0,813.0" />
<text style="" text-anchor="left" x="425.0" y="793.0" fill="black">6</text>
<polygon fill="rgba(0,255,0,0.25)" stroke-width="1" stroke-dasharray="" stroke="green" points="620.0,783.0 626.0,783.0 626.0,813.0 620.0,813.0" />
<text style="" text-anchor="left" x="630.0" y="793.0" fill="black">7</text>
<polygon fill="rgba(255,0,0,0.25)" stroke-width="1" stroke-dasharray="" stroke="rgba(255,0,0,0.25)" points="625.0,783.0 801.0,783.0 801.0,813.0 625.0,813.0" />
<text style="" text-anchor="start" x="110.0" y="798.0" fill="black">batten</text>
<text style="" text-anchor="start" x="315.0" y="798.0" fill="black">batten</text>
<text style="" text-anchor="start" x="520.0" y="798.0" fill="black">batten</text>
<polygon fill="none" stroke-width="1" stroke-dasharray="2" stroke="gray" points="18.48528137423857,878.4852813742385 18.48528137423857,1058.4852813742386 808.4852813742385,1058.4852813742386 808.4852813742385,878.4852813742385" />
<polygon fill="none" stroke-width="1" stroke-dasharray="2" stroke="gray" points="10.0,870.0 10.0,1050.0 18.48528137423857,1058.4852813742386 18.48528137423857,878.4852813742385" />
<polygon fill="none" stroke-width="1" stroke-dasharray="2" stroke="gray" points="18.48528137423857,878.4852813742385 808.4852813742385,878.4852813742385 800.0,870.0 10.0,870.0" />
<polygon fill="rgba(192,192,192,0.75)" stroke-width="1" stroke-dasharray="" stroke="black" points="10.0,1050.0 800.0,1050.0 808.4852813742385,1058.4852813742386 18.48528137423857,1058.4852813742386" />
<polygon fill="rgba(255,255,255,0.75)" stroke-width="1" stroke-dasharray="" stroke="black" points="808.4852813742385,878.4852813742385 808.4852813742385,1058.4852813742386 800.0,1050.0 800.0,870.0" />
<polygon fill="rgba(255,255,255,0.75)" stroke-width="1" stroke-dasharray="" stroke="black" points="10.0,870.0 800.0,870.0 800.0,1050.0 10.0,1050.0" />
<polygon fill="rgba(0,0,255,0.25)" stroke-width="1" stroke-dasharray="" stroke="blue" points="10.0,982.0 801.0,982.0 801.0,987.0 10.0,987.0" />
<text style="" text-anchor="left" x="20" y="992.0" fill="black">1</text>
<polygon fill="rgba(0,0,255,0.25)" stroke-width="1" stroke-dasharray="" stroke="blue" points="10.0,1017.0 801.0,1017.0 801.0,1022.0 10.0,1022.0" />
<text style="" text-anchor="left" x="20" y="1027.0" fill="black">2</text>
<polygon fill="rgba(255,0,0,0.25)" stroke-width="1" stroke-dasharray="" stroke="rgba(255,0,0,0.25)" points="10.0,1022.0 801.0,1022.0 801.0,1050.0 809.4852813742385,1058.4852813742386 18.48528137423857,1058.4852813742386 10.0,1050.0" />
<polygon fill="rgba(0,255,0,0.25)" stroke-width="1" stroke-dasharray="" stroke="green" points="434.0,870.0 440.0,870.0 440.0,982.0 434.0,982.0" />
<text style="" text-anchor="left" x="444.0" y="880" fill="black">3</text>
<polygon fill="rgba(0,255,0,0.25)" stroke-width="1" stroke-dasharray="" stroke="green" points="663.0,870.0 669.0,870.0 669.0,982.0 663.0,982.0" />
<text style="" text-anchor="left" x="673.0" y="880" fill="black">4</text>
<polygon fill="rgba(255,0,0,0.25)" stroke-width="1" stroke-dasharray="" stroke="rgba(255,0,0,0.25)" points="668.0,870.0 801.0,870.0 801.0,982.0 668.0,982.0" />
<text style="" text-anchor="start" x="222.0" y="926.0" fill="black">base back</text>
<text style="" text-anchor="start" x="551.0" y="926.0" fill="black">base right</text>
<polygon fill="rgba(0,255,0,0.25)" stroke-width="1" stroke-dasharray="" stroke="green" points="210.0,987.0 216.0,987.0 216.0,1017.0 210.0,1017.0" />
<text style="" text-anchor="left" x="220.0" y="997.0" fill="black">5</text>
<polygon fill="rgba(255,0,0,0.25)" stroke-width="1" stroke-dasharray="" stroke="rgba(255,0,0,0.25)" points="215.0,987.0 801.0,987.0 801.0,1017.0 215.0,1017.0" />
<text style="" text-anchor="start" x="110.0" y="1002.0" fill="black">bottom brace</text>
<polygon fill="none" stroke-width="1" stroke-dasharray="2" stroke="gray" points="18.48528137423857,1082.4852813742386 18.48528137423857,1262.4852813742386 808.4852813742385,1262.4852813742386 808.4852813742385,1082.4852813742386" />
<polygon fill="none" stroke-width="1" stroke-dasharray="2" stroke="gray" points="10.0,1074.0 10.0,1254.0 18.48528137423857,1262.4852813742386 18.48528137423857,1082.4852813742386" />
<polygon fill="none" stroke-width="1" stroke-dasharray="2" stroke="gray" points="18.48528137423857,1082.4852813742386 808.4852813742385,1082.4852813742386 800.0,1074.0 10.0,1074.0" />
<polygon fill="rgba(192,192,192,0.75)" stroke-width="1" stroke-dasharray="" stroke="black" points="10.0,1254.0 800.0,1254.0 808.4852813742385,1262.4852813742386 18.48528137423857,1262.4852813742386" />
<polygon fill="rgba(255,255,255,0.75)" stroke-width="1" stroke-dasharray="" stroke="black" points="808.4852813742385,1082.4852813742386 808.4852813742385,1262.4852813742386 800.0,1254.0 800.0,1074.0" />
<polygon fill="rgba(255,255,255,0.75)" stroke-width="1" stroke-dasharray="" stroke="black" points="10.0,1074.0 800.0,1074.0 800.0,1254.0 10.0,1254.0" />
<polygon fill="rgba(0,0,255,0.25)" stroke-width="1" stroke-dasharray="" stroke="blue" points="10.0,1150.0 801.0,1150.0 801.0,1155.0 10.0,1155.0" />
<text style="" text-anchor="left" x="20" y="1160.0" fill="black">1</text>
<polygon fill="rgba(0,0,255,0.25)" stroke-width="1" stroke-dasharray="" stroke="blue" points="10.0,1231.0 801.0,1231.0 801.0,1236.0 10.0,1236.0" />
<text style="" text-anchor="left" x="20" y="1241.0" fill="black">2</text>
<polygon fill="rgba(255,0,0,0.25)" stroke-width="1" stroke-dasharray="" stroke="rgba(255,0,0,0.25)" points="10.0,1236.0 801.0,1236.0 801.0,1254.0 809.4852813742385,1262.4852813742386 18.48528137423857,1262.4852813742386 10.0,1254.0" />
<polygon fill="rgba(0,255,0,0.25)" stroke-width="1" stroke-dasharray="" stroke="green" points="410.0,1074.0 416.0,1074.0 416.0,1150.0 410.0,1150.0" />
<text style="" text-anchor="left" x="420.0" y="1084" fill="black">3</text>
<polygon fill="rgba(0,255,0,0.25)" stroke-width="1" stroke-dasharray="" stroke="green" points="615.0,1074.0 621.0,1074.0 621.0,1150.0 615.0,1150.0" />
<text style="" text-anchor="left" x="625.0" y="1084" fill="black">4</text>
<polygon fill="rgba(255,0,0,0.25)" stroke-width="1" stroke-dasharray="" stroke="rgba(255,0,0,0.25)" points="620.0,1074.0 801.0,1074.0 801.0,1150.0 620.0,1150.0" />
<polygon fill="rgba(0,255,0,0.25)" stroke-width="1" stroke-dasharray="" stroke="green" points="410.0,1155.0 416.0,1155.0 416.0,1231.0 410.0,1231.0" />
<text style="" text-anchor="left" x="420.0" y="1165.0" fill="black">5</text>
<polygon fill="rgba(0,255,0,0.25)" stroke-width="1" stroke-dasharray="" stroke="green" points="615.0,1155.0 621.0,1155.0 621.0,1231.0 615.0,1231.0" />
<text style="" text-anchor="left" x="625.0" y="1165.0" fill="black">6</text>
<polygon fill="rgba(255,0,0,0.25)" stroke-width="1" stroke-dasharray="" stroke="rgba(255,0,0,0.25)" points="620.0,1155.0 801.0,1155.0 801.0,1231.0 620.0,1231.0" />
<text style="" text-anchor="start" x="210.0" y="1112.0" fill="black">box front</text>
<text style="" text-anchor="start" x="515.0" y="1112.0" fill="black">box left</text>
<text style="" text-anchor="start" x="210.0" y="1193.0" fill="black">box back</text>
<text style="" text-anchor="start" x="515.0" y="1193.0" fill="black">box right</text>
<polygon fill="none" stroke-width="1" stroke-dasharray="2" stroke="gray" points="20.606601717798213,1288.6066017177982 20.606601717798213,1423.6066017177982 760.6066017177982,1423.6066017177982 760.6066017177982,1288.6066017177982" />
<polygon fill="none" stroke-width="1" stroke-dasharray="2" stroke="gray" points="10.0,1278.0 10.0,1413.0 20.606601717798213,1423.6066017177982 20.606601717798213,1288.6066017177982" />
<polygon fill="none" stroke-width="1" stroke-dasharray="2" stroke="gray" points="20.606601717798213,1288.6066017177982 760.6066017177982,1288.6066017177982 750.0,1278.0 10.0,1278.0" />
<polygon fill="rgba(192,192,192,0.75)" stroke-width="1" stroke-dasharray="" stroke="black" points="10.0,1413.0 750.0,1413.0 760.6066017177982,1423.6066017177982 20.606601717798213,1423.6066017177982" />
<polygon fill="rgba(255,255,255,0.75)" stroke-width="1" stroke-dasharray="" stroke="black" points="760.6066017177982,1288.6066017177982 760.6066017177982,1423.6066017177982 750.0,1413.0 750.0,1278.0" />
<polygon fill="rgba(255,255,255,0.75)" stroke-width="1" stroke-dasharray="" stroke="black" points="10.0,1278.0 750.0,1278.0 750.0,1413.0 10.0,1413.0" />
<polygon fill="rgba(0,255,0,0.25)" stroke-width="1" stroke-dasharray="" stroke="green" points="410.0,1278.0 416.0,1278.0 416.0,1413.0 426.6066017177982,1423.6066017177982 420.6066017177982,1423.6066017177982 410.0,1413.0" />
<text style="" text-anchor="left" x="420.0" y="1288" fill="black">1</text>
<polygon fill="rgba(0,255,0,0.25)" stroke-width="1" stroke-dasharray="" stroke="green" points="515.0,1278.0 521.0,1278.0 521.0,1413.0 531.6066017177982,1423.6066017177982 525.6066017177982,1423.6066017177982 515.0,1413.0" />
<text style="" text-anchor="left" x="525.0" y="1288" fill="black">2</text>
<polygon fill="rgba(255,0,0,0.25)" stroke-width="1" stroke-dasharray="" stroke="rgba(255,0,0,0.25)" points="520.0,1278.0 751.0,1278.0 751.0,1413.0 761.6066017177982,1423.6066017177982 530.6066017177982,1423.6066017177982 520.0,1413.0" />
<polygon fill="rgba(0,0,255,0.25)" stroke-width="1" stroke-dasharray="" stroke="blue" points="10.0,1308.0 411.0,1308.0 411.0,1313.0 10.0,1313.0" />
<text style="" text-anchor="left" x="20" y="1318" fill="black">3</text>
<polygon fill="rgba(0,0,255,0.25)" stroke-width="1" stroke-dasharray="" stroke="blue" points="10.0,1343.0 411.0,1343.0 411.0,1348.0 10.0,1348.0" />
<text style="" text-anchor="left" x="20" y="1353" fill="black">4</text>
<polygon fill="rgba(255,0,0,0.25)" stroke-width="1" stroke-dasharray="" stroke="rgba(255,0,0,0.25)" points="10.0,1348.0 411.0,1348.0 411.0,1413.0 421.6066017177982,1423.6066017177982 20.606601717798213,1423.6066017177982 10.0,1413.0" />
<polygon fill="rgba(0,0,255,0.25)" stroke-width="1" stroke-dasharray="" stroke="blue" points="415.0,1308.0 516.0,1308.0 516.0,1313.0 415.0,1313.0" />
<text style="" text-anchor="left" x="425.0" y="1318" fill="black">5</text>
<polygon fill="rgba(0,0,255,0.25)" stroke-width="1" stroke-dasharray="" stroke="blue" points="415.0,1343.0 516.0,1343.0 516.0,1348.0 415.0,1348.0" />
<text style="" text-anchor="left" x="425.0" y="1353" fill="black">6</text>
<polygon fill="rgba(255,0,0,0.25)" stroke-width="1" stroke-dasharray="" stroke="rgba(255,0,0,0.25)" points="415.0,1348.0 516.0,1348.0 516.0,1413.0 526.6066017177982,1423.6066017177982 425.6066017177982,1423.6066017177982 415.0,1413.0" />
<text style="" text-anchor="start" x="210.0" y="1293.0" fill="black">till front</text>
<text style="" text-anchor="start" x="210.0" y="1328.0" fill="black">till back</text>
<text style="" text-anchor="start" x="465.0" y="1293.0" fill="black">till left</text>
<text style="" text-anchor="start" x="465.0" y="1328.0" fill="black">till right</text>
<polygon fill="none" stroke-width="1" stroke-dasharray="2" stroke="gray" points="20.606601717798213,1453.6066017177982 20.606601717798213,1468.6066017177982 420.6066017177982,1468.6066017177982 420.6066017177982,1453.6066017177982" />
<polygon fill="none" stroke-width="1" stroke-dasharray="2" stroke="gray" points="10.0,1443.0 10.0,1458.0 20.606601717798213,1468.6066017177982 20.606601717798213,1453.6066017177982" />
<polygon fill="none" stroke-width="1" stroke-dasharray="2" stroke="gray" points="20.606601717798213,1453.6066017177982 420.6066017177982,1453.6066017177982 410.0,1443.0 10.0,1443.0" />
<polygon fill="rgba(192,192,192,0.75)" stroke-width="1" stroke-dasharray="" stroke="black" points="10.0,1458.0 410.0,1458.0 420.6066017177982,1468.6066017177982 20.606601717798213,1468.6066017177982" />
<polygon fill="rgba(255,255,255,0.75)" stroke-width="1" stroke-dasharray="" stroke="black" points="420.6066017177982,1453.6066017177982 420.6066017177982,1468.6066017177982 410.0,1458.0 410.0,1443.0" />
<polygon fill="rgba(255,255,255,0.75)" stroke-width="1" stroke-dasharray="" stroke="black" points="10.0,1443.0 410.0,1443.0 410.0,1458.0 10.0,1458.0" />
<polygon fill="rgba(0,255,0,0.25)" stroke-width="1" stroke-dasharray="" stroke="green" points="210.0,1443.0 216.0,1443.0 216.0,1458.0 226.6066017177982,1468.6066017177982 220.6066017177982,1468.6066017177982 210.0,1458.0" />
<text style="" text-anchor="left" x="220.0" y="1453" fill="black">1</text>
<polygon fill="rgba(255,0,0,0.25)" stroke-width="1" stroke-dasharray="" stroke="rgba(255,0,0,0.25)" points="215.0,1443.0 411.0,1443.0 411.0,1458.0 421.6066017177982,1468.6066017177982 225.6066017177982,1468.6066017177982 215.0,1458.0" />
<text style="" text-anchor="start" x="110.0" y="1450.5" fill="black">wedge</text>
</svg>
