<svg width="1600" viewBox="0.0 -50.7 800.0 103.7" xmlns="http://www.w3.org/2000/svg">
<polygon fill="none" stroke-width="1" stroke-dasharray="2" stroke="gray" points="90.7,-40.7 105.7,-36.8 105.7,-50.7 90.7,-50.7 90.7,-40.7" />
<polygon fill="none" stroke-width="1" stroke-dasharray="2" stroke="gray" points="90.7,-30.7 90.7,-20.7 105.7,-20.7 105.7,-34.6 90.7,-30.7" />
<polygon fill="none" stroke-width="1" stroke-dasharray="2" stroke="gray" points="90.7,-30.7 105.7,-34.6 105.7,-20.7 475.7,-20.7 475.7,-20.7 475.7,-34.6 490.7,-30.7 490.7,-40.7 475.7,-36.8 475.7,-50.7 475.7,-50.7 105.7,-50.7 105.7,-36.8 90.7,-40.7 90.7,-40.7 90.7,-30.7" />
<polygon fill="none" stroke-width="1" stroke-dasharray="2" stroke="gray" points="90.7,-20.7 90.7,-17.7 490.7,-17.7 490.7,-20.7" />
<polygon fill="none" stroke-width="1" stroke-dasharray="2" stroke="gray" points="475.7,-36.8 490.7,-40.7 490.7,-50.7 475.7,-50.7 475.7,-36.8" />
<polygon fill="none" stroke-width="1" stroke-dasharray="2" stroke="gray" points="475.7,-34.6 475.7,-20.7 490.7,-20.7 490.7,-30.7 475.7,-34.6" />
<polygon fill="none" stroke-width="1" stroke-dasharray="2" stroke="gray" points="80.1,-30.1 80.1,-20.1 90.7,-30.7 90.7,-40.7 80.1,-30.1" />
<polygon fill="none" stroke-width="1" stroke-dasharray="2" stroke="gray" points="90.7,-40.7 80.1,-30.1 95.1,-26.2 105.7,-36.8" />
<polygon fill="rgba(255,255,255,0.75)" stroke-width="1" stroke-dasharray="" stroke="silver" points="105.7,-34.6 95.1,-24.0 80.1,-20.1 90.7,-30.7" />
<polygon fill="rgba(255,255,255,0.75)" stroke-width="1" stroke-dasharray="" stroke="black" points="90.7,-40.7 105.7,-36.8 95.1,-26.2 80.1,-30.1" />
<polygon fill="none" stroke-width="1" stroke-dasharray="2" stroke="gray" points="80.1,-20.1 95.1,-24.0 105.7,-34.6 90.7,-30.7" />
<polygon fill="none" stroke-width="1" stroke-dasharray="2" stroke="gray" points="95.1,-26.2 105.7,-36.8 105.7,-50.7 95.1,-40.1 95.1,-26.2" />
<polygon fill="none" stroke-width="1" stroke-dasharray="2" stroke="gray" points="95.1,-24.0 95.1,-10.1 105.7,-20.7 105.7,-34.6 95.1,-24.0" />
<polygon fill="rgba(255,255,255,0.75)" stroke-width="1" stroke-dasharray="" stroke="black" points="105.7,-50.7 475.7,-50.7 475.7,-50.7 465.1,-40.1 95.1,-40.1 105.7,-50.7" />
<polygon fill="none" stroke-width="1" stroke-dasharray="2" stroke="gray" points="105.7,-20.7 95.1,-10.1 465.1,-10.1 475.7,-20.7 475.7,-20.7 105.7,-20.7" />
<polygon fill="rgba(255,255,255,0.75)" stroke-width="1" stroke-dasharray="" stroke="black" points="475.7,-36.8 465.1,-26.2 465.1,-40.1 475.7,-50.7 475.7,-36.8" />
<polygon fill="rgba(255,255,255,0.75)" stroke-width="1" stroke-dasharray="" stroke="black" points="475.7,-34.6 475.7,-20.7 465.1,-10.1 465.1,-24.0 475.7,-34.6" />
<polygon fill="none" stroke-width="1" stroke-dasharray="2" stroke="gray" points="475.7,-36.8 465.1,-26.2 480.1,-30.1 490.7,-40.7" />
<polygon fill="rgba(255,255,255,0.75)" stroke-width="1" stroke-dasharray="" stroke="silver" points="480.1,-30.1 465.1,-26.2 475.7,-36.8 490.7,-40.7" />
<polygon fill="rgba(255,255,255,0.75)" stroke-width="1" stroke-dasharray="" stroke="black" points="490.7,-30.7 480.1,-20.1 465.1,-24.0 475.7,-34.6" />
<polygon fill="none" stroke-width="1" stroke-dasharray="2" stroke="gray" points="490.7,-30.7 475.7,-34.6 465.1,-24.0 480.1,-20.1" />
<polygon fill="rgba(255,255,255,0.75)" stroke-width="1" stroke-dasharray="" stroke="black" points="490.7,-40.7 490.7,-30.7 480.1,-20.1 480.1,-30.1 490.7,-40.7" />
<polygon fill="none" stroke-width="1" stroke-dasharray="2" stroke="gray" points="80.1,-30.1 80.1,-20.1 95.1,-24.0 95.1,-26.2 80.1,-30.1" />
<polygon fill="rgba(255,255,255,0.75)" stroke-width="1" stroke-dasharray="" stroke="black" points="95.1,-10.1 95.1,-24.0 80.1,-20.1 80.1,-30.1 95.1,-26.2 95.1,-40.1 95.1,-40.1 465.1,-40.1 465.1,-26.2 480.1,-30.1 480.1,-30.1 480.1,-20.1 480.1,-20.1 465.1,-24.0 465.1,-10.1 95.1,-10.1" />
<polygon fill="none" stroke-width="1" stroke-dasharray="2" stroke="gray" points="465.1,-26.2 465.1,-24.0 480.1,-20.1 480.1,-30.1 465.1,-26.2" />
<polygon fill="none" stroke-width="1" stroke-dasharray="2" stroke="gray" points="20.0,40.0 20.0,50.0 90.7,-20.7 90.7,-30.7 90.7,-30.7 80.1,-20.1 80.1,-30.1 90.7,-40.7 90.7,-50.7 20.0,20.0 20.0,30.0 30.6,19.4 30.6,29.4 20.0,40.0" />
<polygon fill="rgba(255,255,255,0.75)" stroke-width="1" stroke-dasharray="" stroke="black" points="105.7,-50.7 35.0,20.0 20.0,20.0 90.7,-50.7" />
<polygon fill="none" stroke-width="1" stroke-dasharray="2" stroke="gray" points="90.7,-20.7 20.0,50.0 35.0,50.0 105.7,-20.7" />
<polygon fill="rgba(255,255,255,0.75)" stroke-width="1" stroke-dasharray="" stroke="black" points="35.0,33.9 35.0,20.0 105.7,-50.7 105.7,-36.8 105.7,-36.8 95.1,-26.2 95.1,-24.0 105.7,-34.6 105.7,-20.7 35.0,50.0 35.0,36.1 45.6,25.5 45.6,23.3 35.0,33.9" />
<polygon fill="none" stroke-width="1" stroke-dasharray="2" stroke="gray" points="20.0,50.0 20.0,53.0 90.7,-17.7 90.7,-20.7" />
<polygon fill="rgba(255,255,255,0.75)" stroke-width="1" stroke-dasharray="" stroke="black" points="90.7,-20.7 490.7,-20.7 420.0,50.0 20.0,50.0" />
<polygon fill="none" stroke-width="1" stroke-dasharray="2" stroke="gray" points="20.0,53.0 420.0,53.0 490.7,-17.7 90.7,-17.7" />
<polygon fill="none" stroke-width="1" stroke-dasharray="2" stroke="gray" points="475.7,-36.8 475.7,-50.7 405.0,20.0 405.0,33.9 405.0,33.9 415.6,23.3 415.6,25.5 405.0,36.1 405.0,50.0 475.7,-20.7 475.7,-34.6 465.1,-24.0 465.1,-26.2 475.7,-36.8" />
<polygon fill="rgba(255,255,255,0.75)" stroke-width="1" stroke-dasharray="" stroke="black" points="405.0,20.0 475.7,-50.7 490.7,-50.7 420.0,20.0" />
<polygon fill="none" stroke-width="1" stroke-dasharray="2" stroke="gray" points="420.0,50.0 490.7,-20.7 475.7,-20.7 405.0,50.0" />
<polygon fill="rgba(255,255,255,0.75)" stroke-width="1" stroke-dasharray="" stroke="black" points="490.7,-30.7 490.7,-20.7 420.0,50.0 420.0,40.0 420.0,40.0 430.6,29.4 430.6,19.4 420.0,30.0 420.0,20.0 490.7,-50.7 490.7,-40.7 480.1,-30.1 480.1,-20.1 490.7,-30.7" />
<polygon fill="rgba(255,255,255,0.75)" stroke-width="1" stroke-dasharray="" stroke="black" points="490.7,-20.7 490.7,-17.7 420.0,53.0 420.0,50.0" />
<polygon fill="rgba(255,255,255,0.75)" stroke-width="1" stroke-dasharray="" stroke="black" points="45.6,23.3 45.6,25.5 30.6,29.4 30.6,19.4 45.6,23.3" />
<polygon fill="none" stroke-width="1" stroke-dasharray="2" stroke="gray" points="415.6,39.4 415.6,25.5 430.6,29.4 430.6,19.4 415.6,23.3 415.6,9.4 415.6,9.4 45.6,9.4 45.6,23.3 30.6,19.4 30.6,19.4 30.6,29.4 30.6,29.4 45.6,25.5 45.6,39.4 415.6,39.4" />
<polygon fill="rgba(255,255,255,0.75)" stroke-width="1" stroke-dasharray="" stroke="black" points="430.6,19.4 430.6,29.4 415.6,25.5 415.6,23.3 430.6,19.4" />
<polygon fill="none" stroke-width="1" stroke-dasharray="2" stroke="gray" points="35.0,33.9 45.6,23.3 30.6,19.4 20.0,30.0" />
<polygon fill="rgba(255,255,255,0.75)" stroke-width="1" stroke-dasharray="" stroke="silver" points="20.0,40.0 30.6,29.4 45.6,25.5 35.0,36.1" />
<polygon fill="none" stroke-width="1" stroke-dasharray="2" stroke="gray" points="420.0,30.0 430.6,19.4 415.6,23.3 405.0,33.9" />
<polygon fill="rgba(255,255,255,0.75)" stroke-width="1" stroke-dasharray="" stroke="black" points="405.0,36.1 415.6,25.5 430.6,29.4 420.0,40.0" />
<polygon fill="none" stroke-width="1" stroke-dasharray="2" stroke="gray" points="20.0,30.0 20.0,40.0 30.6,29.4 30.6,19.4 20.0,30.0" />
<polygon fill="rgba(255,255,255,0.75)" stroke-width="1" stroke-dasharray="" stroke="black" points="30.6,19.4 45.6,23.3 35.0,33.9 20.0,30.0" />
<polygon fill="none" stroke-width="1" stroke-dasharray="2" stroke="gray" points="20.0,40.0 35.0,36.1 45.6,25.5 30.6,29.4" />
<polygon fill="none" stroke-width="1" stroke-dasharray="2" stroke="gray" points="35.0,33.9 45.6,23.3 45.6,9.4 35.0,20.0 35.0,33.9" />
<polygon fill="none" stroke-width="1" stroke-dasharray="2" stroke="gray" points="35.0,36.1 35.0,50.0 45.6,39.4 45.6,25.5 35.0,36.1" />
<polygon fill="rgba(255,255,255,0.75)" stroke-width="1" stroke-dasharray="" stroke="black" points="405.0,20.0 35.0,20.0 35.0,20.0 45.6,9.4 415.6,9.4 405.0,20.0" />
<polygon fill="none" stroke-width="1" stroke-dasharray="2" stroke="gray" points="405.0,50.0 415.6,39.4 45.6,39.4 35.0,50.0 35.0,50.0 405.0,50.0" />
<polygon fill="rgba(255,255,255,0.75)" stroke-width="1" stroke-dasharray="" stroke="black" points="415.6,23.3 405.0,33.9 405.0,20.0 415.6,9.4 415.6,23.3" />
<polygon fill="rgba(255,255,255,0.75)" stroke-width="1" stroke-dasharray="" stroke="black" points="415.6,25.5 415.6,39.4 405.0,50.0 405.0,36.1 415.6,25.5" />
<polygon fill="rgba(255,255,255,0.75)" stroke-width="1" stroke-dasharray="" stroke="silver" points="420.0,30.0 405.0,33.9 415.6,23.3 430.6,19.4" />
<polygon fill="none" stroke-width="1" stroke-dasharray="2" stroke="gray" points="430.6,29.4 415.6,25.5 405.0,36.1 420.0,40.0" />
<polygon fill="rgba(255,255,255,0.75)" stroke-width="1" stroke-dasharray="" stroke="black" points="430.6,19.4 430.6,29.4 420.0,40.0 420.0,30.0 430.6,19.4" />
<polygon fill="rgba(255,255,255,0.75)" stroke-width="1" stroke-dasharray="" stroke="black" points="35.0,33.9 20.0,30.0 20.0,20.0 35.0,20.0 35.0,33.9" />
<polygon fill="rgba(255,255,255,0.75)" stroke-width="1" stroke-dasharray="" stroke="black" points="35.0,36.1 35.0,50.0 20.0,50.0 20.0,40.0 35.0,36.1" />
<polygon fill="rgba(255,255,255,0.75)" stroke-width="1" stroke-dasharray="" stroke="black" points="420.0,30.0 405.0,33.9 405.0,20.0 420.0,20.0 420.0,30.0" />
<polygon fill="rgba(255,255,255,0.75)" stroke-width="1" stroke-dasharray="" stroke="black" points="420.0,40.0 420.0,50.0 405.0,50.0 405.0,36.1 420.0,40.0" />
<polygon fill="rgba(255,255,255,0.75)" stroke-width="1" stroke-dasharray="" stroke="black" points="420.0,40.0 405.0,36.1 405.0,50.0 35.0,50.0 35.0,50.0 35.0,36.1 20.0,40.0 20.0,30.0 35.0,33.9 35.0,20.0 35.0,20.0 405.0,20.0 405.0,33.9 420.0,30.0 420.0,30.0 420.0,40.0" />
<polygon fill="rgba(255,255,255,0.75)" stroke-width="1" stroke-dasharray="" stroke="black" points="20.0,50.0 420.0,50.0 420.0,53.0 20.0,53.0" />
</svg>
