<svg width="1100" viewBox="0 0 550 1008.5477272147525" xmlns="http://www.w3.org/2000/svg">
<polygon fill="none" stroke-width="1" stroke-dasharray="2" stroke="gray" points="430.4752813742386,118.48528137423857 430.4752813742386,97.36945283300831 442.4852813742386,100.47269749026084 442.4852813742386,81.9978652582163 430.4752813742386,85.10110991546883 430.4752813742386,63.86945283300832 442.4852813742386,66.97269749026084 442.4852813742386,66.97269749026084 442.4852813742386,48.49786525821631 442.4852813742386,48.49786525821631 430.4752813742386,51.60110991546882 430.4752813742386,18.485281374238568 30.495281374238562,18.485281374238568 30.49528137423857,51.60110991546882 18.48528137423857,48.497865258216294 18.48528137423857,48.497865258216294 18.48528137423857,66.97269749026084 18.48528137423857,66.97269749026084 30.49528137423857,63.86945283300832 30.49528137423857,85.10110991546883 18.48528137423857,81.9978652582163 18.48528137423857,100.47269749026083 30.49528137423857,97.36945283300831 30.495281374238562,118.48528137423857 30.495281374238562,118.48528137423857 430.4752813742386,118.48528137423857" />
<polygon fill="rgba(192,192,192,0.75)" stroke-width="1" stroke-dasharray="" stroke="black" points="426.9397474683059,114.94974746830583 430.4752813742386,118.48528137423857 30.49528137423862,118.48528137423857 26.95974746830583,114.94974746830583 26.95974746830583,114.94974746830583 426.9397474683059,114.94974746830583" />
<polygon fill="none" stroke-width="1" stroke-dasharray="2" stroke="gray" points="426.9397474683059,119.94974746830583 26.95974746830583,119.94974746830583 26.95974746830583,119.94974746830583 30.49528137423862,123.48528137423857 430.4752813742386,123.48528137423857 426.9397474683059,119.94974746830583" />
<polygon fill="none" stroke-width="1" stroke-dasharray="2" stroke="gray" points="10.0,39.989999999999995 10.0,58.51 18.48528137423857,66.99528137423857 18.48528137423857,48.47528137423856 10.0,39.989999999999995" />
<polygon fill="none" stroke-width="1" stroke-dasharray="2" stroke="gray" points="10.0,73.49000000000001 10.0,92.01 18.48528137423857,100.49528137423857 18.48528137423857,81.97528137423858 10.0,73.49000000000001" />
<polygon fill="none" stroke-width="1" stroke-dasharray="2" stroke="gray" points="18.48528137423857,48.48528137423857 30.48528137423857,51.59110991546882 22.0,43.10582854123025 10.0,40.0" />
<polygon fill="rgba(255,255,255,0.75)" stroke-width="1" stroke-dasharray="" stroke="black" points="10.0,58.5 22.0,55.39417145876975 30.48528137423857,63.879452833008315 18.48528137423857,66.98528137423857" />
<polygon fill="none" stroke-width="1" stroke-dasharray="2" stroke="gray" points="18.48528137423857,81.98528137423857 30.48528137423857,85.09110991546882 22.0,76.60582854123025 10.0,73.5" />
<polygon fill="rgba(255,255,255,0.75)" stroke-width="1" stroke-dasharray="" stroke="black" points="10.0,92.0 22.0,88.89417145876975 30.48528137423857,97.37945283300832 18.48528137423857,100.48528137423857" />
<polygon fill="none" stroke-width="1" stroke-dasharray="2" stroke="gray" points="22.0,43.11582854123024 30.48528137423857,51.601109915468825 30.48528137423857,18.485281374238568 22.0,10.0 22.0,43.11582854123024" />
<polygon fill="none" stroke-width="1" stroke-dasharray="2" stroke="gray" points="22.0,55.38417145876975 22.0,76.61582854123026 30.48528137423857,85.10110991546883 30.48528137423857,63.86945283300832 22.0,55.38417145876975" />
<polygon fill="none" stroke-width="1" stroke-dasharray="2" stroke="gray" points="22.0,88.88417145876974 22.0,122.0 30.48528137423857,130.48528137423858 30.48528137423857,123.48528137423857 26.949747468305834,119.94974746830583 26.949747468305834,114.94974746830583 30.48528137423857,118.48528137423857 30.48528137423857,97.36945283300831 22.0,88.88417145876974" />
<polygon fill="none" stroke-width="1" stroke-dasharray="2" stroke="gray" points="421.99000000000007,10.0 22.009999999999998,10.0 22.009999999999998,10.0 30.49528137423862,18.485281374238568 430.4752813742386,18.485281374238568 421.99000000000007,10.0" />
<polygon fill="rgba(192,192,192,0.75)" stroke-width="1" stroke-dasharray="" stroke="black" points="421.99000000000007,122.0 430.4752813742386,130.48528137423858 30.49528137423862,130.48528137423858 22.009999999999998,122.0 22.009999999999998,122.0 421.99000000000007,122.0" />
<polygon fill="rgba(255,255,255,0.75)" stroke-width="1" stroke-dasharray="" stroke="black" points="430.4852813742386,51.60110991546881 422.0,43.11582854123026 422.0,10.0 430.4852813742386,18.485281374238568 430.4852813742386,51.60110991546881" />
<polygon fill="rgba(255,255,255,0.75)" stroke-width="1" stroke-dasharray="" stroke="black" points="430.4852813742386,63.86945283300831 430.4852813742386,85.10110991546881 422.0,76.61582854123026 422.0,55.38417145876974 430.4852813742386,63.86945283300831" />
<polygon fill="rgba(255,255,255,0.75)" stroke-width="1" stroke-dasharray="" stroke="black" points="430.4852813742386,97.36945283300831 430.4852813742386,118.48528137423857 426.9497474683058,114.94974746830583 426.9497474683058,119.94974746830583 430.4852813742386,123.48528137423857 430.4852813742386,130.48528137423858 422.0,122.0 422.0,88.88417145876974 430.4852813742386,97.36945283300831" />
<polygon fill="none" stroke-width="1" stroke-dasharray="2" stroke="gray" points="434.0,40.0 422.0,43.10582854123025 430.4852813742386,51.59110991546882 442.4852813742386,48.48528137423857" />
<polygon fill="rgba(192,192,192,0.75)" stroke-width="1" stroke-dasharray="" stroke="silver" points="442.4852813742386,66.98528137423857 430.4852813742386,63.879452833008315 422.0,55.39417145876975 434.0,58.5" />
<polygon fill="none" stroke-width="1" stroke-dasharray="2" stroke="gray" points="434.0,73.5 422.0,76.60582854123025 430.4852813742386,85.09110991546882 442.4852813742386,81.98528137423857" />
<polygon fill="rgba(192,192,192,0.75)" stroke-width="1" stroke-dasharray="" stroke="silver" points="442.4852813742386,100.48528137423857 430.4852813742386,97.37945283300832 422.0,88.89417145876975 434.0,92.0" />
<polygon fill="rgba(255,255,255,0.75)" stroke-width="1" stroke-dasharray="" stroke="black" points="442.4852813742386,48.47528137423856 442.4852813742386,66.99528137423857 434.0,58.51 434.0,39.989999999999995 442.4852813742386,48.47528137423856" />
<polygon fill="rgba(255,255,255,0.75)" stroke-width="1" stroke-dasharray="" stroke="black" points="442.4852813742386,81.97528137423858 442.4852813742386,100.49528137423857 434.0,92.01 434.0,73.49000000000001 442.4852813742386,81.97528137423858" />
<polygon fill="rgba(255,255,255,0.75)" stroke-width="1" stroke-dasharray="" stroke="black" points="434.0,91.98741611602227 421.99,88.88417145876974 421.99,122.0 22.009999999999998,122.0 22.009999999999998,88.88417145876974 10.0,91.98741611602226 10.0,91.98741611602226 10.0,73.51258388397773 10.0,73.51258388397773 22.009999999999998,76.61582854123026 22.009999999999998,55.38417145876975 10.0,58.48741611602227 10.0,40.01258388397774 22.009999999999998,43.11582854123025 22.009999999999998,10.0 22.009999999999998,10.0 421.99,10.0 421.99,10.0 421.99,43.11582854123025 434.0,40.012583883977726 434.0,58.487416116022274 421.99,55.38417145876975 421.99,76.61582854123026 434.0,73.51258388397773 434.0,73.51258388397773 434.0,91.98741611602227" />
<text style="" text-anchor="middle" x="222.0" y="66.0" fill="black">base front</text>
<polygon fill="none" stroke-width="1" stroke-dasharray="2" stroke="gray" points="242.48528137423858,225.5663912897074 242.48528137423858,204.3747342072469 242.48528137423858,204.3747342072469 230.4752813742386,204.37473420724692 230.4752813742386,192.0663912897074 242.48528137423858,192.0663912897074 242.48528137423858,158.97056274847716 18.48528137423857,158.97056274847716 18.48528137423857,192.0663912897074 18.48528137423857,192.0663912897074 30.49528137423857,192.0663912897074 30.49528137423857,204.37473420724692 18.48528137423857,204.3747342072469 18.48528137423857,225.5663912897074 30.49528137423857,225.5663912897074 30.49528137423857,237.87473420724692 18.48528137423857,237.87473420724692 18.48528137423857,237.87473420724692 18.48528137423857,258.97056274847716 242.48528137423858,258.97056274847716 242.48528137423858,237.87473420724692 230.4752813742386,237.87473420724692 230.4752813742386,225.5663912897074 242.48528137423858,225.5663912897074" />
<polygon fill="rgba(192,192,192,0.75)" stroke-width="1" stroke-dasharray="" stroke="black" points="14.949747468305834,255.43502884254443 238.94974746830584,255.43502884254443 242.48528137423858,258.97056274847716 18.48528137423857,258.97056274847716" />
<polygon fill="none" stroke-width="1" stroke-dasharray="2" stroke="gray" points="18.48528137423857,263.97056274847716 242.48528137423858,263.97056274847716 238.94974746830584,260.4350288425444 14.949747468305834,260.4350288425444" />
<polygon fill="none" stroke-width="1" stroke-dasharray="2" stroke="gray" points="10.0,180.4978652582163 18.48528137423857,192.0838074057297 18.48528137423857,158.97056274847716 10.0,150.48528137423858 10.0,180.4978652582163" />
<polygon fill="none" stroke-width="1" stroke-dasharray="2" stroke="gray" points="10.0,198.97269749026086 10.0,213.9978652582163 18.48528137423857,225.5838074057297 18.48528137423857,204.35731809122464 10.0,198.97269749026086" />
<polygon fill="none" stroke-width="1" stroke-dasharray="2" stroke="gray" points="10.0,232.47269749026083 10.0,262.4852813742386 18.48528137423857,270.97056274847716 18.48528137423857,263.97056274847716 14.949747468305834,260.4350288425444 14.949747468305834,255.43502884254443 18.48528137423857,258.97056274847716 18.48528137423857,237.85731809122464 10.0,232.47269749026083" />
<polygon fill="rgba(255,255,255,0.75)" stroke-width="1" stroke-dasharray="" stroke="black" points="10.0,180.48528137423858 22.0,180.48528137423858 30.48528137423857,192.07639128970743 18.48528137423857,192.07639128970743" />
<polygon fill="none" stroke-width="1" stroke-dasharray="2" stroke="gray" points="18.48528137423857,204.3647342072469 30.48528137423857,204.3647342072469 22.0,198.98528137423858 10.0,198.98528137423858" />
<polygon fill="rgba(255,255,255,0.75)" stroke-width="1" stroke-dasharray="" stroke="black" points="10.0,213.98528137423858 22.0,213.98528137423858 30.48528137423857,225.57639128970743 18.48528137423857,225.57639128970743" />
<polygon fill="none" stroke-width="1" stroke-dasharray="2" stroke="gray" points="18.48528137423857,237.8647342072469 30.48528137423857,237.8647342072469 22.0,232.48528137423858 10.0,232.48528137423858" />
<polygon fill="none" stroke-width="1" stroke-dasharray="2" stroke="gray" points="22.0,180.4778652582163 22.0,198.99269749026087 30.48528137423857,204.37731809122465 30.48528137423857,192.06380740572968 22.0,180.4778652582163" />
<polygon fill="none" stroke-width="1" stroke-dasharray="2" stroke="gray" points="22.0,213.9778652582163 22.0,232.49269749026087 30.48528137423857,237.87731809122465 30.48528137423857,225.56380740572968 22.0,213.9778652582163" />
<polygon fill="none" stroke-width="1" stroke-dasharray="2" stroke="gray" points="18.48528137423857,158.97056274847716 242.48528137423858,158.97056274847716 234.0,150.48528137423858 10.0,150.48528137423858" />
<polygon fill="rgba(192,192,192,0.75)" stroke-width="1" stroke-dasharray="" stroke="black" points="10.0,262.4852813742386 234.0,262.4852813742386 242.48528137423858,270.97056274847716 18.48528137423857,270.97056274847716" />
<polygon fill="rgba(255,255,255,0.75)" stroke-width="1" stroke-dasharray="" stroke="black" points="230.48528137423858,192.06380740572968 230.48528137423858,204.37731809122465 222.0,198.99269749026087 222.0,180.4778652582163 230.48528137423858,192.06380740572968" />
<polygon fill="rgba(255,255,255,0.75)" stroke-width="1" stroke-dasharray="" stroke="black" points="230.48528137423858,225.56380740572968 230.48528137423858,237.87731809122465 222.0,232.49269749026087 222.0,213.9778652582163 230.48528137423858,225.56380740572968" />
<polygon fill="rgba(255,255,255,0.75)" stroke-width="1" stroke-dasharray="" stroke="black" points="242.48528137423858,192.07639128970743 230.48528137423858,192.07639128970743 222.0,180.48528137423858 234.0,180.48528137423858" />
<polygon fill="none" stroke-width="1" stroke-dasharray="2" stroke="gray" points="234.0,198.98528137423858 222.0,198.98528137423858 230.48528137423858,204.3647342072469 242.48528137423858,204.3647342072469" />
<polygon fill="rgba(255,255,255,0.75)" stroke-width="1" stroke-dasharray="" stroke="black" points="242.48528137423858,225.57639128970743 230.48528137423858,225.57639128970743 222.0,213.98528137423858 234.0,213.98528137423858" />
<polygon fill="none" stroke-width="1" stroke-dasharray="2" stroke="gray" points="234.0,232.48528137423858 222.0,232.48528137423858 230.48528137423858,237.8647342072469 242.48528137423858,237.8647342072469" />
<polygon fill="rgba(255,255,255,0.75)" stroke-width="1" stroke-dasharray="" stroke="black" points="242.48528137423858,192.0838074057297 234.0,180.49786525821634 234.0,150.48528137423858 242.48528137423858,158.97056274847716 242.48528137423858,192.0838074057297" />
<polygon fill="rgba(255,255,255,0.75)" stroke-width="1" stroke-dasharray="" stroke="black" points="242.48528137423858,204.35731809122464 242.48528137423858,225.5838074057297 234.0,213.9978652582163 234.0,198.97269749026086 242.48528137423858,204.35731809122464" />
<polygon fill="rgba(255,255,255,0.75)" stroke-width="1" stroke-dasharray="" stroke="black" points="242.48528137423858,237.85731809122464 242.48528137423858,258.97056274847716 238.94974746830584,255.43502884254443 238.94974746830584,260.4350288425444 242.48528137423858,263.97056274847716 242.48528137423858,270.97056274847716 234.0,262.4852813742386 234.0,232.47269749026086 242.48528137423858,237.85731809122464" />
<polygon fill="rgba(255,255,255,0.75)" stroke-width="1" stroke-dasharray="" stroke="black" points="234.0,232.49528137423857 234.0,262.4852813742386 10.0,262.4852813742386 10.0,232.49528137423857 22.009999999999998,232.49528137423857 22.009999999999998,213.9752813742386 10.0,213.9752813742386 10.0,213.9752813742386 10.0,198.99528137423857 10.0,198.99528137423857 22.009999999999998,198.99528137423857 22.009999999999998,180.4752813742386 10.0,180.4752813742386 10.0,150.48528137423858 234.0,150.48528137423858 234.0,180.4752813742386 234.0,180.4752813742386 221.99,180.4752813742386 221.99,198.99528137423857 234.0,198.99528137423857 234.0,213.9752813742386 221.99,213.9752813742386 221.99,232.49528137423857 234.0,232.49528137423857" />
<text style="" text-anchor="middle" x="122.0" y="206.48528137423858" fill="black">base left</text>
<polygon fill="none" stroke-width="1" stroke-dasharray="2" stroke="gray" points="430.4752813742386,399.45584412271575 430.4752813742386,378.3400155814855 442.4852813742386,381.443260238738 442.4852813742386,362.9684280066935 430.4752813742386,366.071672663946 430.4752813742386,344.8400155814855 442.4852813742386,347.943260238738 442.4852813742386,347.943260238738 442.4852813742386,329.4684280066935 442.4852813742386,329.4684280066935 430.4752813742386,332.571672663946 430.4752813742386,299.45584412271575 30.495281374238562,299.45584412271575 30.49528137423857,332.571672663946 18.48528137423857,329.4684280066935 18.48528137423857,329.4684280066935 18.48528137423857,347.943260238738 18.48528137423857,347.943260238738 30.49528137423857,344.8400155814855 30.49528137423857,366.071672663946 18.48528137423857,362.9684280066935 18.48528137423857,381.443260238738 30.49528137423857,378.3400155814855 30.495281374238562,399.45584412271575 30.495281374238562,399.45584412271575 430.4752813742386,399.45584412271575" />
<polygon fill="rgba(192,192,192,0.75)" stroke-width="1" stroke-dasharray="" stroke="black" points="426.9397474683059,395.920310216783 430.4752813742386,399.45584412271575 30.49528137423862,399.45584412271575 26.95974746830583,395.920310216783 26.95974746830583,395.920310216783 426.9397474683059,395.920310216783" />
<polygon fill="none" stroke-width="1" stroke-dasharray="2" stroke="gray" points="426.9397474683059,400.920310216783 26.95974746830583,400.920310216783 26.95974746830583,400.920310216783 30.49528137423862,404.45584412271575 430.4752813742386,404.45584412271575 426.9397474683059,400.920310216783" />
<polygon fill="none" stroke-width="1" stroke-dasharray="2" stroke="gray" points="10.0,320.9605627484772 10.0,339.48056274847715 18.48528137423857,347.96584412271574 18.48528137423857,329.44584412271576 10.0,320.9605627484772" />
<polygon fill="none" stroke-width="1" stroke-dasharray="2" stroke="gray" points="10.0,354.4605627484772 10.0,372.98056274847715 18.48528137423857,381.46584412271574 18.48528137423857,362.94584412271576 10.0,354.4605627484772" />
<polygon fill="none" stroke-width="1" stroke-dasharray="2" stroke="gray" points="18.48528137423857,329.45584412271575 30.48528137423857,332.561672663946 22.0,324.07639128970743 10.0,320.97056274847716" />
<polygon fill="rgba(255,255,255,0.75)" stroke-width="1" stroke-dasharray="" stroke="black" points="10.0,339.47056274847716 22.0,336.3647342072469 30.48528137423857,344.8500155814855 18.48528137423857,347.95584412271575" />
<polygon fill="none" stroke-width="1" stroke-dasharray="2" stroke="gray" points="18.48528137423857,362.95584412271575 30.48528137423857,366.061672663946 22.0,357.57639128970743 10.0,354.47056274847716" />
<polygon fill="rgba(255,255,255,0.75)" stroke-width="1" stroke-dasharray="" stroke="black" points="10.0,372.97056274847716 22.0,369.8647342072469 30.48528137423857,378.3500155814855 18.48528137423857,381.45584412271575" />
<polygon fill="none" stroke-width="1" stroke-dasharray="2" stroke="gray" points="22.0,324.0863912897074 30.48528137423857,332.571672663946 30.48528137423857,299.45584412271575 22.0,290.97056274847716 22.0,324.0863912897074" />
<polygon fill="none" stroke-width="1" stroke-dasharray="2" stroke="gray" points="22.0,336.3547342072469 22.0,357.5863912897074 30.48528137423857,366.071672663946 30.48528137423857,344.8400155814855 22.0,336.3547342072469" />
<polygon fill="none" stroke-width="1" stroke-dasharray="2" stroke="gray" points="22.0,369.8547342072469 22.0,402.97056274847716 30.48528137423857,411.45584412271575 30.48528137423857,404.45584412271575 26.949747468305834,400.920310216783 26.949747468305834,395.920310216783 30.48528137423857,399.45584412271575 30.48528137423857,378.3400155814855 22.0,369.8547342072469" />
<polygon fill="none" stroke-width="1" stroke-dasharray="2" stroke="gray" points="421.99000000000007,290.97056274847716 22.009999999999998,290.97056274847716 22.009999999999998,290.97056274847716 30.49528137423862,299.45584412271575 430.4752813742386,299.45584412271575 421.99000000000007,290.97056274847716" />
<polygon fill="rgba(192,192,192,0.75)" stroke-width="1" stroke-dasharray="" stroke="black" points="421.99000000000007,402.97056274847716 430.4752813742386,411.45584412271575 30.49528137423862,411.45584412271575 22.009999999999998,402.97056274847716 22.009999999999998,402.97056274847716 421.99000000000007,402.97056274847716" />
<polygon fill="rgba(255,255,255,0.75)" stroke-width="1" stroke-dasharray="" stroke="black" points="430.4852813742386,332.571672663946 422.0,324.0863912897074 422.0,290.97056274847716 430.4852813742386,299.45584412271575 430.4852813742386,332.571672663946" />
<polygon fill="rgba(255,255,255,0.75)" stroke-width="1" stroke-dasharray="" stroke="black" points="430.4852813742386,344.8400155814855 430.4852813742386,366.071672663946 422.0,357.5863912897074 422.0,336.3547342072469 430.4852813742386,344.8400155814855" />
<polygon fill="rgba(255,255,255,0.75)" stroke-width="1" stroke-dasharray="" stroke="black" points="430.4852813742386,378.3400155814855 430.4852813742386,399.45584412271575 426.9497474683058,395.920310216783 426.9497474683058,400.920310216783 430.4852813742386,404.45584412271575 430.4852813742386,411.45584412271575 422.0,402.97056274847716 422.0,369.8547342072469 430.4852813742386,378.3400155814855" />
<polygon fill="none" stroke-width="1" stroke-dasharray="2" stroke="gray" points="434.0,320.97056274847716 422.0,324.07639128970743 430.4852813742386,332.561672663946 442.4852813742386,329.45584412271575" />
<polygon fill="rgba(192,192,192,0.75)" stroke-width="1" stroke-dasharray="" stroke="silver" points="442.4852813742386,347.95584412271575 430.4852813742386,344.8500155814855 422.0,336.3647342072469 434.0,339.47056274847716" />
<polygon fill="none" stroke-width="1" stroke-dasharray="2" stroke="gray" points="434.0,354.47056274847716 422.0,357.57639128970743 430.4852813742386,366.061672663946 442.4852813742386,362.95584412271575" />
<polygon fill="rgba(192,192,192,0.75)" stroke-width="1" stroke-dasharray="" stroke="silver" points="442.4852813742386,381.45584412271575 430.4852813742386,378.3500155814855 422.0,369.8647342072469 434.0,372.97056274847716" />
<polygon fill="rgba(255,255,255,0.75)" stroke-width="1" stroke-dasharray="" stroke="black" points="442.4852813742386,329.44584412271576 442.4852813742386,347.96584412271574 434.0,339.48056274847715 434.0,320.9605627484772 442.4852813742386,329.44584412271576" />
<polygon fill="rgba(255,255,255,0.75)" stroke-width="1" stroke-dasharray="" stroke="black" points="442.4852813742386,362.94584412271576 442.4852813742386,381.46584412271574 434.0,372.98056274847715 434.0,354.4605627484772 442.4852813742386,362.94584412271576" />
<polygon fill="rgba(255,255,255,0.75)" stroke-width="1" stroke-dasharray="" stroke="black" points="434.0,372.9579788644994 421.99,369.8547342072469 421.99,402.97056274847716 22.009999999999998,402.97056274847716 22.009999999999998,369.8547342072469 10.0,372.9579788644994 10.0,372.9579788644994 10.0,354.4831466324549 10.0,354.4831466324549 22.009999999999998,357.5863912897074 22.009999999999998,336.3547342072469 10.0,339.4579788644994 10.0,320.9831466324549 22.009999999999998,324.0863912897074 22.009999999999998,290.97056274847716 22.009999999999998,290.97056274847716 421.99,290.97056274847716 421.99,290.97056274847716 421.99,324.0863912897074 434.0,320.9831466324549 434.0,339.4579788644994 421.99,336.3547342072469 421.99,357.5863912897074 434.0,354.4831466324549 434.0,354.4831466324549 434.0,372.9579788644994" />
<text style="" text-anchor="middle" x="222.0" y="346.97056274847716" fill="black">base back</text>
<polygon fill="none" stroke-width="1" stroke-dasharray="2" stroke="gray" points="242.48528137423858,506.53695403818455 242.48528137423858,485.34529695572405 242.48528137423858,485.34529695572405 230.4752813742386,485.34529695572405 230.4752813742386,473.0369540381846 242.48528137423858,473.03695403818455 242.48528137423858,439.9411254969543 18.48528137423857,439.9411254969543 18.48528137423857,473.0369540381846 18.48528137423857,473.0369540381846 30.49528137423857,473.0369540381846 30.49528137423857,485.34529695572405 18.48528137423857,485.34529695572405 18.48528137423857,506.53695403818455 30.49528137423857,506.53695403818455 30.49528137423857,518.845296955724 18.48528137423857,518.845296955724 18.48528137423857,518.845296955724 18.48528137423857,539.9411254969542 242.48528137423858,539.9411254969542 242.48528137423858,518.845296955724 230.4752813742386,518.845296955724 230.4752813742386,506.53695403818455 242.48528137423858,506.53695403818455" />
<polygon fill="rgba(192,192,192,0.75)" stroke-width="1" stroke-dasharray="" stroke="black" points="14.949747468305834,536.4055915910216 238.94974746830584,536.4055915910216 242.48528137423858,539.9411254969542 18.48528137423857,539.9411254969542" />
<polygon fill="none" stroke-width="1" stroke-dasharray="2" stroke="gray" points="18.48528137423857,544.9411254969542 242.48528137423858,544.9411254969542 238.94974746830584,541.4055915910216 14.949747468305834,541.4055915910216" />
<polygon fill="none" stroke-width="1" stroke-dasharray="2" stroke="gray" points="10.0,461.46842800669344 18.48528137423857,473.0543701542069 18.48528137423857,439.9411254969543 10.0,431.45584412271575 10.0,461.46842800669344" />
<polygon fill="none" stroke-width="1" stroke-dasharray="2" stroke="gray" points="10.0,479.943260238738 10.0,494.96842800669344 18.48528137423857,506.5543701542069 18.48528137423857,485.32788083970183 10.0,479.943260238738" />
<polygon fill="none" stroke-width="1" stroke-dasharray="2" stroke="gray" points="10.0,513.443260238738 10.0,543.4558441227157 18.48528137423857,551.9411254969542 18.48528137423857,544.9411254969542 14.949747468305834,541.4055915910216 14.949747468305834,536.4055915910216 18.48528137423857,539.9411254969542 18.48528137423857,518.8278808397017 10.0,513.443260238738" />
<polygon fill="rgba(255,255,255,0.75)" stroke-width="1" stroke-dasharray="" stroke="black" points="10.0,461.45584412271575 22.0,461.45584412271575 30.48528137423857,473.0469540381846 18.48528137423857,473.0469540381846" />
<polygon fill="none" stroke-width="1" stroke-dasharray="2" stroke="gray" points="18.48528137423857,485.33529695572406 30.48528137423857,485.33529695572406 22.0,479.95584412271575 10.0,479.95584412271575" />
<polygon fill="rgba(255,255,255,0.75)" stroke-width="1" stroke-dasharray="" stroke="black" points="10.0,494.95584412271575 22.0,494.95584412271575 30.48528137423857,506.5469540381846 18.48528137423857,506.5469540381846" />
<polygon fill="none" stroke-width="1" stroke-dasharray="2" stroke="gray" points="18.48528137423857,518.8352969557241 30.48528137423857,518.8352969557241 22.0,513.4558441227157 10.0,513.4558441227157" />
<polygon fill="none" stroke-width="1" stroke-dasharray="2" stroke="gray" points="22.0,461.44842800669346 22.0,479.96326023873803 30.48528137423857,485.3478808397018 30.48528137423857,473.03437015420684 22.0,461.44842800669346" />
<polygon fill="none" stroke-width="1" stroke-dasharray="2" stroke="gray" points="22.0,494.94842800669346 22.0,513.463260238738 30.48528137423857,518.8478808397018 30.48528137423857,506.53437015420684 22.0,494.94842800669346" />
<polygon fill="none" stroke-width="1" stroke-dasharray="2" stroke="gray" points="18.48528137423857,439.9411254969543 242.48528137423858,439.9411254969543 234.0,431.45584412271575 10.0,431.45584412271575" />
<polygon fill="rgba(192,192,192,0.75)" stroke-width="1" stroke-dasharray="" stroke="black" points="10.0,543.4558441227157 234.0,543.4558441227157 242.48528137423858,551.9411254969542 18.48528137423857,551.9411254969542" />
<polygon fill="rgba(255,255,255,0.75)" stroke-width="1" stroke-dasharray="" stroke="black" points="230.48528137423858,473.03437015420684 230.48528137423858,485.3478808397018 222.0,479.96326023873803 222.0,461.44842800669346 230.48528137423858,473.03437015420684" />
<polygon fill="rgba(255,255,255,0.75)" stroke-width="1" stroke-dasharray="" stroke="black" points="230.48528137423858,506.53437015420684 230.48528137423858,518.8478808397018 222.0,513.463260238738 222.0,494.94842800669346 230.48528137423858,506.53437015420684" />
<polygon fill="rgba(255,255,255,0.75)" stroke-width="1" stroke-dasharray="" stroke="black" points="242.48528137423858,473.0469540381846 230.48528137423858,473.0469540381846 222.0,461.45584412271575 234.0,461.45584412271575" />
<polygon fill="none" stroke-width="1" stroke-dasharray="2" stroke="gray" points="234.0,479.95584412271575 222.0,479.95584412271575 230.48528137423858,485.33529695572406 242.48528137423858,485.33529695572406" />
<polygon fill="rgba(255,255,255,0.75)" stroke-width="1" stroke-dasharray="" stroke="black" points="242.48528137423858,506.5469540381846 230.48528137423858,506.5469540381846 222.0,494.95584412271575 234.0,494.95584412271575" />
<polygon fill="none" stroke-width="1" stroke-dasharray="2" stroke="gray" points="234.0,513.4558441227157 222.0,513.4558441227157 230.48528137423858,518.8352969557241 242.48528137423858,518.8352969557241" />
<polygon fill="rgba(255,255,255,0.75)" stroke-width="1" stroke-dasharray="" stroke="black" points="242.48528137423858,473.0543701542068 234.0,461.4684280066935 234.0,431.45584412271575 242.48528137423858,439.9411254969543 242.48528137423858,473.0543701542068" />
<polygon fill="rgba(255,255,255,0.75)" stroke-width="1" stroke-dasharray="" stroke="black" points="242.48528137423858,485.3278808397018 242.48528137423858,506.5543701542069 234.0,494.9684280066935 234.0,479.94326023873805 242.48528137423858,485.3278808397018" />
<polygon fill="rgba(255,255,255,0.75)" stroke-width="1" stroke-dasharray="" stroke="black" points="242.48528137423858,518.8278808397017 242.48528137423858,539.9411254969542 238.94974746830584,536.4055915910216 238.94974746830584,541.4055915910216 242.48528137423858,544.9411254969542 242.48528137423858,551.9411254969542 234.0,543.4558441227157 234.0,513.443260238738 242.48528137423858,518.8278808397017" />
<polygon fill="rgba(255,255,255,0.75)" stroke-width="1" stroke-dasharray="" stroke="black" points="234.0,513.4658441227158 234.0,543.4558441227157 10.0,543.4558441227157 10.0,513.4658441227158 22.009999999999998,513.4658441227158 22.009999999999998,494.94584412271576 10.0,494.94584412271576 10.0,494.94584412271576 10.0,479.96584412271574 10.0,479.96584412271574 22.009999999999998,479.96584412271574 22.009999999999998,461.44584412271576 10.0,461.44584412271576 10.0,431.45584412271575 234.0,431.45584412271575 234.0,461.44584412271576 234.0,461.44584412271576 221.99,461.44584412271576 221.99,479.96584412271574 234.0,479.96584412271574 234.0,494.94584412271576 221.99,494.94584412271576 221.99,513.4658441227158 234.0,513.4658441227158" />
<text style="" text-anchor="middle" x="122.0" y="487.45584412271575" fill="black">base right</text>
<polygon fill="none" stroke-width="1" stroke-dasharray="2" stroke="gray" points="20.606601717798213,582.5477272147525 20.606601717798213,998.5477272147525 236.6066017177982,998.5477272147525 236.6066017177982,582.5477272147525" />
<polygon fill="none" stroke-width="1" stroke-dasharray="2" stroke="gray" points="10.0,571.9411254969543 10.0,987.9411254969543 20.606601717798213,998.5477272147525 20.606601717798213,582.5477272147525" />
<polygon fill="none" stroke-width="1" stroke-dasharray="2" stroke="gray" points="20.606601717798213,582.5477272147525 236.6066017177982,582.5477272147525 226.0,571.9411254969543 10.0,571.9411254969543" />
<polygon fill="rgba(192,192,192,0.75)" stroke-width="1" stroke-dasharray="" stroke="black" points="10.0,987.9411254969543 226.0,987.9411254969543 236.6066017177982,998.5477272147525 20.606601717798213,998.5477272147525" />
<polygon fill="rgba(255,255,255,0.75)" stroke-width="1" stroke-dasharray="" stroke="black" points="236.6066017177982,582.5477272147525 236.6066017177982,998.5477272147525 226.0,987.9411254969543 226.0,571.9411254969543" />
<polygon fill="rgba(255,255,255,0.75)" stroke-width="1" stroke-dasharray="" stroke="black" points="10.0,571.9411254969543 226.0,571.9411254969543 226.0,987.9411254969543 10.0,987.9411254969543" />
<text style="" text-anchor="middle" x="118.0" y="779.9411254969543" fill="black">base bottom</text>
</svg>
