<svg width="1100" viewBox="0 0 550 364.5477272147525" xmlns="http://www.w3.org/2000/svg">
<polygon fill="none" stroke-width="1" stroke-dasharray="2" stroke="gray" points="405.5966017177982,50.60660171779821 405.5966017177982,36.714316041260396 420.6066017177982,40.594016973672694 420.6066017177982,30.619186461923732 405.5966017177982,34.49888739433602 405.5966017177982,20.606601717798213 405.5966017177982,20.606601717798213 35.61660171779815,20.606601717798213 35.61660171779821,34.49888739433602 20.606601717798213,30.61918646192374 20.606601717798213,30.61918646192374 20.606601717798213,40.59401697367269 20.606601717798213,40.59401697367269 35.61660171779821,36.714316041260396 35.61660171779821,50.60660171779821 405.5966017177982,50.60660171779821" />
<polygon fill="none" stroke-width="1" stroke-dasharray="2" stroke="gray" points="10.0,19.990000000000002 10.0,30.01 20.606601717798213,40.61660171779821 20.606601717798213,30.596601717798215 10.0,19.990000000000002" />
<polygon fill="none" stroke-width="1" stroke-dasharray="2" stroke="gray" points="20.606601717798213,30.606601717798213 35.60660171779821,34.488887394336025 25.0,23.882285676537812 10.0,20.0" />
<polygon fill="rgba(255,255,255,0.75)" stroke-width="1" stroke-dasharray="" stroke="black" points="10.0,30.0 25.0,26.117714323462188 35.60660171779821,36.7243160412604 20.606601717798213,40.60660171779821" />
<polygon fill="none" stroke-width="1" stroke-dasharray="2" stroke="gray" points="25.0,23.89228567653781 35.60660171779821,34.49888739433602 35.60660171779821,20.606601717798213 25.0,10.0 25.0,23.89228567653781" />
<polygon fill="none" stroke-width="1" stroke-dasharray="2" stroke="gray" points="25.0,26.107714323462186 25.0,40.0 35.60660171779821,50.60660171779821 35.60660171779821,36.714316041260396 25.0,26.107714323462186" />
<polygon fill="none" stroke-width="1" stroke-dasharray="2" stroke="gray" points="394.99000000000007,10.0 25.009999999999998,10.0 25.009999999999998,10.0 35.616601717798204,20.606601717798213 405.5966017177982,20.606601717798213 394.99000000000007,10.0" />
<polygon fill="rgba(192,192,192,0.75)" stroke-width="1" stroke-dasharray="" stroke="black" points="394.99000000000007,40.0 405.5966017177982,50.60660171779821 35.616601717798204,50.60660171779821 25.009999999999998,40.0 25.009999999999998,40.0 394.99000000000007,40.0" />
<polygon fill="rgba(255,255,255,0.75)" stroke-width="1" stroke-dasharray="" stroke="black" points="405.6066017177982,34.49888739433602 395.0,23.89228567653781 395.0,10.0 405.6066017177982,20.606601717798213 405.6066017177982,34.49888739433602" />
<polygon fill="rgba(255,255,255,0.75)" stroke-width="1" stroke-dasharray="" stroke="black" points="405.6066017177982,36.714316041260396 405.6066017177982,50.60660171779821 395.0,40.0 395.0,26.107714323462186 405.6066017177982,36.714316041260396" />
<polygon fill="none" stroke-width="1" stroke-dasharray="2" stroke="gray" points="410.0,20.0 395.0,23.882285676537812 405.6066017177982,34.488887394336025 420.6066017177982,30.606601717798213" />
<polygon fill="rgba(192,192,192,0.75)" stroke-width="1" stroke-dasharray="" stroke="silver" points="420.6066017177982,40.60660171779821 405.6066017177982,36.7243160412604 395.0,26.117714323462188 410.0,30.0" />
<polygon fill="rgba(255,255,255,0.75)" stroke-width="1" stroke-dasharray="" stroke="black" points="420.6066017177982,30.596601717798215 420.6066017177982,40.61660171779821 410.0,30.01 410.0,19.990000000000002 420.6066017177982,30.596601717798215" />
<polygon fill="rgba(255,255,255,0.75)" stroke-width="1" stroke-dasharray="" stroke="black" points="410.0,29.987415255874478 394.99,26.107714323462186 394.99,40.0 25.00999999999999,40.0 25.00999999999999,40.0 25.009999999999998,26.107714323462186 10.0,29.987415255874474 10.0,20.012584744125522 25.009999999999998,23.89228567653781 25.01,10.0 25.01,10.0 394.99,10.0 394.99,23.89228567653781 410.0,20.01258474412552 410.0,20.01258474412552 410.0,29.987415255874478" />
<text style="" text-anchor="middle" x="210.0" y="25.0" fill="black">till front</text>
<polygon fill="none" stroke-width="1" stroke-dasharray="2" stroke="gray" points="120.60660171779821,95.08548911213424 120.60660171779821,81.21320343559643 20.606601717798213,81.21320343559643 20.606601717798213,95.08548911213424 20.606601717798213,95.08548911213424 35.61660171779821,95.08548911213424 35.61660171779821,97.34091775905861 20.606601717798213,97.34091775905861 20.606601717798213,111.21320343559643 120.60660171779821,111.21320343559643 120.60660171779821,97.34091775905861 105.59660171779821,97.34091775905861 105.59660171779821,95.08548911213424 120.60660171779821,95.08548911213424" />
<polygon fill="none" stroke-width="1" stroke-dasharray="2" stroke="gray" points="10.0,80.61918646192373 20.606601717798213,95.10290436800872 20.606601717798213,81.21320343559643 10.0,70.60660171779821 10.0,80.61918646192373" />
<polygon fill="none" stroke-width="1" stroke-dasharray="2" stroke="gray" points="10.0,90.5940169736727 10.0,100.60660171779821 20.606601717798213,111.21320343559643 20.606601717798213,97.32350250318413 10.0,90.5940169736727" />
<polygon fill="rgba(255,255,255,0.75)" stroke-width="1" stroke-dasharray="" stroke="black" points="10.0,80.60660171779821 25.0,80.60660171779821 35.60660171779821,95.09548911213423 20.606601717798213,95.09548911213423" />
<polygon fill="none" stroke-width="1" stroke-dasharray="2" stroke="gray" points="20.606601717798213,97.33091775905862 35.60660171779821,97.33091775905862 25.0,90.60660171779821 10.0,90.60660171779821" />
<polygon fill="none" stroke-width="1" stroke-dasharray="2" stroke="gray" points="25.0,80.59918646192374 25.0,90.61401697367269 35.60660171779821,97.34350250318414 35.60660171779821,95.08290436800871 25.0,80.59918646192374" />
<polygon fill="none" stroke-width="1" stroke-dasharray="2" stroke="gray" points="20.606601717798213,81.21320343559643 120.60660171779821,81.21320343559643 110.0,70.60660171779821 10.0,70.60660171779821" />
<polygon fill="rgba(192,192,192,0.75)" stroke-width="1" stroke-dasharray="" stroke="black" points="10.0,100.60660171779821 110.0,100.60660171779821 120.60660171779821,111.21320343559643 20.606601717798213,111.21320343559643" />
<polygon fill="rgba(255,255,255,0.75)" stroke-width="1" stroke-dasharray="" stroke="black" points="105.60660171779821,95.08290436800871 105.60660171779821,97.34350250318414 95.0,90.61401697367269 95.0,80.59918646192374 105.60660171779821,95.08290436800871" />
<polygon fill="rgba(255,255,255,0.75)" stroke-width="1" stroke-dasharray="" stroke="black" points="120.60660171779821,95.09548911213423 105.60660171779821,95.09548911213423 95.0,80.60660171779821 110.0,80.60660171779821" />
<polygon fill="none" stroke-width="1" stroke-dasharray="2" stroke="gray" points="110.0,90.60660171779821 95.0,90.60660171779821 105.60660171779821,97.33091775905862 120.60660171779821,97.33091775905862" />
<polygon fill="rgba(255,255,255,0.75)" stroke-width="1" stroke-dasharray="" stroke="black" points="120.60660171779821,95.10290436800871 110.0,80.61918646192373 110.0,70.60660171779821 120.60660171779821,81.21320343559643 120.60660171779821,95.10290436800871" />
<polygon fill="rgba(255,255,255,0.75)" stroke-width="1" stroke-dasharray="" stroke="black" points="120.60660171779821,97.32350250318413 120.60660171779821,111.21320343559643 110.0,100.60660171779821 110.0,90.5940169736727 120.60660171779821,97.32350250318413" />
<polygon fill="rgba(255,255,255,0.75)" stroke-width="1" stroke-dasharray="" stroke="black" points="110.0,90.61660171779822 110.0,100.60660171779821 10.0,100.60660171779821 10.0,90.61660171779822 10.0,90.61660171779822 25.009999999999998,90.61660171779822 25.009999999999998,80.59660171779821 10.0,80.59660171779822 10.0,70.60660171779821 110.0,70.60660171779821 110.0,80.59660171779822 94.99,80.59660171779821 94.99,90.61660171779822 110.0,90.61660171779822" />
<text style="" text-anchor="middle" x="60.0" y="85.60660171779821" fill="black">till right</text>
<polygon fill="none" stroke-width="1" stroke-dasharray="2" stroke="gray" points="405.5966017177982,171.81980515339464 405.5966017177982,157.92751947685682 420.6066017177982,161.80722040926912 420.6066017177982,151.83238989752016 405.5966017177982,155.71209082993246 405.5966017177982,141.81980515339464 405.5966017177982,141.81980515339464 35.61660171779815,141.81980515339464 35.61660171779821,155.71209082993246 20.606601717798213,151.83238989752016 20.606601717798213,151.83238989752016 20.606601717798213,161.80722040926912 20.606601717798213,161.80722040926912 35.61660171779821,157.92751947685682 35.61660171779821,171.81980515339464 405.5966017177982,171.81980515339464" />
<polygon fill="none" stroke-width="1" stroke-dasharray="2" stroke="gray" points="10.0,141.20320343559644 10.0,151.22320343559642 20.606601717798213,161.82980515339463 20.606601717798213,151.80980515339465 10.0,141.20320343559644" />
<polygon fill="none" stroke-width="1" stroke-dasharray="2" stroke="gray" points="20.606601717798213,151.81980515339464 35.60660171779821,155.70209082993244 25.0,145.09548911213423 10.0,141.21320343559643" />
<polygon fill="rgba(255,255,255,0.75)" stroke-width="1" stroke-dasharray="" stroke="black" points="10.0,151.21320343559643 25.0,147.33091775905862 35.60660171779821,157.93751947685683 20.606601717798213,161.81980515339464" />
<polygon fill="none" stroke-width="1" stroke-dasharray="2" stroke="gray" points="25.0,145.10548911213425 35.60660171779821,155.71209082993246 35.60660171779821,141.81980515339464 25.0,131.21320343559643 25.0,145.10548911213425" />
<polygon fill="none" stroke-width="1" stroke-dasharray="2" stroke="gray" points="25.0,147.3209177590586 25.0,161.21320343559643 35.60660171779821,171.81980515339464 35.60660171779821,157.92751947685682 25.0,147.3209177590586" />
<polygon fill="none" stroke-width="1" stroke-dasharray="2" stroke="gray" points="394.99000000000007,131.21320343559643 25.009999999999998,131.21320343559643 25.009999999999998,131.21320343559643 35.616601717798204,141.81980515339464 405.5966017177982,141.81980515339464 394.99000000000007,131.21320343559643" />
<polygon fill="rgba(192,192,192,0.75)" stroke-width="1" stroke-dasharray="" stroke="black" points="394.99000000000007,161.21320343559643 405.5966017177982,171.81980515339464 35.616601717798204,171.81980515339464 25.009999999999998,161.21320343559643 25.009999999999998,161.21320343559643 394.99000000000007,161.21320343559643" />
<polygon fill="rgba(255,255,255,0.75)" stroke-width="1" stroke-dasharray="" stroke="black" points="405.6066017177982,155.71209082993246 395.0,145.10548911213425 395.0,131.21320343559643 405.6066017177982,141.81980515339464 405.6066017177982,155.71209082993246" />
<polygon fill="rgba(255,255,255,0.75)" stroke-width="1" stroke-dasharray="" stroke="black" points="405.6066017177982,157.92751947685682 405.6066017177982,171.81980515339464 395.0,161.21320343559643 395.0,147.3209177590586 405.6066017177982,157.92751947685682" />
<polygon fill="none" stroke-width="1" stroke-dasharray="2" stroke="gray" points="410.0,141.21320343559643 395.0,145.09548911213423 405.6066017177982,155.70209082993244 420.6066017177982,151.81980515339464" />
<polygon fill="rgba(192,192,192,0.75)" stroke-width="1" stroke-dasharray="" stroke="silver" points="420.6066017177982,161.81980515339464 405.6066017177982,157.93751947685683 395.0,147.33091775905862 410.0,151.21320343559643" />
<polygon fill="rgba(255,255,255,0.75)" stroke-width="1" stroke-dasharray="" stroke="black" points="420.6066017177982,151.80980515339465 420.6066017177982,161.82980515339463 410.0,151.22320343559642 410.0,141.20320343559644 420.6066017177982,151.80980515339465" />
<polygon fill="rgba(255,255,255,0.75)" stroke-width="1" stroke-dasharray="" stroke="black" points="410.0,151.2006186914709 394.99,147.3209177590586 394.99,161.21320343559643 25.00999999999999,161.21320343559643 25.00999999999999,161.21320343559643 25.009999999999998,147.3209177590586 10.0,151.2006186914709 10.0,141.22578817972195 25.009999999999998,145.10548911213425 25.01,131.21320343559643 25.01,131.21320343559643 394.99,131.21320343559643 394.99,145.10548911213425 410.0,141.22578817972195 410.0,141.22578817972195 410.0,151.2006186914709" />
<text style="" text-anchor="middle" x="210.0" y="146.21320343559643" fill="black">till back</text>
<polygon fill="none" stroke-width="1" stroke-dasharray="2" stroke="gray" points="120.60660171779821,216.29869254773067 120.60660171779821,202.42640687119285 20.606601717798213,202.42640687119285 20.606601717798213,216.29869254773067 20.606601717798213,216.29869254773067 35.61660171779821,216.29869254773067 35.61660171779821,218.55412119465504 20.606601717798213,218.55412119465504 20.606601717798213,232.42640687119285 120.60660171779821,232.42640687119285 120.60660171779821,218.55412119465504 105.59660171779821,218.55412119465504 105.59660171779821,216.29869254773067 120.60660171779821,216.29869254773067" />
<polygon fill="none" stroke-width="1" stroke-dasharray="2" stroke="gray" points="10.0,201.83238989752016 20.606601717798213,216.31610780360515 20.606601717798213,202.42640687119285 10.0,191.81980515339464 10.0,201.83238989752016" />
<polygon fill="none" stroke-width="1" stroke-dasharray="2" stroke="gray" points="10.0,211.80722040926912 10.0,221.81980515339464 20.606601717798213,232.42640687119285 20.606601717798213,218.53670593878056 10.0,211.80722040926912" />
<polygon fill="rgba(255,255,255,0.75)" stroke-width="1" stroke-dasharray="" stroke="black" points="10.0,201.81980515339464 25.0,201.81980515339464 35.60660171779821,216.30869254773066 20.606601717798213,216.30869254773066" />
<polygon fill="none" stroke-width="1" stroke-dasharray="2" stroke="gray" points="20.606601717798213,218.54412119465505 35.60660171779821,218.54412119465505 25.0,211.81980515339464 10.0,211.81980515339464" />
<polygon fill="none" stroke-width="1" stroke-dasharray="2" stroke="gray" points="25.0,201.81238989752018 25.0,211.8272204092691 35.60660171779821,218.55670593878057 35.60660171779821,216.29610780360514 25.0,201.81238989752018" />
<polygon fill="none" stroke-width="1" stroke-dasharray="2" stroke="gray" points="20.606601717798213,202.42640687119285 120.60660171779821,202.42640687119285 110.0,191.81980515339464 10.0,191.81980515339464" />
<polygon fill="rgba(192,192,192,0.75)" stroke-width="1" stroke-dasharray="" stroke="black" points="10.0,221.81980515339464 110.0,221.81980515339464 120.60660171779821,232.42640687119285 20.606601717798213,232.42640687119285" />
<polygon fill="rgba(255,255,255,0.75)" stroke-width="1" stroke-dasharray="" stroke="black" points="105.60660171779821,216.29610780360514 105.60660171779821,218.55670593878057 95.0,211.8272204092691 95.0,201.81238989752018 105.60660171779821,216.29610780360514" />
<polygon fill="rgba(255,255,255,0.75)" stroke-width="1" stroke-dasharray="" stroke="black" points="120.60660171779821,216.30869254773066 105.60660171779821,216.30869254773066 95.0,201.81980515339464 110.0,201.81980515339464" />
<polygon fill="none" stroke-width="1" stroke-dasharray="2" stroke="gray" points="110.0,211.81980515339464 95.0,211.81980515339464 105.60660171779821,218.54412119465505 120.60660171779821,218.54412119465505" />
<polygon fill="rgba(255,255,255,0.75)" stroke-width="1" stroke-dasharray="" stroke="black" points="120.60660171779821,216.31610780360515 110.0,201.83238989752016 110.0,191.81980515339464 120.60660171779821,202.42640687119285 120.60660171779821,216.31610780360515" />
<polygon fill="rgba(255,255,255,0.75)" stroke-width="1" stroke-dasharray="" stroke="black" points="120.60660171779821,218.53670593878056 120.60660171779821,232.42640687119285 110.0,221.81980515339464 110.0,211.80722040926912 120.60660171779821,218.53670593878056" />
<polygon fill="rgba(255,255,255,0.75)" stroke-width="1" stroke-dasharray="" stroke="black" points="110.0,211.82980515339463 110.0,221.81980515339464 10.0,221.81980515339464 10.0,211.82980515339463 10.0,211.82980515339463 25.009999999999998,211.82980515339463 25.009999999999998,201.80980515339465 10.0,201.80980515339465 10.0,191.81980515339464 110.0,191.81980515339464 110.0,201.80980515339465 94.99,201.80980515339465 94.99,211.82980515339463 110.0,211.82980515339463" />
<text style="" text-anchor="middle" x="60.0" y="206.81980515339464" fill="black">till left</text>
<polygon fill="none" stroke-width="1" stroke-dasharray="2" stroke="gray" points="12.121320343559642,254.54772721475248 12.121320343559642,354.5477272147525 412.12132034355966,354.5477272147525 412.12132034355966,254.54772721475248" />
<polygon fill="none" stroke-width="1" stroke-dasharray="2" stroke="gray" points="10.0,252.42640687119285 10.0,352.42640687119285 12.121320343559642,354.5477272147525 12.121320343559642,254.54772721475248" />
<polygon fill="none" stroke-width="1" stroke-dasharray="2" stroke="gray" points="12.121320343559642,254.54772721475248 412.12132034355966,254.54772721475248 410.0,252.42640687119285 10.0,252.42640687119285" />
<polygon fill="rgba(192,192,192,0.75)" stroke-width="1" stroke-dasharray="" stroke="black" points="10.0,352.42640687119285 410.0,352.42640687119285 412.12132034355966,354.5477272147525 12.121320343559642,354.5477272147525" />
<polygon fill="rgba(255,255,255,0.75)" stroke-width="1" stroke-dasharray="" stroke="black" points="412.12132034355966,254.54772721475248 412.12132034355966,354.5477272147525 410.0,352.42640687119285 410.0,252.42640687119285" />
<polygon fill="rgba(255,255,255,0.75)" stroke-width="1" stroke-dasharray="" stroke="black" points="10.0,252.42640687119285 410.0,252.42640687119285 410.0,352.42640687119285 10.0,352.42640687119285" />
<text style="" text-anchor="middle" x="210.0" y="302.42640687119285" fill="black">till bottom</text>
</svg>
