<svg width="1600" viewBox="0 -35.51471862576143 800 254.87720036002526" xmlns="http://www.w3.org/2000/svg">
<polygon fill="none" stroke-width="1" stroke-dasharray="2" stroke="gray" points="178.3919189857867,208.4045028697644 190.3919189857867,211.5051636430392 190.3919189857867,178.39191898578667 178.3919189857867,178.39191898578667 178.3919189857867,208.4045028697644" />
<polygon fill="none" stroke-width="1" stroke-dasharray="2" stroke="gray" points="178.3919189857867,226.87933510180895 178.3919189857867,241.9045028697644 190.3919189857867,245.0051636430392 190.3919189857867,223.77867432853415 178.3919189857867,226.87933510180895" />
<polygon fill="none" stroke-width="1" stroke-dasharray="2" stroke="gray" points="178.3919189857867,260.3793351018089 178.3919189857867,290.3919189857867 190.3919189857867,290.3919189857867 190.3919189857867,283.3919189857867 185.3919189857867,283.3919189857867 185.3919189857867,278.3919189857867 190.3919189857867,278.3919189857867 190.3919189857867,257.2786743285342 178.3919189857867,260.3793351018089" />
<polygon fill="none" stroke-width="1" stroke-dasharray="2" stroke="gray" points="178.3919189857867,260.3793351018089 190.4019189857867,257.2760904445564 190.4019189857867,290.3919189857867 590.3819189857867,290.3919189857866 590.3819189857867,257.27609044455636 602.3919189857867,260.37933510180886 602.3919189857867,260.37933510180886 602.3919189857867,241.90450286976434 602.3919189857867,241.90450286976434 590.3819189857867,245.00774752701687 590.3819189857867,223.77609044455636 602.3919189857867,226.8793351018089 602.3919189857867,208.40450286976437 590.3819189857867,211.50774752701687 590.3819189857867,178.39191898578662 590.3819189857867,178.39191898578662 190.4019189857867,178.39191898578667 190.4019189857867,178.39191898578667 190.4019189857867,211.50774752701693 178.3919189857867,208.4045028697644 178.3919189857867,226.87933510180895 190.4019189857867,223.77609044455642 190.4019189857867,245.00774752701693 178.3919189857867,241.9045028697644 178.3919189857867,241.9045028697644 178.3919189857867,260.3793351018089" />
<polygon fill="none" stroke-width="1" stroke-dasharray="2" stroke="gray" points="590.3919189857867,211.50516364303914 602.3919189857867,208.40450286976437 602.3919189857867,178.39191898578662 590.3919189857867,178.39191898578662 590.3919189857867,211.50516364303914" />
<polygon fill="none" stroke-width="1" stroke-dasharray="2" stroke="gray" points="590.3919189857867,223.7786743285341 590.3919189857867,245.00516364303914 602.3919189857867,241.90450286976434 602.3919189857867,226.8793351018089 590.3919189857867,223.7786743285341" />
<polygon fill="none" stroke-width="1" stroke-dasharray="2" stroke="gray" points="590.3919189857867,257.27867432853407 590.3919189857867,278.3919189857866 595.3919189857867,278.3919189857866 595.3919189857867,283.3919189857866 590.3919189857867,283.3919189857866 590.3919189857867,290.3919189857866 602.3919189857867,290.3919189857866 602.3919189857867,260.3793351018089 590.3919189857867,257.27867432853407" />
<polygon fill="none" stroke-width="1" stroke-dasharray="2" stroke="gray" points="169.90663761154812,199.8966376115481 169.90663761154812,218.41663761154808 178.3919189857867,226.90191898578666 178.3919189857867,208.38191898578668 169.90663761154812,199.8966376115481" />
<polygon fill="none" stroke-width="1" stroke-dasharray="2" stroke="gray" points="169.90663761154812,233.3966376115481 169.90663761154812,251.91663761154808 178.3919189857867,260.40191898578666 178.3919189857867,241.88191898578668 169.90663761154812,233.3966376115481" />
<polygon fill="none" stroke-width="1" stroke-dasharray="2" stroke="gray" points="178.3919189857867,208.39191898578667 190.3919189857867,211.49774752701694 181.90663761154812,203.01246615277836 169.90663761154812,199.9066376115481" />
<polygon fill="rgba(192,192,192,0.75)" stroke-width="1" stroke-dasharray="" stroke="silver" points="178.3919189857867,208.39191898578667 169.90663761154812,199.9066376115481 181.90663761154812,203.01246615277836 190.3919189857867,211.49774752701694" />
<polygon fill="rgba(255,255,255,0.75)" stroke-width="1" stroke-dasharray="" stroke="black" points="169.90663761154812,218.4066376115481 181.90663761154812,215.30080907031783 190.3919189857867,223.7860904445564 178.3919189857867,226.89191898578667" />
<polygon fill="none" stroke-width="1" stroke-dasharray="2" stroke="gray" points="190.3919189857867,223.7860904445564 181.90663761154812,215.30080907031783 169.90663761154812,218.4066376115481 178.3919189857867,226.89191898578667" />
<polygon fill="none" stroke-width="1" stroke-dasharray="2" stroke="gray" points="178.3919189857867,241.89191898578667 190.3919189857867,244.99774752701694 181.90663761154812,236.51246615277836 169.90663761154812,233.4066376115481" />
<polygon fill="rgba(192,192,192,0.75)" stroke-width="1" stroke-dasharray="" stroke="silver" points="178.3919189857867,241.89191898578667 169.90663761154812,233.4066376115481 181.90663761154812,236.51246615277836 190.3919189857867,244.99774752701694" />
<polygon fill="rgba(255,255,255,0.75)" stroke-width="1" stroke-dasharray="" stroke="black" points="169.90663761154812,251.9066376115481 181.90663761154812,248.80080907031783 190.3919189857867,257.2860904445564 178.3919189857867,260.3919189857867" />
<polygon fill="none" stroke-width="1" stroke-dasharray="2" stroke="gray" points="190.3919189857867,257.2860904445564 181.90663761154812,248.80080907031783 169.90663761154812,251.9066376115481 178.3919189857867,260.3919189857867" />
<polygon fill="none" stroke-width="1" stroke-dasharray="2" stroke="gray" points="181.90663761154812,203.02246615277835 190.3919189857867,211.50774752701693 190.3919189857867,178.39191898578667 181.90663761154812,169.9066376115481 181.90663761154812,203.02246615277835" />
<polygon fill="none" stroke-width="1" stroke-dasharray="2" stroke="gray" points="181.90663761154812,215.29080907031783 181.90663761154812,236.52246615277835 190.3919189857867,245.00774752701693 190.3919189857867,223.77609044455642 181.90663761154812,215.29080907031783" />
<polygon fill="none" stroke-width="1" stroke-dasharray="2" stroke="gray" points="181.90663761154812,248.79080907031783 181.90663761154812,269.9066376115481 185.44217151748086,273.4421715174808 185.44217151748086,278.4421715174808 181.90663761154812,274.9066376115481 181.90663761154812,281.9066376115481 190.3919189857867,290.3919189857867 190.3919189857867,257.2760904445564 181.90663761154812,248.79080907031783" />
<polygon fill="none" stroke-width="1" stroke-dasharray="2" stroke="gray" points="190.40191898578664,178.39191898578667 590.3819189857867,178.39191898578662 590.3819189857867,178.39191898578662 581.896637611548,169.90663761154806 181.9166376115481,169.9066376115481 190.40191898578664,178.39191898578667" />
<polygon fill="rgba(192,192,192,0.75)" stroke-width="1" stroke-dasharray="" stroke="black" points="190.40191898578664,290.3919189857867 181.9166376115481,281.9066376115481 581.896637611548,281.90663761154804 590.3819189857867,290.3919189857866 590.3819189857867,290.3919189857866 190.40191898578664,290.3919189857867" />
<polygon fill="rgba(255,255,255,0.75)" stroke-width="1" stroke-dasharray="" stroke="black" points="590.3919189857867,211.50774752701687 581.9066376115481,203.02246615277832 581.9066376115481,169.90663761154806 590.3919189857867,178.39191898578662 590.3919189857867,211.50774752701687" />
<polygon fill="rgba(255,255,255,0.75)" stroke-width="1" stroke-dasharray="" stroke="black" points="590.3919189857867,223.77609044455636 590.3919189857867,245.00774752701687 581.9066376115481,236.52246615277832 581.9066376115481,215.2908090703178 590.3919189857867,223.77609044455636" />
<polygon fill="rgba(255,255,255,0.75)" stroke-width="1" stroke-dasharray="" stroke="black" points="590.3919189857867,257.27609044455636 590.3919189857867,290.3919189857866 581.9066376115481,281.90663761154804 581.9066376115481,274.90663761154804 585.4421715174808,278.4421715174808 585.4421715174808,273.4421715174808 581.9066376115481,269.90663761154804 581.9066376115481,248.7908090703178 590.3919189857867,257.27609044455636" />
<polygon fill="rgba(255,255,255,0.75)" stroke-width="1" stroke-dasharray="" stroke="black" points="590.3919189857867,211.49774752701688 581.9066376115481,203.0124661527783 593.9066376115481,199.90663761154806 602.3919189857867,208.39191898578662" />
<polygon fill="none" stroke-width="1" stroke-dasharray="2" stroke="gray" points="593.9066376115481,199.90663761154806 581.9066376115481,203.0124661527783 590.3919189857867,211.49774752701688 602.3919189857867,208.39191898578662" />
<polygon fill="none" stroke-width="1" stroke-dasharray="2" stroke="gray" points="602.3919189857867,226.89191898578662 593.9066376115481,218.40663761154806 581.9066376115481,215.30080907031783 590.3919189857867,223.78609044455635" />
<polygon fill="rgba(192,192,192,0.75)" stroke-width="1" stroke-dasharray="" stroke="silver" points="602.3919189857867,226.89191898578662 590.3919189857867,223.78609044455635 581.9066376115481,215.30080907031783 593.9066376115481,218.40663761154806" />
<polygon fill="rgba(255,255,255,0.75)" stroke-width="1" stroke-dasharray="" stroke="black" points="590.3919189857867,244.99774752701688 581.9066376115481,236.5124661527783 593.9066376115481,233.40663761154806 602.3919189857867,241.89191898578662" />
<polygon fill="none" stroke-width="1" stroke-dasharray="2" stroke="gray" points="593.9066376115481,233.40663761154806 581.9066376115481,236.5124661527783 590.3919189857867,244.99774752701688 602.3919189857867,241.89191898578662" />
<polygon fill="none" stroke-width="1" stroke-dasharray="2" stroke="gray" points="602.3919189857867,260.3919189857866 593.9066376115481,251.90663761154806 581.9066376115481,248.80080907031783 590.3919189857867,257.28609044455635" />
<polygon fill="rgba(192,192,192,0.75)" stroke-width="1" stroke-dasharray="" stroke="silver" points="602.3919189857867,260.3919189857866 590.3919189857867,257.28609044455635 581.9066376115481,248.80080907031783 593.9066376115481,251.90663761154806" />
<polygon fill="rgba(255,255,255,0.75)" stroke-width="1" stroke-dasharray="" stroke="black" points="602.3919189857867,208.38191898578663 602.3919189857867,226.9019189857866 593.9066376115481,218.41663761154805 593.9066376115481,199.89663761154804 602.3919189857867,208.38191898578663" />
<polygon fill="rgba(255,255,255,0.75)" stroke-width="1" stroke-dasharray="" stroke="black" points="602.3919189857867,241.88191898578663 602.3919189857867,260.4019189857866 593.9066376115481,251.91663761154808 593.9066376115481,233.39663761154807 602.3919189857867,241.88191898578663" />
<polygon fill="rgba(192,192,192,0.75)" stroke-width="1" stroke-dasharray="" stroke="black" points="185.4521715174808,273.4421715174808 181.9166376115481,269.9066376115481 581.896637611548,269.90663761154804 585.4321715174808,273.4421715174808 585.4321715174808,273.4421715174808 185.4521715174808,273.4421715174808" />
<polygon fill="none" stroke-width="1" stroke-dasharray="2" stroke="gray" points="185.4521715174808,278.4421715174808 585.4321715174808,278.4421715174808 585.4321715174808,278.4421715174808 581.896637611548,274.90663761154804 181.9166376115481,274.9066376115481 185.4521715174808,278.4421715174808" />
<polygon fill="none" stroke-width="1" stroke-dasharray="2" stroke="gray" points="169.90663761154812,199.8992214955258 169.90663761154812,218.41405372757038 181.90663761154812,215.31339295429558 181.90663761154812,202.9998822688006 169.90663761154812,199.8992214955258" />
<polygon fill="none" stroke-width="1" stroke-dasharray="2" stroke="gray" points="169.90663761154812,233.3992214955258 169.90663761154812,251.91405372757038 181.90663761154812,248.81339295429558 181.90663761154812,236.4998822688006 169.90663761154812,233.3992214955258" />
<polygon fill="none" stroke-width="1" stroke-dasharray="2" stroke="gray" points="181.90663761154812,115.91922149552582 193.90663761154812,119.01988226880061 193.90663761154812,105.90663761154809 181.90663761154812,105.90663761154809 181.90663761154812,115.91922149552582" />
<polygon fill="none" stroke-width="1" stroke-dasharray="2" stroke="gray" points="181.90663761154812,141.39405372757037 181.90663761154812,146.41922149552582 193.90663761154812,149.51988226880061 193.90663761154812,138.29339295429557 181.90663761154812,141.39405372757037" />
<polygon fill="none" stroke-width="1" stroke-dasharray="2" stroke="gray" points="181.90663761154812,171.89405372757034 181.90663761154812,181.9066376115481 193.90663761154812,181.9066376115481 193.90663761154812,168.79339295429557 181.90663761154812,171.89405372757034" />
<polygon fill="none" stroke-width="1" stroke-dasharray="2" stroke="gray" points="181.90663761154812,196.9192223556736 196.90663761154812,200.7963385439604 196.90663761154812,186.9066376115481 181.90663761154812,186.9066376115481 181.90663761154812,196.9192223556736" />
<polygon fill="none" stroke-width="1" stroke-dasharray="2" stroke="gray" points="181.90663761154812,206.89405286742257 181.90663761154812,216.9066376115481 196.90663761154812,216.9066376115481 196.90663761154812,203.0169366791358 181.90663761154812,206.89405286742257" />
<polygon fill="none" stroke-width="1" stroke-dasharray="2" stroke="gray" points="181.90663761154812,171.89405372757037 193.9166376115481,168.79080907031783 193.9166376115481,181.9066376115481 569.8966376115482,181.90663761154806 569.8966376115482,168.7908090703178 581.9066376115481,171.89405372757034 581.9066376115481,171.89405372757034 581.9066376115481,146.4192214955258 581.9066376115481,146.4192214955258 569.8966376115482,149.52246615277832 569.8966376115482,138.2908090703178 581.9066376115481,141.39405372757034 581.9066376115481,115.91922149552579 569.8966376115482,119.02246615277832 569.8966376115482,105.90663761154806 569.8966376115482,105.90663761154806 193.91663761154805,105.90663761154809 193.91663761154805,105.90663761154809 193.9166376115481,119.02246615277835 181.90663761154812,115.91922149552582 181.90663761154812,141.39405372757037 193.9166376115481,138.29080907031783 193.9166376115481,149.52246615277835 181.90663761154812,146.41922149552582 181.90663761154812,146.41922149552582 181.90663761154812,171.89405372757037" />
<polygon fill="none" stroke-width="1" stroke-dasharray="2" stroke="gray" points="181.90663761154812,206.89405286742257 196.9166376115481,203.01435193501027 196.9166376115481,216.9066376115481 566.8966376115482,216.90663761154806 566.8966376115482,216.90663761154806 566.8966376115482,203.01435193501027 581.9066376115481,206.89405286742254 581.9066376115481,196.91922235567358 566.8966376115482,200.79892328808586 566.8966376115482,186.90663761154806 566.8966376115482,186.90663761154806 196.9166376115481,186.9066376115481 196.9166376115481,200.79892328808592 181.90663761154812,196.9192223556736 181.90663761154812,196.9192223556736 181.90663761154812,206.89405286742257" />
<polygon fill="rgba(255,255,255,0.75)" stroke-width="1" stroke-dasharray="" stroke="black" points="181.9166376115481,269.9066376115481 181.9166376115481,248.79080907031783 169.90663761154812,251.89405372757037 169.90663761154812,233.41922149552582 181.9166376115481,236.52246615277835 181.9166376115481,215.29080907031783 169.90663761154812,218.39405372757037 169.90663761154812,218.39405372757037 169.90663761154812,199.91922149552585 169.90663761154812,199.91922149552585 181.9166376115481,203.02246615277835 181.9166376115481,169.9066376115481 581.8966376115482,169.90663761154806 581.8966376115482,203.02246615277832 593.9066376115481,199.9192214955258 593.9066376115481,199.9192214955258 593.9066376115481,218.39405372757034 593.9066376115481,218.39405372757034 581.8966376115482,215.2908090703178 581.8966376115482,236.52246615277832 593.9066376115481,233.4192214955258 593.9066376115481,251.89405372757034 581.8966376115482,248.7908090703178 581.8966376115482,269.90663761154804 581.8966376115482,269.90663761154804 181.9166376115481,269.9066376115481" />
<polygon fill="none" stroke-width="1" stroke-dasharray="2" stroke="gray" points="566.9066376115481,200.79633854396036 581.9066376115481,196.91922235567358 581.9066376115481,186.90663761154806 566.9066376115481,186.90663761154806 566.9066376115481,200.79633854396036" />
<polygon fill="none" stroke-width="1" stroke-dasharray="2" stroke="gray" points="566.9066376115481,203.01693667913577 566.9066376115481,216.90663761154806 581.9066376115481,216.90663761154806 581.9066376115481,206.89405286742254 566.9066376115481,203.01693667913577" />
<polygon fill="none" stroke-width="1" stroke-dasharray="2" stroke="gray" points="569.9066376115481,119.01988226880059 581.9066376115481,115.91922149552579 581.9066376115481,105.90663761154806 569.9066376115481,105.90663761154806 569.9066376115481,119.01988226880059" />
<polygon fill="none" stroke-width="1" stroke-dasharray="2" stroke="gray" points="569.9066376115481,138.29339295429554 569.9066376115481,149.5198822688006 581.9066376115481,146.4192214955258 581.9066376115481,141.39405372757034 569.9066376115481,138.29339295429554" />
<polygon fill="none" stroke-width="1" stroke-dasharray="2" stroke="gray" points="569.9066376115481,168.79339295429554 569.9066376115481,181.90663761154806 581.9066376115481,181.90663761154806 581.9066376115481,171.89405372757034 569.9066376115481,168.79339295429554" />
<polygon fill="none" stroke-width="1" stroke-dasharray="2" stroke="gray" points="581.9066376115481,202.9998822688006 581.9066376115481,215.31339295429555 593.9066376115481,218.41405372757032 593.9066376115481,199.89922149552578 581.9066376115481,202.9998822688006" />
<polygon fill="none" stroke-width="1" stroke-dasharray="2" stroke="gray" points="581.9066376115481,236.49988226880058 581.9066376115481,248.81339295429555 593.9066376115481,251.91405372757035 593.9066376115481,233.3992214955258 581.9066376115481,236.49988226880058" />
<polygon fill="none" stroke-width="1" stroke-dasharray="2" stroke="gray" points="173.42135623730957,107.41135623730953 173.42135623730957,132.93135623730953 181.90663761154812,141.41663761154808 181.90663761154812,115.89663761154809 173.42135623730957,107.41135623730953" />
<polygon fill="none" stroke-width="1" stroke-dasharray="2" stroke="gray" points="173.42135623730957,137.91135623730955 173.42135623730957,163.43135623730956 181.90663761154812,171.91663761154808 181.90663761154812,146.3966376115481 173.42135623730957,137.91135623730955" />
<polygon fill="none" stroke-width="1" stroke-dasharray="2" stroke="gray" points="181.90663761154812,115.90663761154809 193.90663761154812,119.01246615277834 185.42135623730957,110.52718477853979 173.42135623730957,107.42135623730954" />
<polygon fill="rgba(192,192,192,0.75)" stroke-width="1" stroke-dasharray="" stroke="silver" points="181.90663761154812,115.90663761154809 173.42135623730957,107.42135623730954 185.42135623730957,110.52718477853979 193.90663761154812,119.01246615277834" />
<polygon fill="rgba(255,255,255,0.75)" stroke-width="1" stroke-dasharray="" stroke="black" points="173.42135623730957,132.92135623730954 185.42135623730957,129.8155276960793 193.90663761154812,138.30080907031783 181.90663761154812,141.4066376115481" />
<polygon fill="none" stroke-width="1" stroke-dasharray="2" stroke="gray" points="193.90663761154812,138.30080907031783 185.42135623730957,129.8155276960793 173.42135623730957,132.92135623730954 181.90663761154812,141.4066376115481" />
<polygon fill="none" stroke-width="1" stroke-dasharray="2" stroke="gray" points="181.90663761154812,146.4066376115481 193.90663761154812,149.51246615277836 185.42135623730957,141.02718477853978 173.42135623730957,137.92135623730954" />
<polygon fill="rgba(192,192,192,0.75)" stroke-width="1" stroke-dasharray="" stroke="silver" points="181.90663761154812,146.4066376115481 173.42135623730957,137.92135623730954 185.42135623730957,141.02718477853978 193.90663761154812,149.51246615277836" />
<polygon fill="rgba(255,255,255,0.75)" stroke-width="1" stroke-dasharray="" stroke="black" points="173.42135623730957,163.42135623730954 185.42135623730957,160.3155276960793 193.90663761154812,168.80080907031783 181.90663761154812,171.9066376115481" />
<polygon fill="none" stroke-width="1" stroke-dasharray="2" stroke="gray" points="193.90663761154812,168.80080907031783 185.42135623730957,160.3155276960793 173.42135623730957,163.42135623730954 181.90663761154812,171.9066376115481" />
<polygon fill="none" stroke-width="1" stroke-dasharray="2" stroke="gray" points="185.42135623730957,110.5371847785398 193.90663761154812,119.02246615277835 193.90663761154812,105.90663761154809 185.42135623730957,97.42135623730954 185.42135623730957,110.5371847785398" />
<polygon fill="none" stroke-width="1" stroke-dasharray="2" stroke="gray" points="185.42135623730957,129.80552769607928 185.42135623730957,141.0371847785398 193.90663761154812,149.52246615277835 193.90663761154812,138.29080907031783 185.42135623730957,129.80552769607928" />
<polygon fill="none" stroke-width="1" stroke-dasharray="2" stroke="gray" points="185.42135623730957,160.30552769607928 185.42135623730957,173.42135623730954 193.90663761154812,181.9066376115481 193.90663761154812,168.79080907031783 185.42135623730957,160.30552769607928" />
<polygon fill="none" stroke-width="1" stroke-dasharray="2" stroke="gray" points="193.91663761154817,105.90663761154809 569.8966376115482,105.90663761154806 569.8966376115482,105.90663761154806 561.4113562373095,97.42135623730948 185.43135623730956,97.42135623730954 193.91663761154817,105.90663761154809" />
<polygon fill="rgba(192,192,192,0.75)" stroke-width="1" stroke-dasharray="" stroke="black" points="193.91663761154817,181.9066376115481 185.43135623730956,173.42135623730954 561.4113562373095,173.42135623730948 569.8966376115482,181.90663761154806 569.8966376115482,181.90663761154806 193.91663761154817,181.9066376115481" />
<polygon fill="rgba(255,255,255,0.75)" stroke-width="1" stroke-dasharray="" stroke="black" points="569.9066376115481,119.02246615277832 561.4213562373095,110.53718477853974 561.4213562373095,97.42135623730948 569.9066376115481,105.90663761154806 569.9066376115481,119.02246615277832" />
<polygon fill="rgba(255,255,255,0.75)" stroke-width="1" stroke-dasharray="" stroke="black" points="569.9066376115481,138.2908090703178 569.9066376115481,149.52246615277832 561.4213562373095,141.03718477853974 561.4213562373095,129.80552769607922 569.9066376115481,138.2908090703178" />
<polygon fill="rgba(255,255,255,0.75)" stroke-width="1" stroke-dasharray="" stroke="black" points="569.9066376115481,168.7908090703178 569.9066376115481,181.90663761154806 561.4213562373095,173.42135623730948 561.4213562373095,160.30552769607922 569.9066376115481,168.7908090703178" />
<polygon fill="rgba(255,255,255,0.75)" stroke-width="1" stroke-dasharray="" stroke="black" points="569.9066376115481,119.01246615277832 561.4213562373095,110.52718477853973 573.4213562373095,107.42135623730948 581.9066376115481,115.90663761154806" />
<polygon fill="none" stroke-width="1" stroke-dasharray="2" stroke="gray" points="573.4213562373095,107.42135623730948 561.4213562373095,110.52718477853973 569.9066376115481,119.01246615277832 581.9066376115481,115.90663761154806" />
<polygon fill="none" stroke-width="1" stroke-dasharray="2" stroke="gray" points="581.9066376115481,141.40663761154806 573.4213562373095,132.92135623730948 561.4213562373095,129.81552769607924 569.9066376115481,138.30080907031783" />
<polygon fill="rgba(192,192,192,0.75)" stroke-width="1" stroke-dasharray="" stroke="silver" points="581.9066376115481,141.40663761154806 569.9066376115481,138.30080907031783 561.4213562373095,129.81552769607924 573.4213562373095,132.92135623730948" />
<polygon fill="rgba(255,255,255,0.75)" stroke-width="1" stroke-dasharray="" stroke="black" points="569.9066376115481,149.5124661527783 561.4213562373095,141.02718477853972 573.4213562373095,137.92135623730948 581.9066376115481,146.40663761154806" />
<polygon fill="none" stroke-width="1" stroke-dasharray="2" stroke="gray" points="573.4213562373095,137.92135623730948 561.4213562373095,141.02718477853972 569.9066376115481,149.5124661527783 581.9066376115481,146.40663761154806" />
<polygon fill="none" stroke-width="1" stroke-dasharray="2" stroke="gray" points="581.9066376115481,171.90663761154806 573.4213562373095,163.42135623730948 561.4213562373095,160.31552769607924 569.9066376115481,168.80080907031783" />
<polygon fill="rgba(192,192,192,0.75)" stroke-width="1" stroke-dasharray="" stroke="silver" points="581.9066376115481,171.90663761154806 569.9066376115481,168.80080907031783 561.4213562373095,160.31552769607924 573.4213562373095,163.42135623730948" />
<polygon fill="rgba(255,255,255,0.75)" stroke-width="1" stroke-dasharray="" stroke="black" points="581.9066376115481,115.89663761154806 581.9066376115481,141.41663761154805 573.4213562373095,132.93135623730947 573.4213562373095,107.41135623730948 581.9066376115481,115.89663761154806" />
<polygon fill="rgba(255,255,255,0.75)" stroke-width="1" stroke-dasharray="" stroke="black" points="581.9066376115481,146.39663761154807 581.9066376115481,171.91663761154808 573.4213562373095,163.4313562373095 573.4213562373095,137.9113562373095 581.9066376115481,146.39663761154807" />
<polygon fill="none" stroke-width="1" stroke-dasharray="2" stroke="gray" points="171.3000358937499,186.2900358937499 171.3000358937499,196.3100358937499 181.90663761154812,206.91663761154808 181.90663761154812,196.8966376115481 171.3000358937499,186.2900358937499" />
<polygon fill="none" stroke-width="1" stroke-dasharray="2" stroke="gray" points="181.90663761154812,196.9066376115481 196.90663761154812,200.7889232880859 186.3000358937499,190.18232157028768 171.3000358937499,186.30003589374988" />
<polygon fill="rgba(192,192,192,0.75)" stroke-width="1" stroke-dasharray="" stroke="silver" points="181.90663761154812,196.9066376115481 171.3000358937499,186.30003589374988 186.3000358937499,190.18232157028768 196.90663761154812,200.7889232880859" />
<polygon fill="rgba(255,255,255,0.75)" stroke-width="1" stroke-dasharray="" stroke="black" points="171.3000358937499,196.30003589374988 186.3000358937499,192.41775021721207 196.90663761154812,203.0243519350103 181.90663761154812,206.9066376115481" />
<polygon fill="none" stroke-width="1" stroke-dasharray="2" stroke="gray" points="196.90663761154812,203.0243519350103 186.3000358937499,192.41775021721207 171.3000358937499,196.30003589374988 181.90663761154812,206.9066376115481" />
<polygon fill="none" stroke-width="1" stroke-dasharray="2" stroke="gray" points="186.3000358937499,190.19232157028767 196.90663761154812,200.79892328808592 196.90663761154812,186.9066376115481 186.3000358937499,176.30003589374988 186.3000358937499,190.19232157028767" />
<polygon fill="none" stroke-width="1" stroke-dasharray="2" stroke="gray" points="186.3000358937499,192.40775021721208 186.3000358937499,206.30003589374988 196.90663761154812,216.9066376115481 196.90663761154812,203.01435193501027 186.3000358937499,192.40775021721208" />
<polygon fill="none" stroke-width="1" stroke-dasharray="2" stroke="gray" points="196.91663761154805,186.9066376115481 566.8966376115482,186.90663761154806 566.8966376115482,186.90663761154806 556.2900358937499,176.30003589374985 186.3100358937499,176.30003589374988 196.91663761154805,186.9066376115481" />
<polygon fill="rgba(192,192,192,0.75)" stroke-width="1" stroke-dasharray="" stroke="black" points="196.91663761154805,216.9066376115481 186.3100358937499,206.30003589374988 556.2900358937499,206.30003589374985 566.8966376115482,216.90663761154806 566.8966376115482,216.90663761154806 196.91663761154805,216.9066376115481" />
<polygon fill="rgba(255,255,255,0.75)" stroke-width="1" stroke-dasharray="" stroke="black" points="566.9066376115481,200.79892328808586 556.3000358937499,190.19232157028767 556.3000358937499,176.30003589374985 566.9066376115481,186.90663761154806 566.9066376115481,200.79892328808586" />
<polygon fill="rgba(255,255,255,0.75)" stroke-width="1" stroke-dasharray="" stroke="black" points="566.9066376115481,203.01435193501027 566.9066376115481,216.90663761154806 556.3000358937499,206.30003589374985 556.3000358937499,192.40775021721203 566.9066376115481,203.01435193501027" />
<polygon fill="rgba(255,255,255,0.75)" stroke-width="1" stroke-dasharray="" stroke="black" points="566.9066376115481,200.78892328808587 556.3000358937499,190.18232157028766 571.3000358937499,186.30003589374985 581.9066376115481,196.90663761154806" />
<polygon fill="none" stroke-width="1" stroke-dasharray="2" stroke="gray" points="571.3000358937499,186.30003589374985 556.3000358937499,190.18232157028766 566.9066376115481,200.78892328808587 581.9066376115481,196.90663761154806" />
<polygon fill="none" stroke-width="1" stroke-dasharray="2" stroke="gray" points="581.9066376115481,206.90663761154806 571.3000358937499,196.30003589374985 556.3000358937499,192.41775021721205 566.9066376115481,203.02435193501026" />
<polygon fill="rgba(192,192,192,0.75)" stroke-width="1" stroke-dasharray="" stroke="silver" points="581.9066376115481,206.90663761154806 566.9066376115481,203.02435193501026 556.3000358937499,192.41775021721205 571.3000358937499,196.30003589374985" />
<polygon fill="rgba(255,255,255,0.75)" stroke-width="1" stroke-dasharray="" stroke="black" points="581.9066376115481,196.89663761154807 581.9066376115481,206.91663761154808 571.3000358937499,196.31003589374984 571.3000358937499,186.29003589374986 581.9066376115481,196.89663761154807" />
<polygon fill="none" stroke-width="1" stroke-dasharray="2" stroke="gray" points="173.42135623730957,107.41394012128727 173.42135623730957,132.9287723533318 185.42135623730957,129.82811158005703 185.42135623730957,110.51460089456205 173.42135623730957,107.41394012128727" />
<polygon fill="none" stroke-width="1" stroke-dasharray="2" stroke="gray" points="173.42135623730957,137.91394012128725 173.42135623730957,163.4287723533318 185.42135623730957,160.328111580057 185.42135623730957,141.01460089456205 173.42135623730957,137.91394012128725" />
<polygon fill="rgba(255,255,255,0.75)" stroke-width="1" stroke-dasharray="" stroke="black" points="185.43135623730961,173.42135623730954 185.43135623730956,160.30552769607928 173.42135623730957,163.4087723533318 173.42135623730957,137.93394012128726 185.43135623730956,141.0371847785398 185.43135623730956,129.80552769607928 173.42135623730957,132.9087723533318 173.42135623730957,132.9087723533318 173.42135623730957,107.43394012128726 173.42135623730957,107.43394012128726 185.43135623730956,110.5371847785398 185.43135623730956,97.42135623730954 561.4113562373095,97.42135623730948 561.4113562373095,110.53718477853974 573.4213562373095,107.43394012128721 573.4213562373095,107.43394012128721 573.4213562373095,132.90877235333176 573.4213562373095,132.90877235333176 561.4113562373095,129.80552769607922 561.4113562373095,141.03718477853974 573.4213562373095,137.9339401212872 573.4213562373095,163.40877235333176 561.4113562373095,160.30552769607922 561.4113562373095,173.42135623730948 561.4113562373095,173.42135623730948 185.43135623730961,173.42135623730954" />
<polygon fill="none" stroke-width="1" stroke-dasharray="2" stroke="gray" points="561.4213562373095,110.514600894562 561.4213562373095,129.82811158005694 573.4213562373095,132.92877235333174 573.4213562373095,107.41394012128721 561.4213562373095,110.514600894562" />
<polygon fill="none" stroke-width="1" stroke-dasharray="2" stroke="gray" points="561.4213562373095,141.014600894562 561.4213562373095,160.32811158005694 573.4213562373095,163.42877235333177 573.4213562373095,137.91394012128723 561.4213562373095,141.014600894562" />
<polygon fill="none" stroke-width="1" stroke-dasharray="2" stroke="gray" points="171.3000358937499,186.29262063787542 171.3000358937499,196.30745114962434 186.3000358937499,192.4303349613376 186.3000358937499,190.16973682616216 171.3000358937499,186.29262063787542" />
<polygon fill="rgba(255,255,255,0.75)" stroke-width="1" stroke-dasharray="" stroke="black" points="186.3100358937499,206.30003589374988 186.3100358937499,192.40775021721208 171.3000358937499,196.28745114962436 171.3000358937499,186.3126206378754 186.3100358937499,190.19232157028767 186.3100358937499,176.30003589374988 186.3100358937499,176.30003589374988 556.29003589375,176.30003589374985 556.2900358937499,190.19232157028767 571.3000358937499,186.31262063787537 571.3000358937499,186.31262063787537 571.3000358937499,196.28745114962433 571.3000358937499,196.28745114962433 556.2900358937499,192.40775021721203 556.2900358937499,206.30003589374985 186.3100358937499,206.30003589374988" />
<polygon fill="none" stroke-width="1" stroke-dasharray="2" stroke="gray" points="556.3000358937499,190.16973682616214 556.3000358937499,192.43033496133756 571.3000358937499,196.30745114962434 571.3000358937499,186.29262063787536 556.3000358937499,190.16973682616214" />
<polygon fill="none" stroke-width="1" stroke-dasharray="2" stroke="gray" points="111.19595949289335,136.20595949289336 111.19595949289335,146.19595949289334 181.90663761154812,216.9066376115481 181.90663761154812,206.91663761154808 181.90663761154812,206.91663761154808 171.29296482593804,196.30296482593803 171.29296482593804,186.28296482593805 181.90663761154812,196.8966376115481 181.90663761154812,186.9066376115481 111.19595949289335,116.19595949289335 111.19595949289335,126.18595949289335 121.80963227850344,136.79963227850345 121.80963227850344,146.81963227850343 111.19595949289335,136.20595949289336" />
<polygon fill="none" stroke-width="1" stroke-dasharray="2" stroke="gray" points="196.90663761154812,186.9066376115481 126.19595949289335,116.19595949289335 111.19595949289335,116.19595949289335 181.90663761154812,186.9066376115481" />
<polygon fill="rgba(192,192,192,0.75)" stroke-width="1" stroke-dasharray="" stroke="black" points="181.90663761154812,216.9066376115481 111.19595949289335,146.19595949289334 126.19595949289335,146.19595949289334 196.90663761154812,216.9066376115481" />
<polygon fill="rgba(255,255,255,0.75)" stroke-width="1" stroke-dasharray="" stroke="black" points="126.19595949289335,130.06824516943118 126.19595949289335,116.19595949289335 196.90663761154812,186.9066376115481 196.90663761154812,200.7789232880859 196.90663761154812,200.7789232880859 186.29296482593804,190.16525050247586 186.29296482593804,192.42067914940023 196.90663761154812,203.03435193501028 196.90663761154812,216.9066376115481 126.19595949289335,146.19595949289334 126.19595949289335,132.32367381635555 136.80963227850344,142.93734660196563 136.80963227850344,140.68191795504126 126.19595949289335,130.06824516943118" />
<polygon fill="none" stroke-width="1" stroke-dasharray="2" stroke="gray" points="566.9066376115481,200.77892328808588 566.9066376115481,186.90663761154806 496.19595949289334,116.19595949289331 496.19595949289334,130.06824516943112 496.19595949289334,130.06824516943112 506.8096322785034,140.68191795504123 506.8096322785034,142.9373466019656 496.19595949289334,132.3236738163555 496.19595949289334,146.1959594928933 566.9066376115481,216.90663761154806 566.9066376115481,203.03435193501025 556.292964825938,192.42067914940017 556.292964825938,190.1652505024758 566.9066376115481,200.77892328808588" />
<polygon fill="none" stroke-width="1" stroke-dasharray="2" stroke="gray" points="496.19595949289334,116.19595949289331 566.9066376115481,186.90663761154806 581.9066376115481,186.90663761154806 511.19595949289334,116.19595949289331" />
<polygon fill="rgba(192,192,192,0.75)" stroke-width="1" stroke-dasharray="" stroke="black" points="511.19595949289334,146.1959594928933 581.9066376115481,216.90663761154806 566.9066376115481,216.90663761154806 496.19595949289334,146.1959594928933" />
<polygon fill="rgba(255,255,255,0.75)" stroke-width="1" stroke-dasharray="" stroke="black" points="581.9066376115481,206.91663761154808 581.9066376115481,216.90663761154806 511.19595949289334,146.1959594928933 511.19595949289334,136.20595949289333 511.19595949289334,136.20595949289333 521.8096322785034,146.8196322785034 521.8096322785034,136.7996322785034 511.19595949289334,126.18595949289332 511.19595949289334,116.19595949289331 581.9066376115481,186.90663761154806 581.9066376115481,196.89663761154807 571.292964825938,186.282964825938 571.292964825938,196.30296482593798 581.9066376115481,206.91663761154808" />
<polygon fill="rgba(255,255,255,0.75)" stroke-width="1" stroke-dasharray="" stroke="black" points="136.80256121069158,140.67226214310386 136.80256121069158,142.9328602782793 121.80256121069156,146.80997646656604 121.80256121069156,136.7951459548171 136.80256121069158,140.67226214310386" />
<polygon fill="rgba(255,255,255,0.75)" stroke-width="1" stroke-dasharray="" stroke="black" points="521.8025612106916,136.79514595481703 521.8025612106916,146.809976466566 506.8025612106915,142.93286027827924 506.8025612106915,140.6722621431038 521.8025612106916,136.79514595481703" />
<polygon fill="rgba(192,192,192,0.75)" stroke-width="1" stroke-dasharray="" stroke="silver" points="126.19595949289335,130.07824516943117 136.80256121069158,140.68484688722938 121.80256121069156,136.80256121069158 111.19595949289335,126.19595949289335" />
<polygon fill="none" stroke-width="1" stroke-dasharray="2" stroke="gray" points="111.19595949289335,136.19595949289334 121.80256121069156,146.80256121069158 136.80256121069158,142.92027553415375 126.19595949289335,132.31367381635553" />
<polygon fill="rgba(255,255,255,0.75)" stroke-width="1" stroke-dasharray="" stroke="black" points="511.19595949289334,126.19595949289331 521.8025612106916,136.80256121069152 506.8025612106915,140.68484688722933 496.19595949289334,130.0782451694311" />
<polygon fill="none" stroke-width="1" stroke-dasharray="2" stroke="gray" points="496.19595949289334,132.3136738163555 506.8025612106915,142.92027553415372 521.8025612106916,146.80256121069152 511.19595949289334,136.1959594928933" />
<polygon fill="none" stroke-width="1" stroke-dasharray="2" stroke="gray" points="19.999999999999996,102.01000000000005 19.999999999999996,132.00000000000003 178.3919189857867,290.3919189857867 178.3919189857867,260.40191898578666 169.89956654373626,251.90956654373628 169.89956654373626,233.38956654373627 178.3919189857867,241.88191898578668 178.3919189857867,241.88191898578668 178.3919189857867,226.90191898578666 178.3919189857867,226.90191898578666 169.89956654373626,218.40956654373625 169.89956654373626,199.88956654373624 178.3919189857867,208.38191898578668 178.3919189857867,178.39191898578667 19.999999999999996,20.00000000000004 19.999999999999996,49.99000000000004 19.999999999999996,49.99000000000004 28.492352442050432,58.48235244205046 28.492352442050432,77.00235244205047 19.999999999999996,68.51000000000003 19.999999999999996,83.49000000000005 28.492352442050432,91.98235244205048 28.492352442050432,110.50235244205048 19.999999999999996,102.01000000000005" />
<polygon fill="none" stroke-width="1" stroke-dasharray="2" stroke="gray" points="190.3919189857867,178.39191898578667 31.999999999999996,20.00000000000004 19.999999999999996,20.00000000000004 178.3919189857867,178.39191898578667" />
<polygon fill="rgba(192,192,192,0.75)" stroke-width="1" stroke-dasharray="" stroke="black" points="178.3919189857867,290.3919189857867 19.999999999999996,132.00000000000003 31.999999999999996,132.00000000000003 190.3919189857867,290.3919189857867" />
<polygon fill="rgba(192,192,192,0.75)" stroke-width="1" stroke-dasharray="" stroke="black" points="185.3919189857867,278.3919189857867 26.999999999999996,120.00000000000004 31.999999999999996,120.00000000000004 190.3919189857867,278.3919189857867" />
<polygon fill="none" stroke-width="1" stroke-dasharray="2" stroke="gray" points="190.3919189857867,283.3919189857867 31.999999999999996,125.00000000000004 26.999999999999996,125.00000000000004 185.3919189857867,283.3919189857867" />
<polygon fill="rgba(255,255,255,0.75)" stroke-width="1" stroke-dasharray="" stroke="black" points="31.999999999999996,86.59582854123029 31.999999999999996,65.40417145876978 31.999999999999996,65.40417145876978 40.49235244205043,73.89652390082023 40.49235244205043,61.58818098328072 31.999999999999996,53.09582854123028 31.999999999999996,20.00000000000004 190.3919189857867,178.39191898578667 190.3919189857867,211.48774752701692 190.3919189857867,211.48774752701692 181.89956654373626,202.9953950849665 181.89956654373626,215.303738002506 190.3919189857867,223.7960904445564 190.3919189857867,244.98774752701692 181.89956654373626,236.4953950849665 181.89956654373626,248.803738002506 190.3919189857867,257.2960904445564 190.3919189857867,257.2960904445564 190.3919189857867,278.3919189857867 31.999999999999996,120.00000000000004 31.999999999999996,98.9041714587698 40.49235244205043,107.39652390082023 40.49235244205043,95.08818098328072 31.999999999999996,86.59582854123029" />
<polygon fill="none" stroke-width="1" stroke-dasharray="2" stroke="gray" points="40.485281374238575,30.495281374238616 40.485281374238575,40.48528137423861 181.90663761154812,181.9066376115481 181.90663761154812,171.91663761154808 173.4142851694977,163.4242851694977 173.4142851694977,137.90428516949768 181.90663761154812,146.3966376115481 181.90663761154812,146.3966376115481 181.90663761154812,141.41663761154808 181.90663761154812,141.41663761154808 173.4142851694977,132.92428516949767 173.4142851694977,107.40428516949768 181.90663761154812,115.89663761154809 181.90663761154812,105.90663761154809 40.485281374238575,-35.51471862576139 40.485281374238575,-25.524718625761388 40.485281374238575,-25.524718625761388 48.97763381628901,-17.03236618371096 48.97763381628901,8.487633816289037 40.485281374238575,-0.004718625761391593 40.485281374238575,4.9752813742386195 48.97763381628901,13.467633816289041 48.97763381628901,38.98763381628905 40.485281374238575,30.495281374238616" />
<polygon fill="none" stroke-width="1" stroke-dasharray="2" stroke="gray" points="193.90663761154812,105.90663761154809 52.485281374238575,-35.51471862576139 40.485281374238575,-35.51471862576139 181.90663761154812,105.90663761154809" />
<polygon fill="rgba(192,192,192,0.75)" stroke-width="1" stroke-dasharray="" stroke="black" points="181.90663761154812,181.9066376115481 40.485281374238575,40.48528137423861 52.485281374238575,40.48528137423861 193.90663761154812,181.9066376115481" />
<polygon fill="rgba(255,255,255,0.75)" stroke-width="1" stroke-dasharray="" stroke="black" points="126.19595949289335,130.08566042530563 111.19595949289335,126.20854423701887 111.19595949289335,116.19595949289335 126.19595949289335,116.19595949289335 126.19595949289335,130.08566042530563" />
<polygon fill="rgba(255,255,255,0.75)" stroke-width="1" stroke-dasharray="" stroke="black" points="126.19595949289335,132.30625856048107 126.19595949289335,146.19595949289334 111.19595949289335,146.19595949289334 111.19595949289335,136.18337474876782 126.19595949289335,132.30625856048107" />
<polygon fill="rgba(255,255,255,0.75)" stroke-width="1" stroke-dasharray="" stroke="black" points="52.485281374238575,8.081109915468863 52.485281374238575,-3.110547166991653 52.485281374238575,-3.110547166991653 60.977633816289,5.381805275058781 60.977633816289,-13.926537642480717 52.485281374238575,-22.418890084531142 52.485281374238575,-35.51471862576139 193.90663761154812,105.90663761154809 193.90663761154812,119.00246615277834 193.90663761154812,119.00246615277834 185.4142851694977,110.51011371072792 185.4142851694977,129.81845662826743 193.90663761154812,138.31080907031784 193.90663761154812,149.50246615277834 185.4142851694977,141.01011371072792 185.4142851694977,160.31845662826743 193.90663761154812,168.81080907031784 193.90663761154812,168.81080907031784 193.90663761154812,181.9066376115481 52.485281374238575,40.48528137423861 52.485281374238575,27.389452833008363 60.977633816289,35.88180527505878 60.977633816289,16.57346235751929 52.485281374238575,8.081109915468863" />
<polygon fill="none" stroke-width="1" stroke-dasharray="2" stroke="gray" points="569.9066376115481,149.5024661527783 569.9066376115481,138.31080907031782 569.9066376115481,138.31080907031782 561.4142851694976,129.8184566282674 561.4142851694976,110.5101137107279 569.9066376115481,119.00246615277831 569.9066376115481,105.90663761154806 428.4852813742386,-35.51471862576143 428.4852813742386,-22.418890084531185 428.4852813742386,-22.418890084531185 436.977633816289,-13.92653764248075 436.977633816289,5.381805275058749 428.4852813742386,-3.110547166991685 428.4852813742386,8.081109915468817 436.977633816289,16.573462357519258 436.977633816289,35.88180527505875 428.4852813742386,27.389452833008313 428.4852813742386,27.389452833008313 428.4852813742386,40.48528137423857 569.9066376115481,181.90663761154806 569.9066376115481,168.81080907031782 561.4142851694976,160.3184566282674 561.4142851694976,141.0101137107279 569.9066376115481,149.5024661527783" />
<polygon fill="rgba(255,255,255,0.75)" stroke-width="1" stroke-dasharray="" stroke="black" points="511.19595949289334,126.20854423701883 496.19595949289334,130.0856604253056 496.19595949289334,116.19595949289331 511.19595949289334,116.19595949289331 511.19595949289334,126.20854423701883" />
<polygon fill="rgba(255,255,255,0.75)" stroke-width="1" stroke-dasharray="" stroke="black" points="511.19595949289334,136.1833747487678 511.19595949289334,146.1959594928933 496.19595949289334,146.1959594928933 496.19595949289334,132.306258560481 511.19595949289334,136.1833747487678" />
<polygon fill="none" stroke-width="1" stroke-dasharray="2" stroke="gray" points="428.4852813742386,-35.51471862576143 569.9066376115481,105.90663761154806 581.9066376115481,105.90663761154806 440.4852813742386,-35.51471862576143" />
<polygon fill="rgba(192,192,192,0.75)" stroke-width="1" stroke-dasharray="" stroke="black" points="440.4852813742386,40.48528137423857 581.9066376115481,181.90663761154806 569.9066376115481,181.90663761154806 428.4852813742386,40.48528137423857" />
<polygon fill="rgba(255,255,255,0.75)" stroke-width="1" stroke-dasharray="" stroke="black" points="581.9066376115481,171.91663761154808 581.9066376115481,181.90663761154806 440.4852813742386,40.48528137423857 440.4852813742386,30.495281374238573 448.977633816289,38.987633816289005 448.977633816289,13.467633816289005 440.4852813742386,4.9752813742385715 440.4852813742386,4.9752813742385715 440.4852813742386,-0.004718625761432449 440.4852813742386,-0.004718625761432449 448.977633816289,8.487633816289001 448.977633816289,-17.032366183710995 440.4852813742386,-25.524718625761437 440.4852813742386,-35.51471862576143 581.9066376115481,105.90663761154806 581.9066376115481,115.89663761154807 581.9066376115481,115.89663761154807 573.4142851694976,107.40428516949765 573.4142851694976,132.92428516949764 581.9066376115481,141.41663761154805 581.9066376115481,146.39663761154807 573.4142851694976,137.90428516949765 573.4142851694976,163.42428516949764 581.9066376115481,171.91663761154808" />
<polygon fill="none" stroke-width="1" stroke-dasharray="2" stroke="gray" points="590.3919189857867,244.98774752701686 590.3919189857867,223.79609044455634 590.3919189857867,223.79609044455634 581.8995665437362,215.30373800250595 581.8995665437362,202.99539508496645 590.3919189857867,211.48774752701686 590.3919189857867,178.39191898578662 432.0,20.0 432.0,53.095828541230254 432.0,53.095828541230254 440.49235244205045,61.588180983280694 440.49235244205045,73.89652390082018 432.0,65.40417145876974 432.0,86.59582854123025 440.49235244205045,95.08818098328068 440.49235244205045,107.39652390082018 432.0,98.90417145876975 432.0,98.90417145876975 432.0,120.0 590.3919189857867,278.3919189857866 590.3919189857867,257.2960904445564 581.8995665437362,248.80373800250595 581.8995665437362,236.49539508496645 590.3919189857867,244.98774752701686" />
<polygon fill="rgba(192,192,192,0.75)" stroke-width="1" stroke-dasharray="" stroke="black" points="437.0,120.0 595.3919189857867,278.3919189857866 590.3919189857867,278.3919189857866 432.0,120.0" />
<polygon fill="none" stroke-width="1" stroke-dasharray="2" stroke="gray" points="432.0,125.0 590.3919189857867,283.3919189857866 595.3919189857867,283.3919189857866 437.0,125.0" />
<polygon fill="none" stroke-width="1" stroke-dasharray="2" stroke="gray" points="432.0,20.0 590.3919189857867,178.39191898578662 602.3919189857867,178.39191898578662 444.0,20.0" />
<polygon fill="rgba(192,192,192,0.75)" stroke-width="1" stroke-dasharray="" stroke="black" points="444.0,132.0 602.3919189857867,290.3919189857866 590.3919189857867,290.3919189857866 432.0,132.0" />
<polygon fill="rgba(255,255,255,0.75)" stroke-width="1" stroke-dasharray="" stroke="black" points="602.3919189857867,260.4019189857866 602.3919189857867,290.3919189857866 444.0,132.0 444.0,102.01 452.49235244205045,110.50235244205044 452.49235244205045,91.98235244205044 444.0,83.49000000000001 444.0,83.49000000000001 444.0,68.50999999999999 444.0,68.50999999999999 452.49235244205045,77.00235244205042 452.49235244205045,58.48235244205043 444.0,49.989999999999995 444.0,20.0 602.3919189857867,178.39191898578662 602.3919189857867,208.38191898578663 602.3919189857867,208.38191898578663 593.8995665437362,199.88956654373618 593.8995665437362,218.4095665437362 602.3919189857867,226.9019189857866 602.3919189857867,241.88191898578663 593.8995665437362,233.3895665437362 593.8995665437362,251.90956654373622 602.3919189857867,260.4019189857866" />
<polygon fill="rgba(255,255,255,0.75)" stroke-width="1" stroke-dasharray="" stroke="black" points="60.97056274847714,-13.936192594270302 60.97056274847714,5.3773180912246445 48.97056274847715,8.477978864499441 48.97056274847715,-17.036853367545092 60.97056274847714,-13.936192594270302" />
<polygon fill="rgba(255,255,255,0.75)" stroke-width="1" stroke-dasharray="" stroke="black" points="60.97056274847714,16.563807405729698 60.97056274847714,35.87731809122465 48.97056274847715,38.97797886449946 48.97056274847715,13.463146632454908 60.97056274847714,16.563807405729698" />
<polygon fill="rgba(255,255,255,0.75)" stroke-width="1" stroke-dasharray="" stroke="black" points="448.97056274847716,-17.03685336754513 448.97056274847716,8.477978864499402 436.97056274847716,5.37731809122462 436.97056274847716,-13.936192594270342 448.97056274847716,-17.03685336754513" />
<polygon fill="rgba(255,255,255,0.75)" stroke-width="1" stroke-dasharray="" stroke="black" points="448.97056274847716,13.463146632454862 448.97056274847716,38.977978864499406 436.97056274847716,35.87731809122461 436.97056274847716,16.56380740572966 448.97056274847716,13.463146632454862" />
<polygon fill="rgba(192,192,192,0.75)" stroke-width="1" stroke-dasharray="" stroke="silver" points="52.485281374238575,-22.408890084531137 60.97056274847714,-13.92360871029257 48.97056274847715,-17.029437251522822 40.485281374238575,-25.51471862576139" />
<polygon fill="none" stroke-width="1" stroke-dasharray="2" stroke="gray" points="40.485281374238575,-0.014718625761389603 48.97056274847715,8.470562748477178 60.97056274847714,5.364734207246926 52.485281374238575,-3.120547166991644" />
<polygon fill="rgba(192,192,192,0.75)" stroke-width="1" stroke-dasharray="" stroke="silver" points="52.485281374238575,8.091109915468861 60.97056274847714,16.57639128970743 48.97056274847715,13.470562748477178 40.485281374238575,4.98528137423861" />
<polygon fill="none" stroke-width="1" stroke-dasharray="2" stroke="gray" points="40.485281374238575,30.48528137423861 48.97056274847715,38.97056274847718 60.97056274847714,35.864734207246926 52.485281374238575,27.379452833008358" />
<polygon fill="rgba(255,255,255,0.75)" stroke-width="1" stroke-dasharray="" stroke="black" points="440.4852813742386,-25.514718625761432 448.97056274847716,-17.02943725152286 436.97056274847716,-13.923608710292608 428.4852813742386,-22.40889008453118" />
<polygon fill="none" stroke-width="1" stroke-dasharray="2" stroke="gray" points="428.4852813742386,-3.120547166991683 436.97056274847716,5.364734207246887 448.97056274847716,8.470562748477139 440.4852813742386,-0.01471862576143046" />
<polygon fill="rgba(255,255,255,0.75)" stroke-width="1" stroke-dasharray="" stroke="black" points="440.4852813742386,4.9852813742385695 448.97056274847716,13.470562748477139 436.97056274847716,16.57639128970739 428.4852813742386,8.091109915468822" />
<polygon fill="none" stroke-width="1" stroke-dasharray="2" stroke="gray" points="428.4852813742386,27.379452833008315 436.97056274847716,35.86473420724688 448.97056274847716,38.970562748477136 440.4852813742386,30.485281374238568" />
<polygon fill="none" stroke-width="1" stroke-dasharray="2" stroke="gray" points="415.5966017177982,60.60660171779821 415.5966017177982,46.7143160412604 430.6066017177982,50.594016973672694 430.6066017177982,40.61918646192373 415.5966017177982,44.49888739433602 415.5966017177982,30.606601717798213 415.5966017177982,30.606601717798213 45.61660171779815,30.606601717798213 45.61660171779821,44.49888739433602 30.606601717798213,40.61918646192374 30.606601717798213,40.61918646192374 30.606601717798213,50.59401697367269 30.606601717798213,50.59401697367269 45.61660171779821,46.7143160412604 45.61660171779821,60.60660171779821 415.5966017177982,60.60660171779821" />
<polygon fill="rgba(255,255,255,0.75)" stroke-width="1" stroke-dasharray="" stroke="black" points="40.48528137423857,61.57852603149114 40.48528137423857,73.8920367169861 28.48528137423857,76.99269749026088 28.48528137423857,58.477865258216326 40.48528137423857,61.57852603149114" />
<polygon fill="rgba(255,255,255,0.75)" stroke-width="1" stroke-dasharray="" stroke="black" points="40.48528137423857,95.07852603149112 40.48528137423857,107.3920367169861 28.48528137423857,110.4926974902609 28.48528137423857,91.97786525821634 40.48528137423857,95.07852603149112" />
<polygon fill="rgba(255,255,255,0.75)" stroke-width="1" stroke-dasharray="" stroke="black" points="52.485281374238575,-22.401473968508874 40.485281374238575,-25.502134741783664 40.485281374238575,-35.51471862576139 52.485281374238575,-35.51471862576139 52.485281374238575,-22.401473968508874" />
<polygon fill="rgba(255,255,255,0.75)" stroke-width="1" stroke-dasharray="" stroke="black" points="52.485281374238575,-3.127963283013914 52.485281374238575,8.098526031491131 40.485281374238575,4.997865258216336 40.485281374238575,-0.02730250973911552 52.485281374238575,-3.127963283013914" />
<polygon fill="rgba(255,255,255,0.75)" stroke-width="1" stroke-dasharray="" stroke="black" points="52.485281374238575,27.37203671698608 52.485281374238575,40.48528137423861 40.485281374238575,40.48528137423861 40.485281374238575,30.472697490260884 52.485281374238575,27.37203671698608" />
<polygon fill="none" stroke-width="1" stroke-dasharray="2" stroke="gray" points="416.47528137423853,104.48528137423857 416.4752813742386,91.36945283300831 428.4852813742386,94.47269749026084 428.4852813742386,68.9978652582163 416.4752813742386,72.10110991546883 416.4752813742386,60.86945283300832 428.4852813742386,63.97269749026084 428.4852813742386,63.97269749026084 428.4852813742386,38.497865258216294 428.4852813742386,38.497865258216294 416.4752813742386,41.60110991546882 416.4752813742386,28.485281374238568 40.495281374238616,28.485281374238568 40.49528137423857,41.60110991546882 28.48528137423857,38.4978652582163 28.48528137423857,38.4978652582163 28.48528137423857,63.97269749026084 28.48528137423857,63.97269749026084 40.49528137423857,60.86945283300832 40.49528137423857,72.10110991546883 28.48528137423857,68.9978652582163 28.48528137423857,94.47269749026083 40.49528137423857,91.36945283300831 40.495281374238616,104.48528137423857 40.495281374238616,104.48528137423857 416.47528137423853,104.48528137423857" />
<polygon fill="none" stroke-width="1" stroke-dasharray="2" stroke="gray" points="440.4752813742386,128.48528137423858 440.4752813742386,107.36945283300831 452.4852813742386,110.47269749026084 452.4852813742386,91.9978652582163 440.4752813742386,95.10110991546883 440.4752813742386,73.86945283300831 452.4852813742386,76.97269749026084 452.4852813742386,76.97269749026084 452.4852813742386,58.49786525821631 452.4852813742386,58.49786525821631 440.4752813742386,61.60110991546882 440.4752813742386,28.485281374238568 40.49528137423856,28.485281374238568 40.49528137423857,61.60110991546882 28.48528137423857,58.497865258216294 28.48528137423857,58.497865258216294 28.48528137423857,76.97269749026084 28.48528137423857,76.97269749026084 40.49528137423857,73.86945283300831 40.49528137423857,95.10110991546883 28.48528137423857,91.9978652582163 28.48528137423857,110.47269749026083 40.49528137423857,107.36945283300831 40.49528137423856,128.48528137423858 40.49528137423856,128.48528137423858 440.4752813742386,128.48528137423858" />
<polygon fill="rgba(255,255,255,0.75)" stroke-width="1" stroke-dasharray="" stroke="black" points="440.4852813742386,-25.502134741783706 428.4852813742386,-22.40147396850891 428.4852813742386,-35.51471862576143 440.4852813742386,-35.51471862576143 440.4852813742386,-25.502134741783706" />
<polygon fill="rgba(255,255,255,0.75)" stroke-width="1" stroke-dasharray="" stroke="black" points="440.4852813742386,-0.027302509739156378 440.4852813742386,4.9978652582162955 428.4852813742386,8.098526031491092 428.4852813742386,-3.127963283013953 440.4852813742386,-0.027302509739156378" />
<polygon fill="rgba(255,255,255,0.75)" stroke-width="1" stroke-dasharray="" stroke="black" points="440.4852813742386,30.472697490260828 440.4852813742386,40.48528137423857 428.4852813742386,40.48528137423857 428.4852813742386,27.372036716986045 440.4852813742386,30.472697490260828" />
<polygon fill="rgba(255,255,255,0.75)" stroke-width="1" stroke-dasharray="" stroke="black" points="452.4852813742386,58.4778652582163 452.4852813742386,76.99269749026084 440.4852813742386,73.89203671698604 440.4852813742386,61.57852603149108 452.4852813742386,58.4778652582163" />
<polygon fill="rgba(255,255,255,0.75)" stroke-width="1" stroke-dasharray="" stroke="black" points="452.4852813742386,91.9778652582163 452.4852813742386,110.49269749026085 440.4852813742386,107.39203671698606 440.4852813742386,95.07852603149108 452.4852813742386,91.9778652582163" />
<polygon fill="rgba(192,192,192,0.75)" stroke-width="1" stroke-dasharray="" stroke="black" points="436.9397474683059,124.94974746830583 440.4752813742386,128.48528137423858 40.495281374238616,128.48528137423858 36.95974746830583,124.94974746830583 36.95974746830583,124.94974746830583 436.9397474683059,124.94974746830583" />
<polygon fill="none" stroke-width="1" stroke-dasharray="2" stroke="gray" points="436.9397474683059,129.94974746830584 36.95974746830583,129.94974746830584 36.95974746830583,129.94974746830584 40.495281374238616,133.48528137423858 440.4752813742386,133.48528137423858 436.9397474683059,129.94974746830584" />
<polygon fill="none" stroke-width="1" stroke-dasharray="2" stroke="gray" points="20.0,29.990000000000002 20.0,40.010000000000005 30.606601717798213,50.61660171779822 30.606601717798213,40.596601717798215 20.0,29.990000000000002" />
<polygon fill="none" stroke-width="1" stroke-dasharray="2" stroke="gray" points="30.606601717798213,40.60660171779821 45.60660171779821,44.488887394336025 35.0,33.88228567653781 20.0,30.0" />
<polygon fill="rgba(255,255,255,0.75)" stroke-width="1" stroke-dasharray="" stroke="black" points="20.0,40.0 35.0,36.11771432346219 45.60660171779821,46.7243160412604 30.606601717798213,50.60660171779821" />
<polygon fill="none" stroke-width="1" stroke-dasharray="2" stroke="gray" points="35.0,33.89228567653781 45.60660171779821,44.49888739433602 45.60660171779821,30.606601717798213 35.0,20.0 35.0,33.89228567653781" />
<polygon fill="none" stroke-width="1" stroke-dasharray="2" stroke="gray" points="35.0,36.10771432346219 35.0,50.0 45.60660171779821,60.60660171779821 45.60660171779821,46.7143160412604 35.0,36.10771432346219" />
<polygon fill="none" stroke-width="1" stroke-dasharray="2" stroke="gray" points="404.99000000000007,20.0 35.01,20.0 35.01,20.0 45.616601717798204,30.606601717798213 415.5966017177982,30.606601717798213 404.99000000000007,20.0" />
<polygon fill="rgba(192,192,192,0.75)" stroke-width="1" stroke-dasharray="" stroke="black" points="404.99000000000007,50.0 415.5966017177982,60.60660171779821 45.616601717798204,60.60660171779821 35.01,50.0 35.01,50.0 404.99000000000007,50.0" />
<polygon fill="rgba(255,255,255,0.75)" stroke-width="1" stroke-dasharray="" stroke="black" points="415.6066017177982,44.49888739433602 405.0,33.89228567653781 405.0,20.0 415.6066017177982,30.606601717798213 415.6066017177982,44.49888739433602" />
<polygon fill="rgba(255,255,255,0.75)" stroke-width="1" stroke-dasharray="" stroke="black" points="415.6066017177982,46.7143160412604 415.6066017177982,60.60660171779821 405.0,50.0 405.0,36.10771432346219 415.6066017177982,46.7143160412604" />
<polygon fill="none" stroke-width="1" stroke-dasharray="2" stroke="gray" points="420.0,30.0 405.0,33.88228567653781 415.6066017177982,44.488887394336025 430.6066017177982,40.60660171779821" />
<polygon fill="rgba(192,192,192,0.75)" stroke-width="1" stroke-dasharray="" stroke="silver" points="430.6066017177982,50.60660171779821 415.6066017177982,46.7243160412604 405.0,36.11771432346219 420.0,40.0" />
<polygon fill="rgba(255,255,255,0.75)" stroke-width="1" stroke-dasharray="" stroke="black" points="430.6066017177982,40.596601717798215 430.6066017177982,50.61660171779822 420.0,40.010000000000005 420.0,29.990000000000002 430.6066017177982,40.596601717798215" />
<polygon fill="rgba(192,192,192,0.75)" stroke-width="1" stroke-dasharray="" stroke="silver" points="31.999999999999996,53.10582854123029 40.48528137423857,61.59110991546886 28.48528137423857,58.48528137423861 19.999999999999996,50.00000000000004" />
<polygon fill="none" stroke-width="1" stroke-dasharray="2" stroke="gray" points="19.999999999999996,68.50000000000004 28.48528137423857,76.98528137423861 40.48528137423857,73.87945283300836 31.999999999999996,65.39417145876979" />
<polygon fill="rgba(192,192,192,0.75)" stroke-width="1" stroke-dasharray="" stroke="silver" points="31.999999999999996,86.6058285412303 40.48528137423857,95.09110991546886 28.48528137423857,91.98528137423861 19.999999999999996,83.50000000000004" />
<polygon fill="none" stroke-width="1" stroke-dasharray="2" stroke="gray" points="19.999999999999996,102.00000000000004 28.48528137423857,110.48528137423861 40.48528137423857,107.37945283300836 31.999999999999996,98.89417145876979" />
<polygon fill="none" stroke-width="1" stroke-dasharray="2" stroke="gray" points="20.0,29.99 20.0,55.51 28.48528137423857,63.995281374238566 28.48528137423857,38.47528137423856 20.0,29.99" />
<polygon fill="none" stroke-width="1" stroke-dasharray="2" stroke="gray" points="20.0,49.989999999999995 20.0,68.50999999999999 28.48528137423857,76.99528137423856 28.48528137423857,58.47528137423856 20.0,49.989999999999995" />
<polygon fill="none" stroke-width="1" stroke-dasharray="2" stroke="gray" points="20.0,60.49 20.0,86.01 28.48528137423857,94.49528137423857 28.48528137423857,68.97528137423858 20.0,60.49" />
<polygon fill="none" stroke-width="1" stroke-dasharray="2" stroke="gray" points="20.0,83.49000000000001 20.0,102.01 28.48528137423857,110.49528137423857 28.48528137423857,91.97528137423858 20.0,83.49000000000001" />
<polygon fill="none" stroke-width="1" stroke-dasharray="2" stroke="gray" points="28.48528137423857,38.48528137423857 40.48528137423857,41.59110991546882 32.0,33.10582854123025 20.0,30.0" />
<polygon fill="none" stroke-width="1" stroke-dasharray="2" stroke="gray" points="28.48528137423857,58.48528137423857 40.48528137423857,61.59110991546882 32.0,53.10582854123025 20.0,50.0" />
<polygon fill="rgba(255,255,255,0.75)" stroke-width="1" stroke-dasharray="" stroke="black" points="20.0,55.5 32.0,52.39417145876975 40.48528137423857,60.879452833008315 28.48528137423857,63.98528137423857" />
<polygon fill="none" stroke-width="1" stroke-dasharray="2" stroke="gray" points="28.48528137423857,68.98528137423857 40.48528137423857,72.09110991546882 32.0,63.60582854123025 20.0,60.5" />
<polygon fill="rgba(255,255,255,0.75)" stroke-width="1" stroke-dasharray="" stroke="black" points="20.0,68.5 32.0,65.39417145876975 40.48528137423857,73.87945283300832 28.48528137423857,76.98528137423857" />
<polygon fill="rgba(255,255,255,0.75)" stroke-width="1" stroke-dasharray="" stroke="black" points="20.0,86.0 32.0,82.89417145876975 40.48528137423857,91.37945283300832 28.48528137423857,94.48528137423857" />
<polygon fill="none" stroke-width="1" stroke-dasharray="2" stroke="gray" points="28.48528137423857,91.98528137423857 40.48528137423857,95.09110991546882 32.0,86.60582854123025 20.0,83.5" />
<polygon fill="rgba(255,255,255,0.75)" stroke-width="1" stroke-dasharray="" stroke="black" points="20.0,102.0 32.0,98.89417145876975 40.48528137423857,107.37945283300832 28.48528137423857,110.48528137423857" />
<polygon fill="none" stroke-width="1" stroke-dasharray="2" stroke="gray" points="32.0,33.11582854123025 40.48528137423857,41.60110991546882 40.48528137423857,28.485281374238568 32.0,20.0 32.0,33.11582854123025" />
<polygon fill="none" stroke-width="1" stroke-dasharray="2" stroke="gray" points="32.0,53.11582854123024 40.48528137423857,61.601109915468825 40.48528137423857,28.485281374238568 32.0,20.0 32.0,53.11582854123024" />
<polygon fill="none" stroke-width="1" stroke-dasharray="2" stroke="gray" points="32.0,52.38417145876975 32.0,63.61582854123026 40.48528137423857,72.10110991546883 40.48528137423857,60.86945283300831 32.0,52.38417145876975" />
<polygon fill="none" stroke-width="1" stroke-dasharray="2" stroke="gray" points="32.0,65.38417145876974 32.0,86.61582854123026 40.48528137423857,95.10110991546883 40.48528137423857,73.86945283300831 32.0,65.38417145876974" />
<polygon fill="none" stroke-width="1" stroke-dasharray="2" stroke="gray" points="32.0,82.88417145876974 32.0,96.0 40.48528137423857,104.48528137423857 40.48528137423857,91.36945283300831 32.0,82.88417145876974" />
<polygon fill="none" stroke-width="1" stroke-dasharray="2" stroke="gray" points="32.0,98.88417145876974 32.0,132.0 40.48528137423857,140.48528137423858 40.48528137423857,133.48528137423858 36.94974746830583,129.94974746830584 36.94974746830583,124.94974746830583 40.48528137423857,128.48528137423858 40.48528137423857,107.36945283300831 32.0,98.88417145876974" />
<polygon fill="none" stroke-width="1" stroke-dasharray="2" stroke="gray" points="407.98999999999995,20.0 32.01,20.0 32.01,20.0 40.49528137423856,28.485281374238568 416.4752813742386,28.485281374238568 407.98999999999995,20.0" />
<polygon fill="rgba(192,192,192,0.75)" stroke-width="1" stroke-dasharray="" stroke="black" points="407.98999999999995,96.0 416.4752813742386,104.48528137423857 40.49528137423856,104.48528137423857 32.01,96.0 32.01,96.0 407.98999999999995,96.0" />
<polygon fill="none" stroke-width="1" stroke-dasharray="2" stroke="gray" points="431.99000000000007,20.0 32.01,20.0 32.01,20.0 40.495281374238616,28.485281374238568 440.4752813742386,28.485281374238568 431.99000000000007,20.0" />
<polygon fill="rgba(192,192,192,0.75)" stroke-width="1" stroke-dasharray="" stroke="black" points="431.99000000000007,132.0 440.4752813742386,140.48528137423858 40.495281374238616,140.48528137423858 32.01,132.0 32.01,132.0 431.99000000000007,132.0" />
<polygon fill="rgba(255,255,255,0.75)" stroke-width="1" stroke-dasharray="" stroke="black" points="416.4852813742386,41.60110991546882 408.0,33.11582854123025 408.0,20.0 416.4852813742386,28.485281374238568 416.4852813742386,41.60110991546882" />
<polygon fill="rgba(255,255,255,0.75)" stroke-width="1" stroke-dasharray="" stroke="black" points="416.4852813742386,60.86945283300832 416.4852813742386,72.10110991546883 408.0,63.61582854123025 408.0,52.38417145876974 416.4852813742386,60.86945283300832" />
<polygon fill="rgba(255,255,255,0.75)" stroke-width="1" stroke-dasharray="" stroke="black" points="416.4852813742386,91.36945283300831 416.4852813742386,104.48528137423857 408.0,96.0 408.0,82.88417145876974 416.4852813742386,91.36945283300831" />
<polygon fill="none" stroke-width="1" stroke-dasharray="2" stroke="gray" points="420.0,30.0 408.0,33.10582854123025 416.4852813742386,41.59110991546882 428.4852813742386,38.48528137423857" />
<polygon fill="rgba(192,192,192,0.75)" stroke-width="1" stroke-dasharray="" stroke="silver" points="428.4852813742386,63.98528137423857 416.4852813742386,60.879452833008315 408.0,52.39417145876975 420.0,55.5" />
<polygon fill="none" stroke-width="1" stroke-dasharray="2" stroke="gray" points="420.0,60.5 408.0,63.60582854123025 416.4852813742386,72.09110991546882 428.4852813742386,68.98528137423857" />
<polygon fill="rgba(192,192,192,0.75)" stroke-width="1" stroke-dasharray="" stroke="silver" points="428.4852813742386,94.48528137423857 416.4852813742386,91.37945283300832 408.0,82.89417145876975 420.0,86.0" />
<polygon fill="rgba(255,255,255,0.75)" stroke-width="1" stroke-dasharray="" stroke="black" points="428.4852813742386,38.47528137423857 428.4852813742386,63.995281374238566 420.0,55.51 420.0,29.989999999999995 428.4852813742386,38.47528137423857" />
<polygon fill="rgba(255,255,255,0.75)" stroke-width="1" stroke-dasharray="" stroke="black" points="428.4852813742386,68.97528137423858 428.4852813742386,94.49528137423857 420.0,86.01 420.0,60.49 428.4852813742386,68.97528137423858" />
<polygon fill="rgba(255,255,255,0.75)" stroke-width="1" stroke-dasharray="" stroke="black" points="440.4852813742386,61.60110991546881 432.0,53.11582854123026 432.0,20.0 440.4852813742386,28.485281374238568 440.4852813742386,61.60110991546881" />
<polygon fill="rgba(255,255,255,0.75)" stroke-width="1" stroke-dasharray="" stroke="black" points="440.4852813742386,73.86945283300831 440.4852813742386,95.10110991546881 432.0,86.61582854123026 432.0,65.38417145876974 440.4852813742386,73.86945283300831" />
<polygon fill="rgba(255,255,255,0.75)" stroke-width="1" stroke-dasharray="" stroke="black" points="440.4852813742386,107.36945283300831 440.4852813742386,128.48528137423858 436.9497474683058,124.94974746830583 436.9497474683058,129.94974746830584 440.4852813742386,133.48528137423858 440.4852813742386,140.48528137423858 432.0,132.0 432.0,98.88417145876974 440.4852813742386,107.36945283300831" />
<polygon fill="none" stroke-width="1" stroke-dasharray="2" stroke="gray" points="444.0,50.0 432.0,53.10582854123025 440.4852813742386,61.59110991546882 452.4852813742386,58.48528137423857" />
<polygon fill="rgba(255,255,255,0.75)" stroke-width="1" stroke-dasharray="" stroke="black" points="444.0,50.0 452.4852813742386,58.48528137423857 440.4852813742386,61.59110991546882 432.0,53.10582854123025" />
<polygon fill="rgba(192,192,192,0.75)" stroke-width="1" stroke-dasharray="" stroke="silver" points="452.4852813742386,76.98528137423857 440.4852813742386,73.87945283300832 432.0,65.39417145876975 444.0,68.5" />
<polygon fill="none" stroke-width="1" stroke-dasharray="2" stroke="gray" points="432.0,65.39417145876975 440.4852813742386,73.87945283300832 452.4852813742386,76.98528137423857 444.0,68.5" />
<polygon fill="none" stroke-width="1" stroke-dasharray="2" stroke="gray" points="444.0,83.5 432.0,86.60582854123025 440.4852813742386,95.09110991546882 452.4852813742386,91.98528137423857" />
<polygon fill="rgba(255,255,255,0.75)" stroke-width="1" stroke-dasharray="" stroke="black" points="444.0,83.5 452.4852813742386,91.98528137423857 440.4852813742386,95.09110991546882 432.0,86.60582854123025" />
<polygon fill="rgba(192,192,192,0.75)" stroke-width="1" stroke-dasharray="" stroke="silver" points="452.4852813742386,110.48528137423857 440.4852813742386,107.37945283300832 432.0,98.89417145876975 444.0,102.0" />
<polygon fill="none" stroke-width="1" stroke-dasharray="2" stroke="gray" points="432.0,98.89417145876975 440.4852813742386,107.37945283300832 452.4852813742386,110.48528137423857 444.0,102.0" />
<polygon fill="rgba(255,255,255,0.75)" stroke-width="1" stroke-dasharray="" stroke="black" points="452.4852813742386,58.47528137423856 452.4852813742386,76.99528137423856 444.0,68.50999999999999 444.0,49.989999999999995 452.4852813742386,58.47528137423856" />
<polygon fill="rgba(255,255,255,0.75)" stroke-width="1" stroke-dasharray="" stroke="black" points="452.4852813742386,91.97528137423858 452.4852813742386,110.49528137423857 444.0,102.01 444.0,83.49000000000001 452.4852813742386,91.97528137423858" />
<polygon fill="rgba(255,255,255,0.75)" stroke-width="1" stroke-dasharray="" stroke="black" points="31.999999999999996,53.11324465725255 19.999999999999996,50.01258388397778 19.999999999999996,20.00000000000004 31.999999999999996,20.00000000000004 31.999999999999996,53.11324465725255" />
<polygon fill="rgba(255,255,255,0.75)" stroke-width="1" stroke-dasharray="" stroke="black" points="31.999999999999996,65.38675534274752 31.999999999999996,86.61324465725257 19.999999999999996,83.51258388397777 19.999999999999996,68.48741611602232 31.999999999999996,65.38675534274752" />
<polygon fill="rgba(255,255,255,0.75)" stroke-width="1" stroke-dasharray="" stroke="black" points="31.999999999999996,98.88675534274752 31.999999999999996,120.00000000000004 26.999999999999996,120.00000000000004 26.999999999999996,125.00000000000004 31.999999999999996,125.00000000000004 31.999999999999996,132.00000000000003 19.999999999999996,132.00000000000003 19.999999999999996,101.98741611602232 31.999999999999996,98.88675534274752" />
<polygon fill="rgba(255,255,255,0.75)" stroke-width="1" stroke-dasharray="" stroke="black" points="444.0,50.012583883977726 432.0,53.11324465725252 432.0,20.0 444.0,20.0 444.0,50.012583883977726" />
<polygon fill="rgba(255,255,255,0.75)" stroke-width="1" stroke-dasharray="" stroke="black" points="444.0,68.48741611602227 444.0,83.51258388397773 432.0,86.61324465725252 432.0,65.38675534274748 444.0,68.48741611602227" />
<polygon fill="rgba(255,255,255,0.75)" stroke-width="1" stroke-dasharray="" stroke="black" points="444.0,101.98741611602226 444.0,132.0 432.0,132.0 432.0,125.0 437.0,125.0 437.0,120.0 432.0,120.0 432.0,98.88675534274748 444.0,101.98741611602226" />
<polygon fill="rgba(255,255,255,0.75)" stroke-width="1" stroke-dasharray="" stroke="black" points="420.0,39.98741525587448 404.99,36.10771432346219 404.99,50.0 35.00999999999999,50.0 35.00999999999999,50.0 35.01,36.10771432346219 20.0,39.987415255874474 20.0,30.012584744125522 35.01,33.89228567653781 35.010000000000005,20.0 35.010000000000005,20.0 404.99,20.0 404.99,33.89228567653781 420.0,30.01258474412552 420.0,30.01258474412552 420.0,39.98741525587448" />
<polygon fill="rgba(255,255,255,0.75)" stroke-width="1" stroke-dasharray="" stroke="black" points="420.0,85.98741611602227 407.99,82.88417145876974 407.99,96.0 32.01,96.0 32.01,82.88417145876974 20.0,85.98741611602226 20.0,85.98741611602226 20.0,60.512583883977726 20.0,60.512583883977726 32.01,63.61582854123025 32.01,52.38417145876975 20.0,55.487416116022274 20.0,30.012583883977726 32.01,33.11582854123025 32.01,20.0 32.01,20.0 407.99000000000007,20.0 407.99000000000007,20.0 407.99,33.11582854123025 420.0,30.012583883977726 420.0,55.48741611602228 407.99,52.38417145876975 407.99,63.61582854123025 420.0,60.512583883977726 420.0,60.512583883977726 420.0,85.98741611602227" />
<polygon fill="rgba(255,255,255,0.75)" stroke-width="1" stroke-dasharray="" stroke="black" points="444.0,101.98741611602227 431.99,98.88417145876974 431.99,132.0 32.01,132.0 32.01,98.88417145876974 20.0,101.98741611602226 20.0,101.98741611602226 20.0,83.51258388397773 20.0,83.51258388397773 32.01,86.61582854123026 32.01,65.38417145876974 20.0,68.48741611602227 20.0,50.01258388397774 32.01,53.11582854123025 32.01,20.0 32.01,20.0 431.99,20.0 431.99,20.0 431.99,53.11582854123025 444.0,50.012583883977726 444.0,68.48741611602227 431.99,65.38417145876974 431.99,86.61582854123026 444.0,83.51258388397773 444.0,83.51258388397773 444.0,101.98741611602227" />
</svg>
