<svg width="1100" viewBox="0 0 550 1134.2167747730648" xmlns="http://www.w3.org/2000/svg">
<polygon fill="none" stroke-width="1" stroke-dasharray="2" stroke="gray" points="406.47528137423853,94.48528137423857 406.4752813742386,81.36945283300831 418.4852813742386,84.47269749026084 418.4852813742386,58.997865258216294 406.4752813742386,62.10110991546882 406.4752813742386,50.86945283300832 418.4852813742386,53.97269749026084 418.4852813742386,53.97269749026084 418.4852813742386,28.497865258216294 418.4852813742386,28.497865258216294 406.4752813742386,31.601109915468818 406.4752813742386,18.485281374238568 30.49528137423862,18.485281374238568 30.49528137423857,31.601109915468818 18.48528137423857,28.4978652582163 18.48528137423857,28.4978652582163 18.48528137423857,53.97269749026084 18.48528137423857,53.97269749026084 30.49528137423857,50.86945283300832 30.49528137423857,62.10110991546882 18.48528137423857,58.997865258216294 18.48528137423857,84.47269749026083 30.49528137423857,81.36945283300831 30.49528137423862,94.48528137423857 30.49528137423862,94.48528137423857 406.47528137423853,94.48528137423857" />
<polygon fill="none" stroke-width="1" stroke-dasharray="2" stroke="gray" points="10.0,19.99 10.0,45.51 18.48528137423857,53.995281374238566 18.48528137423857,28.475281374238563 10.0,19.99" />
<polygon fill="none" stroke-width="1" stroke-dasharray="2" stroke="gray" points="10.0,50.49 10.0,76.01 18.48528137423857,84.49528137423857 18.48528137423857,58.97528137423857 10.0,50.49" />
<polygon fill="none" stroke-width="1" stroke-dasharray="2" stroke="gray" points="18.48528137423857,28.485281374238568 30.48528137423857,31.59110991546882 22.0,23.10582854123025 10.0,20.0" />
<polygon fill="rgba(255,255,255,0.75)" stroke-width="1" stroke-dasharray="" stroke="black" points="10.0,45.5 22.0,42.39417145876975 30.48528137423857,50.879452833008315 18.48528137423857,53.98528137423857" />
<polygon fill="none" stroke-width="1" stroke-dasharray="2" stroke="gray" points="18.48528137423857,58.98528137423857 30.48528137423857,62.09110991546882 22.0,53.60582854123025 10.0,50.5" />
<polygon fill="rgba(255,255,255,0.75)" stroke-width="1" stroke-dasharray="" stroke="black" points="10.0,76.0 22.0,72.89417145876975 30.48528137423857,81.37945283300832 18.48528137423857,84.48528137423857" />
<polygon fill="none" stroke-width="1" stroke-dasharray="2" stroke="gray" points="22.0,23.11582854123025 30.48528137423857,31.601109915468818 30.48528137423857,18.485281374238568 22.0,10.0 22.0,23.11582854123025" />
<polygon fill="none" stroke-width="1" stroke-dasharray="2" stroke="gray" points="22.0,42.38417145876975 22.0,53.61582854123026 30.48528137423857,62.10110991546882 30.48528137423857,50.86945283300831 22.0,42.38417145876975" />
<polygon fill="none" stroke-width="1" stroke-dasharray="2" stroke="gray" points="22.0,72.88417145876974 22.0,86.0 30.48528137423857,94.48528137423857 30.48528137423857,81.36945283300831 22.0,72.88417145876974" />
<polygon fill="none" stroke-width="1" stroke-dasharray="2" stroke="gray" points="397.98999999999995,10.0 22.009999999999998,10.0 22.009999999999998,10.0 30.495281374238562,18.485281374238568 406.4752813742386,18.485281374238568 397.98999999999995,10.0" />
<polygon fill="rgba(192,192,192,0.75)" stroke-width="1" stroke-dasharray="" stroke="black" points="397.98999999999995,86.0 406.4752813742386,94.48528137423857 30.495281374238562,94.48528137423857 22.009999999999998,86.0 22.009999999999998,86.0 397.98999999999995,86.0" />
<polygon fill="rgba(255,255,255,0.75)" stroke-width="1" stroke-dasharray="" stroke="black" points="406.4852813742386,31.601109915468818 398.0,23.11582854123025 398.0,10.0 406.4852813742386,18.485281374238568 406.4852813742386,31.601109915468818" />
<polygon fill="rgba(255,255,255,0.75)" stroke-width="1" stroke-dasharray="" stroke="black" points="406.4852813742386,50.86945283300832 406.4852813742386,62.101109915468825 398.0,53.61582854123025 398.0,42.38417145876974 406.4852813742386,50.86945283300832" />
<polygon fill="rgba(255,255,255,0.75)" stroke-width="1" stroke-dasharray="" stroke="black" points="406.4852813742386,81.36945283300831 406.4852813742386,94.48528137423857 398.0,86.0 398.0,72.88417145876974 406.4852813742386,81.36945283300831" />
<polygon fill="none" stroke-width="1" stroke-dasharray="2" stroke="gray" points="410.0,20.0 398.0,23.10582854123025 406.4852813742386,31.59110991546882 418.4852813742386,28.485281374238568" />
<polygon fill="rgba(192,192,192,0.75)" stroke-width="1" stroke-dasharray="" stroke="silver" points="418.4852813742386,53.98528137423857 406.4852813742386,50.879452833008315 398.0,42.39417145876975 410.0,45.5" />
<polygon fill="none" stroke-width="1" stroke-dasharray="2" stroke="gray" points="410.0,50.5 398.0,53.60582854123025 406.4852813742386,62.09110991546882 418.4852813742386,58.98528137423857" />
<polygon fill="rgba(192,192,192,0.75)" stroke-width="1" stroke-dasharray="" stroke="silver" points="418.4852813742386,84.48528137423857 406.4852813742386,81.37945283300832 398.0,72.89417145876975 410.0,76.0" />
<polygon fill="rgba(255,255,255,0.75)" stroke-width="1" stroke-dasharray="" stroke="black" points="418.4852813742386,28.47528137423857 418.4852813742386,53.995281374238566 410.0,45.51 410.0,19.989999999999995 418.4852813742386,28.47528137423857" />
<polygon fill="rgba(255,255,255,0.75)" stroke-width="1" stroke-dasharray="" stroke="black" points="418.4852813742386,58.97528137423857 418.4852813742386,84.49528137423857 410.0,76.01 410.0,50.49 418.4852813742386,58.97528137423857" />
<polygon fill="rgba(255,255,255,0.75)" stroke-width="1" stroke-dasharray="" stroke="black" points="410.0,75.98741611602227 397.99,72.88417145876974 397.99,86.0 22.009999999999998,86.0 22.009999999999998,72.88417145876974 10.0,75.98741611602226 10.0,75.98741611602226 10.0,50.512583883977726 10.0,50.512583883977726 22.009999999999998,53.61582854123025 22.009999999999998,42.38417145876975 10.0,45.487416116022274 10.0,20.012583883977726 22.009999999999998,23.11582854123025 22.009999999999998,10.0 22.009999999999998,10.0 397.99000000000007,10.0 397.99000000000007,10.0 397.99,23.11582854123025 410.0,20.012583883977726 410.0,45.48741611602228 397.99,42.38417145876975 397.99,53.61582854123025 410.0,50.512583883977726 410.0,50.512583883977726 410.0,75.98741611602227" />
<text style="" text-anchor="middle" x="210.0" y="48.0" fill="black">box front</text>
<polygon fill="none" stroke-width="1" stroke-dasharray="2" stroke="gray" points="206.4752813742386,198.97056274847716 206.4752813742386,185.8547342072469 218.48528137423858,188.9579788644994 218.48528137423858,163.48314663245486 206.4752813742386,166.5863912897074 206.4752813742386,155.3547342072469 218.48528137423858,158.4579788644994 218.48528137423858,158.4579788644994 218.48528137423858,132.98314663245486 218.48528137423858,132.98314663245486 206.4752813742386,136.0863912897074 206.4752813742386,122.97056274847714 30.495281374238562,122.97056274847714 30.49528137423857,136.0863912897074 18.48528137423857,132.98314663245486 18.48528137423857,132.98314663245486 18.48528137423857,158.4579788644994 18.48528137423857,158.4579788644994 30.49528137423857,155.3547342072469 30.49528137423857,166.5863912897074 18.48528137423857,163.48314663245486 18.48528137423857,188.9579788644994 30.49528137423857,185.8547342072469 30.495281374238534,198.97056274847716 30.495281374238534,198.97056274847716 206.4752813742386,198.97056274847716" />
<polygon fill="none" stroke-width="1" stroke-dasharray="2" stroke="gray" points="10.0,124.47528137423856 10.0,149.99528137423857 18.48528137423857,158.48056274847715 18.48528137423857,132.96056274847714 10.0,124.47528137423856" />
<polygon fill="none" stroke-width="1" stroke-dasharray="2" stroke="gray" points="10.0,154.97528137423856 10.0,180.49528137423857 18.48528137423857,188.98056274847715 18.48528137423857,163.46056274847714 10.0,154.97528137423856" />
<polygon fill="none" stroke-width="1" stroke-dasharray="2" stroke="gray" points="18.48528137423857,132.97056274847714 30.48528137423857,136.0763912897074 22.0,127.59110991546882 10.0,124.48528137423857" />
<polygon fill="rgba(255,255,255,0.75)" stroke-width="1" stroke-dasharray="" stroke="black" points="10.0,149.98528137423858 22.0,146.87945283300832 30.48528137423857,155.3647342072469 18.48528137423857,158.47056274847716" />
<polygon fill="none" stroke-width="1" stroke-dasharray="2" stroke="gray" points="18.48528137423857,163.47056274847716 30.48528137423857,166.5763912897074 22.0,158.09110991546882 10.0,154.98528137423858" />
<polygon fill="rgba(255,255,255,0.75)" stroke-width="1" stroke-dasharray="" stroke="black" points="10.0,180.48528137423858 22.0,177.37945283300832 30.48528137423857,185.8647342072469 18.48528137423857,188.97056274847716" />
<polygon fill="none" stroke-width="1" stroke-dasharray="2" stroke="gray" points="22.0,127.60110991546881 30.48528137423857,136.0863912897074 30.48528137423857,122.97056274847714 22.0,114.48528137423857 22.0,127.60110991546881" />
<polygon fill="none" stroke-width="1" stroke-dasharray="2" stroke="gray" points="22.0,146.86945283300832 22.0,158.10110991546884 30.48528137423857,166.5863912897074 30.48528137423857,155.3547342072469 22.0,146.86945283300832" />
<polygon fill="none" stroke-width="1" stroke-dasharray="2" stroke="gray" points="22.0,177.36945283300832 22.0,190.48528137423858 30.48528137423857,198.97056274847716 30.48528137423857,185.8547342072469 22.0,177.36945283300832" />
<polygon fill="none" stroke-width="1" stroke-dasharray="2" stroke="gray" points="197.99000000000004,114.48528137423857 22.009999999999998,114.48528137423857 22.009999999999998,114.48528137423857 30.49528137423859,122.97056274847714 206.4752813742386,122.97056274847714 197.99000000000004,114.48528137423857" />
<polygon fill="rgba(192,192,192,0.75)" stroke-width="1" stroke-dasharray="" stroke="black" points="197.99000000000004,190.48528137423858 206.4752813742386,198.97056274847716 30.49528137423859,198.97056274847716 22.009999999999998,190.48528137423858 22.009999999999998,190.48528137423858 197.99000000000004,190.48528137423858" />
<polygon fill="rgba(255,255,255,0.75)" stroke-width="1" stroke-dasharray="" stroke="black" points="206.48528137423858,136.0863912897074 198.0,127.60110991546881 198.0,114.48528137423857 206.48528137423858,122.97056274847714 206.48528137423858,136.0863912897074" />
<polygon fill="rgba(255,255,255,0.75)" stroke-width="1" stroke-dasharray="" stroke="black" points="206.48528137423858,155.3547342072469 206.48528137423858,166.58639128970742 198.0,158.1011099154688 198.0,146.86945283300832 206.48528137423858,155.3547342072469" />
<polygon fill="rgba(255,255,255,0.75)" stroke-width="1" stroke-dasharray="" stroke="black" points="206.48528137423858,185.8547342072469 206.48528137423858,198.97056274847716 198.0,190.48528137423858 198.0,177.36945283300832 206.48528137423858,185.8547342072469" />
<polygon fill="none" stroke-width="1" stroke-dasharray="2" stroke="gray" points="210.0,124.48528137423857 198.0,127.59110991546882 206.48528137423858,136.0763912897074 218.48528137423858,132.97056274847714" />
<polygon fill="rgba(192,192,192,0.75)" stroke-width="1" stroke-dasharray="" stroke="silver" points="218.48528137423858,158.47056274847716 206.48528137423858,155.3647342072469 198.0,146.87945283300832 210.0,149.98528137423858" />
<polygon fill="none" stroke-width="1" stroke-dasharray="2" stroke="gray" points="210.0,154.98528137423858 198.0,158.09110991546882 206.48528137423858,166.5763912897074 218.48528137423858,163.47056274847716" />
<polygon fill="rgba(192,192,192,0.75)" stroke-width="1" stroke-dasharray="" stroke="silver" points="218.48528137423858,188.97056274847716 206.48528137423858,185.8647342072469 198.0,177.37945283300832 210.0,180.48528137423858" />
<polygon fill="rgba(255,255,255,0.75)" stroke-width="1" stroke-dasharray="" stroke="black" points="218.48528137423858,132.96056274847714 218.48528137423858,158.48056274847715 210.0,149.99528137423857 210.0,124.47528137423856 218.48528137423858,132.96056274847714" />
<polygon fill="rgba(255,255,255,0.75)" stroke-width="1" stroke-dasharray="" stroke="black" points="218.48528137423858,163.46056274847714 218.48528137423858,188.98056274847715 210.0,180.49528137423857 210.0,154.97528137423856 218.48528137423858,163.46056274847714" />
<polygon fill="rgba(255,255,255,0.75)" stroke-width="1" stroke-dasharray="" stroke="black" points="210.0,180.47269749026083 197.99,177.36945283300832 197.99,190.48528137423858 22.009999999999998,190.48528137423858 22.009999999999998,177.36945283300832 10.0,180.47269749026083 10.0,180.47269749026083 10.0,154.99786525821628 10.0,154.99786525821628 22.009999999999998,158.1011099154688 22.009999999999998,146.86945283300832 10.0,149.97269749026083 10.0,124.4978652582163 22.009999999999998,127.60110991546881 22.009999999999998,114.48528137423857 22.009999999999998,114.48528137423857 197.98999999999998,114.48528137423857 197.98999999999998,114.48528137423857 197.99,127.60110991546881 210.0,124.4978652582163 210.0,149.97269749026086 197.99,146.86945283300832 197.99,158.1011099154688 210.0,154.99786525821628 210.0,154.99786525821628 210.0,180.47269749026083" />
<text style="" text-anchor="middle" x="110.0" y="152.48528137423858" fill="black">box left</text>
<polygon fill="none" stroke-width="1" stroke-dasharray="2" stroke="gray" points="418.4852813742386,271.05167266394596 418.4852813742386,259.86001558148547 418.4852813742386,259.86001558148547 406.4752813742386,259.86001558148547 406.4752813742386,240.55167266394596 418.4852813742386,240.55167266394596 418.4852813742386,227.45584412271572 18.48528137423857,227.45584412271572 18.48528137423857,240.55167266394596 18.48528137423857,240.55167266394596 30.49528137423857,240.55167266394596 30.49528137423857,259.86001558148547 18.48528137423857,259.86001558148547 18.48528137423857,271.05167266394596 30.49528137423857,271.05167266394596 30.49528137423857,290.36001558148547 18.48528137423857,290.36001558148547 18.48528137423857,290.36001558148547 18.48528137423857,303.45584412271575 418.4852813742386,303.45584412271575 418.4852813742386,290.36001558148547 406.4752813742386,290.36001558148547 406.4752813742386,271.05167266394596 418.4852813742386,271.05167266394596" />
<polygon fill="none" stroke-width="1" stroke-dasharray="2" stroke="gray" points="10.0,228.98314663245486 18.48528137423857,240.56908877996824 18.48528137423857,227.45584412271572 10.0,218.97056274847714 10.0,228.98314663245486" />
<polygon fill="none" stroke-width="1" stroke-dasharray="2" stroke="gray" points="10.0,254.4579788644994 10.0,259.48314663245486 18.48528137423857,271.06908877996824 18.48528137423857,259.8425994654632 10.0,254.4579788644994" />
<polygon fill="none" stroke-width="1" stroke-dasharray="2" stroke="gray" points="10.0,284.9579788644994 10.0,294.97056274847716 18.48528137423857,303.45584412271575 18.48528137423857,290.3425994654632 10.0,284.9579788644994" />
<polygon fill="rgba(255,255,255,0.75)" stroke-width="1" stroke-dasharray="" stroke="black" points="10.0,228.97056274847714 22.0,228.97056274847714 30.48528137423857,240.56167266394596 18.48528137423857,240.56167266394596" />
<polygon fill="none" stroke-width="1" stroke-dasharray="2" stroke="gray" points="18.48528137423857,259.8500155814855 30.48528137423857,259.8500155814855 22.0,254.47056274847714 10.0,254.47056274847714" />
<polygon fill="rgba(255,255,255,0.75)" stroke-width="1" stroke-dasharray="" stroke="black" points="10.0,259.47056274847716 22.0,259.47056274847716 30.48528137423857,271.06167266394596 18.48528137423857,271.06167266394596" />
<polygon fill="none" stroke-width="1" stroke-dasharray="2" stroke="gray" points="18.48528137423857,290.3500155814855 30.48528137423857,290.3500155814855 22.0,284.97056274847716 10.0,284.97056274847716" />
<polygon fill="none" stroke-width="1" stroke-dasharray="2" stroke="gray" points="22.0,228.96314663245485 22.0,254.4779788644994 30.48528137423857,259.8625994654632 30.48528137423857,240.54908877996823 22.0,228.96314663245485" />
<polygon fill="none" stroke-width="1" stroke-dasharray="2" stroke="gray" points="22.0,259.4631466324549 22.0,284.9779788644994 30.48528137423857,290.3625994654632 30.48528137423857,271.04908877996826 22.0,259.4631466324549" />
<polygon fill="none" stroke-width="1" stroke-dasharray="2" stroke="gray" points="18.48528137423857,227.45584412271572 418.4852813742386,227.45584412271572 410.0,218.97056274847714 10.0,218.97056274847714" />
<polygon fill="rgba(192,192,192,0.75)" stroke-width="1" stroke-dasharray="" stroke="black" points="10.0,294.97056274847716 410.0,294.97056274847716 418.4852813742386,303.45584412271575 18.48528137423857,303.45584412271575" />
<polygon fill="rgba(255,255,255,0.75)" stroke-width="1" stroke-dasharray="" stroke="black" points="406.4852813742386,240.54908877996823 406.4852813742386,259.8625994654632 398.0,254.4779788644994 398.0,228.96314663245488 406.4852813742386,240.54908877996823" />
<polygon fill="rgba(255,255,255,0.75)" stroke-width="1" stroke-dasharray="" stroke="black" points="406.4852813742386,271.04908877996826 406.4852813742386,290.3625994654632 398.0,284.9779788644994 398.0,259.4631466324549 406.4852813742386,271.04908877996826" />
<polygon fill="rgba(255,255,255,0.75)" stroke-width="1" stroke-dasharray="" stroke="black" points="418.4852813742386,240.56167266394596 406.4852813742386,240.56167266394596 398.0,228.97056274847714 410.0,228.97056274847714" />
<polygon fill="none" stroke-width="1" stroke-dasharray="2" stroke="gray" points="410.0,254.47056274847714 398.0,254.47056274847714 406.4852813742386,259.8500155814855 418.4852813742386,259.8500155814855" />
<polygon fill="rgba(255,255,255,0.75)" stroke-width="1" stroke-dasharray="" stroke="black" points="418.4852813742386,271.06167266394596 406.4852813742386,271.06167266394596 398.0,259.47056274847716 410.0,259.47056274847716" />
<polygon fill="none" stroke-width="1" stroke-dasharray="2" stroke="gray" points="410.0,284.97056274847716 398.0,284.97056274847716 406.4852813742386,290.3500155814855 418.4852813742386,290.3500155814855" />
<polygon fill="rgba(255,255,255,0.75)" stroke-width="1" stroke-dasharray="" stroke="black" points="418.4852813742386,240.56908877996824 410.0,228.98314663245486 410.0,218.97056274847714 418.4852813742386,227.45584412271572 418.4852813742386,240.56908877996824" />
<polygon fill="rgba(255,255,255,0.75)" stroke-width="1" stroke-dasharray="" stroke="black" points="418.4852813742386,259.8425994654632 418.4852813742386,271.06908877996824 410.0,259.48314663245486 410.0,254.4579788644994 418.4852813742386,259.8425994654632" />
<polygon fill="rgba(255,255,255,0.75)" stroke-width="1" stroke-dasharray="" stroke="black" points="418.4852813742386,290.3425994654632 418.4852813742386,303.45584412271575 410.0,294.97056274847716 410.0,284.9579788644994 418.4852813742386,290.3425994654632" />
<polygon fill="rgba(255,255,255,0.75)" stroke-width="1" stroke-dasharray="" stroke="black" points="410.0,284.98056274847715 410.0,294.97056274847716 10.0,294.97056274847716 10.0,284.98056274847715 22.009999999999998,284.98056274847715 22.009999999999998,259.4605627484771 10.0,259.4605627484771 10.0,259.4605627484771 10.0,254.48056274847713 10.0,254.48056274847713 22.009999999999998,254.48056274847713 22.009999999999998,228.96056274847714 10.0,228.96056274847712 10.0,218.97056274847714 410.0,218.97056274847714 410.0,228.96056274847714 410.0,228.96056274847714 397.99,228.96056274847714 397.99,254.48056274847713 410.0,254.48056274847713 410.0,259.4605627484772 397.99,259.4605627484771 397.99,284.98056274847715 410.0,284.98056274847715" />
<text style="" text-anchor="middle" x="210.0" y="256.97056274847716" fill="black">box back</text>
<polygon fill="none" stroke-width="1" stroke-dasharray="2" stroke="gray" points="218.48528137423858,375.53695403818455 218.48528137423858,364.345296955724 218.48528137423858,364.345296955724 206.4752813742386,364.345296955724 206.4752813742386,345.03695403818455 218.48528137423858,345.03695403818455 218.48528137423858,331.94112549695427 18.48528137423857,331.94112549695427 18.48528137423857,345.03695403818455 18.48528137423857,345.03695403818455 30.49528137423857,345.03695403818455 30.49528137423857,364.345296955724 18.48528137423857,364.345296955724 18.48528137423857,375.53695403818455 30.49528137423857,375.53695403818455 30.49528137423857,394.845296955724 18.48528137423857,394.845296955724 18.48528137423857,394.845296955724 18.48528137423857,407.94112549695427 218.48528137423858,407.94112549695427 218.48528137423858,394.845296955724 206.4752813742386,394.845296955724 206.4752813742386,375.53695403818455 218.48528137423858,375.53695403818455" />
<polygon fill="none" stroke-width="1" stroke-dasharray="2" stroke="gray" points="10.0,333.46842800669344 18.48528137423857,345.05437015420677 18.48528137423857,331.94112549695427 10.0,323.4558441227157 10.0,333.46842800669344" />
<polygon fill="none" stroke-width="1" stroke-dasharray="2" stroke="gray" points="10.0,358.94326023873793 10.0,363.96842800669344 18.48528137423857,375.55437015420677 18.48528137423857,364.3278808397018 10.0,358.94326023873793" />
<polygon fill="none" stroke-width="1" stroke-dasharray="2" stroke="gray" points="10.0,389.44326023873793 10.0,399.4558441227157 18.48528137423857,407.94112549695427 18.48528137423857,394.8278808397018 10.0,389.44326023873793" />
<polygon fill="rgba(255,255,255,0.75)" stroke-width="1" stroke-dasharray="" stroke="black" points="10.0,333.4558441227157 22.0,333.4558441227157 30.48528137423857,345.04695403818454 18.48528137423857,345.04695403818454" />
<polygon fill="none" stroke-width="1" stroke-dasharray="2" stroke="gray" points="18.48528137423857,364.335296955724 30.48528137423857,364.335296955724 22.0,358.9558441227157 10.0,358.9558441227157" />
<polygon fill="rgba(255,255,255,0.75)" stroke-width="1" stroke-dasharray="" stroke="black" points="10.0,363.9558441227157 22.0,363.9558441227157 30.48528137423857,375.54695403818454 18.48528137423857,375.54695403818454" />
<polygon fill="none" stroke-width="1" stroke-dasharray="2" stroke="gray" points="18.48528137423857,394.835296955724 30.48528137423857,394.835296955724 22.0,389.4558441227157 10.0,389.4558441227157" />
<polygon fill="none" stroke-width="1" stroke-dasharray="2" stroke="gray" points="22.0,333.4484280066934 22.0,358.963260238738 30.48528137423857,364.34788083970176 30.48528137423857,345.0343701542068 22.0,333.4484280066934" />
<polygon fill="none" stroke-width="1" stroke-dasharray="2" stroke="gray" points="22.0,363.9484280066934 22.0,389.463260238738 30.48528137423857,394.84788083970176 30.48528137423857,375.5343701542068 22.0,363.9484280066934" />
<polygon fill="none" stroke-width="1" stroke-dasharray="2" stroke="gray" points="18.48528137423857,331.94112549695427 218.48528137423858,331.94112549695427 210.0,323.4558441227157 10.0,323.4558441227157" />
<polygon fill="rgba(192,192,192,0.75)" stroke-width="1" stroke-dasharray="" stroke="black" points="10.0,399.4558441227157 210.0,399.4558441227157 218.48528137423858,407.94112549695427 18.48528137423857,407.94112549695427" />
<polygon fill="rgba(255,255,255,0.75)" stroke-width="1" stroke-dasharray="" stroke="black" points="206.48528137423858,345.0343701542068 206.48528137423858,364.34788083970176 198.0,358.963260238738 198.0,333.4484280066934 206.48528137423858,345.0343701542068" />
<polygon fill="rgba(255,255,255,0.75)" stroke-width="1" stroke-dasharray="" stroke="black" points="206.48528137423858,375.5343701542068 206.48528137423858,394.84788083970176 198.0,389.463260238738 198.0,363.9484280066934 206.48528137423858,375.5343701542068" />
<polygon fill="rgba(255,255,255,0.75)" stroke-width="1" stroke-dasharray="" stroke="black" points="218.48528137423858,345.04695403818454 206.48528137423858,345.04695403818454 198.0,333.4558441227157 210.0,333.4558441227157" />
<polygon fill="none" stroke-width="1" stroke-dasharray="2" stroke="gray" points="210.0,358.9558441227157 198.0,358.9558441227157 206.48528137423858,364.335296955724 218.48528137423858,364.335296955724" />
<polygon fill="rgba(255,255,255,0.75)" stroke-width="1" stroke-dasharray="" stroke="black" points="218.48528137423858,375.54695403818454 206.48528137423858,375.54695403818454 198.0,363.9558441227157 210.0,363.9558441227157" />
<polygon fill="none" stroke-width="1" stroke-dasharray="2" stroke="gray" points="210.0,389.4558441227157 198.0,389.4558441227157 206.48528137423858,394.835296955724 218.48528137423858,394.835296955724" />
<polygon fill="rgba(255,255,255,0.75)" stroke-width="1" stroke-dasharray="" stroke="black" points="218.48528137423858,345.05437015420677 210.0,333.46842800669344 210.0,323.4558441227157 218.48528137423858,331.94112549695427 218.48528137423858,345.05437015420677" />
<polygon fill="rgba(255,255,255,0.75)" stroke-width="1" stroke-dasharray="" stroke="black" points="218.48528137423858,364.3278808397018 218.48528137423858,375.55437015420677 210.0,363.96842800669344 210.0,358.94326023873793 218.48528137423858,364.3278808397018" />
<polygon fill="rgba(255,255,255,0.75)" stroke-width="1" stroke-dasharray="" stroke="black" points="218.48528137423858,394.8278808397017 218.48528137423858,407.94112549695427 210.0,399.4558441227157 210.0,389.44326023873793 218.48528137423858,394.8278808397017" />
<polygon fill="rgba(255,255,255,0.75)" stroke-width="1" stroke-dasharray="" stroke="black" points="210.0,389.4658441227157 210.0,399.4558441227157 10.0,399.4558441227157 10.0,389.4658441227157 22.009999999999998,389.4658441227157 22.009999999999998,363.9458441227157 10.0,363.9458441227157 10.0,363.9458441227157 10.0,358.9658441227157 10.0,358.9658441227157 22.009999999999998,358.9658441227157 22.009999999999998,333.4458441227157 10.0,333.4458441227157 10.0,323.4558441227157 210.0,323.4558441227157 210.0,333.4458441227157 210.0,333.4458441227157 197.99,333.4458441227157 197.99,358.9658441227157 210.0,358.9658441227157 210.0,363.9458441227157 197.99,363.9458441227157 197.99,389.4658441227157 210.0,389.4658441227157" />
<text style="" text-anchor="middle" x="110.0" y="361.4558441227157" fill="black">box right</text>
<polygon fill="none" stroke-width="1" stroke-dasharray="2" stroke="gray" points="20.606601717798213,438.54772721475246 20.606601717798213,622.5477272147525 396.6066017177982,622.5477272147525 396.6066017177982,438.54772721475246" />
<polygon fill="none" stroke-width="1" stroke-dasharray="2" stroke="gray" points="10.0,427.94112549695427 10.0,611.9411254969543 20.606601717798213,622.5477272147525 20.606601717798213,438.54772721475246" />
<polygon fill="none" stroke-width="1" stroke-dasharray="2" stroke="gray" points="20.606601717798213,438.54772721475246 396.6066017177982,438.54772721475246 386.0,427.94112549695427 10.0,427.94112549695427" />
<polygon fill="rgba(192,192,192,0.75)" stroke-width="1" stroke-dasharray="" stroke="black" points="10.0,611.9411254969543 386.0,611.9411254969543 396.6066017177982,622.5477272147525 20.606601717798213,622.5477272147525" />
<polygon fill="rgba(255,255,255,0.75)" stroke-width="1" stroke-dasharray="" stroke="black" points="396.6066017177982,438.54772721475246 396.6066017177982,622.5477272147525 386.0,611.9411254969543 386.0,427.94112549695427" />
<polygon fill="rgba(255,255,255,0.75)" stroke-width="1" stroke-dasharray="" stroke="black" points="10.0,427.94112549695427 386.0,427.94112549695427 386.0,611.9411254969543 10.0,611.9411254969543" />
<text style="" text-anchor="middle" x="198.0" y="519.9411254969543" fill="black">box lid</text>
<polygon fill="none" stroke-width="1" stroke-dasharray="2" stroke="gray" points="12.121320343559642,644.6690475583122 12.121320343559642,844.6690475583122 412.12132034355966,844.6690475583122 412.12132034355966,644.6690475583122" />
<polygon fill="none" stroke-width="1" stroke-dasharray="2" stroke="gray" points="10.0,642.5477272147525 10.0,842.5477272147525 12.121320343559642,844.6690475583122 12.121320343559642,644.6690475583122" />
<polygon fill="none" stroke-width="1" stroke-dasharray="2" stroke="gray" points="12.121320343559642,644.6690475583122 412.12132034355966,644.6690475583122 410.0,642.5477272147525 10.0,642.5477272147525" />
<polygon fill="rgba(192,192,192,0.75)" stroke-width="1" stroke-dasharray="" stroke="black" points="10.0,842.5477272147525 410.0,842.5477272147525 412.12132034355966,844.6690475583122 12.121320343559642,844.6690475583122" />
<polygon fill="rgba(255,255,255,0.75)" stroke-width="1" stroke-dasharray="" stroke="black" points="412.12132034355966,644.6690475583122 412.12132034355966,844.6690475583122 410.0,842.5477272147525 410.0,642.5477272147525" />
<polygon fill="rgba(255,255,255,0.75)" stroke-width="1" stroke-dasharray="" stroke="black" points="10.0,642.5477272147525 410.0,642.5477272147525 410.0,842.5477272147525 10.0,842.5477272147525" />
<text style="" text-anchor="middle" x="210.0" y="742.5477272147525" fill="black">box bottom</text>
<polygon fill="none" stroke-width="1" stroke-dasharray="2" stroke="gray" points="20.606601717798213,875.2756492761104 20.606601717798213,890.2756492761104 220.6066017177982,890.2756492761104 220.6066017177982,875.2756492761104" />
<polygon fill="none" stroke-width="1" stroke-dasharray="2" stroke="gray" points="10.0,864.6690475583122 10.0,879.6690475583122 20.606601717798213,890.2756492761104 20.606601717798213,875.2756492761104" />
<polygon fill="none" stroke-width="1" stroke-dasharray="2" stroke="gray" points="20.606601717798213,875.2756492761104 220.6066017177982,875.2756492761104 210.0,864.6690475583122 10.0,864.6690475583122" />
<polygon fill="rgba(192,192,192,0.75)" stroke-width="1" stroke-dasharray="" stroke="black" points="10.0,879.6690475583122 210.0,879.6690475583122 220.6066017177982,890.2756492761104 20.606601717798213,890.2756492761104" />
<polygon fill="rgba(255,255,255,0.75)" stroke-width="1" stroke-dasharray="" stroke="black" points="220.6066017177982,875.2756492761104 220.6066017177982,890.2756492761104 210.0,879.6690475583122 210.0,864.6690475583122" />
<polygon fill="rgba(255,255,255,0.75)" stroke-width="1" stroke-dasharray="" stroke="black" points="10.0,864.6690475583122 210.0,864.6690475583122 210.0,879.6690475583122 10.0,879.6690475583122" />
<text style="" text-anchor="middle" x="110.0" y="872.1690475583122" fill="black">wedge</text>
<polygon fill="none" stroke-width="1" stroke-dasharray="2" stroke="gray" points="18.48528137423857,918.7609306503489 18.48528137423857,948.7609306503489 218.48528137423858,948.7609306503489 218.48528137423858,918.7609306503489" />
<polygon fill="none" stroke-width="1" stroke-dasharray="2" stroke="gray" points="10.0,910.2756492761104 10.0,940.2756492761104 18.48528137423857,948.7609306503489 18.48528137423857,918.7609306503489" />
<polygon fill="none" stroke-width="1" stroke-dasharray="2" stroke="gray" points="18.48528137423857,918.7609306503489 218.48528137423858,918.7609306503489 210.0,910.2756492761104 10.0,910.2756492761104" />
<polygon fill="rgba(192,192,192,0.75)" stroke-width="1" stroke-dasharray="" stroke="black" points="10.0,940.2756492761104 210.0,940.2756492761104 218.48528137423858,948.7609306503489 18.48528137423857,948.7609306503489" />
<polygon fill="rgba(255,255,255,0.75)" stroke-width="1" stroke-dasharray="" stroke="black" points="218.48528137423858,918.7609306503489 218.48528137423858,948.7609306503489 210.0,940.2756492761104 210.0,910.2756492761104" />
<polygon fill="rgba(255,255,255,0.75)" stroke-width="1" stroke-dasharray="" stroke="black" points="10.0,910.2756492761104 210.0,910.2756492761104 210.0,940.2756492761104 10.0,940.2756492761104" />
<text style="" text-anchor="middle" x="110.0" y="925.2756492761104" fill="black">batten</text>
<polygon fill="none" stroke-width="1" stroke-dasharray="2" stroke="gray" points="18.48528137423857,977.2462120245874 18.48528137423857,1007.2462120245874 218.48528137423858,1007.2462120245874 218.48528137423858,977.2462120245874" />
<polygon fill="none" stroke-width="1" stroke-dasharray="2" stroke="gray" points="10.0,968.7609306503489 10.0,998.7609306503489 18.48528137423857,1007.2462120245874 18.48528137423857,977.2462120245874" />
<polygon fill="none" stroke-width="1" stroke-dasharray="2" stroke="gray" points="18.48528137423857,977.2462120245874 218.48528137423858,977.2462120245874 210.0,968.7609306503489 10.0,968.7609306503489" />
<polygon fill="rgba(192,192,192,0.75)" stroke-width="1" stroke-dasharray="" stroke="black" points="10.0,998.7609306503489 210.0,998.7609306503489 218.48528137423858,1007.2462120245874 18.48528137423857,1007.2462120245874" />
<polygon fill="rgba(255,255,255,0.75)" stroke-width="1" stroke-dasharray="" stroke="black" points="218.48528137423858,977.2462120245874 218.48528137423858,1007.2462120245874 210.0,998.7609306503489 210.0,968.7609306503489" />
<polygon fill="rgba(255,255,255,0.75)" stroke-width="1" stroke-dasharray="" stroke="black" points="10.0,968.7609306503489 210.0,968.7609306503489 210.0,998.7609306503489 10.0,998.7609306503489" />
<text style="" text-anchor="middle" x="110.0" y="983.7609306503489" fill="black">batten</text>
<polygon fill="none" stroke-width="1" stroke-dasharray="2" stroke="gray" points="18.48528137423857,1035.7314933988262 18.48528137423857,1065.7314933988262 218.48528137423858,1065.7314933988262 218.48528137423858,1035.7314933988262" />
<polygon fill="none" stroke-width="1" stroke-dasharray="2" stroke="gray" points="10.0,1027.2462120245875 10.0,1057.2462120245875 18.48528137423857,1065.7314933988262 18.48528137423857,1035.7314933988262" />
<polygon fill="none" stroke-width="1" stroke-dasharray="2" stroke="gray" points="18.48528137423857,1035.7314933988262 218.48528137423858,1035.7314933988262 210.0,1027.2462120245875 10.0,1027.2462120245875" />
<polygon fill="rgba(192,192,192,0.75)" stroke-width="1" stroke-dasharray="" stroke="black" points="10.0,1057.2462120245875 210.0,1057.2462120245875 218.48528137423858,1065.7314933988262 18.48528137423857,1065.7314933988262" />
<polygon fill="rgba(255,255,255,0.75)" stroke-width="1" stroke-dasharray="" stroke="black" points="218.48528137423858,1035.7314933988262 218.48528137423858,1065.7314933988262 210.0,1057.2462120245875 210.0,1027.2462120245875" />
<polygon fill="rgba(255,255,255,0.75)" stroke-width="1" stroke-dasharray="" stroke="black" points="10.0,1027.2462120245875 210.0,1027.2462120245875 210.0,1057.2462120245875 10.0,1057.2462120245875" />
<text style="" text-anchor="middle" x="110.0" y="1042.2462120245875" fill="black">batten</text>
<polygon fill="none" stroke-width="1" stroke-dasharray="2" stroke="gray" points="18.48528137423857,1094.2167747730648 18.48528137423857,1124.2167747730648 218.48528137423858,1124.2167747730648 218.48528137423858,1094.2167747730648" />
<polygon fill="none" stroke-width="1" stroke-dasharray="2" stroke="gray" points="10.0,1085.7314933988262 10.0,1115.7314933988262 18.48528137423857,1124.2167747730648 18.48528137423857,1094.2167747730648" />
<polygon fill="none" stroke-width="1" stroke-dasharray="2" stroke="gray" points="18.48528137423857,1094.2167747730648 218.48528137423858,1094.2167747730648 210.0,1085.7314933988262 10.0,1085.7314933988262" />
<polygon fill="rgba(192,192,192,0.75)" stroke-width="1" stroke-dasharray="" stroke="black" points="10.0,1115.7314933988262 210.0,1115.7314933988262 218.48528137423858,1124.2167747730648 18.48528137423857,1124.2167747730648" />
<polygon fill="rgba(255,255,255,0.75)" stroke-width="1" stroke-dasharray="" stroke="black" points="218.48528137423858,1094.2167747730648 218.48528137423858,1124.2167747730648 210.0,1115.7314933988262 210.0,1085.7314933988262" />
<polygon fill="rgba(255,255,255,0.75)" stroke-width="1" stroke-dasharray="" stroke="black" points="10.0,1085.7314933988262 210.0,1085.7314933988262 210.0,1115.7314933988262 10.0,1115.7314933988262" />
<text style="" text-anchor="middle" x="110.0" y="1100.7314933988262" fill="black">bottom brace</text>
</svg>
