<svg width="1000" viewBox="0.0 0.0 1000.0 820.6" xmlns="http://www.w3.org/2000/svg">
<polygon fill="none" stroke-width="1" stroke-dasharray="2" stroke="gray" points="18.5,18.5 18.5,198.5 808.5,198.5 808.5,18.5" />
<polygon fill="none" stroke-width="1" stroke-dasharray="2" stroke="gray" points="10.0,10.0 10.0,190.0 18.5,198.5 18.5,18.5" />
<polygon fill="none" stroke-width="1" stroke-dasharray="2" stroke="gray" points="18.5,18.5 808.5,18.5 800.0,10.0 10.0,10.0" />
<polygon fill="rgba(192,192,192,0.75)" stroke-width="1" stroke-dasharray="" stroke="black" points="10.0,190.0 800.0,190.0 808.5,198.5 18.5,198.5" />
<polygon fill="rgba(255,255,255,0.75)" stroke-width="1" stroke-dasharray="" stroke="black" points="808.5,18.5 808.5,198.5 800.0,190.0 800.0,10.0" />
<polygon fill="rgba(255,255,255,0.75)" stroke-width="1" stroke-dasharray="" stroke="black" points="10.0,10.0 800.0,10.0 800.0,190.0 10.0,190.0" />
<polygon fill="rgba(224,255,224,0.25)" stroke-width="1" stroke-dasharray="" stroke="none" points="800.0,10.0 808.5,18.5 808.5,198.5 800.0,190.0" />
<polygon fill="rgba(224,255,224,0.25)" stroke-width="1" stroke-dasharray="" stroke="none" points="10.0,10.0 800.0,10.0 800.0,190.0 10.0,190.0" />
<text style="" text-anchor="middle" x="405.0" y="100.0" fill="black">a-1 (used)</text>
<polygon fill="none" stroke-width="1" stroke-dasharray="2" stroke="gray" points="38.5,38.5 38.5,218.5 828.5,218.5 828.5,38.5" />
<polygon fill="none" stroke-width="1" stroke-dasharray="2" stroke="gray" points="30.0,30.0 30.0,210.0 38.5,218.5 38.5,38.5" />
<polygon fill="none" stroke-width="1" stroke-dasharray="2" stroke="gray" points="38.5,38.5 828.5,38.5 820.0,30.0 30.0,30.0" />
<polygon fill="rgba(192,192,192,0.75)" stroke-width="1" stroke-dasharray="" stroke="black" points="30.0,210.0 820.0,210.0 828.5,218.5 38.5,218.5" />
<polygon fill="rgba(255,255,255,0.75)" stroke-width="1" stroke-dasharray="" stroke="black" points="828.5,38.5 828.5,218.5 820.0,210.0 820.0,30.0" />
<polygon fill="rgba(255,255,255,0.75)" stroke-width="1" stroke-dasharray="" stroke="black" points="30.0,30.0 820.0,30.0 820.0,210.0 30.0,210.0" />
<polygon fill="rgba(224,255,224,0.25)" stroke-width="1" stroke-dasharray="" stroke="none" points="820.0,30.0 828.5,38.5 828.5,218.5 820.0,210.0" />
<polygon fill="rgba(224,255,224,0.25)" stroke-width="1" stroke-dasharray="" stroke="none" points="30.0,30.0 820.0,30.0 820.0,210.0 30.0,210.0" />
<text style="" text-anchor="middle" x="425.0" y="120.0" fill="black">a-2 (used)</text>
<polygon fill="none" stroke-width="1" stroke-dasharray="2" stroke="gray" points="58.5,58.5 58.5,238.5 848.5,238.5 848.5,58.5" />
<polygon fill="none" stroke-width="1" stroke-dasharray="2" stroke="gray" points="50.0,50.0 50.0,230.0 58.5,238.5 58.5,58.5" />
<polygon fill="none" stroke-width="1" stroke-dasharray="2" stroke="gray" points="58.5,58.5 848.5,58.5 840.0,50.0 50.0,50.0" />
<polygon fill="rgba(192,192,192,0.75)" stroke-width="1" stroke-dasharray="" stroke="black" points="50.0,230.0 840.0,230.0 848.5,238.5 58.5,238.5" />
<polygon fill="rgba(255,255,255,0.75)" stroke-width="1" stroke-dasharray="" stroke="black" points="848.5,58.5 848.5,238.5 840.0,230.0 840.0,50.0" />
<polygon fill="rgba(255,255,255,0.75)" stroke-width="1" stroke-dasharray="" stroke="black" points="50.0,50.0 840.0,50.0 840.0,230.0 50.0,230.0" />
<polygon fill="rgba(224,255,224,0.25)" stroke-width="1" stroke-dasharray="" stroke="none" points="840.0,50.0 848.5,58.5 848.5,238.5 840.0,230.0" />
<polygon fill="rgba(224,255,224,0.25)" stroke-width="1" stroke-dasharray="" stroke="none" points="50.0,50.0 840.0,50.0 840.0,230.0 50.0,230.0" />
<text style="" text-anchor="middle" x="445.0" y="140.0" fill="black">a-3 (used)</text>
<polygon fill="none" stroke-width="1" stroke-dasharray="2" stroke="gray" points="20.6,260.6 20.6,395.6 760.6,395.6 760.6,260.6" />
<polygon fill="none" stroke-width="1" stroke-dasharray="2" stroke="gray" points="10.0,250.0 10.0,385.0 20.6,395.6 20.6,260.6" />
<polygon fill="none" stroke-width="1" stroke-dasharray="2" stroke="gray" points="20.6,260.6 760.6,260.6 750.0,250.0 10.0,250.0" />
<polygon fill="rgba(192,192,192,0.75)" stroke-width="1" stroke-dasharray="" stroke="black" points="10.0,385.0 750.0,385.0 760.6,395.6 20.6,395.6" />
<polygon fill="rgba(255,255,255,0.75)" stroke-width="1" stroke-dasharray="" stroke="black" points="760.6,260.6 760.6,395.6 750.0,385.0 750.0,250.0" />
<polygon fill="rgba(255,255,255,0.75)" stroke-width="1" stroke-dasharray="" stroke="black" points="10.0,250.0 750.0,250.0 750.0,385.0 10.0,385.0" />
<polygon fill="rgba(224,255,224,0.25)" stroke-width="1" stroke-dasharray="" stroke="none" points="750.0,250.0 760.6,260.6 760.6,395.6 750.0,385.0" />
<polygon fill="rgba(224,255,224,0.25)" stroke-width="1" stroke-dasharray="" stroke="none" points="10.0,250.0 750.0,250.0 750.0,385.0 10.0,385.0" />
<text style="" text-anchor="middle" x="380.0" y="317.5" fill="black">b-1 (used)</text>
<polygon fill="none" stroke-width="1" stroke-dasharray="2" stroke="gray" points="40.6,280.6 40.6,415.6 780.6,415.6 780.6,280.6" />
<polygon fill="none" stroke-width="1" stroke-dasharray="2" stroke="gray" points="30.0,270.0 30.0,405.0 40.6,415.6 40.6,280.6" />
<polygon fill="none" stroke-width="1" stroke-dasharray="2" stroke="gray" points="40.6,280.6 780.6,280.6 770.0,270.0 30.0,270.0" />
<polygon fill="rgba(192,192,192,0.75)" stroke-width="1" stroke-dasharray="" stroke="black" points="30.0,405.0 770.0,405.0 780.6,415.6 40.6,415.6" />
<polygon fill="rgba(255,255,255,0.75)" stroke-width="1" stroke-dasharray="" stroke="black" points="780.6,280.6 780.6,415.6 770.0,405.0 770.0,270.0" />
<polygon fill="rgba(255,255,255,0.75)" stroke-width="1" stroke-dasharray="" stroke="black" points="30.0,270.0 770.0,270.0 770.0,405.0 30.0,405.0" />
<polygon fill="rgba(224,255,224,0.25)" stroke-width="1" stroke-dasharray="" stroke="none" points="770.0,270.0 780.6,280.6 780.6,415.6 770.0,405.0" />
<polygon fill="rgba(224,255,224,0.25)" stroke-width="1" stroke-dasharray="" stroke="none" points="30.0,270.0 770.0,270.0 770.0,405.0 30.0,405.0" />
<text style="" text-anchor="middle" x="400.0" y="337.5" fill="black">b-2 (used)</text>
<polygon fill="none" stroke-width="1" stroke-dasharray="2" stroke="gray" points="60.6,300.6 60.6,435.6 800.6,435.6 800.6,300.6" />
<polygon fill="none" stroke-width="1" stroke-dasharray="2" stroke="gray" points="50.0,290.0 50.0,425.0 60.6,435.6 60.6,300.6" />
<polygon fill="none" stroke-width="1" stroke-dasharray="2" stroke="gray" points="60.6,300.6 800.6,300.6 790.0,290.0 50.0,290.0" />
<polygon fill="rgba(192,192,192,0.75)" stroke-width="1" stroke-dasharray="" stroke="black" points="50.0,425.0 790.0,425.0 800.6,435.6 60.6,435.6" />
<polygon fill="rgba(255,255,255,0.75)" stroke-width="1" stroke-dasharray="" stroke="black" points="800.6,300.6 800.6,435.6 790.0,425.0 790.0,290.0" />
<polygon fill="rgba(255,255,255,0.75)" stroke-width="1" stroke-dasharray="" stroke="black" points="50.0,290.0 790.0,290.0 790.0,425.0 50.0,425.0" />
<polygon fill="rgba(224,255,224,0.25)" stroke-width="1" stroke-dasharray="" stroke="none" points="790.0,290.0 800.6,300.6 800.6,435.6 790.0,425.0" />
<polygon fill="rgba(224,255,224,0.25)" stroke-width="1" stroke-dasharray="" stroke="none" points="50.0,290.0 790.0,290.0 790.0,425.0 50.0,425.0" />
<text style="" text-anchor="middle" x="420.0" y="357.5" fill="black">b-3 (used)</text>
<polygon fill="none" stroke-width="1" stroke-dasharray="2" stroke="gray" points="12.1,447.1 12.1,767.1 432.1,767.1 432.1,447.1" />
<polygon fill="none" stroke-width="1" stroke-dasharray="2" stroke="gray" points="10.0,445.0 10.0,765.0 12.1,767.1 12.1,447.1" />
<polygon fill="none" stroke-width="1" stroke-dasharray="2" stroke="gray" points="12.1,447.1 432.1,447.1 430.0,445.0 10.0,445.0" />
<polygon fill="rgba(192,192,192,0.75)" stroke-width="1" stroke-dasharray="" stroke="black" points="10.0,765.0 430.0,765.0 432.1,767.1 12.1,767.1" />
<polygon fill="rgba(255,255,255,0.75)" stroke-width="1" stroke-dasharray="" stroke="black" points="432.1,447.1 432.1,767.1 430.0,765.0 430.0,445.0" />
<polygon fill="rgba(255,255,255,0.75)" stroke-width="1" stroke-dasharray="" stroke="black" points="10.0,445.0 430.0,445.0 430.0,765.0 10.0,765.0" />
<polygon fill="rgba(224,255,224,0.25)" stroke-width="1" stroke-dasharray="" stroke="none" points="430.0,445.0 432.1,447.1 432.1,767.1 430.0,765.0" />
<polygon fill="rgba(224,255,224,0.25)" stroke-width="1" stroke-dasharray="" stroke="none" points="10.0,445.0 430.0,445.0 430.0,765.0 10.0,765.0" />
<text style="" text-anchor="middle" x="220.0" y="605.0" fill="black">ply-1 (used)</text>
<polygon fill="none" stroke-width="1" stroke-dasharray="2" stroke="gray" points="20.6,795.6 20.6,810.6 420.6,810.6 420.6,795.6" />
<polygon fill="none" stroke-width="1" stroke-dasharray="2" stroke="gray" points="10.0,785.0 10.0,800.0 20.6,810.6 20.6,795.6" />
<polygon fill="none" stroke-width="1" stroke-dasharray="2" stroke="gray" points="20.6,795.6 420.6,795.6 410.0,785.0 10.0,785.0" />
<polygon fill="rgba(192,192,192,0.75)" stroke-width="1" stroke-dasharray="" stroke="black" points="10.0,800.0 410.0,800.0 420.6,810.6 20.6,810.6" />
<polygon fill="rgba(255,255,255,0.75)" stroke-width="1" stroke-dasharray="" stroke="black" points="420.6,795.6 420.6,810.6 410.0,800.0 410.0,785.0" />
<polygon fill="rgba(255,255,255,0.75)" stroke-width="1" stroke-dasharray="" stroke="black" points="10.0,785.0 410.0,785.0 410.0,800.0 10.0,800.0" />
<polygon fill="rgba(224,255,224,0.25)" stroke-width="1" stroke-dasharray="" stroke="none" points="410.0,785.0 420.6,795.6 420.6,810.6 410.0,800.0" />
<polygon fill="rgba(224,255,224,0.25)" stroke-width="1" stroke-dasharray="" stroke="none" points="10.0,785.0 410.0,785.0 410.0,800.0 10.0,800.0" />
<text style="" text-anchor="middle" x="210.0" y="792.5" fill="black">stick-1 (used)</text>
</svg>
