<svg width="1100" viewBox="0.0 -224.0 550.0 224.0" xmlns="http://www.w3.org/2000/svg">
<polygon fill="none" stroke-width="1" stroke-dasharray="" stroke="black" points="20.0,-224.0 32.0,-224.0 32.0,-224.0 20.0,-224.0 20.0,-224.0" />
<polygon fill="none" stroke-width="1" stroke-dasharray="" stroke="black" points="20.0,-224.0 20.0,-224.0 32.0,-224.0 32.0,-224.0 20.0,-224.0" />
<polygon fill="none" stroke-width="1" stroke-dasharray="" stroke="black" points="20.0,-224.0 20.0,-224.0 32.0,-224.0 32.0,-224.0 27.0,-224.0 27.0,-224.0 32.0,-224.0 32.0,-224.0 20.0,-224.0" />
<polygon fill="none" stroke-width="1" stroke-dasharray="" stroke="black" points="20.0,-224.0 32.0,-224.0 32.0,-224.0 432.0,-224.0 432.0,-224.0 444.0,-224.0 444.0,-224.0 444.0,-224.0 444.0,-224.0 432.0,-224.0 432.0,-224.0 444.0,-224.0 444.0,-224.0 432.0,-224.0 432.0,-224.0 432.0,-224.0 32.0,-224.0 32.0,-224.0 32.0,-224.0 20.0,-224.0 20.0,-224.0 32.0,-224.0 32.0,-224.0 20.0,-224.0 20.0,-224.0 20.0,-224.0" />
<polygon fill="none" stroke-width="1" stroke-dasharray="" stroke="black" points="20.0,-224.0 20.0,-224.0 444.0,-224.0 444.0,-224.0" />
<polygon fill="none" stroke-width="1" stroke-dasharray="" stroke="black" points="432.0,-224.0 444.0,-224.0 444.0,-224.0 432.0,-224.0 432.0,-224.0" />
<polygon fill="none" stroke-width="1" stroke-dasharray="" stroke="black" points="432.0,-224.0 432.0,-224.0 444.0,-224.0 444.0,-224.0 432.0,-224.0" />
<polygon fill="none" stroke-width="1" stroke-dasharray="" stroke="black" points="432.0,-224.0 432.0,-224.0 437.0,-224.0 437.0,-224.0 432.0,-224.0 432.0,-224.0 444.0,-224.0 444.0,-224.0 432.0,-224.0" />
<polygon fill="none" stroke-width="1" stroke-dasharray="" stroke="black" points="20.0,-212.0 20.0,-212.0 20.0,-224.0 20.0,-224.0 20.0,-212.0" />
<polygon fill="none" stroke-width="1" stroke-dasharray="" stroke="black" points="20.0,-212.0 20.0,-212.0 20.0,-224.0 20.0,-224.0 20.0,-212.0" />
<polygon fill="none" stroke-width="1" stroke-dasharray="" stroke="black" points="20.0,-224.0 32.0,-224.0 32.0,-212.0 20.0,-212.0" />
<polygon fill="none" stroke-width="1" stroke-dasharray="" stroke="black" points="20.0,-224.0 20.0,-212.0 32.0,-212.0 32.0,-224.0" />
<polygon fill="none" stroke-width="1" stroke-dasharray="" stroke="black" points="20.0,-212.0 32.0,-212.0 32.0,-224.0 20.0,-224.0" />
<polygon fill="none" stroke-width="1" stroke-dasharray="" stroke="black" points="32.0,-224.0 32.0,-212.0 20.0,-212.0 20.0,-224.0" />
<polygon fill="none" stroke-width="1" stroke-dasharray="" stroke="black" points="20.0,-224.0 32.0,-224.0 32.0,-212.0 20.0,-212.0" />
<polygon fill="none" stroke-width="1" stroke-dasharray="" stroke="black" points="20.0,-224.0 20.0,-212.0 32.0,-212.0 32.0,-224.0" />
<polygon fill="none" stroke-width="1" stroke-dasharray="" stroke="black" points="20.0,-212.0 32.0,-212.0 32.0,-224.0 20.0,-224.0" />
<polygon fill="none" stroke-width="1" stroke-dasharray="" stroke="black" points="32.0,-224.0 32.0,-212.0 20.0,-212.0 20.0,-224.0" />
<polygon fill="none" stroke-width="1" stroke-dasharray="" stroke="black" points="32.0,-212.0 32.0,-224.0 32.0,-224.0 32.0,-212.0 32.0,-212.0" />
<polygon fill="none" stroke-width="1" stroke-dasharray="" stroke="black" points="32.0,-212.0 32.0,-212.0 32.0,-224.0 32.0,-224.0 32.0,-212.0" />
<polygon fill="none" stroke-width="1" stroke-dasharray="" stroke="black" points="32.0,-212.0 32.0,-212.0 32.0,-217.0 32.0,-217.0 32.0,-212.0 32.0,-212.0 32.0,-224.0 32.0,-224.0 32.0,-212.0" />
<polygon fill="none" stroke-width="1" stroke-dasharray="" stroke="black" points="32.0,-224.0 432.0,-224.0 432.0,-224.0 432.0,-212.0 32.0,-212.0 32.0,-224.0" />
<polygon fill="none" stroke-width="1" stroke-dasharray="" stroke="black" points="32.0,-224.0 32.0,-212.0 432.0,-212.0 432.0,-224.0 432.0,-224.0 32.0,-224.0" />
<polygon fill="none" stroke-width="1" stroke-dasharray="" stroke="black" points="432.0,-224.0 432.0,-212.0 432.0,-212.0 432.0,-224.0 432.0,-224.0" />
<polygon fill="none" stroke-width="1" stroke-dasharray="" stroke="black" points="432.0,-224.0 432.0,-224.0 432.0,-212.0 432.0,-212.0 432.0,-224.0" />
<polygon fill="none" stroke-width="1" stroke-dasharray="" stroke="black" points="432.0,-224.0 432.0,-224.0 432.0,-212.0 432.0,-212.0 432.0,-217.0 432.0,-217.0 432.0,-212.0 432.0,-212.0 432.0,-224.0" />
<polygon fill="none" stroke-width="1" stroke-dasharray="" stroke="black" points="432.0,-224.0 432.0,-212.0 444.0,-212.0 444.0,-224.0" />
<polygon fill="none" stroke-width="1" stroke-dasharray="" stroke="black" points="444.0,-212.0 432.0,-212.0 432.0,-224.0 444.0,-224.0" />
<polygon fill="none" stroke-width="1" stroke-dasharray="" stroke="black" points="444.0,-224.0 444.0,-212.0 432.0,-212.0 432.0,-224.0" />
<polygon fill="none" stroke-width="1" stroke-dasharray="" stroke="black" points="444.0,-224.0 432.0,-224.0 432.0,-212.0 444.0,-212.0" />
<polygon fill="none" stroke-width="1" stroke-dasharray="" stroke="black" points="432.0,-224.0 432.0,-212.0 444.0,-212.0 444.0,-224.0" />
<polygon fill="none" stroke-width="1" stroke-dasharray="" stroke="black" points="444.0,-212.0 432.0,-212.0 432.0,-224.0 444.0,-224.0" />
<polygon fill="none" stroke-width="1" stroke-dasharray="" stroke="black" points="444.0,-224.0 444.0,-212.0 432.0,-212.0 432.0,-224.0" />
<polygon fill="none" stroke-width="1" stroke-dasharray="" stroke="black" points="444.0,-224.0 432.0,-224.0 432.0,-212.0 444.0,-212.0" />
<polygon fill="none" stroke-width="1" stroke-dasharray="" stroke="black" points="444.0,-224.0 444.0,-224.0 444.0,-212.0 444.0,-212.0 444.0,-224.0" />
<polygon fill="none" stroke-width="1" stroke-dasharray="" stroke="black" points="444.0,-224.0 444.0,-224.0 444.0,-212.0 444.0,-212.0 444.0,-224.0" />
<polygon fill="none" stroke-width="1" stroke-dasharray="" stroke="black" points="32.0,-217.0 32.0,-212.0 432.0,-212.0 432.0,-217.0 432.0,-217.0 32.0,-217.0" />
<polygon fill="none" stroke-width="1" stroke-dasharray="" stroke="black" points="32.0,-217.0 432.0,-217.0 432.0,-217.0 432.0,-212.0 32.0,-212.0 32.0,-217.0" />
<polygon fill="none" stroke-width="1" stroke-dasharray="" stroke="black" points="20.0,-212.0 20.0,-212.0 32.0,-212.0 32.0,-212.0 20.0,-212.0" />
<polygon fill="none" stroke-width="1" stroke-dasharray="" stroke="black" points="20.0,-212.0 20.0,-212.0 32.0,-212.0 32.0,-212.0 20.0,-212.0" />
<polygon fill="none" stroke-width="1" stroke-dasharray="" stroke="black" points="32.0,-212.0 44.0,-212.0 44.0,-212.0 32.0,-212.0 32.0,-212.0" />
<polygon fill="none" stroke-width="1" stroke-dasharray="" stroke="black" points="32.0,-212.0 32.0,-212.0 44.0,-212.0 44.0,-212.0 32.0,-212.0" />
<polygon fill="none" stroke-width="1" stroke-dasharray="" stroke="black" points="32.0,-212.0 32.0,-212.0 44.0,-212.0 44.0,-212.0 32.0,-212.0" />
<polygon fill="none" stroke-width="1" stroke-dasharray="" stroke="black" points="32.0,-212.0 47.0,-212.0 47.0,-212.0 32.0,-212.0 32.0,-212.0" />
<polygon fill="none" stroke-width="1" stroke-dasharray="" stroke="black" points="32.0,-212.0 32.0,-212.0 47.0,-212.0 47.0,-212.0 32.0,-212.0" />
<polygon fill="none" stroke-width="1" stroke-dasharray="" stroke="black" points="32.0,-212.0 44.0,-212.0 44.0,-212.0 420.0,-212.0 420.0,-212.0 432.0,-212.0 432.0,-212.0 432.0,-212.0 432.0,-212.0 420.0,-212.0 420.0,-212.0 432.0,-212.0 432.0,-212.0 420.0,-212.0 420.0,-212.0 420.0,-212.0 44.0,-212.0 44.0,-212.0 44.0,-212.0 32.0,-212.0 32.0,-212.0 44.0,-212.0 44.0,-212.0 32.0,-212.0 32.0,-212.0 32.0,-212.0" />
<polygon fill="none" stroke-width="1" stroke-dasharray="" stroke="black" points="32.0,-212.0 47.0,-212.0 47.0,-212.0 417.0,-212.0 417.0,-212.0 417.0,-212.0 432.0,-212.0 432.0,-212.0 417.0,-212.0 417.0,-212.0 417.0,-212.0 47.0,-212.0 47.0,-212.0 32.0,-212.0 32.0,-212.0 32.0,-212.0" />
<polygon fill="none" stroke-width="1" stroke-dasharray="" stroke="black" points="32.0,-212.0 32.0,-212.0 20.0,-212.0 20.0,-212.0 32.0,-212.0 32.0,-212.0 20.0,-212.0 20.0,-212.0 20.0,-212.0 20.0,-212.0 32.0,-212.0 32.0,-212.0 432.0,-212.0 432.0,-212.0 444.0,-212.0 444.0,-212.0 444.0,-212.0 444.0,-212.0 432.0,-212.0 432.0,-212.0 444.0,-212.0 444.0,-212.0 432.0,-212.0 432.0,-212.0 432.0,-212.0 32.0,-212.0" />
<polygon fill="none" stroke-width="1" stroke-dasharray="" stroke="black" points="32.0,-212.0 32.0,-212.0 62.0,-212.0 62.0,-212.0" />
<polygon fill="none" stroke-width="1" stroke-dasharray="" stroke="black" points="62.0,-212.0 62.0,-212.0 92.0,-212.0 92.0,-212.0" />
<polygon fill="none" stroke-width="1" stroke-dasharray="" stroke="black" points="32.0,-212.0 32.0,-212.0 432.0,-212.0 432.0,-212.0" />
<polygon fill="none" stroke-width="1" stroke-dasharray="" stroke="black" points="32.0,-212.0 32.0,-212.0 432.0,-212.0 432.0,-212.0" />
<polygon fill="none" stroke-width="1" stroke-dasharray="" stroke="black" points="357.0,-212.0 357.0,-212.0 387.0,-212.0 387.0,-212.0" />
<polygon fill="none" stroke-width="1" stroke-dasharray="" stroke="black" points="387.0,-212.0 387.0,-212.0 402.0,-212.0 402.0,-212.0" />
<polygon fill="none" stroke-width="1" stroke-dasharray="" stroke="black" points="402.0,-212.0 402.0,-212.0 432.0,-212.0 432.0,-212.0" />
<polygon fill="none" stroke-width="1" stroke-dasharray="" stroke="black" points="417.0,-212.0 432.0,-212.0 432.0,-212.0 417.0,-212.0 417.0,-212.0" />
<polygon fill="none" stroke-width="1" stroke-dasharray="" stroke="black" points="417.0,-212.0 417.0,-212.0 432.0,-212.0 432.0,-212.0 417.0,-212.0" />
<polygon fill="none" stroke-width="1" stroke-dasharray="" stroke="black" points="420.0,-212.0 432.0,-212.0 432.0,-212.0 420.0,-212.0 420.0,-212.0" />
<polygon fill="none" stroke-width="1" stroke-dasharray="" stroke="black" points="420.0,-212.0 420.0,-212.0 432.0,-212.0 432.0,-212.0 420.0,-212.0" />
<polygon fill="none" stroke-width="1" stroke-dasharray="" stroke="black" points="420.0,-212.0 420.0,-212.0 432.0,-212.0 432.0,-212.0 420.0,-212.0" />
<polygon fill="none" stroke-width="1" stroke-dasharray="" stroke="black" points="432.0,-212.0 432.0,-212.0 444.0,-212.0 444.0,-212.0 432.0,-212.0" />
<polygon fill="none" stroke-width="1" stroke-dasharray="" stroke="black" points="432.0,-212.0 432.0,-212.0 444.0,-212.0 444.0,-212.0 432.0,-212.0" />
<polygon fill="none" stroke-width="1" stroke-dasharray="" stroke="black" points="32.0,-200.0 32.0,-200.0 32.0,-212.0 32.0,-212.0 32.0,-200.0" />
<polygon fill="none" stroke-width="1" stroke-dasharray="" stroke="black" points="32.0,-200.0 32.0,-200.0 32.0,-212.0 32.0,-212.0 32.0,-200.0" />
<polygon fill="none" stroke-width="1" stroke-dasharray="" stroke="black" points="32.0,-212.0 44.0,-212.0 44.0,-200.0 32.0,-200.0" />
<polygon fill="none" stroke-width="1" stroke-dasharray="" stroke="black" points="32.0,-212.0 32.0,-200.0 44.0,-200.0 44.0,-212.0" />
<polygon fill="none" stroke-width="1" stroke-dasharray="" stroke="black" points="32.0,-200.0 44.0,-200.0 44.0,-212.0 32.0,-212.0" />
<polygon fill="none" stroke-width="1" stroke-dasharray="" stroke="black" points="44.0,-212.0 44.0,-200.0 32.0,-200.0 32.0,-212.0" />
<polygon fill="none" stroke-width="1" stroke-dasharray="" stroke="black" points="32.0,-212.0 44.0,-212.0 44.0,-200.0 32.0,-200.0" />
<polygon fill="none" stroke-width="1" stroke-dasharray="" stroke="black" points="32.0,-212.0 32.0,-200.0 44.0,-200.0 44.0,-212.0" />
<polygon fill="none" stroke-width="1" stroke-dasharray="" stroke="black" points="32.0,-200.0 44.0,-200.0 44.0,-212.0 32.0,-212.0" />
<polygon fill="none" stroke-width="1" stroke-dasharray="" stroke="black" points="44.0,-212.0 44.0,-200.0 32.0,-200.0 32.0,-212.0" />
<polygon fill="none" stroke-width="1" stroke-dasharray="" stroke="black" points="44.0,-200.0 44.0,-212.0 44.0,-212.0 44.0,-200.0 44.0,-200.0" />
<polygon fill="none" stroke-width="1" stroke-dasharray="" stroke="black" points="44.0,-200.0 44.0,-200.0 44.0,-212.0 44.0,-212.0 44.0,-200.0" />
<polygon fill="none" stroke-width="1" stroke-dasharray="" stroke="black" points="44.0,-200.0 44.0,-200.0 44.0,-212.0 44.0,-212.0 44.0,-200.0" />
<polygon fill="none" stroke-width="1" stroke-dasharray="" stroke="black" points="44.0,-212.0 420.0,-212.0 420.0,-212.0 420.0,-200.0 44.0,-200.0 44.0,-212.0" />
<polygon fill="none" stroke-width="1" stroke-dasharray="" stroke="black" points="44.0,-212.0 44.0,-200.0 420.0,-200.0 420.0,-212.0 420.0,-212.0 44.0,-212.0" />
<polygon fill="none" stroke-width="1" stroke-dasharray="" stroke="black" points="420.0,-212.0 420.0,-200.0 420.0,-200.0 420.0,-212.0 420.0,-212.0" />
<polygon fill="none" stroke-width="1" stroke-dasharray="" stroke="black" points="420.0,-212.0 420.0,-212.0 420.0,-200.0 420.0,-200.0 420.0,-212.0" />
<polygon fill="none" stroke-width="1" stroke-dasharray="" stroke="black" points="420.0,-212.0 420.0,-212.0 420.0,-200.0 420.0,-200.0 420.0,-212.0" />
<polygon fill="none" stroke-width="1" stroke-dasharray="" stroke="black" points="420.0,-212.0 420.0,-200.0 432.0,-200.0 432.0,-212.0" />
<polygon fill="none" stroke-width="1" stroke-dasharray="" stroke="black" points="432.0,-200.0 420.0,-200.0 420.0,-212.0 432.0,-212.0" />
<polygon fill="none" stroke-width="1" stroke-dasharray="" stroke="black" points="432.0,-212.0 432.0,-200.0 420.0,-200.0 420.0,-212.0" />
<polygon fill="none" stroke-width="1" stroke-dasharray="" stroke="black" points="432.0,-212.0 420.0,-212.0 420.0,-200.0 432.0,-200.0" />
<polygon fill="none" stroke-width="1" stroke-dasharray="" stroke="black" points="420.0,-212.0 420.0,-200.0 432.0,-200.0 432.0,-212.0" />
<polygon fill="none" stroke-width="1" stroke-dasharray="" stroke="black" points="432.0,-200.0 420.0,-200.0 420.0,-212.0 432.0,-212.0" />
<polygon fill="none" stroke-width="1" stroke-dasharray="" stroke="black" points="432.0,-212.0 432.0,-200.0 420.0,-200.0 420.0,-212.0" />
<polygon fill="none" stroke-width="1" stroke-dasharray="" stroke="black" points="432.0,-212.0 420.0,-212.0 420.0,-200.0 432.0,-200.0" />
<polygon fill="none" stroke-width="1" stroke-dasharray="" stroke="black" points="432.0,-212.0 432.0,-212.0 432.0,-200.0 432.0,-200.0 432.0,-212.0" />
<polygon fill="none" stroke-width="1" stroke-dasharray="" stroke="black" points="432.0,-212.0 432.0,-212.0 432.0,-200.0 432.0,-200.0 432.0,-212.0" />
<polygon fill="none" stroke-width="1" stroke-dasharray="" stroke="black" points="32.0,-197.0 32.0,-197.0 32.0,-212.0 32.0,-212.0 32.0,-197.0" />
<polygon fill="none" stroke-width="1" stroke-dasharray="" stroke="black" points="32.0,-212.0 47.0,-212.0 47.0,-197.0 32.0,-197.0" />
<polygon fill="none" stroke-width="1" stroke-dasharray="" stroke="black" points="32.0,-212.0 32.0,-197.0 47.0,-197.0 47.0,-212.0" />
<polygon fill="none" stroke-width="1" stroke-dasharray="" stroke="black" points="32.0,-197.0 47.0,-197.0 47.0,-212.0 32.0,-212.0" />
<polygon fill="none" stroke-width="1" stroke-dasharray="" stroke="black" points="47.0,-212.0 47.0,-197.0 32.0,-197.0 32.0,-212.0" />
<polygon fill="none" stroke-width="1" stroke-dasharray="" stroke="black" points="47.0,-197.0 47.0,-212.0 47.0,-212.0 47.0,-197.0 47.0,-197.0" />
<polygon fill="none" stroke-width="1" stroke-dasharray="" stroke="black" points="47.0,-197.0 47.0,-197.0 47.0,-212.0 47.0,-212.0 47.0,-197.0" />
<polygon fill="none" stroke-width="1" stroke-dasharray="" stroke="black" points="47.0,-212.0 417.0,-212.0 417.0,-212.0 417.0,-197.0 47.0,-197.0 47.0,-212.0" />
<polygon fill="none" stroke-width="1" stroke-dasharray="" stroke="black" points="47.0,-212.0 47.0,-197.0 417.0,-197.0 417.0,-212.0 417.0,-212.0 47.0,-212.0" />
<polygon fill="none" stroke-width="1" stroke-dasharray="" stroke="black" points="417.0,-212.0 417.0,-197.0 417.0,-197.0 417.0,-212.0 417.0,-212.0" />
<polygon fill="none" stroke-width="1" stroke-dasharray="" stroke="black" points="417.0,-212.0 417.0,-212.0 417.0,-197.0 417.0,-197.0 417.0,-212.0" />
<polygon fill="none" stroke-width="1" stroke-dasharray="" stroke="black" points="417.0,-212.0 417.0,-197.0 432.0,-197.0 432.0,-212.0" />
<polygon fill="none" stroke-width="1" stroke-dasharray="" stroke="black" points="432.0,-197.0 417.0,-197.0 417.0,-212.0 432.0,-212.0" />
<polygon fill="none" stroke-width="1" stroke-dasharray="" stroke="black" points="432.0,-212.0 432.0,-197.0 417.0,-197.0 417.0,-212.0" />
<polygon fill="none" stroke-width="1" stroke-dasharray="" stroke="black" points="432.0,-212.0 417.0,-212.0 417.0,-197.0 432.0,-197.0" />
<polygon fill="none" stroke-width="1" stroke-dasharray="" stroke="black" points="432.0,-212.0 432.0,-212.0 432.0,-197.0 432.0,-197.0 432.0,-212.0" />
<polygon fill="none" stroke-width="1" stroke-dasharray="" stroke="black" points="32.0,-200.0 32.0,-200.0 44.0,-200.0 44.0,-200.0 32.0,-200.0" />
<polygon fill="none" stroke-width="1" stroke-dasharray="" stroke="black" points="32.0,-200.0 32.0,-200.0 44.0,-200.0 44.0,-200.0 32.0,-200.0" />
<polygon fill="none" stroke-width="1" stroke-dasharray="" stroke="black" points="44.0,-200.0 44.0,-200.0 32.0,-200.0 32.0,-200.0 44.0,-200.0 44.0,-200.0 32.0,-200.0 32.0,-200.0 32.0,-200.0 32.0,-200.0 44.0,-200.0 44.0,-200.0 420.0,-200.0 420.0,-200.0 432.0,-200.0 432.0,-200.0 432.0,-200.0 432.0,-200.0 420.0,-200.0 420.0,-200.0 432.0,-200.0 432.0,-200.0 420.0,-200.0 420.0,-200.0 420.0,-200.0 44.0,-200.0" />
<polygon fill="none" stroke-width="1" stroke-dasharray="" stroke="black" points="44.0,-200.0 44.0,-200.0 420.0,-200.0 420.0,-200.0" />
<polygon fill="none" stroke-width="1" stroke-dasharray="" stroke="black" points="420.0,-200.0 420.0,-200.0 432.0,-200.0 432.0,-200.0 420.0,-200.0" />
<polygon fill="none" stroke-width="1" stroke-dasharray="" stroke="black" points="420.0,-200.0 420.0,-200.0 432.0,-200.0 432.0,-200.0 420.0,-200.0" />
<polygon fill="none" stroke-width="1" stroke-dasharray="" stroke="black" points="32.0,-197.0 32.0,-197.0 47.0,-197.0 47.0,-197.0 32.0,-197.0" />
<polygon fill="none" stroke-width="1" stroke-dasharray="" stroke="black" points="47.0,-197.0 47.0,-197.0 32.0,-197.0 32.0,-197.0 47.0,-197.0 47.0,-197.0 47.0,-197.0 417.0,-197.0 417.0,-197.0 432.0,-197.0 432.0,-197.0 432.0,-197.0 432.0,-197.0 417.0,-197.0 417.0,-197.0 47.0,-197.0" />
<polygon fill="none" stroke-width="1" stroke-dasharray="" stroke="black" points="417.0,-197.0 417.0,-197.0 432.0,-197.0 432.0,-197.0 417.0,-197.0" />
<polygon fill="none" stroke-width="1" stroke-dasharray="" stroke="black" points="32.0,-112.0 32.0,-112.0 32.0,-212.0 32.0,-212.0 32.0,-212.0 32.0,-197.0 32.0,-197.0 32.0,-212.0 32.0,-212.0 32.0,-112.0 32.0,-112.0 32.0,-127.0 32.0,-127.0 32.0,-112.0" />
<polygon fill="none" stroke-width="1" stroke-dasharray="" stroke="black" points="47.0,-212.0 47.0,-112.0 32.0,-112.0 32.0,-212.0" />
<polygon fill="none" stroke-width="1" stroke-dasharray="" stroke="black" points="32.0,-212.0 32.0,-112.0 47.0,-112.0 47.0,-212.0" />
<polygon fill="none" stroke-width="1" stroke-dasharray="" stroke="black" points="47.0,-112.0 47.0,-112.0 47.0,-212.0 47.0,-212.0 47.0,-212.0 47.0,-197.0 47.0,-197.0 47.0,-212.0 47.0,-212.0 47.0,-112.0 47.0,-112.0 47.0,-127.0 47.0,-127.0 47.0,-112.0" />
<polygon fill="none" stroke-width="1" stroke-dasharray="" stroke="black" points="32.0,-112.0 32.0,-112.0 32.0,-212.0 32.0,-212.0" />
<polygon fill="none" stroke-width="1" stroke-dasharray="" stroke="black" points="32.0,-212.0 432.0,-212.0 432.0,-112.0 32.0,-112.0" />
<polygon fill="none" stroke-width="1" stroke-dasharray="" stroke="black" points="32.0,-112.0 432.0,-112.0 432.0,-212.0 32.0,-212.0" />
<polygon fill="none" stroke-width="1" stroke-dasharray="" stroke="black" points="417.0,-212.0 417.0,-212.0 417.0,-112.0 417.0,-112.0 417.0,-112.0 417.0,-127.0 417.0,-127.0 417.0,-112.0 417.0,-112.0 417.0,-212.0 417.0,-212.0 417.0,-197.0 417.0,-197.0 417.0,-212.0" />
<polygon fill="none" stroke-width="1" stroke-dasharray="" stroke="black" points="417.0,-112.0 417.0,-212.0 432.0,-212.0 432.0,-112.0" />
<polygon fill="none" stroke-width="1" stroke-dasharray="" stroke="black" points="432.0,-112.0 432.0,-212.0 417.0,-212.0 417.0,-112.0" />
<polygon fill="none" stroke-width="1" stroke-dasharray="" stroke="black" points="432.0,-212.0 432.0,-212.0 432.0,-112.0 432.0,-112.0 432.0,-112.0 432.0,-127.0 432.0,-127.0 432.0,-112.0 432.0,-112.0 432.0,-212.0 432.0,-212.0 432.0,-197.0 432.0,-197.0 432.0,-212.0" />
<polygon fill="none" stroke-width="1" stroke-dasharray="" stroke="black" points="432.0,-212.0 432.0,-212.0 432.0,-112.0 432.0,-112.0" />
<polygon fill="none" stroke-width="1" stroke-dasharray="" stroke="black" points="47.0,-127.0 47.0,-127.0 32.0,-127.0 32.0,-127.0 47.0,-127.0" />
<polygon fill="none" stroke-width="1" stroke-dasharray="" stroke="black" points="417.0,-127.0 417.0,-127.0 432.0,-127.0 432.0,-127.0 417.0,-127.0 417.0,-127.0 417.0,-127.0 47.0,-127.0 47.0,-127.0 32.0,-127.0 32.0,-127.0 32.0,-127.0 32.0,-127.0 47.0,-127.0 47.0,-127.0 417.0,-127.0" />
<polygon fill="none" stroke-width="1" stroke-dasharray="" stroke="black" points="432.0,-127.0 432.0,-127.0 417.0,-127.0 417.0,-127.0 432.0,-127.0" />
<polygon fill="none" stroke-width="1" stroke-dasharray="" stroke="black" points="47.0,-112.0 47.0,-127.0 32.0,-127.0 32.0,-112.0" />
<polygon fill="none" stroke-width="1" stroke-dasharray="" stroke="black" points="32.0,-112.0 32.0,-127.0 47.0,-127.0 47.0,-112.0" />
<polygon fill="none" stroke-width="1" stroke-dasharray="" stroke="black" points="32.0,-112.0 32.0,-112.0 32.0,-127.0 32.0,-127.0 32.0,-112.0" />
<polygon fill="none" stroke-width="1" stroke-dasharray="" stroke="black" points="32.0,-127.0 47.0,-127.0 47.0,-112.0 32.0,-112.0" />
<polygon fill="none" stroke-width="1" stroke-dasharray="" stroke="black" points="32.0,-112.0 47.0,-112.0 47.0,-127.0 32.0,-127.0" />
<polygon fill="none" stroke-width="1" stroke-dasharray="" stroke="black" points="47.0,-112.0 47.0,-127.0 47.0,-127.0 47.0,-112.0 47.0,-112.0" />
<polygon fill="none" stroke-width="1" stroke-dasharray="" stroke="black" points="47.0,-112.0 47.0,-112.0 47.0,-127.0 47.0,-127.0 47.0,-112.0" />
<polygon fill="none" stroke-width="1" stroke-dasharray="" stroke="black" points="417.0,-112.0 47.0,-112.0 47.0,-112.0 47.0,-127.0 417.0,-127.0 417.0,-112.0" />
<polygon fill="none" stroke-width="1" stroke-dasharray="" stroke="black" points="417.0,-112.0 417.0,-127.0 47.0,-127.0 47.0,-112.0 47.0,-112.0 417.0,-112.0" />
<polygon fill="none" stroke-width="1" stroke-dasharray="" stroke="black" points="417.0,-127.0 417.0,-112.0 417.0,-112.0 417.0,-127.0 417.0,-127.0" />
<polygon fill="none" stroke-width="1" stroke-dasharray="" stroke="black" points="417.0,-127.0 417.0,-127.0 417.0,-112.0 417.0,-112.0 417.0,-127.0" />
<polygon fill="none" stroke-width="1" stroke-dasharray="" stroke="black" points="432.0,-112.0 417.0,-112.0 417.0,-127.0 432.0,-127.0" />
<polygon fill="none" stroke-width="1" stroke-dasharray="" stroke="black" points="432.0,-112.0 432.0,-127.0 417.0,-127.0 417.0,-112.0" />
<polygon fill="none" stroke-width="1" stroke-dasharray="" stroke="black" points="432.0,-127.0 417.0,-127.0 417.0,-112.0 432.0,-112.0" />
<polygon fill="none" stroke-width="1" stroke-dasharray="" stroke="black" points="417.0,-112.0 417.0,-127.0 432.0,-127.0 432.0,-112.0" />
<polygon fill="none" stroke-width="1" stroke-dasharray="" stroke="black" points="432.0,-127.0 432.0,-127.0 432.0,-112.0 432.0,-112.0 432.0,-127.0" />
<polygon fill="none" stroke-width="1" stroke-dasharray="" stroke="black" points="20.0,-0.0 20.0,-0.0 20.0,-224.0 20.0,-224.0 20.0,-212.0 20.0,-212.0 20.0,-224.0 20.0,-224.0 20.0,-224.0 20.0,-224.0 20.0,-212.0 20.0,-212.0 20.0,-224.0 20.0,-224.0 20.0,-0.0 20.0,-0.0 20.0,-0.0 20.0,-12.0 20.0,-12.0 20.0,-0.0 20.0,-0.0 20.0,-12.0 20.0,-12.0 20.0,-0.0" />
<polygon fill="none" stroke-width="1" stroke-dasharray="" stroke="black" points="32.0,-224.0 32.0,-0.0 20.0,-0.0 20.0,-224.0" />
<polygon fill="none" stroke-width="1" stroke-dasharray="" stroke="black" points="20.0,-224.0 20.0,-0.0 32.0,-0.0 32.0,-224.0" />
<polygon fill="none" stroke-width="1" stroke-dasharray="" stroke="black" points="27.0,-224.0 27.0,-0.0 32.0,-0.0 32.0,-224.0" />
<polygon fill="none" stroke-width="1" stroke-dasharray="" stroke="black" points="32.0,-224.0 32.0,-0.0 27.0,-0.0 27.0,-224.0" />
<polygon fill="none" stroke-width="1" stroke-dasharray="" stroke="black" points="32.0,-0.0 32.0,-0.0 32.0,-0.0 32.0,-12.0 32.0,-12.0 32.0,-0.0 32.0,-0.0 32.0,-224.0 32.0,-224.0 32.0,-224.0 32.0,-212.0 32.0,-212.0 32.0,-224.0 32.0,-224.0 32.0,-212.0 32.0,-212.0 32.0,-224.0 32.0,-224.0 32.0,-224.0 32.0,-0.0 32.0,-0.0 32.0,-12.0 32.0,-12.0 32.0,-0.0" />
<polygon fill="none" stroke-width="1" stroke-dasharray="" stroke="black" points="32.0,-12.0 32.0,-12.0 32.0,-212.0 32.0,-212.0 32.0,-200.0 32.0,-200.0 32.0,-212.0 32.0,-212.0 32.0,-212.0 32.0,-212.0 32.0,-200.0 32.0,-200.0 32.0,-212.0 32.0,-212.0 32.0,-12.0 32.0,-12.0 32.0,-12.0 32.0,-24.0 32.0,-24.0 32.0,-12.0 32.0,-12.0 32.0,-24.0 32.0,-24.0 32.0,-12.0" />
<polygon fill="none" stroke-width="1" stroke-dasharray="" stroke="black" points="44.0,-212.0 44.0,-12.0 32.0,-12.0 32.0,-212.0" />
<polygon fill="none" stroke-width="1" stroke-dasharray="" stroke="black" points="32.0,-212.0 32.0,-12.0 44.0,-12.0 44.0,-212.0" />
<polygon fill="none" stroke-width="1" stroke-dasharray="" stroke="black" points="47.0,-112.0 32.0,-112.0 32.0,-112.0 47.0,-112.0 47.0,-112.0" />
<polygon fill="none" stroke-width="1" stroke-dasharray="" stroke="black" points="47.0,-112.0 47.0,-112.0 32.0,-112.0 32.0,-112.0 47.0,-112.0" />
<polygon fill="none" stroke-width="1" stroke-dasharray="" stroke="black" points="44.0,-12.0 44.0,-12.0 44.0,-12.0 44.0,-24.0 44.0,-24.0 44.0,-12.0 44.0,-12.0 44.0,-212.0 44.0,-212.0 44.0,-212.0 44.0,-200.0 44.0,-200.0 44.0,-212.0 44.0,-212.0 44.0,-200.0 44.0,-200.0 44.0,-212.0 44.0,-212.0 44.0,-212.0 44.0,-12.0 44.0,-12.0 44.0,-24.0 44.0,-24.0 44.0,-12.0" />
<polygon fill="none" stroke-width="1" stroke-dasharray="" stroke="black" points="20.0,-0.0 20.0,-0.0 20.0,-224.0 20.0,-224.0" />
<polygon fill="none" stroke-width="1" stroke-dasharray="" stroke="black" points="32.0,-12.0 32.0,-12.0 32.0,-212.0 32.0,-212.0" />
<polygon fill="none" stroke-width="1" stroke-dasharray="" stroke="black" points="32.0,-12.0 32.0,-12.0 32.0,-212.0 32.0,-212.0" />
<polygon fill="none" stroke-width="1" stroke-dasharray="" stroke="black" points="44.0,-24.0 44.0,-24.0 44.0,-200.0 44.0,-200.0" />
<polygon fill="none" stroke-width="1" stroke-dasharray="" stroke="black" points="32.0,-212.0 62.0,-212.0 62.0,-12.0 32.0,-12.0" />
<polygon fill="none" stroke-width="1" stroke-dasharray="" stroke="black" points="32.0,-12.0 62.0,-12.0 62.0,-212.0 32.0,-212.0" />
<polygon fill="none" stroke-width="1" stroke-dasharray="" stroke="black" points="62.0,-212.0 62.0,-212.0 62.0,-12.0 62.0,-12.0" />
<polygon fill="none" stroke-width="1" stroke-dasharray="" stroke="black" points="62.0,-12.0 62.0,-12.0 62.0,-212.0 62.0,-212.0" />
<polygon fill="none" stroke-width="1" stroke-dasharray="" stroke="black" points="62.0,-212.0 92.0,-212.0 92.0,-12.0 62.0,-12.0" />
<polygon fill="none" stroke-width="1" stroke-dasharray="" stroke="black" points="62.0,-12.0 92.0,-12.0 92.0,-212.0 62.0,-212.0" />
<polygon fill="none" stroke-width="1" stroke-dasharray="" stroke="black" points="92.0,-212.0 92.0,-212.0 92.0,-12.0 92.0,-12.0" />
<polygon fill="none" stroke-width="1" stroke-dasharray="" stroke="black" points="44.0,-200.0 420.0,-200.0 420.0,-24.0 44.0,-24.0" />
<polygon fill="none" stroke-width="1" stroke-dasharray="" stroke="black" points="44.0,-24.0 420.0,-24.0 420.0,-200.0 44.0,-200.0" />
<polygon fill="none" stroke-width="1" stroke-dasharray="" stroke="black" points="32.0,-212.0 432.0,-212.0 432.0,-12.0 32.0,-12.0" />
<polygon fill="none" stroke-width="1" stroke-dasharray="" stroke="black" points="32.0,-12.0 432.0,-12.0 432.0,-212.0 32.0,-212.0" />
<polygon fill="none" stroke-width="1" stroke-dasharray="" stroke="black" points="432.0,-112.0 417.0,-112.0 417.0,-112.0 47.0,-112.0 47.0,-112.0 47.0,-112.0 32.0,-112.0 32.0,-112.0 47.0,-112.0 47.0,-112.0 47.0,-112.0 417.0,-112.0 417.0,-112.0 432.0,-112.0 432.0,-112.0 432.0,-112.0" />
<polygon fill="none" stroke-width="1" stroke-dasharray="" stroke="black" points="32.0,-112.0 432.0,-112.0 432.0,-112.0 32.0,-112.0" />
<polygon fill="none" stroke-width="1" stroke-dasharray="" stroke="black" points="20.0,-224.0 444.0,-224.0 444.0,-0.0 20.0,-0.0" />
<polygon fill="none" stroke-width="1" stroke-dasharray="" stroke="black" points="20.0,-0.0 444.0,-0.0 444.0,-224.0 20.0,-224.0" />
<polygon fill="none" stroke-width="1" stroke-dasharray="" stroke="black" points="357.0,-12.0 357.0,-12.0 357.0,-212.0 357.0,-212.0" />
<polygon fill="none" stroke-width="1" stroke-dasharray="" stroke="black" points="357.0,-212.0 387.0,-212.0 387.0,-12.0 357.0,-12.0" />
<polygon fill="none" stroke-width="1" stroke-dasharray="" stroke="black" points="357.0,-12.0 387.0,-12.0 387.0,-212.0 357.0,-212.0" />
<polygon fill="none" stroke-width="1" stroke-dasharray="" stroke="black" points="387.0,-12.0 387.0,-12.0 387.0,-212.0 387.0,-212.0" />
<polygon fill="none" stroke-width="1" stroke-dasharray="" stroke="black" points="387.0,-212.0 387.0,-212.0 387.0,-12.0 387.0,-12.0" />
<polygon fill="none" stroke-width="1" stroke-dasharray="" stroke="black" points="387.0,-212.0 402.0,-212.0 402.0,-12.0 387.0,-12.0" />
<polygon fill="none" stroke-width="1" stroke-dasharray="" stroke="black" points="387.0,-12.0 402.0,-12.0 402.0,-212.0 387.0,-212.0" />
<polygon fill="none" stroke-width="1" stroke-dasharray="" stroke="black" points="402.0,-212.0 402.0,-212.0 402.0,-12.0 402.0,-12.0" />
<polygon fill="none" stroke-width="1" stroke-dasharray="" stroke="black" points="402.0,-12.0 402.0,-12.0 402.0,-212.0 402.0,-212.0" />
<polygon fill="none" stroke-width="1" stroke-dasharray="" stroke="black" points="402.0,-212.0 432.0,-212.0 432.0,-12.0 402.0,-12.0" />
<polygon fill="none" stroke-width="1" stroke-dasharray="" stroke="black" points="402.0,-12.0 432.0,-12.0 432.0,-212.0 402.0,-212.0" />
<polygon fill="none" stroke-width="1" stroke-dasharray="" stroke="black" points="420.0,-200.0 420.0,-200.0 420.0,-24.0 420.0,-24.0" />
<polygon fill="none" stroke-width="1" stroke-dasharray="" stroke="black" points="420.0,-212.0 420.0,-212.0 420.0,-212.0 420.0,-200.0 420.0,-200.0 420.0,-212.0 420.0,-212.0 420.0,-12.0 420.0,-12.0 420.0,-12.0 420.0,-24.0 420.0,-24.0 420.0,-12.0 420.0,-12.0 420.0,-24.0 420.0,-24.0 420.0,-12.0 420.0,-12.0 420.0,-12.0 420.0,-212.0 420.0,-212.0 420.0,-200.0 420.0,-200.0 420.0,-212.0" />
<polygon fill="none" stroke-width="1" stroke-dasharray="" stroke="black" points="432.0,-112.0 417.0,-112.0 417.0,-112.0 432.0,-112.0 432.0,-112.0" />
<polygon fill="none" stroke-width="1" stroke-dasharray="" stroke="black" points="432.0,-112.0 432.0,-112.0 417.0,-112.0 417.0,-112.0 432.0,-112.0" />
<polygon fill="none" stroke-width="1" stroke-dasharray="" stroke="black" points="420.0,-12.0 420.0,-212.0 432.0,-212.0 432.0,-12.0" />
<polygon fill="none" stroke-width="1" stroke-dasharray="" stroke="black" points="432.0,-12.0 432.0,-212.0 420.0,-212.0 420.0,-12.0" />
<polygon fill="none" stroke-width="1" stroke-dasharray="" stroke="black" points="432.0,-212.0 432.0,-212.0 432.0,-12.0 432.0,-12.0" />
<polygon fill="none" stroke-width="1" stroke-dasharray="" stroke="black" points="432.0,-212.0 432.0,-212.0 432.0,-12.0 432.0,-12.0 432.0,-24.0 432.0,-24.0 432.0,-12.0 432.0,-12.0 432.0,-12.0 432.0,-12.0 432.0,-24.0 432.0,-24.0 432.0,-12.0 432.0,-12.0 432.0,-212.0 432.0,-212.0 432.0,-212.0 432.0,-200.0 432.0,-200.0 432.0,-212.0 432.0,-212.0 432.0,-200.0 432.0,-200.0 432.0,-212.0" />
<polygon fill="none" stroke-width="1" stroke-dasharray="" stroke="black" points="432.0,-212.0 432.0,-212.0 432.0,-12.0 432.0,-12.0" />
<polygon fill="none" stroke-width="1" stroke-dasharray="" stroke="black" points="432.0,-224.0 432.0,-224.0 432.0,-224.0 432.0,-212.0 432.0,-212.0 432.0,-224.0 432.0,-224.0 432.0,-0.0 432.0,-0.0 432.0,-0.0 432.0,-12.0 432.0,-12.0 432.0,-0.0 432.0,-0.0 432.0,-12.0 432.0,-12.0 432.0,-0.0 432.0,-0.0 432.0,-0.0 432.0,-224.0 432.0,-224.0 432.0,-212.0 432.0,-212.0 432.0,-224.0" />
<polygon fill="none" stroke-width="1" stroke-dasharray="" stroke="black" points="437.0,-0.0 437.0,-224.0 432.0,-224.0 432.0,-0.0" />
<polygon fill="none" stroke-width="1" stroke-dasharray="" stroke="black" points="432.0,-0.0 432.0,-224.0 437.0,-224.0 437.0,-0.0" />
<polygon fill="none" stroke-width="1" stroke-dasharray="" stroke="black" points="432.0,-0.0 432.0,-224.0 444.0,-224.0 444.0,-0.0" />
<polygon fill="none" stroke-width="1" stroke-dasharray="" stroke="black" points="444.0,-0.0 444.0,-224.0 432.0,-224.0 432.0,-0.0" />
<polygon fill="none" stroke-width="1" stroke-dasharray="" stroke="black" points="444.0,-224.0 444.0,-224.0 444.0,-0.0 444.0,-0.0 444.0,-12.0 444.0,-12.0 444.0,-0.0 444.0,-0.0 444.0,-0.0 444.0,-0.0 444.0,-12.0 444.0,-12.0 444.0,-0.0 444.0,-0.0 444.0,-224.0 444.0,-224.0 444.0,-224.0 444.0,-212.0 444.0,-212.0 444.0,-224.0 444.0,-224.0 444.0,-212.0 444.0,-212.0 444.0,-224.0" />
<polygon fill="none" stroke-width="1" stroke-dasharray="" stroke="black" points="444.0,-224.0 444.0,-224.0 444.0,-0.0 444.0,-0.0" />
<polygon fill="none" stroke-width="1" stroke-dasharray="" stroke="black" points="44.0,-24.0 44.0,-24.0 32.0,-24.0 32.0,-24.0 44.0,-24.0" />
<polygon fill="none" stroke-width="1" stroke-dasharray="" stroke="black" points="44.0,-24.0 44.0,-24.0 32.0,-24.0 32.0,-24.0 44.0,-24.0" />
<polygon fill="none" stroke-width="1" stroke-dasharray="" stroke="black" points="44.0,-24.0 420.0,-24.0 420.0,-24.0 44.0,-24.0" />
<polygon fill="none" stroke-width="1" stroke-dasharray="" stroke="black" points="420.0,-24.0 420.0,-24.0 432.0,-24.0 432.0,-24.0 420.0,-24.0 420.0,-24.0 432.0,-24.0 432.0,-24.0 432.0,-24.0 432.0,-24.0 420.0,-24.0 420.0,-24.0 44.0,-24.0 44.0,-24.0 32.0,-24.0 32.0,-24.0 32.0,-24.0 32.0,-24.0 44.0,-24.0 44.0,-24.0 32.0,-24.0 32.0,-24.0 44.0,-24.0 44.0,-24.0 44.0,-24.0 420.0,-24.0" />
<polygon fill="none" stroke-width="1" stroke-dasharray="" stroke="black" points="432.0,-24.0 432.0,-24.0 420.0,-24.0 420.0,-24.0 432.0,-24.0" />
<polygon fill="none" stroke-width="1" stroke-dasharray="" stroke="black" points="432.0,-24.0 432.0,-24.0 420.0,-24.0 420.0,-24.0 432.0,-24.0" />
<polygon fill="none" stroke-width="1" stroke-dasharray="" stroke="black" points="44.0,-12.0 44.0,-24.0 32.0,-24.0 32.0,-12.0" />
<polygon fill="none" stroke-width="1" stroke-dasharray="" stroke="black" points="32.0,-12.0 32.0,-24.0 44.0,-24.0 44.0,-12.0" />
<polygon fill="none" stroke-width="1" stroke-dasharray="" stroke="black" points="44.0,-12.0 44.0,-24.0 32.0,-24.0 32.0,-12.0" />
<polygon fill="none" stroke-width="1" stroke-dasharray="" stroke="black" points="32.0,-12.0 32.0,-24.0 44.0,-24.0 44.0,-12.0" />
<polygon fill="none" stroke-width="1" stroke-dasharray="" stroke="black" points="32.0,-12.0 32.0,-12.0 32.0,-24.0 32.0,-24.0 32.0,-12.0" />
<polygon fill="none" stroke-width="1" stroke-dasharray="" stroke="black" points="32.0,-12.0 32.0,-12.0 32.0,-24.0 32.0,-24.0 32.0,-12.0" />
<polygon fill="none" stroke-width="1" stroke-dasharray="" stroke="black" points="32.0,-24.0 44.0,-24.0 44.0,-12.0 32.0,-12.0" />
<polygon fill="none" stroke-width="1" stroke-dasharray="" stroke="black" points="32.0,-12.0 44.0,-12.0 44.0,-24.0 32.0,-24.0" />
<polygon fill="none" stroke-width="1" stroke-dasharray="" stroke="black" points="32.0,-24.0 44.0,-24.0 44.0,-12.0 32.0,-12.0" />
<polygon fill="none" stroke-width="1" stroke-dasharray="" stroke="black" points="32.0,-12.0 44.0,-12.0 44.0,-24.0 32.0,-24.0" />
<polygon fill="none" stroke-width="1" stroke-dasharray="" stroke="black" points="44.0,-12.0 44.0,-24.0 44.0,-24.0 44.0,-12.0 44.0,-12.0" />
<polygon fill="none" stroke-width="1" stroke-dasharray="" stroke="black" points="44.0,-12.0 44.0,-12.0 44.0,-24.0 44.0,-24.0 44.0,-12.0" />
<polygon fill="none" stroke-width="1" stroke-dasharray="" stroke="black" points="44.0,-12.0 44.0,-12.0 44.0,-24.0 44.0,-24.0 44.0,-12.0" />
<polygon fill="none" stroke-width="1" stroke-dasharray="" stroke="black" points="420.0,-12.0 44.0,-12.0 44.0,-12.0 44.0,-24.0 420.0,-24.0 420.0,-12.0" />
<polygon fill="none" stroke-width="1" stroke-dasharray="" stroke="black" points="420.0,-12.0 420.0,-24.0 44.0,-24.0 44.0,-12.0 44.0,-12.0 420.0,-12.0" />
<polygon fill="none" stroke-width="1" stroke-dasharray="" stroke="black" points="420.0,-24.0 420.0,-12.0 420.0,-12.0 420.0,-24.0 420.0,-24.0" />
<polygon fill="none" stroke-width="1" stroke-dasharray="" stroke="black" points="420.0,-24.0 420.0,-24.0 420.0,-12.0 420.0,-12.0 420.0,-24.0" />
<polygon fill="none" stroke-width="1" stroke-dasharray="" stroke="black" points="420.0,-24.0 420.0,-24.0 420.0,-12.0 420.0,-12.0 420.0,-24.0" />
<polygon fill="none" stroke-width="1" stroke-dasharray="" stroke="black" points="432.0,-12.0 420.0,-12.0 420.0,-24.0 432.0,-24.0" />
<polygon fill="none" stroke-width="1" stroke-dasharray="" stroke="black" points="432.0,-12.0 432.0,-24.0 420.0,-24.0 420.0,-12.0" />
<polygon fill="none" stroke-width="1" stroke-dasharray="" stroke="black" points="432.0,-24.0 420.0,-24.0 420.0,-12.0 432.0,-12.0" />
<polygon fill="none" stroke-width="1" stroke-dasharray="" stroke="black" points="420.0,-12.0 420.0,-24.0 432.0,-24.0 432.0,-12.0" />
<polygon fill="none" stroke-width="1" stroke-dasharray="" stroke="black" points="432.0,-12.0 420.0,-12.0 420.0,-24.0 432.0,-24.0" />
<polygon fill="none" stroke-width="1" stroke-dasharray="" stroke="black" points="432.0,-12.0 432.0,-24.0 420.0,-24.0 420.0,-12.0" />
<polygon fill="none" stroke-width="1" stroke-dasharray="" stroke="black" points="432.0,-24.0 420.0,-24.0 420.0,-12.0 432.0,-12.0" />
<polygon fill="none" stroke-width="1" stroke-dasharray="" stroke="black" points="420.0,-12.0 420.0,-24.0 432.0,-24.0 432.0,-12.0" />
<polygon fill="none" stroke-width="1" stroke-dasharray="" stroke="black" points="432.0,-24.0 432.0,-24.0 432.0,-12.0 432.0,-12.0 432.0,-24.0" />
<polygon fill="none" stroke-width="1" stroke-dasharray="" stroke="black" points="432.0,-24.0 432.0,-24.0 432.0,-12.0 432.0,-12.0 432.0,-24.0" />
<polygon fill="none" stroke-width="1" stroke-dasharray="" stroke="black" points="32.0,-12.0 32.0,-12.0 20.0,-12.0 20.0,-12.0 32.0,-12.0" />
<polygon fill="none" stroke-width="1" stroke-dasharray="" stroke="black" points="32.0,-12.0 32.0,-12.0 20.0,-12.0 20.0,-12.0 32.0,-12.0" />
<polygon fill="none" stroke-width="1" stroke-dasharray="" stroke="black" points="44.0,-12.0 32.0,-12.0 32.0,-12.0 44.0,-12.0 44.0,-12.0" />
<polygon fill="none" stroke-width="1" stroke-dasharray="" stroke="black" points="44.0,-12.0 44.0,-12.0 32.0,-12.0 32.0,-12.0 44.0,-12.0" />
<polygon fill="none" stroke-width="1" stroke-dasharray="" stroke="black" points="44.0,-12.0 44.0,-12.0 32.0,-12.0 32.0,-12.0 44.0,-12.0" />
<polygon fill="none" stroke-width="1" stroke-dasharray="" stroke="black" points="32.0,-12.0 62.0,-12.0 62.0,-12.0 32.0,-12.0" />
<polygon fill="none" stroke-width="1" stroke-dasharray="" stroke="black" points="62.0,-12.0 92.0,-12.0 92.0,-12.0 62.0,-12.0" />
<polygon fill="none" stroke-width="1" stroke-dasharray="" stroke="black" points="432.0,-12.0 420.0,-12.0 420.0,-12.0 44.0,-12.0 44.0,-12.0 32.0,-12.0 32.0,-12.0 32.0,-12.0 32.0,-12.0 44.0,-12.0 44.0,-12.0 32.0,-12.0 32.0,-12.0 44.0,-12.0 44.0,-12.0 44.0,-12.0 420.0,-12.0 420.0,-12.0 420.0,-12.0 432.0,-12.0 432.0,-12.0 420.0,-12.0 420.0,-12.0 432.0,-12.0 432.0,-12.0 432.0,-12.0" />
<polygon fill="none" stroke-width="1" stroke-dasharray="" stroke="black" points="32.0,-12.0 432.0,-12.0 432.0,-12.0 32.0,-12.0" />
<polygon fill="none" stroke-width="1" stroke-dasharray="" stroke="black" points="432.0,-12.0 432.0,-12.0 444.0,-12.0 444.0,-12.0 432.0,-12.0 432.0,-12.0 444.0,-12.0 444.0,-12.0 444.0,-12.0 444.0,-12.0 432.0,-12.0 432.0,-12.0 32.0,-12.0 32.0,-12.0 20.0,-12.0 20.0,-12.0 20.0,-12.0 20.0,-12.0 32.0,-12.0 32.0,-12.0 20.0,-12.0 20.0,-12.0 32.0,-12.0 32.0,-12.0 32.0,-12.0 432.0,-12.0" />
<polygon fill="none" stroke-width="1" stroke-dasharray="" stroke="black" points="357.0,-12.0 387.0,-12.0 387.0,-12.0 357.0,-12.0" />
<polygon fill="none" stroke-width="1" stroke-dasharray="" stroke="black" points="387.0,-12.0 402.0,-12.0 402.0,-12.0 387.0,-12.0" />
<polygon fill="none" stroke-width="1" stroke-dasharray="" stroke="black" points="402.0,-12.0 432.0,-12.0 432.0,-12.0 402.0,-12.0" />
<polygon fill="none" stroke-width="1" stroke-dasharray="" stroke="black" points="432.0,-12.0 420.0,-12.0 420.0,-12.0 432.0,-12.0 432.0,-12.0" />
<polygon fill="none" stroke-width="1" stroke-dasharray="" stroke="black" points="432.0,-12.0 432.0,-12.0 420.0,-12.0 420.0,-12.0 432.0,-12.0" />
<polygon fill="none" stroke-width="1" stroke-dasharray="" stroke="black" points="432.0,-12.0 432.0,-12.0 420.0,-12.0 420.0,-12.0 432.0,-12.0" />
<polygon fill="none" stroke-width="1" stroke-dasharray="" stroke="black" points="444.0,-12.0 444.0,-12.0 432.0,-12.0 432.0,-12.0 444.0,-12.0" />
<polygon fill="none" stroke-width="1" stroke-dasharray="" stroke="black" points="444.0,-12.0 444.0,-12.0 432.0,-12.0 432.0,-12.0 444.0,-12.0" />
<polygon fill="none" stroke-width="1" stroke-dasharray="" stroke="black" points="432.0,-7.0 432.0,-12.0 32.0,-12.0 32.0,-7.0 32.0,-7.0 432.0,-7.0" />
<polygon fill="none" stroke-width="1" stroke-dasharray="" stroke="black" points="432.0,-7.0 32.0,-7.0 32.0,-7.0 32.0,-12.0 432.0,-12.0 432.0,-7.0" />
<polygon fill="none" stroke-width="1" stroke-dasharray="" stroke="black" points="32.0,-0.0 32.0,-12.0 20.0,-12.0 20.0,-0.0" />
<polygon fill="none" stroke-width="1" stroke-dasharray="" stroke="black" points="20.0,-0.0 20.0,-12.0 32.0,-12.0 32.0,-0.0" />
<polygon fill="none" stroke-width="1" stroke-dasharray="" stroke="black" points="32.0,-0.0 32.0,-12.0 20.0,-12.0 20.0,-0.0" />
<polygon fill="none" stroke-width="1" stroke-dasharray="" stroke="black" points="20.0,-0.0 20.0,-12.0 32.0,-12.0 32.0,-0.0" />
<polygon fill="none" stroke-width="1" stroke-dasharray="" stroke="black" points="20.0,-0.0 20.0,-0.0 20.0,-12.0 20.0,-12.0 20.0,-0.0" />
<polygon fill="none" stroke-width="1" stroke-dasharray="" stroke="black" points="20.0,-0.0 20.0,-0.0 20.0,-12.0 20.0,-12.0 20.0,-0.0" />
<polygon fill="none" stroke-width="1" stroke-dasharray="" stroke="black" points="20.0,-12.0 32.0,-12.0 32.0,0.0 20.0,0.0" />
<polygon fill="none" stroke-width="1" stroke-dasharray="" stroke="black" points="20.0,0.0 32.0,0.0 32.0,-12.0 20.0,-12.0" />
<polygon fill="none" stroke-width="1" stroke-dasharray="" stroke="black" points="20.0,-12.0 32.0,-12.0 32.0,0.0 20.0,0.0" />
<polygon fill="none" stroke-width="1" stroke-dasharray="" stroke="black" points="20.0,0.0 32.0,0.0 32.0,-12.0 20.0,-12.0" />
<polygon fill="none" stroke-width="1" stroke-dasharray="" stroke="black" points="32.0,-0.0 32.0,-12.0 32.0,-12.0 32.0,-0.0 32.0,-0.0" />
<polygon fill="none" stroke-width="1" stroke-dasharray="" stroke="black" points="32.0,-0.0 32.0,-0.0 32.0,-12.0 32.0,-12.0 32.0,-0.0" />
<polygon fill="none" stroke-width="1" stroke-dasharray="" stroke="black" points="32.0,-0.0 32.0,-0.0 32.0,-12.0 32.0,-12.0 32.0,-7.0 32.0,-7.0 32.0,-12.0 32.0,-12.0 32.0,-0.0" />
<polygon fill="none" stroke-width="1" stroke-dasharray="" stroke="black" points="432.0,-0.0 32.0,-0.0 32.0,-0.0 32.0,-12.0 432.0,-12.0 432.0,-0.0" />
<polygon fill="none" stroke-width="1" stroke-dasharray="" stroke="black" points="432.0,-0.0 432.0,-12.0 32.0,-12.0 32.0,-0.0 32.0,-0.0 432.0,-0.0" />
<polygon fill="none" stroke-width="1" stroke-dasharray="" stroke="black" points="432.0,-12.0 432.0,-0.0 432.0,-0.0 432.0,-12.0 432.0,-12.0" />
<polygon fill="none" stroke-width="1" stroke-dasharray="" stroke="black" points="432.0,-12.0 432.0,-12.0 432.0,-0.0 432.0,-0.0 432.0,-12.0" />
<polygon fill="none" stroke-width="1" stroke-dasharray="" stroke="black" points="432.0,-12.0 432.0,-12.0 432.0,-7.0 432.0,-7.0 432.0,-12.0 432.0,-12.0 432.0,-0.0 432.0,-0.0 432.0,-12.0" />
<polygon fill="none" stroke-width="1" stroke-dasharray="" stroke="black" points="444.0,0.0 432.0,0.0 432.0,-12.0 444.0,-12.0" />
<polygon fill="none" stroke-width="1" stroke-dasharray="" stroke="black" points="444.0,-0.0 444.0,-12.0 432.0,-12.0 432.0,-0.0" />
<polygon fill="none" stroke-width="1" stroke-dasharray="" stroke="black" points="444.0,-12.0 432.0,-12.0 432.0,0.0 444.0,0.0" />
<polygon fill="none" stroke-width="1" stroke-dasharray="" stroke="black" points="432.0,-0.0 432.0,-12.0 444.0,-12.0 444.0,-0.0" />
<polygon fill="none" stroke-width="1" stroke-dasharray="" stroke="black" points="444.0,0.0 432.0,0.0 432.0,-12.0 444.0,-12.0" />
<polygon fill="none" stroke-width="1" stroke-dasharray="" stroke="black" points="444.0,-0.0 444.0,-12.0 432.0,-12.0 432.0,-0.0" />
<polygon fill="none" stroke-width="1" stroke-dasharray="" stroke="black" points="444.0,-12.0 432.0,-12.0 432.0,0.0 444.0,0.0" />
<polygon fill="none" stroke-width="1" stroke-dasharray="" stroke="black" points="432.0,-0.0 432.0,-12.0 444.0,-12.0 444.0,-0.0" />
<polygon fill="none" stroke-width="1" stroke-dasharray="" stroke="black" points="444.0,-12.0 444.0,-12.0 444.0,-0.0 444.0,-0.0 444.0,-12.0" />
<polygon fill="none" stroke-width="1" stroke-dasharray="" stroke="black" points="444.0,-12.0 444.0,-12.0 444.0,-0.0 444.0,-0.0 444.0,-12.0" />
<polygon fill="none" stroke-width="1" stroke-dasharray="" stroke="black" points="32.0,-0.0 20.0,-0.0 20.0,-0.0 32.0,-0.0 32.0,-0.0" />
<polygon fill="none" stroke-width="1" stroke-dasharray="" stroke="black" points="32.0,-0.0 32.0,-0.0 20.0,-0.0 20.0,-0.0 32.0,-0.0" />
<polygon fill="none" stroke-width="1" stroke-dasharray="" stroke="black" points="32.0,-0.0 32.0,-0.0 27.0,-0.0 27.0,-0.0 32.0,-0.0 32.0,-0.0 20.0,-0.0 20.0,-0.0 32.0,-0.0" />
<polygon fill="none" stroke-width="1" stroke-dasharray="" stroke="black" points="444.0,-0.0 432.0,-0.0 432.0,-0.0 444.0,-0.0 444.0,-0.0" />
<polygon fill="none" stroke-width="1" stroke-dasharray="" stroke="black" points="444.0,-0.0 444.0,-0.0 432.0,-0.0 432.0,-0.0 444.0,-0.0" />
<polygon fill="none" stroke-width="1" stroke-dasharray="" stroke="black" points="444.0,-0.0 444.0,-0.0 432.0,-0.0 432.0,-0.0 437.0,-0.0 437.0,-0.0 432.0,-0.0 432.0,-0.0 444.0,-0.0" />
<polygon fill="none" stroke-width="1" stroke-dasharray="" stroke="black" points="444.0,-0.0 432.0,-0.0 432.0,-0.0 32.0,-0.0 32.0,-0.0 20.0,-0.0 20.0,-0.0 20.0,-0.0 20.0,-0.0 32.0,-0.0 32.0,-0.0 20.0,-0.0 20.0,-0.0 32.0,-0.0 32.0,-0.0 32.0,-0.0 432.0,-0.0 432.0,-0.0 432.0,-0.0 444.0,-0.0 444.0,-0.0 432.0,-0.0 432.0,-0.0 444.0,-0.0 444.0,-0.0 444.0,-0.0" />
<polygon fill="none" stroke-width="1" stroke-dasharray="" stroke="black" points="20.0,-0.0 444.0,-0.0 444.0,-0.0 20.0,-0.0" />
</svg>
