<svg width="1600" viewBox="0.0 0.0 800.0 257.4" xmlns="http://www.w3.org/2000/svg">
<polygon fill="none" stroke-width="1" stroke-dasharray="2" stroke="gray" points="161.4,171.4 173.4,174.5 173.4,161.4 161.4,161.4 161.4,171.4" />
<polygon fill="none" stroke-width="1" stroke-dasharray="2" stroke="gray" points="161.4,196.9 161.4,201.9 173.4,205.0 173.4,193.8 161.4,196.9" />
<polygon fill="none" stroke-width="1" stroke-dasharray="2" stroke="gray" points="161.4,227.4 161.4,237.4 173.4,237.4 173.4,224.3 161.4,227.4" />
<polygon fill="none" stroke-width="1" stroke-dasharray="2" stroke="gray" points="161.4,227.4 173.4,224.3 173.4,237.4 549.4,237.4 549.4,224.3 561.4,227.4 561.4,227.4 561.4,201.9 561.4,201.9 549.4,205.0 549.4,193.8 561.4,196.9 561.4,171.4 549.4,174.5 549.4,161.4 549.4,161.4 173.4,161.4 173.4,161.4 173.4,174.5 161.4,171.4 161.4,196.9 173.4,193.8 173.4,205.0 161.4,201.9 161.4,201.9 161.4,227.4" />
<polygon fill="none" stroke-width="1" stroke-dasharray="2" stroke="gray" points="549.4,174.5 561.4,171.4 561.4,161.4 549.4,161.4 549.4,174.5" />
<polygon fill="none" stroke-width="1" stroke-dasharray="2" stroke="gray" points="549.4,193.8 549.4,205.0 561.4,201.9 561.4,196.9 549.4,193.8" />
<polygon fill="none" stroke-width="1" stroke-dasharray="2" stroke="gray" points="549.4,224.3 549.4,237.4 561.4,237.4 561.4,227.4 549.4,224.3" />
<polygon fill="none" stroke-width="1" stroke-dasharray="2" stroke="gray" points="152.9,162.9 152.9,188.4 161.4,196.9 161.4,171.4 152.9,162.9" />
<polygon fill="none" stroke-width="1" stroke-dasharray="2" stroke="gray" points="152.9,193.4 152.9,218.9 161.4,227.4 161.4,201.9 152.9,193.4" />
<polygon fill="none" stroke-width="1" stroke-dasharray="2" stroke="gray" points="161.4,171.4 173.4,174.5 164.9,166.0 152.9,162.9" />
<polygon fill="rgba(192,192,192,0.75)" stroke-width="1" stroke-dasharray="" stroke="silver" points="161.4,171.4 152.9,162.9 164.9,166.0 173.4,174.5" />
<polygon fill="rgba(255,255,255,0.75)" stroke-width="1" stroke-dasharray="" stroke="black" points="152.9,188.4 164.9,185.3 173.4,193.8 161.4,196.9" />
<polygon fill="none" stroke-width="1" stroke-dasharray="2" stroke="gray" points="173.4,193.8 164.9,185.3 152.9,188.4 161.4,196.9" />
<polygon fill="none" stroke-width="1" stroke-dasharray="2" stroke="gray" points="161.4,201.9 173.4,205.0 164.9,196.5 152.9,193.4" />
<polygon fill="rgba(192,192,192,0.75)" stroke-width="1" stroke-dasharray="" stroke="silver" points="161.4,201.9 152.9,193.4 164.9,196.5 173.4,205.0" />
<polygon fill="rgba(255,255,255,0.75)" stroke-width="1" stroke-dasharray="" stroke="black" points="152.9,218.9 164.9,215.8 173.4,224.3 161.4,227.4" />
<polygon fill="none" stroke-width="1" stroke-dasharray="2" stroke="gray" points="173.4,224.3 164.9,215.8 152.9,218.9 161.4,227.4" />
<polygon fill="none" stroke-width="1" stroke-dasharray="2" stroke="gray" points="164.9,166.1 173.4,174.5 173.4,161.4 164.9,152.9 164.9,166.1" />
<polygon fill="none" stroke-width="1" stroke-dasharray="2" stroke="gray" points="164.9,185.3 164.9,196.6 173.4,205.0 173.4,193.8 164.9,185.3" />
<polygon fill="none" stroke-width="1" stroke-dasharray="2" stroke="gray" points="164.9,215.8 164.9,228.9 173.4,237.4 173.4,224.3 164.9,215.8" />
<polygon fill="none" stroke-width="1" stroke-dasharray="2" stroke="gray" points="173.4,161.4 549.4,161.4 549.4,161.4 540.9,152.9 164.9,152.9 173.4,161.4" />
<polygon fill="rgba(192,192,192,0.75)" stroke-width="1" stroke-dasharray="" stroke="black" points="173.4,237.4 164.9,228.9 540.9,228.9 549.4,237.4 549.4,237.4 173.4,237.4" />
<polygon fill="rgba(255,255,255,0.75)" stroke-width="1" stroke-dasharray="" stroke="black" points="549.4,174.5 540.9,166.1 540.9,152.9 549.4,161.4 549.4,174.5" />
<polygon fill="rgba(255,255,255,0.75)" stroke-width="1" stroke-dasharray="" stroke="black" points="549.4,193.8 549.4,205.0 540.9,196.6 540.9,185.3 549.4,193.8" />
<polygon fill="rgba(255,255,255,0.75)" stroke-width="1" stroke-dasharray="" stroke="black" points="549.4,224.3 549.4,237.4 540.9,228.9 540.9,215.8 549.4,224.3" />
<polygon fill="rgba(255,255,255,0.75)" stroke-width="1" stroke-dasharray="" stroke="black" points="549.4,174.5 540.9,166.0 552.9,162.9 561.4,171.4" />
<polygon fill="none" stroke-width="1" stroke-dasharray="2" stroke="gray" points="552.9,162.9 540.9,166.0 549.4,174.5 561.4,171.4" />
<polygon fill="none" stroke-width="1" stroke-dasharray="2" stroke="gray" points="561.4,196.9 552.9,188.4 540.9,185.3 549.4,193.8" />
<polygon fill="rgba(192,192,192,0.75)" stroke-width="1" stroke-dasharray="" stroke="silver" points="561.4,196.9 549.4,193.8 540.9,185.3 552.9,188.4" />
<polygon fill="rgba(255,255,255,0.75)" stroke-width="1" stroke-dasharray="" stroke="black" points="549.4,205.0 540.9,196.5 552.9,193.4 561.4,201.9" />
<polygon fill="none" stroke-width="1" stroke-dasharray="2" stroke="gray" points="552.9,193.4 540.9,196.5 549.4,205.0 561.4,201.9" />
<polygon fill="none" stroke-width="1" stroke-dasharray="2" stroke="gray" points="561.4,227.4 552.9,218.9 540.9,215.8 549.4,224.3" />
<polygon fill="rgba(192,192,192,0.75)" stroke-width="1" stroke-dasharray="" stroke="silver" points="561.4,227.4 549.4,224.3 540.9,215.8 552.9,218.9" />
<polygon fill="rgba(255,255,255,0.75)" stroke-width="1" stroke-dasharray="" stroke="black" points="561.4,171.4 561.4,196.9 552.9,188.4 552.9,162.9 561.4,171.4" />
<polygon fill="rgba(255,255,255,0.75)" stroke-width="1" stroke-dasharray="" stroke="black" points="561.4,201.9 561.4,227.4 552.9,218.9 552.9,193.4 561.4,201.9" />
<polygon fill="none" stroke-width="1" stroke-dasharray="2" stroke="gray" points="152.9,162.9 152.9,188.4 164.9,185.3 164.9,166.0 152.9,162.9" />
<polygon fill="none" stroke-width="1" stroke-dasharray="2" stroke="gray" points="152.9,193.4 152.9,218.9 164.9,215.8 164.9,196.5 152.9,193.4" />
<polygon fill="rgba(255,255,255,0.75)" stroke-width="1" stroke-dasharray="" stroke="black" points="164.9,228.9 164.9,215.8 152.9,218.9 152.9,193.4 164.9,196.6 164.9,185.3 152.9,188.4 152.9,188.4 152.9,162.9 152.9,162.9 164.9,166.1 164.9,152.9 540.9,152.9 540.9,166.1 552.9,162.9 552.9,162.9 552.9,188.4 552.9,188.4 540.9,185.3 540.9,196.6 552.9,193.4 552.9,218.9 540.9,215.8 540.9,228.9 540.9,228.9 164.9,228.9" />
<polygon fill="none" stroke-width="1" stroke-dasharray="2" stroke="gray" points="540.9,166.0 540.9,185.3 552.9,188.4 552.9,162.9 540.9,166.0" />
<polygon fill="none" stroke-width="1" stroke-dasharray="2" stroke="gray" points="540.9,196.5 540.9,215.8 552.9,218.9 552.9,193.4 540.9,196.5" />
<polygon fill="none" stroke-width="1" stroke-dasharray="2" stroke="gray" points="20.0,86.0 20.0,96.0 161.4,237.4 161.4,227.4 152.9,218.9 152.9,193.4 161.4,201.9 161.4,201.9 161.4,196.9 161.4,196.9 152.9,188.4 152.9,162.9 161.4,171.4 161.4,161.4 20.0,20.0 20.0,30.0 20.0,30.0 28.5,38.5 28.5,64.0 20.0,55.5 20.0,60.5 28.5,69.0 28.5,94.5 20.0,86.0" />
<polygon fill="none" stroke-width="1" stroke-dasharray="2" stroke="gray" points="173.4,161.4 32.0,20.0 20.0,20.0 161.4,161.4" />
<polygon fill="rgba(192,192,192,0.75)" stroke-width="1" stroke-dasharray="" stroke="black" points="161.4,237.4 20.0,96.0 32.0,96.0 173.4,237.4" />
<polygon fill="rgba(255,255,255,0.75)" stroke-width="1" stroke-dasharray="" stroke="black" points="32.0,63.6 32.0,52.4 32.0,52.4 40.5,60.9 40.5,41.6 32.0,33.1 32.0,20.0 173.4,161.4 173.4,174.5 173.4,174.5 164.9,166.0 164.9,185.3 173.4,193.8 173.4,205.0 164.9,196.5 164.9,215.8 173.4,224.3 173.4,224.3 173.4,237.4 32.0,96.0 32.0,82.9 40.5,91.4 40.5,72.1 32.0,63.6" />
<polygon fill="none" stroke-width="1" stroke-dasharray="2" stroke="gray" points="549.4,205.0 549.4,193.8 549.4,193.8 540.9,185.3 540.9,166.0 549.4,174.5 549.4,161.4 408.0,20.0 408.0,33.1 408.0,33.1 416.5,41.6 416.5,60.9 408.0,52.4 408.0,63.6 416.5,72.1 416.5,91.4 408.0,82.9 408.0,82.9 408.0,96.0 549.4,237.4 549.4,224.3 540.9,215.8 540.9,196.5 549.4,205.0" />
<polygon fill="none" stroke-width="1" stroke-dasharray="2" stroke="gray" points="408.0,20.0 549.4,161.4 561.4,161.4 420.0,20.0" />
<polygon fill="rgba(192,192,192,0.75)" stroke-width="1" stroke-dasharray="" stroke="black" points="420.0,96.0 561.4,237.4 549.4,237.4 408.0,96.0" />
<polygon fill="rgba(255,255,255,0.75)" stroke-width="1" stroke-dasharray="" stroke="black" points="561.4,227.4 561.4,237.4 420.0,96.0 420.0,86.0 428.5,94.5 428.5,69.0 420.0,60.5 420.0,60.5 420.0,55.5 420.0,55.5 428.5,64.0 428.5,38.5 420.0,30.0 420.0,20.0 561.4,161.4 561.4,171.4 561.4,171.4 552.9,162.9 552.9,188.4 561.4,196.9 561.4,201.9 552.9,193.4 552.9,218.9 561.4,227.4" />
<polygon fill="rgba(255,255,255,0.75)" stroke-width="1" stroke-dasharray="" stroke="black" points="40.5,41.6 40.5,60.9 28.5,64.0 28.5,38.5 40.5,41.6" />
<polygon fill="rgba(255,255,255,0.75)" stroke-width="1" stroke-dasharray="" stroke="black" points="40.5,72.1 40.5,91.4 28.5,94.5 28.5,69.0 40.5,72.1" />
<polygon fill="none" stroke-width="1" stroke-dasharray="2" stroke="gray" points="416.5,104.5 416.5,91.4 428.5,94.5 428.5,69.0 416.5,72.1 416.5,60.9 428.5,64.0 428.5,64.0 428.5,38.5 428.5,38.5 416.5,41.6 416.5,28.5 40.5,28.5 40.5,41.6 28.5,38.5 28.5,38.5 28.5,64.0 28.5,64.0 40.5,60.9 40.5,72.1 28.5,69.0 28.5,94.5 40.5,91.4 40.5,104.5 40.5,104.5 416.5,104.5" />
<polygon fill="rgba(255,255,255,0.75)" stroke-width="1" stroke-dasharray="" stroke="black" points="428.5,38.5 428.5,64.0 416.5,60.9 416.5,41.6 428.5,38.5" />
<polygon fill="rgba(255,255,255,0.75)" stroke-width="1" stroke-dasharray="" stroke="black" points="428.5,69.0 428.5,94.5 416.5,91.4 416.5,72.1 428.5,69.0" />
<polygon fill="rgba(192,192,192,0.75)" stroke-width="1" stroke-dasharray="" stroke="silver" points="32.0,33.1 40.5,41.6 28.5,38.5 20.0,30.0" />
<polygon fill="none" stroke-width="1" stroke-dasharray="2" stroke="gray" points="20.0,55.5 28.5,64.0 40.5,60.9 32.0,52.4" />
<polygon fill="rgba(192,192,192,0.75)" stroke-width="1" stroke-dasharray="" stroke="silver" points="32.0,63.6 40.5,72.1 28.5,69.0 20.0,60.5" />
<polygon fill="none" stroke-width="1" stroke-dasharray="2" stroke="gray" points="20.0,86.0 28.5,94.5 40.5,91.4 32.0,82.9" />
<polygon fill="none" stroke-width="1" stroke-dasharray="2" stroke="gray" points="20.0,30.0 20.0,55.5 28.5,64.0 28.5,38.5 20.0,30.0" />
<polygon fill="none" stroke-width="1" stroke-dasharray="2" stroke="gray" points="20.0,60.5 20.0,86.0 28.5,94.5 28.5,69.0 20.0,60.5" />
<polygon fill="none" stroke-width="1" stroke-dasharray="2" stroke="gray" points="28.5,38.5 40.5,41.6 32.0,33.1 20.0,30.0" />
<polygon fill="rgba(255,255,255,0.75)" stroke-width="1" stroke-dasharray="" stroke="black" points="20.0,55.5 32.0,52.4 40.5,60.9 28.5,64.0" />
<polygon fill="none" stroke-width="1" stroke-dasharray="2" stroke="gray" points="28.5,69.0 40.5,72.1 32.0,63.6 20.0,60.5" />
<polygon fill="rgba(255,255,255,0.75)" stroke-width="1" stroke-dasharray="" stroke="black" points="20.0,86.0 32.0,82.9 40.5,91.4 28.5,94.5" />
<polygon fill="none" stroke-width="1" stroke-dasharray="2" stroke="gray" points="32.0,33.1 40.5,41.6 40.5,28.5 32.0,20.0 32.0,33.1" />
<polygon fill="none" stroke-width="1" stroke-dasharray="2" stroke="gray" points="32.0,52.4 32.0,63.6 40.5,72.1 40.5,60.9 32.0,52.4" />
<polygon fill="none" stroke-width="1" stroke-dasharray="2" stroke="gray" points="32.0,82.9 32.0,96.0 40.5,104.5 40.5,91.4 32.0,82.9" />
<polygon fill="none" stroke-width="1" stroke-dasharray="2" stroke="gray" points="408.0,20.0 32.0,20.0 32.0,20.0 40.5,28.5 416.5,28.5 408.0,20.0" />
<polygon fill="rgba(192,192,192,0.75)" stroke-width="1" stroke-dasharray="" stroke="black" points="408.0,96.0 416.5,104.5 40.5,104.5 32.0,96.0 32.0,96.0 408.0,96.0" />
<polygon fill="rgba(255,255,255,0.75)" stroke-width="1" stroke-dasharray="" stroke="black" points="416.5,41.6 408.0,33.1 408.0,20.0 416.5,28.5 416.5,41.6" />
<polygon fill="rgba(255,255,255,0.75)" stroke-width="1" stroke-dasharray="" stroke="black" points="416.5,60.9 416.5,72.1 408.0,63.6 408.0,52.4 416.5,60.9" />
<polygon fill="rgba(255,255,255,0.75)" stroke-width="1" stroke-dasharray="" stroke="black" points="416.5,91.4 416.5,104.5 408.0,96.0 408.0,82.9 416.5,91.4" />
<polygon fill="none" stroke-width="1" stroke-dasharray="2" stroke="gray" points="420.0,30.0 408.0,33.1 416.5,41.6 428.5,38.5" />
<polygon fill="rgba(255,255,255,0.75)" stroke-width="1" stroke-dasharray="" stroke="black" points="420.0,30.0 428.5,38.5 416.5,41.6 408.0,33.1" />
<polygon fill="rgba(192,192,192,0.75)" stroke-width="1" stroke-dasharray="" stroke="silver" points="428.5,64.0 416.5,60.9 408.0,52.4 420.0,55.5" />
<polygon fill="none" stroke-width="1" stroke-dasharray="2" stroke="gray" points="408.0,52.4 416.5,60.9 428.5,64.0 420.0,55.5" />
<polygon fill="none" stroke-width="1" stroke-dasharray="2" stroke="gray" points="420.0,60.5 408.0,63.6 416.5,72.1 428.5,69.0" />
<polygon fill="rgba(255,255,255,0.75)" stroke-width="1" stroke-dasharray="" stroke="black" points="420.0,60.5 428.5,69.0 416.5,72.1 408.0,63.6" />
<polygon fill="rgba(192,192,192,0.75)" stroke-width="1" stroke-dasharray="" stroke="silver" points="428.5,94.5 416.5,91.4 408.0,82.9 420.0,86.0" />
<polygon fill="none" stroke-width="1" stroke-dasharray="2" stroke="gray" points="408.0,82.9 416.5,91.4 428.5,94.5 420.0,86.0" />
<polygon fill="rgba(255,255,255,0.75)" stroke-width="1" stroke-dasharray="" stroke="black" points="428.5,38.5 428.5,64.0 420.0,55.5 420.0,30.0 428.5,38.5" />
<polygon fill="rgba(255,255,255,0.75)" stroke-width="1" stroke-dasharray="" stroke="black" points="428.5,69.0 428.5,94.5 420.0,86.0 420.0,60.5 428.5,69.0" />
<polygon fill="rgba(255,255,255,0.75)" stroke-width="1" stroke-dasharray="" stroke="black" points="32.0,33.1 20.0,30.0 20.0,20.0 32.0,20.0 32.0,33.1" />
<polygon fill="rgba(255,255,255,0.75)" stroke-width="1" stroke-dasharray="" stroke="black" points="32.0,52.4 32.0,63.6 20.0,60.5 20.0,55.5 32.0,52.4" />
<polygon fill="rgba(255,255,255,0.75)" stroke-width="1" stroke-dasharray="" stroke="black" points="32.0,82.9 32.0,96.0 20.0,96.0 20.0,86.0 32.0,82.9" />
<polygon fill="rgba(255,255,255,0.75)" stroke-width="1" stroke-dasharray="" stroke="black" points="420.0,30.0 408.0,33.1 408.0,20.0 420.0,20.0 420.0,30.0" />
<polygon fill="rgba(255,255,255,0.75)" stroke-width="1" stroke-dasharray="" stroke="black" points="420.0,55.5 420.0,60.5 408.0,63.6 408.0,52.4 420.0,55.5" />
<polygon fill="rgba(255,255,255,0.75)" stroke-width="1" stroke-dasharray="" stroke="black" points="420.0,86.0 420.0,96.0 408.0,96.0 408.0,82.9 420.0,86.0" />
<polygon fill="rgba(255,255,255,0.75)" stroke-width="1" stroke-dasharray="" stroke="black" points="420.0,86.0 408.0,82.9 408.0,96.0 32.0,96.0 32.0,82.9 20.0,86.0 20.0,86.0 20.0,60.5 20.0,60.5 32.0,63.6 32.0,52.4 20.0,55.5 20.0,30.0 32.0,33.1 32.0,20.0 32.0,20.0 408.0,20.0 408.0,20.0 408.0,33.1 420.0,30.0 420.0,55.5 408.0,52.4 408.0,63.6 420.0,60.5 420.0,60.5 420.0,86.0" />
</svg>
