<svg width="1600" viewBox="0 0 800 257.4213562373095" xmlns="http://www.w3.org/2000/svg">
<polygon fill="none" stroke-width="1" stroke-dasharray="2" stroke="gray" points="161.42135623730957,171.43394012128726 173.42135623730957,174.53460089456206 173.42135623730957,161.42135623730954 161.42135623730957,161.42135623730954 161.42135623730957,171.43394012128726" />
<polygon fill="none" stroke-width="1" stroke-dasharray="2" stroke="gray" points="161.42135623730957,196.9087723533318 161.42135623730957,201.93394012128726 173.42135623730957,205.03460089456206 173.42135623730957,193.80811158005702 161.42135623730957,196.9087723533318" />
<polygon fill="none" stroke-width="1" stroke-dasharray="2" stroke="gray" points="161.42135623730957,227.4087723533318 161.42135623730957,237.42135623730954 173.42135623730957,237.42135623730954 173.42135623730957,224.30811158005702 161.42135623730957,227.4087723533318" />
<polygon fill="none" stroke-width="1" stroke-dasharray="2" stroke="gray" points="161.42135623730957,227.4087723533318 173.43135623730956,224.30552769607928 173.43135623730956,237.42135623730954 549.4113562373095,237.42135623730948 549.4113562373095,224.30552769607922 561.4213562373095,227.40877235333176 561.4213562373095,227.40877235333176 561.4213562373095,201.9339401212872 561.4213562373095,201.9339401212872 549.4113562373095,205.03718477853974 549.4113562373095,193.80552769607922 561.4213562373095,196.90877235333176 561.4213562373095,171.4339401212872 549.4113562373095,174.53718477853974 549.4113562373095,161.42135623730948 549.4113562373095,161.42135623730948 173.4313562373095,161.42135623730954 173.4313562373095,161.42135623730954 173.43135623730956,174.5371847785398 161.42135623730957,171.43394012128726 161.42135623730957,196.9087723533318 173.43135623730956,193.80552769607928 173.43135623730956,205.0371847785398 161.42135623730957,201.93394012128726 161.42135623730957,201.93394012128726 161.42135623730957,227.4087723533318" />
<polygon fill="none" stroke-width="1" stroke-dasharray="2" stroke="gray" points="549.4213562373095,174.534600894562 561.4213562373095,171.4339401212872 561.4213562373095,161.42135623730948 549.4213562373095,161.42135623730948 549.4213562373095,174.534600894562" />
<polygon fill="none" stroke-width="1" stroke-dasharray="2" stroke="gray" points="549.4213562373095,193.80811158005696 549.4213562373095,205.034600894562 561.4213562373095,201.9339401212872 561.4213562373095,196.90877235333176 549.4213562373095,193.80811158005696" />
<polygon fill="none" stroke-width="1" stroke-dasharray="2" stroke="gray" points="549.4213562373095,224.30811158005696 549.4213562373095,237.42135623730948 561.4213562373095,237.42135623730948 561.4213562373095,227.40877235333176 549.4213562373095,224.30811158005696" />
<polygon fill="none" stroke-width="1" stroke-dasharray="2" stroke="gray" points="152.93607486307098,162.92607486307097 152.93607486307098,188.44607486307095 161.42135623730957,196.93135623730953 161.42135623730957,171.41135623730952 152.93607486307098,162.92607486307097" />
<polygon fill="none" stroke-width="1" stroke-dasharray="2" stroke="gray" points="152.93607486307098,193.42607486307097 152.93607486307098,218.94607486307098 161.42135623730957,227.43135623730956 161.42135623730957,201.91135623730955 152.93607486307098,193.42607486307097" />
<polygon fill="none" stroke-width="1" stroke-dasharray="2" stroke="gray" points="161.42135623730957,171.42135623730954 173.42135623730957,174.52718477853978 164.93607486307098,166.0419034043012 152.93607486307098,162.93607486307096" />
<polygon fill="rgba(192,192,192,0.75)" stroke-width="1" stroke-dasharray="" stroke="silver" points="161.42135623730957,171.42135623730954 152.93607486307098,162.93607486307096 164.93607486307098,166.0419034043012 173.42135623730957,174.52718477853978" />
<polygon fill="rgba(255,255,255,0.75)" stroke-width="1" stroke-dasharray="" stroke="black" points="152.93607486307098,188.43607486307096 164.93607486307098,185.33024632184072 173.42135623730957,193.8155276960793 161.42135623730957,196.92135623730954" />
<polygon fill="none" stroke-width="1" stroke-dasharray="2" stroke="gray" points="173.42135623730957,193.8155276960793 164.93607486307098,185.33024632184072 152.93607486307098,188.43607486307096 161.42135623730957,196.92135623730954" />
<polygon fill="none" stroke-width="1" stroke-dasharray="2" stroke="gray" points="161.42135623730957,201.92135623730954 173.42135623730957,205.02718477853978 164.93607486307098,196.5419034043012 152.93607486307098,193.43607486307096" />
<polygon fill="rgba(192,192,192,0.75)" stroke-width="1" stroke-dasharray="" stroke="silver" points="161.42135623730957,201.92135623730954 152.93607486307098,193.43607486307096 164.93607486307098,196.5419034043012 173.42135623730957,205.02718477853978" />
<polygon fill="rgba(255,255,255,0.75)" stroke-width="1" stroke-dasharray="" stroke="black" points="152.93607486307098,218.93607486307096 164.93607486307098,215.83024632184072 173.42135623730957,224.3155276960793 161.42135623730957,227.42135623730954" />
<polygon fill="none" stroke-width="1" stroke-dasharray="2" stroke="gray" points="173.42135623730957,224.3155276960793 164.93607486307098,215.83024632184072 152.93607486307098,218.93607486307096 161.42135623730957,227.42135623730954" />
<polygon fill="none" stroke-width="1" stroke-dasharray="2" stroke="gray" points="164.93607486307098,166.0519034043012 173.42135623730957,174.5371847785398 173.42135623730957,161.42135623730954 164.93607486307098,152.93607486307096 164.93607486307098,166.0519034043012" />
<polygon fill="none" stroke-width="1" stroke-dasharray="2" stroke="gray" points="164.93607486307098,185.3202463218407 164.93607486307098,196.5519034043012 173.42135623730957,205.0371847785398 173.42135623730957,193.80552769607928 164.93607486307098,185.3202463218407" />
<polygon fill="none" stroke-width="1" stroke-dasharray="2" stroke="gray" points="164.93607486307098,215.8202463218407 164.93607486307098,228.93607486307096 173.42135623730957,237.42135623730954 173.42135623730957,224.30552769607928 164.93607486307098,215.8202463218407" />
<polygon fill="none" stroke-width="1" stroke-dasharray="2" stroke="gray" points="173.43135623730961,161.42135623730954 549.4113562373095,161.42135623730948 549.4113562373095,161.42135623730948 540.926074863071,152.93607486307093 164.94607486307098,152.93607486307096 173.43135623730961,161.42135623730954" />
<polygon fill="rgba(192,192,192,0.75)" stroke-width="1" stroke-dasharray="" stroke="black" points="173.43135623730961,237.42135623730954 164.94607486307098,228.93607486307096 540.926074863071,228.93607486307093 549.4113562373095,237.42135623730948 549.4113562373095,237.42135623730948 173.43135623730961,237.42135623730954" />
<polygon fill="rgba(255,255,255,0.75)" stroke-width="1" stroke-dasharray="" stroke="black" points="549.4213562373095,174.53718477853974 540.936074863071,166.05190340430119 540.936074863071,152.93607486307093 549.4213562373095,161.42135623730948 549.4213562373095,174.53718477853974" />
<polygon fill="rgba(255,255,255,0.75)" stroke-width="1" stroke-dasharray="" stroke="black" points="549.4213562373095,193.80552769607922 549.4213562373095,205.03718477853974 540.936074863071,196.55190340430119 540.936074863071,185.32024632184067 549.4213562373095,193.80552769607922" />
<polygon fill="rgba(255,255,255,0.75)" stroke-width="1" stroke-dasharray="" stroke="black" points="549.4213562373095,224.30552769607922 549.4213562373095,237.42135623730948 540.936074863071,228.93607486307093 540.936074863071,215.82024632184067 549.4213562373095,224.30552769607922" />
<polygon fill="rgba(255,255,255,0.75)" stroke-width="1" stroke-dasharray="" stroke="black" points="549.4213562373095,174.52718477853972 540.936074863071,166.0419034043012 552.936074863071,162.93607486307093 561.4213562373095,171.42135623730948" />
<polygon fill="none" stroke-width="1" stroke-dasharray="2" stroke="gray" points="552.936074863071,162.93607486307093 540.936074863071,166.0419034043012 549.4213562373095,174.52718477853972 561.4213562373095,171.42135623730948" />
<polygon fill="none" stroke-width="1" stroke-dasharray="2" stroke="gray" points="561.4213562373095,196.92135623730948 552.936074863071,188.43607486307093 540.936074863071,185.33024632184066 549.4213562373095,193.81552769607924" />
<polygon fill="rgba(192,192,192,0.75)" stroke-width="1" stroke-dasharray="" stroke="silver" points="561.4213562373095,196.92135623730948 549.4213562373095,193.81552769607924 540.936074863071,185.33024632184066 552.936074863071,188.43607486307093" />
<polygon fill="rgba(255,255,255,0.75)" stroke-width="1" stroke-dasharray="" stroke="black" points="549.4213562373095,205.02718477853972 540.936074863071,196.5419034043012 552.936074863071,193.43607486307093 561.4213562373095,201.92135623730948" />
<polygon fill="none" stroke-width="1" stroke-dasharray="2" stroke="gray" points="552.936074863071,193.43607486307093 540.936074863071,196.5419034043012 549.4213562373095,205.02718477853972 561.4213562373095,201.92135623730948" />
<polygon fill="none" stroke-width="1" stroke-dasharray="2" stroke="gray" points="561.4213562373095,227.42135623730948 552.936074863071,218.93607486307093 540.936074863071,215.83024632184066 549.4213562373095,224.31552769607924" />
<polygon fill="rgba(192,192,192,0.75)" stroke-width="1" stroke-dasharray="" stroke="silver" points="561.4213562373095,227.42135623730948 549.4213562373095,224.31552769607924 540.936074863071,215.83024632184066 552.936074863071,218.93607486307093" />
<polygon fill="rgba(255,255,255,0.75)" stroke-width="1" stroke-dasharray="" stroke="black" points="561.4213562373095,171.4113562373095 561.4213562373095,196.93135623730947 552.936074863071,188.44607486307092 552.936074863071,162.92607486307094 561.4213562373095,171.4113562373095" />
<polygon fill="rgba(255,255,255,0.75)" stroke-width="1" stroke-dasharray="" stroke="black" points="561.4213562373095,201.9113562373095 561.4213562373095,227.4313562373095 552.936074863071,218.94607486307092 552.936074863071,193.42607486307094 561.4213562373095,201.9113562373095" />
<polygon fill="none" stroke-width="1" stroke-dasharray="2" stroke="gray" points="152.93607486307098,162.9286587470487 152.93607486307098,188.4434909790932 164.93607486307098,185.34283020581844 164.93607486307098,166.02931952032347 152.93607486307098,162.9286587470487" />
<polygon fill="none" stroke-width="1" stroke-dasharray="2" stroke="gray" points="152.93607486307098,193.42865874704867 152.93607486307098,218.9434909790932 164.93607486307098,215.84283020581842 164.93607486307098,196.52931952032347 152.93607486307098,193.42865874704867" />
<polygon fill="rgba(255,255,255,0.75)" stroke-width="1" stroke-dasharray="" stroke="black" points="164.94607486307103,228.93607486307096 164.94607486307098,215.8202463218407 152.93607486307098,218.92349097909323 152.93607486307098,193.44865874704868 164.94607486307098,196.5519034043012 164.94607486307098,185.3202463218407 152.93607486307098,188.42349097909323 152.93607486307098,188.42349097909323 152.93607486307098,162.94865874704868 152.93607486307098,162.94865874704868 164.94607486307098,166.0519034043012 164.94607486307098,152.93607486307096 540.9260748630709,152.93607486307093 540.926074863071,166.05190340430119 552.936074863071,162.94865874704865 552.936074863071,162.94865874704865 552.936074863071,188.4234909790932 552.936074863071,188.4234909790932 540.926074863071,185.32024632184067 540.926074863071,196.55190340430119 552.936074863071,193.44865874704865 552.936074863071,218.92349097909317 540.926074863071,215.82024632184067 540.9260748630709,228.93607486307093 540.9260748630709,228.93607486307093 164.94607486307103,228.93607486307096" />
<polygon fill="none" stroke-width="1" stroke-dasharray="2" stroke="gray" points="540.936074863071,166.02931952032344 540.936074863071,185.3428302058184 552.936074863071,188.44349097909318 552.936074863071,162.92865874704864 540.936074863071,166.02931952032344" />
<polygon fill="none" stroke-width="1" stroke-dasharray="2" stroke="gray" points="540.936074863071,196.52931952032344 540.936074863071,215.84283020581842 552.936074863071,218.9434909790932 552.936074863071,193.42865874704864 540.936074863071,196.52931952032344" />
<polygon fill="none" stroke-width="1" stroke-dasharray="2" stroke="gray" points="20.000000000000004,86.01000000000005 20.000000000000004,96.00000000000004 161.42135623730957,237.42135623730954 161.42135623730957,227.43135623730956 152.92900379525912,218.9390037952591 152.92900379525912,193.4190037952591 161.42135623730957,201.91135623730955 161.42135623730957,201.91135623730955 161.42135623730957,196.93135623730953 161.42135623730957,196.93135623730953 152.92900379525912,188.43900379525908 152.92900379525912,162.9190037952591 161.42135623730957,171.41135623730952 161.42135623730957,161.42135623730954 20.000000000000004,20.00000000000004 20.000000000000004,29.99000000000004 20.000000000000004,29.99000000000004 28.492352442050432,38.48235244205047 28.492352442050432,64.00235244205047 20.000000000000004,55.51000000000004 20.000000000000004,60.49000000000005 28.492352442050432,68.98235244205047 28.492352442050432,94.50235244205048 20.000000000000004,86.01000000000005" />
<polygon fill="none" stroke-width="1" stroke-dasharray="2" stroke="gray" points="173.42135623730957,161.42135623730954 32.0,20.00000000000004 20.000000000000004,20.00000000000004 161.42135623730957,161.42135623730954" />
<polygon fill="rgba(192,192,192,0.75)" stroke-width="1" stroke-dasharray="" stroke="black" points="161.42135623730957,237.42135623730954 20.000000000000004,96.00000000000004 32.0,96.00000000000004 173.42135623730957,237.42135623730954" />
<polygon fill="rgba(255,255,255,0.75)" stroke-width="1" stroke-dasharray="" stroke="black" points="32.0,63.59582854123029 32.0,52.404171458769774 32.0,52.404171458769774 40.49235244205043,60.89652390082021 40.49235244205043,41.588180983280715 32.0,33.09582854123028 32.0,20.00000000000004 173.42135623730957,161.42135623730954 173.42135623730957,174.5171847785398 173.42135623730957,174.5171847785398 164.92900379525912,166.02483233648934 164.92900379525912,185.33317525402884 173.42135623730957,193.8255276960793 173.42135623730957,205.0171847785398 164.92900379525912,196.52483233648934 164.92900379525912,215.83317525402884 173.42135623730957,224.3255276960793 173.42135623730957,224.3255276960793 173.42135623730957,237.42135623730954 32.0,96.00000000000004 32.0,82.9041714587698 40.49235244205043,91.39652390082023 40.49235244205043,72.08818098328072 32.0,63.59582854123029" />
<polygon fill="none" stroke-width="1" stroke-dasharray="2" stroke="gray" points="549.4213562373095,205.01718477853973 549.4213562373095,193.82552769607923 549.4213562373095,193.82552769607923 540.9290037952591,185.33317525402882 540.9290037952591,166.0248323364893 549.4213562373095,174.51718477853973 549.4213562373095,161.42135623730948 408.0,20.0 408.0,33.09582854123025 408.0,33.09582854123025 416.49235244205045,41.58818098328068 416.49235244205045,60.896523900820185 408.0,52.404171458769746 408.0,63.59582854123025 416.49235244205045,72.0881809832807 416.49235244205045,91.39652390082018 408.0,82.90417145876975 408.0,82.90417145876975 408.0,96.0 549.4213562373095,237.42135623730948 549.4213562373095,224.32552769607923 540.9290037952591,215.83317525402882 540.9290037952591,196.5248323364893 549.4213562373095,205.01718477853973" />
<polygon fill="none" stroke-width="1" stroke-dasharray="2" stroke="gray" points="408.0,20.0 549.4213562373095,161.42135623730948 561.4213562373095,161.42135623730948 420.0,20.0" />
<polygon fill="rgba(192,192,192,0.75)" stroke-width="1" stroke-dasharray="" stroke="black" points="420.0,96.0 561.4213562373095,237.42135623730948 549.4213562373095,237.42135623730948 408.0,96.0" />
<polygon fill="rgba(255,255,255,0.75)" stroke-width="1" stroke-dasharray="" stroke="black" points="561.4213562373095,227.4313562373095 561.4213562373095,237.42135623730948 420.0,96.0 420.0,86.01 428.49235244205045,94.50235244205044 428.49235244205045,68.98235244205044 420.0,60.49 420.0,60.49 420.0,55.51 420.0,55.51 428.49235244205045,64.00235244205044 428.49235244205045,38.48235244205044 420.0,29.989999999999995 420.0,20.0 561.4213562373095,161.42135623730948 561.4213562373095,171.4113562373095 561.4213562373095,171.4113562373095 552.9290037952591,162.91900379525907 552.9290037952591,188.43900379525905 561.4213562373095,196.93135623730947 561.4213562373095,201.9113562373095 552.9290037952591,193.41900379525907 552.9290037952591,218.93900379525905 561.4213562373095,227.4313562373095" />
<polygon fill="rgba(255,255,255,0.75)" stroke-width="1" stroke-dasharray="" stroke="black" points="40.485281374238575,41.57852603149113 40.485281374238575,60.89203671698608 28.485281374238575,63.99269749026087 28.485281374238575,38.47786525821634 40.485281374238575,41.57852603149113" />
<polygon fill="rgba(255,255,255,0.75)" stroke-width="1" stroke-dasharray="" stroke="black" points="40.485281374238575,72.07852603149112 40.485281374238575,91.39203671698608 28.485281374238575,94.4926974902609 28.485281374238575,68.97786525821634 40.485281374238575,72.07852603149112" />
<polygon fill="none" stroke-width="1" stroke-dasharray="2" stroke="gray" points="416.47528137423853,104.48528137423857 416.4752813742386,91.36945283300831 428.4852813742386,94.47269749026084 428.4852813742386,68.9978652582163 416.4752813742386,72.10110991546883 416.4752813742386,60.86945283300832 428.4852813742386,63.97269749026084 428.4852813742386,63.97269749026084 428.4852813742386,38.497865258216294 428.4852813742386,38.497865258216294 416.4752813742386,41.60110991546882 416.4752813742386,28.485281374238568 40.495281374238616,28.485281374238568 40.49528137423857,41.60110991546882 28.48528137423857,38.4978652582163 28.48528137423857,38.4978652582163 28.48528137423857,63.97269749026084 28.48528137423857,63.97269749026084 40.49528137423857,60.86945283300832 40.49528137423857,72.10110991546883 28.48528137423857,68.9978652582163 28.48528137423857,94.47269749026083 40.49528137423857,91.36945283300831 40.495281374238616,104.48528137423857 40.495281374238616,104.48528137423857 416.47528137423853,104.48528137423857" />
<polygon fill="rgba(255,255,255,0.75)" stroke-width="1" stroke-dasharray="" stroke="black" points="428.4852813742386,38.4778652582163 428.4852813742386,63.99269749026083 416.4852813742386,60.89203671698605 416.4852813742386,41.57852603149109 428.4852813742386,38.4778652582163" />
<polygon fill="rgba(255,255,255,0.75)" stroke-width="1" stroke-dasharray="" stroke="black" points="428.4852813742386,68.9778652582163 428.4852813742386,94.49269749026084 416.4852813742386,91.39203671698604 416.4852813742386,72.0785260314911 428.4852813742386,68.9778652582163" />
<polygon fill="rgba(192,192,192,0.75)" stroke-width="1" stroke-dasharray="" stroke="silver" points="32.0,33.10582854123029 40.485281374238575,41.59110991546886 28.485281374238575,38.48528137423861 20.000000000000004,30.00000000000004" />
<polygon fill="none" stroke-width="1" stroke-dasharray="2" stroke="gray" points="20.000000000000004,55.50000000000004 28.485281374238575,63.98528137423861 40.485281374238575,60.87945283300836 32.0,52.39417145876978" />
<polygon fill="rgba(192,192,192,0.75)" stroke-width="1" stroke-dasharray="" stroke="silver" points="32.0,63.60582854123029 40.485281374238575,72.09110991546886 28.485281374238575,68.98528137423861 20.000000000000004,60.50000000000004" />
<polygon fill="none" stroke-width="1" stroke-dasharray="2" stroke="gray" points="20.000000000000004,86.00000000000004 28.485281374238575,94.48528137423861 40.485281374238575,91.37945283300836 32.0,82.89417145876979" />
<polygon fill="none" stroke-width="1" stroke-dasharray="2" stroke="gray" points="20.0,29.99 20.0,55.51 28.48528137423857,63.995281374238566 28.48528137423857,38.47528137423856 20.0,29.99" />
<polygon fill="none" stroke-width="1" stroke-dasharray="2" stroke="gray" points="20.0,60.49 20.0,86.01 28.48528137423857,94.49528137423857 28.48528137423857,68.97528137423858 20.0,60.49" />
<polygon fill="none" stroke-width="1" stroke-dasharray="2" stroke="gray" points="28.48528137423857,38.48528137423857 40.48528137423857,41.59110991546882 32.0,33.10582854123025 20.0,30.0" />
<polygon fill="rgba(255,255,255,0.75)" stroke-width="1" stroke-dasharray="" stroke="black" points="20.0,55.5 32.0,52.39417145876975 40.48528137423857,60.879452833008315 28.48528137423857,63.98528137423857" />
<polygon fill="none" stroke-width="1" stroke-dasharray="2" stroke="gray" points="28.48528137423857,68.98528137423857 40.48528137423857,72.09110991546882 32.0,63.60582854123025 20.0,60.5" />
<polygon fill="rgba(255,255,255,0.75)" stroke-width="1" stroke-dasharray="" stroke="black" points="20.0,86.0 32.0,82.89417145876975 40.48528137423857,91.37945283300832 28.48528137423857,94.48528137423857" />
<polygon fill="none" stroke-width="1" stroke-dasharray="2" stroke="gray" points="32.0,33.11582854123025 40.48528137423857,41.60110991546882 40.48528137423857,28.485281374238568 32.0,20.0 32.0,33.11582854123025" />
<polygon fill="none" stroke-width="1" stroke-dasharray="2" stroke="gray" points="32.0,52.38417145876975 32.0,63.61582854123026 40.48528137423857,72.10110991546883 40.48528137423857,60.86945283300831 32.0,52.38417145876975" />
<polygon fill="none" stroke-width="1" stroke-dasharray="2" stroke="gray" points="32.0,82.88417145876974 32.0,96.0 40.48528137423857,104.48528137423857 40.48528137423857,91.36945283300831 32.0,82.88417145876974" />
<polygon fill="none" stroke-width="1" stroke-dasharray="2" stroke="gray" points="407.98999999999995,20.0 32.01,20.0 32.01,20.0 40.49528137423856,28.485281374238568 416.4752813742386,28.485281374238568 407.98999999999995,20.0" />
<polygon fill="rgba(192,192,192,0.75)" stroke-width="1" stroke-dasharray="" stroke="black" points="407.98999999999995,96.0 416.4752813742386,104.48528137423857 40.49528137423856,104.48528137423857 32.01,96.0 32.01,96.0 407.98999999999995,96.0" />
<polygon fill="rgba(255,255,255,0.75)" stroke-width="1" stroke-dasharray="" stroke="black" points="416.4852813742386,41.60110991546882 408.0,33.11582854123025 408.0,20.0 416.4852813742386,28.485281374238568 416.4852813742386,41.60110991546882" />
<polygon fill="rgba(255,255,255,0.75)" stroke-width="1" stroke-dasharray="" stroke="black" points="416.4852813742386,60.86945283300832 416.4852813742386,72.10110991546883 408.0,63.61582854123025 408.0,52.38417145876974 416.4852813742386,60.86945283300832" />
<polygon fill="rgba(255,255,255,0.75)" stroke-width="1" stroke-dasharray="" stroke="black" points="416.4852813742386,91.36945283300831 416.4852813742386,104.48528137423857 408.0,96.0 408.0,82.88417145876974 416.4852813742386,91.36945283300831" />
<polygon fill="none" stroke-width="1" stroke-dasharray="2" stroke="gray" points="420.0,30.0 408.0,33.10582854123025 416.4852813742386,41.59110991546882 428.4852813742386,38.48528137423857" />
<polygon fill="rgba(255,255,255,0.75)" stroke-width="1" stroke-dasharray="" stroke="black" points="420.0,30.0 428.4852813742386,38.48528137423857 416.4852813742386,41.59110991546882 408.0,33.10582854123025" />
<polygon fill="rgba(192,192,192,0.75)" stroke-width="1" stroke-dasharray="" stroke="silver" points="428.4852813742386,63.98528137423857 416.4852813742386,60.879452833008315 408.0,52.39417145876975 420.0,55.5" />
<polygon fill="none" stroke-width="1" stroke-dasharray="2" stroke="gray" points="408.0,52.39417145876975 416.4852813742386,60.879452833008315 428.4852813742386,63.98528137423857 420.0,55.5" />
<polygon fill="none" stroke-width="1" stroke-dasharray="2" stroke="gray" points="420.0,60.5 408.0,63.60582854123025 416.4852813742386,72.09110991546882 428.4852813742386,68.98528137423857" />
<polygon fill="rgba(255,255,255,0.75)" stroke-width="1" stroke-dasharray="" stroke="black" points="420.0,60.5 428.4852813742386,68.98528137423857 416.4852813742386,72.09110991546882 408.0,63.60582854123025" />
<polygon fill="rgba(192,192,192,0.75)" stroke-width="1" stroke-dasharray="" stroke="silver" points="428.4852813742386,94.48528137423857 416.4852813742386,91.37945283300832 408.0,82.89417145876975 420.0,86.0" />
<polygon fill="none" stroke-width="1" stroke-dasharray="2" stroke="gray" points="408.0,82.89417145876975 416.4852813742386,91.37945283300832 428.4852813742386,94.48528137423857 420.0,86.0" />
<polygon fill="rgba(255,255,255,0.75)" stroke-width="1" stroke-dasharray="" stroke="black" points="428.4852813742386,38.47528137423857 428.4852813742386,63.995281374238566 420.0,55.51 420.0,29.989999999999995 428.4852813742386,38.47528137423857" />
<polygon fill="rgba(255,255,255,0.75)" stroke-width="1" stroke-dasharray="" stroke="black" points="428.4852813742386,68.97528137423858 428.4852813742386,94.49528137423857 420.0,86.01 420.0,60.49 428.4852813742386,68.97528137423858" />
<polygon fill="rgba(255,255,255,0.75)" stroke-width="1" stroke-dasharray="" stroke="black" points="32.0,33.11324465725255 20.000000000000004,30.012583883977765 20.000000000000004,20.00000000000004 32.0,20.00000000000004 32.0,33.11324465725255" />
<polygon fill="rgba(255,255,255,0.75)" stroke-width="1" stroke-dasharray="" stroke="black" points="32.0,52.38675534274751 32.0,63.61324465725256 20.000000000000004,60.51258388397777 20.000000000000004,55.48741611602232 32.0,52.38675534274751" />
<polygon fill="rgba(255,255,255,0.75)" stroke-width="1" stroke-dasharray="" stroke="black" points="32.0,82.88675534274752 32.0,96.00000000000004 20.000000000000004,96.00000000000004 20.000000000000004,85.98741611602232 32.0,82.88675534274752" />
<polygon fill="rgba(255,255,255,0.75)" stroke-width="1" stroke-dasharray="" stroke="black" points="420.0,30.01258388397773 408.0,33.11324465725252 408.0,20.0 420.0,20.0 420.0,30.01258388397773" />
<polygon fill="rgba(255,255,255,0.75)" stroke-width="1" stroke-dasharray="" stroke="black" points="420.0,55.487416116022274 420.0,60.512583883977726 408.0,63.61324465725252 408.0,52.38675534274748 420.0,55.487416116022274" />
<polygon fill="rgba(255,255,255,0.75)" stroke-width="1" stroke-dasharray="" stroke="black" points="420.0,85.98741611602226 420.0,96.0 408.0,96.0 408.0,82.88675534274748 420.0,85.98741611602226" />
<polygon fill="rgba(255,255,255,0.75)" stroke-width="1" stroke-dasharray="" stroke="black" points="420.0,85.98741611602227 407.99,82.88417145876974 407.99,96.0 32.01,96.0 32.01,82.88417145876974 20.0,85.98741611602226 20.0,85.98741611602226 20.0,60.512583883977726 20.0,60.512583883977726 32.01,63.61582854123025 32.01,52.38417145876975 20.0,55.487416116022274 20.0,30.012583883977726 32.01,33.11582854123025 32.01,20.0 32.01,20.0 407.99000000000007,20.0 407.99000000000007,20.0 407.99,33.11582854123025 420.0,30.012583883977726 420.0,55.48741611602228 407.99,52.38417145876975 407.99,63.61582854123025 420.0,60.512583883977726 420.0,60.512583883977726 420.0,85.98741611602227" />
</svg>
