<svg width="1600" viewBox="0.0 0.0 800.0 310.4" xmlns="http://www.w3.org/2000/svg">
<polygon fill="none" stroke-width="1" stroke-dasharray="2" stroke="gray" points="178.3919189857867,208.4045028697644 190.3919189857867,211.5051636430392 190.3919189857867,178.39191898578667 178.3919189857867,178.39191898578667 178.3919189857867,208.4045028697644" />
<polygon fill="none" stroke-width="1" stroke-dasharray="2" stroke="gray" points="178.3919189857867,226.87933510180895 178.3919189857867,241.9045028697644 190.3919189857867,245.0051636430392 190.3919189857867,223.77867432853415 178.3919189857867,226.87933510180895" />
<polygon fill="none" stroke-width="1" stroke-dasharray="2" stroke="gray" points="178.3919189857867,260.3793351018089 178.3919189857867,290.3919189857867 190.3919189857867,290.3919189857867 190.3919189857867,283.3919189857867 185.3919189857867,283.3919189857867 185.3919189857867,278.3919189857867 190.3919189857867,278.3919189857867 190.3919189857867,257.2786743285342 178.3919189857867,260.3793351018089" />
<polygon fill="none" stroke-width="1" stroke-dasharray="2" stroke="gray" points="178.3919189857867,260.3793351018089 190.4019189857867,257.2760904445564 190.4019189857867,290.3919189857867 590.3819189857867,290.3919189857866 590.3819189857867,257.27609044455636 602.3919189857867,260.37933510180886 602.3919189857867,260.37933510180886 602.3919189857867,241.90450286976434 602.3919189857867,241.90450286976434 590.3819189857867,245.00774752701687 590.3819189857867,223.77609044455636 602.3919189857867,226.8793351018089 602.3919189857867,208.40450286976437 590.3819189857867,211.50774752701687 590.3819189857867,178.39191898578662 590.3819189857867,178.39191898578662 190.4019189857867,178.39191898578667 190.4019189857867,178.39191898578667 190.4019189857867,211.50774752701693 178.3919189857867,208.4045028697644 178.3919189857867,226.87933510180895 190.4019189857867,223.77609044455642 190.4019189857867,245.00774752701693 178.3919189857867,241.9045028697644 178.3919189857867,241.9045028697644 178.3919189857867,260.3793351018089" />
<polygon fill="none" stroke-width="1" stroke-dasharray="2" stroke="gray" points="590.3919189857867,211.50516364303914 602.3919189857867,208.40450286976437 602.3919189857867,178.39191898578662 590.3919189857867,178.39191898578662 590.3919189857867,211.50516364303914" />
<polygon fill="none" stroke-width="1" stroke-dasharray="2" stroke="gray" points="590.3919189857867,223.7786743285341 590.3919189857867,245.00516364303914 602.3919189857867,241.90450286976434 602.3919189857867,226.8793351018089 590.3919189857867,223.7786743285341" />
<polygon fill="none" stroke-width="1" stroke-dasharray="2" stroke="gray" points="590.3919189857867,257.27867432853407 590.3919189857867,278.3919189857866 595.3919189857867,278.3919189857866 595.3919189857867,283.3919189857866 590.3919189857867,283.3919189857866 590.3919189857867,290.3919189857866 602.3919189857867,290.3919189857866 602.3919189857867,260.3793351018089 590.3919189857867,257.27867432853407" />
<polygon fill="none" stroke-width="1" stroke-dasharray="2" stroke="gray" points="169.90663761154812,199.8966376115481 169.90663761154812,218.41663761154808 178.3919189857867,226.90191898578666 178.3919189857867,208.38191898578668 169.90663761154812,199.8966376115481" />
<polygon fill="none" stroke-width="1" stroke-dasharray="2" stroke="gray" points="169.90663761154812,233.3966376115481 169.90663761154812,251.91663761154808 178.3919189857867,260.40191898578666 178.3919189857867,241.88191898578668 169.90663761154812,233.3966376115481" />
<polygon fill="none" stroke-width="1" stroke-dasharray="2" stroke="gray" points="178.3919189857867,208.39191898578667 190.3919189857867,211.49774752701694 181.90663761154812,203.01246615277836 169.90663761154812,199.9066376115481" />
<polygon fill="rgba(192,192,192,0.75)" stroke-width="1" stroke-dasharray="" stroke="silver" points="178.3919189857867,208.39191898578667 169.90663761154812,199.9066376115481 181.90663761154812,203.01246615277836 190.3919189857867,211.49774752701694" />
<polygon fill="rgba(255,255,255,0.75)" stroke-width="1" stroke-dasharray="" stroke="black" points="169.90663761154812,218.4066376115481 181.90663761154812,215.30080907031783 190.3919189857867,223.7860904445564 178.3919189857867,226.89191898578667" />
<polygon fill="none" stroke-width="1" stroke-dasharray="2" stroke="gray" points="190.3919189857867,223.7860904445564 181.90663761154812,215.30080907031783 169.90663761154812,218.4066376115481 178.3919189857867,226.89191898578667" />
<polygon fill="none" stroke-width="1" stroke-dasharray="2" stroke="gray" points="178.3919189857867,241.89191898578667 190.3919189857867,244.99774752701694 181.90663761154812,236.51246615277836 169.90663761154812,233.4066376115481" />
<polygon fill="rgba(192,192,192,0.75)" stroke-width="1" stroke-dasharray="" stroke="silver" points="178.3919189857867,241.89191898578667 169.90663761154812,233.4066376115481 181.90663761154812,236.51246615277836 190.3919189857867,244.99774752701694" />
<polygon fill="rgba(255,255,255,0.75)" stroke-width="1" stroke-dasharray="" stroke="black" points="169.90663761154812,251.9066376115481 181.90663761154812,248.80080907031783 190.3919189857867,257.2860904445564 178.3919189857867,260.3919189857867" />
<polygon fill="none" stroke-width="1" stroke-dasharray="2" stroke="gray" points="190.3919189857867,257.2860904445564 181.90663761154812,248.80080907031783 169.90663761154812,251.9066376115481 178.3919189857867,260.3919189857867" />
<polygon fill="none" stroke-width="1" stroke-dasharray="2" stroke="gray" points="181.90663761154812,203.02246615277835 190.3919189857867,211.50774752701693 190.3919189857867,178.39191898578667 181.90663761154812,169.9066376115481 181.90663761154812,203.02246615277835" />
<polygon fill="none" stroke-width="1" stroke-dasharray="2" stroke="gray" points="181.90663761154812,215.29080907031783 181.90663761154812,236.52246615277835 190.3919189857867,245.00774752701693 190.3919189857867,223.77609044455642 181.90663761154812,215.29080907031783" />
<polygon fill="none" stroke-width="1" stroke-dasharray="2" stroke="gray" points="181.90663761154812,248.79080907031783 181.90663761154812,269.9066376115481 185.44217151748086,273.4421715174808 185.44217151748086,278.4421715174808 181.90663761154812,274.9066376115481 181.90663761154812,281.9066376115481 190.3919189857867,290.3919189857867 190.3919189857867,257.2760904445564 181.90663761154812,248.79080907031783" />
<polygon fill="none" stroke-width="1" stroke-dasharray="2" stroke="gray" points="190.40191898578664,178.39191898578667 590.3819189857867,178.39191898578662 590.3819189857867,178.39191898578662 581.896637611548,169.90663761154806 181.9166376115481,169.9066376115481 190.40191898578664,178.39191898578667" />
<polygon fill="rgba(192,192,192,0.75)" stroke-width="1" stroke-dasharray="" stroke="black" points="190.40191898578664,290.3919189857867 181.9166376115481,281.9066376115481 581.896637611548,281.90663761154804 590.3819189857867,290.3919189857866 590.3819189857867,290.3919189857866 190.40191898578664,290.3919189857867" />
<polygon fill="rgba(255,255,255,0.75)" stroke-width="1" stroke-dasharray="" stroke="black" points="590.3919189857867,211.50774752701687 581.9066376115481,203.02246615277832 581.9066376115481,169.90663761154806 590.3919189857867,178.39191898578662 590.3919189857867,211.50774752701687" />
<polygon fill="rgba(255,255,255,0.75)" stroke-width="1" stroke-dasharray="" stroke="black" points="590.3919189857867,223.77609044455636 590.3919189857867,245.00774752701687 581.9066376115481,236.52246615277832 581.9066376115481,215.2908090703178 590.3919189857867,223.77609044455636" />
<polygon fill="rgba(255,255,255,0.75)" stroke-width="1" stroke-dasharray="" stroke="black" points="590.3919189857867,257.27609044455636 590.3919189857867,290.3919189857866 581.9066376115481,281.90663761154804 581.9066376115481,274.90663761154804 585.4421715174808,278.4421715174808 585.4421715174808,273.4421715174808 581.9066376115481,269.90663761154804 581.9066376115481,248.7908090703178 590.3919189857867,257.27609044455636" />
<polygon fill="rgba(255,255,255,0.75)" stroke-width="1" stroke-dasharray="" stroke="black" points="590.3919189857867,211.49774752701688 581.9066376115481,203.0124661527783 593.9066376115481,199.90663761154806 602.3919189857867,208.39191898578662" />
<polygon fill="none" stroke-width="1" stroke-dasharray="2" stroke="gray" points="593.9066376115481,199.90663761154806 581.9066376115481,203.0124661527783 590.3919189857867,211.49774752701688 602.3919189857867,208.39191898578662" />
<polygon fill="none" stroke-width="1" stroke-dasharray="2" stroke="gray" points="602.3919189857867,226.89191898578662 593.9066376115481,218.40663761154806 581.9066376115481,215.30080907031783 590.3919189857867,223.78609044455635" />
<polygon fill="rgba(192,192,192,0.75)" stroke-width="1" stroke-dasharray="" stroke="silver" points="602.3919189857867,226.89191898578662 590.3919189857867,223.78609044455635 581.9066376115481,215.30080907031783 593.9066376115481,218.40663761154806" />
<polygon fill="rgba(255,255,255,0.75)" stroke-width="1" stroke-dasharray="" stroke="black" points="590.3919189857867,244.99774752701688 581.9066376115481,236.5124661527783 593.9066376115481,233.40663761154806 602.3919189857867,241.89191898578662" />
<polygon fill="none" stroke-width="1" stroke-dasharray="2" stroke="gray" points="593.9066376115481,233.40663761154806 581.9066376115481,236.5124661527783 590.3919189857867,244.99774752701688 602.3919189857867,241.89191898578662" />
<polygon fill="none" stroke-width="1" stroke-dasharray="2" stroke="gray" points="602.3919189857867,260.3919189857866 593.9066376115481,251.90663761154806 581.9066376115481,248.80080907031783 590.3919189857867,257.28609044455635" />
<polygon fill="rgba(192,192,192,0.75)" stroke-width="1" stroke-dasharray="" stroke="silver" points="602.3919189857867,260.3919189857866 590.3919189857867,257.28609044455635 581.9066376115481,248.80080907031783 593.9066376115481,251.90663761154806" />
<polygon fill="rgba(255,255,255,0.75)" stroke-width="1" stroke-dasharray="" stroke="black" points="602.3919189857867,208.38191898578663 602.3919189857867,226.9019189857866 593.9066376115481,218.41663761154805 593.9066376115481,199.89663761154804 602.3919189857867,208.38191898578663" />
<polygon fill="rgba(255,255,255,0.75)" stroke-width="1" stroke-dasharray="" stroke="black" points="602.3919189857867,241.88191898578663 602.3919189857867,260.4019189857866 593.9066376115481,251.91663761154808 593.9066376115481,233.39663761154807 602.3919189857867,241.88191898578663" />
<polygon fill="rgba(192,192,192,0.75)" stroke-width="1" stroke-dasharray="" stroke="black" points="185.4521715174808,273.4421715174808 181.9166376115481,269.9066376115481 581.896637611548,269.90663761154804 585.4321715174808,273.4421715174808 585.4321715174808,273.4421715174808 185.4521715174808,273.4421715174808" />
<polygon fill="none" stroke-width="1" stroke-dasharray="2" stroke="gray" points="185.4521715174808,278.4421715174808 585.4321715174808,278.4421715174808 585.4321715174808,278.4421715174808 581.896637611548,274.90663761154804 181.9166376115481,274.9066376115481 185.4521715174808,278.4421715174808" />
<polygon fill="none" stroke-width="1" stroke-dasharray="2" stroke="gray" points="169.90663761154812,199.8992214955258 169.90663761154812,218.41405372757038 181.90663761154812,215.31339295429558 181.90663761154812,202.9998822688006 169.90663761154812,199.8992214955258" />
<polygon fill="none" stroke-width="1" stroke-dasharray="2" stroke="gray" points="169.90663761154812,233.3992214955258 169.90663761154812,251.91405372757038 181.90663761154812,248.81339295429558 181.90663761154812,236.4998822688006 169.90663761154812,233.3992214955258" />
<polygon fill="rgba(255,255,255,0.75)" stroke-width="1" stroke-dasharray="" stroke="black" points="181.9166376115481,269.9066376115481 181.9166376115481,248.79080907031783 169.90663761154812,251.89405372757037 169.90663761154812,233.41922149552582 181.9166376115481,236.52246615277835 181.9166376115481,215.29080907031783 169.90663761154812,218.39405372757037 169.90663761154812,218.39405372757037 169.90663761154812,199.91922149552585 169.90663761154812,199.91922149552585 181.9166376115481,203.02246615277835 181.9166376115481,169.9066376115481 581.8966376115482,169.90663761154806 581.8966376115482,203.02246615277832 593.9066376115481,199.9192214955258 593.9066376115481,199.9192214955258 593.9066376115481,218.39405372757034 593.9066376115481,218.39405372757034 581.8966376115482,215.2908090703178 581.8966376115482,236.52246615277832 593.9066376115481,233.4192214955258 593.9066376115481,251.89405372757034 581.8966376115482,248.7908090703178 581.8966376115482,269.90663761154804 581.8966376115482,269.90663761154804 181.9166376115481,269.9066376115481" />
<polygon fill="none" stroke-width="1" stroke-dasharray="2" stroke="gray" points="581.9066376115481,202.9998822688006 581.9066376115481,215.31339295429555 593.9066376115481,218.41405372757032 593.9066376115481,199.89922149552578 581.9066376115481,202.9998822688006" />
<polygon fill="none" stroke-width="1" stroke-dasharray="2" stroke="gray" points="581.9066376115481,236.49988226880058 581.9066376115481,248.81339295429555 593.9066376115481,251.91405372757035 593.9066376115481,233.3992214955258 581.9066376115481,236.49988226880058" />
<polygon fill="none" stroke-width="1" stroke-dasharray="2" stroke="gray" points="19.999999999999996,102.01000000000005 19.999999999999996,132.00000000000003 178.3919189857867,290.3919189857867 178.3919189857867,260.40191898578666 169.89956654373626,251.90956654373628 169.89956654373626,233.38956654373627 178.3919189857867,241.88191898578668 178.3919189857867,241.88191898578668 178.3919189857867,226.90191898578666 178.3919189857867,226.90191898578666 169.89956654373626,218.40956654373625 169.89956654373626,199.88956654373624 178.3919189857867,208.38191898578668 178.3919189857867,178.39191898578667 19.999999999999996,20.00000000000004 19.999999999999996,49.99000000000004 19.999999999999996,49.99000000000004 28.492352442050432,58.48235244205046 28.492352442050432,77.00235244205047 19.999999999999996,68.51000000000003 19.999999999999996,83.49000000000005 28.492352442050432,91.98235244205048 28.492352442050432,110.50235244205048 19.999999999999996,102.01000000000005" />
<polygon fill="none" stroke-width="1" stroke-dasharray="2" stroke="gray" points="190.3919189857867,178.39191898578667 31.999999999999996,20.00000000000004 19.999999999999996,20.00000000000004 178.3919189857867,178.39191898578667" />
<polygon fill="rgba(192,192,192,0.75)" stroke-width="1" stroke-dasharray="" stroke="black" points="178.3919189857867,290.3919189857867 19.999999999999996,132.00000000000003 31.999999999999996,132.00000000000003 190.3919189857867,290.3919189857867" />
<polygon fill="rgba(192,192,192,0.75)" stroke-width="1" stroke-dasharray="" stroke="black" points="185.3919189857867,278.3919189857867 26.999999999999996,120.00000000000004 31.999999999999996,120.00000000000004 190.3919189857867,278.3919189857867" />
<polygon fill="none" stroke-width="1" stroke-dasharray="2" stroke="gray" points="190.3919189857867,283.3919189857867 31.999999999999996,125.00000000000004 26.999999999999996,125.00000000000004 185.3919189857867,283.3919189857867" />
<polygon fill="rgba(255,255,255,0.75)" stroke-width="1" stroke-dasharray="" stroke="black" points="31.999999999999996,86.59582854123029 31.999999999999996,65.40417145876978 31.999999999999996,65.40417145876978 40.49235244205043,73.89652390082023 40.49235244205043,61.58818098328072 31.999999999999996,53.09582854123028 31.999999999999996,20.00000000000004 190.3919189857867,178.39191898578667 190.3919189857867,211.48774752701692 190.3919189857867,211.48774752701692 181.89956654373626,202.9953950849665 181.89956654373626,215.303738002506 190.3919189857867,223.7960904445564 190.3919189857867,244.98774752701692 181.89956654373626,236.4953950849665 181.89956654373626,248.803738002506 190.3919189857867,257.2960904445564 190.3919189857867,257.2960904445564 190.3919189857867,278.3919189857867 31.999999999999996,120.00000000000004 31.999999999999996,98.9041714587698 40.49235244205043,107.39652390082023 40.49235244205043,95.08818098328072 31.999999999999996,86.59582854123029" />
<polygon fill="none" stroke-width="1" stroke-dasharray="2" stroke="gray" points="590.3919189857867,244.98774752701686 590.3919189857867,223.79609044455634 590.3919189857867,223.79609044455634 581.8995665437362,215.30373800250595 581.8995665437362,202.99539508496645 590.3919189857867,211.48774752701686 590.3919189857867,178.39191898578662 432.0,20.0 432.0,53.095828541230254 432.0,53.095828541230254 440.49235244205045,61.588180983280694 440.49235244205045,73.89652390082018 432.0,65.40417145876974 432.0,86.59582854123025 440.49235244205045,95.08818098328068 440.49235244205045,107.39652390082018 432.0,98.90417145876975 432.0,98.90417145876975 432.0,120.0 590.3919189857867,278.3919189857866 590.3919189857867,257.2960904445564 581.8995665437362,248.80373800250595 581.8995665437362,236.49539508496645 590.3919189857867,244.98774752701686" />
<polygon fill="rgba(192,192,192,0.75)" stroke-width="1" stroke-dasharray="" stroke="black" points="437.0,120.0 595.3919189857867,278.3919189857866 590.3919189857867,278.3919189857866 432.0,120.0" />
<polygon fill="none" stroke-width="1" stroke-dasharray="2" stroke="gray" points="432.0,125.0 590.3919189857867,283.3919189857866 595.3919189857867,283.3919189857866 437.0,125.0" />
<polygon fill="none" stroke-width="1" stroke-dasharray="2" stroke="gray" points="432.0,20.0 590.3919189857867,178.39191898578662 602.3919189857867,178.39191898578662 444.0,20.0" />
<polygon fill="rgba(192,192,192,0.75)" stroke-width="1" stroke-dasharray="" stroke="black" points="444.0,132.0 602.3919189857867,290.3919189857866 590.3919189857867,290.3919189857866 432.0,132.0" />
<polygon fill="rgba(255,255,255,0.75)" stroke-width="1" stroke-dasharray="" stroke="black" points="602.3919189857867,260.4019189857866 602.3919189857867,290.3919189857866 444.0,132.0 444.0,102.01 452.49235244205045,110.50235244205044 452.49235244205045,91.98235244205044 444.0,83.49000000000001 444.0,83.49000000000001 444.0,68.50999999999999 444.0,68.50999999999999 452.49235244205045,77.00235244205042 452.49235244205045,58.48235244205043 444.0,49.989999999999995 444.0,20.0 602.3919189857867,178.39191898578662 602.3919189857867,208.38191898578663 602.3919189857867,208.38191898578663 593.8995665437362,199.88956654373618 593.8995665437362,218.4095665437362 602.3919189857867,226.9019189857866 602.3919189857867,241.88191898578663 593.8995665437362,233.3895665437362 593.8995665437362,251.90956654373622 602.3919189857867,260.4019189857866" />
<polygon fill="rgba(255,255,255,0.75)" stroke-width="1" stroke-dasharray="" stroke="black" points="40.48528137423857,61.57852603149114 40.48528137423857,73.8920367169861 28.48528137423857,76.99269749026088 28.48528137423857,58.477865258216326 40.48528137423857,61.57852603149114" />
<polygon fill="rgba(255,255,255,0.75)" stroke-width="1" stroke-dasharray="" stroke="black" points="40.48528137423857,95.07852603149112 40.48528137423857,107.3920367169861 28.48528137423857,110.4926974902609 28.48528137423857,91.97786525821634 40.48528137423857,95.07852603149112" />
<polygon fill="none" stroke-width="1" stroke-dasharray="2" stroke="gray" points="440.4752813742386,128.48528137423858 440.4752813742386,107.36945283300831 452.4852813742386,110.47269749026084 452.4852813742386,91.9978652582163 440.4752813742386,95.10110991546883 440.4752813742386,73.86945283300831 452.4852813742386,76.97269749026084 452.4852813742386,76.97269749026084 452.4852813742386,58.49786525821631 452.4852813742386,58.49786525821631 440.4752813742386,61.60110991546882 440.4752813742386,28.485281374238568 40.49528137423856,28.485281374238568 40.49528137423857,61.60110991546882 28.48528137423857,58.497865258216294 28.48528137423857,58.497865258216294 28.48528137423857,76.97269749026084 28.48528137423857,76.97269749026084 40.49528137423857,73.86945283300831 40.49528137423857,95.10110991546883 28.48528137423857,91.9978652582163 28.48528137423857,110.47269749026083 40.49528137423857,107.36945283300831 40.49528137423856,128.48528137423858 40.49528137423856,128.48528137423858 440.4752813742386,128.48528137423858" />
<polygon fill="rgba(255,255,255,0.75)" stroke-width="1" stroke-dasharray="" stroke="black" points="452.4852813742386,58.4778652582163 452.4852813742386,76.99269749026084 440.4852813742386,73.89203671698604 440.4852813742386,61.57852603149108 452.4852813742386,58.4778652582163" />
<polygon fill="rgba(255,255,255,0.75)" stroke-width="1" stroke-dasharray="" stroke="black" points="452.4852813742386,91.9778652582163 452.4852813742386,110.49269749026085 440.4852813742386,107.39203671698606 440.4852813742386,95.07852603149108 452.4852813742386,91.9778652582163" />
<polygon fill="rgba(192,192,192,0.75)" stroke-width="1" stroke-dasharray="" stroke="black" points="436.9397474683059,124.94974746830583 440.4752813742386,128.48528137423858 40.495281374238616,128.48528137423858 36.95974746830583,124.94974746830583 36.95974746830583,124.94974746830583 436.9397474683059,124.94974746830583" />
<polygon fill="none" stroke-width="1" stroke-dasharray="2" stroke="gray" points="436.9397474683059,129.94974746830584 36.95974746830583,129.94974746830584 36.95974746830583,129.94974746830584 40.495281374238616,133.48528137423858 440.4752813742386,133.48528137423858 436.9397474683059,129.94974746830584" />
<polygon fill="rgba(192,192,192,0.75)" stroke-width="1" stroke-dasharray="" stroke="silver" points="31.999999999999996,53.10582854123029 40.48528137423857,61.59110991546886 28.48528137423857,58.48528137423861 19.999999999999996,50.00000000000004" />
<polygon fill="none" stroke-width="1" stroke-dasharray="2" stroke="gray" points="19.999999999999996,68.50000000000004 28.48528137423857,76.98528137423861 40.48528137423857,73.87945283300836 31.999999999999996,65.39417145876979" />
<polygon fill="rgba(192,192,192,0.75)" stroke-width="1" stroke-dasharray="" stroke="silver" points="31.999999999999996,86.6058285412303 40.48528137423857,95.09110991546886 28.48528137423857,91.98528137423861 19.999999999999996,83.50000000000004" />
<polygon fill="none" stroke-width="1" stroke-dasharray="2" stroke="gray" points="19.999999999999996,102.00000000000004 28.48528137423857,110.48528137423861 40.48528137423857,107.37945283300836 31.999999999999996,98.89417145876979" />
<polygon fill="none" stroke-width="1" stroke-dasharray="2" stroke="gray" points="20.0,49.989999999999995 20.0,68.50999999999999 28.48528137423857,76.99528137423856 28.48528137423857,58.47528137423856 20.0,49.989999999999995" />
<polygon fill="none" stroke-width="1" stroke-dasharray="2" stroke="gray" points="20.0,83.49000000000001 20.0,102.01 28.48528137423857,110.49528137423857 28.48528137423857,91.97528137423858 20.0,83.49000000000001" />
<polygon fill="none" stroke-width="1" stroke-dasharray="2" stroke="gray" points="28.48528137423857,58.48528137423857 40.48528137423857,61.59110991546882 32.0,53.10582854123025 20.0,50.0" />
<polygon fill="rgba(255,255,255,0.75)" stroke-width="1" stroke-dasharray="" stroke="black" points="20.0,68.5 32.0,65.39417145876975 40.48528137423857,73.87945283300832 28.48528137423857,76.98528137423857" />
<polygon fill="none" stroke-width="1" stroke-dasharray="2" stroke="gray" points="28.48528137423857,91.98528137423857 40.48528137423857,95.09110991546882 32.0,86.60582854123025 20.0,83.5" />
<polygon fill="rgba(255,255,255,0.75)" stroke-width="1" stroke-dasharray="" stroke="black" points="20.0,102.0 32.0,98.89417145876975 40.48528137423857,107.37945283300832 28.48528137423857,110.48528137423857" />
<polygon fill="none" stroke-width="1" stroke-dasharray="2" stroke="gray" points="32.0,53.11582854123024 40.48528137423857,61.601109915468825 40.48528137423857,28.485281374238568 32.0,20.0 32.0,53.11582854123024" />
<polygon fill="none" stroke-width="1" stroke-dasharray="2" stroke="gray" points="32.0,65.38417145876974 32.0,86.61582854123026 40.48528137423857,95.10110991546883 40.48528137423857,73.86945283300831 32.0,65.38417145876974" />
<polygon fill="none" stroke-width="1" stroke-dasharray="2" stroke="gray" points="32.0,98.88417145876974 32.0,132.0 40.48528137423857,140.48528137423858 40.48528137423857,133.48528137423858 36.94974746830583,129.94974746830584 36.94974746830583,124.94974746830583 40.48528137423857,128.48528137423858 40.48528137423857,107.36945283300831 32.0,98.88417145876974" />
<polygon fill="none" stroke-width="1" stroke-dasharray="2" stroke="gray" points="431.99000000000007,20.0 32.01,20.0 32.01,20.0 40.495281374238616,28.485281374238568 440.4752813742386,28.485281374238568 431.99000000000007,20.0" />
<polygon fill="rgba(192,192,192,0.75)" stroke-width="1" stroke-dasharray="" stroke="black" points="431.99000000000007,132.0 440.4752813742386,140.48528137423858 40.495281374238616,140.48528137423858 32.01,132.0 32.01,132.0 431.99000000000007,132.0" />
<polygon fill="rgba(255,255,255,0.75)" stroke-width="1" stroke-dasharray="" stroke="black" points="440.4852813742386,61.60110991546881 432.0,53.11582854123026 432.0,20.0 440.4852813742386,28.485281374238568 440.4852813742386,61.60110991546881" />
<polygon fill="rgba(255,255,255,0.75)" stroke-width="1" stroke-dasharray="" stroke="black" points="440.4852813742386,73.86945283300831 440.4852813742386,95.10110991546881 432.0,86.61582854123026 432.0,65.38417145876974 440.4852813742386,73.86945283300831" />
<polygon fill="rgba(255,255,255,0.75)" stroke-width="1" stroke-dasharray="" stroke="black" points="440.4852813742386,107.36945283300831 440.4852813742386,128.48528137423858 436.9497474683058,124.94974746830583 436.9497474683058,129.94974746830584 440.4852813742386,133.48528137423858 440.4852813742386,140.48528137423858 432.0,132.0 432.0,98.88417145876974 440.4852813742386,107.36945283300831" />
<polygon fill="none" stroke-width="1" stroke-dasharray="2" stroke="gray" points="444.0,50.0 432.0,53.10582854123025 440.4852813742386,61.59110991546882 452.4852813742386,58.48528137423857" />
<polygon fill="rgba(255,255,255,0.75)" stroke-width="1" stroke-dasharray="" stroke="black" points="444.0,50.0 452.4852813742386,58.48528137423857 440.4852813742386,61.59110991546882 432.0,53.10582854123025" />
<polygon fill="rgba(192,192,192,0.75)" stroke-width="1" stroke-dasharray="" stroke="silver" points="452.4852813742386,76.98528137423857 440.4852813742386,73.87945283300832 432.0,65.39417145876975 444.0,68.5" />
<polygon fill="none" stroke-width="1" stroke-dasharray="2" stroke="gray" points="432.0,65.39417145876975 440.4852813742386,73.87945283300832 452.4852813742386,76.98528137423857 444.0,68.5" />
<polygon fill="none" stroke-width="1" stroke-dasharray="2" stroke="gray" points="444.0,83.5 432.0,86.60582854123025 440.4852813742386,95.09110991546882 452.4852813742386,91.98528137423857" />
<polygon fill="rgba(255,255,255,0.75)" stroke-width="1" stroke-dasharray="" stroke="black" points="444.0,83.5 452.4852813742386,91.98528137423857 440.4852813742386,95.09110991546882 432.0,86.60582854123025" />
<polygon fill="rgba(192,192,192,0.75)" stroke-width="1" stroke-dasharray="" stroke="silver" points="452.4852813742386,110.48528137423857 440.4852813742386,107.37945283300832 432.0,98.89417145876975 444.0,102.0" />
<polygon fill="none" stroke-width="1" stroke-dasharray="2" stroke="gray" points="432.0,98.89417145876975 440.4852813742386,107.37945283300832 452.4852813742386,110.48528137423857 444.0,102.0" />
<polygon fill="rgba(255,255,255,0.75)" stroke-width="1" stroke-dasharray="" stroke="black" points="452.4852813742386,58.47528137423856 452.4852813742386,76.99528137423856 444.0,68.50999999999999 444.0,49.989999999999995 452.4852813742386,58.47528137423856" />
<polygon fill="rgba(255,255,255,0.75)" stroke-width="1" stroke-dasharray="" stroke="black" points="452.4852813742386,91.97528137423858 452.4852813742386,110.49528137423857 444.0,102.01 444.0,83.49000000000001 452.4852813742386,91.97528137423858" />
<polygon fill="rgba(255,255,255,0.75)" stroke-width="1" stroke-dasharray="" stroke="black" points="31.999999999999996,53.11324465725255 19.999999999999996,50.01258388397778 19.999999999999996,20.00000000000004 31.999999999999996,20.00000000000004 31.999999999999996,53.11324465725255" />
<polygon fill="rgba(255,255,255,0.75)" stroke-width="1" stroke-dasharray="" stroke="black" points="31.999999999999996,65.38675534274752 31.999999999999996,86.61324465725257 19.999999999999996,83.51258388397777 19.999999999999996,68.48741611602232 31.999999999999996,65.38675534274752" />
<polygon fill="rgba(255,255,255,0.75)" stroke-width="1" stroke-dasharray="" stroke="black" points="31.999999999999996,98.88675534274752 31.999999999999996,120.00000000000004 26.999999999999996,120.00000000000004 26.999999999999996,125.00000000000004 31.999999999999996,125.00000000000004 31.999999999999996,132.00000000000003 19.999999999999996,132.00000000000003 19.999999999999996,101.98741611602232 31.999999999999996,98.88675534274752" />
<polygon fill="rgba(255,255,255,0.75)" stroke-width="1" stroke-dasharray="" stroke="black" points="444.0,50.012583883977726 432.0,53.11324465725252 432.0,20.0 444.0,20.0 444.0,50.012583883977726" />
<polygon fill="rgba(255,255,255,0.75)" stroke-width="1" stroke-dasharray="" stroke="black" points="444.0,68.48741611602227 444.0,83.51258388397773 432.0,86.61324465725252 432.0,65.38675534274748 444.0,68.48741611602227" />
<polygon fill="rgba(255,255,255,0.75)" stroke-width="1" stroke-dasharray="" stroke="black" points="444.0,101.98741611602226 444.0,132.0 432.0,132.0 432.0,125.0 437.0,125.0 437.0,120.0 432.0,120.0 432.0,98.88675534274748 444.0,101.98741611602226" />
<polygon fill="rgba(255,255,255,0.75)" stroke-width="1" stroke-dasharray="" stroke="black" points="444.0,101.98741611602227 431.99,98.88417145876974 431.99,132.0 32.01,132.0 32.01,98.88417145876974 20.0,101.98741611602226 20.0,101.98741611602226 20.0,83.51258388397773 20.0,83.51258388397773 32.01,86.61582854123026 32.01,65.38417145876974 20.0,68.48741611602227 20.0,50.01258388397774 32.01,53.11582854123025 32.01,20.0 32.01,20.0 431.99,20.0 431.99,20.0 431.99,53.11582854123025 444.0,50.012583883977726 444.0,68.48741611602227 431.99,65.38417145876974 431.99,86.61582854123026 444.0,83.51258388397773 444.0,83.51258388397773 444.0,101.98741611602227" />
</svg>
