<svg width="1600" viewBox="0.0 -35.5 800.0 325.9" xmlns="http://www.w3.org/2000/svg">
<polygon fill="none" stroke-width="1" stroke-dasharray="2" stroke="gray" points="178.4,208.4 190.4,211.5 190.4,178.4 178.4,178.4 178.4,208.4" />
<polygon fill="none" stroke-width="1" stroke-dasharray="2" stroke="gray" points="178.4,226.9 178.4,241.9 190.4,245.0 190.4,223.8 178.4,226.9" />
<polygon fill="none" stroke-width="1" stroke-dasharray="2" stroke="gray" points="178.4,260.4 178.4,290.4 190.4,290.4 190.4,283.4 185.4,283.4 185.4,278.4 190.4,278.4 190.4,257.3 178.4,260.4" />
<polygon fill="none" stroke-width="1" stroke-dasharray="2" stroke="gray" points="178.4,260.4 190.4,257.3 190.4,290.4 590.4,290.4 590.4,257.3 602.4,260.4 602.4,260.4 602.4,241.9 602.4,241.9 590.4,245.0 590.4,223.8 602.4,226.9 602.4,208.4 590.4,211.5 590.4,178.4 590.4,178.4 190.4,178.4 190.4,178.4 190.4,211.5 178.4,208.4 178.4,226.9 190.4,223.8 190.4,245.0 178.4,241.9 178.4,241.9 178.4,260.4" />
<polygon fill="none" stroke-width="1" stroke-dasharray="2" stroke="gray" points="590.4,211.5 602.4,208.4 602.4,178.4 590.4,178.4 590.4,211.5" />
<polygon fill="none" stroke-width="1" stroke-dasharray="2" stroke="gray" points="590.4,223.8 590.4,245.0 602.4,241.9 602.4,226.9 590.4,223.8" />
<polygon fill="none" stroke-width="1" stroke-dasharray="2" stroke="gray" points="590.4,257.3 590.4,278.4 595.4,278.4 595.4,283.4 590.4,283.4 590.4,290.4 602.4,290.4 602.4,260.4 590.4,257.3" />
<polygon fill="none" stroke-width="1" stroke-dasharray="2" stroke="gray" points="169.9,199.9 169.9,218.4 178.4,226.9 178.4,208.4 169.9,199.9" />
<polygon fill="none" stroke-width="1" stroke-dasharray="2" stroke="gray" points="169.9,233.4 169.9,251.9 178.4,260.4 178.4,241.9 169.9,233.4" />
<polygon fill="none" stroke-width="1" stroke-dasharray="2" stroke="gray" points="178.4,208.4 190.4,211.5 181.9,203.0 169.9,199.9" />
<polygon fill="rgba(192,192,192,0.75)" stroke-width="1" stroke-dasharray="" stroke="silver" points="178.4,208.4 169.9,199.9 181.9,203.0 190.4,211.5" />
<polygon fill="rgba(255,255,255,0.75)" stroke-width="1" stroke-dasharray="" stroke="black" points="169.9,218.4 181.9,215.3 190.4,223.8 178.4,226.9" />
<polygon fill="none" stroke-width="1" stroke-dasharray="2" stroke="gray" points="190.4,223.8 181.9,215.3 169.9,218.4 178.4,226.9" />
<polygon fill="none" stroke-width="1" stroke-dasharray="2" stroke="gray" points="178.4,241.9 190.4,245.0 181.9,236.5 169.9,233.4" />
<polygon fill="rgba(192,192,192,0.75)" stroke-width="1" stroke-dasharray="" stroke="silver" points="178.4,241.9 169.9,233.4 181.9,236.5 190.4,245.0" />
<polygon fill="rgba(255,255,255,0.75)" stroke-width="1" stroke-dasharray="" stroke="black" points="169.9,251.9 181.9,248.8 190.4,257.3 178.4,260.4" />
<polygon fill="none" stroke-width="1" stroke-dasharray="2" stroke="gray" points="190.4,257.3 181.9,248.8 169.9,251.9 178.4,260.4" />
<polygon fill="none" stroke-width="1" stroke-dasharray="2" stroke="gray" points="181.9,203.0 190.4,211.5 190.4,178.4 181.9,169.9 181.9,203.0" />
<polygon fill="none" stroke-width="1" stroke-dasharray="2" stroke="gray" points="181.9,215.3 181.9,236.5 190.4,245.0 190.4,223.8 181.9,215.3" />
<polygon fill="none" stroke-width="1" stroke-dasharray="2" stroke="gray" points="181.9,248.8 181.9,269.9 185.4,273.4 185.4,278.4 181.9,274.9 181.9,281.9 190.4,290.4 190.4,257.3 181.9,248.8" />
<polygon fill="none" stroke-width="1" stroke-dasharray="2" stroke="gray" points="190.4,178.4 590.4,178.4 590.4,178.4 581.9,169.9 181.9,169.9 190.4,178.4" />
<polygon fill="rgba(192,192,192,0.75)" stroke-width="1" stroke-dasharray="" stroke="black" points="190.4,290.4 181.9,281.9 581.9,281.9 590.4,290.4 590.4,290.4 190.4,290.4" />
<polygon fill="rgba(255,255,255,0.75)" stroke-width="1" stroke-dasharray="" stroke="black" points="590.4,211.5 581.9,203.0 581.9,169.9 590.4,178.4 590.4,211.5" />
<polygon fill="rgba(255,255,255,0.75)" stroke-width="1" stroke-dasharray="" stroke="black" points="590.4,223.8 590.4,245.0 581.9,236.5 581.9,215.3 590.4,223.8" />
<polygon fill="rgba(255,255,255,0.75)" stroke-width="1" stroke-dasharray="" stroke="black" points="590.4,257.3 590.4,290.4 581.9,281.9 581.9,274.9 585.4,278.4 585.4,273.4 581.9,269.9 581.9,248.8 590.4,257.3" />
<polygon fill="rgba(255,255,255,0.75)" stroke-width="1" stroke-dasharray="" stroke="black" points="590.4,211.5 581.9,203.0 593.9,199.9 602.4,208.4" />
<polygon fill="none" stroke-width="1" stroke-dasharray="2" stroke="gray" points="593.9,199.9 581.9,203.0 590.4,211.5 602.4,208.4" />
<polygon fill="none" stroke-width="1" stroke-dasharray="2" stroke="gray" points="602.4,226.9 593.9,218.4 581.9,215.3 590.4,223.8" />
<polygon fill="rgba(192,192,192,0.75)" stroke-width="1" stroke-dasharray="" stroke="silver" points="602.4,226.9 590.4,223.8 581.9,215.3 593.9,218.4" />
<polygon fill="rgba(255,255,255,0.75)" stroke-width="1" stroke-dasharray="" stroke="black" points="590.4,245.0 581.9,236.5 593.9,233.4 602.4,241.9" />
<polygon fill="none" stroke-width="1" stroke-dasharray="2" stroke="gray" points="593.9,233.4 581.9,236.5 590.4,245.0 602.4,241.9" />
<polygon fill="none" stroke-width="1" stroke-dasharray="2" stroke="gray" points="602.4,260.4 593.9,251.9 581.9,248.8 590.4,257.3" />
<polygon fill="rgba(192,192,192,0.75)" stroke-width="1" stroke-dasharray="" stroke="silver" points="602.4,260.4 590.4,257.3 581.9,248.8 593.9,251.9" />
<polygon fill="rgba(255,255,255,0.75)" stroke-width="1" stroke-dasharray="" stroke="black" points="602.4,208.4 602.4,226.9 593.9,218.4 593.9,199.9 602.4,208.4" />
<polygon fill="rgba(255,255,255,0.75)" stroke-width="1" stroke-dasharray="" stroke="black" points="602.4,241.9 602.4,260.4 593.9,251.9 593.9,233.4 602.4,241.9" />
<polygon fill="rgba(192,192,192,0.75)" stroke-width="1" stroke-dasharray="" stroke="black" points="185.5,273.4 181.9,269.9 581.9,269.9 585.4,273.4 585.4,273.4 185.5,273.4" />
<polygon fill="none" stroke-width="1" stroke-dasharray="2" stroke="gray" points="185.5,278.4 585.4,278.4 585.4,278.4 581.9,274.9 181.9,274.9 185.5,278.4" />
<polygon fill="none" stroke-width="1" stroke-dasharray="2" stroke="gray" points="169.9,199.9 169.9,218.4 181.9,215.3 181.9,203.0 169.9,199.9" />
<polygon fill="none" stroke-width="1" stroke-dasharray="2" stroke="gray" points="169.9,233.4 169.9,251.9 181.9,248.8 181.9,236.5 169.9,233.4" />
<polygon fill="none" stroke-width="1" stroke-dasharray="2" stroke="gray" points="181.9,115.9 193.9,119.0 193.9,105.9 181.9,105.9 181.9,115.9" />
<polygon fill="none" stroke-width="1" stroke-dasharray="2" stroke="gray" points="181.9,141.4 181.9,146.4 193.9,149.5 193.9,138.3 181.9,141.4" />
<polygon fill="none" stroke-width="1" stroke-dasharray="2" stroke="gray" points="181.9,171.9 181.9,181.9 193.9,181.9 193.9,168.8 181.9,171.9" />
<polygon fill="none" stroke-width="1" stroke-dasharray="2" stroke="gray" points="181.9,196.9 196.9,200.8 196.9,186.9 181.9,186.9 181.9,196.9" />
<polygon fill="none" stroke-width="1" stroke-dasharray="2" stroke="gray" points="181.9,206.9 181.9,216.9 196.9,216.9 196.9,203.0 181.9,206.9" />
<polygon fill="none" stroke-width="1" stroke-dasharray="2" stroke="gray" points="181.9,171.9 193.9,168.8 193.9,181.9 569.9,181.9 569.9,168.8 581.9,171.9 581.9,171.9 581.9,146.4 581.9,146.4 569.9,149.5 569.9,138.3 581.9,141.4 581.9,115.9 569.9,119.0 569.9,105.9 569.9,105.9 193.9,105.9 193.9,105.9 193.9,119.0 181.9,115.9 181.9,141.4 193.9,138.3 193.9,149.5 181.9,146.4 181.9,146.4 181.9,171.9" />
<polygon fill="none" stroke-width="1" stroke-dasharray="2" stroke="gray" points="181.9,206.9 196.9,203.0 196.9,216.9 566.9,216.9 566.9,216.9 566.9,203.0 581.9,206.9 581.9,196.9 566.9,200.8 566.9,186.9 566.9,186.9 196.9,186.9 196.9,200.8 181.9,196.9 181.9,196.9 181.9,206.9" />
<polygon fill="rgba(255,255,255,0.75)" stroke-width="1" stroke-dasharray="" stroke="black" points="181.9,269.9 181.9,248.8 169.9,251.9 169.9,233.4 181.9,236.5 181.9,215.3 169.9,218.4 169.9,218.4 169.9,199.9 169.9,199.9 181.9,203.0 181.9,169.9 581.9,169.9 581.9,203.0 593.9,199.9 593.9,199.9 593.9,218.4 593.9,218.4 581.9,215.3 581.9,236.5 593.9,233.4 593.9,251.9 581.9,248.8 581.9,269.9 581.9,269.9 181.9,269.9" />
<polygon fill="none" stroke-width="1" stroke-dasharray="2" stroke="gray" points="566.9,200.8 581.9,196.9 581.9,186.9 566.9,186.9 566.9,200.8" />
<polygon fill="none" stroke-width="1" stroke-dasharray="2" stroke="gray" points="566.9,203.0 566.9,216.9 581.9,216.9 581.9,206.9 566.9,203.0" />
<polygon fill="none" stroke-width="1" stroke-dasharray="2" stroke="gray" points="569.9,119.0 581.9,115.9 581.9,105.9 569.9,105.9 569.9,119.0" />
<polygon fill="none" stroke-width="1" stroke-dasharray="2" stroke="gray" points="569.9,138.3 569.9,149.5 581.9,146.4 581.9,141.4 569.9,138.3" />
<polygon fill="none" stroke-width="1" stroke-dasharray="2" stroke="gray" points="569.9,168.8 569.9,181.9 581.9,181.9 581.9,171.9 569.9,168.8" />
<polygon fill="none" stroke-width="1" stroke-dasharray="2" stroke="gray" points="581.9,203.0 581.9,215.3 593.9,218.4 593.9,199.9 581.9,203.0" />
<polygon fill="none" stroke-width="1" stroke-dasharray="2" stroke="gray" points="581.9,236.5 581.9,248.8 593.9,251.9 593.9,233.4 581.9,236.5" />
<polygon fill="none" stroke-width="1" stroke-dasharray="2" stroke="gray" points="173.4,107.4 173.4,132.9 181.9,141.4 181.9,115.9 173.4,107.4" />
<polygon fill="none" stroke-width="1" stroke-dasharray="2" stroke="gray" points="173.4,137.9 173.4,163.4 181.9,171.9 181.9,146.4 173.4,137.9" />
<polygon fill="none" stroke-width="1" stroke-dasharray="2" stroke="gray" points="181.9,115.9 193.9,119.0 185.4,110.5 173.4,107.4" />
<polygon fill="rgba(192,192,192,0.75)" stroke-width="1" stroke-dasharray="" stroke="silver" points="181.9,115.9 173.4,107.4 185.4,110.5 193.9,119.0" />
<polygon fill="rgba(255,255,255,0.75)" stroke-width="1" stroke-dasharray="" stroke="black" points="173.4,132.9 185.4,129.8 193.9,138.3 181.9,141.4" />
<polygon fill="none" stroke-width="1" stroke-dasharray="2" stroke="gray" points="193.9,138.3 185.4,129.8 173.4,132.9 181.9,141.4" />
<polygon fill="none" stroke-width="1" stroke-dasharray="2" stroke="gray" points="181.9,146.4 193.9,149.5 185.4,141.0 173.4,137.9" />
<polygon fill="rgba(192,192,192,0.75)" stroke-width="1" stroke-dasharray="" stroke="silver" points="181.9,146.4 173.4,137.9 185.4,141.0 193.9,149.5" />
<polygon fill="rgba(255,255,255,0.75)" stroke-width="1" stroke-dasharray="" stroke="black" points="173.4,163.4 185.4,160.3 193.9,168.8 181.9,171.9" />
<polygon fill="none" stroke-width="1" stroke-dasharray="2" stroke="gray" points="193.9,168.8 185.4,160.3 173.4,163.4 181.9,171.9" />
<polygon fill="none" stroke-width="1" stroke-dasharray="2" stroke="gray" points="185.4,110.5 193.9,119.0 193.9,105.9 185.4,97.4 185.4,110.5" />
<polygon fill="none" stroke-width="1" stroke-dasharray="2" stroke="gray" points="185.4,129.8 185.4,141.0 193.9,149.5 193.9,138.3 185.4,129.8" />
<polygon fill="none" stroke-width="1" stroke-dasharray="2" stroke="gray" points="185.4,160.3 185.4,173.4 193.9,181.9 193.9,168.8 185.4,160.3" />
<polygon fill="none" stroke-width="1" stroke-dasharray="2" stroke="gray" points="193.9,105.9 569.9,105.9 569.9,105.9 561.4,97.4 185.4,97.4 193.9,105.9" />
<polygon fill="rgba(192,192,192,0.75)" stroke-width="1" stroke-dasharray="" stroke="black" points="193.9,181.9 185.4,173.4 561.4,173.4 569.9,181.9 569.9,181.9 193.9,181.9" />
<polygon fill="rgba(255,255,255,0.75)" stroke-width="1" stroke-dasharray="" stroke="black" points="569.9,119.0 561.4,110.5 561.4,97.4 569.9,105.9 569.9,119.0" />
<polygon fill="rgba(255,255,255,0.75)" stroke-width="1" stroke-dasharray="" stroke="black" points="569.9,138.3 569.9,149.5 561.4,141.0 561.4,129.8 569.9,138.3" />
<polygon fill="rgba(255,255,255,0.75)" stroke-width="1" stroke-dasharray="" stroke="black" points="569.9,168.8 569.9,181.9 561.4,173.4 561.4,160.3 569.9,168.8" />
<polygon fill="rgba(255,255,255,0.75)" stroke-width="1" stroke-dasharray="" stroke="black" points="569.9,119.0 561.4,110.5 573.4,107.4 581.9,115.9" />
<polygon fill="none" stroke-width="1" stroke-dasharray="2" stroke="gray" points="573.4,107.4 561.4,110.5 569.9,119.0 581.9,115.9" />
<polygon fill="none" stroke-width="1" stroke-dasharray="2" stroke="gray" points="581.9,141.4 573.4,132.9 561.4,129.8 569.9,138.3" />
<polygon fill="rgba(192,192,192,0.75)" stroke-width="1" stroke-dasharray="" stroke="silver" points="581.9,141.4 569.9,138.3 561.4,129.8 573.4,132.9" />
<polygon fill="rgba(255,255,255,0.75)" stroke-width="1" stroke-dasharray="" stroke="black" points="569.9,149.5 561.4,141.0 573.4,137.9 581.9,146.4" />
<polygon fill="none" stroke-width="1" stroke-dasharray="2" stroke="gray" points="573.4,137.9 561.4,141.0 569.9,149.5 581.9,146.4" />
<polygon fill="none" stroke-width="1" stroke-dasharray="2" stroke="gray" points="581.9,171.9 573.4,163.4 561.4,160.3 569.9,168.8" />
<polygon fill="rgba(192,192,192,0.75)" stroke-width="1" stroke-dasharray="" stroke="silver" points="581.9,171.9 569.9,168.8 561.4,160.3 573.4,163.4" />
<polygon fill="rgba(255,255,255,0.75)" stroke-width="1" stroke-dasharray="" stroke="black" points="581.9,115.9 581.9,141.4 573.4,132.9 573.4,107.4 581.9,115.9" />
<polygon fill="rgba(255,255,255,0.75)" stroke-width="1" stroke-dasharray="" stroke="black" points="581.9,146.4 581.9,171.9 573.4,163.4 573.4,137.9 581.9,146.4" />
<polygon fill="none" stroke-width="1" stroke-dasharray="2" stroke="gray" points="171.3,186.3 171.3,196.3 181.9,206.9 181.9,196.9 171.3,186.3" />
<polygon fill="none" stroke-width="1" stroke-dasharray="2" stroke="gray" points="181.9,196.9 196.9,200.8 186.3,190.2 171.3,186.3" />
<polygon fill="rgba(192,192,192,0.75)" stroke-width="1" stroke-dasharray="" stroke="silver" points="181.9,196.9 171.3,186.3 186.3,190.2 196.9,200.8" />
<polygon fill="rgba(255,255,255,0.75)" stroke-width="1" stroke-dasharray="" stroke="black" points="171.3,196.3 186.3,192.4 196.9,203.0 181.9,206.9" />
<polygon fill="none" stroke-width="1" stroke-dasharray="2" stroke="gray" points="196.9,203.0 186.3,192.4 171.3,196.3 181.9,206.9" />
<polygon fill="none" stroke-width="1" stroke-dasharray="2" stroke="gray" points="186.3,190.2 196.9,200.8 196.9,186.9 186.3,176.3 186.3,190.2" />
<polygon fill="none" stroke-width="1" stroke-dasharray="2" stroke="gray" points="186.3,192.4 186.3,206.3 196.9,216.9 196.9,203.0 186.3,192.4" />
<polygon fill="none" stroke-width="1" stroke-dasharray="2" stroke="gray" points="196.9,186.9 566.9,186.9 566.9,186.9 556.3,176.3 186.3,176.3 196.9,186.9" />
<polygon fill="rgba(192,192,192,0.75)" stroke-width="1" stroke-dasharray="" stroke="black" points="196.9,216.9 186.3,206.3 556.3,206.3 566.9,216.9 566.9,216.9 196.9,216.9" />
<polygon fill="rgba(255,255,255,0.75)" stroke-width="1" stroke-dasharray="" stroke="black" points="566.9,200.8 556.3,190.2 556.3,176.3 566.9,186.9 566.9,200.8" />
<polygon fill="rgba(255,255,255,0.75)" stroke-width="1" stroke-dasharray="" stroke="black" points="566.9,203.0 566.9,216.9 556.3,206.3 556.3,192.4 566.9,203.0" />
<polygon fill="rgba(255,255,255,0.75)" stroke-width="1" stroke-dasharray="" stroke="black" points="566.9,200.8 556.3,190.2 571.3,186.3 581.9,196.9" />
<polygon fill="none" stroke-width="1" stroke-dasharray="2" stroke="gray" points="571.3,186.3 556.3,190.2 566.9,200.8 581.9,196.9" />
<polygon fill="none" stroke-width="1" stroke-dasharray="2" stroke="gray" points="581.9,206.9 571.3,196.3 556.3,192.4 566.9,203.0" />
<polygon fill="rgba(192,192,192,0.75)" stroke-width="1" stroke-dasharray="" stroke="silver" points="581.9,206.9 566.9,203.0 556.3,192.4 571.3,196.3" />
<polygon fill="rgba(255,255,255,0.75)" stroke-width="1" stroke-dasharray="" stroke="black" points="581.9,196.9 581.9,206.9 571.3,196.3 571.3,186.3 581.9,196.9" />
<polygon fill="none" stroke-width="1" stroke-dasharray="2" stroke="gray" points="173.4,107.4 173.4,132.9 185.4,129.8 185.4,110.5 173.4,107.4" />
<polygon fill="none" stroke-width="1" stroke-dasharray="2" stroke="gray" points="173.4,137.9 173.4,163.4 185.4,160.3 185.4,141.0 173.4,137.9" />
<polygon fill="rgba(255,255,255,0.75)" stroke-width="1" stroke-dasharray="" stroke="black" points="185.4,173.4 185.4,160.3 173.4,163.4 173.4,137.9 185.4,141.0 185.4,129.8 173.4,132.9 173.4,132.9 173.4,107.4 173.4,107.4 185.4,110.5 185.4,97.4 561.4,97.4 561.4,110.5 573.4,107.4 573.4,107.4 573.4,132.9 573.4,132.9 561.4,129.8 561.4,141.0 573.4,137.9 573.4,163.4 561.4,160.3 561.4,173.4 561.4,173.4 185.4,173.4" />
<polygon fill="none" stroke-width="1" stroke-dasharray="2" stroke="gray" points="561.4,110.5 561.4,129.8 573.4,132.9 573.4,107.4 561.4,110.5" />
<polygon fill="none" stroke-width="1" stroke-dasharray="2" stroke="gray" points="561.4,141.0 561.4,160.3 573.4,163.4 573.4,137.9 561.4,141.0" />
<polygon fill="none" stroke-width="1" stroke-dasharray="2" stroke="gray" points="171.3,186.3 171.3,196.3 186.3,192.4 186.3,190.2 171.3,186.3" />
<polygon fill="rgba(255,255,255,0.75)" stroke-width="1" stroke-dasharray="" stroke="black" points="186.3,206.3 186.3,192.4 171.3,196.3 171.3,186.3 186.3,190.2 186.3,176.3 186.3,176.3 556.3,176.3 556.3,190.2 571.3,186.3 571.3,186.3 571.3,196.3 571.3,196.3 556.3,192.4 556.3,206.3 186.3,206.3" />
<polygon fill="none" stroke-width="1" stroke-dasharray="2" stroke="gray" points="556.3,190.2 556.3,192.4 571.3,196.3 571.3,186.3 556.3,190.2" />
<polygon fill="none" stroke-width="1" stroke-dasharray="2" stroke="gray" points="111.2,136.2 111.2,146.2 181.9,216.9 181.9,206.9 181.9,206.9 171.3,196.3 171.3,186.3 181.9,196.9 181.9,186.9 111.2,116.2 111.2,126.2 121.8,136.8 121.8,146.8 111.2,136.2" />
<polygon fill="none" stroke-width="1" stroke-dasharray="2" stroke="gray" points="196.9,186.9 126.2,116.2 111.2,116.2 181.9,186.9" />
<polygon fill="rgba(192,192,192,0.75)" stroke-width="1" stroke-dasharray="" stroke="black" points="181.9,216.9 111.2,146.2 126.2,146.2 196.9,216.9" />
<polygon fill="rgba(255,255,255,0.75)" stroke-width="1" stroke-dasharray="" stroke="black" points="126.2,130.1 126.2,116.2 196.9,186.9 196.9,200.8 196.9,200.8 186.3,190.2 186.3,192.4 196.9,203.0 196.9,216.9 126.2,146.2 126.2,132.3 136.8,142.9 136.8,140.7 126.2,130.1" />
<polygon fill="none" stroke-width="1" stroke-dasharray="2" stroke="gray" points="566.9,200.8 566.9,186.9 496.2,116.2 496.2,130.1 496.2,130.1 506.8,140.7 506.8,142.9 496.2,132.3 496.2,146.2 566.9,216.9 566.9,203.0 556.3,192.4 556.3,190.2 566.9,200.8" />
<polygon fill="none" stroke-width="1" stroke-dasharray="2" stroke="gray" points="496.2,116.2 566.9,186.9 581.9,186.9 511.2,116.2" />
<polygon fill="rgba(192,192,192,0.75)" stroke-width="1" stroke-dasharray="" stroke="black" points="511.2,146.2 581.9,216.9 566.9,216.9 496.2,146.2" />
<polygon fill="rgba(255,255,255,0.75)" stroke-width="1" stroke-dasharray="" stroke="black" points="581.9,206.9 581.9,216.9 511.2,146.2 511.2,136.2 511.2,136.2 521.8,146.8 521.8,136.8 511.2,126.2 511.2,116.2 581.9,186.9 581.9,196.9 571.3,186.3 571.3,196.3 581.9,206.9" />
<polygon fill="rgba(255,255,255,0.75)" stroke-width="1" stroke-dasharray="" stroke="black" points="136.8,140.7 136.8,142.9 121.8,146.8 121.8,136.8 136.8,140.7" />
<polygon fill="rgba(255,255,255,0.75)" stroke-width="1" stroke-dasharray="" stroke="black" points="521.8,136.8 521.8,146.8 506.8,142.9 506.8,140.7 521.8,136.8" />
<polygon fill="rgba(192,192,192,0.75)" stroke-width="1" stroke-dasharray="" stroke="silver" points="126.2,130.1 136.8,140.7 121.8,136.8 111.2,126.2" />
<polygon fill="none" stroke-width="1" stroke-dasharray="2" stroke="gray" points="111.2,136.2 121.8,146.8 136.8,142.9 126.2,132.3" />
<polygon fill="rgba(255,255,255,0.75)" stroke-width="1" stroke-dasharray="" stroke="black" points="511.2,126.2 521.8,136.8 506.8,140.7 496.2,130.1" />
<polygon fill="none" stroke-width="1" stroke-dasharray="2" stroke="gray" points="496.2,132.3 506.8,142.9 521.8,146.8 511.2,136.2" />
<polygon fill="none" stroke-width="1" stroke-dasharray="2" stroke="gray" points="20.0,102.0 20.0,132.0 178.4,290.4 178.4,260.4 169.9,251.9 169.9,233.4 178.4,241.9 178.4,241.9 178.4,226.9 178.4,226.9 169.9,218.4 169.9,199.9 178.4,208.4 178.4,178.4 20.0,20.0 20.0,50.0 20.0,50.0 28.5,58.5 28.5,77.0 20.0,68.5 20.0,83.5 28.5,92.0 28.5,110.5 20.0,102.0" />
<polygon fill="none" stroke-width="1" stroke-dasharray="2" stroke="gray" points="190.4,178.4 32.0,20.0 20.0,20.0 178.4,178.4" />
<polygon fill="rgba(192,192,192,0.75)" stroke-width="1" stroke-dasharray="" stroke="black" points="178.4,290.4 20.0,132.0 32.0,132.0 190.4,290.4" />
<polygon fill="rgba(192,192,192,0.75)" stroke-width="1" stroke-dasharray="" stroke="black" points="185.4,278.4 27.0,120.0 32.0,120.0 190.4,278.4" />
<polygon fill="none" stroke-width="1" stroke-dasharray="2" stroke="gray" points="190.4,283.4 32.0,125.0 27.0,125.0 185.4,283.4" />
<polygon fill="rgba(255,255,255,0.75)" stroke-width="1" stroke-dasharray="" stroke="black" points="32.0,86.6 32.0,65.4 32.0,65.4 40.5,73.9 40.5,61.6 32.0,53.1 32.0,20.0 190.4,178.4 190.4,211.5 190.4,211.5 181.9,203.0 181.9,215.3 190.4,223.8 190.4,245.0 181.9,236.5 181.9,248.8 190.4,257.3 190.4,257.3 190.4,278.4 32.0,120.0 32.0,98.9 40.5,107.4 40.5,95.1 32.0,86.6" />
<polygon fill="none" stroke-width="1" stroke-dasharray="2" stroke="gray" points="40.5,30.5 40.5,40.5 181.9,181.9 181.9,171.9 173.4,163.4 173.4,137.9 181.9,146.4 181.9,146.4 181.9,141.4 181.9,141.4 173.4,132.9 173.4,107.4 181.9,115.9 181.9,105.9 40.5,-35.5 40.5,-25.5 40.5,-25.5 49.0,-17.0 49.0,8.5 40.5,-0.0 40.5,5.0 49.0,13.5 49.0,39.0 40.5,30.5" />
<polygon fill="none" stroke-width="1" stroke-dasharray="2" stroke="gray" points="193.9,105.9 52.5,-35.5 40.5,-35.5 181.9,105.9" />
<polygon fill="rgba(192,192,192,0.75)" stroke-width="1" stroke-dasharray="" stroke="black" points="181.9,181.9 40.5,40.5 52.5,40.5 193.9,181.9" />
<polygon fill="rgba(255,255,255,0.75)" stroke-width="1" stroke-dasharray="" stroke="black" points="126.2,130.1 111.2,126.2 111.2,116.2 126.2,116.2 126.2,130.1" />
<polygon fill="rgba(255,255,255,0.75)" stroke-width="1" stroke-dasharray="" stroke="black" points="126.2,132.3 126.2,146.2 111.2,146.2 111.2,136.2 126.2,132.3" />
<polygon fill="rgba(255,255,255,0.75)" stroke-width="1" stroke-dasharray="" stroke="black" points="52.5,8.1 52.5,-3.1 52.5,-3.1 61.0,5.4 61.0,-13.9 52.5,-22.4 52.5,-35.5 193.9,105.9 193.9,119.0 193.9,119.0 185.4,110.5 185.4,129.8 193.9,138.3 193.9,149.5 185.4,141.0 185.4,160.3 193.9,168.8 193.9,168.8 193.9,181.9 52.5,40.5 52.5,27.4 61.0,35.9 61.0,16.6 52.5,8.1" />
<polygon fill="none" stroke-width="1" stroke-dasharray="2" stroke="gray" points="569.9,149.5 569.9,138.3 569.9,138.3 561.4,129.8 561.4,110.5 569.9,119.0 569.9,105.9 428.5,-35.5 428.5,-22.4 428.5,-22.4 437.0,-13.9 437.0,5.4 428.5,-3.1 428.5,8.1 437.0,16.6 437.0,35.9 428.5,27.4 428.5,27.4 428.5,40.5 569.9,181.9 569.9,168.8 561.4,160.3 561.4,141.0 569.9,149.5" />
<polygon fill="rgba(255,255,255,0.75)" stroke-width="1" stroke-dasharray="" stroke="black" points="511.2,126.2 496.2,130.1 496.2,116.2 511.2,116.2 511.2,126.2" />
<polygon fill="rgba(255,255,255,0.75)" stroke-width="1" stroke-dasharray="" stroke="black" points="511.2,136.2 511.2,146.2 496.2,146.2 496.2,132.3 511.2,136.2" />
<polygon fill="none" stroke-width="1" stroke-dasharray="2" stroke="gray" points="428.5,-35.5 569.9,105.9 581.9,105.9 440.5,-35.5" />
<polygon fill="rgba(192,192,192,0.75)" stroke-width="1" stroke-dasharray="" stroke="black" points="440.5,40.5 581.9,181.9 569.9,181.9 428.5,40.5" />
<polygon fill="rgba(255,255,255,0.75)" stroke-width="1" stroke-dasharray="" stroke="black" points="581.9,171.9 581.9,181.9 440.5,40.5 440.5,30.5 449.0,39.0 449.0,13.5 440.5,5.0 440.5,5.0 440.5,-0.0 440.5,-0.0 449.0,8.5 449.0,-17.0 440.5,-25.5 440.5,-35.5 581.9,105.9 581.9,115.9 581.9,115.9 573.4,107.4 573.4,132.9 581.9,141.4 581.9,146.4 573.4,137.9 573.4,163.4 581.9,171.9" />
<polygon fill="none" stroke-width="1" stroke-dasharray="2" stroke="gray" points="590.4,245.0 590.4,223.8 590.4,223.8 581.9,215.3 581.9,203.0 590.4,211.5 590.4,178.4 432.0,20.0 432.0,53.1 432.0,53.1 440.5,61.6 440.5,73.9 432.0,65.4 432.0,86.6 440.5,95.1 440.5,107.4 432.0,98.9 432.0,98.9 432.0,120.0 590.4,278.4 590.4,257.3 581.9,248.8 581.9,236.5 590.4,245.0" />
<polygon fill="rgba(192,192,192,0.75)" stroke-width="1" stroke-dasharray="" stroke="black" points="437.0,120.0 595.4,278.4 590.4,278.4 432.0,120.0" />
<polygon fill="none" stroke-width="1" stroke-dasharray="2" stroke="gray" points="432.0,125.0 590.4,283.4 595.4,283.4 437.0,125.0" />
<polygon fill="none" stroke-width="1" stroke-dasharray="2" stroke="gray" points="432.0,20.0 590.4,178.4 602.4,178.4 444.0,20.0" />
<polygon fill="rgba(192,192,192,0.75)" stroke-width="1" stroke-dasharray="" stroke="black" points="444.0,132.0 602.4,290.4 590.4,290.4 432.0,132.0" />
<polygon fill="rgba(255,255,255,0.75)" stroke-width="1" stroke-dasharray="" stroke="black" points="602.4,260.4 602.4,290.4 444.0,132.0 444.0,102.0 452.5,110.5 452.5,92.0 444.0,83.5 444.0,83.5 444.0,68.5 444.0,68.5 452.5,77.0 452.5,58.5 444.0,50.0 444.0,20.0 602.4,178.4 602.4,208.4 602.4,208.4 593.9,199.9 593.9,218.4 602.4,226.9 602.4,241.9 593.9,233.4 593.9,251.9 602.4,260.4" />
<polygon fill="rgba(255,255,255,0.75)" stroke-width="1" stroke-dasharray="" stroke="black" points="61.0,-13.9 61.0,5.4 49.0,8.5 49.0,-17.0 61.0,-13.9" />
<polygon fill="rgba(255,255,255,0.75)" stroke-width="1" stroke-dasharray="" stroke="black" points="61.0,16.6 61.0,35.9 49.0,39.0 49.0,13.5 61.0,16.6" />
<polygon fill="rgba(255,255,255,0.75)" stroke-width="1" stroke-dasharray="" stroke="black" points="449.0,-17.0 449.0,8.5 437.0,5.4 437.0,-13.9 449.0,-17.0" />
<polygon fill="rgba(255,255,255,0.75)" stroke-width="1" stroke-dasharray="" stroke="black" points="449.0,13.5 449.0,39.0 437.0,35.9 437.0,16.6 449.0,13.5" />
<polygon fill="rgba(192,192,192,0.75)" stroke-width="1" stroke-dasharray="" stroke="silver" points="52.5,-22.4 61.0,-13.9 49.0,-17.0 40.5,-25.5" />
<polygon fill="none" stroke-width="1" stroke-dasharray="2" stroke="gray" points="40.5,-0.0 49.0,8.5 61.0,5.4 52.5,-3.1" />
<polygon fill="rgba(192,192,192,0.75)" stroke-width="1" stroke-dasharray="" stroke="silver" points="52.5,8.1 61.0,16.6 49.0,13.5 40.5,5.0" />
<polygon fill="none" stroke-width="1" stroke-dasharray="2" stroke="gray" points="40.5,30.5 49.0,39.0 61.0,35.9 52.5,27.4" />
<polygon fill="rgba(255,255,255,0.75)" stroke-width="1" stroke-dasharray="" stroke="black" points="440.5,-25.5 449.0,-17.0 437.0,-13.9 428.5,-22.4" />
<polygon fill="none" stroke-width="1" stroke-dasharray="2" stroke="gray" points="428.5,-3.1 437.0,5.4 449.0,8.5 440.5,-0.0" />
<polygon fill="rgba(255,255,255,0.75)" stroke-width="1" stroke-dasharray="" stroke="black" points="440.5,5.0 449.0,13.5 437.0,16.6 428.5,8.1" />
<polygon fill="none" stroke-width="1" stroke-dasharray="2" stroke="gray" points="428.5,27.4 437.0,35.9 449.0,39.0 440.5,30.5" />
<polygon fill="none" stroke-width="1" stroke-dasharray="2" stroke="gray" points="415.6,60.6 415.6,46.7 430.6,50.6 430.6,40.6 415.6,44.5 415.6,30.6 415.6,30.6 45.6,30.6 45.6,44.5 30.6,40.6 30.6,40.6 30.6,50.6 30.6,50.6 45.6,46.7 45.6,60.6 415.6,60.6" />
<polygon fill="rgba(255,255,255,0.75)" stroke-width="1" stroke-dasharray="" stroke="black" points="40.5,61.6 40.5,73.9 28.5,77.0 28.5,58.5 40.5,61.6" />
<polygon fill="rgba(255,255,255,0.75)" stroke-width="1" stroke-dasharray="" stroke="black" points="40.5,95.1 40.5,107.4 28.5,110.5 28.5,92.0 40.5,95.1" />
<polygon fill="rgba(255,255,255,0.75)" stroke-width="1" stroke-dasharray="" stroke="black" points="52.5,-22.4 40.5,-25.5 40.5,-35.5 52.5,-35.5 52.5,-22.4" />
<polygon fill="rgba(255,255,255,0.75)" stroke-width="1" stroke-dasharray="" stroke="black" points="52.5,-3.1 52.5,8.1 40.5,5.0 40.5,-0.0 52.5,-3.1" />
<polygon fill="rgba(255,255,255,0.75)" stroke-width="1" stroke-dasharray="" stroke="black" points="52.5,27.4 52.5,40.5 40.5,40.5 40.5,30.5 52.5,27.4" />
<polygon fill="none" stroke-width="1" stroke-dasharray="2" stroke="gray" points="416.5,104.5 416.5,91.4 428.5,94.5 428.5,69.0 416.5,72.1 416.5,60.9 428.5,64.0 428.5,64.0 428.5,38.5 428.5,38.5 416.5,41.6 416.5,28.5 40.5,28.5 40.5,41.6 28.5,38.5 28.5,38.5 28.5,64.0 28.5,64.0 40.5,60.9 40.5,72.1 28.5,69.0 28.5,94.5 40.5,91.4 40.5,104.5 40.5,104.5 416.5,104.5" />
<polygon fill="none" stroke-width="1" stroke-dasharray="2" stroke="gray" points="440.5,128.5 440.5,107.4 452.5,110.5 452.5,92.0 440.5,95.1 440.5,73.9 452.5,77.0 452.5,77.0 452.5,58.5 452.5,58.5 440.5,61.6 440.5,28.5 40.5,28.5 40.5,61.6 28.5,58.5 28.5,58.5 28.5,77.0 28.5,77.0 40.5,73.9 40.5,95.1 28.5,92.0 28.5,110.5 40.5,107.4 40.5,128.5 40.5,128.5 440.5,128.5" />
<polygon fill="rgba(255,255,255,0.75)" stroke-width="1" stroke-dasharray="" stroke="black" points="440.5,-25.5 428.5,-22.4 428.5,-35.5 440.5,-35.5 440.5,-25.5" />
<polygon fill="rgba(255,255,255,0.75)" stroke-width="1" stroke-dasharray="" stroke="black" points="440.5,-0.0 440.5,5.0 428.5,8.1 428.5,-3.1 440.5,-0.0" />
<polygon fill="rgba(255,255,255,0.75)" stroke-width="1" stroke-dasharray="" stroke="black" points="440.5,30.5 440.5,40.5 428.5,40.5 428.5,27.4 440.5,30.5" />
<polygon fill="rgba(255,255,255,0.75)" stroke-width="1" stroke-dasharray="" stroke="black" points="452.5,58.5 452.5,77.0 440.5,73.9 440.5,61.6 452.5,58.5" />
<polygon fill="rgba(255,255,255,0.75)" stroke-width="1" stroke-dasharray="" stroke="black" points="452.5,92.0 452.5,110.5 440.5,107.4 440.5,95.1 452.5,92.0" />
<polygon fill="rgba(192,192,192,0.75)" stroke-width="1" stroke-dasharray="" stroke="black" points="436.9,124.9 440.5,128.5 40.5,128.5 37.0,124.9 37.0,124.9 436.9,124.9" />
<polygon fill="none" stroke-width="1" stroke-dasharray="2" stroke="gray" points="436.9,129.9 37.0,129.9 37.0,129.9 40.5,133.5 440.5,133.5 436.9,129.9" />
<polygon fill="none" stroke-width="1" stroke-dasharray="2" stroke="gray" points="20.0,30.0 20.0,40.0 30.6,50.6 30.6,40.6 20.0,30.0" />
<polygon fill="none" stroke-width="1" stroke-dasharray="2" stroke="gray" points="30.6,40.6 45.6,44.5 35.0,33.9 20.0,30.0" />
<polygon fill="rgba(255,255,255,0.75)" stroke-width="1" stroke-dasharray="" stroke="black" points="20.0,40.0 35.0,36.1 45.6,46.7 30.6,50.6" />
<polygon fill="none" stroke-width="1" stroke-dasharray="2" stroke="gray" points="35.0,33.9 45.6,44.5 45.6,30.6 35.0,20.0 35.0,33.9" />
<polygon fill="none" stroke-width="1" stroke-dasharray="2" stroke="gray" points="35.0,36.1 35.0,50.0 45.6,60.6 45.6,46.7 35.0,36.1" />
<polygon fill="none" stroke-width="1" stroke-dasharray="2" stroke="gray" points="405.0,20.0 35.0,20.0 35.0,20.0 45.6,30.6 415.6,30.6 405.0,20.0" />
<polygon fill="rgba(192,192,192,0.75)" stroke-width="1" stroke-dasharray="" stroke="black" points="405.0,50.0 415.6,60.6 45.6,60.6 35.0,50.0 35.0,50.0 405.0,50.0" />
<polygon fill="rgba(255,255,255,0.75)" stroke-width="1" stroke-dasharray="" stroke="black" points="415.6,44.5 405.0,33.9 405.0,20.0 415.6,30.6 415.6,44.5" />
<polygon fill="rgba(255,255,255,0.75)" stroke-width="1" stroke-dasharray="" stroke="black" points="415.6,46.7 415.6,60.6 405.0,50.0 405.0,36.1 415.6,46.7" />
<polygon fill="none" stroke-width="1" stroke-dasharray="2" stroke="gray" points="420.0,30.0 405.0,33.9 415.6,44.5 430.6,40.6" />
<polygon fill="rgba(192,192,192,0.75)" stroke-width="1" stroke-dasharray="" stroke="silver" points="430.6,50.6 415.6,46.7 405.0,36.1 420.0,40.0" />
<polygon fill="rgba(255,255,255,0.75)" stroke-width="1" stroke-dasharray="" stroke="black" points="430.6,40.6 430.6,50.6 420.0,40.0 420.0,30.0 430.6,40.6" />
<polygon fill="rgba(192,192,192,0.75)" stroke-width="1" stroke-dasharray="" stroke="silver" points="32.0,53.1 40.5,61.6 28.5,58.5 20.0,50.0" />
<polygon fill="none" stroke-width="1" stroke-dasharray="2" stroke="gray" points="20.0,68.5 28.5,77.0 40.5,73.9 32.0,65.4" />
<polygon fill="rgba(192,192,192,0.75)" stroke-width="1" stroke-dasharray="" stroke="silver" points="32.0,86.6 40.5,95.1 28.5,92.0 20.0,83.5" />
<polygon fill="none" stroke-width="1" stroke-dasharray="2" stroke="gray" points="20.0,102.0 28.5,110.5 40.5,107.4 32.0,98.9" />
<polygon fill="none" stroke-width="1" stroke-dasharray="2" stroke="gray" points="20.0,30.0 20.0,55.5 28.5,64.0 28.5,38.5 20.0,30.0" />
<polygon fill="none" stroke-width="1" stroke-dasharray="2" stroke="gray" points="20.0,50.0 20.0,68.5 28.5,77.0 28.5,58.5 20.0,50.0" />
<polygon fill="none" stroke-width="1" stroke-dasharray="2" stroke="gray" points="20.0,60.5 20.0,86.0 28.5,94.5 28.5,69.0 20.0,60.5" />
<polygon fill="none" stroke-width="1" stroke-dasharray="2" stroke="gray" points="20.0,83.5 20.0,102.0 28.5,110.5 28.5,92.0 20.0,83.5" />
<polygon fill="none" stroke-width="1" stroke-dasharray="2" stroke="gray" points="28.5,38.5 40.5,41.6 32.0,33.1 20.0,30.0" />
<polygon fill="none" stroke-width="1" stroke-dasharray="2" stroke="gray" points="28.5,58.5 40.5,61.6 32.0,53.1 20.0,50.0" />
<polygon fill="rgba(255,255,255,0.75)" stroke-width="1" stroke-dasharray="" stroke="black" points="20.0,55.5 32.0,52.4 40.5,60.9 28.5,64.0" />
<polygon fill="none" stroke-width="1" stroke-dasharray="2" stroke="gray" points="28.5,69.0 40.5,72.1 32.0,63.6 20.0,60.5" />
<polygon fill="rgba(255,255,255,0.75)" stroke-width="1" stroke-dasharray="" stroke="black" points="20.0,68.5 32.0,65.4 40.5,73.9 28.5,77.0" />
<polygon fill="rgba(255,255,255,0.75)" stroke-width="1" stroke-dasharray="" stroke="black" points="20.0,86.0 32.0,82.9 40.5,91.4 28.5,94.5" />
<polygon fill="none" stroke-width="1" stroke-dasharray="2" stroke="gray" points="28.5,92.0 40.5,95.1 32.0,86.6 20.0,83.5" />
<polygon fill="rgba(255,255,255,0.75)" stroke-width="1" stroke-dasharray="" stroke="black" points="20.0,102.0 32.0,98.9 40.5,107.4 28.5,110.5" />
<polygon fill="none" stroke-width="1" stroke-dasharray="2" stroke="gray" points="32.0,33.1 40.5,41.6 40.5,28.5 32.0,20.0 32.0,33.1" />
<polygon fill="none" stroke-width="1" stroke-dasharray="2" stroke="gray" points="32.0,53.1 40.5,61.6 40.5,28.5 32.0,20.0 32.0,53.1" />
<polygon fill="none" stroke-width="1" stroke-dasharray="2" stroke="gray" points="32.0,52.4 32.0,63.6 40.5,72.1 40.5,60.9 32.0,52.4" />
<polygon fill="none" stroke-width="1" stroke-dasharray="2" stroke="gray" points="32.0,65.4 32.0,86.6 40.5,95.1 40.5,73.9 32.0,65.4" />
<polygon fill="none" stroke-width="1" stroke-dasharray="2" stroke="gray" points="32.0,82.9 32.0,96.0 40.5,104.5 40.5,91.4 32.0,82.9" />
<polygon fill="none" stroke-width="1" stroke-dasharray="2" stroke="gray" points="32.0,98.9 32.0,132.0 40.5,140.5 40.5,133.5 36.9,129.9 36.9,124.9 40.5,128.5 40.5,107.4 32.0,98.9" />
<polygon fill="none" stroke-width="1" stroke-dasharray="2" stroke="gray" points="408.0,20.0 32.0,20.0 32.0,20.0 40.5,28.5 416.5,28.5 408.0,20.0" />
<polygon fill="rgba(192,192,192,0.75)" stroke-width="1" stroke-dasharray="" stroke="black" points="408.0,96.0 416.5,104.5 40.5,104.5 32.0,96.0 32.0,96.0 408.0,96.0" />
<polygon fill="none" stroke-width="1" stroke-dasharray="2" stroke="gray" points="432.0,20.0 32.0,20.0 32.0,20.0 40.5,28.5 440.5,28.5 432.0,20.0" />
<polygon fill="rgba(192,192,192,0.75)" stroke-width="1" stroke-dasharray="" stroke="black" points="432.0,132.0 440.5,140.5 40.5,140.5 32.0,132.0 32.0,132.0 432.0,132.0" />
<polygon fill="rgba(255,255,255,0.75)" stroke-width="1" stroke-dasharray="" stroke="black" points="416.5,41.6 408.0,33.1 408.0,20.0 416.5,28.5 416.5,41.6" />
<polygon fill="rgba(255,255,255,0.75)" stroke-width="1" stroke-dasharray="" stroke="black" points="416.5,60.9 416.5,72.1 408.0,63.6 408.0,52.4 416.5,60.9" />
<polygon fill="rgba(255,255,255,0.75)" stroke-width="1" stroke-dasharray="" stroke="black" points="416.5,91.4 416.5,104.5 408.0,96.0 408.0,82.9 416.5,91.4" />
<polygon fill="none" stroke-width="1" stroke-dasharray="2" stroke="gray" points="420.0,30.0 408.0,33.1 416.5,41.6 428.5,38.5" />
<polygon fill="rgba(192,192,192,0.75)" stroke-width="1" stroke-dasharray="" stroke="silver" points="428.5,64.0 416.5,60.9 408.0,52.4 420.0,55.5" />
<polygon fill="none" stroke-width="1" stroke-dasharray="2" stroke="gray" points="420.0,60.5 408.0,63.6 416.5,72.1 428.5,69.0" />
<polygon fill="rgba(192,192,192,0.75)" stroke-width="1" stroke-dasharray="" stroke="silver" points="428.5,94.5 416.5,91.4 408.0,82.9 420.0,86.0" />
<polygon fill="rgba(255,255,255,0.75)" stroke-width="1" stroke-dasharray="" stroke="black" points="428.5,38.5 428.5,64.0 420.0,55.5 420.0,30.0 428.5,38.5" />
<polygon fill="rgba(255,255,255,0.75)" stroke-width="1" stroke-dasharray="" stroke="black" points="428.5,69.0 428.5,94.5 420.0,86.0 420.0,60.5 428.5,69.0" />
<polygon fill="rgba(255,255,255,0.75)" stroke-width="1" stroke-dasharray="" stroke="black" points="440.5,61.6 432.0,53.1 432.0,20.0 440.5,28.5 440.5,61.6" />
<polygon fill="rgba(255,255,255,0.75)" stroke-width="1" stroke-dasharray="" stroke="black" points="440.5,73.9 440.5,95.1 432.0,86.6 432.0,65.4 440.5,73.9" />
<polygon fill="rgba(255,255,255,0.75)" stroke-width="1" stroke-dasharray="" stroke="black" points="440.5,107.4 440.5,128.5 436.9,124.9 436.9,129.9 440.5,133.5 440.5,140.5 432.0,132.0 432.0,98.9 440.5,107.4" />
<polygon fill="none" stroke-width="1" stroke-dasharray="2" stroke="gray" points="444.0,50.0 432.0,53.1 440.5,61.6 452.5,58.5" />
<polygon fill="rgba(255,255,255,0.75)" stroke-width="1" stroke-dasharray="" stroke="black" points="444.0,50.0 452.5,58.5 440.5,61.6 432.0,53.1" />
<polygon fill="rgba(192,192,192,0.75)" stroke-width="1" stroke-dasharray="" stroke="silver" points="452.5,77.0 440.5,73.9 432.0,65.4 444.0,68.5" />
<polygon fill="none" stroke-width="1" stroke-dasharray="2" stroke="gray" points="432.0,65.4 440.5,73.9 452.5,77.0 444.0,68.5" />
<polygon fill="none" stroke-width="1" stroke-dasharray="2" stroke="gray" points="444.0,83.5 432.0,86.6 440.5,95.1 452.5,92.0" />
<polygon fill="rgba(255,255,255,0.75)" stroke-width="1" stroke-dasharray="" stroke="black" points="444.0,83.5 452.5,92.0 440.5,95.1 432.0,86.6" />
<polygon fill="rgba(192,192,192,0.75)" stroke-width="1" stroke-dasharray="" stroke="silver" points="452.5,110.5 440.5,107.4 432.0,98.9 444.0,102.0" />
<polygon fill="none" stroke-width="1" stroke-dasharray="2" stroke="gray" points="432.0,98.9 440.5,107.4 452.5,110.5 444.0,102.0" />
<polygon fill="rgba(255,255,255,0.75)" stroke-width="1" stroke-dasharray="" stroke="black" points="452.5,58.5 452.5,77.0 444.0,68.5 444.0,50.0 452.5,58.5" />
<polygon fill="rgba(255,255,255,0.75)" stroke-width="1" stroke-dasharray="" stroke="black" points="452.5,92.0 452.5,110.5 444.0,102.0 444.0,83.5 452.5,92.0" />
<polygon fill="rgba(255,255,255,0.75)" stroke-width="1" stroke-dasharray="" stroke="black" points="32.0,53.1 20.0,50.0 20.0,20.0 32.0,20.0 32.0,53.1" />
<polygon fill="rgba(255,255,255,0.75)" stroke-width="1" stroke-dasharray="" stroke="black" points="32.0,65.4 32.0,86.6 20.0,83.5 20.0,68.5 32.0,65.4" />
<polygon fill="rgba(255,255,255,0.75)" stroke-width="1" stroke-dasharray="" stroke="black" points="32.0,98.9 32.0,120.0 27.0,120.0 27.0,125.0 32.0,125.0 32.0,132.0 20.0,132.0 20.0,102.0 32.0,98.9" />
<polygon fill="rgba(255,255,255,0.75)" stroke-width="1" stroke-dasharray="" stroke="black" points="444.0,50.0 432.0,53.1 432.0,20.0 444.0,20.0 444.0,50.0" />
<polygon fill="rgba(255,255,255,0.75)" stroke-width="1" stroke-dasharray="" stroke="black" points="444.0,68.5 444.0,83.5 432.0,86.6 432.0,65.4 444.0,68.5" />
<polygon fill="rgba(255,255,255,0.75)" stroke-width="1" stroke-dasharray="" stroke="black" points="444.0,102.0 444.0,132.0 432.0,132.0 432.0,125.0 437.0,125.0 437.0,120.0 432.0,120.0 432.0,98.9 444.0,102.0" />
<polygon fill="rgba(255,255,255,0.75)" stroke-width="1" stroke-dasharray="" stroke="black" points="420.0,40.0 405.0,36.1 405.0,50.0 35.0,50.0 35.0,50.0 35.0,36.1 20.0,40.0 20.0,30.0 35.0,33.9 35.0,20.0 35.0,20.0 405.0,20.0 405.0,33.9 420.0,30.0 420.0,30.0 420.0,40.0" />
<polygon fill="rgba(255,255,255,0.75)" stroke-width="1" stroke-dasharray="" stroke="black" points="420.0,86.0 408.0,82.9 408.0,96.0 32.0,96.0 32.0,82.9 20.0,86.0 20.0,86.0 20.0,60.5 20.0,60.5 32.0,63.6 32.0,52.4 20.0,55.5 20.0,30.0 32.0,33.1 32.0,20.0 32.0,20.0 408.0,20.0 408.0,20.0 408.0,33.1 420.0,30.0 420.0,55.5 408.0,52.4 408.0,63.6 420.0,60.5 420.0,60.5 420.0,86.0" />
<polygon fill="rgba(255,255,255,0.75)" stroke-width="1" stroke-dasharray="" stroke="black" points="444.0,102.0 432.0,98.9 432.0,132.0 32.0,132.0 32.0,98.9 20.0,102.0 20.0,102.0 20.0,83.5 20.0,83.5 32.0,86.6 32.0,65.4 20.0,68.5 20.0,50.0 32.0,53.1 32.0,20.0 32.0,20.0 432.0,20.0 432.0,20.0 432.0,53.1 444.0,50.0 444.0,68.5 432.0,65.4 432.0,86.6 444.0,83.5 444.0,83.5 444.0,102.0" />
</svg>
