<svg width="1600" viewBox="0.0 -138.4 800.0 273.4" xmlns="http://www.w3.org/2000/svg">
<polygon fill="none" stroke-width="1" stroke-dasharray="2" stroke="gray" points="178.4,-108.4 190.4,-105.3 190.4,-138.4 178.4,-138.4 178.4,-108.4" />
<polygon fill="none" stroke-width="1" stroke-dasharray="2" stroke="gray" points="178.4,-89.9 178.4,-74.9 190.4,-71.8 190.4,-93.0 178.4,-89.9" />
<polygon fill="none" stroke-width="1" stroke-dasharray="2" stroke="gray" points="178.4,-56.4 178.4,-26.4 190.4,-26.4 190.4,-33.4 185.4,-33.4 185.4,-38.4 190.4,-38.4 190.4,-59.5 178.4,-56.4" />
<polygon fill="none" stroke-width="1" stroke-dasharray="2" stroke="gray" points="178.4,-56.4 190.4,-59.5 190.4,-26.4 590.4,-26.4 590.4,-59.5 602.4,-56.4 602.4,-56.4 602.4,-74.9 602.4,-74.9 590.4,-71.8 590.4,-93.0 602.4,-89.9 602.4,-108.4 590.4,-105.3 590.4,-138.4 590.4,-138.4 190.4,-138.4 190.4,-138.4 190.4,-105.3 178.4,-108.4 178.4,-89.9 190.4,-93.0 190.4,-71.8 178.4,-74.9 178.4,-74.9 178.4,-56.4" />
<polygon fill="none" stroke-width="1" stroke-dasharray="2" stroke="gray" points="178.4,-38.4 178.4,-23.4 602.4,-23.4 602.4,-38.4" />
<polygon fill="none" stroke-width="1" stroke-dasharray="2" stroke="gray" points="590.4,-105.3 602.4,-108.4 602.4,-138.4 590.4,-138.4 590.4,-105.3" />
<polygon fill="none" stroke-width="1" stroke-dasharray="2" stroke="gray" points="590.4,-93.0 590.4,-71.8 602.4,-74.9 602.4,-89.9 590.4,-93.0" />
<polygon fill="none" stroke-width="1" stroke-dasharray="2" stroke="gray" points="590.4,-59.5 590.4,-38.4 595.4,-38.4 595.4,-33.4 590.4,-33.4 590.4,-26.4 602.4,-26.4 602.4,-56.4 590.4,-59.5" />
<polygon fill="none" stroke-width="1" stroke-dasharray="2" stroke="gray" points="169.9,-99.9 169.9,-81.4 178.4,-89.9 178.4,-108.4 169.9,-99.9" />
<polygon fill="none" stroke-width="1" stroke-dasharray="2" stroke="gray" points="169.9,-66.4 169.9,-47.9 178.4,-56.4 178.4,-74.9 169.9,-66.4" />
<polygon fill="rgba(255,255,255,0.75)" stroke-width="1" stroke-dasharray="" stroke="black" points="178.4,-108.4 190.4,-105.3 181.9,-96.8 169.9,-99.9" />
<polygon fill="none" stroke-width="1" stroke-dasharray="2" stroke="gray" points="178.4,-108.4 169.9,-99.9 181.9,-96.8 190.4,-105.3" />
<polygon fill="none" stroke-width="1" stroke-dasharray="2" stroke="gray" points="169.9,-81.4 181.9,-84.5 190.4,-93.0 178.4,-89.9" />
<polygon fill="rgba(255,255,255,0.75)" stroke-width="1" stroke-dasharray="" stroke="silver" points="190.4,-93.0 181.9,-84.5 169.9,-81.4 178.4,-89.9" />
<polygon fill="rgba(255,255,255,0.75)" stroke-width="1" stroke-dasharray="" stroke="black" points="178.4,-74.9 190.4,-71.8 181.9,-63.3 169.9,-66.4" />
<polygon fill="none" stroke-width="1" stroke-dasharray="2" stroke="gray" points="178.4,-74.9 169.9,-66.4 181.9,-63.3 190.4,-71.8" />
<polygon fill="none" stroke-width="1" stroke-dasharray="2" stroke="gray" points="169.9,-47.9 181.9,-51.0 190.4,-59.5 178.4,-56.4" />
<polygon fill="rgba(255,255,255,0.75)" stroke-width="1" stroke-dasharray="" stroke="silver" points="190.4,-59.5 181.9,-51.0 169.9,-47.9 178.4,-56.4" />
<polygon fill="none" stroke-width="1" stroke-dasharray="2" stroke="gray" points="181.9,-96.8 190.4,-105.3 190.4,-138.4 181.9,-129.9 181.9,-96.8" />
<polygon fill="none" stroke-width="1" stroke-dasharray="2" stroke="gray" points="181.9,-84.5 181.9,-63.3 190.4,-71.8 190.4,-93.0 181.9,-84.5" />
<polygon fill="none" stroke-width="1" stroke-dasharray="2" stroke="gray" points="181.9,-51.0 181.9,-29.9 185.4,-33.4 185.4,-28.4 181.9,-24.9 181.9,-17.9 190.4,-26.4 190.4,-59.5 181.9,-51.0" />
<polygon fill="rgba(255,255,255,0.75)" stroke-width="1" stroke-dasharray="" stroke="black" points="190.4,-138.4 590.4,-138.4 590.4,-138.4 581.9,-129.9 181.9,-129.9 190.4,-138.4" />
<polygon fill="none" stroke-width="1" stroke-dasharray="2" stroke="gray" points="190.4,-26.4 181.9,-17.9 581.9,-17.9 590.4,-26.4 590.4,-26.4 190.4,-26.4" />
<polygon fill="rgba(255,255,255,0.75)" stroke-width="1" stroke-dasharray="" stroke="black" points="590.4,-105.3 581.9,-96.8 581.9,-129.9 590.4,-138.4 590.4,-105.3" />
<polygon fill="rgba(255,255,255,0.75)" stroke-width="1" stroke-dasharray="" stroke="black" points="590.4,-93.0 590.4,-71.8 581.9,-63.3 581.9,-84.5 590.4,-93.0" />
<polygon fill="rgba(255,255,255,0.75)" stroke-width="1" stroke-dasharray="" stroke="black" points="590.4,-59.5 590.4,-26.4 581.9,-17.9 581.9,-24.9 585.4,-28.4 585.4,-33.4 581.9,-29.9 581.9,-51.0 590.4,-59.5" />
<polygon fill="none" stroke-width="1" stroke-dasharray="2" stroke="gray" points="590.4,-105.3 581.9,-96.8 593.9,-99.9 602.4,-108.4" />
<polygon fill="rgba(255,255,255,0.75)" stroke-width="1" stroke-dasharray="" stroke="silver" points="593.9,-99.9 581.9,-96.8 590.4,-105.3 602.4,-108.4" />
<polygon fill="rgba(255,255,255,0.75)" stroke-width="1" stroke-dasharray="" stroke="black" points="602.4,-89.9 593.9,-81.4 581.9,-84.5 590.4,-93.0" />
<polygon fill="none" stroke-width="1" stroke-dasharray="2" stroke="gray" points="602.4,-89.9 590.4,-93.0 581.9,-84.5 593.9,-81.4" />
<polygon fill="none" stroke-width="1" stroke-dasharray="2" stroke="gray" points="590.4,-71.8 581.9,-63.3 593.9,-66.4 602.4,-74.9" />
<polygon fill="rgba(255,255,255,0.75)" stroke-width="1" stroke-dasharray="" stroke="silver" points="593.9,-66.4 581.9,-63.3 590.4,-71.8 602.4,-74.9" />
<polygon fill="rgba(255,255,255,0.75)" stroke-width="1" stroke-dasharray="" stroke="black" points="602.4,-56.4 593.9,-47.9 581.9,-51.0 590.4,-59.5" />
<polygon fill="none" stroke-width="1" stroke-dasharray="2" stroke="gray" points="602.4,-56.4 590.4,-59.5 581.9,-51.0 593.9,-47.9" />
<polygon fill="rgba(255,255,255,0.75)" stroke-width="1" stroke-dasharray="" stroke="black" points="602.4,-108.4 602.4,-89.9 593.9,-81.4 593.9,-99.9 602.4,-108.4" />
<polygon fill="rgba(255,255,255,0.75)" stroke-width="1" stroke-dasharray="" stroke="black" points="602.4,-74.9 602.4,-56.4 593.9,-47.9 593.9,-66.4 602.4,-74.9" />
<polygon fill="none" stroke-width="1" stroke-dasharray="2" stroke="gray" points="185.5,-33.4 181.9,-29.9 581.9,-29.9 585.4,-33.4 585.4,-33.4 185.5,-33.4" />
<polygon fill="rgba(255,255,255,0.75)" stroke-width="1" stroke-dasharray="" stroke="black" points="185.5,-28.4 585.4,-28.4 585.4,-28.4 581.9,-24.9 181.9,-24.9 185.5,-28.4" />
<polygon fill="none" stroke-width="1" stroke-dasharray="2" stroke="gray" points="169.9,-99.9 169.9,-81.4 181.9,-84.5 181.9,-96.8 169.9,-99.9" />
<polygon fill="none" stroke-width="1" stroke-dasharray="2" stroke="gray" points="169.9,-66.4 169.9,-47.9 181.9,-51.0 181.9,-63.3 169.9,-66.4" />
<polygon fill="rgba(255,255,255,0.75)" stroke-width="1" stroke-dasharray="" stroke="black" points="181.9,-29.9 181.9,-51.0 169.9,-47.9 169.9,-66.4 181.9,-63.3 181.9,-84.5 169.9,-81.4 169.9,-81.4 169.9,-99.9 169.9,-99.9 181.9,-96.8 181.9,-129.9 581.9,-129.9 581.9,-96.8 593.9,-99.9 593.9,-99.9 593.9,-81.4 593.9,-81.4 581.9,-84.5 581.9,-63.3 593.9,-66.4 593.9,-47.9 581.9,-51.0 581.9,-29.9 581.9,-29.9 181.9,-29.9" />
<polygon fill="none" stroke-width="1" stroke-dasharray="2" stroke="gray" points="581.9,-96.8 581.9,-84.5 593.9,-81.4 593.9,-99.9 581.9,-96.8" />
<polygon fill="none" stroke-width="1" stroke-dasharray="2" stroke="gray" points="581.9,-63.3 581.9,-51.0 593.9,-47.9 593.9,-66.4 581.9,-63.3" />
<polygon fill="none" stroke-width="1" stroke-dasharray="2" stroke="gray" points="20.0,102.0 20.0,132.0 178.4,-26.4 178.4,-56.4 169.9,-47.9 169.9,-66.4 178.4,-74.9 178.4,-74.9 178.4,-89.9 178.4,-89.9 169.9,-81.4 169.9,-99.9 178.4,-108.4 178.4,-138.4 20.0,20.0 20.0,50.0 20.0,50.0 28.5,41.5 28.5,60.0 20.0,68.5 20.0,83.5 28.5,75.0 28.5,93.5 20.0,102.0" />
<polygon fill="rgba(255,255,255,0.75)" stroke-width="1" stroke-dasharray="" stroke="black" points="190.4,-138.4 32.0,20.0 20.0,20.0 178.4,-138.4" />
<polygon fill="none" stroke-width="1" stroke-dasharray="2" stroke="gray" points="178.4,-26.4 20.0,132.0 32.0,132.0 190.4,-26.4" />
<polygon fill="none" stroke-width="1" stroke-dasharray="2" stroke="gray" points="185.4,-38.4 27.0,120.0 32.0,120.0 190.4,-38.4" />
<polygon fill="rgba(255,255,255,0.75)" stroke-width="1" stroke-dasharray="" stroke="black" points="190.4,-33.4 32.0,125.0 27.0,125.0 185.4,-33.4" />
<polygon fill="rgba(255,255,255,0.75)" stroke-width="1" stroke-dasharray="" stroke="black" points="32.0,86.6 32.0,65.4 32.0,65.4 40.5,56.9 40.5,44.6 32.0,53.1 32.0,20.0 190.4,-138.4 190.4,-105.3 190.4,-105.3 181.9,-96.8 181.9,-84.5 190.4,-93.0 190.4,-71.8 181.9,-63.3 181.9,-51.0 190.4,-59.5 190.4,-59.5 190.4,-38.4 32.0,120.0 32.0,98.9 40.5,90.4 40.5,78.1 32.0,86.6" />
<polygon fill="none" stroke-width="1" stroke-dasharray="2" stroke="gray" points="20.0,120.0 20.0,135.0 178.4,-23.4 178.4,-38.4" />
<polygon fill="rgba(255,255,255,0.75)" stroke-width="1" stroke-dasharray="" stroke="black" points="178.4,-38.4 602.4,-38.4 444.0,120.0 20.0,120.0" />
<polygon fill="none" stroke-width="1" stroke-dasharray="2" stroke="gray" points="20.0,135.0 444.0,135.0 602.4,-23.4 178.4,-23.4" />
<polygon fill="none" stroke-width="1" stroke-dasharray="2" stroke="gray" points="590.4,-71.8 590.4,-93.0 590.4,-93.0 581.9,-84.5 581.9,-96.8 590.4,-105.3 590.4,-138.4 432.0,20.0 432.0,53.1 432.0,53.1 440.5,44.6 440.5,56.9 432.0,65.4 432.0,86.6 440.5,78.1 440.5,90.4 432.0,98.9 432.0,98.9 432.0,120.0 590.4,-38.4 590.4,-59.5 581.9,-51.0 581.9,-63.3 590.4,-71.8" />
<polygon fill="none" stroke-width="1" stroke-dasharray="2" stroke="gray" points="437.0,120.0 595.4,-38.4 590.4,-38.4 432.0,120.0" />
<polygon fill="rgba(255,255,255,0.75)" stroke-width="1" stroke-dasharray="" stroke="black" points="432.0,125.0 590.4,-33.4 595.4,-33.4 437.0,125.0" />
<polygon fill="rgba(255,255,255,0.75)" stroke-width="1" stroke-dasharray="" stroke="black" points="432.0,20.0 590.4,-138.4 602.4,-138.4 444.0,20.0" />
<polygon fill="none" stroke-width="1" stroke-dasharray="2" stroke="gray" points="444.0,132.0 602.4,-26.4 590.4,-26.4 432.0,132.0" />
<polygon fill="rgba(255,255,255,0.75)" stroke-width="1" stroke-dasharray="" stroke="black" points="602.4,-56.4 602.4,-26.4 444.0,132.0 444.0,102.0 452.5,93.5 452.5,75.0 444.0,83.5 444.0,83.5 444.0,68.5 444.0,68.5 452.5,60.0 452.5,41.5 444.0,50.0 444.0,20.0 602.4,-138.4 602.4,-108.4 602.4,-108.4 593.9,-99.9 593.9,-81.4 602.4,-89.9 602.4,-74.9 593.9,-66.4 593.9,-47.9 602.4,-56.4" />
<polygon fill="rgba(255,255,255,0.75)" stroke-width="1" stroke-dasharray="" stroke="black" points="602.4,-38.4 602.4,-23.4 444.0,135.0 444.0,120.0" />
<polygon fill="rgba(255,255,255,0.75)" stroke-width="1" stroke-dasharray="" stroke="black" points="40.5,44.6 40.5,56.9 28.5,60.0 28.5,41.5 40.5,44.6" />
<polygon fill="rgba(255,255,255,0.75)" stroke-width="1" stroke-dasharray="" stroke="black" points="40.5,78.1 40.5,90.4 28.5,93.5 28.5,75.0 40.5,78.1" />
<polygon fill="none" stroke-width="1" stroke-dasharray="2" stroke="gray" points="440.5,111.5 440.5,90.4 452.5,93.5 452.5,75.0 440.5,78.1 440.5,56.9 452.5,60.0 452.5,60.0 452.5,41.5 452.5,41.5 440.5,44.6 440.5,11.5 40.5,11.5 40.5,44.6 28.5,41.5 28.5,41.5 28.5,60.0 28.5,60.0 40.5,56.9 40.5,78.1 28.5,75.0 28.5,93.5 40.5,90.4 40.5,111.5 40.5,111.5 440.5,111.5" />
<polygon fill="rgba(255,255,255,0.75)" stroke-width="1" stroke-dasharray="" stroke="black" points="452.5,41.5 452.5,60.0 440.5,56.9 440.5,44.6 452.5,41.5" />
<polygon fill="rgba(255,255,255,0.75)" stroke-width="1" stroke-dasharray="" stroke="black" points="452.5,75.0 452.5,93.5 440.5,90.4 440.5,78.1 452.5,75.0" />
<polygon fill="none" stroke-width="1" stroke-dasharray="2" stroke="gray" points="436.9,115.1 440.5,111.5 40.5,111.5 37.0,115.1 37.0,115.1 436.9,115.1" />
<polygon fill="rgba(255,255,255,0.75)" stroke-width="1" stroke-dasharray="" stroke="black" points="436.9,120.1 37.0,120.1 37.0,120.1 40.5,116.5 440.5,116.5 436.9,120.1" />
<polygon fill="none" stroke-width="1" stroke-dasharray="2" stroke="gray" points="32.0,53.1 40.5,44.6 28.5,41.5 20.0,50.0" />
<polygon fill="rgba(255,255,255,0.75)" stroke-width="1" stroke-dasharray="" stroke="silver" points="20.0,68.5 28.5,60.0 40.5,56.9 32.0,65.4" />
<polygon fill="none" stroke-width="1" stroke-dasharray="2" stroke="gray" points="32.0,86.6 40.5,78.1 28.5,75.0 20.0,83.5" />
<polygon fill="rgba(255,255,255,0.75)" stroke-width="1" stroke-dasharray="" stroke="silver" points="20.0,102.0 28.5,93.5 40.5,90.4 32.0,98.9" />
<polygon fill="none" stroke-width="1" stroke-dasharray="2" stroke="gray" points="20.0,50.0 20.0,68.5 28.5,60.0 28.5,41.5 20.0,50.0" />
<polygon fill="none" stroke-width="1" stroke-dasharray="2" stroke="gray" points="20.0,83.5 20.0,102.0 28.5,93.5 28.5,75.0 20.0,83.5" />
<polygon fill="rgba(255,255,255,0.75)" stroke-width="1" stroke-dasharray="" stroke="black" points="28.5,41.5 40.5,44.6 32.0,53.1 20.0,50.0" />
<polygon fill="none" stroke-width="1" stroke-dasharray="2" stroke="gray" points="20.0,68.5 32.0,65.4 40.5,56.9 28.5,60.0" />
<polygon fill="rgba(255,255,255,0.75)" stroke-width="1" stroke-dasharray="" stroke="black" points="28.5,75.0 40.5,78.1 32.0,86.6 20.0,83.5" />
<polygon fill="none" stroke-width="1" stroke-dasharray="2" stroke="gray" points="20.0,102.0 32.0,98.9 40.5,90.4 28.5,93.5" />
<polygon fill="none" stroke-width="1" stroke-dasharray="2" stroke="gray" points="32.0,53.1 40.5,44.6 40.5,11.5 32.0,20.0 32.0,53.1" />
<polygon fill="none" stroke-width="1" stroke-dasharray="2" stroke="gray" points="32.0,65.4 32.0,86.6 40.5,78.1 40.5,56.9 32.0,65.4" />
<polygon fill="none" stroke-width="1" stroke-dasharray="2" stroke="gray" points="32.0,98.9 32.0,132.0 40.5,123.5 40.5,116.5 36.9,120.1 36.9,115.1 40.5,111.5 40.5,90.4 32.0,98.9" />
<polygon fill="rgba(255,255,255,0.75)" stroke-width="1" stroke-dasharray="" stroke="black" points="432.0,20.0 32.0,20.0 32.0,20.0 40.5,11.5 440.5,11.5 432.0,20.0" />
<polygon fill="none" stroke-width="1" stroke-dasharray="2" stroke="gray" points="432.0,132.0 440.5,123.5 40.5,123.5 32.0,132.0 32.0,132.0 432.0,132.0" />
<polygon fill="rgba(255,255,255,0.75)" stroke-width="1" stroke-dasharray="" stroke="black" points="440.5,44.6 432.0,53.1 432.0,20.0 440.5,11.5 440.5,44.6" />
<polygon fill="rgba(255,255,255,0.75)" stroke-width="1" stroke-dasharray="" stroke="black" points="440.5,56.9 440.5,78.1 432.0,86.6 432.0,65.4 440.5,56.9" />
<polygon fill="rgba(255,255,255,0.75)" stroke-width="1" stroke-dasharray="" stroke="black" points="440.5,90.4 440.5,111.5 436.9,115.1 436.9,120.1 440.5,116.5 440.5,123.5 432.0,132.0 432.0,98.9 440.5,90.4" />
<polygon fill="rgba(255,255,255,0.75)" stroke-width="1" stroke-dasharray="" stroke="silver" points="444.0,50.0 432.0,53.1 440.5,44.6 452.5,41.5" />
<polygon fill="none" stroke-width="1" stroke-dasharray="2" stroke="gray" points="444.0,50.0 452.5,41.5 440.5,44.6 432.0,53.1" />
<polygon fill="none" stroke-width="1" stroke-dasharray="2" stroke="gray" points="452.5,60.0 440.5,56.9 432.0,65.4 444.0,68.5" />
<polygon fill="rgba(255,255,255,0.75)" stroke-width="1" stroke-dasharray="" stroke="black" points="432.0,65.4 440.5,56.9 452.5,60.0 444.0,68.5" />
<polygon fill="rgba(255,255,255,0.75)" stroke-width="1" stroke-dasharray="" stroke="silver" points="444.0,83.5 432.0,86.6 440.5,78.1 452.5,75.0" />
<polygon fill="none" stroke-width="1" stroke-dasharray="2" stroke="gray" points="444.0,83.5 452.5,75.0 440.5,78.1 432.0,86.6" />
<polygon fill="none" stroke-width="1" stroke-dasharray="2" stroke="gray" points="452.5,93.5 440.5,90.4 432.0,98.9 444.0,102.0" />
<polygon fill="rgba(255,255,255,0.75)" stroke-width="1" stroke-dasharray="" stroke="black" points="432.0,98.9 440.5,90.4 452.5,93.5 444.0,102.0" />
<polygon fill="rgba(255,255,255,0.75)" stroke-width="1" stroke-dasharray="" stroke="black" points="452.5,41.5 452.5,60.0 444.0,68.5 444.0,50.0 452.5,41.5" />
<polygon fill="rgba(255,255,255,0.75)" stroke-width="1" stroke-dasharray="" stroke="black" points="452.5,75.0 452.5,93.5 444.0,102.0 444.0,83.5 452.5,75.0" />
<polygon fill="rgba(255,255,255,0.75)" stroke-width="1" stroke-dasharray="" stroke="black" points="32.0,53.1 20.0,50.0 20.0,20.0 32.0,20.0 32.0,53.1" />
<polygon fill="rgba(255,255,255,0.75)" stroke-width="1" stroke-dasharray="" stroke="black" points="32.0,65.4 32.0,86.6 20.0,83.5 20.0,68.5 32.0,65.4" />
<polygon fill="rgba(255,255,255,0.75)" stroke-width="1" stroke-dasharray="" stroke="black" points="32.0,98.9 32.0,120.0 27.0,120.0 27.0,125.0 32.0,125.0 32.0,132.0 20.0,132.0 20.0,102.0 32.0,98.9" />
<polygon fill="rgba(255,255,255,0.75)" stroke-width="1" stroke-dasharray="" stroke="black" points="444.0,50.0 432.0,53.1 432.0,20.0 444.0,20.0 444.0,50.0" />
<polygon fill="rgba(255,255,255,0.75)" stroke-width="1" stroke-dasharray="" stroke="black" points="444.0,68.5 444.0,83.5 432.0,86.6 432.0,65.4 444.0,68.5" />
<polygon fill="rgba(255,255,255,0.75)" stroke-width="1" stroke-dasharray="" stroke="black" points="444.0,102.0 444.0,132.0 432.0,132.0 432.0,125.0 437.0,125.0 437.0,120.0 432.0,120.0 432.0,98.9 444.0,102.0" />
<polygon fill="rgba(255,255,255,0.75)" stroke-width="1" stroke-dasharray="" stroke="black" points="444.0,102.0 432.0,98.9 432.0,132.0 32.0,132.0 32.0,98.9 20.0,102.0 20.0,102.0 20.0,83.5 20.0,83.5 32.0,86.6 32.0,65.4 20.0,68.5 20.0,50.0 32.0,53.1 32.0,20.0 32.0,20.0 432.0,20.0 432.0,20.0 432.0,53.1 444.0,50.0 444.0,68.5 432.0,65.4 432.0,86.6 444.0,83.5 444.0,83.5 444.0,102.0" />
<polygon fill="rgba(255,255,255,0.75)" stroke-width="1" stroke-dasharray="" stroke="black" points="20.0,120.0 444.0,120.0 444.0,135.0 20.0,135.0" />
</svg>
