<svg width="1100" viewBox="0 0 550 364.5477272147525" xmlns="http://www.w3.org/2000/svg">
<polygon fill="none" stroke-width="1" stroke-dasharray="2" stroke="gray" points="412.5966017177983,50.60660171779821 412.5966017177982,38.52604935697804 420.6066017177982,40.59401998168747 420.6066017177982,30.61918345390896 412.5966017177982,32.68715407861838 412.5966017177983,20.606601717798213 412.5966017177983,20.606601717798213 28.616601717798204,20.606601717798213 28.61660171779821,32.68715407861838 20.606601717798213,30.61918345390896 20.606601717798213,30.61918345390896 20.606601717798213,40.59401998168746 20.606601717798213,40.59401998168746 28.61660171779821,38.52604935697804 28.61660171779821,50.60660171779821 412.5966017177983,50.60660171779821" />
<polygon fill="none" stroke-width="1" stroke-dasharray="2" stroke="gray" points="10.0,19.990000000000002 10.0,30.01 20.606601717798213,40.61660171779821 20.606601717798213,30.596601717798215 10.0,19.990000000000002" />
<polygon fill="none" stroke-width="1" stroke-dasharray="2" stroke="gray" points="20.606601717798213,30.606601717798213 28.606601717798213,32.67715407861838 18.0,22.070552360820166 10.0,20.0" />
<polygon fill="rgba(255,255,255,0.75)" stroke-width="1" stroke-dasharray="" stroke="black" points="10.0,30.0 18.0,27.929447639179834 28.606601717798213,38.53604935697805 20.606601717798213,40.60660171779821" />
<polygon fill="none" stroke-width="1" stroke-dasharray="2" stroke="gray" points="18.0,22.080552360820164 28.606601717798213,32.68715407861837 28.606601717798213,20.606601717798213 18.0,10.0 18.0,22.080552360820164" />
<polygon fill="none" stroke-width="1" stroke-dasharray="2" stroke="gray" points="18.0,27.919447639179836 18.0,40.0 28.606601717798213,50.60660171779821 28.606601717798213,38.52604935697805 18.0,27.919447639179836" />
<polygon fill="none" stroke-width="1" stroke-dasharray="2" stroke="gray" points="401.99,10.0 18.009999999999998,10.0 18.009999999999998,10.0 28.616601717798204,20.606601717798213 412.5966017177982,20.606601717798213 401.99,10.0" />
<polygon fill="rgba(192,192,192,0.75)" stroke-width="1" stroke-dasharray="" stroke="black" points="401.99,40.0 412.5966017177982,50.60660171779821 28.616601717798204,50.60660171779821 18.009999999999998,40.0 18.009999999999998,40.0 401.99,40.0" />
<polygon fill="rgba(255,255,255,0.75)" stroke-width="1" stroke-dasharray="" stroke="black" points="412.6066017177982,32.68715407861838 402.0,22.08055236082016 402.0,10.0 412.6066017177982,20.606601717798213 412.6066017177982,32.68715407861838" />
<polygon fill="rgba(255,255,255,0.75)" stroke-width="1" stroke-dasharray="" stroke="black" points="412.6066017177982,38.52604935697805 412.6066017177982,50.60660171779821 402.0,40.0 402.0,27.919447639179836 412.6066017177982,38.52604935697805" />
<polygon fill="none" stroke-width="1" stroke-dasharray="2" stroke="gray" points="410.0,20.0 402.0,22.070552360820166 412.6066017177982,32.67715407861838 420.6066017177982,30.606601717798213" />
<polygon fill="rgba(192,192,192,0.75)" stroke-width="1" stroke-dasharray="" stroke="silver" points="420.6066017177982,40.60660171779821 412.6066017177982,38.53604935697805 402.0,27.929447639179834 410.0,30.0" />
<polygon fill="rgba(255,255,255,0.75)" stroke-width="1" stroke-dasharray="" stroke="black" points="420.6066017177982,30.596601717798215 420.6066017177982,40.61660171779821 410.0,30.01 410.0,19.990000000000002 420.6066017177982,30.596601717798215" />
<polygon fill="rgba(255,255,255,0.75)" stroke-width="1" stroke-dasharray="" stroke="black" points="410.0,29.987418263889253 401.99,27.919447639179833 401.99,40.0 18.010000000000048,40.0 18.010000000000048,40.0 18.009999999999998,27.919447639179833 10.0,29.987418263889253 10.0,20.012581736110747 18.009999999999998,22.080552360820164 18.009999999999998,10.0 18.009999999999998,10.0 401.99,10.0 401.99,22.080552360820164 410.0,20.012581736110747 410.0,20.012581736110747 410.0,29.987418263889253" />
<text style="" text-anchor="middle" x="210.0" y="25.0" fill="black">till front</text>
<polygon fill="none" stroke-width="1" stroke-dasharray="2" stroke="gray" points="412.5966017177983,111.21320343559643 412.5966017177982,99.13265107477626 420.6066017177982,101.20062169948568 420.6066017177982,91.22578517170717 412.5966017177982,93.29375579641659 412.5966017177983,81.21320343559643 412.5966017177983,81.21320343559643 28.616601717798204,81.21320343559643 28.61660171779821,93.29375579641659 20.606601717798213,91.22578517170717 20.606601717798213,91.22578517170717 20.606601717798213,101.20062169948568 20.606601717798213,101.20062169948568 28.61660171779821,99.13265107477626 28.61660171779821,111.21320343559643 412.5966017177983,111.21320343559643" />
<polygon fill="none" stroke-width="1" stroke-dasharray="2" stroke="gray" points="10.0,80.59660171779821 10.0,90.61660171779822 20.606601717798213,101.22320343559643 20.606601717798213,91.20320343559644 10.0,80.59660171779821" />
<polygon fill="none" stroke-width="1" stroke-dasharray="2" stroke="gray" points="20.606601717798213,91.21320343559643 28.606601717798213,93.28375579641659 18.0,82.67715407861837 10.0,80.60660171779821" />
<polygon fill="rgba(255,255,255,0.75)" stroke-width="1" stroke-dasharray="" stroke="black" points="10.0,90.60660171779821 18.0,88.53604935697805 28.606601717798213,99.14265107477627 20.606601717798213,101.21320343559643" />
<polygon fill="none" stroke-width="1" stroke-dasharray="2" stroke="gray" points="18.0,82.68715407861838 28.606601717798213,93.29375579641659 28.606601717798213,81.21320343559643 18.0,70.60660171779821 18.0,82.68715407861838" />
<polygon fill="none" stroke-width="1" stroke-dasharray="2" stroke="gray" points="18.0,88.52604935697805 18.0,100.60660171779821 28.606601717798213,111.21320343559643 28.606601717798213,99.13265107477626 18.0,88.52604935697805" />
<polygon fill="none" stroke-width="1" stroke-dasharray="2" stroke="gray" points="401.99,70.60660171779821 18.009999999999998,70.60660171779821 18.009999999999998,70.60660171779821 28.616601717798204,81.21320343559643 412.5966017177982,81.21320343559643 401.99,70.60660171779821" />
<polygon fill="rgba(192,192,192,0.75)" stroke-width="1" stroke-dasharray="" stroke="black" points="401.99,100.60660171779821 412.5966017177982,111.21320343559643 28.616601717798204,111.21320343559643 18.009999999999998,100.60660171779821 18.009999999999998,100.60660171779821 401.99,100.60660171779821" />
<polygon fill="rgba(255,255,255,0.75)" stroke-width="1" stroke-dasharray="" stroke="black" points="412.6066017177982,93.29375579641659 402.0,82.68715407861838 402.0,70.60660171779821 412.6066017177982,81.21320343559643 412.6066017177982,93.29375579641659" />
<polygon fill="rgba(255,255,255,0.75)" stroke-width="1" stroke-dasharray="" stroke="black" points="412.6066017177982,99.13265107477626 412.6066017177982,111.21320343559643 402.0,100.60660171779821 402.0,88.52604935697805 412.6066017177982,99.13265107477626" />
<polygon fill="none" stroke-width="1" stroke-dasharray="2" stroke="gray" points="410.0,80.60660171779821 402.0,82.67715407861837 412.6066017177982,93.28375579641659 420.6066017177982,91.21320343559643" />
<polygon fill="rgba(192,192,192,0.75)" stroke-width="1" stroke-dasharray="" stroke="silver" points="420.6066017177982,101.21320343559643 412.6066017177982,99.14265107477627 402.0,88.53604935697805 410.0,90.60660171779821" />
<polygon fill="rgba(255,255,255,0.75)" stroke-width="1" stroke-dasharray="" stroke="black" points="420.6066017177982,91.20320343559642 420.6066017177982,101.22320343559643 410.0,90.61660171779822 410.0,80.59660171779822 420.6066017177982,91.20320343559642" />
<polygon fill="rgba(255,255,255,0.75)" stroke-width="1" stroke-dasharray="" stroke="black" points="410.0,90.59401998168747 401.99,88.52604935697805 401.99,100.60660171779821 18.010000000000048,100.60660171779821 18.010000000000048,100.60660171779821 18.009999999999998,88.52604935697805 10.0,90.59401998168747 10.0,80.61918345390896 18.009999999999998,82.68715407861838 18.009999999999998,70.60660171779821 18.009999999999998,70.60660171779821 401.99,70.60660171779821 401.99,82.68715407861838 410.0,80.61918345390896 410.0,80.61918345390896 410.0,90.59401998168747" />
<text style="" text-anchor="middle" x="210.0" y="85.60660171779821" fill="black">till back</text>
<polygon fill="none" stroke-width="1" stroke-dasharray="2" stroke="gray" points="120.60660171779821,153.8803575142148 120.60660171779821,141.81980515339464 20.606601717798213,141.81980515339464 20.606601717798213,153.8803575142148 20.606601717798213,153.8803575142148 28.61660171779821,153.8803575142148 28.61660171779821,159.75925279257447 20.606601717798213,159.75925279257447 20.606601717798213,171.81980515339464 120.60660171779821,171.81980515339464 120.60660171779821,159.75925279257447 112.59660171779821,159.75925279257447 112.59660171779821,153.8803575142148 120.60660171779821,153.8803575142148" />
<polygon fill="none" stroke-width="1" stroke-dasharray="2" stroke="gray" points="10.0,141.22458196579672 20.606601717798213,153.89897898401452 20.606601717798213,141.81980515339464 10.0,131.21320343559643 10.0,141.22458196579672" />
<polygon fill="none" stroke-width="1" stroke-dasharray="2" stroke="gray" points="10.0,151.20182490539614 10.0,161.21320343559643 20.606601717798213,171.81980515339464 20.606601717798213,159.74063132277476 10.0,151.20182490539614" />
<polygon fill="rgba(255,255,255,0.75)" stroke-width="1" stroke-dasharray="" stroke="black" points="10.0,141.21320343559643 18.0,141.21320343559643 28.606601717798213,153.8903575142148 20.606601717798213,153.8903575142148" />
<polygon fill="none" stroke-width="1" stroke-dasharray="2" stroke="gray" points="20.606601717798213,159.74925279257448 28.606601717798213,159.74925279257448 18.0,151.21320343559643 10.0,151.21320343559643" />
<polygon fill="none" stroke-width="1" stroke-dasharray="2" stroke="gray" points="18.0,141.2045819657967 18.0,151.22182490539615 28.606601717798213,159.76063132277474 28.606601717798213,153.87897898401454 18.0,141.2045819657967" />
<polygon fill="none" stroke-width="1" stroke-dasharray="2" stroke="gray" points="20.606601717798213,141.81980515339464 120.60660171779821,141.81980515339464 110.0,131.21320343559643 10.0,131.21320343559643" />
<polygon fill="rgba(192,192,192,0.75)" stroke-width="1" stroke-dasharray="" stroke="black" points="10.0,161.21320343559643 110.0,161.21320343559643 120.60660171779821,171.81980515339464 20.606601717798213,171.81980515339464" />
<polygon fill="rgba(255,255,255,0.75)" stroke-width="1" stroke-dasharray="" stroke="black" points="112.60660171779821,153.87897898401454 112.60660171779821,159.76063132277474 102.0,151.22182490539615 102.0,141.2045819657967 112.60660171779821,153.87897898401454" />
<polygon fill="rgba(255,255,255,0.75)" stroke-width="1" stroke-dasharray="" stroke="black" points="120.60660171779821,153.8903575142148 112.60660171779821,153.8903575142148 102.0,141.21320343559643 110.0,141.21320343559643" />
<polygon fill="none" stroke-width="1" stroke-dasharray="2" stroke="gray" points="110.0,151.21320343559643 102.0,151.21320343559643 112.60660171779821,159.74925279257448 120.60660171779821,159.74925279257448" />
<polygon fill="rgba(255,255,255,0.75)" stroke-width="1" stroke-dasharray="" stroke="black" points="120.60660171779821,153.89897898401452 110.0,141.22458196579672 110.0,131.21320343559643 120.60660171779821,141.81980515339464 120.60660171779821,153.89897898401452" />
<polygon fill="rgba(255,255,255,0.75)" stroke-width="1" stroke-dasharray="" stroke="black" points="120.60660171779821,159.74063132277476 120.60660171779821,171.81980515339464 110.0,161.21320343559643 110.0,151.20182490539614 120.60660171779821,159.74063132277476" />
<polygon fill="rgba(255,255,255,0.75)" stroke-width="1" stroke-dasharray="" stroke="black" points="110.0,151.22320343559642 110.0,161.21320343559643 10.0,161.21320343559643 10.0,151.22320343559642 10.0,151.22320343559642 18.009999999999998,151.22320343559642 18.009999999999998,141.20320343559644 10.0,141.20320343559644 10.0,131.21320343559643 110.0,131.21320343559643 110.0,141.20320343559644 101.99,141.20320343559644 101.99,151.22320343559642 110.0,151.22320343559642" />
<text style="" text-anchor="middle" x="60.0" y="146.21320343559643" fill="black">till left</text>
<polygon fill="none" stroke-width="1" stroke-dasharray="2" stroke="gray" points="120.60660171779821,214.48695923201302 120.60660171779821,202.42640687119285 20.606601717798213,202.42640687119285 20.606601717798213,214.48695923201302 20.606601717798213,214.48695923201302 28.61660171779821,214.48695923201302 28.61660171779821,220.36585451037269 20.606601717798213,220.36585451037269 20.606601717798213,232.42640687119285 120.60660171779821,232.42640687119285 120.60660171779821,220.36585451037269 112.59660171779821,220.36585451037269 112.59660171779821,214.48695923201302 120.60660171779821,214.48695923201302" />
<polygon fill="none" stroke-width="1" stroke-dasharray="2" stroke="gray" points="10.0,201.83118368359493 20.606601717798213,214.50558070181273 20.606601717798213,202.42640687119285 10.0,191.81980515339464 10.0,201.83118368359493" />
<polygon fill="none" stroke-width="1" stroke-dasharray="2" stroke="gray" points="10.0,211.80842662319435 10.0,221.81980515339464 20.606601717798213,232.42640687119285 20.606601717798213,220.34723304057297 10.0,211.80842662319435" />
<polygon fill="rgba(255,255,255,0.75)" stroke-width="1" stroke-dasharray="" stroke="black" points="10.0,201.81980515339464 18.0,201.81980515339464 28.606601717798213,214.496959232013 20.606601717798213,214.496959232013" />
<polygon fill="none" stroke-width="1" stroke-dasharray="2" stroke="gray" points="20.606601717798213,220.3558545103727 28.606601717798213,220.3558545103727 18.0,211.81980515339464 10.0,211.81980515339464" />
<polygon fill="none" stroke-width="1" stroke-dasharray="2" stroke="gray" points="18.0,201.81118368359492 18.0,211.82842662319436 28.606601717798213,220.36723304057298 28.606601717798213,214.48558070181275 18.0,201.81118368359492" />
<polygon fill="none" stroke-width="1" stroke-dasharray="2" stroke="gray" points="20.606601717798213,202.42640687119285 120.60660171779821,202.42640687119285 110.0,191.81980515339464 10.0,191.81980515339464" />
<polygon fill="rgba(192,192,192,0.75)" stroke-width="1" stroke-dasharray="" stroke="black" points="10.0,221.81980515339464 110.0,221.81980515339464 120.60660171779821,232.42640687119285 20.606601717798213,232.42640687119285" />
<polygon fill="rgba(255,255,255,0.75)" stroke-width="1" stroke-dasharray="" stroke="black" points="112.60660171779821,214.48558070181275 112.60660171779821,220.36723304057298 102.0,211.82842662319436 102.0,201.81118368359492 112.60660171779821,214.48558070181275" />
<polygon fill="rgba(255,255,255,0.75)" stroke-width="1" stroke-dasharray="" stroke="black" points="120.60660171779821,214.496959232013 112.60660171779821,214.496959232013 102.0,201.81980515339464 110.0,201.81980515339464" />
<polygon fill="none" stroke-width="1" stroke-dasharray="2" stroke="gray" points="110.0,211.81980515339464 102.0,211.81980515339464 112.60660171779821,220.3558545103727 120.60660171779821,220.3558545103727" />
<polygon fill="rgba(255,255,255,0.75)" stroke-width="1" stroke-dasharray="" stroke="black" points="120.60660171779821,214.50558070181273 110.0,201.83118368359493 110.0,191.81980515339464 120.60660171779821,202.42640687119285 120.60660171779821,214.50558070181273" />
<polygon fill="rgba(255,255,255,0.75)" stroke-width="1" stroke-dasharray="" stroke="black" points="120.60660171779821,220.34723304057297 120.60660171779821,232.42640687119285 110.0,221.81980515339464 110.0,211.80842662319435 120.60660171779821,220.34723304057297" />
<polygon fill="rgba(255,255,255,0.75)" stroke-width="1" stroke-dasharray="" stroke="black" points="110.0,211.82980515339466 110.0,221.81980515339464 10.0,221.81980515339464 10.0,211.82980515339463 10.0,211.82980515339463 18.009999999999998,211.82980515339463 18.009999999999998,201.80980515339465 10.0,201.80980515339465 10.0,191.81980515339464 110.0,191.81980515339464 110.0,201.80980515339465 101.99,201.80980515339465 101.99,211.82980515339463 110.0,211.82980515339466" />
<text style="" text-anchor="middle" x="60.0" y="206.81980515339464" fill="black">till right</text>
<polygon fill="none" stroke-width="1" stroke-dasharray="2" stroke="gray" points="12.121320343559642,254.54772721475248 12.121320343559642,354.5477272147525 412.12132034355966,354.5477272147525 412.12132034355966,254.54772721475248" />
<polygon fill="none" stroke-width="1" stroke-dasharray="2" stroke="gray" points="10.0,252.42640687119285 10.0,352.42640687119285 12.121320343559642,354.5477272147525 12.121320343559642,254.54772721475248" />
<polygon fill="none" stroke-width="1" stroke-dasharray="2" stroke="gray" points="12.121320343559642,254.54772721475248 412.12132034355966,254.54772721475248 410.0,252.42640687119285 10.0,252.42640687119285" />
<polygon fill="rgba(192,192,192,0.75)" stroke-width="1" stroke-dasharray="" stroke="black" points="10.0,352.42640687119285 410.0,352.42640687119285 412.12132034355966,354.5477272147525 12.121320343559642,354.5477272147525" />
<polygon fill="rgba(255,255,255,0.75)" stroke-width="1" stroke-dasharray="" stroke="black" points="412.12132034355966,254.54772721475248 412.12132034355966,354.5477272147525 410.0,352.42640687119285 410.0,252.42640687119285" />
<polygon fill="rgba(255,255,255,0.75)" stroke-width="1" stroke-dasharray="" stroke="black" points="10.0,252.42640687119285 410.0,252.42640687119285 410.0,352.42640687119285 10.0,352.42640687119285" />
<text style="" text-anchor="middle" x="210.0" y="302.42640687119285" fill="black">till bottom</text>
</svg>
