<svg width="1100" viewBox="0 0 550 1012.6568542494924" xmlns="http://www.w3.org/2000/svg">
<polygon fill="none" stroke-width="1" stroke-dasharray="2" stroke="gray" points="403.6468542494923,91.65685424949238 403.6468542494924,78.54102570826213 415.65685424949237,81.64427036551466 415.65685424949237,56.16943813347011 403.6468542494924,59.27268279072263 403.6468542494924,48.041025708262126 415.65685424949237,51.14427036551466 415.65685424949237,51.14427036551466 415.65685424949237,25.669438133470106 415.65685424949237,25.669438133470106 403.6468542494924,28.77268279072263 403.6468542494924,15.65685424949238 27.666854249492427,15.65685424949238 27.666854249492378,28.77268279072263 15.65685424949238,25.66943813347011 15.65685424949238,25.66943813347011 15.65685424949238,51.14427036551466 15.65685424949238,51.14427036551466 27.666854249492378,48.041025708262126 27.666854249492378,59.27268279072263 15.65685424949238,56.16943813347011 15.65685424949238,81.64427036551464 27.666854249492378,78.54102570826213 27.666854249492427,91.65685424949238 27.666854249492427,91.65685424949238 403.6468542494923,91.65685424949238" />
<polygon fill="none" stroke-width="1" stroke-dasharray="2" stroke="gray" points="10.0,19.99 10.0,45.51 15.65685424949238,51.166854249492374 15.65685424949238,25.646854249492375 10.0,19.99" />
<polygon fill="none" stroke-width="1" stroke-dasharray="2" stroke="gray" points="10.0,50.49 10.0,76.01 15.65685424949238,81.66685424949239 15.65685424949238,56.14685424949238 10.0,50.49" />
<polygon fill="none" stroke-width="1" stroke-dasharray="2" stroke="gray" points="15.65685424949238,25.65685424949238 27.65685424949238,28.76268279072263 22.0,23.10582854123025 10.0,20.0" />
<polygon fill="rgba(255,255,255,0.75)" stroke-width="1" stroke-dasharray="" stroke="black" points="10.0,45.5 22.0,42.39417145876975 27.65685424949238,48.05102570826213 15.65685424949238,51.15685424949238" />
<polygon fill="none" stroke-width="1" stroke-dasharray="2" stroke="gray" points="15.65685424949238,56.15685424949238 27.65685424949238,59.262682790722636 22.0,53.60582854123025 10.0,50.5" />
<polygon fill="rgba(255,255,255,0.75)" stroke-width="1" stroke-dasharray="" stroke="black" points="10.0,76.0 22.0,72.89417145876975 27.65685424949238,78.55102570826213 15.65685424949238,81.65685424949238" />
<polygon fill="none" stroke-width="1" stroke-dasharray="2" stroke="gray" points="22.0,23.11582854123025 27.65685424949238,28.772682790722637 27.65685424949238,15.65685424949238 22.0,10.0 22.0,23.11582854123025" />
<polygon fill="none" stroke-width="1" stroke-dasharray="2" stroke="gray" points="22.0,42.38417145876975 22.0,53.61582854123024 27.65685424949238,59.27268279072263 27.65685424949238,48.04102570826214 22.0,42.38417145876975" />
<polygon fill="none" stroke-width="1" stroke-dasharray="2" stroke="gray" points="22.0,72.88417145876974 22.0,86.0 27.65685424949238,91.65685424949238 27.65685424949238,78.54102570826213 22.0,72.88417145876974" />
<polygon fill="none" stroke-width="1" stroke-dasharray="2" stroke="gray" points="397.98999999999995,10.0 22.009999999999998,10.0 22.009999999999998,10.0 27.666854249492427,15.65685424949238 403.6468542494924,15.65685424949238 397.98999999999995,10.0" />
<polygon fill="rgba(192,192,192,0.75)" stroke-width="1" stroke-dasharray="" stroke="black" points="397.98999999999995,86.0 403.6468542494924,91.65685424949238 27.666854249492427,91.65685424949238 22.009999999999998,86.0 22.009999999999998,86.0 397.98999999999995,86.0" />
<polygon fill="rgba(255,255,255,0.75)" stroke-width="1" stroke-dasharray="" stroke="black" points="403.65685424949237,28.77268279072263 398.0,23.115828541230258 398.0,10.0 403.65685424949237,15.65685424949238 403.65685424949237,28.77268279072263" />
<polygon fill="rgba(255,255,255,0.75)" stroke-width="1" stroke-dasharray="" stroke="black" points="403.65685424949237,48.041025708262126 403.65685424949237,59.27268279072263 398.0,53.61582854123025 398.0,42.38417145876976 403.65685424949237,48.041025708262126" />
<polygon fill="rgba(255,255,255,0.75)" stroke-width="1" stroke-dasharray="" stroke="black" points="403.65685424949237,78.54102570826213 403.65685424949237,91.65685424949238 398.0,86.0 398.0,72.88417145876974 403.65685424949237,78.54102570826213" />
<polygon fill="none" stroke-width="1" stroke-dasharray="2" stroke="gray" points="410.0,20.0 398.0,23.10582854123025 403.65685424949237,28.76268279072263 415.65685424949237,25.65685424949238" />
<polygon fill="rgba(192,192,192,0.75)" stroke-width="1" stroke-dasharray="" stroke="silver" points="415.65685424949237,51.15685424949238 403.65685424949237,48.05102570826213 398.0,42.39417145876975 410.0,45.5" />
<polygon fill="none" stroke-width="1" stroke-dasharray="2" stroke="gray" points="410.0,50.5 398.0,53.60582854123025 403.65685424949237,59.262682790722636 415.65685424949237,56.15685424949238" />
<polygon fill="rgba(192,192,192,0.75)" stroke-width="1" stroke-dasharray="" stroke="silver" points="415.65685424949237,81.65685424949238 403.65685424949237,78.55102570826213 398.0,72.89417145876975 410.0,76.0" />
<polygon fill="rgba(255,255,255,0.75)" stroke-width="1" stroke-dasharray="" stroke="black" points="415.65685424949237,25.646854249492378 415.65685424949237,51.166854249492374 410.0,45.51 410.0,19.989999999999995 415.65685424949237,25.646854249492378" />
<polygon fill="rgba(255,255,255,0.75)" stroke-width="1" stroke-dasharray="" stroke="black" points="415.65685424949237,56.14685424949238 415.65685424949237,81.66685424949239 410.0,76.01 410.0,50.49 415.65685424949237,56.14685424949238" />
<polygon fill="rgba(255,255,255,0.75)" stroke-width="1" stroke-dasharray="" stroke="black" points="410.0,75.98741611602227 397.99,72.88417145876974 397.99,86.0 22.009999999999998,86.0 22.009999999999998,72.88417145876974 10.0,75.98741611602226 10.0,75.98741611602226 10.0,50.512583883977726 10.0,50.512583883977726 22.009999999999998,53.61582854123025 22.009999999999998,42.38417145876975 10.0,45.487416116022274 10.0,20.012583883977726 22.009999999999998,23.11582854123025 22.009999999999998,10.0 22.009999999999998,10.0 397.99000000000007,10.0 397.99000000000007,10.0 397.99,23.11582854123025 410.0,20.012583883977726 410.0,45.48741611602228 397.99,42.38417145876975 397.99,53.61582854123025 410.0,50.512583883977726 410.0,50.512583883977726 410.0,75.98741611602227" />
<text style="" text-anchor="middle" x="210.0" y="48.0" fill="black">box front</text>
<polygon fill="none" stroke-width="1" stroke-dasharray="2" stroke="gray" points="403.6468542494923,183.65685424949237 403.6468542494924,170.5410257082621 415.65685424949237,173.64427036551464 415.65685424949237,148.1694381334701 403.6468542494924,151.27268279072263 403.6468542494924,140.0410257082621 415.65685424949237,143.14427036551464 415.65685424949237,143.14427036551464 415.65685424949237,117.66943813347011 415.65685424949237,117.66943813347011 403.6468542494924,120.77268279072263 403.6468542494924,107.65685424949238 27.666854249492427,107.65685424949238 27.666854249492378,120.77268279072263 15.65685424949238,117.66943813347011 15.65685424949238,117.66943813347011 15.65685424949238,143.14427036551464 15.65685424949238,143.14427036551464 27.666854249492378,140.0410257082621 27.666854249492378,151.27268279072263 15.65685424949238,148.1694381334701 15.65685424949238,173.64427036551461 27.666854249492378,170.5410257082621 27.666854249492427,183.65685424949237 27.666854249492427,183.65685424949237 403.6468542494923,183.65685424949237" />
<polygon fill="none" stroke-width="1" stroke-dasharray="2" stroke="gray" points="10.0,111.99 10.0,137.51 15.65685424949238,143.16685424949236 15.65685424949238,117.64685424949238 10.0,111.99" />
<polygon fill="none" stroke-width="1" stroke-dasharray="2" stroke="gray" points="10.0,142.49 10.0,168.01 15.65685424949238,173.66685424949236 15.65685424949238,148.14685424949238 10.0,142.49" />
<polygon fill="none" stroke-width="1" stroke-dasharray="2" stroke="gray" points="15.65685424949238,117.65685424949238 27.65685424949238,120.76268279072264 22.0,115.10582854123025 10.0,112.0" />
<polygon fill="rgba(255,255,255,0.75)" stroke-width="1" stroke-dasharray="" stroke="black" points="10.0,137.5 22.0,134.39417145876973 27.65685424949238,140.0510257082621 15.65685424949238,143.15685424949237" />
<polygon fill="none" stroke-width="1" stroke-dasharray="2" stroke="gray" points="15.65685424949238,148.15685424949237 27.65685424949238,151.26268279072264 22.0,145.60582854123027 10.0,142.5" />
<polygon fill="rgba(255,255,255,0.75)" stroke-width="1" stroke-dasharray="" stroke="black" points="10.0,168.0 22.0,164.89417145876973 27.65685424949238,170.5510257082621 15.65685424949238,173.65685424949237" />
<polygon fill="none" stroke-width="1" stroke-dasharray="2" stroke="gray" points="22.0,115.11582854123024 27.65685424949238,120.77268279072264 27.65685424949238,107.65685424949238 22.0,102.0 22.0,115.11582854123024" />
<polygon fill="none" stroke-width="1" stroke-dasharray="2" stroke="gray" points="22.0,134.38417145876974 22.0,145.61582854123026 27.65685424949238,151.27268279072263 27.65685424949238,140.0410257082621 22.0,134.38417145876974" />
<polygon fill="none" stroke-width="1" stroke-dasharray="2" stroke="gray" points="22.0,164.88417145876974 22.0,178.0 27.65685424949238,183.65685424949237 27.65685424949238,170.5410257082621 22.0,164.88417145876974" />
<polygon fill="none" stroke-width="1" stroke-dasharray="2" stroke="gray" points="397.98999999999995,102.0 22.009999999999998,102.0 22.009999999999998,102.0 27.666854249492427,107.65685424949238 403.6468542494924,107.65685424949238 397.98999999999995,102.0" />
<polygon fill="rgba(192,192,192,0.75)" stroke-width="1" stroke-dasharray="" stroke="black" points="397.98999999999995,178.0 403.6468542494924,183.65685424949237 27.666854249492427,183.65685424949237 22.009999999999998,178.0 22.009999999999998,178.0 397.98999999999995,178.0" />
<polygon fill="rgba(255,255,255,0.75)" stroke-width="1" stroke-dasharray="" stroke="black" points="403.65685424949237,120.77268279072263 398.0,115.11582854123026 398.0,102.0 403.65685424949237,107.65685424949238 403.65685424949237,120.77268279072263" />
<polygon fill="rgba(255,255,255,0.75)" stroke-width="1" stroke-dasharray="" stroke="black" points="403.65685424949237,140.0410257082621 403.65685424949237,151.27268279072263 398.0,145.61582854123026 398.0,134.38417145876974 403.65685424949237,140.0410257082621" />
<polygon fill="rgba(255,255,255,0.75)" stroke-width="1" stroke-dasharray="" stroke="black" points="403.65685424949237,170.5410257082621 403.65685424949237,183.65685424949237 398.0,178.0 398.0,164.88417145876974 403.65685424949237,170.5410257082621" />
<polygon fill="none" stroke-width="1" stroke-dasharray="2" stroke="gray" points="410.0,112.0 398.0,115.10582854123025 403.65685424949237,120.76268279072264 415.65685424949237,117.65685424949238" />
<polygon fill="rgba(192,192,192,0.75)" stroke-width="1" stroke-dasharray="" stroke="silver" points="415.65685424949237,143.15685424949237 403.65685424949237,140.0510257082621 398.0,134.39417145876973 410.0,137.5" />
<polygon fill="none" stroke-width="1" stroke-dasharray="2" stroke="gray" points="410.0,142.5 398.0,145.60582854123027 403.65685424949237,151.26268279072264 415.65685424949237,148.15685424949237" />
<polygon fill="rgba(192,192,192,0.75)" stroke-width="1" stroke-dasharray="" stroke="silver" points="415.65685424949237,173.65685424949237 403.65685424949237,170.5510257082621 398.0,164.89417145876973 410.0,168.0" />
<polygon fill="rgba(255,255,255,0.75)" stroke-width="1" stroke-dasharray="" stroke="black" points="415.65685424949237,117.64685424949238 415.65685424949237,143.16685424949236 410.0,137.51 410.0,111.99 415.65685424949237,117.64685424949238" />
<polygon fill="rgba(255,255,255,0.75)" stroke-width="1" stroke-dasharray="" stroke="black" points="415.65685424949237,148.14685424949238 415.65685424949237,173.66685424949236 410.0,168.01 410.0,142.49 415.65685424949237,148.14685424949238" />
<polygon fill="rgba(255,255,255,0.75)" stroke-width="1" stroke-dasharray="" stroke="black" points="410.0,167.98741611602227 397.99,164.88417145876974 397.99,178.0 22.009999999999998,178.0 22.009999999999998,164.88417145876974 10.0,167.98741611602225 10.0,167.98741611602225 10.0,142.51258388397773 10.0,142.51258388397773 22.009999999999998,145.61582854123026 22.009999999999998,134.38417145876974 10.0,137.48741611602227 10.0,112.01258388397773 22.009999999999998,115.11582854123024 22.009999999999998,102.0 22.009999999999998,102.0 397.99000000000007,102.0 397.99000000000007,102.0 397.99,115.11582854123024 410.0,112.01258388397773 410.0,137.48741611602227 397.99,134.38417145876974 397.99,145.61582854123026 410.0,142.51258388397773 410.0,142.51258388397773 410.0,167.98741611602227" />
<text style="" text-anchor="middle" x="210.0" y="140.0" fill="black">box back</text>
<polygon fill="none" stroke-width="1" stroke-dasharray="2" stroke="gray" points="215.65685424949237,243.25268279072262 215.65685424949237,232.0610257082621 215.65685424949237,232.0610257082621 203.64685424949238,232.06102570826212 203.64685424949238,212.75268279072262 215.65685424949237,212.75268279072262 215.65685424949237,199.65685424949237 15.65685424949238,199.65685424949237 15.65685424949238,212.75268279072262 15.65685424949238,212.75268279072262 27.666854249492378,212.75268279072262 27.666854249492378,232.06102570826212 15.65685424949238,232.06102570826212 15.65685424949238,243.25268279072262 27.666854249492378,243.25268279072262 27.666854249492378,262.5610257082621 15.65685424949238,262.5610257082621 15.65685424949238,262.5610257082621 15.65685424949238,275.65685424949237 215.65685424949237,275.65685424949237 215.65685424949237,262.5610257082621 203.64685424949238,262.5610257082621 203.64685424949238,243.25268279072262 215.65685424949237,243.25268279072262" />
<polygon fill="none" stroke-width="1" stroke-dasharray="2" stroke="gray" points="10.0,204.01387260416612 15.65685424949238,212.7688101865565 15.65685424949238,199.65685424949237 10.0,194.0 10.0,204.01387260416612" />
<polygon fill="none" stroke-width="1" stroke-dasharray="2" stroke="gray" points="10.0,229.48612739583388 10.0,234.51387260416612 15.65685424949238,243.2688101865565 15.65685424949238,232.04489831242824 10.0,229.48612739583388" />
<polygon fill="none" stroke-width="1" stroke-dasharray="2" stroke="gray" points="10.0,259.9861273958339 10.0,270.0 15.65685424949238,275.65685424949237 15.65685424949238,262.54489831242824 10.0,259.9861273958339" />
<polygon fill="rgba(255,255,255,0.75)" stroke-width="1" stroke-dasharray="" stroke="black" points="10.0,204.0 22.0,204.0 27.65685424949238,212.7626827907226 15.65685424949238,212.7626827907226" />
<polygon fill="none" stroke-width="1" stroke-dasharray="2" stroke="gray" points="15.65685424949238,232.0510257082621 27.65685424949238,232.0510257082621 22.0,229.5 10.0,229.5" />
<polygon fill="rgba(255,255,255,0.75)" stroke-width="1" stroke-dasharray="" stroke="black" points="10.0,234.5 22.0,234.5 27.65685424949238,243.26268279072264 15.65685424949238,243.26268279072264" />
<polygon fill="none" stroke-width="1" stroke-dasharray="2" stroke="gray" points="15.65685424949238,262.5510257082621 27.65685424949238,262.5510257082621 22.0,260.0 10.0,260.0" />
<polygon fill="none" stroke-width="1" stroke-dasharray="2" stroke="gray" points="22.0,203.9938726041661 22.0,229.50612739583386 27.65685424949238,232.06489831242823 27.65685424949238,212.7488101865565 22.0,203.9938726041661" />
<polygon fill="none" stroke-width="1" stroke-dasharray="2" stroke="gray" points="22.0,234.4938726041661 22.0,260.0061273958339 27.65685424949238,262.5648983124282 27.65685424949238,243.2488101865565 22.0,234.4938726041661" />
<polygon fill="none" stroke-width="1" stroke-dasharray="2" stroke="gray" points="15.65685424949238,199.65685424949237 215.65685424949237,199.65685424949237 210.0,194.0 10.0,194.0" />
<polygon fill="rgba(192,192,192,0.75)" stroke-width="1" stroke-dasharray="" stroke="black" points="10.0,270.0 210.0,270.0 215.65685424949237,275.65685424949237 15.65685424949238,275.65685424949237" />
<polygon fill="rgba(255,255,255,0.75)" stroke-width="1" stroke-dasharray="" stroke="black" points="203.65685424949237,212.74881018655648 203.65685424949237,232.06489831242823 198.0,229.50612739583386 198.0,203.9938726041661 203.65685424949237,212.74881018655648" />
<polygon fill="rgba(255,255,255,0.75)" stroke-width="1" stroke-dasharray="" stroke="black" points="203.65685424949237,243.24881018655648 203.65685424949237,262.5648983124282 198.0,260.0061273958339 198.0,234.49387260416614 203.65685424949237,243.24881018655648" />
<polygon fill="rgba(255,255,255,0.75)" stroke-width="1" stroke-dasharray="" stroke="black" points="215.65685424949237,212.7626827907226 203.65685424949237,212.7626827907226 198.0,204.0 210.0,204.0" />
<polygon fill="none" stroke-width="1" stroke-dasharray="2" stroke="gray" points="210.0,229.5 198.0,229.5 203.65685424949237,232.0510257082621 215.65685424949237,232.0510257082621" />
<polygon fill="rgba(255,255,255,0.75)" stroke-width="1" stroke-dasharray="" stroke="black" points="215.65685424949237,243.26268279072264 203.65685424949237,243.26268279072264 198.0,234.5 210.0,234.5" />
<polygon fill="none" stroke-width="1" stroke-dasharray="2" stroke="gray" points="210.0,260.0 198.0,260.0 203.65685424949237,262.5510257082621 215.65685424949237,262.5510257082621" />
<polygon fill="rgba(255,255,255,0.75)" stroke-width="1" stroke-dasharray="" stroke="black" points="215.65685424949237,212.7688101865565 210.0,204.01387260416612 210.0,194.0 215.65685424949237,199.65685424949237 215.65685424949237,212.7688101865565" />
<polygon fill="rgba(255,255,255,0.75)" stroke-width="1" stroke-dasharray="" stroke="black" points="215.65685424949237,232.04489831242824 215.65685424949237,243.2688101865565 210.0,234.51387260416612 210.0,229.48612739583388 215.65685424949237,232.04489831242824" />
<polygon fill="rgba(255,255,255,0.75)" stroke-width="1" stroke-dasharray="" stroke="black" points="215.65685424949237,262.54489831242824 215.65685424949237,275.65685424949237 210.0,270.0 210.0,259.9861273958339 215.65685424949237,262.54489831242824" />
<polygon fill="rgba(255,255,255,0.75)" stroke-width="1" stroke-dasharray="" stroke="black" points="210.0,260.01 210.0,270.0 10.0,270.0 10.0,260.01 22.009999999999998,260.01 22.009999999999998,234.49 10.0,234.49 10.0,234.49 10.0,229.51 10.0,229.51 22.009999999999998,229.51 22.009999999999998,203.99 10.0,203.99 10.0,194.0 210.0,194.0 210.0,203.99 210.0,203.99 197.99,203.99 197.99,229.51 210.0,229.51 210.0,234.49 197.99,234.49 197.99,260.01 210.0,260.01" />
<text style="" text-anchor="middle" x="110.0" y="232.0" fill="black">box left</text>
<polygon fill="none" stroke-width="1" stroke-dasharray="2" stroke="gray" points="215.65685424949237,335.25268279072264 215.65685424949237,324.0610257082621 215.65685424949237,324.0610257082621 203.64685424949238,324.0610257082621 203.64685424949238,304.75268279072264 215.65685424949237,304.75268279072264 215.65685424949237,291.65685424949237 15.65685424949238,291.65685424949237 15.65685424949238,304.75268279072264 15.65685424949238,304.75268279072264 27.666854249492378,304.75268279072264 27.666854249492378,324.0610257082621 15.65685424949238,324.0610257082621 15.65685424949238,335.25268279072264 27.666854249492378,335.25268279072264 27.666854249492378,354.5610257082621 15.65685424949238,354.5610257082621 15.65685424949238,354.5610257082621 15.65685424949238,367.65685424949237 215.65685424949237,367.65685424949237 215.65685424949237,354.5610257082621 203.64685424949238,354.5610257082621 203.64685424949238,335.25268279072264 215.65685424949237,335.25268279072264" />
<polygon fill="none" stroke-width="1" stroke-dasharray="2" stroke="gray" points="10.0,296.0138726041661 15.65685424949238,304.7688101865565 15.65685424949238,291.65685424949237 10.0,286.0 10.0,296.0138726041661" />
<polygon fill="none" stroke-width="1" stroke-dasharray="2" stroke="gray" points="10.0,321.4861273958339 10.0,326.5138726041661 15.65685424949238,335.2688101865565 15.65685424949238,324.04489831242824 10.0,321.4861273958339" />
<polygon fill="none" stroke-width="1" stroke-dasharray="2" stroke="gray" points="10.0,351.9861273958339 10.0,362.0 15.65685424949238,367.65685424949237 15.65685424949238,354.54489831242824 10.0,351.9861273958339" />
<polygon fill="rgba(255,255,255,0.75)" stroke-width="1" stroke-dasharray="" stroke="black" points="10.0,296.0 22.0,296.0 27.65685424949238,304.76268279072264 15.65685424949238,304.76268279072264" />
<polygon fill="none" stroke-width="1" stroke-dasharray="2" stroke="gray" points="15.65685424949238,324.0510257082621 27.65685424949238,324.0510257082621 22.0,321.5 10.0,321.5" />
<polygon fill="rgba(255,255,255,0.75)" stroke-width="1" stroke-dasharray="" stroke="black" points="10.0,326.5 22.0,326.5 27.65685424949238,335.26268279072264 15.65685424949238,335.26268279072264" />
<polygon fill="none" stroke-width="1" stroke-dasharray="2" stroke="gray" points="15.65685424949238,354.5510257082621 27.65685424949238,354.5510257082621 22.0,352.0 10.0,352.0" />
<polygon fill="none" stroke-width="1" stroke-dasharray="2" stroke="gray" points="22.0,295.99387260416614 22.0,321.50612739583386 27.65685424949238,324.0648983124282 27.65685424949238,304.7488101865565 22.0,295.99387260416614" />
<polygon fill="none" stroke-width="1" stroke-dasharray="2" stroke="gray" points="22.0,326.49387260416614 22.0,352.0061273958339 27.65685424949238,354.5648983124282 27.65685424949238,335.2488101865565 22.0,326.49387260416614" />
<polygon fill="none" stroke-width="1" stroke-dasharray="2" stroke="gray" points="15.65685424949238,291.65685424949237 215.65685424949237,291.65685424949237 210.0,286.0 10.0,286.0" />
<polygon fill="rgba(192,192,192,0.75)" stroke-width="1" stroke-dasharray="" stroke="black" points="10.0,362.0 210.0,362.0 215.65685424949237,367.65685424949237 15.65685424949238,367.65685424949237" />
<polygon fill="rgba(255,255,255,0.75)" stroke-width="1" stroke-dasharray="" stroke="black" points="203.65685424949237,304.7488101865565 203.65685424949237,324.0648983124282 198.0,321.50612739583386 198.0,295.9938726041661 203.65685424949237,304.7488101865565" />
<polygon fill="rgba(255,255,255,0.75)" stroke-width="1" stroke-dasharray="" stroke="black" points="203.65685424949237,335.2488101865565 203.65685424949237,354.5648983124282 198.0,352.0061273958339 198.0,326.49387260416614 203.65685424949237,335.2488101865565" />
<polygon fill="rgba(255,255,255,0.75)" stroke-width="1" stroke-dasharray="" stroke="black" points="215.65685424949237,304.76268279072264 203.65685424949237,304.76268279072264 198.0,296.0 210.0,296.0" />
<polygon fill="none" stroke-width="1" stroke-dasharray="2" stroke="gray" points="210.0,321.5 198.0,321.5 203.65685424949237,324.0510257082621 215.65685424949237,324.0510257082621" />
<polygon fill="rgba(255,255,255,0.75)" stroke-width="1" stroke-dasharray="" stroke="black" points="215.65685424949237,335.26268279072264 203.65685424949237,335.26268279072264 198.0,326.5 210.0,326.5" />
<polygon fill="none" stroke-width="1" stroke-dasharray="2" stroke="gray" points="210.0,352.0 198.0,352.0 203.65685424949237,354.5510257082621 215.65685424949237,354.5510257082621" />
<polygon fill="rgba(255,255,255,0.75)" stroke-width="1" stroke-dasharray="" stroke="black" points="215.65685424949237,304.7688101865565 210.0,296.0138726041661 210.0,286.0 215.65685424949237,291.65685424949237 215.65685424949237,304.7688101865565" />
<polygon fill="rgba(255,255,255,0.75)" stroke-width="1" stroke-dasharray="" stroke="black" points="215.65685424949237,324.04489831242824 215.65685424949237,335.2688101865565 210.0,326.5138726041661 210.0,321.4861273958339 215.65685424949237,324.04489831242824" />
<polygon fill="rgba(255,255,255,0.75)" stroke-width="1" stroke-dasharray="" stroke="black" points="215.65685424949237,354.54489831242824 215.65685424949237,367.65685424949237 210.0,362.0 210.0,351.9861273958339 215.65685424949237,354.54489831242824" />
<polygon fill="rgba(255,255,255,0.75)" stroke-width="1" stroke-dasharray="" stroke="black" points="210.0,352.01 210.0,362.0 10.0,362.0 10.0,352.01 22.009999999999998,352.01 22.009999999999998,326.49 10.0,326.49 10.0,326.49 10.0,321.51 10.0,321.51 22.009999999999998,321.51 22.009999999999998,295.99 10.0,295.99 10.0,286.0 210.0,286.0 210.0,295.99 210.0,295.99 197.99,295.99 197.99,321.51 210.0,321.51 210.0,326.49 197.99,326.49 197.99,352.01 210.0,352.01" />
<text style="" text-anchor="middle" x="110.0" y="324.0" fill="black">box right</text>
<polygon fill="none" stroke-width="1" stroke-dasharray="2" stroke="gray" points="15.65685424949238,383.65685424949237 15.65685424949238,567.6568542494924 399.65685424949237,567.6568542494924 399.65685424949237,383.65685424949237" />
<polygon fill="none" stroke-width="1" stroke-dasharray="2" stroke="gray" points="10.0,378.0 10.0,562.0 15.65685424949238,567.6568542494924 15.65685424949238,383.65685424949237" />
<polygon fill="none" stroke-width="1" stroke-dasharray="2" stroke="gray" points="15.65685424949238,383.65685424949237 399.65685424949237,383.65685424949237 394.0,378.0 10.0,378.0" />
<polygon fill="rgba(192,192,192,0.75)" stroke-width="1" stroke-dasharray="" stroke="black" points="10.0,562.0 394.0,562.0 399.65685424949237,567.6568542494924 15.65685424949238,567.6568542494924" />
<polygon fill="rgba(255,255,255,0.75)" stroke-width="1" stroke-dasharray="" stroke="black" points="399.65685424949237,383.65685424949237 399.65685424949237,567.6568542494924 394.0,562.0 394.0,378.0" />
<polygon fill="rgba(255,255,255,0.75)" stroke-width="1" stroke-dasharray="" stroke="black" points="10.0,378.0 394.0,378.0 394.0,562.0 10.0,562.0" />
<text style="" text-anchor="middle" x="202.0" y="470.0" fill="black">box lid</text>
<polygon fill="none" stroke-width="1" stroke-dasharray="2" stroke="gray" points="12.121320343559642,580.1213203435597 12.121320343559642,780.1213203435597 412.12132034355966,780.1213203435597 412.12132034355966,580.1213203435597" />
<polygon fill="none" stroke-width="1" stroke-dasharray="2" stroke="gray" points="10.0,578.0 10.0,778.0 12.121320343559642,780.1213203435597 12.121320343559642,580.1213203435597" />
<polygon fill="none" stroke-width="1" stroke-dasharray="2" stroke="gray" points="12.121320343559642,580.1213203435597 412.12132034355966,580.1213203435597 410.0,578.0 10.0,578.0" />
<polygon fill="rgba(192,192,192,0.75)" stroke-width="1" stroke-dasharray="" stroke="black" points="10.0,778.0 410.0,778.0 412.12132034355966,780.1213203435597 12.121320343559642,780.1213203435597" />
<polygon fill="rgba(255,255,255,0.75)" stroke-width="1" stroke-dasharray="" stroke="black" points="412.12132034355966,580.1213203435597 412.12132034355966,780.1213203435597 410.0,778.0 410.0,578.0" />
<polygon fill="rgba(255,255,255,0.75)" stroke-width="1" stroke-dasharray="" stroke="black" points="10.0,578.0 410.0,578.0 410.0,778.0 10.0,778.0" />
<text style="" text-anchor="middle" x="210.0" y="678.0" fill="black">box bottom</text>
<polygon fill="none" stroke-width="1" stroke-dasharray="2" stroke="gray" points="20.606601717798213,794.6066017177982 20.606601717798213,809.6066017177982 220.6066017177982,809.6066017177982 220.6066017177982,794.6066017177982" />
<polygon fill="none" stroke-width="1" stroke-dasharray="2" stroke="gray" points="10.0,784.0 10.0,799.0 20.606601717798213,809.6066017177982 20.606601717798213,794.6066017177982" />
<polygon fill="none" stroke-width="1" stroke-dasharray="2" stroke="gray" points="20.606601717798213,794.6066017177982 220.6066017177982,794.6066017177982 210.0,784.0 10.0,784.0" />
<polygon fill="rgba(192,192,192,0.75)" stroke-width="1" stroke-dasharray="" stroke="black" points="10.0,799.0 210.0,799.0 220.6066017177982,809.6066017177982 20.606601717798213,809.6066017177982" />
<polygon fill="rgba(255,255,255,0.75)" stroke-width="1" stroke-dasharray="" stroke="black" points="220.6066017177982,794.6066017177982 220.6066017177982,809.6066017177982 210.0,799.0 210.0,784.0" />
<polygon fill="rgba(255,255,255,0.75)" stroke-width="1" stroke-dasharray="" stroke="black" points="10.0,784.0 210.0,784.0 210.0,799.0 10.0,799.0" />
<text style="" text-anchor="middle" x="110.0" y="791.5" fill="black">wedge</text>
<polygon fill="none" stroke-width="1" stroke-dasharray="2" stroke="gray" points="15.65685424949238,834.6568542494924 15.65685424949238,864.6568542494924 215.65685424949237,864.6568542494924 215.65685424949237,834.6568542494924" />
<polygon fill="none" stroke-width="1" stroke-dasharray="2" stroke="gray" points="10.0,829.0 10.0,859.0 15.65685424949238,864.6568542494924 15.65685424949238,834.6568542494924" />
<polygon fill="none" stroke-width="1" stroke-dasharray="2" stroke="gray" points="15.65685424949238,834.6568542494924 215.65685424949237,834.6568542494924 210.0,829.0 10.0,829.0" />
<polygon fill="rgba(192,192,192,0.75)" stroke-width="1" stroke-dasharray="" stroke="black" points="10.0,859.0 210.0,859.0 215.65685424949237,864.6568542494924 15.65685424949238,864.6568542494924" />
<polygon fill="rgba(255,255,255,0.75)" stroke-width="1" stroke-dasharray="" stroke="black" points="215.65685424949237,834.6568542494924 215.65685424949237,864.6568542494924 210.0,859.0 210.0,829.0" />
<polygon fill="rgba(255,255,255,0.75)" stroke-width="1" stroke-dasharray="" stroke="black" points="10.0,829.0 210.0,829.0 210.0,859.0 10.0,859.0" />
<text style="" text-anchor="middle" x="110.0" y="844.0" fill="black">bottom brace</text>
<polygon fill="none" stroke-width="1" stroke-dasharray="2" stroke="gray" points="15.65685424949238,880.6568542494924 15.65685424949238,910.6568542494924 215.65685424949237,910.6568542494924 215.65685424949237,880.6568542494924" />
<polygon fill="none" stroke-width="1" stroke-dasharray="2" stroke="gray" points="10.0,875.0 10.0,905.0 15.65685424949238,910.6568542494924 15.65685424949238,880.6568542494924" />
<polygon fill="none" stroke-width="1" stroke-dasharray="2" stroke="gray" points="15.65685424949238,880.6568542494924 215.65685424949237,880.6568542494924 210.0,875.0 10.0,875.0" />
<polygon fill="rgba(192,192,192,0.75)" stroke-width="1" stroke-dasharray="" stroke="black" points="10.0,905.0 210.0,905.0 215.65685424949237,910.6568542494924 15.65685424949238,910.6568542494924" />
<polygon fill="rgba(255,255,255,0.75)" stroke-width="1" stroke-dasharray="" stroke="black" points="215.65685424949237,880.6568542494924 215.65685424949237,910.6568542494924 210.0,905.0 210.0,875.0" />
<polygon fill="rgba(255,255,255,0.75)" stroke-width="1" stroke-dasharray="" stroke="black" points="10.0,875.0 210.0,875.0 210.0,905.0 10.0,905.0" />
<text style="" text-anchor="middle" x="110.0" y="890.0" fill="black">batten</text>
<polygon fill="none" stroke-width="1" stroke-dasharray="2" stroke="gray" points="15.65685424949238,926.6568542494924 15.65685424949238,956.6568542494924 215.65685424949237,956.6568542494924 215.65685424949237,926.6568542494924" />
<polygon fill="none" stroke-width="1" stroke-dasharray="2" stroke="gray" points="10.0,921.0 10.0,951.0 15.65685424949238,956.6568542494924 15.65685424949238,926.6568542494924" />
<polygon fill="none" stroke-width="1" stroke-dasharray="2" stroke="gray" points="15.65685424949238,926.6568542494924 215.65685424949237,926.6568542494924 210.0,921.0 10.0,921.0" />
<polygon fill="rgba(192,192,192,0.75)" stroke-width="1" stroke-dasharray="" stroke="black" points="10.0,951.0 210.0,951.0 215.65685424949237,956.6568542494924 15.65685424949238,956.6568542494924" />
<polygon fill="rgba(255,255,255,0.75)" stroke-width="1" stroke-dasharray="" stroke="black" points="215.65685424949237,926.6568542494924 215.65685424949237,956.6568542494924 210.0,951.0 210.0,921.0" />
<polygon fill="rgba(255,255,255,0.75)" stroke-width="1" stroke-dasharray="" stroke="black" points="10.0,921.0 210.0,921.0 210.0,951.0 10.0,951.0" />
<text style="" text-anchor="middle" x="110.0" y="936.0" fill="black">batten</text>
<polygon fill="none" stroke-width="1" stroke-dasharray="2" stroke="gray" points="15.65685424949238,972.6568542494924 15.65685424949238,1002.6568542494924 215.65685424949237,1002.6568542494924 215.65685424949237,972.6568542494924" />
<polygon fill="none" stroke-width="1" stroke-dasharray="2" stroke="gray" points="10.0,967.0 10.0,997.0 15.65685424949238,1002.6568542494924 15.65685424949238,972.6568542494924" />
<polygon fill="none" stroke-width="1" stroke-dasharray="2" stroke="gray" points="15.65685424949238,972.6568542494924 215.65685424949237,972.6568542494924 210.0,967.0 10.0,967.0" />
<polygon fill="rgba(192,192,192,0.75)" stroke-width="1" stroke-dasharray="" stroke="black" points="10.0,997.0 210.0,997.0 215.65685424949237,1002.6568542494924 15.65685424949238,1002.6568542494924" />
<polygon fill="rgba(255,255,255,0.75)" stroke-width="1" stroke-dasharray="" stroke="black" points="215.65685424949237,972.6568542494924 215.65685424949237,1002.6568542494924 210.0,997.0 210.0,967.0" />
<polygon fill="rgba(255,255,255,0.75)" stroke-width="1" stroke-dasharray="" stroke="black" points="10.0,967.0 210.0,967.0 210.0,997.0 10.0,997.0" />
<text style="" text-anchor="middle" x="110.0" y="982.0" fill="black">batten</text>
</svg>
