<svg width="1100" viewBox="0 0 550 364.5477272147525" xmlns="http://www.w3.org/2000/svg">
<polygon fill="none" stroke-width="1" stroke-dasharray="2" stroke="gray" points="405.5966017177982,50.60660171779821 405.5966017177982,36.714316041260396 420.6066017177982,40.594016973672694 420.6066017177982,30.619186461923732 405.5966017177982,34.49888739433602 405.5966017177982,20.606601717798213 405.5966017177982,20.606601717798213 35.61660171779815,20.606601717798213 35.61660171779821,34.49888739433602 20.606601717798213,30.61918646192374 20.606601717798213,30.61918646192374 20.606601717798213,40.59401697367269 20.606601717798213,40.59401697367269 35.61660171779821,36.714316041260396 35.61660171779821,50.60660171779821 405.5966017177982,50.60660171779821" />
<polygon fill="none" stroke-width="1" stroke-dasharray="2" stroke="gray" points="10.0,19.990000000000002 10.0,30.01 20.606601717798213,40.61660171779821 20.606601717798213,30.596601717798215 10.0,19.990000000000002" />
<polygon fill="none" stroke-width="1" stroke-dasharray="2" stroke="gray" points="20.606601717798213,30.606601717798213 35.60660171779821,34.488887394336025 25.0,23.882285676537812 10.0,20.0" />
<polygon fill="rgba(255,255,255,0.75)" stroke-width="1" stroke-dasharray="" stroke="black" points="10.0,30.0 25.0,26.117714323462188 35.60660171779821,36.7243160412604 20.606601717798213,40.60660171779821" />
<polygon fill="none" stroke-width="1" stroke-dasharray="2" stroke="gray" points="25.0,23.89228567653781 35.60660171779821,34.49888739433602 35.60660171779821,20.606601717798213 25.0,10.0 25.0,23.89228567653781" />
<polygon fill="none" stroke-width="1" stroke-dasharray="2" stroke="gray" points="25.0,26.107714323462186 25.0,40.0 35.60660171779821,50.60660171779821 35.60660171779821,36.714316041260396 25.0,26.107714323462186" />
<polygon fill="none" stroke-width="1" stroke-dasharray="2" stroke="gray" points="394.99000000000007,10.0 25.009999999999998,10.0 25.009999999999998,10.0 35.616601717798204,20.606601717798213 405.5966017177982,20.606601717798213 394.99000000000007,10.0" />
<polygon fill="rgba(192,192,192,0.75)" stroke-width="1" stroke-dasharray="" stroke="black" points="394.99000000000007,40.0 405.5966017177982,50.60660171779821 35.616601717798204,50.60660171779821 25.009999999999998,40.0 25.009999999999998,40.0 394.99000000000007,40.0" />
<polygon fill="rgba(255,255,255,0.75)" stroke-width="1" stroke-dasharray="" stroke="black" points="405.6066017177982,34.49888739433602 395.0,23.89228567653781 395.0,10.0 405.6066017177982,20.606601717798213 405.6066017177982,34.49888739433602" />
<polygon fill="rgba(255,255,255,0.75)" stroke-width="1" stroke-dasharray="" stroke="black" points="405.6066017177982,36.714316041260396 405.6066017177982,50.60660171779821 395.0,40.0 395.0,26.107714323462186 405.6066017177982,36.714316041260396" />
<polygon fill="none" stroke-width="1" stroke-dasharray="2" stroke="gray" points="410.0,20.0 395.0,23.882285676537812 405.6066017177982,34.488887394336025 420.6066017177982,30.606601717798213" />
<polygon fill="rgba(192,192,192,0.75)" stroke-width="1" stroke-dasharray="" stroke="silver" points="420.6066017177982,40.60660171779821 405.6066017177982,36.7243160412604 395.0,26.117714323462188 410.0,30.0" />
<polygon fill="rgba(255,255,255,0.75)" stroke-width="1" stroke-dasharray="" stroke="black" points="420.6066017177982,30.596601717798215 420.6066017177982,40.61660171779821 410.0,30.01 410.0,19.990000000000002 420.6066017177982,30.596601717798215" />
<polygon fill="rgba(255,255,255,0.75)" stroke-width="1" stroke-dasharray="" stroke="black" points="410.0,29.987415255874478 394.99,26.107714323462186 394.99,40.0 25.00999999999999,40.0 25.00999999999999,40.0 25.009999999999998,26.107714323462186 10.0,29.987415255874474 10.0,20.012584744125522 25.009999999999998,23.89228567653781 25.01,10.0 25.01,10.0 394.99,10.0 394.99,23.89228567653781 410.0,20.01258474412552 410.0,20.01258474412552 410.0,29.987415255874478" />
<text style="" text-anchor="middle" x="210.0" y="25.0" fill="black">till front</text>
<polygon fill="none" stroke-width="1" stroke-dasharray="2" stroke="gray" points="405.5966017177982,111.21320343559643 405.5966017177982,97.32091775905862 420.6066017177982,101.20061869147091 420.6066017177982,91.22578817972195 405.5966017177982,95.10548911213424 405.5966017177982,81.21320343559643 405.5966017177982,81.21320343559643 35.61660171779815,81.21320343559643 35.61660171779821,95.10548911213424 20.606601717798213,91.22578817972195 20.606601717798213,91.22578817972195 20.606601717798213,101.20061869147091 20.606601717798213,101.20061869147091 35.61660171779821,97.32091775905862 35.61660171779821,111.21320343559643 405.5966017177982,111.21320343559643" />
<polygon fill="none" stroke-width="1" stroke-dasharray="2" stroke="gray" points="10.0,80.59660171779821 10.0,90.61660171779822 20.606601717798213,101.22320343559643 20.606601717798213,91.20320343559644 10.0,80.59660171779821" />
<polygon fill="none" stroke-width="1" stroke-dasharray="2" stroke="gray" points="20.606601717798213,91.21320343559643 35.60660171779821,95.09548911213423 25.0,84.48888739433602 10.0,80.60660171779821" />
<polygon fill="rgba(255,255,255,0.75)" stroke-width="1" stroke-dasharray="" stroke="black" points="10.0,90.60660171779821 25.0,86.72431604126041 35.60660171779821,97.33091775905862 20.606601717798213,101.21320343559643" />
<polygon fill="none" stroke-width="1" stroke-dasharray="2" stroke="gray" points="25.0,84.49888739433602 35.60660171779821,95.10548911213424 35.60660171779821,81.21320343559643 25.0,70.60660171779821 25.0,84.49888739433602" />
<polygon fill="none" stroke-width="1" stroke-dasharray="2" stroke="gray" points="25.0,86.7143160412604 25.0,100.60660171779821 35.60660171779821,111.21320343559643 35.60660171779821,97.32091775905862 25.0,86.7143160412604" />
<polygon fill="none" stroke-width="1" stroke-dasharray="2" stroke="gray" points="394.99000000000007,70.60660171779821 25.009999999999998,70.60660171779821 25.009999999999998,70.60660171779821 35.616601717798204,81.21320343559643 405.5966017177982,81.21320343559643 394.99000000000007,70.60660171779821" />
<polygon fill="rgba(192,192,192,0.75)" stroke-width="1" stroke-dasharray="" stroke="black" points="394.99000000000007,100.60660171779821 405.5966017177982,111.21320343559643 35.616601717798204,111.21320343559643 25.009999999999998,100.60660171779821 25.009999999999998,100.60660171779821 394.99000000000007,100.60660171779821" />
<polygon fill="rgba(255,255,255,0.75)" stroke-width="1" stroke-dasharray="" stroke="black" points="405.6066017177982,95.10548911213424 395.0,84.49888739433602 395.0,70.60660171779821 405.6066017177982,81.21320343559643 405.6066017177982,95.10548911213424" />
<polygon fill="rgba(255,255,255,0.75)" stroke-width="1" stroke-dasharray="" stroke="black" points="405.6066017177982,97.32091775905862 405.6066017177982,111.21320343559643 395.0,100.60660171779821 395.0,86.7143160412604 405.6066017177982,97.32091775905862" />
<polygon fill="none" stroke-width="1" stroke-dasharray="2" stroke="gray" points="410.0,80.60660171779821 395.0,84.48888739433602 405.6066017177982,95.09548911213423 420.6066017177982,91.21320343559643" />
<polygon fill="rgba(192,192,192,0.75)" stroke-width="1" stroke-dasharray="" stroke="silver" points="420.6066017177982,101.21320343559643 405.6066017177982,97.33091775905862 395.0,86.72431604126041 410.0,90.60660171779821" />
<polygon fill="rgba(255,255,255,0.75)" stroke-width="1" stroke-dasharray="" stroke="black" points="420.6066017177982,91.20320343559642 420.6066017177982,101.22320343559643 410.0,90.61660171779822 410.0,80.59660171779822 420.6066017177982,91.20320343559642" />
<polygon fill="rgba(255,255,255,0.75)" stroke-width="1" stroke-dasharray="" stroke="black" points="410.0,90.5940169736727 394.99,86.7143160412604 394.99,100.60660171779821 25.00999999999999,100.60660171779821 25.00999999999999,100.60660171779821 25.009999999999998,86.7143160412604 10.0,90.5940169736727 10.0,80.61918646192373 25.009999999999998,84.49888739433602 25.01,70.60660171779821 25.01,70.60660171779821 394.99,70.60660171779821 394.99,84.49888739433602 410.0,80.61918646192373 410.0,80.61918646192373 410.0,90.5940169736727" />
<text style="" text-anchor="middle" x="210.0" y="85.60660171779821" fill="black">till back</text>
<polygon fill="none" stroke-width="1" stroke-dasharray="2" stroke="gray" points="120.60660171779821,155.69209082993245 120.60660171779821,141.81980515339464 20.606601717798213,141.81980515339464 20.606601717798213,155.69209082993245 20.606601717798213,155.69209082993245 35.61660171779821,155.69209082993245 35.61660171779821,157.94751947685683 20.606601717798213,157.94751947685683 20.606601717798213,171.81980515339464 120.60660171779821,171.81980515339464 120.60660171779821,157.94751947685683 105.59660171779821,157.94751947685683 105.59660171779821,155.69209082993245 120.60660171779821,155.69209082993245" />
<polygon fill="none" stroke-width="1" stroke-dasharray="2" stroke="gray" points="10.0,141.22578817972195 20.606601717798213,155.70950608580694 20.606601717798213,141.81980515339464 10.0,131.21320343559643 10.0,141.22578817972195" />
<polygon fill="none" stroke-width="1" stroke-dasharray="2" stroke="gray" points="10.0,151.2006186914709 10.0,161.21320343559643 20.606601717798213,171.81980515339464 20.606601717798213,157.93010422098234 10.0,151.2006186914709" />
<polygon fill="rgba(255,255,255,0.75)" stroke-width="1" stroke-dasharray="" stroke="black" points="10.0,141.21320343559643 25.0,141.21320343559643 35.60660171779821,155.70209082993244 20.606601717798213,155.70209082993244" />
<polygon fill="none" stroke-width="1" stroke-dasharray="2" stroke="gray" points="20.606601717798213,157.93751947685683 35.60660171779821,157.93751947685683 25.0,151.21320343559643 10.0,151.21320343559643" />
<polygon fill="none" stroke-width="1" stroke-dasharray="2" stroke="gray" points="25.0,141.20578817972196 25.0,151.22061869147092 35.60660171779821,157.95010422098235 35.60660171779821,155.68950608580693 25.0,141.20578817972196" />
<polygon fill="none" stroke-width="1" stroke-dasharray="2" stroke="gray" points="20.606601717798213,141.81980515339464 120.60660171779821,141.81980515339464 110.0,131.21320343559643 10.0,131.21320343559643" />
<polygon fill="rgba(192,192,192,0.75)" stroke-width="1" stroke-dasharray="" stroke="black" points="10.0,161.21320343559643 110.0,161.21320343559643 120.60660171779821,171.81980515339464 20.606601717798213,171.81980515339464" />
<polygon fill="rgba(255,255,255,0.75)" stroke-width="1" stroke-dasharray="" stroke="black" points="105.60660171779821,155.68950608580693 105.60660171779821,157.95010422098235 95.0,151.22061869147092 95.0,141.20578817972196 105.60660171779821,155.68950608580693" />
<polygon fill="rgba(255,255,255,0.75)" stroke-width="1" stroke-dasharray="" stroke="black" points="120.60660171779821,155.70209082993244 105.60660171779821,155.70209082993244 95.0,141.21320343559643 110.0,141.21320343559643" />
<polygon fill="none" stroke-width="1" stroke-dasharray="2" stroke="gray" points="110.0,151.21320343559643 95.0,151.21320343559643 105.60660171779821,157.93751947685683 120.60660171779821,157.93751947685683" />
<polygon fill="rgba(255,255,255,0.75)" stroke-width="1" stroke-dasharray="" stroke="black" points="120.60660171779821,155.70950608580694 110.0,141.22578817972195 110.0,131.21320343559643 120.60660171779821,141.81980515339464 120.60660171779821,155.70950608580694" />
<polygon fill="rgba(255,255,255,0.75)" stroke-width="1" stroke-dasharray="" stroke="black" points="120.60660171779821,157.93010422098234 120.60660171779821,171.81980515339464 110.0,161.21320343559643 110.0,151.2006186914709 120.60660171779821,157.93010422098234" />
<polygon fill="rgba(255,255,255,0.75)" stroke-width="1" stroke-dasharray="" stroke="black" points="110.0,151.22320343559642 110.0,161.21320343559643 10.0,161.21320343559643 10.0,151.22320343559642 10.0,151.22320343559642 25.009999999999998,151.22320343559642 25.009999999999998,141.20320343559644 10.0,141.20320343559644 10.0,131.21320343559643 110.0,131.21320343559643 110.0,141.20320343559644 94.99,141.20320343559644 94.99,151.22320343559642 110.0,151.22320343559642" />
<text style="" text-anchor="middle" x="60.0" y="146.21320343559643" fill="black">till left</text>
<polygon fill="none" stroke-width="1" stroke-dasharray="2" stroke="gray" points="120.60660171779821,216.29869254773067 120.60660171779821,202.42640687119285 20.606601717798213,202.42640687119285 20.606601717798213,216.29869254773067 20.606601717798213,216.29869254773067 35.61660171779821,216.29869254773067 35.61660171779821,218.55412119465504 20.606601717798213,218.55412119465504 20.606601717798213,232.42640687119285 120.60660171779821,232.42640687119285 120.60660171779821,218.55412119465504 105.59660171779821,218.55412119465504 105.59660171779821,216.29869254773067 120.60660171779821,216.29869254773067" />
<polygon fill="none" stroke-width="1" stroke-dasharray="2" stroke="gray" points="10.0,201.83238989752016 20.606601717798213,216.31610780360515 20.606601717798213,202.42640687119285 10.0,191.81980515339464 10.0,201.83238989752016" />
<polygon fill="none" stroke-width="1" stroke-dasharray="2" stroke="gray" points="10.0,211.80722040926912 10.0,221.81980515339464 20.606601717798213,232.42640687119285 20.606601717798213,218.53670593878056 10.0,211.80722040926912" />
<polygon fill="rgba(255,255,255,0.75)" stroke-width="1" stroke-dasharray="" stroke="black" points="10.0,201.81980515339464 25.0,201.81980515339464 35.60660171779821,216.30869254773066 20.606601717798213,216.30869254773066" />
<polygon fill="none" stroke-width="1" stroke-dasharray="2" stroke="gray" points="20.606601717798213,218.54412119465505 35.60660171779821,218.54412119465505 25.0,211.81980515339464 10.0,211.81980515339464" />
<polygon fill="none" stroke-width="1" stroke-dasharray="2" stroke="gray" points="25.0,201.81238989752018 25.0,211.8272204092691 35.60660171779821,218.55670593878057 35.60660171779821,216.29610780360514 25.0,201.81238989752018" />
<polygon fill="none" stroke-width="1" stroke-dasharray="2" stroke="gray" points="20.606601717798213,202.42640687119285 120.60660171779821,202.42640687119285 110.0,191.81980515339464 10.0,191.81980515339464" />
<polygon fill="rgba(192,192,192,0.75)" stroke-width="1" stroke-dasharray="" stroke="black" points="10.0,221.81980515339464 110.0,221.81980515339464 120.60660171779821,232.42640687119285 20.606601717798213,232.42640687119285" />
<polygon fill="rgba(255,255,255,0.75)" stroke-width="1" stroke-dasharray="" stroke="black" points="105.60660171779821,216.29610780360514 105.60660171779821,218.55670593878057 95.0,211.8272204092691 95.0,201.81238989752018 105.60660171779821,216.29610780360514" />
<polygon fill="rgba(255,255,255,0.75)" stroke-width="1" stroke-dasharray="" stroke="black" points="120.60660171779821,216.30869254773066 105.60660171779821,216.30869254773066 95.0,201.81980515339464 110.0,201.81980515339464" />
<polygon fill="none" stroke-width="1" stroke-dasharray="2" stroke="gray" points="110.0,211.81980515339464 95.0,211.81980515339464 105.60660171779821,218.54412119465505 120.60660171779821,218.54412119465505" />
<polygon fill="rgba(255,255,255,0.75)" stroke-width="1" stroke-dasharray="" stroke="black" points="120.60660171779821,216.31610780360515 110.0,201.83238989752016 110.0,191.81980515339464 120.60660171779821,202.42640687119285 120.60660171779821,216.31610780360515" />
<polygon fill="rgba(255,255,255,0.75)" stroke-width="1" stroke-dasharray="" stroke="black" points="120.60660171779821,218.53670593878056 120.60660171779821,232.42640687119285 110.0,221.81980515339464 110.0,211.80722040926912 120.60660171779821,218.53670593878056" />
<polygon fill="rgba(255,255,255,0.75)" stroke-width="1" stroke-dasharray="" stroke="black" points="110.0,211.82980515339463 110.0,221.81980515339464 10.0,221.81980515339464 10.0,211.82980515339463 10.0,211.82980515339463 25.009999999999998,211.82980515339463 25.009999999999998,201.80980515339465 10.0,201.80980515339465 10.0,191.81980515339464 110.0,191.81980515339464 110.0,201.80980515339465 94.99,201.80980515339465 94.99,211.82980515339463 110.0,211.82980515339463" />
<text style="" text-anchor="middle" x="60.0" y="206.81980515339464" fill="black">till right</text>
<polygon fill="none" stroke-width="1" stroke-dasharray="2" stroke="gray" points="12.121320343559642,254.54772721475248 12.121320343559642,354.5477272147525 412.12132034355966,354.5477272147525 412.12132034355966,254.54772721475248" />
<polygon fill="none" stroke-width="1" stroke-dasharray="2" stroke="gray" points="10.0,252.42640687119285 10.0,352.42640687119285 12.121320343559642,354.5477272147525 12.121320343559642,254.54772721475248" />
<polygon fill="none" stroke-width="1" stroke-dasharray="2" stroke="gray" points="12.121320343559642,254.54772721475248 412.12132034355966,254.54772721475248 410.0,252.42640687119285 10.0,252.42640687119285" />
<polygon fill="rgba(192,192,192,0.75)" stroke-width="1" stroke-dasharray="" stroke="black" points="10.0,352.42640687119285 410.0,352.42640687119285 412.12132034355966,354.5477272147525 12.121320343559642,354.5477272147525" />
<polygon fill="rgba(255,255,255,0.75)" stroke-width="1" stroke-dasharray="" stroke="black" points="412.12132034355966,254.54772721475248 412.12132034355966,354.5477272147525 410.0,352.42640687119285 410.0,252.42640687119285" />
<polygon fill="rgba(255,255,255,0.75)" stroke-width="1" stroke-dasharray="" stroke="black" points="10.0,252.42640687119285 410.0,252.42640687119285 410.0,352.42640687119285 10.0,352.42640687119285" />
<text style="" text-anchor="middle" x="210.0" y="302.42640687119285" fill="black">till bottom</text>
</svg>
