<svg width="1600" viewBox="0.0 -112.9 800.0 125.7" xmlns="http://www.w3.org/2000/svg">
<polygon fill="none" stroke-width="1" stroke-dasharray="2" stroke="gray" points="181.9,-102.9 196.9,-99.0 196.9,-112.9 181.9,-112.9 181.9,-102.9" />
<polygon fill="none" stroke-width="1" stroke-dasharray="2" stroke="gray" points="181.9,-92.9 181.9,-82.9 196.9,-82.9 196.9,-96.8 181.9,-92.9" />
<polygon fill="none" stroke-width="1" stroke-dasharray="2" stroke="gray" points="181.9,-92.9 196.9,-96.8 196.9,-82.9 566.9,-82.9 566.9,-82.9 566.9,-96.8 581.9,-92.9 581.9,-102.9 566.9,-99.0 566.9,-112.9 566.9,-112.9 196.9,-112.9 196.9,-99.0 181.9,-102.9 181.9,-102.9 181.9,-92.9" />
<polygon fill="none" stroke-width="1" stroke-dasharray="2" stroke="gray" points="181.9,-82.9 181.9,-79.9 581.9,-79.9 581.9,-82.9" />
<polygon fill="none" stroke-width="1" stroke-dasharray="2" stroke="gray" points="566.9,-99.0 581.9,-102.9 581.9,-112.9 566.9,-112.9 566.9,-99.0" />
<polygon fill="none" stroke-width="1" stroke-dasharray="2" stroke="gray" points="566.9,-96.8 566.9,-82.9 581.9,-82.9 581.9,-92.9 566.9,-96.8" />
<polygon fill="none" stroke-width="1" stroke-dasharray="2" stroke="gray" points="171.3,-92.3 171.3,-82.3 181.9,-92.9 181.9,-102.9 171.3,-92.3" />
<polygon fill="rgba(255,255,255,0.75)" stroke-width="1" stroke-dasharray="" stroke="black" points="181.9,-102.9 196.9,-99.0 186.3,-88.4 171.3,-92.3" />
<polygon fill="none" stroke-width="1" stroke-dasharray="2" stroke="gray" points="181.9,-102.9 171.3,-92.3 186.3,-88.4 196.9,-99.0" />
<polygon fill="none" stroke-width="1" stroke-dasharray="2" stroke="gray" points="171.3,-82.3 186.3,-86.2 196.9,-96.8 181.9,-92.9" />
<polygon fill="rgba(255,255,255,0.75)" stroke-width="1" stroke-dasharray="" stroke="silver" points="196.9,-96.8 186.3,-86.2 171.3,-82.3 181.9,-92.9" />
<polygon fill="none" stroke-width="1" stroke-dasharray="2" stroke="gray" points="186.3,-88.4 196.9,-99.0 196.9,-112.9 186.3,-102.3 186.3,-88.4" />
<polygon fill="none" stroke-width="1" stroke-dasharray="2" stroke="gray" points="186.3,-86.2 186.3,-72.3 196.9,-82.9 196.9,-96.8 186.3,-86.2" />
<polygon fill="rgba(255,255,255,0.75)" stroke-width="1" stroke-dasharray="" stroke="black" points="196.9,-112.9 566.9,-112.9 566.9,-112.9 556.3,-102.3 186.3,-102.3 196.9,-112.9" />
<polygon fill="none" stroke-width="1" stroke-dasharray="2" stroke="gray" points="196.9,-82.9 186.3,-72.3 556.3,-72.3 566.9,-82.9 566.9,-82.9 196.9,-82.9" />
<polygon fill="rgba(255,255,255,0.75)" stroke-width="1" stroke-dasharray="" stroke="black" points="566.9,-99.0 556.3,-88.4 556.3,-102.3 566.9,-112.9 566.9,-99.0" />
<polygon fill="rgba(255,255,255,0.75)" stroke-width="1" stroke-dasharray="" stroke="black" points="566.9,-96.8 566.9,-82.9 556.3,-72.3 556.3,-86.2 566.9,-96.8" />
<polygon fill="none" stroke-width="1" stroke-dasharray="2" stroke="gray" points="566.9,-99.0 556.3,-88.4 571.3,-92.3 581.9,-102.9" />
<polygon fill="rgba(255,255,255,0.75)" stroke-width="1" stroke-dasharray="" stroke="silver" points="571.3,-92.3 556.3,-88.4 566.9,-99.0 581.9,-102.9" />
<polygon fill="rgba(255,255,255,0.75)" stroke-width="1" stroke-dasharray="" stroke="black" points="581.9,-92.9 571.3,-82.3 556.3,-86.2 566.9,-96.8" />
<polygon fill="none" stroke-width="1" stroke-dasharray="2" stroke="gray" points="581.9,-92.9 566.9,-96.8 556.3,-86.2 571.3,-82.3" />
<polygon fill="rgba(255,255,255,0.75)" stroke-width="1" stroke-dasharray="" stroke="black" points="581.9,-102.9 581.9,-92.9 571.3,-82.3 571.3,-92.3 581.9,-102.9" />
<polygon fill="none" stroke-width="1" stroke-dasharray="2" stroke="gray" points="171.3,-92.3 171.3,-82.3 186.3,-86.2 186.3,-88.4 171.3,-92.3" />
<polygon fill="rgba(255,255,255,0.75)" stroke-width="1" stroke-dasharray="" stroke="black" points="186.3,-72.3 186.3,-86.2 171.3,-82.3 171.3,-92.3 186.3,-88.4 186.3,-102.3 186.3,-102.3 556.3,-102.3 556.3,-88.4 571.3,-92.3 571.3,-92.3 571.3,-82.3 571.3,-82.3 556.3,-86.2 556.3,-72.3 186.3,-72.3" />
<polygon fill="none" stroke-width="1" stroke-dasharray="2" stroke="gray" points="556.3,-88.4 556.3,-86.2 571.3,-82.3 571.3,-92.3 556.3,-88.4" />
<polygon fill="none" stroke-width="1" stroke-dasharray="2" stroke="gray" points="111.2,-22.2 111.2,-12.2 181.9,-82.9 181.9,-92.9 181.9,-92.9 171.3,-82.3 171.3,-92.3 181.9,-102.9 181.9,-112.9 111.2,-42.2 111.2,-32.2 121.8,-42.8 121.8,-32.8 111.2,-22.2" />
<polygon fill="rgba(255,255,255,0.75)" stroke-width="1" stroke-dasharray="" stroke="black" points="196.9,-112.9 126.2,-42.2 111.2,-42.2 181.9,-112.9" />
<polygon fill="none" stroke-width="1" stroke-dasharray="2" stroke="gray" points="181.9,-82.9 111.2,-12.2 126.2,-12.2 196.9,-82.9" />
<polygon fill="rgba(255,255,255,0.75)" stroke-width="1" stroke-dasharray="" stroke="black" points="126.2,-28.3 126.2,-42.2 196.9,-112.9 196.9,-99.0 196.9,-99.0 186.3,-88.4 186.3,-86.2 196.9,-96.8 196.9,-82.9 126.2,-12.2 126.2,-26.1 136.8,-36.7 136.8,-38.9 126.2,-28.3" />
<polygon fill="none" stroke-width="1" stroke-dasharray="2" stroke="gray" points="111.2,-12.2 111.2,-9.2 181.9,-79.9 181.9,-82.9" />
<polygon fill="rgba(255,255,255,0.75)" stroke-width="1" stroke-dasharray="" stroke="black" points="181.9,-82.9 581.9,-82.9 511.2,-12.2 111.2,-12.2" />
<polygon fill="none" stroke-width="1" stroke-dasharray="2" stroke="gray" points="111.2,-9.2 511.2,-9.2 581.9,-79.9 181.9,-79.9" />
<polygon fill="none" stroke-width="1" stroke-dasharray="2" stroke="gray" points="566.9,-99.0 566.9,-112.9 496.2,-42.2 496.2,-28.3 496.2,-28.3 506.8,-38.9 506.8,-36.7 496.2,-26.1 496.2,-12.2 566.9,-82.9 566.9,-96.8 556.3,-86.2 556.3,-88.4 566.9,-99.0" />
<polygon fill="rgba(255,255,255,0.75)" stroke-width="1" stroke-dasharray="" stroke="black" points="496.2,-42.2 566.9,-112.9 581.9,-112.9 511.2,-42.2" />
<polygon fill="none" stroke-width="1" stroke-dasharray="2" stroke="gray" points="511.2,-12.2 581.9,-82.9 566.9,-82.9 496.2,-12.2" />
<polygon fill="rgba(255,255,255,0.75)" stroke-width="1" stroke-dasharray="" stroke="black" points="581.9,-92.9 581.9,-82.9 511.2,-12.2 511.2,-22.2 511.2,-22.2 521.8,-32.8 521.8,-42.8 511.2,-32.2 511.2,-42.2 581.9,-112.9 581.9,-102.9 571.3,-92.3 571.3,-82.3 581.9,-92.9" />
<polygon fill="rgba(255,255,255,0.75)" stroke-width="1" stroke-dasharray="" stroke="black" points="581.9,-82.9 581.9,-79.9 511.2,-9.2 511.2,-12.2" />
<polygon fill="rgba(255,255,255,0.75)" stroke-width="1" stroke-dasharray="" stroke="black" points="136.8,-38.9 136.8,-36.7 121.8,-32.8 121.8,-42.8 136.8,-38.9" />
<polygon fill="none" stroke-width="1" stroke-dasharray="2" stroke="gray" points="506.8,-22.8 506.8,-36.7 521.8,-32.8 521.8,-42.8 506.8,-38.9 506.8,-52.8 506.8,-52.8 136.8,-52.8 136.8,-38.9 121.8,-42.8 121.8,-42.8 121.8,-32.8 121.8,-32.8 136.8,-36.7 136.8,-22.8 506.8,-22.8" />
<polygon fill="rgba(255,255,255,0.75)" stroke-width="1" stroke-dasharray="" stroke="black" points="521.8,-42.8 521.8,-32.8 506.8,-36.7 506.8,-38.9 521.8,-42.8" />
<polygon fill="none" stroke-width="1" stroke-dasharray="2" stroke="gray" points="126.2,-28.3 136.8,-38.9 121.8,-42.8 111.2,-32.2" />
<polygon fill="rgba(255,255,255,0.75)" stroke-width="1" stroke-dasharray="" stroke="silver" points="111.2,-22.2 121.8,-32.8 136.8,-36.7 126.2,-26.1" />
<polygon fill="none" stroke-width="1" stroke-dasharray="2" stroke="gray" points="111.2,-32.2 111.2,-22.2 121.8,-32.8 121.8,-42.8 111.2,-32.2" />
<polygon fill="rgba(255,255,255,0.75)" stroke-width="1" stroke-dasharray="" stroke="black" points="121.8,-42.8 136.8,-38.9 126.2,-28.3 111.2,-32.2" />
<polygon fill="none" stroke-width="1" stroke-dasharray="2" stroke="gray" points="111.2,-22.2 126.2,-26.1 136.8,-36.7 121.8,-32.8" />
<polygon fill="none" stroke-width="1" stroke-dasharray="2" stroke="gray" points="126.2,-28.3 136.8,-38.9 136.8,-52.8 126.2,-42.2 126.2,-28.3" />
<polygon fill="none" stroke-width="1" stroke-dasharray="2" stroke="gray" points="126.2,-26.1 126.2,-12.2 136.8,-22.8 136.8,-36.7 126.2,-26.1" />
<polygon fill="rgba(255,255,255,0.75)" stroke-width="1" stroke-dasharray="" stroke="black" points="496.2,-42.2 126.2,-42.2 126.2,-42.2 136.8,-52.8 506.8,-52.8 496.2,-42.2" />
<polygon fill="none" stroke-width="1" stroke-dasharray="2" stroke="gray" points="496.2,-12.2 506.8,-22.8 136.8,-22.8 126.2,-12.2 126.2,-12.2 496.2,-12.2" />
<polygon fill="rgba(255,255,255,0.75)" stroke-width="1" stroke-dasharray="" stroke="black" points="506.8,-38.9 496.2,-28.3 496.2,-42.2 506.8,-52.8 506.8,-38.9" />
<polygon fill="rgba(255,255,255,0.75)" stroke-width="1" stroke-dasharray="" stroke="black" points="506.8,-36.7 506.8,-22.8 496.2,-12.2 496.2,-26.1 506.8,-36.7" />
<polygon fill="rgba(255,255,255,0.75)" stroke-width="1" stroke-dasharray="" stroke="silver" points="511.2,-32.2 496.2,-28.3 506.8,-38.9 521.8,-42.8" />
<polygon fill="none" stroke-width="1" stroke-dasharray="2" stroke="gray" points="511.2,-32.2 521.8,-42.8 506.8,-38.9 496.2,-28.3" />
<polygon fill="none" stroke-width="1" stroke-dasharray="2" stroke="gray" points="521.8,-32.8 506.8,-36.7 496.2,-26.1 511.2,-22.2" />
<polygon fill="rgba(255,255,255,0.75)" stroke-width="1" stroke-dasharray="" stroke="black" points="496.2,-26.1 506.8,-36.7 521.8,-32.8 511.2,-22.2" />
<polygon fill="rgba(255,255,255,0.75)" stroke-width="1" stroke-dasharray="" stroke="black" points="521.8,-42.8 521.8,-32.8 511.2,-22.2 511.2,-32.2 521.8,-42.8" />
<polygon fill="rgba(255,255,255,0.75)" stroke-width="1" stroke-dasharray="" stroke="black" points="126.2,-28.3 111.2,-32.2 111.2,-42.2 126.2,-42.2 126.2,-28.3" />
<polygon fill="rgba(255,255,255,0.75)" stroke-width="1" stroke-dasharray="" stroke="black" points="126.2,-26.1 126.2,-12.2 111.2,-12.2 111.2,-22.2 126.2,-26.1" />
<polygon fill="rgba(255,255,255,0.75)" stroke-width="1" stroke-dasharray="" stroke="black" points="511.2,-22.2 496.2,-26.1 496.2,-12.2 126.2,-12.2 126.2,-12.2 126.2,-26.1 111.2,-22.2 111.2,-32.2 126.2,-28.3 126.2,-42.2 126.2,-42.2 496.2,-42.2 496.2,-28.3 511.2,-32.2 511.2,-32.2 511.2,-22.2" />
<polygon fill="rgba(255,255,255,0.75)" stroke-width="1" stroke-dasharray="" stroke="black" points="111.2,-12.2 511.2,-12.2 511.2,-9.2 111.2,-9.2" />
<polygon fill="rgba(255,255,255,0.75)" stroke-width="1" stroke-dasharray="" stroke="black" points="511.2,-32.2 496.2,-28.3 496.2,-42.2 511.2,-42.2 511.2,-32.2" />
<polygon fill="rgba(255,255,255,0.75)" stroke-width="1" stroke-dasharray="" stroke="black" points="511.2,-22.2 511.2,-12.2 496.2,-12.2 496.2,-26.1 511.2,-22.2" />
<polyline fill="none" stroke-width="1" stroke-dasharray="2" stroke="gray" points="91.2,-42.2 91.2,-12.2" />
<polyline fill="none" stroke-width="1" stroke-dasharray="" stroke="gray" points="89.2,-38.2 91.2,-42.2 93.2,-38.2" />
<polyline fill="none" stroke-width="1" stroke-dasharray="" stroke="gray" points="89.2,-16.2 91.2,-12.2 93.2,-16.2" />
<polyline fill="none" stroke-width="1" stroke-dasharray="2" stroke="silver" points="111.2,-12.2 91.2,-12.2" />
<polyline fill="none" stroke-width="1" stroke-dasharray="2" stroke="silver" points="111.2,-42.2 91.2,-42.2" />
<rect x="86.19595949289332" y="-44.69595949289331" width="10" height="35" style="fill: rgba(255,255,255,0.75); stroke: none; stroke-width: 1;" />
<text style="font-size:12px" text-anchor="middle" x="0" y="0" fill="black" transform="translate(94.19595949289332 -27.19595949289331) rotate(-90)">30.0</text>
<polyline fill="none" stroke-width="1" stroke-dasharray="2" stroke="gray" points="111.2,7.8 511.2,7.8" />
<polyline fill="none" stroke-width="1" stroke-dasharray="" stroke="gray" points="115.2,5.8 111.2,7.8 115.2,9.8" />
<polyline fill="none" stroke-width="1" stroke-dasharray="" stroke="gray" points="507.2,5.8 511.2,7.8 507.2,9.8" />
<polyline fill="none" stroke-width="1" stroke-dasharray="2" stroke="silver" points="511.2,-12.2 511.2,7.8" />
<polyline fill="none" stroke-width="1" stroke-dasharray="2" stroke="silver" points="111.2,-12.2 111.2,7.8" />
<rect x="291.19595949289334" y="2.8040405071066914" width="40" height="10" style="fill: rgba(255,255,255,0.75); stroke: none; stroke-width: 1;" />
<text style="font-size:12px" text-anchor="middle" x="311.19595949289334" y="10.804040507106691" fill="black">400.0</text>
<polyline fill="none" stroke-width="1" stroke-dasharray="2" stroke="gray" points="511.2,7.8 581.9,-62.9" />
<polyline fill="none" stroke-width="1" stroke-dasharray="" stroke="gray" points="515.2,5.8 511.2,7.8 515.2,9.8" />
<polyline fill="none" stroke-width="1" stroke-dasharray="" stroke="gray" points="577.9,-64.9 581.9,-62.9 577.9,-60.9" />
<polyline fill="none" stroke-width="1" stroke-dasharray="2" stroke="silver" points="581.9,-82.9 581.9,-62.9" />
<polyline fill="none" stroke-width="1" stroke-dasharray="2" stroke="silver" points="511.2,-12.2 511.2,7.8" />
<rect x="526.5512985522207" y="-32.551298552220686" width="40" height="10" style="fill: rgba(255,255,255,0.75); stroke: none; stroke-width: 1;" />
<text style="font-size:12px" text-anchor="middle" x="546.5512985522207" y="-24.551298552220686" fill="black">100.0</text>
</svg>
