<svg width="1100" viewBox="0.0 -82.0 550.0 234.0" xmlns="http://www.w3.org/2000/svg">
<polygon fill="none" stroke-width="1" stroke-dasharray="" stroke="black" points="20.0,50.0 32.0,53.1 32.0,20.0 20.0,20.0 20.0,50.0" />
<polygon fill="none" stroke-width="1" stroke-dasharray="" stroke="black" points="20.0,68.5 20.0,83.5 32.0,86.6 32.0,65.4 20.0,68.5" />
<polygon fill="none" stroke-width="1" stroke-dasharray="" stroke="black" points="20.0,102.0 20.0,132.0 32.0,132.0 32.0,125.0 27.0,125.0 27.0,120.0 32.0,120.0 32.0,98.9 20.0,102.0" />
<polygon fill="none" stroke-width="1" stroke-dasharray="" stroke="black" points="20.0,102.0 32.0,98.9 32.0,132.0 432.0,132.0 432.0,98.9 444.0,102.0 444.0,102.0 444.0,83.5 444.0,83.5 432.0,86.6 432.0,65.4 444.0,68.5 444.0,50.0 432.0,53.1 432.0,20.0 432.0,20.0 32.0,20.0 32.0,20.0 32.0,53.1 20.0,50.0 20.0,68.5 32.0,65.4 32.0,86.6 20.0,83.5 20.0,83.5 20.0,102.0" />
<polygon fill="none" stroke-width="1" stroke-dasharray="" stroke="black" points="20.0,120.0 20.0,135.0 444.0,135.0 444.0,120.0" />
<polygon fill="none" stroke-width="1" stroke-dasharray="" stroke="black" points="432.0,53.1 444.0,50.0 444.0,20.0 432.0,20.0 432.0,53.1" />
<polygon fill="none" stroke-width="1" stroke-dasharray="" stroke="black" points="432.0,65.4 432.0,86.6 444.0,83.5 444.0,68.5 432.0,65.4" />
<polygon fill="none" stroke-width="1" stroke-dasharray="" stroke="black" points="432.0,98.9 432.0,120.0 437.0,120.0 437.0,125.0 432.0,125.0 432.0,132.0 444.0,132.0 444.0,102.0 432.0,98.9" />
<polygon fill="none" stroke-width="1" stroke-dasharray="" stroke="black" points="20.0,50.0 20.0,68.5 20.0,68.5 20.0,50.0 20.0,50.0" />
<polygon fill="none" stroke-width="1" stroke-dasharray="" stroke="black" points="20.0,83.5 20.0,102.0 20.0,102.0 20.0,83.5 20.0,83.5" />
<polygon fill="none" stroke-width="1" stroke-dasharray="" stroke="black" points="20.0,50.0 32.0,53.1 32.0,53.1 20.0,50.0" />
<polygon fill="none" stroke-width="1" stroke-dasharray="" stroke="black" points="20.0,50.0 20.0,50.0 32.0,53.1 32.0,53.1" />
<polygon fill="none" stroke-width="1" stroke-dasharray="" stroke="black" points="20.0,68.5 32.0,65.4 32.0,65.4 20.0,68.5" />
<polygon fill="none" stroke-width="1" stroke-dasharray="" stroke="black" points="32.0,65.4 32.0,65.4 20.0,68.5 20.0,68.5" />
<polygon fill="none" stroke-width="1" stroke-dasharray="" stroke="black" points="20.0,83.5 32.0,86.6 32.0,86.6 20.0,83.5" />
<polygon fill="none" stroke-width="1" stroke-dasharray="" stroke="black" points="20.0,83.5 20.0,83.5 32.0,86.6 32.0,86.6" />
<polygon fill="none" stroke-width="1" stroke-dasharray="" stroke="black" points="20.0,102.0 32.0,98.9 32.0,98.9 20.0,102.0" />
<polygon fill="none" stroke-width="1" stroke-dasharray="" stroke="black" points="32.0,98.9 32.0,98.9 20.0,102.0 20.0,102.0" />
<polygon fill="none" stroke-width="1" stroke-dasharray="" stroke="black" points="32.0,53.1 32.0,53.1 32.0,20.0 32.0,20.0 32.0,53.1" />
<polygon fill="none" stroke-width="1" stroke-dasharray="" stroke="black" points="32.0,65.4 32.0,86.6 32.0,86.6 32.0,65.4 32.0,65.4" />
<polygon fill="none" stroke-width="1" stroke-dasharray="" stroke="black" points="32.0,98.9 32.0,120.0 32.0,120.0 32.0,125.0 32.0,125.0 32.0,132.0 32.0,132.0 32.0,98.9 32.0,98.9" />
<polygon fill="none" stroke-width="1" stroke-dasharray="" stroke="black" points="32.0,20.0 432.0,20.0 432.0,20.0 432.0,20.0 32.0,20.0 32.0,20.0" />
<polygon fill="none" stroke-width="1" stroke-dasharray="" stroke="black" points="32.0,132.0 32.0,132.0 432.0,132.0 432.0,132.0 432.0,132.0 32.0,132.0" />
<polygon fill="none" stroke-width="1" stroke-dasharray="" stroke="black" points="432.0,53.1 432.0,53.1 432.0,20.0 432.0,20.0 432.0,53.1" />
<polygon fill="none" stroke-width="1" stroke-dasharray="" stroke="black" points="432.0,65.4 432.0,86.6 432.0,86.6 432.0,65.4 432.0,65.4" />
<polygon fill="none" stroke-width="1" stroke-dasharray="" stroke="black" points="432.0,98.9 432.0,132.0 432.0,132.0 432.0,125.0 432.0,125.0 432.0,120.0 432.0,120.0 432.0,98.9 432.0,98.9" />
<polygon fill="none" stroke-width="1" stroke-dasharray="" stroke="black" points="432.0,53.1 432.0,53.1 444.0,50.0 444.0,50.0" />
<polygon fill="none" stroke-width="1" stroke-dasharray="" stroke="black" points="444.0,50.0 432.0,53.1 432.0,53.1 444.0,50.0" />
<polygon fill="none" stroke-width="1" stroke-dasharray="" stroke="black" points="444.0,68.5 444.0,68.5 432.0,65.4 432.0,65.4" />
<polygon fill="none" stroke-width="1" stroke-dasharray="" stroke="black" points="444.0,68.5 432.0,65.4 432.0,65.4 444.0,68.5" />
<polygon fill="none" stroke-width="1" stroke-dasharray="" stroke="black" points="432.0,86.6 432.0,86.6 444.0,83.5 444.0,83.5" />
<polygon fill="none" stroke-width="1" stroke-dasharray="" stroke="black" points="444.0,83.5 432.0,86.6 432.0,86.6 444.0,83.5" />
<polygon fill="none" stroke-width="1" stroke-dasharray="" stroke="black" points="444.0,102.0 444.0,102.0 432.0,98.9 432.0,98.9" />
<polygon fill="none" stroke-width="1" stroke-dasharray="" stroke="black" points="444.0,102.0 432.0,98.9 432.0,98.9 444.0,102.0" />
<polygon fill="none" stroke-width="1" stroke-dasharray="" stroke="black" points="444.0,50.0 444.0,68.5 444.0,68.5 444.0,50.0 444.0,50.0" />
<polygon fill="none" stroke-width="1" stroke-dasharray="" stroke="black" points="444.0,83.5 444.0,102.0 444.0,102.0 444.0,83.5 444.0,83.5" />
<polygon fill="none" stroke-width="1" stroke-dasharray="" stroke="black" points="32.0,120.0 32.0,120.0 432.0,120.0 432.0,120.0 432.0,120.0 32.0,120.0" />
<polygon fill="none" stroke-width="1" stroke-dasharray="" stroke="black" points="32.0,125.0 432.0,125.0 432.0,125.0 432.0,125.0 32.0,125.0 32.0,125.0" />
<polygon fill="none" stroke-width="1" stroke-dasharray="" stroke="black" points="20.0,50.0 20.0,68.5 32.0,65.4 32.0,53.1 20.0,50.0" />
<polygon fill="none" stroke-width="1" stroke-dasharray="" stroke="black" points="20.0,83.5 20.0,102.0 32.0,98.9 32.0,86.6 20.0,83.5" />
<polygon fill="none" stroke-width="1" stroke-dasharray="" stroke="black" points="32.0,-42.0 44.0,-38.9 44.0,-52.0 32.0,-52.0 32.0,-42.0" />
<polygon fill="none" stroke-width="1" stroke-dasharray="" stroke="black" points="32.0,-12.5 32.0,-7.5 44.0,-4.4 44.0,-15.6 32.0,-12.5" />
<polygon fill="none" stroke-width="1" stroke-dasharray="" stroke="black" points="32.0,22.0 32.0,32.0 44.0,32.0 44.0,18.9 32.0,22.0" />
<polygon fill="none" stroke-width="1" stroke-dasharray="" stroke="black" points="32.0,47.0 47.0,50.9 47.0,37.0 32.0,37.0 32.0,47.0" />
<polygon fill="none" stroke-width="1" stroke-dasharray="" stroke="black" points="32.0,57.0 32.0,67.0 47.0,67.0 47.0,53.1 32.0,57.0" />
<polygon fill="none" stroke-width="1" stroke-dasharray="" stroke="black" points="32.0,22.0 44.0,18.9 44.0,32.0 420.0,32.0 420.0,18.9 432.0,22.0 432.0,22.0 432.0,-7.5 432.0,-7.5 420.0,-4.4 420.0,-15.6 432.0,-12.5 432.0,-42.0 420.0,-38.9 420.0,-52.0 420.0,-52.0 44.0,-52.0 44.0,-52.0 44.0,-38.9 32.0,-42.0 32.0,-12.5 44.0,-15.6 44.0,-4.4 32.0,-7.5 32.0,-7.5 32.0,22.0" />
<polygon fill="none" stroke-width="1" stroke-dasharray="" stroke="black" points="32.0,57.0 47.0,53.1 47.0,67.0 417.0,67.0 417.0,67.0 417.0,53.1 432.0,57.0 432.0,47.0 417.0,50.9 417.0,37.0 417.0,37.0 47.0,37.0 47.0,50.9 32.0,47.0 32.0,47.0 32.0,57.0" />
<polygon fill="none" stroke-width="1" stroke-dasharray="" stroke="black" points="32.0,120.0 32.0,98.9 20.0,102.0 20.0,83.5 32.0,86.6 32.0,65.4 20.0,68.5 20.0,68.5 20.0,50.0 20.0,50.0 32.0,53.1 32.0,20.0 432.0,20.0 432.0,53.1 444.0,50.0 444.0,50.0 444.0,68.5 444.0,68.5 432.0,65.4 432.0,86.6 444.0,83.5 444.0,102.0 432.0,98.9 432.0,120.0 432.0,120.0 32.0,120.0" />
<polygon fill="none" stroke-width="1" stroke-dasharray="" stroke="black" points="32.0,-64.0 32.0,-52.0 62.0,-52.0 62.0,-64.0" />
<polygon fill="none" stroke-width="1" stroke-dasharray="" stroke="black" points="62.0,-64.0 62.0,-52.0 92.0,-52.0 92.0,-64.0" />
<polygon fill="none" stroke-width="1" stroke-dasharray="" stroke="black" points="32.0,32.0 32.0,35.0 432.0,35.0 432.0,32.0" />
<polygon fill="none" stroke-width="1" stroke-dasharray="" stroke="black" points="32.0,67.0 32.0,70.0 432.0,70.0 432.0,67.0" />
<polygon fill="none" stroke-width="1" stroke-dasharray="" stroke="black" points="357.0,-64.0 357.0,-52.0 387.0,-52.0 387.0,-64.0" />
<polygon fill="none" stroke-width="1" stroke-dasharray="" stroke="black" points="387.0,-67.0 387.0,-52.0 402.0,-52.0 402.0,-67.0" />
<polygon fill="none" stroke-width="1" stroke-dasharray="" stroke="black" points="402.0,-64.0 402.0,-52.0 432.0,-52.0 432.0,-64.0" />
<polygon fill="none" stroke-width="1" stroke-dasharray="" stroke="black" points="417.0,50.9 432.0,47.0 432.0,37.0 417.0,37.0 417.0,50.9" />
<polygon fill="none" stroke-width="1" stroke-dasharray="" stroke="black" points="417.0,53.1 417.0,67.0 432.0,67.0 432.0,57.0 417.0,53.1" />
<polygon fill="none" stroke-width="1" stroke-dasharray="" stroke="black" points="420.0,-38.9 432.0,-42.0 432.0,-52.0 420.0,-52.0 420.0,-38.9" />
<polygon fill="none" stroke-width="1" stroke-dasharray="" stroke="black" points="420.0,-15.6 420.0,-4.4 432.0,-7.5 432.0,-12.5 420.0,-15.6" />
<polygon fill="none" stroke-width="1" stroke-dasharray="" stroke="black" points="420.0,18.9 420.0,32.0 432.0,32.0 432.0,22.0 420.0,18.9" />
<polygon fill="none" stroke-width="1" stroke-dasharray="" stroke="black" points="432.0,53.1 432.0,65.4 444.0,68.5 444.0,50.0 432.0,53.1" />
<polygon fill="none" stroke-width="1" stroke-dasharray="" stroke="black" points="432.0,86.6 432.0,98.9 444.0,102.0 444.0,83.5 432.0,86.6" />
<polygon fill="none" stroke-width="1" stroke-dasharray="" stroke="black" points="32.0,-42.0 32.0,-12.5 32.0,-12.5 32.0,-42.0 32.0,-42.0" />
<polygon fill="none" stroke-width="1" stroke-dasharray="" stroke="black" points="32.0,-7.5 32.0,22.0 32.0,22.0 32.0,-7.5 32.0,-7.5" />
<polygon fill="none" stroke-width="1" stroke-dasharray="" stroke="black" points="32.0,-42.0 44.0,-38.9 44.0,-38.9 32.0,-42.0" />
<polygon fill="none" stroke-width="1" stroke-dasharray="" stroke="black" points="32.0,-42.0 32.0,-42.0 44.0,-38.9 44.0,-38.9" />
<polygon fill="none" stroke-width="1" stroke-dasharray="" stroke="black" points="32.0,-12.5 44.0,-15.6 44.0,-15.6 32.0,-12.5" />
<polygon fill="none" stroke-width="1" stroke-dasharray="" stroke="black" points="44.0,-15.6 44.0,-15.6 32.0,-12.5 32.0,-12.5" />
<polygon fill="none" stroke-width="1" stroke-dasharray="" stroke="black" points="32.0,-7.5 44.0,-4.4 44.0,-4.4 32.0,-7.5" />
<polygon fill="none" stroke-width="1" stroke-dasharray="" stroke="black" points="32.0,-7.5 32.0,-7.5 44.0,-4.4 44.0,-4.4" />
<polygon fill="none" stroke-width="1" stroke-dasharray="" stroke="black" points="32.0,22.0 44.0,18.9 44.0,18.9 32.0,22.0" />
<polygon fill="none" stroke-width="1" stroke-dasharray="" stroke="black" points="44.0,18.9 44.0,18.9 32.0,22.0 32.0,22.0" />
<polygon fill="none" stroke-width="1" stroke-dasharray="" stroke="black" points="44.0,-38.9 44.0,-38.9 44.0,-52.0 44.0,-52.0 44.0,-38.9" />
<polygon fill="none" stroke-width="1" stroke-dasharray="" stroke="black" points="44.0,-15.6 44.0,-4.4 44.0,-4.4 44.0,-15.6 44.0,-15.6" />
<polygon fill="none" stroke-width="1" stroke-dasharray="" stroke="black" points="44.0,18.9 44.0,32.0 44.0,32.0 44.0,18.9 44.0,18.9" />
<polygon fill="none" stroke-width="1" stroke-dasharray="" stroke="black" points="44.0,-52.0 420.0,-52.0 420.0,-52.0 420.0,-52.0 44.0,-52.0 44.0,-52.0" />
<polygon fill="none" stroke-width="1" stroke-dasharray="" stroke="black" points="44.0,32.0 44.0,32.0 420.0,32.0 420.0,32.0 420.0,32.0 44.0,32.0" />
<polygon fill="none" stroke-width="1" stroke-dasharray="" stroke="black" points="420.0,-38.9 420.0,-38.9 420.0,-52.0 420.0,-52.0 420.0,-38.9" />
<polygon fill="none" stroke-width="1" stroke-dasharray="" stroke="black" points="420.0,-15.6 420.0,-4.4 420.0,-4.4 420.0,-15.6 420.0,-15.6" />
<polygon fill="none" stroke-width="1" stroke-dasharray="" stroke="black" points="420.0,18.9 420.0,32.0 420.0,32.0 420.0,18.9 420.0,18.9" />
<polygon fill="none" stroke-width="1" stroke-dasharray="" stroke="black" points="420.0,-38.9 420.0,-38.9 432.0,-42.0 432.0,-42.0" />
<polygon fill="none" stroke-width="1" stroke-dasharray="" stroke="black" points="432.0,-42.0 420.0,-38.9 420.0,-38.9 432.0,-42.0" />
<polygon fill="none" stroke-width="1" stroke-dasharray="" stroke="black" points="432.0,-12.5 432.0,-12.5 420.0,-15.6 420.0,-15.6" />
<polygon fill="none" stroke-width="1" stroke-dasharray="" stroke="black" points="432.0,-12.5 420.0,-15.6 420.0,-15.6 432.0,-12.5" />
<polygon fill="none" stroke-width="1" stroke-dasharray="" stroke="black" points="420.0,-4.4 420.0,-4.4 432.0,-7.5 432.0,-7.5" />
<polygon fill="none" stroke-width="1" stroke-dasharray="" stroke="black" points="432.0,-7.5 420.0,-4.4 420.0,-4.4 432.0,-7.5" />
<polygon fill="none" stroke-width="1" stroke-dasharray="" stroke="black" points="432.0,22.0 432.0,22.0 420.0,18.9 420.0,18.9" />
<polygon fill="none" stroke-width="1" stroke-dasharray="" stroke="black" points="432.0,22.0 420.0,18.9 420.0,18.9 432.0,22.0" />
<polygon fill="none" stroke-width="1" stroke-dasharray="" stroke="black" points="432.0,-42.0 432.0,-12.5 432.0,-12.5 432.0,-42.0 432.0,-42.0" />
<polygon fill="none" stroke-width="1" stroke-dasharray="" stroke="black" points="432.0,-7.5 432.0,22.0 432.0,22.0 432.0,-7.5 432.0,-7.5" />
<polygon fill="none" stroke-width="1" stroke-dasharray="" stroke="black" points="32.0,47.0 32.0,57.0 32.0,57.0 32.0,47.0 32.0,47.0" />
<polygon fill="none" stroke-width="1" stroke-dasharray="" stroke="black" points="32.0,47.0 47.0,50.9 47.0,50.9 32.0,47.0" />
<polygon fill="none" stroke-width="1" stroke-dasharray="" stroke="black" points="32.0,47.0 32.0,47.0 47.0,50.9 47.0,50.9" />
<polygon fill="none" stroke-width="1" stroke-dasharray="" stroke="black" points="32.0,57.0 47.0,53.1 47.0,53.1 32.0,57.0" />
<polygon fill="none" stroke-width="1" stroke-dasharray="" stroke="black" points="47.0,53.1 47.0,53.1 32.0,57.0 32.0,57.0" />
<polygon fill="none" stroke-width="1" stroke-dasharray="" stroke="black" points="47.0,50.9 47.0,50.9 47.0,37.0 47.0,37.0 47.0,50.9" />
<polygon fill="none" stroke-width="1" stroke-dasharray="" stroke="black" points="47.0,53.1 47.0,67.0 47.0,67.0 47.0,53.1 47.0,53.1" />
<polygon fill="none" stroke-width="1" stroke-dasharray="" stroke="black" points="47.0,37.0 417.0,37.0 417.0,37.0 417.0,37.0 47.0,37.0 47.0,37.0" />
<polygon fill="none" stroke-width="1" stroke-dasharray="" stroke="black" points="47.0,67.0 47.0,67.0 417.0,67.0 417.0,67.0 417.0,67.0 47.0,67.0" />
<polygon fill="none" stroke-width="1" stroke-dasharray="" stroke="black" points="417.0,50.9 417.0,50.9 417.0,37.0 417.0,37.0 417.0,50.9" />
<polygon fill="none" stroke-width="1" stroke-dasharray="" stroke="black" points="417.0,53.1 417.0,67.0 417.0,67.0 417.0,53.1 417.0,53.1" />
<polygon fill="none" stroke-width="1" stroke-dasharray="" stroke="black" points="417.0,50.9 417.0,50.9 432.0,47.0 432.0,47.0" />
<polygon fill="none" stroke-width="1" stroke-dasharray="" stroke="black" points="432.0,47.0 417.0,50.9 417.0,50.9 432.0,47.0" />
<polygon fill="none" stroke-width="1" stroke-dasharray="" stroke="black" points="432.0,57.0 432.0,57.0 417.0,53.1 417.0,53.1" />
<polygon fill="none" stroke-width="1" stroke-dasharray="" stroke="black" points="432.0,57.0 417.0,53.1 417.0,53.1 432.0,57.0" />
<polygon fill="none" stroke-width="1" stroke-dasharray="" stroke="black" points="432.0,47.0 432.0,57.0 432.0,57.0 432.0,47.0 432.0,47.0" />
<polygon fill="none" stroke-width="1" stroke-dasharray="" stroke="black" points="32.0,-42.0 32.0,-12.5 44.0,-15.6 44.0,-38.9 32.0,-42.0" />
<polygon fill="none" stroke-width="1" stroke-dasharray="" stroke="black" points="32.0,-7.5 32.0,22.0 44.0,18.9 44.0,-4.4 32.0,-7.5" />
<polygon fill="none" stroke-width="1" stroke-dasharray="" stroke="black" points="44.0,32.0 44.0,18.9 32.0,22.0 32.0,-7.5 44.0,-4.4 44.0,-15.6 32.0,-12.5 32.0,-12.5 32.0,-42.0 32.0,-42.0 44.0,-38.9 44.0,-52.0 420.0,-52.0 420.0,-38.9 432.0,-42.0 432.0,-42.0 432.0,-12.5 432.0,-12.5 420.0,-15.6 420.0,-4.4 432.0,-7.5 432.0,22.0 420.0,18.9 420.0,32.0 420.0,32.0 44.0,32.0" />
<polygon fill="none" stroke-width="1" stroke-dasharray="" stroke="black" points="44.0,-52.0 44.0,-37.0 420.0,-37.0 420.0,-52.0" />
<polygon fill="none" stroke-width="1" stroke-dasharray="" stroke="black" points="420.0,-38.9 420.0,-15.6 432.0,-12.5 432.0,-42.0 420.0,-38.9" />
<polygon fill="none" stroke-width="1" stroke-dasharray="" stroke="black" points="420.0,-4.4 420.0,18.9 432.0,22.0 432.0,-7.5 420.0,-4.4" />
<polygon fill="none" stroke-width="1" stroke-dasharray="" stroke="black" points="32.0,47.0 32.0,57.0 47.0,53.1 47.0,50.9 32.0,47.0" />
<polygon fill="none" stroke-width="1" stroke-dasharray="" stroke="black" points="47.0,67.0 47.0,53.1 32.0,57.0 32.0,47.0 47.0,50.9 47.0,37.0 47.0,37.0 417.0,37.0 417.0,50.9 432.0,47.0 432.0,47.0 432.0,57.0 432.0,57.0 417.0,53.1 417.0,67.0 47.0,67.0" />
<polygon fill="none" stroke-width="1" stroke-dasharray="" stroke="black" points="417.0,50.9 417.0,53.1 432.0,57.0 432.0,47.0 417.0,50.9" />
<polygon fill="none" stroke-width="1" stroke-dasharray="" stroke="black" points="32.0,57.0 32.0,67.0 32.0,67.0 32.0,57.0 32.0,57.0 32.0,57.0 32.0,47.0 32.0,47.0 32.0,37.0 32.0,37.0 32.0,47.0 32.0,47.0 32.0,57.0 32.0,57.0" />
<polygon fill="none" stroke-width="1" stroke-dasharray="" stroke="black" points="47.0,37.0 47.0,37.0 32.0,37.0 32.0,37.0" />
<polygon fill="none" stroke-width="1" stroke-dasharray="" stroke="black" points="32.0,67.0 32.0,67.0 47.0,67.0 47.0,67.0" />
<polygon fill="none" stroke-width="1" stroke-dasharray="" stroke="black" points="47.0,50.9 47.0,37.0 47.0,37.0 47.0,50.9 47.0,50.9 47.0,50.9 47.0,53.1 47.0,53.1 47.0,67.0 47.0,67.0 47.0,53.1 47.0,53.1 47.0,50.9 47.0,50.9" />
<polygon fill="none" stroke-width="1" stroke-dasharray="" stroke="black" points="32.0,67.0 32.0,70.0 32.0,70.0 32.0,67.0" />
<polygon fill="none" stroke-width="1" stroke-dasharray="" stroke="black" points="32.0,67.0 432.0,67.0 432.0,67.0 32.0,67.0" />
<polygon fill="none" stroke-width="1" stroke-dasharray="" stroke="black" points="32.0,70.0 432.0,70.0 432.0,70.0 32.0,70.0" />
<polygon fill="none" stroke-width="1" stroke-dasharray="" stroke="black" points="417.0,50.9 417.0,37.0 417.0,37.0 417.0,50.9 417.0,50.9 417.0,50.9 417.0,53.1 417.0,53.1 417.0,67.0 417.0,67.0 417.0,53.1 417.0,53.1 417.0,50.9 417.0,50.9" />
<polygon fill="none" stroke-width="1" stroke-dasharray="" stroke="black" points="417.0,37.0 417.0,37.0 432.0,37.0 432.0,37.0" />
<polygon fill="none" stroke-width="1" stroke-dasharray="" stroke="black" points="432.0,67.0 432.0,67.0 417.0,67.0 417.0,67.0" />
<polygon fill="none" stroke-width="1" stroke-dasharray="" stroke="black" points="432.0,57.0 432.0,67.0 432.0,67.0 432.0,57.0 432.0,57.0 432.0,57.0 432.0,47.0 432.0,47.0 432.0,37.0 432.0,37.0 432.0,47.0 432.0,47.0 432.0,57.0 432.0,57.0" />
<polygon fill="none" stroke-width="1" stroke-dasharray="" stroke="black" points="432.0,67.0 432.0,70.0 432.0,70.0 432.0,67.0" />
<polygon fill="none" stroke-width="1" stroke-dasharray="" stroke="black" points="47.0,50.9 47.0,53.1 32.0,57.0 32.0,47.0 47.0,50.9" />
<polygon fill="none" stroke-width="1" stroke-dasharray="" stroke="black" points="417.0,67.0 417.0,53.1 432.0,57.0 432.0,47.0 417.0,50.9 417.0,37.0 417.0,37.0 47.0,37.0 47.0,50.9 32.0,47.0 32.0,47.0 32.0,57.0 32.0,57.0 47.0,53.1 47.0,67.0 417.0,67.0" />
<polygon fill="none" stroke-width="1" stroke-dasharray="" stroke="black" points="432.0,47.0 432.0,57.0 417.0,53.1 417.0,50.9 432.0,47.0" />
<polygon fill="none" stroke-width="1" stroke-dasharray="" stroke="black" points="47.0,50.9 47.0,50.9 32.0,47.0 32.0,47.0" />
<polygon fill="none" stroke-width="1" stroke-dasharray="" stroke="black" points="32.0,57.0 32.0,57.0 47.0,53.1 47.0,53.1" />
<polygon fill="none" stroke-width="1" stroke-dasharray="" stroke="black" points="32.0,47.0 32.0,57.0 32.0,57.0 32.0,47.0 32.0,47.0" />
<polygon fill="none" stroke-width="1" stroke-dasharray="" stroke="black" points="32.0,47.0 47.0,50.9 47.0,50.9 32.0,47.0" />
<polygon fill="none" stroke-width="1" stroke-dasharray="" stroke="black" points="32.0,57.0 47.0,53.1 47.0,53.1 32.0,57.0" />
<polygon fill="none" stroke-width="1" stroke-dasharray="" stroke="black" points="47.0,50.9 47.0,50.9 47.0,37.0 47.0,37.0 47.0,50.9" />
<polygon fill="none" stroke-width="1" stroke-dasharray="" stroke="black" points="47.0,53.1 47.0,67.0 47.0,67.0 47.0,53.1 47.0,53.1" />
<polygon fill="none" stroke-width="1" stroke-dasharray="" stroke="black" points="417.0,37.0 47.0,37.0 47.0,37.0 47.0,37.0 417.0,37.0 417.0,37.0" />
<polygon fill="none" stroke-width="1" stroke-dasharray="" stroke="black" points="417.0,67.0 417.0,67.0 47.0,67.0 47.0,67.0 47.0,67.0 417.0,67.0" />
<polygon fill="none" stroke-width="1" stroke-dasharray="" stroke="black" points="417.0,50.9 417.0,50.9 417.0,37.0 417.0,37.0 417.0,50.9" />
<polygon fill="none" stroke-width="1" stroke-dasharray="" stroke="black" points="417.0,53.1 417.0,67.0 417.0,67.0 417.0,53.1 417.0,53.1" />
<polygon fill="none" stroke-width="1" stroke-dasharray="" stroke="black" points="432.0,47.0 417.0,50.9 417.0,50.9 432.0,47.0" />
<polygon fill="none" stroke-width="1" stroke-dasharray="" stroke="black" points="432.0,47.0 432.0,47.0 417.0,50.9 417.0,50.9" />
<polygon fill="none" stroke-width="1" stroke-dasharray="" stroke="black" points="432.0,57.0 417.0,53.1 417.0,53.1 432.0,57.0" />
<polygon fill="none" stroke-width="1" stroke-dasharray="" stroke="black" points="417.0,53.1 417.0,53.1 432.0,57.0 432.0,57.0" />
<polygon fill="none" stroke-width="1" stroke-dasharray="" stroke="black" points="432.0,47.0 432.0,57.0 432.0,57.0 432.0,47.0 432.0,47.0" />
<polygon fill="none" stroke-width="1" stroke-dasharray="" stroke="black" points="20.0,102.0 20.0,132.0 20.0,132.0 20.0,102.0 20.0,102.0 20.0,83.5 20.0,83.5 20.0,83.5 20.0,68.5 20.0,68.5 20.0,68.5 20.0,50.0 20.0,50.0 20.0,20.0 20.0,20.0 20.0,50.0 20.0,50.0 20.0,50.0 20.0,68.5 20.0,68.5 20.0,83.5 20.0,83.5 20.0,102.0 20.0,102.0" />
<polygon fill="none" stroke-width="1" stroke-dasharray="" stroke="black" points="32.0,20.0 32.0,20.0 20.0,20.0 20.0,20.0" />
<polygon fill="none" stroke-width="1" stroke-dasharray="" stroke="black" points="20.0,132.0 20.0,132.0 32.0,132.0 32.0,132.0" />
<polygon fill="none" stroke-width="1" stroke-dasharray="" stroke="black" points="27.0,120.0 27.0,120.0 32.0,120.0 32.0,120.0" />
<polygon fill="none" stroke-width="1" stroke-dasharray="" stroke="black" points="32.0,125.0 32.0,125.0 27.0,125.0 27.0,125.0" />
<polygon fill="none" stroke-width="1" stroke-dasharray="" stroke="black" points="32.0,86.6 32.0,65.4 32.0,65.4 32.0,65.4 32.0,53.1 32.0,53.1 32.0,20.0 32.0,20.0 32.0,53.1 32.0,53.1 32.0,53.1 32.0,65.4 32.0,65.4 32.0,86.6 32.0,86.6 32.0,98.9 32.0,98.9 32.0,98.9 32.0,120.0 32.0,120.0 32.0,98.9 32.0,98.9 32.0,86.6 32.0,86.6" />
<polygon fill="none" stroke-width="1" stroke-dasharray="" stroke="black" points="32.0,22.0 32.0,32.0 32.0,32.0 32.0,22.0 32.0,22.0 32.0,-7.5 32.0,-7.5 32.0,-7.5 32.0,-12.5 32.0,-12.5 32.0,-12.5 32.0,-42.0 32.0,-42.0 32.0,-52.0 32.0,-52.0 32.0,-42.0 32.0,-42.0 32.0,-42.0 32.0,-12.5 32.0,-12.5 32.0,-7.5 32.0,-7.5 32.0,22.0 32.0,22.0" />
<polygon fill="none" stroke-width="1" stroke-dasharray="" stroke="black" points="44.0,-52.0 44.0,-52.0 32.0,-52.0 32.0,-52.0" />
<polygon fill="none" stroke-width="1" stroke-dasharray="" stroke="black" points="32.0,32.0 32.0,32.0 44.0,32.0 44.0,32.0" />
<polygon fill="none" stroke-width="1" stroke-dasharray="" stroke="black" points="47.0,50.9 32.0,47.0 32.0,37.0 47.0,37.0 47.0,50.9" />
<polygon fill="none" stroke-width="1" stroke-dasharray="" stroke="black" points="47.0,53.1 47.0,67.0 32.0,67.0 32.0,57.0 47.0,53.1" />
<polygon fill="none" stroke-width="1" stroke-dasharray="" stroke="black" points="44.0,-4.4 44.0,-15.6 44.0,-15.6 44.0,-15.6 44.0,-38.9 44.0,-38.9 44.0,-52.0 44.0,-52.0 44.0,-38.9 44.0,-38.9 44.0,-38.9 44.0,-15.6 44.0,-15.6 44.0,-4.4 44.0,-4.4 44.0,18.9 44.0,18.9 44.0,18.9 44.0,32.0 44.0,32.0 44.0,18.9 44.0,18.9 44.0,-4.4 44.0,-4.4" />
<polygon fill="none" stroke-width="1" stroke-dasharray="" stroke="black" points="20.0,120.0 20.0,135.0 20.0,135.0 20.0,120.0" />
<polygon fill="none" stroke-width="1" stroke-dasharray="" stroke="black" points="32.0,-64.0 32.0,-52.0 32.0,-52.0 32.0,-64.0" />
<polygon fill="none" stroke-width="1" stroke-dasharray="" stroke="black" points="32.0,32.0 32.0,35.0 32.0,35.0 32.0,32.0" />
<polygon fill="none" stroke-width="1" stroke-dasharray="" stroke="black" points="44.0,-52.0 44.0,-37.0 44.0,-37.0 44.0,-52.0" />
<polygon fill="none" stroke-width="1" stroke-dasharray="" stroke="black" points="32.0,-64.0 62.0,-64.0 62.0,-64.0 32.0,-64.0" />
<polygon fill="none" stroke-width="1" stroke-dasharray="" stroke="black" points="32.0,-52.0 62.0,-52.0 62.0,-52.0 32.0,-52.0" />
<polygon fill="none" stroke-width="1" stroke-dasharray="" stroke="black" points="62.0,-64.0 62.0,-52.0 62.0,-52.0 62.0,-64.0" />
<polygon fill="none" stroke-width="1" stroke-dasharray="" stroke="black" points="62.0,-64.0 62.0,-52.0 62.0,-52.0 62.0,-64.0" />
<polygon fill="none" stroke-width="1" stroke-dasharray="" stroke="black" points="62.0,-64.0 92.0,-64.0 92.0,-64.0 62.0,-64.0" />
<polygon fill="none" stroke-width="1" stroke-dasharray="" stroke="black" points="62.0,-52.0 92.0,-52.0 92.0,-52.0 62.0,-52.0" />
<polygon fill="none" stroke-width="1" stroke-dasharray="" stroke="black" points="92.0,-64.0 92.0,-52.0 92.0,-52.0 92.0,-64.0" />
<polygon fill="none" stroke-width="1" stroke-dasharray="" stroke="black" points="44.0,-52.0 420.0,-52.0 420.0,-52.0 44.0,-52.0" />
<polygon fill="none" stroke-width="1" stroke-dasharray="" stroke="black" points="44.0,-37.0 420.0,-37.0 420.0,-37.0 44.0,-37.0" />
<polygon fill="none" stroke-width="1" stroke-dasharray="" stroke="black" points="32.0,32.0 432.0,32.0 432.0,32.0 32.0,32.0" />
<polygon fill="none" stroke-width="1" stroke-dasharray="" stroke="black" points="32.0,35.0 432.0,35.0 432.0,35.0 32.0,35.0" />
<polygon fill="none" stroke-width="1" stroke-dasharray="" stroke="black" points="432.0,57.0 417.0,53.1 417.0,67.0 47.0,67.0 47.0,67.0 47.0,53.1 32.0,57.0 32.0,47.0 47.0,50.9 47.0,37.0 47.0,37.0 417.0,37.0 417.0,50.9 432.0,47.0 432.0,47.0 432.0,57.0" />
<polygon fill="none" stroke-width="1" stroke-dasharray="" stroke="black" points="32.0,67.0 432.0,67.0 432.0,70.0 32.0,70.0" />
<polygon fill="none" stroke-width="1" stroke-dasharray="" stroke="black" points="20.0,120.0 444.0,120.0 444.0,120.0 20.0,120.0" />
<polygon fill="none" stroke-width="1" stroke-dasharray="" stroke="black" points="20.0,135.0 444.0,135.0 444.0,135.0 20.0,135.0" />
<polygon fill="none" stroke-width="1" stroke-dasharray="" stroke="black" points="357.0,-64.0 357.0,-52.0 357.0,-52.0 357.0,-64.0" />
<polygon fill="none" stroke-width="1" stroke-dasharray="" stroke="black" points="357.0,-64.0 387.0,-64.0 387.0,-64.0 357.0,-64.0" />
<polygon fill="none" stroke-width="1" stroke-dasharray="" stroke="black" points="357.0,-52.0 387.0,-52.0 387.0,-52.0 357.0,-52.0" />
<polygon fill="none" stroke-width="1" stroke-dasharray="" stroke="black" points="387.0,-67.0 387.0,-52.0 387.0,-52.0 387.0,-67.0" />
<polygon fill="none" stroke-width="1" stroke-dasharray="" stroke="black" points="387.0,-64.0 387.0,-52.0 387.0,-52.0 387.0,-64.0" />
<polygon fill="none" stroke-width="1" stroke-dasharray="" stroke="black" points="387.0,-67.0 402.0,-67.0 402.0,-67.0 387.0,-67.0" />
<polygon fill="none" stroke-width="1" stroke-dasharray="" stroke="black" points="387.0,-52.0 402.0,-52.0 402.0,-52.0 387.0,-52.0" />
<polygon fill="none" stroke-width="1" stroke-dasharray="" stroke="black" points="402.0,-67.0 402.0,-52.0 402.0,-52.0 402.0,-67.0" />
<polygon fill="none" stroke-width="1" stroke-dasharray="" stroke="black" points="402.0,-64.0 402.0,-52.0 402.0,-52.0 402.0,-64.0" />
<polygon fill="none" stroke-width="1" stroke-dasharray="" stroke="black" points="402.0,-64.0 432.0,-64.0 432.0,-64.0 402.0,-64.0" />
<polygon fill="none" stroke-width="1" stroke-dasharray="" stroke="black" points="402.0,-52.0 432.0,-52.0 432.0,-52.0 402.0,-52.0" />
<polygon fill="none" stroke-width="1" stroke-dasharray="" stroke="black" points="420.0,-52.0 420.0,-37.0 420.0,-37.0 420.0,-52.0" />
<polygon fill="none" stroke-width="1" stroke-dasharray="" stroke="black" points="420.0,-4.4 420.0,-15.6 420.0,-15.6 420.0,-15.6 420.0,-38.9 420.0,-38.9 420.0,-52.0 420.0,-52.0 420.0,-38.9 420.0,-38.9 420.0,-38.9 420.0,-15.6 420.0,-15.6 420.0,-4.4 420.0,-4.4 420.0,18.9 420.0,18.9 420.0,18.9 420.0,32.0 420.0,32.0 420.0,18.9 420.0,18.9 420.0,-4.4 420.0,-4.4" />
<polygon fill="none" stroke-width="1" stroke-dasharray="" stroke="black" points="432.0,47.0 417.0,50.9 417.0,37.0 432.0,37.0 432.0,47.0" />
<polygon fill="none" stroke-width="1" stroke-dasharray="" stroke="black" points="432.0,57.0 432.0,67.0 417.0,67.0 417.0,53.1 432.0,57.0" />
<polygon fill="none" stroke-width="1" stroke-dasharray="" stroke="black" points="420.0,-52.0 420.0,-52.0 432.0,-52.0 432.0,-52.0" />
<polygon fill="none" stroke-width="1" stroke-dasharray="" stroke="black" points="432.0,32.0 432.0,32.0 420.0,32.0 420.0,32.0" />
<polygon fill="none" stroke-width="1" stroke-dasharray="" stroke="black" points="432.0,-64.0 432.0,-52.0 432.0,-52.0 432.0,-64.0" />
<polygon fill="none" stroke-width="1" stroke-dasharray="" stroke="black" points="432.0,22.0 432.0,32.0 432.0,32.0 432.0,22.0 432.0,22.0 432.0,-7.5 432.0,-7.5 432.0,-7.5 432.0,-12.5 432.0,-12.5 432.0,-12.5 432.0,-42.0 432.0,-42.0 432.0,-52.0 432.0,-52.0 432.0,-42.0 432.0,-42.0 432.0,-42.0 432.0,-12.5 432.0,-12.5 432.0,-7.5 432.0,-7.5 432.0,22.0 432.0,22.0" />
<polygon fill="none" stroke-width="1" stroke-dasharray="" stroke="black" points="432.0,32.0 432.0,35.0 432.0,35.0 432.0,32.0" />
<polygon fill="none" stroke-width="1" stroke-dasharray="" stroke="black" points="432.0,86.6 432.0,65.4 432.0,65.4 432.0,65.4 432.0,53.1 432.0,53.1 432.0,20.0 432.0,20.0 432.0,53.1 432.0,53.1 432.0,53.1 432.0,65.4 432.0,65.4 432.0,86.6 432.0,86.6 432.0,98.9 432.0,98.9 432.0,98.9 432.0,120.0 432.0,120.0 432.0,98.9 432.0,98.9 432.0,86.6 432.0,86.6" />
<polygon fill="none" stroke-width="1" stroke-dasharray="" stroke="black" points="437.0,120.0 437.0,120.0 432.0,120.0 432.0,120.0" />
<polygon fill="none" stroke-width="1" stroke-dasharray="" stroke="black" points="432.0,125.0 432.0,125.0 437.0,125.0 437.0,125.0" />
<polygon fill="none" stroke-width="1" stroke-dasharray="" stroke="black" points="432.0,20.0 432.0,20.0 444.0,20.0 444.0,20.0" />
<polygon fill="none" stroke-width="1" stroke-dasharray="" stroke="black" points="444.0,132.0 444.0,132.0 432.0,132.0 432.0,132.0" />
<polygon fill="none" stroke-width="1" stroke-dasharray="" stroke="black" points="444.0,102.0 444.0,132.0 444.0,132.0 444.0,102.0 444.0,102.0 444.0,83.5 444.0,83.5 444.0,83.5 444.0,68.5 444.0,68.5 444.0,68.5 444.0,50.0 444.0,50.0 444.0,20.0 444.0,20.0 444.0,50.0 444.0,50.0 444.0,50.0 444.0,68.5 444.0,68.5 444.0,83.5 444.0,83.5 444.0,102.0 444.0,102.0" />
<polygon fill="none" stroke-width="1" stroke-dasharray="" stroke="black" points="444.0,120.0 444.0,135.0 444.0,135.0 444.0,120.0" />
<polygon fill="none" stroke-width="1" stroke-dasharray="" stroke="black" points="44.0,-38.9 44.0,-15.6 32.0,-12.5 32.0,-42.0 44.0,-38.9" />
<polygon fill="none" stroke-width="1" stroke-dasharray="" stroke="black" points="44.0,-4.4 44.0,18.9 32.0,22.0 32.0,-7.5 44.0,-4.4" />
<polygon fill="none" stroke-width="1" stroke-dasharray="" stroke="black" points="44.0,-52.0 420.0,-52.0 420.0,-37.0 44.0,-37.0" />
<polygon fill="none" stroke-width="1" stroke-dasharray="" stroke="black" points="420.0,32.0 420.0,18.9 432.0,22.0 432.0,-7.5 420.0,-4.4 420.0,-15.6 432.0,-12.5 432.0,-12.5 432.0,-42.0 432.0,-42.0 420.0,-38.9 420.0,-52.0 44.0,-52.0 44.0,-38.9 32.0,-42.0 32.0,-42.0 32.0,-12.5 32.0,-12.5 44.0,-15.6 44.0,-4.4 32.0,-7.5 32.0,22.0 44.0,18.9 44.0,32.0 44.0,32.0 420.0,32.0" />
<polygon fill="none" stroke-width="1" stroke-dasharray="" stroke="black" points="432.0,-42.0 432.0,-12.5 420.0,-15.6 420.0,-38.9 432.0,-42.0" />
<polygon fill="none" stroke-width="1" stroke-dasharray="" stroke="black" points="432.0,-7.5 432.0,22.0 420.0,18.9 420.0,-4.4 432.0,-7.5" />
<polygon fill="none" stroke-width="1" stroke-dasharray="" stroke="black" points="44.0,-38.9 44.0,-38.9 32.0,-42.0 32.0,-42.0" />
<polygon fill="none" stroke-width="1" stroke-dasharray="" stroke="black" points="32.0,-12.5 32.0,-12.5 44.0,-15.6 44.0,-15.6" />
<polygon fill="none" stroke-width="1" stroke-dasharray="" stroke="black" points="44.0,-4.4 44.0,-4.4 32.0,-7.5 32.0,-7.5" />
<polygon fill="none" stroke-width="1" stroke-dasharray="" stroke="black" points="32.0,22.0 32.0,22.0 44.0,18.9 44.0,18.9" />
<polygon fill="none" stroke-width="1" stroke-dasharray="" stroke="black" points="32.0,-42.0 32.0,-12.5 32.0,-12.5 32.0,-42.0 32.0,-42.0" />
<polygon fill="none" stroke-width="1" stroke-dasharray="" stroke="black" points="32.0,-7.5 32.0,22.0 32.0,22.0 32.0,-7.5 32.0,-7.5" />
<polygon fill="none" stroke-width="1" stroke-dasharray="" stroke="black" points="32.0,-42.0 44.0,-38.9 44.0,-38.9 32.0,-42.0" />
<polygon fill="none" stroke-width="1" stroke-dasharray="" stroke="black" points="32.0,-12.5 44.0,-15.6 44.0,-15.6 32.0,-12.5" />
<polygon fill="none" stroke-width="1" stroke-dasharray="" stroke="black" points="32.0,-7.5 44.0,-4.4 44.0,-4.4 32.0,-7.5" />
<polygon fill="none" stroke-width="1" stroke-dasharray="" stroke="black" points="32.0,22.0 44.0,18.9 44.0,18.9 32.0,22.0" />
<polygon fill="none" stroke-width="1" stroke-dasharray="" stroke="black" points="44.0,-38.9 44.0,-38.9 44.0,-52.0 44.0,-52.0 44.0,-38.9" />
<polygon fill="none" stroke-width="1" stroke-dasharray="" stroke="black" points="44.0,-15.6 44.0,-4.4 44.0,-4.4 44.0,-15.6 44.0,-15.6" />
<polygon fill="none" stroke-width="1" stroke-dasharray="" stroke="black" points="44.0,18.9 44.0,32.0 44.0,32.0 44.0,18.9 44.0,18.9" />
<polygon fill="none" stroke-width="1" stroke-dasharray="" stroke="black" points="420.0,-52.0 44.0,-52.0 44.0,-52.0 44.0,-52.0 420.0,-52.0 420.0,-52.0" />
<polygon fill="none" stroke-width="1" stroke-dasharray="" stroke="black" points="420.0,32.0 420.0,32.0 44.0,32.0 44.0,32.0 44.0,32.0 420.0,32.0" />
<polygon fill="none" stroke-width="1" stroke-dasharray="" stroke="black" points="420.0,-38.9 420.0,-38.9 420.0,-52.0 420.0,-52.0 420.0,-38.9" />
<polygon fill="none" stroke-width="1" stroke-dasharray="" stroke="black" points="420.0,-15.6 420.0,-4.4 420.0,-4.4 420.0,-15.6 420.0,-15.6" />
<polygon fill="none" stroke-width="1" stroke-dasharray="" stroke="black" points="420.0,18.9 420.0,32.0 420.0,32.0 420.0,18.9 420.0,18.9" />
<polygon fill="none" stroke-width="1" stroke-dasharray="" stroke="black" points="432.0,-42.0 420.0,-38.9 420.0,-38.9 432.0,-42.0" />
<polygon fill="none" stroke-width="1" stroke-dasharray="" stroke="black" points="432.0,-42.0 432.0,-42.0 420.0,-38.9 420.0,-38.9" />
<polygon fill="none" stroke-width="1" stroke-dasharray="" stroke="black" points="432.0,-12.5 420.0,-15.6 420.0,-15.6 432.0,-12.5" />
<polygon fill="none" stroke-width="1" stroke-dasharray="" stroke="black" points="420.0,-15.6 420.0,-15.6 432.0,-12.5 432.0,-12.5" />
<polygon fill="none" stroke-width="1" stroke-dasharray="" stroke="black" points="432.0,-7.5 420.0,-4.4 420.0,-4.4 432.0,-7.5" />
<polygon fill="none" stroke-width="1" stroke-dasharray="" stroke="black" points="432.0,-7.5 432.0,-7.5 420.0,-4.4 420.0,-4.4" />
<polygon fill="none" stroke-width="1" stroke-dasharray="" stroke="black" points="432.0,22.0 420.0,18.9 420.0,18.9 432.0,22.0" />
<polygon fill="none" stroke-width="1" stroke-dasharray="" stroke="black" points="420.0,18.9 420.0,18.9 432.0,22.0 432.0,22.0" />
<polygon fill="none" stroke-width="1" stroke-dasharray="" stroke="black" points="432.0,-42.0 432.0,-12.5 432.0,-12.5 432.0,-42.0 432.0,-42.0" />
<polygon fill="none" stroke-width="1" stroke-dasharray="" stroke="black" points="432.0,-7.5 432.0,22.0 432.0,22.0 432.0,-7.5 432.0,-7.5" />
<polygon fill="none" stroke-width="1" stroke-dasharray="" stroke="black" points="32.0,53.1 32.0,65.4 20.0,68.5 20.0,50.0 32.0,53.1" />
<polygon fill="none" stroke-width="1" stroke-dasharray="" stroke="black" points="32.0,86.6 32.0,98.9 20.0,102.0 20.0,83.5 32.0,86.6" />
<polygon fill="none" stroke-width="1" stroke-dasharray="" stroke="black" points="44.0,-38.9 32.0,-42.0 32.0,-52.0 44.0,-52.0 44.0,-38.9" />
<polygon fill="none" stroke-width="1" stroke-dasharray="" stroke="black" points="44.0,-15.6 44.0,-4.4 32.0,-7.5 32.0,-12.5 44.0,-15.6" />
<polygon fill="none" stroke-width="1" stroke-dasharray="" stroke="black" points="44.0,18.9 44.0,32.0 32.0,32.0 32.0,22.0 44.0,18.9" />
<polygon fill="none" stroke-width="1" stroke-dasharray="" stroke="black" points="32.0,-64.0 62.0,-64.0 62.0,-52.0 32.0,-52.0" />
<polygon fill="none" stroke-width="1" stroke-dasharray="" stroke="black" points="62.0,-64.0 92.0,-64.0 92.0,-52.0 62.0,-52.0" />
<polygon fill="none" stroke-width="1" stroke-dasharray="" stroke="black" points="432.0,22.0 420.0,18.9 420.0,32.0 44.0,32.0 44.0,18.9 32.0,22.0 32.0,22.0 32.0,-7.5 32.0,-7.5 44.0,-4.4 44.0,-15.6 32.0,-12.5 32.0,-42.0 44.0,-38.9 44.0,-52.0 44.0,-52.0 420.0,-52.0 420.0,-52.0 420.0,-38.9 432.0,-42.0 432.0,-12.5 420.0,-15.6 420.0,-4.4 432.0,-7.5 432.0,-7.5 432.0,22.0" />
<polygon fill="none" stroke-width="1" stroke-dasharray="" stroke="black" points="32.0,32.0 432.0,32.0 432.0,35.0 32.0,35.0" />
<polygon fill="none" stroke-width="1" stroke-dasharray="" stroke="black" points="432.0,120.0 432.0,98.9 444.0,102.0 444.0,83.5 432.0,86.6 432.0,65.4 444.0,68.5 444.0,68.5 444.0,50.0 444.0,50.0 432.0,53.1 432.0,20.0 32.0,20.0 32.0,53.1 20.0,50.0 20.0,50.0 20.0,68.5 20.0,68.5 32.0,65.4 32.0,86.6 20.0,83.5 20.0,102.0 32.0,98.9 32.0,120.0 32.0,120.0 432.0,120.0" />
<polygon fill="none" stroke-width="1" stroke-dasharray="" stroke="black" points="357.0,-64.0 387.0,-64.0 387.0,-52.0 357.0,-52.0" />
<polygon fill="none" stroke-width="1" stroke-dasharray="" stroke="black" points="387.0,-67.0 402.0,-67.0 402.0,-52.0 387.0,-52.0" />
<polygon fill="none" stroke-width="1" stroke-dasharray="" stroke="black" points="402.0,-64.0 432.0,-64.0 432.0,-52.0 402.0,-52.0" />
<polygon fill="none" stroke-width="1" stroke-dasharray="" stroke="black" points="432.0,-42.0 420.0,-38.9 420.0,-52.0 432.0,-52.0 432.0,-42.0" />
<polygon fill="none" stroke-width="1" stroke-dasharray="" stroke="black" points="432.0,-12.5 432.0,-7.5 420.0,-4.4 420.0,-15.6 432.0,-12.5" />
<polygon fill="none" stroke-width="1" stroke-dasharray="" stroke="black" points="432.0,22.0 432.0,32.0 420.0,32.0 420.0,18.9 432.0,22.0" />
<polygon fill="none" stroke-width="1" stroke-dasharray="" stroke="black" points="444.0,50.0 444.0,68.5 432.0,65.4 432.0,53.1 444.0,50.0" />
<polygon fill="none" stroke-width="1" stroke-dasharray="" stroke="black" points="444.0,83.5 444.0,102.0 432.0,98.9 432.0,86.6 444.0,83.5" />
<polygon fill="none" stroke-width="1" stroke-dasharray="" stroke="black" points="432.0,120.0 432.0,120.0 32.0,120.0 32.0,120.0 32.0,120.0 432.0,120.0" />
<polygon fill="none" stroke-width="1" stroke-dasharray="" stroke="black" points="432.0,125.0 32.0,125.0 32.0,125.0 32.0,125.0 432.0,125.0 432.0,125.0" />
<polygon fill="none" stroke-width="1" stroke-dasharray="" stroke="black" points="32.0,53.1 32.0,53.1 20.0,50.0 20.0,50.0" />
<polygon fill="none" stroke-width="1" stroke-dasharray="" stroke="black" points="20.0,68.5 20.0,68.5 32.0,65.4 32.0,65.4" />
<polygon fill="none" stroke-width="1" stroke-dasharray="" stroke="black" points="32.0,86.6 32.0,86.6 20.0,83.5 20.0,83.5" />
<polygon fill="none" stroke-width="1" stroke-dasharray="" stroke="black" points="20.0,102.0 20.0,102.0 32.0,98.9 32.0,98.9" />
<polygon fill="none" stroke-width="1" stroke-dasharray="" stroke="black" points="20.0,50.0 20.0,68.5 20.0,68.5 20.0,50.0 20.0,50.0" />
<polygon fill="none" stroke-width="1" stroke-dasharray="" stroke="black" points="20.0,83.5 20.0,102.0 20.0,102.0 20.0,83.5 20.0,83.5" />
<polygon fill="none" stroke-width="1" stroke-dasharray="" stroke="black" points="20.0,50.0 32.0,53.1 32.0,53.1 20.0,50.0" />
<polygon fill="none" stroke-width="1" stroke-dasharray="" stroke="black" points="20.0,68.5 32.0,65.4 32.0,65.4 20.0,68.5" />
<polygon fill="none" stroke-width="1" stroke-dasharray="" stroke="black" points="20.0,83.5 32.0,86.6 32.0,86.6 20.0,83.5" />
<polygon fill="none" stroke-width="1" stroke-dasharray="" stroke="black" points="20.0,102.0 32.0,98.9 32.0,98.9 20.0,102.0" />
<polygon fill="none" stroke-width="1" stroke-dasharray="" stroke="black" points="32.0,53.1 32.0,53.1 32.0,20.0 32.0,20.0 32.0,53.1" />
<polygon fill="none" stroke-width="1" stroke-dasharray="" stroke="black" points="32.0,65.4 32.0,86.6 32.0,86.6 32.0,65.4 32.0,65.4" />
<polygon fill="none" stroke-width="1" stroke-dasharray="" stroke="black" points="32.0,98.9 32.0,132.0 32.0,132.0 32.0,125.0 32.0,125.0 32.0,120.0 32.0,120.0 32.0,98.9 32.0,98.9" />
<polygon fill="none" stroke-width="1" stroke-dasharray="" stroke="black" points="432.0,20.0 32.0,20.0 32.0,20.0 32.0,20.0 432.0,20.0 432.0,20.0" />
<polygon fill="none" stroke-width="1" stroke-dasharray="" stroke="black" points="432.0,132.0 432.0,132.0 32.0,132.0 32.0,132.0 32.0,132.0 432.0,132.0" />
<polygon fill="none" stroke-width="1" stroke-dasharray="" stroke="black" points="432.0,53.1 432.0,53.1 432.0,20.0 432.0,20.0 432.0,53.1" />
<polygon fill="none" stroke-width="1" stroke-dasharray="" stroke="black" points="432.0,65.4 432.0,86.6 432.0,86.6 432.0,65.4 432.0,65.4" />
<polygon fill="none" stroke-width="1" stroke-dasharray="" stroke="black" points="432.0,98.9 432.0,120.0 432.0,120.0 432.0,125.0 432.0,125.0 432.0,132.0 432.0,132.0 432.0,98.9 432.0,98.9" />
<polygon fill="none" stroke-width="1" stroke-dasharray="" stroke="black" points="444.0,50.0 432.0,53.1 432.0,53.1 444.0,50.0" />
<polygon fill="none" stroke-width="1" stroke-dasharray="" stroke="black" points="444.0,50.0 444.0,50.0 432.0,53.1 432.0,53.1" />
<polygon fill="none" stroke-width="1" stroke-dasharray="" stroke="black" points="444.0,68.5 432.0,65.4 432.0,65.4 444.0,68.5" />
<polygon fill="none" stroke-width="1" stroke-dasharray="" stroke="black" points="432.0,65.4 432.0,65.4 444.0,68.5 444.0,68.5" />
<polygon fill="none" stroke-width="1" stroke-dasharray="" stroke="black" points="444.0,83.5 432.0,86.6 432.0,86.6 444.0,83.5" />
<polygon fill="none" stroke-width="1" stroke-dasharray="" stroke="black" points="444.0,83.5 444.0,83.5 432.0,86.6 432.0,86.6" />
<polygon fill="none" stroke-width="1" stroke-dasharray="" stroke="black" points="444.0,102.0 432.0,98.9 432.0,98.9 444.0,102.0" />
<polygon fill="none" stroke-width="1" stroke-dasharray="" stroke="black" points="432.0,98.9 432.0,98.9 444.0,102.0 444.0,102.0" />
<polygon fill="none" stroke-width="1" stroke-dasharray="" stroke="black" points="444.0,50.0 444.0,68.5 444.0,68.5 444.0,50.0 444.0,50.0" />
<polygon fill="none" stroke-width="1" stroke-dasharray="" stroke="black" points="444.0,83.5 444.0,102.0 444.0,102.0 444.0,83.5 444.0,83.5" />
<polygon fill="none" stroke-width="1" stroke-dasharray="" stroke="black" points="32.0,53.1 20.0,50.0 20.0,20.0 32.0,20.0 32.0,53.1" />
<polygon fill="none" stroke-width="1" stroke-dasharray="" stroke="black" points="32.0,65.4 32.0,86.6 20.0,83.5 20.0,68.5 32.0,65.4" />
<polygon fill="none" stroke-width="1" stroke-dasharray="" stroke="black" points="32.0,98.9 32.0,120.0 27.0,120.0 27.0,125.0 32.0,125.0 32.0,132.0 20.0,132.0 20.0,102.0 32.0,98.9" />
<polygon fill="none" stroke-width="1" stroke-dasharray="" stroke="black" points="444.0,50.0 432.0,53.1 432.0,20.0 444.0,20.0 444.0,50.0" />
<polygon fill="none" stroke-width="1" stroke-dasharray="" stroke="black" points="444.0,68.5 444.0,83.5 432.0,86.6 432.0,65.4 444.0,68.5" />
<polygon fill="none" stroke-width="1" stroke-dasharray="" stroke="black" points="444.0,102.0 444.0,132.0 432.0,132.0 432.0,125.0 437.0,125.0 437.0,120.0 432.0,120.0 432.0,98.9 444.0,102.0" />
<polygon fill="none" stroke-width="1" stroke-dasharray="" stroke="black" points="444.0,102.0 432.0,98.9 432.0,132.0 32.0,132.0 32.0,98.9 20.0,102.0 20.0,102.0 20.0,83.5 20.0,83.5 32.0,86.6 32.0,65.4 20.0,68.5 20.0,50.0 32.0,53.1 32.0,20.0 32.0,20.0 432.0,20.0 432.0,20.0 432.0,53.1 444.0,50.0 444.0,68.5 432.0,65.4 432.0,86.6 444.0,83.5 444.0,83.5 444.0,102.0" />
<polygon fill="none" stroke-width="1" stroke-dasharray="" stroke="black" points="20.0,120.0 444.0,120.0 444.0,135.0 20.0,135.0" />
<polyline fill="none" stroke-width="1" stroke-dasharray="2" stroke="silver" points="444.0,132.0 444.0,147.0" />
<polyline fill="none" stroke-width="1" stroke-dasharray="2" stroke="silver" points="20.0,132.0 20.0,147.0" />
<polyline fill="none" stroke-width="1" stroke-dasharray="2" stroke="gray" points="20.0,147.0 444.0,147.0" />
<polyline fill="none" stroke-width="1" stroke-dasharray="" stroke="gray" points="-4.0,-2.0 0.0,0.0 -4.0,2.0" transform="translate(443.0, 147.0) rotate(0.0)" />
<polyline fill="none" stroke-width="1" stroke-dasharray="" stroke="gray" points="-4.0,-2.0 0.0,0.0 -4.0,2.0" transform="translate(21.0, 147.0) rotate(180.0)" />
<rect x="217.0" y="142.0" width="30" height="10" style="fill: rgba(255,255,255,0.75); stroke: none; stroke-width: 1;" />
<text style="font-size:12px" text-anchor="middle" x="232.0" y="150.0" fill="black">424</text>
<polyline fill="none" stroke-width="1" stroke-dasharray="2" stroke="silver" points="444.0,132.0 474.0,132.0" />
<polyline fill="none" stroke-width="1" stroke-dasharray="2" stroke="silver" points="444.0,20.0 474.0,20.0" />
<polyline fill="none" stroke-width="1" stroke-dasharray="2" stroke="gray" points="474.0,20.0 474.0,132.0" />
<polyline fill="none" stroke-width="1" stroke-dasharray="" stroke="gray" points="-4.0,-2.0 0.0,0.0 -4.0,2.0" transform="translate(474.0, 131.0) rotate(90.0)" />
<polyline fill="none" stroke-width="1" stroke-dasharray="" stroke="gray" points="-4.0,-2.0 0.0,0.0 -4.0,2.0" transform="translate(474.0, 21.0) rotate(-90.0)" />
<rect x="469.0" y="61.0" width="10" height="30" style="fill: rgba(255,255,255,0.75); stroke: none; stroke-width: 1;" />
<text style="font-size:12px" text-anchor="middle" x="0" y="0" fill="black" transform="translate(471.0 76.0) rotate(90)">112</text>
<polyline fill="none" stroke-width="1" stroke-dasharray="2" stroke="silver" points="432.0,-52.0 432.0,-77.0" />
<polyline fill="none" stroke-width="1" stroke-dasharray="2" stroke="silver" points="32.0,-52.0 32.0,-77.0" />
<polyline fill="none" stroke-width="1" stroke-dasharray="2" stroke="gray" points="32.0,-77.0 432.0,-77.0" />
<polyline fill="none" stroke-width="1" stroke-dasharray="" stroke="gray" points="-4.0,-2.0 0.0,0.0 -4.0,2.0" transform="translate(431.0, -77.0) rotate(0.0)" />
<polyline fill="none" stroke-width="1" stroke-dasharray="" stroke="gray" points="-4.0,-2.0 0.0,0.0 -4.0,2.0" transform="translate(33.0, -77.0) rotate(180.0)" />
<rect x="217.0" y="-82.0" width="30" height="10" style="fill: rgba(255,255,255,0.75); stroke: none; stroke-width: 1;" />
<text style="font-size:12px" text-anchor="middle" x="232.0" y="-74.0" fill="black">400</text>
<polyline fill="none" stroke-width="1" stroke-dasharray="2" stroke="silver" points="432.0,32.0 447.0,32.0" />
<polyline fill="none" stroke-width="1" stroke-dasharray="2" stroke="silver" points="432.0,-52.0 447.0,-52.0" />
<polyline fill="none" stroke-width="1" stroke-dasharray="2" stroke="gray" points="447.0,-52.0 447.0,32.0" />
<polyline fill="none" stroke-width="1" stroke-dasharray="" stroke="gray" points="-4.0,-2.0 0.0,0.0 -4.0,2.0" transform="translate(447.0, 31.0) rotate(90.0)" />
<polyline fill="none" stroke-width="1" stroke-dasharray="" stroke="gray" points="-4.0,-2.0 0.0,0.0 -4.0,2.0" transform="translate(447.0, -51.0) rotate(-90.0)" />
<rect x="442.0" y="-22.5" width="10" height="25" style="fill: rgba(255,255,255,0.75); stroke: none; stroke-width: 1;" />
<text style="font-size:12px" text-anchor="middle" x="0" y="0" fill="black" transform="translate(444.0 -10.0) rotate(90)">84</text>
<polyline fill="none" stroke-width="1" stroke-dasharray="2" stroke="silver" points="432.0,67.0 462.0,67.0" />
<polyline fill="none" stroke-width="1" stroke-dasharray="2" stroke="silver" points="432.0,37.0 462.0,37.0" />
<polyline fill="none" stroke-width="1" stroke-dasharray="2" stroke="gray" points="462.0,37.0 462.0,67.0" />
<polyline fill="none" stroke-width="1" stroke-dasharray="" stroke="gray" points="-4.0,-2.0 0.0,0.0 -4.0,2.0" transform="translate(462.0, 66.0) rotate(90.0)" />
<polyline fill="none" stroke-width="1" stroke-dasharray="" stroke="gray" points="-4.0,-2.0 0.0,0.0 -4.0,2.0" transform="translate(462.0, 38.0) rotate(-90.0)" />
<rect x="457.0" y="39.5" width="10" height="25" style="fill: rgba(255,255,255,0.75); stroke: none; stroke-width: 1;" />
<text style="font-size:12px" text-anchor="middle" x="0" y="0" fill="black" transform="translate(459.0 52.0) rotate(90)">30</text>
</svg>
