<svg width="1100" viewBox="0.0 0.0 550.0 1158.2" xmlns="http://www.w3.org/2000/svg">
<polygon fill="none" stroke-width="1" stroke-dasharray="2" stroke="gray" points="406.5,102.5 406.5,89.4 418.5,92.5 418.5,63.0 406.5,66.1 406.5,54.9 418.5,58.0 418.5,58.0 418.5,28.5 418.5,28.5 406.5,31.6 406.5,18.5 30.5,18.5 30.5,31.6 18.5,28.5 18.5,28.5 18.5,58.0 18.5,58.0 30.5,54.9 30.5,66.1 18.5,63.0 18.5,92.5 30.5,89.4 30.5,102.5 30.5,102.5 406.5,102.5" />
<polygon fill="none" stroke-width="1" stroke-dasharray="2" stroke="gray" points="10.0,20.0 10.0,49.5 18.5,58.0 18.5,28.5 10.0,20.0" />
<polygon fill="none" stroke-width="1" stroke-dasharray="2" stroke="gray" points="10.0,54.5 10.0,84.0 18.5,92.5 18.5,63.0 10.0,54.5" />
<polygon fill="none" stroke-width="1" stroke-dasharray="2" stroke="gray" points="18.5,28.5 30.5,31.6 22.0,23.1 10.0,20.0" />
<polygon fill="rgba(255,255,255,0.75)" stroke-width="1" stroke-dasharray="" stroke="black" points="10.0,49.5 22.0,46.4 30.5,54.9 18.5,58.0" />
<polygon fill="none" stroke-width="1" stroke-dasharray="2" stroke="gray" points="18.5,63.0 30.5,66.1 22.0,57.6 10.0,54.5" />
<polygon fill="rgba(255,255,255,0.75)" stroke-width="1" stroke-dasharray="" stroke="black" points="10.0,84.0 22.0,80.9 30.5,89.4 18.5,92.5" />
<polygon fill="none" stroke-width="1" stroke-dasharray="2" stroke="gray" points="22.0,23.1 30.5,31.6 30.5,18.5 22.0,10.0 22.0,23.1" />
<polygon fill="none" stroke-width="1" stroke-dasharray="2" stroke="gray" points="22.0,46.4 22.0,57.6 30.5,66.1 30.5,54.9 22.0,46.4" />
<polygon fill="none" stroke-width="1" stroke-dasharray="2" stroke="gray" points="22.0,80.9 22.0,94.0 30.5,102.5 30.5,89.4 22.0,80.9" />
<polygon fill="none" stroke-width="1" stroke-dasharray="2" stroke="gray" points="398.0,10.0 22.0,10.0 22.0,10.0 30.5,18.5 406.5,18.5 398.0,10.0" />
<polygon fill="rgba(192,192,192,0.75)" stroke-width="1" stroke-dasharray="" stroke="black" points="398.0,94.0 406.5,102.5 30.5,102.5 22.0,94.0 22.0,94.0 398.0,94.0" />
<polygon fill="rgba(255,255,255,0.75)" stroke-width="1" stroke-dasharray="" stroke="black" points="406.5,31.6 398.0,23.1 398.0,10.0 406.5,18.5 406.5,31.6" />
<polygon fill="rgba(255,255,255,0.75)" stroke-width="1" stroke-dasharray="" stroke="black" points="406.5,54.9 406.5,66.1 398.0,57.6 398.0,46.4 406.5,54.9" />
<polygon fill="rgba(255,255,255,0.75)" stroke-width="1" stroke-dasharray="" stroke="black" points="406.5,89.4 406.5,102.5 398.0,94.0 398.0,80.9 406.5,89.4" />
<polygon fill="none" stroke-width="1" stroke-dasharray="2" stroke="gray" points="410.0,20.0 398.0,23.1 406.5,31.6 418.5,28.5" />
<polygon fill="rgba(192,192,192,0.75)" stroke-width="1" stroke-dasharray="" stroke="silver" points="418.5,58.0 406.5,54.9 398.0,46.4 410.0,49.5" />
<polygon fill="none" stroke-width="1" stroke-dasharray="2" stroke="gray" points="410.0,54.5 398.0,57.6 406.5,66.1 418.5,63.0" />
<polygon fill="rgba(192,192,192,0.75)" stroke-width="1" stroke-dasharray="" stroke="silver" points="418.5,92.5 406.5,89.4 398.0,80.9 410.0,84.0" />
<polygon fill="rgba(255,255,255,0.75)" stroke-width="1" stroke-dasharray="" stroke="black" points="418.5,28.5 418.5,58.0 410.0,49.5 410.0,20.0 418.5,28.5" />
<polygon fill="rgba(255,255,255,0.75)" stroke-width="1" stroke-dasharray="" stroke="black" points="418.5,63.0 418.5,92.5 410.0,84.0 410.0,54.5 418.5,63.0" />
<polygon fill="rgba(255,255,255,0.75)" stroke-width="1" stroke-dasharray="" stroke="black" points="410.0,84.0 398.0,80.9 398.0,94.0 22.0,94.0 22.0,80.9 10.0,84.0 10.0,84.0 10.0,54.5 10.0,54.5 22.0,57.6 22.0,46.4 10.0,49.5 10.0,20.0 22.0,23.1 22.0,10.0 22.0,10.0 398.0,10.0 398.0,10.0 398.0,23.1 410.0,20.0 410.0,49.5 398.0,46.4 398.0,57.6 410.0,54.5 410.0,54.5 410.0,84.0" />
<text style="" text-anchor="middle" x="210.0" y="52.0" fill="black">box front</text>
<polygon fill="none" stroke-width="1" stroke-dasharray="2" stroke="gray" points="218.5,178.6 218.5,167.4 218.5,167.4 206.5,167.4 206.5,144.1 218.5,144.1 218.5,131.0 18.5,131.0 18.5,144.1 18.5,144.1 30.5,144.1 30.5,167.4 18.5,167.4 18.5,178.6 30.5,178.6 30.5,201.9 18.5,201.9 18.5,201.9 18.5,215.0 218.5,215.0 218.5,201.9 206.5,201.9 206.5,178.6 218.5,178.6" />
<polygon fill="none" stroke-width="1" stroke-dasharray="2" stroke="gray" points="10.0,132.5 18.5,144.1 18.5,131.0 10.0,122.5 10.0,132.5" />
<polygon fill="none" stroke-width="1" stroke-dasharray="2" stroke="gray" points="10.0,162.0 10.0,167.0 18.5,178.6 18.5,167.4 10.0,162.0" />
<polygon fill="none" stroke-width="1" stroke-dasharray="2" stroke="gray" points="10.0,196.5 10.0,206.5 18.5,215.0 18.5,201.9 10.0,196.5" />
<polygon fill="rgba(255,255,255,0.75)" stroke-width="1" stroke-dasharray="" stroke="black" points="10.0,132.5 22.0,132.5 30.5,144.1 18.5,144.1" />
<polygon fill="none" stroke-width="1" stroke-dasharray="2" stroke="gray" points="18.5,167.4 30.5,167.4 22.0,162.0 10.0,162.0" />
<polygon fill="rgba(255,255,255,0.75)" stroke-width="1" stroke-dasharray="" stroke="black" points="10.0,167.0 22.0,167.0 30.5,178.6 18.5,178.6" />
<polygon fill="none" stroke-width="1" stroke-dasharray="2" stroke="gray" points="18.5,201.9 30.5,201.9 22.0,196.5 10.0,196.5" />
<polygon fill="none" stroke-width="1" stroke-dasharray="2" stroke="gray" points="22.0,132.5 22.0,162.0 30.5,167.4 30.5,144.1 22.0,132.5" />
<polygon fill="none" stroke-width="1" stroke-dasharray="2" stroke="gray" points="22.0,167.0 22.0,196.5 30.5,201.9 30.5,178.6 22.0,167.0" />
<polygon fill="none" stroke-width="1" stroke-dasharray="2" stroke="gray" points="18.5,131.0 218.5,131.0 210.0,122.5 10.0,122.5" />
<polygon fill="rgba(192,192,192,0.75)" stroke-width="1" stroke-dasharray="" stroke="black" points="10.0,206.5 210.0,206.5 218.5,215.0 18.5,215.0" />
<polygon fill="rgba(255,255,255,0.75)" stroke-width="1" stroke-dasharray="" stroke="black" points="206.5,144.1 206.5,167.4 198.0,162.0 198.0,132.5 206.5,144.1" />
<polygon fill="rgba(255,255,255,0.75)" stroke-width="1" stroke-dasharray="" stroke="black" points="206.5,178.6 206.5,201.9 198.0,196.5 198.0,167.0 206.5,178.6" />
<polygon fill="rgba(255,255,255,0.75)" stroke-width="1" stroke-dasharray="" stroke="black" points="218.5,144.1 206.5,144.1 198.0,132.5 210.0,132.5" />
<polygon fill="none" stroke-width="1" stroke-dasharray="2" stroke="gray" points="210.0,162.0 198.0,162.0 206.5,167.4 218.5,167.4" />
<polygon fill="rgba(255,255,255,0.75)" stroke-width="1" stroke-dasharray="" stroke="black" points="218.5,178.6 206.5,178.6 198.0,167.0 210.0,167.0" />
<polygon fill="none" stroke-width="1" stroke-dasharray="2" stroke="gray" points="210.0,196.5 198.0,196.5 206.5,201.9 218.5,201.9" />
<polygon fill="rgba(255,255,255,0.75)" stroke-width="1" stroke-dasharray="" stroke="black" points="218.5,144.1 210.0,132.5 210.0,122.5 218.5,131.0 218.5,144.1" />
<polygon fill="rgba(255,255,255,0.75)" stroke-width="1" stroke-dasharray="" stroke="black" points="218.5,167.4 218.5,178.6 210.0,167.0 210.0,162.0 218.5,167.4" />
<polygon fill="rgba(255,255,255,0.75)" stroke-width="1" stroke-dasharray="" stroke="black" points="218.5,201.9 218.5,215.0 210.0,206.5 210.0,196.5 218.5,201.9" />
<polygon fill="rgba(255,255,255,0.75)" stroke-width="1" stroke-dasharray="" stroke="black" points="210.0,196.5 210.0,206.5 10.0,206.5 10.0,196.5 22.0,196.5 22.0,167.0 10.0,167.0 10.0,167.0 10.0,162.0 10.0,162.0 22.0,162.0 22.0,132.5 10.0,132.5 10.0,122.5 210.0,122.5 210.0,132.5 210.0,132.5 198.0,132.5 198.0,162.0 210.0,162.0 210.0,167.0 198.0,167.0 198.0,196.5 210.0,196.5" />
<text style="" text-anchor="middle" x="110.0" y="164.48528137423858" fill="black">box left</text>
<polygon fill="none" stroke-width="1" stroke-dasharray="2" stroke="gray" points="406.5,327.5 406.5,314.3 418.5,317.4 418.5,288.0 406.5,291.1 406.5,279.8 418.5,282.9 418.5,282.9 418.5,253.5 418.5,253.5 406.5,256.6 406.5,243.5 30.5,243.5 30.5,256.6 18.5,253.5 18.5,253.5 18.5,282.9 18.5,282.9 30.5,279.8 30.5,291.1 18.5,288.0 18.5,317.4 30.5,314.3 30.5,327.5 30.5,327.5 406.5,327.5" />
<polygon fill="none" stroke-width="1" stroke-dasharray="2" stroke="gray" points="10.0,245.0 10.0,274.5 18.5,283.0 18.5,253.4 10.0,245.0" />
<polygon fill="none" stroke-width="1" stroke-dasharray="2" stroke="gray" points="10.0,279.5 10.0,309.0 18.5,317.5 18.5,287.9 10.0,279.5" />
<polygon fill="none" stroke-width="1" stroke-dasharray="2" stroke="gray" points="18.5,253.5 30.5,256.6 22.0,248.1 10.0,245.0" />
<polygon fill="rgba(255,255,255,0.75)" stroke-width="1" stroke-dasharray="" stroke="black" points="10.0,274.5 22.0,271.4 30.5,279.9 18.5,283.0" />
<polygon fill="none" stroke-width="1" stroke-dasharray="2" stroke="gray" points="18.5,288.0 30.5,291.1 22.0,282.6 10.0,279.5" />
<polygon fill="rgba(255,255,255,0.75)" stroke-width="1" stroke-dasharray="" stroke="black" points="10.0,309.0 22.0,305.9 30.5,314.4 18.5,317.5" />
<polygon fill="none" stroke-width="1" stroke-dasharray="2" stroke="gray" points="22.0,248.1 30.5,256.6 30.5,243.5 22.0,235.0 22.0,248.1" />
<polygon fill="none" stroke-width="1" stroke-dasharray="2" stroke="gray" points="22.0,271.4 22.0,282.6 30.5,291.1 30.5,279.8 22.0,271.4" />
<polygon fill="none" stroke-width="1" stroke-dasharray="2" stroke="gray" points="22.0,305.9 22.0,319.0 30.5,327.5 30.5,314.3 22.0,305.9" />
<polygon fill="none" stroke-width="1" stroke-dasharray="2" stroke="gray" points="398.0,235.0 22.0,235.0 22.0,235.0 30.5,243.5 406.5,243.5 398.0,235.0" />
<polygon fill="rgba(192,192,192,0.75)" stroke-width="1" stroke-dasharray="" stroke="black" points="398.0,319.0 406.5,327.5 30.5,327.5 22.0,319.0 22.0,319.0 398.0,319.0" />
<polygon fill="rgba(255,255,255,0.75)" stroke-width="1" stroke-dasharray="" stroke="black" points="406.5,256.6 398.0,248.1 398.0,235.0 406.5,243.5 406.5,256.6" />
<polygon fill="rgba(255,255,255,0.75)" stroke-width="1" stroke-dasharray="" stroke="black" points="406.5,279.8 406.5,291.1 398.0,282.6 398.0,271.4 406.5,279.8" />
<polygon fill="rgba(255,255,255,0.75)" stroke-width="1" stroke-dasharray="" stroke="black" points="406.5,314.3 406.5,327.5 398.0,319.0 398.0,305.9 406.5,314.3" />
<polygon fill="none" stroke-width="1" stroke-dasharray="2" stroke="gray" points="410.0,245.0 398.0,248.1 406.5,256.6 418.5,253.5" />
<polygon fill="rgba(192,192,192,0.75)" stroke-width="1" stroke-dasharray="" stroke="silver" points="418.5,283.0 406.5,279.9 398.0,271.4 410.0,274.5" />
<polygon fill="none" stroke-width="1" stroke-dasharray="2" stroke="gray" points="410.0,279.5 398.0,282.6 406.5,291.1 418.5,288.0" />
<polygon fill="rgba(192,192,192,0.75)" stroke-width="1" stroke-dasharray="" stroke="silver" points="418.5,317.5 406.5,314.4 398.0,305.9 410.0,309.0" />
<polygon fill="rgba(255,255,255,0.75)" stroke-width="1" stroke-dasharray="" stroke="black" points="418.5,253.4 418.5,283.0 410.0,274.5 410.0,245.0 418.5,253.4" />
<polygon fill="rgba(255,255,255,0.75)" stroke-width="1" stroke-dasharray="" stroke="black" points="418.5,287.9 418.5,317.5 410.0,309.0 410.0,279.5 418.5,287.9" />
<polygon fill="rgba(255,255,255,0.75)" stroke-width="1" stroke-dasharray="" stroke="black" points="410.0,309.0 398.0,305.9 398.0,319.0 22.0,319.0 22.0,305.9 10.0,309.0 10.0,309.0 10.0,279.5 10.0,279.5 22.0,282.6 22.0,271.4 10.0,274.5 10.0,245.0 22.0,248.1 22.0,235.0 22.0,235.0 398.0,235.0 398.0,235.0 398.0,248.1 410.0,245.0 410.0,274.5 398.0,271.4 398.0,282.6 410.0,279.5 410.0,279.5 410.0,309.0" />
<text style="" text-anchor="middle" x="210.0" y="276.97056274847716" fill="black">box back</text>
<polygon fill="none" stroke-width="1" stroke-dasharray="2" stroke="gray" points="218.5,403.5 218.5,392.3 218.5,392.3 206.5,392.3 206.5,369.0 218.5,369.0 218.5,355.9 18.5,355.9 18.5,369.0 18.5,369.0 30.5,369.0 30.5,392.3 18.5,392.3 18.5,403.5 30.5,403.5 30.5,426.8 18.5,426.8 18.5,426.8 18.5,439.9 218.5,439.9 218.5,426.8 206.5,426.8 206.5,403.5 218.5,403.5" />
<polygon fill="none" stroke-width="1" stroke-dasharray="2" stroke="gray" points="10.0,357.5 18.5,369.1 18.5,355.9 10.0,347.5 10.0,357.5" />
<polygon fill="none" stroke-width="1" stroke-dasharray="2" stroke="gray" points="10.0,386.9 10.0,392.0 18.5,403.6 18.5,392.3 10.0,386.9" />
<polygon fill="none" stroke-width="1" stroke-dasharray="2" stroke="gray" points="10.0,421.4 10.0,431.5 18.5,439.9 18.5,426.8 10.0,421.4" />
<polygon fill="rgba(255,255,255,0.75)" stroke-width="1" stroke-dasharray="" stroke="black" points="10.0,357.5 22.0,357.5 30.5,369.0 18.5,369.0" />
<polygon fill="none" stroke-width="1" stroke-dasharray="2" stroke="gray" points="18.5,392.3 30.5,392.3 22.0,387.0 10.0,387.0" />
<polygon fill="rgba(255,255,255,0.75)" stroke-width="1" stroke-dasharray="" stroke="black" points="10.0,392.0 22.0,392.0 30.5,403.5 18.5,403.5" />
<polygon fill="none" stroke-width="1" stroke-dasharray="2" stroke="gray" points="18.5,426.8 30.5,426.8 22.0,421.5 10.0,421.5" />
<polygon fill="none" stroke-width="1" stroke-dasharray="2" stroke="gray" points="22.0,357.4 22.0,387.0 30.5,392.3 30.5,369.0 22.0,357.4" />
<polygon fill="none" stroke-width="1" stroke-dasharray="2" stroke="gray" points="22.0,391.9 22.0,421.5 30.5,426.8 30.5,403.5 22.0,391.9" />
<polygon fill="none" stroke-width="1" stroke-dasharray="2" stroke="gray" points="18.5,355.9 218.5,355.9 210.0,347.5 10.0,347.5" />
<polygon fill="rgba(192,192,192,0.75)" stroke-width="1" stroke-dasharray="" stroke="black" points="10.0,431.5 210.0,431.5 218.5,439.9 18.5,439.9" />
<polygon fill="rgba(255,255,255,0.75)" stroke-width="1" stroke-dasharray="" stroke="black" points="206.5,369.0 206.5,392.3 198.0,387.0 198.0,357.4 206.5,369.0" />
<polygon fill="rgba(255,255,255,0.75)" stroke-width="1" stroke-dasharray="" stroke="black" points="206.5,403.5 206.5,426.8 198.0,421.5 198.0,391.9 206.5,403.5" />
<polygon fill="rgba(255,255,255,0.75)" stroke-width="1" stroke-dasharray="" stroke="black" points="218.5,369.0 206.5,369.0 198.0,357.5 210.0,357.5" />
<polygon fill="none" stroke-width="1" stroke-dasharray="2" stroke="gray" points="210.0,387.0 198.0,387.0 206.5,392.3 218.5,392.3" />
<polygon fill="rgba(255,255,255,0.75)" stroke-width="1" stroke-dasharray="" stroke="black" points="218.5,403.5 206.5,403.5 198.0,392.0 210.0,392.0" />
<polygon fill="none" stroke-width="1" stroke-dasharray="2" stroke="gray" points="210.0,421.5 198.0,421.5 206.5,426.8 218.5,426.8" />
<polygon fill="rgba(255,255,255,0.75)" stroke-width="1" stroke-dasharray="" stroke="black" points="218.5,369.1 210.0,357.5 210.0,347.5 218.5,355.9 218.5,369.1" />
<polygon fill="rgba(255,255,255,0.75)" stroke-width="1" stroke-dasharray="" stroke="black" points="218.5,392.3 218.5,403.6 210.0,392.0 210.0,386.9 218.5,392.3" />
<polygon fill="rgba(255,255,255,0.75)" stroke-width="1" stroke-dasharray="" stroke="black" points="218.5,426.8 218.5,439.9 210.0,431.5 210.0,421.4 218.5,426.8" />
<polygon fill="rgba(255,255,255,0.75)" stroke-width="1" stroke-dasharray="" stroke="black" points="210.0,421.5 210.0,431.5 10.0,431.5 10.0,421.5 22.0,421.5 22.0,391.9 10.0,391.9 10.0,391.9 10.0,387.0 10.0,387.0 22.0,387.0 22.0,357.4 10.0,357.4 10.0,347.5 210.0,347.5 210.0,357.4 210.0,357.4 198.0,357.4 198.0,387.0 210.0,387.0 210.0,391.9 198.0,391.9 198.0,421.5 210.0,421.5" />
<text style="" text-anchor="middle" x="110.0" y="389.4558441227157" fill="black">box right</text>
<polygon fill="none" stroke-width="1" stroke-dasharray="2" stroke="gray" points="20.6,470.5 20.6,646.5 396.6,646.5 396.6,470.5" />
<polygon fill="none" stroke-width="1" stroke-dasharray="2" stroke="gray" points="10.0,459.9 10.0,635.9 20.6,646.5 20.6,470.5" />
<polygon fill="none" stroke-width="1" stroke-dasharray="2" stroke="gray" points="20.6,470.5 396.6,470.5 386.0,459.9 10.0,459.9" />
<polygon fill="rgba(192,192,192,0.75)" stroke-width="1" stroke-dasharray="" stroke="black" points="10.0,635.9 386.0,635.9 396.6,646.5 20.6,646.5" />
<polygon fill="rgba(255,255,255,0.75)" stroke-width="1" stroke-dasharray="" stroke="black" points="396.6,470.5 396.6,646.5 386.0,635.9 386.0,459.9" />
<polygon fill="rgba(255,255,255,0.75)" stroke-width="1" stroke-dasharray="" stroke="black" points="10.0,459.9 386.0,459.9 386.0,635.9 10.0,635.9" />
<text style="" text-anchor="middle" x="198.0" y="547.9411254969543" fill="black">box lid</text>
<polygon fill="none" stroke-width="1" stroke-dasharray="2" stroke="gray" points="12.1,668.7 12.1,868.7 412.1,868.7 412.1,668.7" />
<polygon fill="none" stroke-width="1" stroke-dasharray="2" stroke="gray" points="10.0,666.5 10.0,866.5 12.1,868.7 12.1,668.7" />
<polygon fill="none" stroke-width="1" stroke-dasharray="2" stroke="gray" points="12.1,668.7 412.1,668.7 410.0,666.5 10.0,666.5" />
<polygon fill="rgba(192,192,192,0.75)" stroke-width="1" stroke-dasharray="" stroke="black" points="10.0,866.5 410.0,866.5 412.1,868.7 12.1,868.7" />
<polygon fill="rgba(255,255,255,0.75)" stroke-width="1" stroke-dasharray="" stroke="black" points="412.1,668.7 412.1,868.7 410.0,866.5 410.0,666.5" />
<polygon fill="rgba(255,255,255,0.75)" stroke-width="1" stroke-dasharray="" stroke="black" points="10.0,666.5 410.0,666.5 410.0,866.5 10.0,866.5" />
<text style="" text-anchor="middle" x="210.0" y="766.5477272147525" fill="black">box bottom</text>
<polygon fill="none" stroke-width="1" stroke-dasharray="2" stroke="gray" points="20.6,899.3 20.6,914.3 220.6,914.3 220.6,899.3" />
<polygon fill="none" stroke-width="1" stroke-dasharray="2" stroke="gray" points="10.0,888.7 10.0,903.7 20.6,914.3 20.6,899.3" />
<polygon fill="none" stroke-width="1" stroke-dasharray="2" stroke="gray" points="20.6,899.3 220.6,899.3 210.0,888.7 10.0,888.7" />
<polygon fill="rgba(192,192,192,0.75)" stroke-width="1" stroke-dasharray="" stroke="black" points="10.0,903.7 210.0,903.7 220.6,914.3 20.6,914.3" />
<polygon fill="rgba(255,255,255,0.75)" stroke-width="1" stroke-dasharray="" stroke="black" points="220.6,899.3 220.6,914.3 210.0,903.7 210.0,888.7" />
<polygon fill="rgba(255,255,255,0.75)" stroke-width="1" stroke-dasharray="" stroke="black" points="10.0,888.7 210.0,888.7 210.0,903.7 10.0,903.7" />
<text style="" text-anchor="middle" x="110.0" y="896.1690475583122" fill="black">wedge</text>
<polygon fill="none" stroke-width="1" stroke-dasharray="2" stroke="gray" points="18.5,942.8 18.5,972.8 218.5,972.8 218.5,942.8" />
<polygon fill="none" stroke-width="1" stroke-dasharray="2" stroke="gray" points="10.0,934.3 10.0,964.3 18.5,972.8 18.5,942.8" />
<polygon fill="none" stroke-width="1" stroke-dasharray="2" stroke="gray" points="18.5,942.8 218.5,942.8 210.0,934.3 10.0,934.3" />
<polygon fill="rgba(192,192,192,0.75)" stroke-width="1" stroke-dasharray="" stroke="black" points="10.0,964.3 210.0,964.3 218.5,972.8 18.5,972.8" />
<polygon fill="rgba(255,255,255,0.75)" stroke-width="1" stroke-dasharray="" stroke="black" points="218.5,942.8 218.5,972.8 210.0,964.3 210.0,934.3" />
<polygon fill="rgba(255,255,255,0.75)" stroke-width="1" stroke-dasharray="" stroke="black" points="10.0,934.3 210.0,934.3 210.0,964.3 10.0,964.3" />
<text style="" text-anchor="middle" x="110.0" y="949.2756492761104" fill="black">batten</text>
<polygon fill="none" stroke-width="1" stroke-dasharray="2" stroke="gray" points="18.5,1001.2 18.5,1031.2 218.5,1031.2 218.5,1001.2" />
<polygon fill="none" stroke-width="1" stroke-dasharray="2" stroke="gray" points="10.0,992.8 10.0,1022.8 18.5,1031.2 18.5,1001.2" />
<polygon fill="none" stroke-width="1" stroke-dasharray="2" stroke="gray" points="18.5,1001.2 218.5,1001.2 210.0,992.8 10.0,992.8" />
<polygon fill="rgba(192,192,192,0.75)" stroke-width="1" stroke-dasharray="" stroke="black" points="10.0,1022.8 210.0,1022.8 218.5,1031.2 18.5,1031.2" />
<polygon fill="rgba(255,255,255,0.75)" stroke-width="1" stroke-dasharray="" stroke="black" points="218.5,1001.2 218.5,1031.2 210.0,1022.8 210.0,992.8" />
<polygon fill="rgba(255,255,255,0.75)" stroke-width="1" stroke-dasharray="" stroke="black" points="10.0,992.8 210.0,992.8 210.0,1022.8 10.0,1022.8" />
<text style="" text-anchor="middle" x="110.0" y="1007.7609306503489" fill="black">batten</text>
<polygon fill="none" stroke-width="1" stroke-dasharray="2" stroke="gray" points="18.5,1059.7 18.5,1089.7 218.5,1089.7 218.5,1059.7" />
<polygon fill="none" stroke-width="1" stroke-dasharray="2" stroke="gray" points="10.0,1051.2 10.0,1081.2 18.5,1089.7 18.5,1059.7" />
<polygon fill="none" stroke-width="1" stroke-dasharray="2" stroke="gray" points="18.5,1059.7 218.5,1059.7 210.0,1051.2 10.0,1051.2" />
<polygon fill="rgba(192,192,192,0.75)" stroke-width="1" stroke-dasharray="" stroke="black" points="10.0,1081.2 210.0,1081.2 218.5,1089.7 18.5,1089.7" />
<polygon fill="rgba(255,255,255,0.75)" stroke-width="1" stroke-dasharray="" stroke="black" points="218.5,1059.7 218.5,1089.7 210.0,1081.2 210.0,1051.2" />
<polygon fill="rgba(255,255,255,0.75)" stroke-width="1" stroke-dasharray="" stroke="black" points="10.0,1051.2 210.0,1051.2 210.0,1081.2 10.0,1081.2" />
<text style="" text-anchor="middle" x="110.0" y="1066.2462120245875" fill="black">batten</text>
<polygon fill="none" stroke-width="1" stroke-dasharray="2" stroke="gray" points="18.5,1118.2 18.5,1148.2 218.5,1148.2 218.5,1118.2" />
<polygon fill="none" stroke-width="1" stroke-dasharray="2" stroke="gray" points="10.0,1109.7 10.0,1139.7 18.5,1148.2 18.5,1118.2" />
<polygon fill="none" stroke-width="1" stroke-dasharray="2" stroke="gray" points="18.5,1118.2 218.5,1118.2 210.0,1109.7 10.0,1109.7" />
<polygon fill="rgba(192,192,192,0.75)" stroke-width="1" stroke-dasharray="" stroke="black" points="10.0,1139.7 210.0,1139.7 218.5,1148.2 18.5,1148.2" />
<polygon fill="rgba(255,255,255,0.75)" stroke-width="1" stroke-dasharray="" stroke="black" points="218.5,1118.2 218.5,1148.2 210.0,1139.7 210.0,1109.7" />
<polygon fill="rgba(255,255,255,0.75)" stroke-width="1" stroke-dasharray="" stroke="black" points="10.0,1109.7 210.0,1109.7 210.0,1139.7 10.0,1139.7" />
<text style="" text-anchor="middle" x="110.0" y="1124.7314933988262" fill="black">bottom brace</text>
</svg>
