<svg width="1100" viewBox="0.0 -204.0 550.0 224.0" xmlns="http://www.w3.org/2000/svg">
<polygon fill="none" stroke-width="1" stroke-dasharray="" stroke="black" points="20.0,-204.0 32.0,-204.0 32.0,-204.0 20.0,-204.0 20.0,-204.0" />
<polygon fill="none" stroke-width="1" stroke-dasharray="" stroke="black" points="20.0,-204.0 20.0,-204.0 32.0,-204.0 32.0,-204.0 20.0,-204.0" />
<polygon fill="none" stroke-width="1" stroke-dasharray="" stroke="black" points="20.0,-204.0 20.0,-204.0 32.0,-204.0 32.0,-204.0 27.0,-204.0 27.0,-204.0 32.0,-204.0 32.0,-204.0 20.0,-204.0" />
<polygon fill="none" stroke-width="1" stroke-dasharray="" stroke="black" points="20.0,-204.0 32.0,-204.0 32.0,-204.0 432.0,-204.0 432.0,-204.0 444.0,-204.0 444.0,-204.0 444.0,-204.0 444.0,-204.0 432.0,-204.0 432.0,-204.0 444.0,-204.0 444.0,-204.0 432.0,-204.0 432.0,-204.0 432.0,-204.0 32.0,-204.0 32.0,-204.0 32.0,-204.0 20.0,-204.0 20.0,-204.0 32.0,-204.0 32.0,-204.0 20.0,-204.0 20.0,-204.0 20.0,-204.0" />
<polygon fill="none" stroke-width="1" stroke-dasharray="" stroke="black" points="20.0,-204.0 20.0,-204.0 444.0,-204.0 444.0,-204.0" />
<polygon fill="none" stroke-width="1" stroke-dasharray="" stroke="black" points="432.0,-204.0 444.0,-204.0 444.0,-204.0 432.0,-204.0 432.0,-204.0" />
<polygon fill="none" stroke-width="1" stroke-dasharray="" stroke="black" points="432.0,-204.0 432.0,-204.0 444.0,-204.0 444.0,-204.0 432.0,-204.0" />
<polygon fill="none" stroke-width="1" stroke-dasharray="" stroke="black" points="432.0,-204.0 432.0,-204.0 437.0,-204.0 437.0,-204.0 432.0,-204.0 432.0,-204.0 444.0,-204.0 444.0,-204.0 432.0,-204.0" />
<polygon fill="none" stroke-width="1" stroke-dasharray="" stroke="black" points="20.0,-192.0 20.0,-192.0 20.0,-204.0 20.0,-204.0 20.0,-192.0" />
<polygon fill="none" stroke-width="1" stroke-dasharray="" stroke="black" points="20.0,-192.0 20.0,-192.0 20.0,-204.0 20.0,-204.0 20.0,-192.0" />
<polygon fill="none" stroke-width="1" stroke-dasharray="" stroke="black" points="20.0,-204.0 32.0,-204.0 32.0,-192.0 20.0,-192.0" />
<polygon fill="none" stroke-width="1" stroke-dasharray="" stroke="black" points="20.0,-204.0 20.0,-192.0 32.0,-192.0 32.0,-204.0" />
<polygon fill="none" stroke-width="1" stroke-dasharray="" stroke="black" points="20.0,-192.0 32.0,-192.0 32.0,-204.0 20.0,-204.0" />
<polygon fill="none" stroke-width="1" stroke-dasharray="" stroke="black" points="32.0,-204.0 32.0,-192.0 20.0,-192.0 20.0,-204.0" />
<polygon fill="none" stroke-width="1" stroke-dasharray="" stroke="black" points="20.0,-204.0 32.0,-204.0 32.0,-192.0 20.0,-192.0" />
<polygon fill="none" stroke-width="1" stroke-dasharray="" stroke="black" points="20.0,-204.0 20.0,-192.0 32.0,-192.0 32.0,-204.0" />
<polygon fill="none" stroke-width="1" stroke-dasharray="" stroke="black" points="20.0,-192.0 32.0,-192.0 32.0,-204.0 20.0,-204.0" />
<polygon fill="none" stroke-width="1" stroke-dasharray="" stroke="black" points="32.0,-204.0 32.0,-192.0 20.0,-192.0 20.0,-204.0" />
<polygon fill="none" stroke-width="1" stroke-dasharray="" stroke="black" points="32.0,-192.0 32.0,-204.0 32.0,-204.0 32.0,-192.0 32.0,-192.0" />
<polygon fill="none" stroke-width="1" stroke-dasharray="" stroke="black" points="32.0,-192.0 32.0,-192.0 32.0,-204.0 32.0,-204.0 32.0,-192.0" />
<polygon fill="none" stroke-width="1" stroke-dasharray="" stroke="black" points="32.0,-192.0 32.0,-192.0 32.0,-197.0 32.0,-197.0 32.0,-192.0 32.0,-192.0 32.0,-204.0 32.0,-204.0 32.0,-192.0" />
<polygon fill="none" stroke-width="1" stroke-dasharray="" stroke="black" points="32.0,-204.0 432.0,-204.0 432.0,-204.0 432.0,-192.0 32.0,-192.0 32.0,-204.0" />
<polygon fill="none" stroke-width="1" stroke-dasharray="" stroke="black" points="32.0,-204.0 32.0,-192.0 432.0,-192.0 432.0,-204.0 432.0,-204.0 32.0,-204.0" />
<polygon fill="none" stroke-width="1" stroke-dasharray="" stroke="black" points="432.0,-204.0 432.0,-192.0 432.0,-192.0 432.0,-204.0 432.0,-204.0" />
<polygon fill="none" stroke-width="1" stroke-dasharray="" stroke="black" points="432.0,-204.0 432.0,-204.0 432.0,-192.0 432.0,-192.0 432.0,-204.0" />
<polygon fill="none" stroke-width="1" stroke-dasharray="" stroke="black" points="432.0,-204.0 432.0,-204.0 432.0,-192.0 432.0,-192.0 432.0,-197.0 432.0,-197.0 432.0,-192.0 432.0,-192.0 432.0,-204.0" />
<polygon fill="none" stroke-width="1" stroke-dasharray="" stroke="black" points="432.0,-204.0 432.0,-192.0 444.0,-192.0 444.0,-204.0" />
<polygon fill="none" stroke-width="1" stroke-dasharray="" stroke="black" points="444.0,-192.0 432.0,-192.0 432.0,-204.0 444.0,-204.0" />
<polygon fill="none" stroke-width="1" stroke-dasharray="" stroke="black" points="444.0,-204.0 444.0,-192.0 432.0,-192.0 432.0,-204.0" />
<polygon fill="none" stroke-width="1" stroke-dasharray="" stroke="black" points="444.0,-204.0 432.0,-204.0 432.0,-192.0 444.0,-192.0" />
<polygon fill="none" stroke-width="1" stroke-dasharray="" stroke="black" points="432.0,-204.0 432.0,-192.0 444.0,-192.0 444.0,-204.0" />
<polygon fill="none" stroke-width="1" stroke-dasharray="" stroke="black" points="444.0,-192.0 432.0,-192.0 432.0,-204.0 444.0,-204.0" />
<polygon fill="none" stroke-width="1" stroke-dasharray="" stroke="black" points="444.0,-204.0 444.0,-192.0 432.0,-192.0 432.0,-204.0" />
<polygon fill="none" stroke-width="1" stroke-dasharray="" stroke="black" points="444.0,-204.0 432.0,-204.0 432.0,-192.0 444.0,-192.0" />
<polygon fill="none" stroke-width="1" stroke-dasharray="" stroke="black" points="444.0,-204.0 444.0,-204.0 444.0,-192.0 444.0,-192.0 444.0,-204.0" />
<polygon fill="none" stroke-width="1" stroke-dasharray="" stroke="black" points="444.0,-204.0 444.0,-204.0 444.0,-192.0 444.0,-192.0 444.0,-204.0" />
<polygon fill="none" stroke-width="1" stroke-dasharray="" stroke="black" points="32.0,-197.0 32.0,-192.0 432.0,-192.0 432.0,-197.0 432.0,-197.0 32.0,-197.0" />
<polygon fill="none" stroke-width="1" stroke-dasharray="" stroke="black" points="32.0,-197.0 432.0,-197.0 432.0,-197.0 432.0,-192.0 32.0,-192.0 32.0,-197.0" />
<polygon fill="none" stroke-width="1" stroke-dasharray="" stroke="black" points="20.0,-192.0 20.0,-192.0 32.0,-192.0 32.0,-192.0 20.0,-192.0" />
<polygon fill="none" stroke-width="1" stroke-dasharray="" stroke="black" points="20.0,-192.0 20.0,-192.0 32.0,-192.0 32.0,-192.0 20.0,-192.0" />
<polygon fill="none" stroke-width="1" stroke-dasharray="" stroke="black" points="32.0,-192.0 44.0,-192.0 44.0,-192.0 32.0,-192.0 32.0,-192.0" />
<polygon fill="none" stroke-width="1" stroke-dasharray="" stroke="black" points="32.0,-192.0 32.0,-192.0 44.0,-192.0 44.0,-192.0 32.0,-192.0" />
<polygon fill="none" stroke-width="1" stroke-dasharray="" stroke="black" points="32.0,-192.0 32.0,-192.0 44.0,-192.0 44.0,-192.0 32.0,-192.0" />
<polygon fill="none" stroke-width="1" stroke-dasharray="" stroke="black" points="32.0,-192.0 47.0,-192.0 47.0,-192.0 32.0,-192.0 32.0,-192.0" />
<polygon fill="none" stroke-width="1" stroke-dasharray="" stroke="black" points="32.0,-192.0 32.0,-192.0 47.0,-192.0 47.0,-192.0 32.0,-192.0" />
<polygon fill="none" stroke-width="1" stroke-dasharray="" stroke="black" points="32.0,-192.0 44.0,-192.0 44.0,-192.0 420.0,-192.0 420.0,-192.0 432.0,-192.0 432.0,-192.0 432.0,-192.0 432.0,-192.0 420.0,-192.0 420.0,-192.0 432.0,-192.0 432.0,-192.0 420.0,-192.0 420.0,-192.0 420.0,-192.0 44.0,-192.0 44.0,-192.0 44.0,-192.0 32.0,-192.0 32.0,-192.0 44.0,-192.0 44.0,-192.0 32.0,-192.0 32.0,-192.0 32.0,-192.0" />
<polygon fill="none" stroke-width="1" stroke-dasharray="" stroke="black" points="32.0,-192.0 47.0,-192.0 47.0,-192.0 417.0,-192.0 417.0,-192.0 417.0,-192.0 432.0,-192.0 432.0,-192.0 417.0,-192.0 417.0,-192.0 417.0,-192.0 47.0,-192.0 47.0,-192.0 32.0,-192.0 32.0,-192.0 32.0,-192.0" />
<polygon fill="none" stroke-width="1" stroke-dasharray="" stroke="black" points="32.0,-192.0 32.0,-192.0 20.0,-192.0 20.0,-192.0 32.0,-192.0 32.0,-192.0 20.0,-192.0 20.0,-192.0 20.0,-192.0 20.0,-192.0 32.0,-192.0 32.0,-192.0 432.0,-192.0 432.0,-192.0 444.0,-192.0 444.0,-192.0 444.0,-192.0 444.0,-192.0 432.0,-192.0 432.0,-192.0 444.0,-192.0 444.0,-192.0 432.0,-192.0 432.0,-192.0 432.0,-192.0 32.0,-192.0" />
<polygon fill="none" stroke-width="1" stroke-dasharray="" stroke="black" points="32.0,-192.0 32.0,-192.0 62.0,-192.0 62.0,-192.0" />
<polygon fill="none" stroke-width="1" stroke-dasharray="" stroke="black" points="62.0,-192.0 62.0,-192.0 92.0,-192.0 92.0,-192.0" />
<polygon fill="none" stroke-width="1" stroke-dasharray="" stroke="black" points="32.0,-192.0 32.0,-192.0 432.0,-192.0 432.0,-192.0" />
<polygon fill="none" stroke-width="1" stroke-dasharray="" stroke="black" points="32.0,-192.0 32.0,-192.0 432.0,-192.0 432.0,-192.0" />
<polygon fill="none" stroke-width="1" stroke-dasharray="" stroke="black" points="357.0,-192.0 357.0,-192.0 387.0,-192.0 387.0,-192.0" />
<polygon fill="none" stroke-width="1" stroke-dasharray="" stroke="black" points="387.0,-192.0 387.0,-192.0 402.0,-192.0 402.0,-192.0" />
<polygon fill="none" stroke-width="1" stroke-dasharray="" stroke="black" points="402.0,-192.0 402.0,-192.0 432.0,-192.0 432.0,-192.0" />
<polygon fill="none" stroke-width="1" stroke-dasharray="" stroke="black" points="417.0,-192.0 432.0,-192.0 432.0,-192.0 417.0,-192.0 417.0,-192.0" />
<polygon fill="none" stroke-width="1" stroke-dasharray="" stroke="black" points="417.0,-192.0 417.0,-192.0 432.0,-192.0 432.0,-192.0 417.0,-192.0" />
<polygon fill="none" stroke-width="1" stroke-dasharray="" stroke="black" points="420.0,-192.0 432.0,-192.0 432.0,-192.0 420.0,-192.0 420.0,-192.0" />
<polygon fill="none" stroke-width="1" stroke-dasharray="" stroke="black" points="420.0,-192.0 420.0,-192.0 432.0,-192.0 432.0,-192.0 420.0,-192.0" />
<polygon fill="none" stroke-width="1" stroke-dasharray="" stroke="black" points="420.0,-192.0 420.0,-192.0 432.0,-192.0 432.0,-192.0 420.0,-192.0" />
<polygon fill="none" stroke-width="1" stroke-dasharray="" stroke="black" points="432.0,-192.0 432.0,-192.0 444.0,-192.0 444.0,-192.0 432.0,-192.0" />
<polygon fill="none" stroke-width="1" stroke-dasharray="" stroke="black" points="432.0,-192.0 432.0,-192.0 444.0,-192.0 444.0,-192.0 432.0,-192.0" />
<polygon fill="none" stroke-width="1" stroke-dasharray="" stroke="black" points="32.0,-180.0 32.0,-180.0 32.0,-192.0 32.0,-192.0 32.0,-180.0" />
<polygon fill="none" stroke-width="1" stroke-dasharray="" stroke="black" points="32.0,-180.0 32.0,-180.0 32.0,-192.0 32.0,-192.0 32.0,-180.0" />
<polygon fill="none" stroke-width="1" stroke-dasharray="" stroke="black" points="32.0,-192.0 44.0,-192.0 44.0,-180.0 32.0,-180.0" />
<polygon fill="none" stroke-width="1" stroke-dasharray="" stroke="black" points="32.0,-192.0 32.0,-180.0 44.0,-180.0 44.0,-192.0" />
<polygon fill="none" stroke-width="1" stroke-dasharray="" stroke="black" points="32.0,-180.0 44.0,-180.0 44.0,-192.0 32.0,-192.0" />
<polygon fill="none" stroke-width="1" stroke-dasharray="" stroke="black" points="44.0,-192.0 44.0,-180.0 32.0,-180.0 32.0,-192.0" />
<polygon fill="none" stroke-width="1" stroke-dasharray="" stroke="black" points="32.0,-192.0 44.0,-192.0 44.0,-180.0 32.0,-180.0" />
<polygon fill="none" stroke-width="1" stroke-dasharray="" stroke="black" points="32.0,-192.0 32.0,-180.0 44.0,-180.0 44.0,-192.0" />
<polygon fill="none" stroke-width="1" stroke-dasharray="" stroke="black" points="32.0,-180.0 44.0,-180.0 44.0,-192.0 32.0,-192.0" />
<polygon fill="none" stroke-width="1" stroke-dasharray="" stroke="black" points="44.0,-192.0 44.0,-180.0 32.0,-180.0 32.0,-192.0" />
<polygon fill="none" stroke-width="1" stroke-dasharray="" stroke="black" points="44.0,-180.0 44.0,-192.0 44.0,-192.0 44.0,-180.0 44.0,-180.0" />
<polygon fill="none" stroke-width="1" stroke-dasharray="" stroke="black" points="44.0,-180.0 44.0,-180.0 44.0,-192.0 44.0,-192.0 44.0,-180.0" />
<polygon fill="none" stroke-width="1" stroke-dasharray="" stroke="black" points="44.0,-180.0 44.0,-180.0 44.0,-192.0 44.0,-192.0 44.0,-180.0" />
<polygon fill="none" stroke-width="1" stroke-dasharray="" stroke="black" points="44.0,-192.0 420.0,-192.0 420.0,-192.0 420.0,-180.0 44.0,-180.0 44.0,-192.0" />
<polygon fill="none" stroke-width="1" stroke-dasharray="" stroke="black" points="44.0,-192.0 44.0,-180.0 420.0,-180.0 420.0,-192.0 420.0,-192.0 44.0,-192.0" />
<polygon fill="none" stroke-width="1" stroke-dasharray="" stroke="black" points="420.0,-192.0 420.0,-180.0 420.0,-180.0 420.0,-192.0 420.0,-192.0" />
<polygon fill="none" stroke-width="1" stroke-dasharray="" stroke="black" points="420.0,-192.0 420.0,-192.0 420.0,-180.0 420.0,-180.0 420.0,-192.0" />
<polygon fill="none" stroke-width="1" stroke-dasharray="" stroke="black" points="420.0,-192.0 420.0,-192.0 420.0,-180.0 420.0,-180.0 420.0,-192.0" />
<polygon fill="none" stroke-width="1" stroke-dasharray="" stroke="black" points="420.0,-192.0 420.0,-180.0 432.0,-180.0 432.0,-192.0" />
<polygon fill="none" stroke-width="1" stroke-dasharray="" stroke="black" points="432.0,-180.0 420.0,-180.0 420.0,-192.0 432.0,-192.0" />
<polygon fill="none" stroke-width="1" stroke-dasharray="" stroke="black" points="432.0,-192.0 432.0,-180.0 420.0,-180.0 420.0,-192.0" />
<polygon fill="none" stroke-width="1" stroke-dasharray="" stroke="black" points="432.0,-192.0 420.0,-192.0 420.0,-180.0 432.0,-180.0" />
<polygon fill="none" stroke-width="1" stroke-dasharray="" stroke="black" points="420.0,-192.0 420.0,-180.0 432.0,-180.0 432.0,-192.0" />
<polygon fill="none" stroke-width="1" stroke-dasharray="" stroke="black" points="432.0,-180.0 420.0,-180.0 420.0,-192.0 432.0,-192.0" />
<polygon fill="none" stroke-width="1" stroke-dasharray="" stroke="black" points="432.0,-192.0 432.0,-180.0 420.0,-180.0 420.0,-192.0" />
<polygon fill="none" stroke-width="1" stroke-dasharray="" stroke="black" points="432.0,-192.0 420.0,-192.0 420.0,-180.0 432.0,-180.0" />
<polygon fill="none" stroke-width="1" stroke-dasharray="" stroke="black" points="432.0,-192.0 432.0,-192.0 432.0,-180.0 432.0,-180.0 432.0,-192.0" />
<polygon fill="none" stroke-width="1" stroke-dasharray="" stroke="black" points="432.0,-192.0 432.0,-192.0 432.0,-180.0 432.0,-180.0 432.0,-192.0" />
<polygon fill="none" stroke-width="1" stroke-dasharray="" stroke="black" points="32.0,-177.0 32.0,-177.0 32.0,-192.0 32.0,-192.0 32.0,-177.0" />
<polygon fill="none" stroke-width="1" stroke-dasharray="" stroke="black" points="32.0,-192.0 47.0,-192.0 47.0,-177.0 32.0,-177.0" />
<polygon fill="none" stroke-width="1" stroke-dasharray="" stroke="black" points="32.0,-192.0 32.0,-177.0 47.0,-177.0 47.0,-192.0" />
<polygon fill="none" stroke-width="1" stroke-dasharray="" stroke="black" points="32.0,-177.0 47.0,-177.0 47.0,-192.0 32.0,-192.0" />
<polygon fill="none" stroke-width="1" stroke-dasharray="" stroke="black" points="47.0,-192.0 47.0,-177.0 32.0,-177.0 32.0,-192.0" />
<polygon fill="none" stroke-width="1" stroke-dasharray="" stroke="black" points="47.0,-177.0 47.0,-192.0 47.0,-192.0 47.0,-177.0 47.0,-177.0" />
<polygon fill="none" stroke-width="1" stroke-dasharray="" stroke="black" points="47.0,-177.0 47.0,-177.0 47.0,-192.0 47.0,-192.0 47.0,-177.0" />
<polygon fill="none" stroke-width="1" stroke-dasharray="" stroke="black" points="47.0,-192.0 417.0,-192.0 417.0,-192.0 417.0,-177.0 47.0,-177.0 47.0,-192.0" />
<polygon fill="none" stroke-width="1" stroke-dasharray="" stroke="black" points="47.0,-192.0 47.0,-177.0 417.0,-177.0 417.0,-192.0 417.0,-192.0 47.0,-192.0" />
<polygon fill="none" stroke-width="1" stroke-dasharray="" stroke="black" points="417.0,-192.0 417.0,-177.0 417.0,-177.0 417.0,-192.0 417.0,-192.0" />
<polygon fill="none" stroke-width="1" stroke-dasharray="" stroke="black" points="417.0,-192.0 417.0,-192.0 417.0,-177.0 417.0,-177.0 417.0,-192.0" />
<polygon fill="none" stroke-width="1" stroke-dasharray="" stroke="black" points="417.0,-192.0 417.0,-177.0 432.0,-177.0 432.0,-192.0" />
<polygon fill="none" stroke-width="1" stroke-dasharray="" stroke="black" points="432.0,-177.0 417.0,-177.0 417.0,-192.0 432.0,-192.0" />
<polygon fill="none" stroke-width="1" stroke-dasharray="" stroke="black" points="432.0,-192.0 432.0,-177.0 417.0,-177.0 417.0,-192.0" />
<polygon fill="none" stroke-width="1" stroke-dasharray="" stroke="black" points="432.0,-192.0 417.0,-192.0 417.0,-177.0 432.0,-177.0" />
<polygon fill="none" stroke-width="1" stroke-dasharray="" stroke="black" points="432.0,-192.0 432.0,-192.0 432.0,-177.0 432.0,-177.0 432.0,-192.0" />
<polygon fill="none" stroke-width="1" stroke-dasharray="" stroke="black" points="32.0,-180.0 32.0,-180.0 44.0,-180.0 44.0,-180.0 32.0,-180.0" />
<polygon fill="none" stroke-width="1" stroke-dasharray="" stroke="black" points="32.0,-180.0 32.0,-180.0 44.0,-180.0 44.0,-180.0 32.0,-180.0" />
<polygon fill="none" stroke-width="1" stroke-dasharray="" stroke="black" points="44.0,-180.0 44.0,-180.0 32.0,-180.0 32.0,-180.0 44.0,-180.0 44.0,-180.0 32.0,-180.0 32.0,-180.0 32.0,-180.0 32.0,-180.0 44.0,-180.0 44.0,-180.0 420.0,-180.0 420.0,-180.0 432.0,-180.0 432.0,-180.0 432.0,-180.0 432.0,-180.0 420.0,-180.0 420.0,-180.0 432.0,-180.0 432.0,-180.0 420.0,-180.0 420.0,-180.0 420.0,-180.0 44.0,-180.0" />
<polygon fill="none" stroke-width="1" stroke-dasharray="" stroke="black" points="44.0,-180.0 44.0,-180.0 420.0,-180.0 420.0,-180.0" />
<polygon fill="none" stroke-width="1" stroke-dasharray="" stroke="black" points="420.0,-180.0 420.0,-180.0 432.0,-180.0 432.0,-180.0 420.0,-180.0" />
<polygon fill="none" stroke-width="1" stroke-dasharray="" stroke="black" points="420.0,-180.0 420.0,-180.0 432.0,-180.0 432.0,-180.0 420.0,-180.0" />
<polygon fill="none" stroke-width="1" stroke-dasharray="" stroke="black" points="32.0,-177.0 32.0,-177.0 47.0,-177.0 47.0,-177.0 32.0,-177.0" />
<polygon fill="none" stroke-width="1" stroke-dasharray="" stroke="black" points="47.0,-177.0 47.0,-177.0 32.0,-177.0 32.0,-177.0 47.0,-177.0 47.0,-177.0 47.0,-177.0 417.0,-177.0 417.0,-177.0 432.0,-177.0 432.0,-177.0 432.0,-177.0 432.0,-177.0 417.0,-177.0 417.0,-177.0 47.0,-177.0" />
<polygon fill="none" stroke-width="1" stroke-dasharray="" stroke="black" points="417.0,-177.0 417.0,-177.0 432.0,-177.0 432.0,-177.0 417.0,-177.0" />
<polygon fill="none" stroke-width="1" stroke-dasharray="" stroke="black" points="32.0,-92.0 32.0,-92.0 32.0,-192.0 32.0,-192.0 32.0,-192.0 32.0,-177.0 32.0,-177.0 32.0,-192.0 32.0,-192.0 32.0,-92.0 32.0,-92.0 32.0,-107.0 32.0,-107.0 32.0,-92.0" />
<polygon fill="none" stroke-width="1" stroke-dasharray="" stroke="black" points="47.0,-192.0 47.0,-92.0 32.0,-92.0 32.0,-192.0" />
<polygon fill="none" stroke-width="1" stroke-dasharray="" stroke="black" points="32.0,-192.0 32.0,-92.0 47.0,-92.0 47.0,-192.0" />
<polygon fill="none" stroke-width="1" stroke-dasharray="" stroke="black" points="47.0,-92.0 47.0,-92.0 47.0,-192.0 47.0,-192.0 47.0,-192.0 47.0,-177.0 47.0,-177.0 47.0,-192.0 47.0,-192.0 47.0,-92.0 47.0,-92.0 47.0,-107.0 47.0,-107.0 47.0,-92.0" />
<polygon fill="none" stroke-width="1" stroke-dasharray="" stroke="black" points="32.0,-92.0 32.0,-92.0 32.0,-192.0 32.0,-192.0" />
<polygon fill="none" stroke-width="1" stroke-dasharray="" stroke="black" points="32.0,-192.0 432.0,-192.0 432.0,-92.0 32.0,-92.0" />
<polygon fill="none" stroke-width="1" stroke-dasharray="" stroke="black" points="32.0,-92.0 432.0,-92.0 432.0,-192.0 32.0,-192.0" />
<polygon fill="none" stroke-width="1" stroke-dasharray="" stroke="black" points="417.0,-192.0 417.0,-192.0 417.0,-92.0 417.0,-92.0 417.0,-92.0 417.0,-107.0 417.0,-107.0 417.0,-92.0 417.0,-92.0 417.0,-192.0 417.0,-192.0 417.0,-177.0 417.0,-177.0 417.0,-192.0" />
<polygon fill="none" stroke-width="1" stroke-dasharray="" stroke="black" points="417.0,-92.0 417.0,-192.0 432.0,-192.0 432.0,-92.0" />
<polygon fill="none" stroke-width="1" stroke-dasharray="" stroke="black" points="432.0,-92.0 432.0,-192.0 417.0,-192.0 417.0,-92.0" />
<polygon fill="none" stroke-width="1" stroke-dasharray="" stroke="black" points="432.0,-192.0 432.0,-192.0 432.0,-92.0 432.0,-92.0 432.0,-92.0 432.0,-107.0 432.0,-107.0 432.0,-92.0 432.0,-92.0 432.0,-192.0 432.0,-192.0 432.0,-177.0 432.0,-177.0 432.0,-192.0" />
<polygon fill="none" stroke-width="1" stroke-dasharray="" stroke="black" points="432.0,-192.0 432.0,-192.0 432.0,-92.0 432.0,-92.0" />
<polygon fill="none" stroke-width="1" stroke-dasharray="" stroke="black" points="47.0,-107.0 47.0,-107.0 32.0,-107.0 32.0,-107.0 47.0,-107.0" />
<polygon fill="none" stroke-width="1" stroke-dasharray="" stroke="black" points="417.0,-107.0 417.0,-107.0 432.0,-107.0 432.0,-107.0 417.0,-107.0 417.0,-107.0 417.0,-107.0 47.0,-107.0 47.0,-107.0 32.0,-107.0 32.0,-107.0 32.0,-107.0 32.0,-107.0 47.0,-107.0 47.0,-107.0 417.0,-107.0" />
<polygon fill="none" stroke-width="1" stroke-dasharray="" stroke="black" points="432.0,-107.0 432.0,-107.0 417.0,-107.0 417.0,-107.0 432.0,-107.0" />
<polygon fill="none" stroke-width="1" stroke-dasharray="" stroke="black" points="47.0,-92.0 47.0,-107.0 32.0,-107.0 32.0,-92.0" />
<polygon fill="none" stroke-width="1" stroke-dasharray="" stroke="black" points="32.0,-92.0 32.0,-107.0 47.0,-107.0 47.0,-92.0" />
<polygon fill="none" stroke-width="1" stroke-dasharray="" stroke="black" points="32.0,-92.0 32.0,-92.0 32.0,-107.0 32.0,-107.0 32.0,-92.0" />
<polygon fill="none" stroke-width="1" stroke-dasharray="" stroke="black" points="32.0,-107.0 47.0,-107.0 47.0,-92.0 32.0,-92.0" />
<polygon fill="none" stroke-width="1" stroke-dasharray="" stroke="black" points="32.0,-92.0 47.0,-92.0 47.0,-107.0 32.0,-107.0" />
<polygon fill="none" stroke-width="1" stroke-dasharray="" stroke="black" points="47.0,-92.0 47.0,-107.0 47.0,-107.0 47.0,-92.0 47.0,-92.0" />
<polygon fill="none" stroke-width="1" stroke-dasharray="" stroke="black" points="47.0,-92.0 47.0,-92.0 47.0,-107.0 47.0,-107.0 47.0,-92.0" />
<polygon fill="none" stroke-width="1" stroke-dasharray="" stroke="black" points="417.0,-92.0 47.0,-92.0 47.0,-92.0 47.0,-107.0 417.0,-107.0 417.0,-92.0" />
<polygon fill="none" stroke-width="1" stroke-dasharray="" stroke="black" points="417.0,-92.0 417.0,-107.0 47.0,-107.0 47.0,-92.0 47.0,-92.0 417.0,-92.0" />
<polygon fill="none" stroke-width="1" stroke-dasharray="" stroke="black" points="417.0,-107.0 417.0,-92.0 417.0,-92.0 417.0,-107.0 417.0,-107.0" />
<polygon fill="none" stroke-width="1" stroke-dasharray="" stroke="black" points="417.0,-107.0 417.0,-107.0 417.0,-92.0 417.0,-92.0 417.0,-107.0" />
<polygon fill="none" stroke-width="1" stroke-dasharray="" stroke="black" points="432.0,-92.0 417.0,-92.0 417.0,-107.0 432.0,-107.0" />
<polygon fill="none" stroke-width="1" stroke-dasharray="" stroke="black" points="432.0,-92.0 432.0,-107.0 417.0,-107.0 417.0,-92.0" />
<polygon fill="none" stroke-width="1" stroke-dasharray="" stroke="black" points="432.0,-107.0 417.0,-107.0 417.0,-92.0 432.0,-92.0" />
<polygon fill="none" stroke-width="1" stroke-dasharray="" stroke="black" points="417.0,-92.0 417.0,-107.0 432.0,-107.0 432.0,-92.0" />
<polygon fill="none" stroke-width="1" stroke-dasharray="" stroke="black" points="432.0,-107.0 432.0,-107.0 432.0,-92.0 432.0,-92.0 432.0,-107.0" />
<polygon fill="none" stroke-width="1" stroke-dasharray="" stroke="black" points="20.0,20.0 20.0,20.0 20.0,-204.0 20.0,-204.0 20.0,-192.0 20.0,-192.0 20.0,-204.0 20.0,-204.0 20.0,-204.0 20.0,-204.0 20.0,-192.0 20.0,-192.0 20.0,-204.0 20.0,-204.0 20.0,20.0 20.0,20.0 20.0,20.0 20.0,8.0 20.0,8.0 20.0,20.0 20.0,20.0 20.0,8.0 20.0,8.0 20.0,20.0" />
<polygon fill="none" stroke-width="1" stroke-dasharray="" stroke="black" points="32.0,-204.0 32.0,20.0 20.0,20.0 20.0,-204.0" />
<polygon fill="none" stroke-width="1" stroke-dasharray="" stroke="black" points="20.0,-204.0 20.0,20.0 32.0,20.0 32.0,-204.0" />
<polygon fill="none" stroke-width="1" stroke-dasharray="" stroke="black" points="27.0,-204.0 27.0,20.0 32.0,20.0 32.0,-204.0" />
<polygon fill="none" stroke-width="1" stroke-dasharray="" stroke="black" points="32.0,-204.0 32.0,20.0 27.0,20.0 27.0,-204.0" />
<polygon fill="none" stroke-width="1" stroke-dasharray="" stroke="black" points="32.0,20.0 32.0,20.0 32.0,20.0 32.0,8.0 32.0,8.0 32.0,20.0 32.0,20.0 32.0,-204.0 32.0,-204.0 32.0,-204.0 32.0,-192.0 32.0,-192.0 32.0,-204.0 32.0,-204.0 32.0,-192.0 32.0,-192.0 32.0,-204.0 32.0,-204.0 32.0,-204.0 32.0,20.0 32.0,20.0 32.0,8.0 32.0,8.0 32.0,20.0" />
<polygon fill="none" stroke-width="1" stroke-dasharray="" stroke="black" points="32.0,8.0 32.0,8.0 32.0,-192.0 32.0,-192.0 32.0,-180.0 32.0,-180.0 32.0,-192.0 32.0,-192.0 32.0,-192.0 32.0,-192.0 32.0,-180.0 32.0,-180.0 32.0,-192.0 32.0,-192.0 32.0,8.0 32.0,8.0 32.0,8.0 32.0,-4.0 32.0,-4.0 32.0,8.0 32.0,8.0 32.0,-4.0 32.0,-4.0 32.0,8.0" />
<polygon fill="none" stroke-width="1" stroke-dasharray="" stroke="black" points="44.0,-192.0 44.0,8.0 32.0,8.0 32.0,-192.0" />
<polygon fill="none" stroke-width="1" stroke-dasharray="" stroke="black" points="32.0,-192.0 32.0,8.0 44.0,8.0 44.0,-192.0" />
<polygon fill="none" stroke-width="1" stroke-dasharray="" stroke="black" points="47.0,-92.0 32.0,-92.0 32.0,-92.0 47.0,-92.0 47.0,-92.0" />
<polygon fill="none" stroke-width="1" stroke-dasharray="" stroke="black" points="47.0,-92.0 47.0,-92.0 32.0,-92.0 32.0,-92.0 47.0,-92.0" />
<polygon fill="none" stroke-width="1" stroke-dasharray="" stroke="black" points="44.0,8.0 44.0,8.0 44.0,8.0 44.0,-4.0 44.0,-4.0 44.0,8.0 44.0,8.0 44.0,-192.0 44.0,-192.0 44.0,-192.0 44.0,-180.0 44.0,-180.0 44.0,-192.0 44.0,-192.0 44.0,-180.0 44.0,-180.0 44.0,-192.0 44.0,-192.0 44.0,-192.0 44.0,8.0 44.0,8.0 44.0,-4.0 44.0,-4.0 44.0,8.0" />
<polygon fill="none" stroke-width="1" stroke-dasharray="" stroke="black" points="20.0,20.0 20.0,20.0 20.0,-204.0 20.0,-204.0" />
<polygon fill="none" stroke-width="1" stroke-dasharray="" stroke="black" points="32.0,8.0 32.0,8.0 32.0,-192.0 32.0,-192.0" />
<polygon fill="none" stroke-width="1" stroke-dasharray="" stroke="black" points="32.0,8.0 32.0,8.0 32.0,-192.0 32.0,-192.0" />
<polygon fill="none" stroke-width="1" stroke-dasharray="" stroke="black" points="44.0,-4.0 44.0,-4.0 44.0,-180.0 44.0,-180.0" />
<polygon fill="none" stroke-width="1" stroke-dasharray="" stroke="black" points="32.0,-192.0 62.0,-192.0 62.0,8.0 32.0,8.0" />
<polygon fill="none" stroke-width="1" stroke-dasharray="" stroke="black" points="32.0,8.0 62.0,8.0 62.0,-192.0 32.0,-192.0" />
<polygon fill="none" stroke-width="1" stroke-dasharray="" stroke="black" points="62.0,-192.0 62.0,-192.0 62.0,8.0 62.0,8.0" />
<polygon fill="none" stroke-width="1" stroke-dasharray="" stroke="black" points="62.0,8.0 62.0,8.0 62.0,-192.0 62.0,-192.0" />
<polygon fill="none" stroke-width="1" stroke-dasharray="" stroke="black" points="62.0,-192.0 92.0,-192.0 92.0,8.0 62.0,8.0" />
<polygon fill="none" stroke-width="1" stroke-dasharray="" stroke="black" points="62.0,8.0 92.0,8.0 92.0,-192.0 62.0,-192.0" />
<polygon fill="none" stroke-width="1" stroke-dasharray="" stroke="black" points="92.0,-192.0 92.0,-192.0 92.0,8.0 92.0,8.0" />
<polygon fill="none" stroke-width="1" stroke-dasharray="" stroke="black" points="44.0,-180.0 420.0,-180.0 420.0,-4.0 44.0,-4.0" />
<polygon fill="none" stroke-width="1" stroke-dasharray="" stroke="black" points="44.0,-4.0 420.0,-4.0 420.0,-180.0 44.0,-180.0" />
<polygon fill="none" stroke-width="1" stroke-dasharray="" stroke="black" points="32.0,-192.0 432.0,-192.0 432.0,8.0 32.0,8.0" />
<polygon fill="none" stroke-width="1" stroke-dasharray="" stroke="black" points="32.0,8.0 432.0,8.0 432.0,-192.0 32.0,-192.0" />
<polygon fill="none" stroke-width="1" stroke-dasharray="" stroke="black" points="432.0,-92.0 417.0,-92.0 417.0,-92.0 47.0,-92.0 47.0,-92.0 47.0,-92.0 32.0,-92.0 32.0,-92.0 47.0,-92.0 47.0,-92.0 47.0,-92.0 417.0,-92.0 417.0,-92.0 432.0,-92.0 432.0,-92.0 432.0,-92.0" />
<polygon fill="none" stroke-width="1" stroke-dasharray="" stroke="black" points="32.0,-92.0 432.0,-92.0 432.0,-92.0 32.0,-92.0" />
<polygon fill="none" stroke-width="1" stroke-dasharray="" stroke="black" points="20.0,-204.0 444.0,-204.0 444.0,20.0 20.0,20.0" />
<polygon fill="none" stroke-width="1" stroke-dasharray="" stroke="black" points="20.0,20.0 444.0,20.0 444.0,-204.0 20.0,-204.0" />
<polygon fill="none" stroke-width="1" stroke-dasharray="" stroke="black" points="357.0,8.0 357.0,8.0 357.0,-192.0 357.0,-192.0" />
<polygon fill="none" stroke-width="1" stroke-dasharray="" stroke="black" points="357.0,-192.0 387.0,-192.0 387.0,8.0 357.0,8.0" />
<polygon fill="none" stroke-width="1" stroke-dasharray="" stroke="black" points="357.0,8.0 387.0,8.0 387.0,-192.0 357.0,-192.0" />
<polygon fill="none" stroke-width="1" stroke-dasharray="" stroke="black" points="387.0,8.0 387.0,8.0 387.0,-192.0 387.0,-192.0" />
<polygon fill="none" stroke-width="1" stroke-dasharray="" stroke="black" points="387.0,-192.0 387.0,-192.0 387.0,8.0 387.0,8.0" />
<polygon fill="none" stroke-width="1" stroke-dasharray="" stroke="black" points="387.0,-192.0 402.0,-192.0 402.0,8.0 387.0,8.0" />
<polygon fill="none" stroke-width="1" stroke-dasharray="" stroke="black" points="387.0,8.0 402.0,8.0 402.0,-192.0 387.0,-192.0" />
<polygon fill="none" stroke-width="1" stroke-dasharray="" stroke="black" points="402.0,-192.0 402.0,-192.0 402.0,8.0 402.0,8.0" />
<polygon fill="none" stroke-width="1" stroke-dasharray="" stroke="black" points="402.0,8.0 402.0,8.0 402.0,-192.0 402.0,-192.0" />
<polygon fill="none" stroke-width="1" stroke-dasharray="" stroke="black" points="402.0,-192.0 432.0,-192.0 432.0,8.0 402.0,8.0" />
<polygon fill="none" stroke-width="1" stroke-dasharray="" stroke="black" points="402.0,8.0 432.0,8.0 432.0,-192.0 402.0,-192.0" />
<polygon fill="none" stroke-width="1" stroke-dasharray="" stroke="black" points="420.0,-180.0 420.0,-180.0 420.0,-4.0 420.0,-4.0" />
<polygon fill="none" stroke-width="1" stroke-dasharray="" stroke="black" points="420.0,-192.0 420.0,-192.0 420.0,-192.0 420.0,-180.0 420.0,-180.0 420.0,-192.0 420.0,-192.0 420.0,8.0 420.0,8.0 420.0,8.0 420.0,-4.0 420.0,-4.0 420.0,8.0 420.0,8.0 420.0,-4.0 420.0,-4.0 420.0,8.0 420.0,8.0 420.0,8.0 420.0,-192.0 420.0,-192.0 420.0,-180.0 420.0,-180.0 420.0,-192.0" />
<polygon fill="none" stroke-width="1" stroke-dasharray="" stroke="black" points="432.0,-92.0 417.0,-92.0 417.0,-92.0 432.0,-92.0 432.0,-92.0" />
<polygon fill="none" stroke-width="1" stroke-dasharray="" stroke="black" points="432.0,-92.0 432.0,-92.0 417.0,-92.0 417.0,-92.0 432.0,-92.0" />
<polygon fill="none" stroke-width="1" stroke-dasharray="" stroke="black" points="420.0,8.0 420.0,-192.0 432.0,-192.0 432.0,8.0" />
<polygon fill="none" stroke-width="1" stroke-dasharray="" stroke="black" points="432.0,8.0 432.0,-192.0 420.0,-192.0 420.0,8.0" />
<polygon fill="none" stroke-width="1" stroke-dasharray="" stroke="black" points="432.0,-192.0 432.0,-192.0 432.0,8.0 432.0,8.0" />
<polygon fill="none" stroke-width="1" stroke-dasharray="" stroke="black" points="432.0,-192.0 432.0,-192.0 432.0,8.0 432.0,8.0 432.0,-4.0 432.0,-4.0 432.0,8.0 432.0,8.0 432.0,8.0 432.0,8.0 432.0,-4.0 432.0,-4.0 432.0,8.0 432.0,8.0 432.0,-192.0 432.0,-192.0 432.0,-192.0 432.0,-180.0 432.0,-180.0 432.0,-192.0 432.0,-192.0 432.0,-180.0 432.0,-180.0 432.0,-192.0" />
<polygon fill="none" stroke-width="1" stroke-dasharray="" stroke="black" points="432.0,-192.0 432.0,-192.0 432.0,8.0 432.0,8.0" />
<polygon fill="none" stroke-width="1" stroke-dasharray="" stroke="black" points="432.0,-204.0 432.0,-204.0 432.0,-204.0 432.0,-192.0 432.0,-192.0 432.0,-204.0 432.0,-204.0 432.0,20.0 432.0,20.0 432.0,20.0 432.0,8.0 432.0,8.0 432.0,20.0 432.0,20.0 432.0,8.0 432.0,8.0 432.0,20.0 432.0,20.0 432.0,20.0 432.0,-204.0 432.0,-204.0 432.0,-192.0 432.0,-192.0 432.0,-204.0" />
<polygon fill="none" stroke-width="1" stroke-dasharray="" stroke="black" points="437.0,20.0 437.0,-204.0 432.0,-204.0 432.0,20.0" />
<polygon fill="none" stroke-width="1" stroke-dasharray="" stroke="black" points="432.0,20.0 432.0,-204.0 437.0,-204.0 437.0,20.0" />
<polygon fill="none" stroke-width="1" stroke-dasharray="" stroke="black" points="432.0,20.0 432.0,-204.0 444.0,-204.0 444.0,20.0" />
<polygon fill="none" stroke-width="1" stroke-dasharray="" stroke="black" points="444.0,20.0 444.0,-204.0 432.0,-204.0 432.0,20.0" />
<polygon fill="none" stroke-width="1" stroke-dasharray="" stroke="black" points="444.0,-204.0 444.0,-204.0 444.0,20.0 444.0,20.0 444.0,8.0 444.0,8.0 444.0,20.0 444.0,20.0 444.0,20.0 444.0,20.0 444.0,8.0 444.0,8.0 444.0,20.0 444.0,20.0 444.0,-204.0 444.0,-204.0 444.0,-204.0 444.0,-192.0 444.0,-192.0 444.0,-204.0 444.0,-204.0 444.0,-192.0 444.0,-192.0 444.0,-204.0" />
<polygon fill="none" stroke-width="1" stroke-dasharray="" stroke="black" points="444.0,-204.0 444.0,-204.0 444.0,20.0 444.0,20.0" />
<polygon fill="none" stroke-width="1" stroke-dasharray="" stroke="black" points="44.0,-4.0 44.0,-4.0 32.0,-4.0 32.0,-4.0 44.0,-4.0" />
<polygon fill="none" stroke-width="1" stroke-dasharray="" stroke="black" points="44.0,-4.0 44.0,-4.0 32.0,-4.0 32.0,-4.0 44.0,-4.0" />
<polygon fill="none" stroke-width="1" stroke-dasharray="" stroke="black" points="44.0,-4.0 420.0,-4.0 420.0,-4.0 44.0,-4.0" />
<polygon fill="none" stroke-width="1" stroke-dasharray="" stroke="black" points="420.0,-4.0 420.0,-4.0 432.0,-4.0 432.0,-4.0 420.0,-4.0 420.0,-4.0 432.0,-4.0 432.0,-4.0 432.0,-4.0 432.0,-4.0 420.0,-4.0 420.0,-4.0 44.0,-4.0 44.0,-4.0 32.0,-4.0 32.0,-4.0 32.0,-4.0 32.0,-4.0 44.0,-4.0 44.0,-4.0 32.0,-4.0 32.0,-4.0 44.0,-4.0 44.0,-4.0 44.0,-4.0 420.0,-4.0" />
<polygon fill="none" stroke-width="1" stroke-dasharray="" stroke="black" points="432.0,-4.0 432.0,-4.0 420.0,-4.0 420.0,-4.0 432.0,-4.0" />
<polygon fill="none" stroke-width="1" stroke-dasharray="" stroke="black" points="432.0,-4.0 432.0,-4.0 420.0,-4.0 420.0,-4.0 432.0,-4.0" />
<polygon fill="none" stroke-width="1" stroke-dasharray="" stroke="black" points="44.0,8.0 44.0,-4.0 32.0,-4.0 32.0,8.0" />
<polygon fill="none" stroke-width="1" stroke-dasharray="" stroke="black" points="32.0,8.0 32.0,-4.0 44.0,-4.0 44.0,8.0" />
<polygon fill="none" stroke-width="1" stroke-dasharray="" stroke="black" points="44.0,8.0 44.0,-4.0 32.0,-4.0 32.0,8.0" />
<polygon fill="none" stroke-width="1" stroke-dasharray="" stroke="black" points="32.0,8.0 32.0,-4.0 44.0,-4.0 44.0,8.0" />
<polygon fill="none" stroke-width="1" stroke-dasharray="" stroke="black" points="32.0,8.0 32.0,8.0 32.0,-4.0 32.0,-4.0 32.0,8.0" />
<polygon fill="none" stroke-width="1" stroke-dasharray="" stroke="black" points="32.0,8.0 32.0,8.0 32.0,-4.0 32.0,-4.0 32.0,8.0" />
<polygon fill="none" stroke-width="1" stroke-dasharray="" stroke="black" points="32.0,-4.0 44.0,-4.0 44.0,8.0 32.0,8.0" />
<polygon fill="none" stroke-width="1" stroke-dasharray="" stroke="black" points="32.0,8.0 44.0,8.0 44.0,-4.0 32.0,-4.0" />
<polygon fill="none" stroke-width="1" stroke-dasharray="" stroke="black" points="32.0,-4.0 44.0,-4.0 44.0,8.0 32.0,8.0" />
<polygon fill="none" stroke-width="1" stroke-dasharray="" stroke="black" points="32.0,8.0 44.0,8.0 44.0,-4.0 32.0,-4.0" />
<polygon fill="none" stroke-width="1" stroke-dasharray="" stroke="black" points="44.0,8.0 44.0,-4.0 44.0,-4.0 44.0,8.0 44.0,8.0" />
<polygon fill="none" stroke-width="1" stroke-dasharray="" stroke="black" points="44.0,8.0 44.0,8.0 44.0,-4.0 44.0,-4.0 44.0,8.0" />
<polygon fill="none" stroke-width="1" stroke-dasharray="" stroke="black" points="44.0,8.0 44.0,8.0 44.0,-4.0 44.0,-4.0 44.0,8.0" />
<polygon fill="none" stroke-width="1" stroke-dasharray="" stroke="black" points="420.0,8.0 44.0,8.0 44.0,8.0 44.0,-4.0 420.0,-4.0 420.0,8.0" />
<polygon fill="none" stroke-width="1" stroke-dasharray="" stroke="black" points="420.0,8.0 420.0,-4.0 44.0,-4.0 44.0,8.0 44.0,8.0 420.0,8.0" />
<polygon fill="none" stroke-width="1" stroke-dasharray="" stroke="black" points="420.0,-4.0 420.0,8.0 420.0,8.0 420.0,-4.0 420.0,-4.0" />
<polygon fill="none" stroke-width="1" stroke-dasharray="" stroke="black" points="420.0,-4.0 420.0,-4.0 420.0,8.0 420.0,8.0 420.0,-4.0" />
<polygon fill="none" stroke-width="1" stroke-dasharray="" stroke="black" points="420.0,-4.0 420.0,-4.0 420.0,8.0 420.0,8.0 420.0,-4.0" />
<polygon fill="none" stroke-width="1" stroke-dasharray="" stroke="black" points="432.0,8.0 420.0,8.0 420.0,-4.0 432.0,-4.0" />
<polygon fill="none" stroke-width="1" stroke-dasharray="" stroke="black" points="432.0,8.0 432.0,-4.0 420.0,-4.0 420.0,8.0" />
<polygon fill="none" stroke-width="1" stroke-dasharray="" stroke="black" points="432.0,-4.0 420.0,-4.0 420.0,8.0 432.0,8.0" />
<polygon fill="none" stroke-width="1" stroke-dasharray="" stroke="black" points="420.0,8.0 420.0,-4.0 432.0,-4.0 432.0,8.0" />
<polygon fill="none" stroke-width="1" stroke-dasharray="" stroke="black" points="432.0,8.0 420.0,8.0 420.0,-4.0 432.0,-4.0" />
<polygon fill="none" stroke-width="1" stroke-dasharray="" stroke="black" points="432.0,8.0 432.0,-4.0 420.0,-4.0 420.0,8.0" />
<polygon fill="none" stroke-width="1" stroke-dasharray="" stroke="black" points="432.0,-4.0 420.0,-4.0 420.0,8.0 432.0,8.0" />
<polygon fill="none" stroke-width="1" stroke-dasharray="" stroke="black" points="420.0,8.0 420.0,-4.0 432.0,-4.0 432.0,8.0" />
<polygon fill="none" stroke-width="1" stroke-dasharray="" stroke="black" points="432.0,-4.0 432.0,-4.0 432.0,8.0 432.0,8.0 432.0,-4.0" />
<polygon fill="none" stroke-width="1" stroke-dasharray="" stroke="black" points="432.0,-4.0 432.0,-4.0 432.0,8.0 432.0,8.0 432.0,-4.0" />
<polygon fill="none" stroke-width="1" stroke-dasharray="" stroke="black" points="32.0,8.0 32.0,8.0 20.0,8.0 20.0,8.0 32.0,8.0" />
<polygon fill="none" stroke-width="1" stroke-dasharray="" stroke="black" points="32.0,8.0 32.0,8.0 20.0,8.0 20.0,8.0 32.0,8.0" />
<polygon fill="none" stroke-width="1" stroke-dasharray="" stroke="black" points="44.0,8.0 32.0,8.0 32.0,8.0 44.0,8.0 44.0,8.0" />
<polygon fill="none" stroke-width="1" stroke-dasharray="" stroke="black" points="44.0,8.0 44.0,8.0 32.0,8.0 32.0,8.0 44.0,8.0" />
<polygon fill="none" stroke-width="1" stroke-dasharray="" stroke="black" points="44.0,8.0 44.0,8.0 32.0,8.0 32.0,8.0 44.0,8.0" />
<polygon fill="none" stroke-width="1" stroke-dasharray="" stroke="black" points="32.0,8.0 62.0,8.0 62.0,8.0 32.0,8.0" />
<polygon fill="none" stroke-width="1" stroke-dasharray="" stroke="black" points="62.0,8.0 92.0,8.0 92.0,8.0 62.0,8.0" />
<polygon fill="none" stroke-width="1" stroke-dasharray="" stroke="black" points="432.0,8.0 420.0,8.0 420.0,8.0 44.0,8.0 44.0,8.0 32.0,8.0 32.0,8.0 32.0,8.0 32.0,8.0 44.0,8.0 44.0,8.0 32.0,8.0 32.0,8.0 44.0,8.0 44.0,8.0 44.0,8.0 420.0,8.0 420.0,8.0 420.0,8.0 432.0,8.0 432.0,8.0 420.0,8.0 420.0,8.0 432.0,8.0 432.0,8.0 432.0,8.0" />
<polygon fill="none" stroke-width="1" stroke-dasharray="" stroke="black" points="32.0,8.0 432.0,8.0 432.0,8.0 32.0,8.0" />
<polygon fill="none" stroke-width="1" stroke-dasharray="" stroke="black" points="432.0,8.0 432.0,8.0 444.0,8.0 444.0,8.0 432.0,8.0 432.0,8.0 444.0,8.0 444.0,8.0 444.0,8.0 444.0,8.0 432.0,8.0 432.0,8.0 32.0,8.0 32.0,8.0 20.0,8.0 20.0,8.0 20.0,8.0 20.0,8.0 32.0,8.0 32.0,8.0 20.0,8.0 20.0,8.0 32.0,8.0 32.0,8.0 32.0,8.0 432.0,8.0" />
<polygon fill="none" stroke-width="1" stroke-dasharray="" stroke="black" points="357.0,8.0 387.0,8.0 387.0,8.0 357.0,8.0" />
<polygon fill="none" stroke-width="1" stroke-dasharray="" stroke="black" points="387.0,8.0 402.0,8.0 402.0,8.0 387.0,8.0" />
<polygon fill="none" stroke-width="1" stroke-dasharray="" stroke="black" points="402.0,8.0 432.0,8.0 432.0,8.0 402.0,8.0" />
<polygon fill="none" stroke-width="1" stroke-dasharray="" stroke="black" points="432.0,8.0 420.0,8.0 420.0,8.0 432.0,8.0 432.0,8.0" />
<polygon fill="none" stroke-width="1" stroke-dasharray="" stroke="black" points="432.0,8.0 432.0,8.0 420.0,8.0 420.0,8.0 432.0,8.0" />
<polygon fill="none" stroke-width="1" stroke-dasharray="" stroke="black" points="432.0,8.0 432.0,8.0 420.0,8.0 420.0,8.0 432.0,8.0" />
<polygon fill="none" stroke-width="1" stroke-dasharray="" stroke="black" points="444.0,8.0 444.0,8.0 432.0,8.0 432.0,8.0 444.0,8.0" />
<polygon fill="none" stroke-width="1" stroke-dasharray="" stroke="black" points="444.0,8.0 444.0,8.0 432.0,8.0 432.0,8.0 444.0,8.0" />
<polygon fill="none" stroke-width="1" stroke-dasharray="" stroke="black" points="432.0,13.0 432.0,8.0 32.0,8.0 32.0,13.0 32.0,13.0 432.0,13.0" />
<polygon fill="none" stroke-width="1" stroke-dasharray="" stroke="black" points="432.0,13.0 32.0,13.0 32.0,13.0 32.0,8.0 432.0,8.0 432.0,13.0" />
<polygon fill="none" stroke-width="1" stroke-dasharray="" stroke="black" points="32.0,20.0 32.0,8.0 20.0,8.0 20.0,20.0" />
<polygon fill="none" stroke-width="1" stroke-dasharray="" stroke="black" points="20.0,20.0 20.0,8.0 32.0,8.0 32.0,20.0" />
<polygon fill="none" stroke-width="1" stroke-dasharray="" stroke="black" points="32.0,20.0 32.0,8.0 20.0,8.0 20.0,20.0" />
<polygon fill="none" stroke-width="1" stroke-dasharray="" stroke="black" points="20.0,20.0 20.0,8.0 32.0,8.0 32.0,20.0" />
<polygon fill="none" stroke-width="1" stroke-dasharray="" stroke="black" points="20.0,20.0 20.0,20.0 20.0,8.0 20.0,8.0 20.0,20.0" />
<polygon fill="none" stroke-width="1" stroke-dasharray="" stroke="black" points="20.0,20.0 20.0,20.0 20.0,8.0 20.0,8.0 20.0,20.0" />
<polygon fill="none" stroke-width="1" stroke-dasharray="" stroke="black" points="20.0,8.0 32.0,8.0 32.0,20.0 20.0,20.0" />
<polygon fill="none" stroke-width="1" stroke-dasharray="" stroke="black" points="20.0,20.0 32.0,20.0 32.0,8.0 20.0,8.0" />
<polygon fill="none" stroke-width="1" stroke-dasharray="" stroke="black" points="20.0,8.0 32.0,8.0 32.0,20.0 20.0,20.0" />
<polygon fill="none" stroke-width="1" stroke-dasharray="" stroke="black" points="20.0,20.0 32.0,20.0 32.0,8.0 20.0,8.0" />
<polygon fill="none" stroke-width="1" stroke-dasharray="" stroke="black" points="32.0,20.0 32.0,8.0 32.0,8.0 32.0,20.0 32.0,20.0" />
<polygon fill="none" stroke-width="1" stroke-dasharray="" stroke="black" points="32.0,20.0 32.0,20.0 32.0,8.0 32.0,8.0 32.0,20.0" />
<polygon fill="none" stroke-width="1" stroke-dasharray="" stroke="black" points="32.0,20.0 32.0,20.0 32.0,8.0 32.0,8.0 32.0,13.0 32.0,13.0 32.0,8.0 32.0,8.0 32.0,20.0" />
<polygon fill="none" stroke-width="1" stroke-dasharray="" stroke="black" points="432.0,20.0 32.0,20.0 32.0,20.0 32.0,8.0 432.0,8.0 432.0,20.0" />
<polygon fill="none" stroke-width="1" stroke-dasharray="" stroke="black" points="432.0,20.0 432.0,8.0 32.0,8.0 32.0,20.0 32.0,20.0 432.0,20.0" />
<polygon fill="none" stroke-width="1" stroke-dasharray="" stroke="black" points="432.0,8.0 432.0,20.0 432.0,20.0 432.0,8.0 432.0,8.0" />
<polygon fill="none" stroke-width="1" stroke-dasharray="" stroke="black" points="432.0,8.0 432.0,8.0 432.0,20.0 432.0,20.0 432.0,8.0" />
<polygon fill="none" stroke-width="1" stroke-dasharray="" stroke="black" points="432.0,8.0 432.0,8.0 432.0,13.0 432.0,13.0 432.0,8.0 432.0,8.0 432.0,20.0 432.0,20.0 432.0,8.0" />
<polygon fill="none" stroke-width="1" stroke-dasharray="" stroke="black" points="444.0,20.0 432.0,20.0 432.0,8.0 444.0,8.0" />
<polygon fill="none" stroke-width="1" stroke-dasharray="" stroke="black" points="444.0,20.0 444.0,8.0 432.0,8.0 432.0,20.0" />
<polygon fill="none" stroke-width="1" stroke-dasharray="" stroke="black" points="444.0,8.0 432.0,8.0 432.0,20.0 444.0,20.0" />
<polygon fill="none" stroke-width="1" stroke-dasharray="" stroke="black" points="432.0,20.0 432.0,8.0 444.0,8.0 444.0,20.0" />
<polygon fill="none" stroke-width="1" stroke-dasharray="" stroke="black" points="444.0,20.0 432.0,20.0 432.0,8.0 444.0,8.0" />
<polygon fill="none" stroke-width="1" stroke-dasharray="" stroke="black" points="444.0,20.0 444.0,8.0 432.0,8.0 432.0,20.0" />
<polygon fill="none" stroke-width="1" stroke-dasharray="" stroke="black" points="444.0,8.0 432.0,8.0 432.0,20.0 444.0,20.0" />
<polygon fill="none" stroke-width="1" stroke-dasharray="" stroke="black" points="432.0,20.0 432.0,8.0 444.0,8.0 444.0,20.0" />
<polygon fill="none" stroke-width="1" stroke-dasharray="" stroke="black" points="444.0,8.0 444.0,8.0 444.0,20.0 444.0,20.0 444.0,8.0" />
<polygon fill="none" stroke-width="1" stroke-dasharray="" stroke="black" points="444.0,8.0 444.0,8.0 444.0,20.0 444.0,20.0 444.0,8.0" />
<polygon fill="none" stroke-width="1" stroke-dasharray="" stroke="black" points="32.0,20.0 20.0,20.0 20.0,20.0 32.0,20.0 32.0,20.0" />
<polygon fill="none" stroke-width="1" stroke-dasharray="" stroke="black" points="32.0,20.0 32.0,20.0 20.0,20.0 20.0,20.0 32.0,20.0" />
<polygon fill="none" stroke-width="1" stroke-dasharray="" stroke="black" points="32.0,20.0 32.0,20.0 27.0,20.0 27.0,20.0 32.0,20.0 32.0,20.0 20.0,20.0 20.0,20.0 32.0,20.0" />
<polygon fill="none" stroke-width="1" stroke-dasharray="" stroke="black" points="444.0,20.0 432.0,20.0 432.0,20.0 444.0,20.0 444.0,20.0" />
<polygon fill="none" stroke-width="1" stroke-dasharray="" stroke="black" points="444.0,20.0 444.0,20.0 432.0,20.0 432.0,20.0 444.0,20.0" />
<polygon fill="none" stroke-width="1" stroke-dasharray="" stroke="black" points="444.0,20.0 444.0,20.0 432.0,20.0 432.0,20.0 437.0,20.0 437.0,20.0 432.0,20.0 432.0,20.0 444.0,20.0" />
<polygon fill="none" stroke-width="1" stroke-dasharray="" stroke="black" points="444.0,20.0 432.0,20.0 432.0,20.0 32.0,20.0 32.0,20.0 20.0,20.0 20.0,20.0 20.0,20.0 20.0,20.0 32.0,20.0 32.0,20.0 20.0,20.0 20.0,20.0 32.0,20.0 32.0,20.0 32.0,20.0 432.0,20.0 432.0,20.0 432.0,20.0 444.0,20.0 444.0,20.0 432.0,20.0 432.0,20.0 444.0,20.0 444.0,20.0 444.0,20.0" />
<polygon fill="none" stroke-width="1" stroke-dasharray="" stroke="black" points="20.0,20.0 444.0,20.0 444.0,20.0 20.0,20.0" />
</svg>
