<svg width="1600" viewBox="0.0 0.0 800.0 310.4" xmlns="http://www.w3.org/2000/svg">
<polygon fill="none" stroke-width="1" stroke-dasharray="2" stroke="gray" points="178.4,208.4 190.4,211.5 190.4,178.4 178.4,178.4 178.4,208.4" />
<polygon fill="none" stroke-width="1" stroke-dasharray="2" stroke="gray" points="178.4,226.9 178.4,241.9 190.4,245.0 190.4,223.8 178.4,226.9" />
<polygon fill="none" stroke-width="1" stroke-dasharray="2" stroke="gray" points="178.4,260.4 178.4,290.4 190.4,290.4 190.4,283.4 185.4,283.4 185.4,278.4 190.4,278.4 190.4,257.3 178.4,260.4" />
<polygon fill="none" stroke-width="1" stroke-dasharray="2" stroke="gray" points="178.4,260.4 190.4,257.3 190.4,290.4 590.4,290.4 590.4,257.3 602.4,260.4 602.4,260.4 602.4,241.9 602.4,241.9 590.4,245.0 590.4,223.8 602.4,226.9 602.4,208.4 590.4,211.5 590.4,178.4 590.4,178.4 190.4,178.4 190.4,178.4 190.4,211.5 178.4,208.4 178.4,226.9 190.4,223.8 190.4,245.0 178.4,241.9 178.4,241.9 178.4,260.4" />
<polygon fill="none" stroke-width="1" stroke-dasharray="2" stroke="gray" points="590.4,211.5 602.4,208.4 602.4,178.4 590.4,178.4 590.4,211.5" />
<polygon fill="none" stroke-width="1" stroke-dasharray="2" stroke="gray" points="590.4,223.8 590.4,245.0 602.4,241.9 602.4,226.9 590.4,223.8" />
<polygon fill="none" stroke-width="1" stroke-dasharray="2" stroke="gray" points="590.4,257.3 590.4,278.4 595.4,278.4 595.4,283.4 590.4,283.4 590.4,290.4 602.4,290.4 602.4,260.4 590.4,257.3" />
<polygon fill="none" stroke-width="1" stroke-dasharray="2" stroke="gray" points="169.9,199.9 169.9,218.4 178.4,226.9 178.4,208.4 169.9,199.9" />
<polygon fill="none" stroke-width="1" stroke-dasharray="2" stroke="gray" points="169.9,233.4 169.9,251.9 178.4,260.4 178.4,241.9 169.9,233.4" />
<polygon fill="none" stroke-width="1" stroke-dasharray="2" stroke="gray" points="178.4,208.4 190.4,211.5 181.9,203.0 169.9,199.9" />
<polygon fill="rgba(192,192,192,0.75)" stroke-width="1" stroke-dasharray="" stroke="silver" points="178.4,208.4 169.9,199.9 181.9,203.0 190.4,211.5" />
<polygon fill="rgba(255,255,255,0.75)" stroke-width="1" stroke-dasharray="" stroke="black" points="169.9,218.4 181.9,215.3 190.4,223.8 178.4,226.9" />
<polygon fill="none" stroke-width="1" stroke-dasharray="2" stroke="gray" points="190.4,223.8 181.9,215.3 169.9,218.4 178.4,226.9" />
<polygon fill="none" stroke-width="1" stroke-dasharray="2" stroke="gray" points="178.4,241.9 190.4,245.0 181.9,236.5 169.9,233.4" />
<polygon fill="rgba(192,192,192,0.75)" stroke-width="1" stroke-dasharray="" stroke="silver" points="178.4,241.9 169.9,233.4 181.9,236.5 190.4,245.0" />
<polygon fill="rgba(255,255,255,0.75)" stroke-width="1" stroke-dasharray="" stroke="black" points="169.9,251.9 181.9,248.8 190.4,257.3 178.4,260.4" />
<polygon fill="none" stroke-width="1" stroke-dasharray="2" stroke="gray" points="190.4,257.3 181.9,248.8 169.9,251.9 178.4,260.4" />
<polygon fill="none" stroke-width="1" stroke-dasharray="2" stroke="gray" points="181.9,203.0 190.4,211.5 190.4,178.4 181.9,169.9 181.9,203.0" />
<polygon fill="none" stroke-width="1" stroke-dasharray="2" stroke="gray" points="181.9,215.3 181.9,236.5 190.4,245.0 190.4,223.8 181.9,215.3" />
<polygon fill="none" stroke-width="1" stroke-dasharray="2" stroke="gray" points="181.9,248.8 181.9,269.9 185.4,273.4 185.4,278.4 181.9,274.9 181.9,281.9 190.4,290.4 190.4,257.3 181.9,248.8" />
<polygon fill="none" stroke-width="1" stroke-dasharray="2" stroke="gray" points="190.4,178.4 590.4,178.4 590.4,178.4 581.9,169.9 181.9,169.9 190.4,178.4" />
<polygon fill="rgba(192,192,192,0.75)" stroke-width="1" stroke-dasharray="" stroke="black" points="190.4,290.4 181.9,281.9 581.9,281.9 590.4,290.4 590.4,290.4 190.4,290.4" />
<polygon fill="rgba(255,255,255,0.75)" stroke-width="1" stroke-dasharray="" stroke="black" points="590.4,211.5 581.9,203.0 581.9,169.9 590.4,178.4 590.4,211.5" />
<polygon fill="rgba(255,255,255,0.75)" stroke-width="1" stroke-dasharray="" stroke="black" points="590.4,223.8 590.4,245.0 581.9,236.5 581.9,215.3 590.4,223.8" />
<polygon fill="rgba(255,255,255,0.75)" stroke-width="1" stroke-dasharray="" stroke="black" points="590.4,257.3 590.4,290.4 581.9,281.9 581.9,274.9 585.4,278.4 585.4,273.4 581.9,269.9 581.9,248.8 590.4,257.3" />
<polygon fill="rgba(255,255,255,0.75)" stroke-width="1" stroke-dasharray="" stroke="black" points="590.4,211.5 581.9,203.0 593.9,199.9 602.4,208.4" />
<polygon fill="none" stroke-width="1" stroke-dasharray="2" stroke="gray" points="593.9,199.9 581.9,203.0 590.4,211.5 602.4,208.4" />
<polygon fill="none" stroke-width="1" stroke-dasharray="2" stroke="gray" points="602.4,226.9 593.9,218.4 581.9,215.3 590.4,223.8" />
<polygon fill="rgba(192,192,192,0.75)" stroke-width="1" stroke-dasharray="" stroke="silver" points="602.4,226.9 590.4,223.8 581.9,215.3 593.9,218.4" />
<polygon fill="rgba(255,255,255,0.75)" stroke-width="1" stroke-dasharray="" stroke="black" points="590.4,245.0 581.9,236.5 593.9,233.4 602.4,241.9" />
<polygon fill="none" stroke-width="1" stroke-dasharray="2" stroke="gray" points="593.9,233.4 581.9,236.5 590.4,245.0 602.4,241.9" />
<polygon fill="none" stroke-width="1" stroke-dasharray="2" stroke="gray" points="602.4,260.4 593.9,251.9 581.9,248.8 590.4,257.3" />
<polygon fill="rgba(192,192,192,0.75)" stroke-width="1" stroke-dasharray="" stroke="silver" points="602.4,260.4 590.4,257.3 581.9,248.8 593.9,251.9" />
<polygon fill="rgba(255,255,255,0.75)" stroke-width="1" stroke-dasharray="" stroke="black" points="602.4,208.4 602.4,226.9 593.9,218.4 593.9,199.9 602.4,208.4" />
<polygon fill="rgba(255,255,255,0.75)" stroke-width="1" stroke-dasharray="" stroke="black" points="602.4,241.9 602.4,260.4 593.9,251.9 593.9,233.4 602.4,241.9" />
<polygon fill="rgba(192,192,192,0.75)" stroke-width="1" stroke-dasharray="" stroke="black" points="185.5,273.4 181.9,269.9 581.9,269.9 585.4,273.4 585.4,273.4 185.5,273.4" />
<polygon fill="none" stroke-width="1" stroke-dasharray="2" stroke="gray" points="185.5,278.4 585.4,278.4 585.4,278.4 581.9,274.9 181.9,274.9 185.5,278.4" />
<polygon fill="none" stroke-width="1" stroke-dasharray="2" stroke="gray" points="169.9,199.9 169.9,218.4 181.9,215.3 181.9,203.0 169.9,199.9" />
<polygon fill="none" stroke-width="1" stroke-dasharray="2" stroke="gray" points="169.9,233.4 169.9,251.9 181.9,248.8 181.9,236.5 169.9,233.4" />
<polygon fill="rgba(255,255,255,0.75)" stroke-width="1" stroke-dasharray="" stroke="black" points="181.9,269.9 181.9,248.8 169.9,251.9 169.9,233.4 181.9,236.5 181.9,215.3 169.9,218.4 169.9,218.4 169.9,199.9 169.9,199.9 181.9,203.0 181.9,169.9 581.9,169.9 581.9,203.0 593.9,199.9 593.9,199.9 593.9,218.4 593.9,218.4 581.9,215.3 581.9,236.5 593.9,233.4 593.9,251.9 581.9,248.8 581.9,269.9 581.9,269.9 181.9,269.9" />
<polygon fill="none" stroke-width="1" stroke-dasharray="2" stroke="gray" points="581.9,203.0 581.9,215.3 593.9,218.4 593.9,199.9 581.9,203.0" />
<polygon fill="none" stroke-width="1" stroke-dasharray="2" stroke="gray" points="581.9,236.5 581.9,248.8 593.9,251.9 593.9,233.4 581.9,236.5" />
<polygon fill="none" stroke-width="1" stroke-dasharray="2" stroke="gray" points="20.0,102.0 20.0,132.0 178.4,290.4 178.4,260.4 169.9,251.9 169.9,233.4 178.4,241.9 178.4,241.9 178.4,226.9 178.4,226.9 169.9,218.4 169.9,199.9 178.4,208.4 178.4,178.4 20.0,20.0 20.0,50.0 20.0,50.0 28.5,58.5 28.5,77.0 20.0,68.5 20.0,83.5 28.5,92.0 28.5,110.5 20.0,102.0" />
<polygon fill="none" stroke-width="1" stroke-dasharray="2" stroke="gray" points="190.4,178.4 32.0,20.0 20.0,20.0 178.4,178.4" />
<polygon fill="rgba(192,192,192,0.75)" stroke-width="1" stroke-dasharray="" stroke="black" points="178.4,290.4 20.0,132.0 32.0,132.0 190.4,290.4" />
<polygon fill="rgba(192,192,192,0.75)" stroke-width="1" stroke-dasharray="" stroke="black" points="185.4,278.4 27.0,120.0 32.0,120.0 190.4,278.4" />
<polygon fill="none" stroke-width="1" stroke-dasharray="2" stroke="gray" points="190.4,283.4 32.0,125.0 27.0,125.0 185.4,283.4" />
<polygon fill="rgba(255,255,255,0.75)" stroke-width="1" stroke-dasharray="" stroke="black" points="32.0,86.6 32.0,65.4 32.0,65.4 40.5,73.9 40.5,61.6 32.0,53.1 32.0,20.0 190.4,178.4 190.4,211.5 190.4,211.5 181.9,203.0 181.9,215.3 190.4,223.8 190.4,245.0 181.9,236.5 181.9,248.8 190.4,257.3 190.4,257.3 190.4,278.4 32.0,120.0 32.0,98.9 40.5,107.4 40.5,95.1 32.0,86.6" />
<polygon fill="none" stroke-width="1" stroke-dasharray="2" stroke="gray" points="590.4,245.0 590.4,223.8 590.4,223.8 581.9,215.3 581.9,203.0 590.4,211.5 590.4,178.4 432.0,20.0 432.0,53.1 432.0,53.1 440.5,61.6 440.5,73.9 432.0,65.4 432.0,86.6 440.5,95.1 440.5,107.4 432.0,98.9 432.0,98.9 432.0,120.0 590.4,278.4 590.4,257.3 581.9,248.8 581.9,236.5 590.4,245.0" />
<polygon fill="rgba(192,192,192,0.75)" stroke-width="1" stroke-dasharray="" stroke="black" points="437.0,120.0 595.4,278.4 590.4,278.4 432.0,120.0" />
<polygon fill="none" stroke-width="1" stroke-dasharray="2" stroke="gray" points="432.0,125.0 590.4,283.4 595.4,283.4 437.0,125.0" />
<polygon fill="none" stroke-width="1" stroke-dasharray="2" stroke="gray" points="432.0,20.0 590.4,178.4 602.4,178.4 444.0,20.0" />
<polygon fill="rgba(192,192,192,0.75)" stroke-width="1" stroke-dasharray="" stroke="black" points="444.0,132.0 602.4,290.4 590.4,290.4 432.0,132.0" />
<polygon fill="rgba(255,255,255,0.75)" stroke-width="1" stroke-dasharray="" stroke="black" points="602.4,260.4 602.4,290.4 444.0,132.0 444.0,102.0 452.5,110.5 452.5,92.0 444.0,83.5 444.0,83.5 444.0,68.5 444.0,68.5 452.5,77.0 452.5,58.5 444.0,50.0 444.0,20.0 602.4,178.4 602.4,208.4 602.4,208.4 593.9,199.9 593.9,218.4 602.4,226.9 602.4,241.9 593.9,233.4 593.9,251.9 602.4,260.4" />
<polygon fill="rgba(255,255,255,0.75)" stroke-width="1" stroke-dasharray="" stroke="black" points="40.5,61.6 40.5,73.9 28.5,77.0 28.5,58.5 40.5,61.6" />
<polygon fill="rgba(255,255,255,0.75)" stroke-width="1" stroke-dasharray="" stroke="black" points="40.5,95.1 40.5,107.4 28.5,110.5 28.5,92.0 40.5,95.1" />
<polygon fill="none" stroke-width="1" stroke-dasharray="2" stroke="gray" points="440.5,128.5 440.5,107.4 452.5,110.5 452.5,92.0 440.5,95.1 440.5,73.9 452.5,77.0 452.5,77.0 452.5,58.5 452.5,58.5 440.5,61.6 440.5,28.5 40.5,28.5 40.5,61.6 28.5,58.5 28.5,58.5 28.5,77.0 28.5,77.0 40.5,73.9 40.5,95.1 28.5,92.0 28.5,110.5 40.5,107.4 40.5,128.5 40.5,128.5 440.5,128.5" />
<polygon fill="rgba(255,255,255,0.75)" stroke-width="1" stroke-dasharray="" stroke="black" points="452.5,58.5 452.5,77.0 440.5,73.9 440.5,61.6 452.5,58.5" />
<polygon fill="rgba(255,255,255,0.75)" stroke-width="1" stroke-dasharray="" stroke="black" points="452.5,92.0 452.5,110.5 440.5,107.4 440.5,95.1 452.5,92.0" />
<polygon fill="rgba(192,192,192,0.75)" stroke-width="1" stroke-dasharray="" stroke="black" points="436.9,124.9 440.5,128.5 40.5,128.5 37.0,124.9 37.0,124.9 436.9,124.9" />
<polygon fill="none" stroke-width="1" stroke-dasharray="2" stroke="gray" points="436.9,129.9 37.0,129.9 37.0,129.9 40.5,133.5 440.5,133.5 436.9,129.9" />
<polygon fill="rgba(192,192,192,0.75)" stroke-width="1" stroke-dasharray="" stroke="silver" points="32.0,53.1 40.5,61.6 28.5,58.5 20.0,50.0" />
<polygon fill="none" stroke-width="1" stroke-dasharray="2" stroke="gray" points="20.0,68.5 28.5,77.0 40.5,73.9 32.0,65.4" />
<polygon fill="rgba(192,192,192,0.75)" stroke-width="1" stroke-dasharray="" stroke="silver" points="32.0,86.6 40.5,95.1 28.5,92.0 20.0,83.5" />
<polygon fill="none" stroke-width="1" stroke-dasharray="2" stroke="gray" points="20.0,102.0 28.5,110.5 40.5,107.4 32.0,98.9" />
<polygon fill="none" stroke-width="1" stroke-dasharray="2" stroke="gray" points="20.0,50.0 20.0,68.5 28.5,77.0 28.5,58.5 20.0,50.0" />
<polygon fill="none" stroke-width="1" stroke-dasharray="2" stroke="gray" points="20.0,83.5 20.0,102.0 28.5,110.5 28.5,92.0 20.0,83.5" />
<polygon fill="none" stroke-width="1" stroke-dasharray="2" stroke="gray" points="28.5,58.5 40.5,61.6 32.0,53.1 20.0,50.0" />
<polygon fill="rgba(255,255,255,0.75)" stroke-width="1" stroke-dasharray="" stroke="black" points="20.0,68.5 32.0,65.4 40.5,73.9 28.5,77.0" />
<polygon fill="none" stroke-width="1" stroke-dasharray="2" stroke="gray" points="28.5,92.0 40.5,95.1 32.0,86.6 20.0,83.5" />
<polygon fill="rgba(255,255,255,0.75)" stroke-width="1" stroke-dasharray="" stroke="black" points="20.0,102.0 32.0,98.9 40.5,107.4 28.5,110.5" />
<polygon fill="none" stroke-width="1" stroke-dasharray="2" stroke="gray" points="32.0,53.1 40.5,61.6 40.5,28.5 32.0,20.0 32.0,53.1" />
<polygon fill="none" stroke-width="1" stroke-dasharray="2" stroke="gray" points="32.0,65.4 32.0,86.6 40.5,95.1 40.5,73.9 32.0,65.4" />
<polygon fill="none" stroke-width="1" stroke-dasharray="2" stroke="gray" points="32.0,98.9 32.0,132.0 40.5,140.5 40.5,133.5 36.9,129.9 36.9,124.9 40.5,128.5 40.5,107.4 32.0,98.9" />
<polygon fill="none" stroke-width="1" stroke-dasharray="2" stroke="gray" points="432.0,20.0 32.0,20.0 32.0,20.0 40.5,28.5 440.5,28.5 432.0,20.0" />
<polygon fill="rgba(192,192,192,0.75)" stroke-width="1" stroke-dasharray="" stroke="black" points="432.0,132.0 440.5,140.5 40.5,140.5 32.0,132.0 32.0,132.0 432.0,132.0" />
<polygon fill="rgba(255,255,255,0.75)" stroke-width="1" stroke-dasharray="" stroke="black" points="440.5,61.6 432.0,53.1 432.0,20.0 440.5,28.5 440.5,61.6" />
<polygon fill="rgba(255,255,255,0.75)" stroke-width="1" stroke-dasharray="" stroke="black" points="440.5,73.9 440.5,95.1 432.0,86.6 432.0,65.4 440.5,73.9" />
<polygon fill="rgba(255,255,255,0.75)" stroke-width="1" stroke-dasharray="" stroke="black" points="440.5,107.4 440.5,128.5 436.9,124.9 436.9,129.9 440.5,133.5 440.5,140.5 432.0,132.0 432.0,98.9 440.5,107.4" />
<polygon fill="none" stroke-width="1" stroke-dasharray="2" stroke="gray" points="444.0,50.0 432.0,53.1 440.5,61.6 452.5,58.5" />
<polygon fill="rgba(255,255,255,0.75)" stroke-width="1" stroke-dasharray="" stroke="black" points="444.0,50.0 452.5,58.5 440.5,61.6 432.0,53.1" />
<polygon fill="rgba(192,192,192,0.75)" stroke-width="1" stroke-dasharray="" stroke="silver" points="452.5,77.0 440.5,73.9 432.0,65.4 444.0,68.5" />
<polygon fill="none" stroke-width="1" stroke-dasharray="2" stroke="gray" points="432.0,65.4 440.5,73.9 452.5,77.0 444.0,68.5" />
<polygon fill="none" stroke-width="1" stroke-dasharray="2" stroke="gray" points="444.0,83.5 432.0,86.6 440.5,95.1 452.5,92.0" />
<polygon fill="rgba(255,255,255,0.75)" stroke-width="1" stroke-dasharray="" stroke="black" points="444.0,83.5 452.5,92.0 440.5,95.1 432.0,86.6" />
<polygon fill="rgba(192,192,192,0.75)" stroke-width="1" stroke-dasharray="" stroke="silver" points="452.5,110.5 440.5,107.4 432.0,98.9 444.0,102.0" />
<polygon fill="none" stroke-width="1" stroke-dasharray="2" stroke="gray" points="432.0,98.9 440.5,107.4 452.5,110.5 444.0,102.0" />
<polygon fill="rgba(255,255,255,0.75)" stroke-width="1" stroke-dasharray="" stroke="black" points="452.5,58.5 452.5,77.0 444.0,68.5 444.0,50.0 452.5,58.5" />
<polygon fill="rgba(255,255,255,0.75)" stroke-width="1" stroke-dasharray="" stroke="black" points="452.5,92.0 452.5,110.5 444.0,102.0 444.0,83.5 452.5,92.0" />
<polygon fill="rgba(255,255,255,0.75)" stroke-width="1" stroke-dasharray="" stroke="black" points="32.0,53.1 20.0,50.0 20.0,20.0 32.0,20.0 32.0,53.1" />
<polygon fill="rgba(255,255,255,0.75)" stroke-width="1" stroke-dasharray="" stroke="black" points="32.0,65.4 32.0,86.6 20.0,83.5 20.0,68.5 32.0,65.4" />
<polygon fill="rgba(255,255,255,0.75)" stroke-width="1" stroke-dasharray="" stroke="black" points="32.0,98.9 32.0,120.0 27.0,120.0 27.0,125.0 32.0,125.0 32.0,132.0 20.0,132.0 20.0,102.0 32.0,98.9" />
<polygon fill="rgba(255,255,255,0.75)" stroke-width="1" stroke-dasharray="" stroke="black" points="444.0,50.0 432.0,53.1 432.0,20.0 444.0,20.0 444.0,50.0" />
<polygon fill="rgba(255,255,255,0.75)" stroke-width="1" stroke-dasharray="" stroke="black" points="444.0,68.5 444.0,83.5 432.0,86.6 432.0,65.4 444.0,68.5" />
<polygon fill="rgba(255,255,255,0.75)" stroke-width="1" stroke-dasharray="" stroke="black" points="444.0,102.0 444.0,132.0 432.0,132.0 432.0,125.0 437.0,125.0 437.0,120.0 432.0,120.0 432.0,98.9 444.0,102.0" />
<polygon fill="rgba(255,255,255,0.75)" stroke-width="1" stroke-dasharray="" stroke="black" points="444.0,102.0 432.0,98.9 432.0,132.0 32.0,132.0 32.0,98.9 20.0,102.0 20.0,102.0 20.0,83.5 20.0,83.5 32.0,86.6 32.0,65.4 20.0,68.5 20.0,50.0 32.0,53.1 32.0,20.0 32.0,20.0 432.0,20.0 432.0,20.0 432.0,53.1 444.0,50.0 444.0,68.5 432.0,65.4 432.0,86.6 444.0,83.5 444.0,83.5 444.0,102.0" />
</svg>
