<svg width="1000" viewBox="0.0 0.0 1000.0 820.6" xmlns="http://www.w3.org/2000/svg">
<polygon fill="none" stroke-width="1" stroke-dasharray="2" stroke="gray" points="18.48528137423857,18.485281374238568 18.48528137423857,198.48528137423858 808.4852813742385,198.48528137423858 808.4852813742385,18.485281374238568" />
<polygon fill="none" stroke-width="1" stroke-dasharray="2" stroke="gray" points="10.0,10.0 10.0,190.0 18.48528137423857,198.48528137423858 18.48528137423857,18.485281374238568" />
<polygon fill="none" stroke-width="1" stroke-dasharray="2" stroke="gray" points="18.48528137423857,18.485281374238568 808.4852813742385,18.485281374238568 800.0,10.0 10.0,10.0" />
<polygon fill="rgba(192,192,192,0.75)" stroke-width="1" stroke-dasharray="" stroke="black" points="10.0,190.0 800.0,190.0 808.4852813742385,198.48528137423858 18.48528137423857,198.48528137423858" />
<polygon fill="rgba(255,255,255,0.75)" stroke-width="1" stroke-dasharray="" stroke="black" points="808.4852813742385,18.485281374238568 808.4852813742385,198.48528137423858 800.0,190.0 800.0,10.0" />
<polygon fill="rgba(255,255,255,0.75)" stroke-width="1" stroke-dasharray="" stroke="black" points="10.0,10.0 800.0,10.0 800.0,190.0 10.0,190.0" />
<polygon fill="rgba(224,255,224,0.25)" stroke-width="1" stroke-dasharray="" stroke="none" points="800.0,10.0 808.4852813742385,18.485281374238568 808.4852813742385,198.48528137423858 800.0,190.0" />
<polygon fill="rgba(224,255,224,0.25)" stroke-width="1" stroke-dasharray="" stroke="none" points="10.0,10.0 800.0,10.0 800.0,190.0 10.0,190.0" />
<text style="" text-anchor="middle" x="405.0" y="100.0" fill="black">a-1 (used)</text>
<polygon fill="none" stroke-width="1" stroke-dasharray="2" stroke="gray" points="38.48528137423857,38.48528137423857 38.48528137423857,218.48528137423858 828.4852813742385,218.48528137423858 828.4852813742385,38.48528137423857" />
<polygon fill="none" stroke-width="1" stroke-dasharray="2" stroke="gray" points="30.0,30.0 30.0,210.0 38.48528137423857,218.48528137423858 38.48528137423857,38.48528137423857" />
<polygon fill="none" stroke-width="1" stroke-dasharray="2" stroke="gray" points="38.48528137423857,38.48528137423857 828.4852813742385,38.48528137423857 820.0,30.0 30.0,30.0" />
<polygon fill="rgba(192,192,192,0.75)" stroke-width="1" stroke-dasharray="" stroke="black" points="30.0,210.0 820.0,210.0 828.4852813742385,218.48528137423858 38.48528137423857,218.48528137423858" />
<polygon fill="rgba(255,255,255,0.75)" stroke-width="1" stroke-dasharray="" stroke="black" points="828.4852813742385,38.48528137423857 828.4852813742385,218.48528137423858 820.0,210.0 820.0,30.0" />
<polygon fill="rgba(255,255,255,0.75)" stroke-width="1" stroke-dasharray="" stroke="black" points="30.0,30.0 820.0,30.0 820.0,210.0 30.0,210.0" />
<polygon fill="rgba(224,255,224,0.25)" stroke-width="1" stroke-dasharray="" stroke="none" points="820.0,30.0 828.4852813742385,38.48528137423857 828.4852813742385,218.48528137423858 820.0,210.0" />
<polygon fill="rgba(224,255,224,0.25)" stroke-width="1" stroke-dasharray="" stroke="none" points="30.0,30.0 820.0,30.0 820.0,210.0 30.0,210.0" />
<text style="" text-anchor="middle" x="425.0" y="120.0" fill="black">a-2 (used)</text>
<polygon fill="none" stroke-width="1" stroke-dasharray="2" stroke="gray" points="58.48528137423857,58.48528137423857 58.48528137423857,238.48528137423858 848.4852813742385,238.48528137423858 848.4852813742385,58.48528137423857" />
<polygon fill="none" stroke-width="1" stroke-dasharray="2" stroke="gray" points="50.0,50.0 50.0,230.0 58.48528137423857,238.48528137423858 58.48528137423857,58.48528137423857" />
<polygon fill="none" stroke-width="1" stroke-dasharray="2" stroke="gray" points="58.48528137423857,58.48528137423857 848.4852813742385,58.48528137423857 840.0,50.0 50.0,50.0" />
<polygon fill="rgba(192,192,192,0.75)" stroke-width="1" stroke-dasharray="" stroke="black" points="50.0,230.0 840.0,230.0 848.4852813742385,238.48528137423858 58.48528137423857,238.48528137423858" />
<polygon fill="rgba(255,255,255,0.75)" stroke-width="1" stroke-dasharray="" stroke="black" points="848.4852813742385,58.48528137423857 848.4852813742385,238.48528137423858 840.0,230.0 840.0,50.0" />
<polygon fill="rgba(255,255,255,0.75)" stroke-width="1" stroke-dasharray="" stroke="black" points="50.0,50.0 840.0,50.0 840.0,230.0 50.0,230.0" />
<polygon fill="rgba(224,255,224,0.25)" stroke-width="1" stroke-dasharray="" stroke="none" points="840.0,50.0 848.4852813742385,58.48528137423857 848.4852813742385,238.48528137423858 840.0,230.0" />
<polygon fill="rgba(224,255,224,0.25)" stroke-width="1" stroke-dasharray="" stroke="none" points="50.0,50.0 840.0,50.0 840.0,230.0 50.0,230.0" />
<text style="" text-anchor="middle" x="445.0" y="140.0" fill="black">a-3 (used)</text>
<polygon fill="none" stroke-width="1" stroke-dasharray="2" stroke="gray" points="20.606601717798213,260.6066017177982 20.606601717798213,395.6066017177982 760.6066017177982,395.6066017177982 760.6066017177982,260.6066017177982" />
<polygon fill="none" stroke-width="1" stroke-dasharray="2" stroke="gray" points="10.0,250.0 10.0,385.0 20.606601717798213,395.6066017177982 20.606601717798213,260.6066017177982" />
<polygon fill="none" stroke-width="1" stroke-dasharray="2" stroke="gray" points="20.606601717798213,260.6066017177982 760.6066017177982,260.6066017177982 750.0,250.0 10.0,250.0" />
<polygon fill="rgba(192,192,192,0.75)" stroke-width="1" stroke-dasharray="" stroke="black" points="10.0,385.0 750.0,385.0 760.6066017177982,395.6066017177982 20.606601717798213,395.6066017177982" />
<polygon fill="rgba(255,255,255,0.75)" stroke-width="1" stroke-dasharray="" stroke="black" points="760.6066017177982,260.6066017177982 760.6066017177982,395.6066017177982 750.0,385.0 750.0,250.0" />
<polygon fill="rgba(255,255,255,0.75)" stroke-width="1" stroke-dasharray="" stroke="black" points="10.0,250.0 750.0,250.0 750.0,385.0 10.0,385.0" />
<polygon fill="rgba(224,255,224,0.25)" stroke-width="1" stroke-dasharray="" stroke="none" points="750.0,250.0 760.6066017177982,260.6066017177982 760.6066017177982,395.6066017177982 750.0,385.0" />
<polygon fill="rgba(224,255,224,0.25)" stroke-width="1" stroke-dasharray="" stroke="none" points="10.0,250.0 750.0,250.0 750.0,385.0 10.0,385.0" />
<text style="" text-anchor="middle" x="380.0" y="317.5" fill="black">b-1 (used)</text>
<polygon fill="none" stroke-width="1" stroke-dasharray="2" stroke="gray" points="40.60660171779821,280.6066017177982 40.60660171779821,415.6066017177982 780.6066017177982,415.6066017177982 780.6066017177982,280.6066017177982" />
<polygon fill="none" stroke-width="1" stroke-dasharray="2" stroke="gray" points="30.0,270.0 30.0,405.0 40.60660171779821,415.6066017177982 40.60660171779821,280.6066017177982" />
<polygon fill="none" stroke-width="1" stroke-dasharray="2" stroke="gray" points="40.60660171779821,280.6066017177982 780.6066017177982,280.6066017177982 770.0,270.0 30.0,270.0" />
<polygon fill="rgba(192,192,192,0.75)" stroke-width="1" stroke-dasharray="" stroke="black" points="30.0,405.0 770.0,405.0 780.6066017177982,415.6066017177982 40.60660171779821,415.6066017177982" />
<polygon fill="rgba(255,255,255,0.75)" stroke-width="1" stroke-dasharray="" stroke="black" points="780.6066017177982,280.6066017177982 780.6066017177982,415.6066017177982 770.0,405.0 770.0,270.0" />
<polygon fill="rgba(255,255,255,0.75)" stroke-width="1" stroke-dasharray="" stroke="black" points="30.0,270.0 770.0,270.0 770.0,405.0 30.0,405.0" />
<polygon fill="rgba(224,255,224,0.25)" stroke-width="1" stroke-dasharray="" stroke="none" points="770.0,270.0 780.6066017177982,280.6066017177982 780.6066017177982,415.6066017177982 770.0,405.0" />
<polygon fill="rgba(224,255,224,0.25)" stroke-width="1" stroke-dasharray="" stroke="none" points="30.0,270.0 770.0,270.0 770.0,405.0 30.0,405.0" />
<text style="" text-anchor="middle" x="400.0" y="337.5" fill="black">b-2 (used)</text>
<polygon fill="none" stroke-width="1" stroke-dasharray="2" stroke="gray" points="60.60660171779821,300.6066017177982 60.60660171779821,435.6066017177982 800.6066017177982,435.6066017177982 800.6066017177982,300.6066017177982" />
<polygon fill="none" stroke-width="1" stroke-dasharray="2" stroke="gray" points="50.0,290.0 50.0,425.0 60.60660171779821,435.6066017177982 60.60660171779821,300.6066017177982" />
<polygon fill="none" stroke-width="1" stroke-dasharray="2" stroke="gray" points="60.60660171779821,300.6066017177982 800.6066017177982,300.6066017177982 790.0,290.0 50.0,290.0" />
<polygon fill="rgba(192,192,192,0.75)" stroke-width="1" stroke-dasharray="" stroke="black" points="50.0,425.0 790.0,425.0 800.6066017177982,435.6066017177982 60.60660171779821,435.6066017177982" />
<polygon fill="rgba(255,255,255,0.75)" stroke-width="1" stroke-dasharray="" stroke="black" points="800.6066017177982,300.6066017177982 800.6066017177982,435.6066017177982 790.0,425.0 790.0,290.0" />
<polygon fill="rgba(255,255,255,0.75)" stroke-width="1" stroke-dasharray="" stroke="black" points="50.0,290.0 790.0,290.0 790.0,425.0 50.0,425.0" />
<polygon fill="rgba(224,255,224,0.25)" stroke-width="1" stroke-dasharray="" stroke="none" points="790.0,290.0 800.6066017177982,300.6066017177982 800.6066017177982,435.6066017177982 790.0,425.0" />
<polygon fill="rgba(224,255,224,0.25)" stroke-width="1" stroke-dasharray="" stroke="none" points="50.0,290.0 790.0,290.0 790.0,425.0 50.0,425.0" />
<text style="" text-anchor="middle" x="420.0" y="357.5" fill="black">b-3 (used)</text>
<polygon fill="none" stroke-width="1" stroke-dasharray="2" stroke="gray" points="12.121320343559642,447.12132034355966 12.121320343559642,767.1213203435597 432.12132034355966,767.1213203435597 432.12132034355966,447.12132034355966" />
<polygon fill="none" stroke-width="1" stroke-dasharray="2" stroke="gray" points="10.0,445.0 10.0,765.0 12.121320343559642,767.1213203435597 12.121320343559642,447.12132034355966" />
<polygon fill="none" stroke-width="1" stroke-dasharray="2" stroke="gray" points="12.121320343559642,447.12132034355966 432.12132034355966,447.12132034355966 430.0,445.0 10.0,445.0" />
<polygon fill="rgba(192,192,192,0.75)" stroke-width="1" stroke-dasharray="" stroke="black" points="10.0,765.0 430.0,765.0 432.12132034355966,767.1213203435597 12.121320343559642,767.1213203435597" />
<polygon fill="rgba(255,255,255,0.75)" stroke-width="1" stroke-dasharray="" stroke="black" points="432.12132034355966,447.12132034355966 432.12132034355966,767.1213203435597 430.0,765.0 430.0,445.0" />
<polygon fill="rgba(255,255,255,0.75)" stroke-width="1" stroke-dasharray="" stroke="black" points="10.0,445.0 430.0,445.0 430.0,765.0 10.0,765.0" />
<polygon fill="rgba(224,255,224,0.25)" stroke-width="1" stroke-dasharray="" stroke="none" points="430.0,445.0 432.12132034355966,447.12132034355966 432.12132034355966,767.1213203435597 430.0,765.0" />
<polygon fill="rgba(224,255,224,0.25)" stroke-width="1" stroke-dasharray="" stroke="none" points="10.0,445.0 430.0,445.0 430.0,765.0 10.0,765.0" />
<text style="" text-anchor="middle" x="220.0" y="605.0" fill="black">ply-1 (used)</text>
<polygon fill="none" stroke-width="1" stroke-dasharray="2" stroke="gray" points="20.606601717798213,795.6066017177982 20.606601717798213,810.6066017177982 420.6066017177982,810.6066017177982 420.6066017177982,795.6066017177982" />
<polygon fill="none" stroke-width="1" stroke-dasharray="2" stroke="gray" points="10.0,785.0 10.0,800.0 20.606601717798213,810.6066017177982 20.606601717798213,795.6066017177982" />
<polygon fill="none" stroke-width="1" stroke-dasharray="2" stroke="gray" points="20.606601717798213,795.6066017177982 420.6066017177982,795.6066017177982 410.0,785.0 10.0,785.0" />
<polygon fill="rgba(192,192,192,0.75)" stroke-width="1" stroke-dasharray="" stroke="black" points="10.0,800.0 410.0,800.0 420.6066017177982,810.6066017177982 20.606601717798213,810.6066017177982" />
<polygon fill="rgba(255,255,255,0.75)" stroke-width="1" stroke-dasharray="" stroke="black" points="420.6066017177982,795.6066017177982 420.6066017177982,810.6066017177982 410.0,800.0 410.0,785.0" />
<polygon fill="rgba(255,255,255,0.75)" stroke-width="1" stroke-dasharray="" stroke="black" points="10.0,785.0 410.0,785.0 410.0,800.0 10.0,800.0" />
<polygon fill="rgba(224,255,224,0.25)" stroke-width="1" stroke-dasharray="" stroke="none" points="410.0,785.0 420.6066017177982,795.6066017177982 420.6066017177982,810.6066017177982 410.0,800.0" />
<polygon fill="rgba(224,255,224,0.25)" stroke-width="1" stroke-dasharray="" stroke="none" points="10.0,785.0 410.0,785.0 410.0,800.0 10.0,800.0" />
<text style="" text-anchor="middle" x="210.0" y="792.5" fill="black">stick-1 (used)</text>
</svg>
