<svg width="1100" viewBox="0.0 -67.0 550.0 202.0" xmlns="http://www.w3.org/2000/svg">
<polygon fill="none" stroke-width="1" stroke-dasharray="" stroke="black" points="244.0,50.0 244.0,53.1 244.0,20.0 244.0,20.0 244.0,50.0" />
<polygon fill="none" stroke-width="1" stroke-dasharray="" stroke="black" points="244.0,68.5 244.0,83.5 244.0,86.6 244.0,65.4 244.0,68.5" />
<polygon fill="none" stroke-width="1" stroke-dasharray="" stroke="black" points="244.0,102.0 244.0,132.0 244.0,132.0 244.0,125.0 244.0,125.0 244.0,120.0 244.0,120.0 244.0,98.9 244.0,102.0" />
<polygon fill="none" stroke-width="1" stroke-dasharray="" stroke="black" points="244.0,102.0 244.0,98.9 244.0,132.0 244.0,132.0 244.0,98.9 244.0,102.0 244.0,102.0 244.0,83.5 244.0,83.5 244.0,86.6 244.0,65.4 244.0,68.5 244.0,50.0 244.0,53.1 244.0,20.0 244.0,20.0 244.0,20.0 244.0,20.0 244.0,53.1 244.0,50.0 244.0,68.5 244.0,65.4 244.0,86.6 244.0,83.5 244.0,83.5 244.0,102.0" />
<polygon fill="none" stroke-width="1" stroke-dasharray="" stroke="black" points="244.0,120.0 244.0,135.0 244.0,135.0 244.0,120.0" />
<polygon fill="none" stroke-width="1" stroke-dasharray="" stroke="black" points="244.0,53.1 244.0,50.0 244.0,20.0 244.0,20.0 244.0,53.1" />
<polygon fill="none" stroke-width="1" stroke-dasharray="" stroke="black" points="244.0,65.4 244.0,86.6 244.0,83.5 244.0,68.5 244.0,65.4" />
<polygon fill="none" stroke-width="1" stroke-dasharray="" stroke="black" points="244.0,98.9 244.0,120.0 244.0,120.0 244.0,125.0 244.0,125.0 244.0,132.0 244.0,132.0 244.0,102.0 244.0,98.9" />
<polygon fill="none" stroke-width="1" stroke-dasharray="" stroke="black" points="232.0,50.0 232.0,68.5 244.0,68.5 244.0,50.0 232.0,50.0" />
<polygon fill="none" stroke-width="1" stroke-dasharray="" stroke="black" points="232.0,83.5 232.0,102.0 244.0,102.0 244.0,83.5 232.0,83.5" />
<polygon fill="none" stroke-width="1" stroke-dasharray="" stroke="black" points="244.0,50.0 244.0,53.1 232.0,53.1 232.0,50.0" />
<polygon fill="none" stroke-width="1" stroke-dasharray="" stroke="black" points="244.0,50.0 232.0,50.0 232.0,53.1 244.0,53.1" />
<polygon fill="none" stroke-width="1" stroke-dasharray="" stroke="black" points="232.0,68.5 232.0,65.4 244.0,65.4 244.0,68.5" />
<polygon fill="none" stroke-width="1" stroke-dasharray="" stroke="black" points="244.0,65.4 232.0,65.4 232.0,68.5 244.0,68.5" />
<polygon fill="none" stroke-width="1" stroke-dasharray="" stroke="black" points="244.0,83.5 244.0,86.6 232.0,86.6 232.0,83.5" />
<polygon fill="none" stroke-width="1" stroke-dasharray="" stroke="black" points="244.0,83.5 232.0,83.5 232.0,86.6 244.0,86.6" />
<polygon fill="none" stroke-width="1" stroke-dasharray="" stroke="black" points="232.0,102.0 232.0,98.9 244.0,98.9 244.0,102.0" />
<polygon fill="none" stroke-width="1" stroke-dasharray="" stroke="black" points="244.0,98.9 232.0,98.9 232.0,102.0 244.0,102.0" />
<polygon fill="none" stroke-width="1" stroke-dasharray="" stroke="black" points="232.0,53.1 244.0,53.1 244.0,20.0 232.0,20.0 232.0,53.1" />
<polygon fill="none" stroke-width="1" stroke-dasharray="" stroke="black" points="232.0,65.4 232.0,86.6 244.0,86.6 244.0,65.4 232.0,65.4" />
<polygon fill="none" stroke-width="1" stroke-dasharray="" stroke="black" points="232.0,98.9 232.0,120.0 237.0,120.0 237.0,125.0 232.0,125.0 232.0,132.0 244.0,132.0 244.0,98.9 232.0,98.9" />
<polygon fill="none" stroke-width="1" stroke-dasharray="" stroke="black" points="244.0,20.0 244.0,20.0 244.0,20.0 232.0,20.0 232.0,20.0 244.0,20.0" />
<polygon fill="none" stroke-width="1" stroke-dasharray="" stroke="black" points="244.0,132.0 232.0,132.0 232.0,132.0 244.0,132.0 244.0,132.0 244.0,132.0" />
<polygon fill="none" stroke-width="1" stroke-dasharray="" stroke="black" points="244.0,53.1 232.0,53.1 232.0,20.0 244.0,20.0 244.0,53.1" />
<polygon fill="none" stroke-width="1" stroke-dasharray="" stroke="black" points="244.0,65.4 244.0,86.6 232.0,86.6 232.0,65.4 244.0,65.4" />
<polygon fill="none" stroke-width="1" stroke-dasharray="" stroke="black" points="244.0,98.9 244.0,132.0 232.0,132.0 232.0,125.0 237.0,125.0 237.0,120.0 232.0,120.0 232.0,98.9 244.0,98.9" />
<polygon fill="none" stroke-width="1" stroke-dasharray="" stroke="black" points="244.0,53.1 232.0,53.1 232.0,50.0 244.0,50.0" />
<polygon fill="none" stroke-width="1" stroke-dasharray="" stroke="black" points="232.0,50.0 232.0,53.1 244.0,53.1 244.0,50.0" />
<polygon fill="none" stroke-width="1" stroke-dasharray="" stroke="black" points="244.0,68.5 232.0,68.5 232.0,65.4 244.0,65.4" />
<polygon fill="none" stroke-width="1" stroke-dasharray="" stroke="black" points="244.0,68.5 244.0,65.4 232.0,65.4 232.0,68.5" />
<polygon fill="none" stroke-width="1" stroke-dasharray="" stroke="black" points="244.0,86.6 232.0,86.6 232.0,83.5 244.0,83.5" />
<polygon fill="none" stroke-width="1" stroke-dasharray="" stroke="black" points="232.0,83.5 232.0,86.6 244.0,86.6 244.0,83.5" />
<polygon fill="none" stroke-width="1" stroke-dasharray="" stroke="black" points="244.0,102.0 232.0,102.0 232.0,98.9 244.0,98.9" />
<polygon fill="none" stroke-width="1" stroke-dasharray="" stroke="black" points="244.0,102.0 244.0,98.9 232.0,98.9 232.0,102.0" />
<polygon fill="none" stroke-width="1" stroke-dasharray="" stroke="black" points="244.0,50.0 244.0,68.5 232.0,68.5 232.0,50.0 244.0,50.0" />
<polygon fill="none" stroke-width="1" stroke-dasharray="" stroke="black" points="244.0,83.5 244.0,102.0 232.0,102.0 232.0,83.5 244.0,83.5" />
<polygon fill="none" stroke-width="1" stroke-dasharray="" stroke="black" points="237.0,120.0 232.0,120.0 232.0,120.0 237.0,120.0 237.0,120.0 237.0,120.0" />
<polygon fill="none" stroke-width="1" stroke-dasharray="" stroke="black" points="237.0,125.0 237.0,125.0 237.0,125.0 232.0,125.0 232.0,125.0 237.0,125.0" />
<polygon fill="none" stroke-width="1" stroke-dasharray="" stroke="black" points="232.0,50.0 232.0,68.5 232.0,65.4 232.0,53.1 232.0,50.0" />
<polygon fill="none" stroke-width="1" stroke-dasharray="" stroke="black" points="232.0,83.5 232.0,102.0 232.0,98.9 232.0,86.6 232.0,83.5" />
<polygon fill="none" stroke-width="1" stroke-dasharray="" stroke="black" points="232.0,-42.0 232.0,-38.9 232.0,-52.0 232.0,-52.0 232.0,-42.0" />
<polygon fill="none" stroke-width="1" stroke-dasharray="" stroke="black" points="232.0,-12.5 232.0,-7.5 232.0,-4.4 232.0,-15.6 232.0,-12.5" />
<polygon fill="none" stroke-width="1" stroke-dasharray="" stroke="black" points="232.0,22.0 232.0,32.0 232.0,32.0 232.0,18.9 232.0,22.0" />
<polygon fill="none" stroke-width="1" stroke-dasharray="" stroke="black" points="232.0,47.0 232.0,50.9 232.0,37.0 232.0,37.0 232.0,47.0" />
<polygon fill="none" stroke-width="1" stroke-dasharray="" stroke="black" points="232.0,57.0 232.0,67.0 232.0,67.0 232.0,53.1 232.0,57.0" />
<polygon fill="none" stroke-width="1" stroke-dasharray="" stroke="black" points="232.0,22.0 232.0,18.9 232.0,32.0 232.0,32.0 232.0,18.9 232.0,22.0 232.0,22.0 232.0,-7.5 232.0,-7.5 232.0,-4.4 232.0,-15.6 232.0,-12.5 232.0,-42.0 232.0,-38.9 232.0,-52.0 232.0,-52.0 232.0,-52.0 232.0,-52.0 232.0,-38.9 232.0,-42.0 232.0,-12.5 232.0,-15.6 232.0,-4.4 232.0,-7.5 232.0,-7.5 232.0,22.0" />
<polygon fill="none" stroke-width="1" stroke-dasharray="" stroke="black" points="232.0,57.0 232.0,53.1 232.0,67.0 232.0,67.0 232.0,67.0 232.0,53.1 232.0,57.0 232.0,47.0 232.0,50.9 232.0,37.0 232.0,37.0 232.0,37.0 232.0,50.9 232.0,47.0 232.0,47.0 232.0,57.0" />
<polygon fill="none" stroke-width="1" stroke-dasharray="" stroke="black" points="232.0,120.0 232.0,98.9 232.0,102.0 232.0,83.5 232.0,86.6 232.0,65.4 232.0,68.5 232.0,68.5 232.0,50.0 232.0,50.0 232.0,53.1 232.0,20.0 232.0,20.0 232.0,53.1 232.0,50.0 232.0,50.0 232.0,68.5 232.0,68.5 232.0,65.4 232.0,86.6 232.0,83.5 232.0,102.0 232.0,98.9 232.0,120.0 232.0,120.0 232.0,120.0" />
<polygon fill="none" stroke-width="1" stroke-dasharray="" stroke="black" points="232.0,-64.0 232.0,-52.0 232.0,-52.0 232.0,-64.0" />
<polygon fill="none" stroke-width="1" stroke-dasharray="" stroke="black" points="232.0,-64.0 232.0,-52.0 232.0,-52.0 232.0,-64.0" />
<polygon fill="none" stroke-width="1" stroke-dasharray="" stroke="black" points="232.0,32.0 232.0,35.0 232.0,35.0 232.0,32.0" />
<polygon fill="none" stroke-width="1" stroke-dasharray="" stroke="black" points="232.0,67.0 232.0,70.0 232.0,70.0 232.0,67.0" />
<polygon fill="none" stroke-width="1" stroke-dasharray="" stroke="black" points="232.0,-64.0 232.0,-52.0 232.0,-52.0 232.0,-64.0" />
<polygon fill="none" stroke-width="1" stroke-dasharray="" stroke="black" points="232.0,-67.0 232.0,-52.0 232.0,-52.0 232.0,-67.0" />
<polygon fill="none" stroke-width="1" stroke-dasharray="" stroke="black" points="232.0,-64.0 232.0,-52.0 232.0,-52.0 232.0,-64.0" />
<polygon fill="none" stroke-width="1" stroke-dasharray="" stroke="black" points="232.0,50.9 232.0,47.0 232.0,37.0 232.0,37.0 232.0,50.9" />
<polygon fill="none" stroke-width="1" stroke-dasharray="" stroke="black" points="232.0,53.1 232.0,67.0 232.0,67.0 232.0,57.0 232.0,53.1" />
<polygon fill="none" stroke-width="1" stroke-dasharray="" stroke="black" points="232.0,-38.9 232.0,-42.0 232.0,-52.0 232.0,-52.0 232.0,-38.9" />
<polygon fill="none" stroke-width="1" stroke-dasharray="" stroke="black" points="232.0,-15.6 232.0,-4.4 232.0,-7.5 232.0,-12.5 232.0,-15.6" />
<polygon fill="none" stroke-width="1" stroke-dasharray="" stroke="black" points="232.0,18.9 232.0,32.0 232.0,32.0 232.0,22.0 232.0,18.9" />
<polygon fill="none" stroke-width="1" stroke-dasharray="" stroke="black" points="232.0,53.1 232.0,65.4 232.0,68.5 232.0,50.0 232.0,53.1" />
<polygon fill="none" stroke-width="1" stroke-dasharray="" stroke="black" points="232.0,86.6 232.0,98.9 232.0,102.0 232.0,83.5 232.0,86.6" />
<polygon fill="none" stroke-width="1" stroke-dasharray="" stroke="black" points="220.0,-42.0 220.0,-12.5 232.0,-12.5 232.0,-42.0 220.0,-42.0" />
<polygon fill="none" stroke-width="1" stroke-dasharray="" stroke="black" points="220.0,-7.5 220.0,22.0 232.0,22.0 232.0,-7.5 220.0,-7.5" />
<polygon fill="none" stroke-width="1" stroke-dasharray="" stroke="black" points="232.0,-42.0 232.0,-38.9 220.0,-38.9 220.0,-42.0" />
<polygon fill="none" stroke-width="1" stroke-dasharray="" stroke="black" points="232.0,-42.0 220.0,-42.0 220.0,-38.9 232.0,-38.9" />
<polygon fill="none" stroke-width="1" stroke-dasharray="" stroke="black" points="220.0,-12.5 220.0,-15.6 232.0,-15.6 232.0,-12.5" />
<polygon fill="none" stroke-width="1" stroke-dasharray="" stroke="black" points="232.0,-15.6 220.0,-15.6 220.0,-12.5 232.0,-12.5" />
<polygon fill="none" stroke-width="1" stroke-dasharray="" stroke="black" points="232.0,-7.5 232.0,-4.4 220.0,-4.4 220.0,-7.5" />
<polygon fill="none" stroke-width="1" stroke-dasharray="" stroke="black" points="232.0,-7.5 220.0,-7.5 220.0,-4.4 232.0,-4.4" />
<polygon fill="none" stroke-width="1" stroke-dasharray="" stroke="black" points="220.0,22.0 220.0,18.9 232.0,18.9 232.0,22.0" />
<polygon fill="none" stroke-width="1" stroke-dasharray="" stroke="black" points="232.0,18.9 220.0,18.9 220.0,22.0 232.0,22.0" />
<polygon fill="none" stroke-width="1" stroke-dasharray="" stroke="black" points="220.0,-38.9 232.0,-38.9 232.0,-52.0 220.0,-52.0 220.0,-38.9" />
<polygon fill="none" stroke-width="1" stroke-dasharray="" stroke="black" points="220.0,-15.6 220.0,-4.4 232.0,-4.4 232.0,-15.6 220.0,-15.6" />
<polygon fill="none" stroke-width="1" stroke-dasharray="" stroke="black" points="220.0,18.9 220.0,32.0 232.0,32.0 232.0,18.9 220.0,18.9" />
<polygon fill="none" stroke-width="1" stroke-dasharray="" stroke="black" points="232.0,-52.0 232.0,-52.0 232.0,-52.0 220.0,-52.0 220.0,-52.0 232.0,-52.0" />
<polygon fill="none" stroke-width="1" stroke-dasharray="" stroke="black" points="232.0,32.0 220.0,32.0 220.0,32.0 232.0,32.0 232.0,32.0 232.0,32.0" />
<polygon fill="none" stroke-width="1" stroke-dasharray="" stroke="black" points="232.0,-38.9 220.0,-38.9 220.0,-52.0 232.0,-52.0 232.0,-38.9" />
<polygon fill="none" stroke-width="1" stroke-dasharray="" stroke="black" points="232.0,-15.6 232.0,-4.4 220.0,-4.4 220.0,-15.6 232.0,-15.6" />
<polygon fill="none" stroke-width="1" stroke-dasharray="" stroke="black" points="232.0,18.9 232.0,32.0 220.0,32.0 220.0,18.9 232.0,18.9" />
<polygon fill="none" stroke-width="1" stroke-dasharray="" stroke="black" points="232.0,-38.9 220.0,-38.9 220.0,-42.0 232.0,-42.0" />
<polygon fill="none" stroke-width="1" stroke-dasharray="" stroke="black" points="220.0,-42.0 220.0,-38.9 232.0,-38.9 232.0,-42.0" />
<polygon fill="none" stroke-width="1" stroke-dasharray="" stroke="black" points="232.0,-12.5 220.0,-12.5 220.0,-15.6 232.0,-15.6" />
<polygon fill="none" stroke-width="1" stroke-dasharray="" stroke="black" points="232.0,-12.5 232.0,-15.6 220.0,-15.6 220.0,-12.5" />
<polygon fill="none" stroke-width="1" stroke-dasharray="" stroke="black" points="232.0,-4.4 220.0,-4.4 220.0,-7.5 232.0,-7.5" />
<polygon fill="none" stroke-width="1" stroke-dasharray="" stroke="black" points="220.0,-7.5 220.0,-4.4 232.0,-4.4 232.0,-7.5" />
<polygon fill="none" stroke-width="1" stroke-dasharray="" stroke="black" points="232.0,22.0 220.0,22.0 220.0,18.9 232.0,18.9" />
<polygon fill="none" stroke-width="1" stroke-dasharray="" stroke="black" points="232.0,22.0 232.0,18.9 220.0,18.9 220.0,22.0" />
<polygon fill="none" stroke-width="1" stroke-dasharray="" stroke="black" points="232.0,-42.0 232.0,-12.5 220.0,-12.5 220.0,-42.0 232.0,-42.0" />
<polygon fill="none" stroke-width="1" stroke-dasharray="" stroke="black" points="232.0,-7.5 232.0,22.0 220.0,22.0 220.0,-7.5 232.0,-7.5" />
<polygon fill="none" stroke-width="1" stroke-dasharray="" stroke="black" points="217.0,47.0 217.0,57.0 232.0,57.0 232.0,47.0 217.0,47.0" />
<polygon fill="none" stroke-width="1" stroke-dasharray="" stroke="black" points="232.0,47.0 232.0,50.9 217.0,50.9 217.0,47.0" />
<polygon fill="none" stroke-width="1" stroke-dasharray="" stroke="black" points="232.0,47.0 217.0,47.0 217.0,50.9 232.0,50.9" />
<polygon fill="none" stroke-width="1" stroke-dasharray="" stroke="black" points="217.0,57.0 217.0,53.1 232.0,53.1 232.0,57.0" />
<polygon fill="none" stroke-width="1" stroke-dasharray="" stroke="black" points="232.0,53.1 217.0,53.1 217.0,57.0 232.0,57.0" />
<polygon fill="none" stroke-width="1" stroke-dasharray="" stroke="black" points="217.0,50.9 232.0,50.9 232.0,37.0 217.0,37.0 217.0,50.9" />
<polygon fill="none" stroke-width="1" stroke-dasharray="" stroke="black" points="217.0,53.1 217.0,67.0 232.0,67.0 232.0,53.1 217.0,53.1" />
<polygon fill="none" stroke-width="1" stroke-dasharray="" stroke="black" points="232.0,37.0 232.0,37.0 232.0,37.0 217.0,37.0 217.0,37.0 232.0,37.0" />
<polygon fill="none" stroke-width="1" stroke-dasharray="" stroke="black" points="232.0,67.0 217.0,67.0 217.0,67.0 232.0,67.0 232.0,67.0 232.0,67.0" />
<polygon fill="none" stroke-width="1" stroke-dasharray="" stroke="black" points="232.0,50.9 217.0,50.9 217.0,37.0 232.0,37.0 232.0,50.9" />
<polygon fill="none" stroke-width="1" stroke-dasharray="" stroke="black" points="232.0,53.1 232.0,67.0 217.0,67.0 217.0,53.1 232.0,53.1" />
<polygon fill="none" stroke-width="1" stroke-dasharray="" stroke="black" points="232.0,50.9 217.0,50.9 217.0,47.0 232.0,47.0" />
<polygon fill="none" stroke-width="1" stroke-dasharray="" stroke="black" points="217.0,47.0 217.0,50.9 232.0,50.9 232.0,47.0" />
<polygon fill="none" stroke-width="1" stroke-dasharray="" stroke="black" points="232.0,57.0 217.0,57.0 217.0,53.1 232.0,53.1" />
<polygon fill="none" stroke-width="1" stroke-dasharray="" stroke="black" points="232.0,57.0 232.0,53.1 217.0,53.1 217.0,57.0" />
<polygon fill="none" stroke-width="1" stroke-dasharray="" stroke="black" points="232.0,47.0 232.0,57.0 217.0,57.0 217.0,47.0 232.0,47.0" />
<polygon fill="none" stroke-width="1" stroke-dasharray="" stroke="black" points="220.0,-42.0 220.0,-12.5 220.0,-15.6 220.0,-38.9 220.0,-42.0" />
<polygon fill="none" stroke-width="1" stroke-dasharray="" stroke="black" points="220.0,-7.5 220.0,22.0 220.0,18.9 220.0,-4.4 220.0,-7.5" />
<polygon fill="none" stroke-width="1" stroke-dasharray="" stroke="black" points="220.0,32.0 220.0,18.9 220.0,22.0 220.0,-7.5 220.0,-4.4 220.0,-15.6 220.0,-12.5 220.0,-12.5 220.0,-42.0 220.0,-42.0 220.0,-38.9 220.0,-52.0 220.0,-52.0 220.0,-38.9 220.0,-42.0 220.0,-42.0 220.0,-12.5 220.0,-12.5 220.0,-15.6 220.0,-4.4 220.0,-7.5 220.0,22.0 220.0,18.9 220.0,32.0 220.0,32.0 220.0,32.0" />
<polygon fill="none" stroke-width="1" stroke-dasharray="" stroke="black" points="220.0,-52.0 220.0,-37.0 220.0,-37.0 220.0,-52.0" />
<polygon fill="none" stroke-width="1" stroke-dasharray="" stroke="black" points="220.0,-38.9 220.0,-15.6 220.0,-12.5 220.0,-42.0 220.0,-38.9" />
<polygon fill="none" stroke-width="1" stroke-dasharray="" stroke="black" points="220.0,-4.4 220.0,18.9 220.0,22.0 220.0,-7.5 220.0,-4.4" />
<polygon fill="none" stroke-width="1" stroke-dasharray="" stroke="black" points="217.0,47.0 217.0,57.0 217.0,53.1 217.0,50.9 217.0,47.0" />
<polygon fill="none" stroke-width="1" stroke-dasharray="" stroke="black" points="217.0,67.0 217.0,53.1 217.0,57.0 217.0,47.0 217.0,50.9 217.0,37.0 217.0,37.0 217.0,37.0 217.0,50.9 217.0,47.0 217.0,47.0 217.0,57.0 217.0,57.0 217.0,53.1 217.0,67.0 217.0,67.0" />
<polygon fill="none" stroke-width="1" stroke-dasharray="" stroke="black" points="217.0,50.9 217.0,53.1 217.0,57.0 217.0,47.0 217.0,50.9" />
<polygon fill="none" stroke-width="1" stroke-dasharray="" stroke="black" points="132.0,57.0 132.0,67.0 232.0,67.0 232.0,57.0 232.0,57.0 217.0,57.0 217.0,47.0 232.0,47.0 232.0,37.0 132.0,37.0 132.0,47.0 147.0,47.0 147.0,57.0 132.0,57.0" />
<polygon fill="none" stroke-width="1" stroke-dasharray="" stroke="black" points="232.0,37.0 132.0,37.0 132.0,37.0 232.0,37.0" />
<polygon fill="none" stroke-width="1" stroke-dasharray="" stroke="black" points="232.0,67.0 132.0,67.0 132.0,67.0 232.0,67.0" />
<polygon fill="none" stroke-width="1" stroke-dasharray="" stroke="black" points="132.0,50.9 132.0,37.0 232.0,37.0 232.0,50.9 232.0,50.9 217.0,50.9 217.0,53.1 232.0,53.1 232.0,67.0 132.0,67.0 132.0,53.1 147.0,53.1 147.0,50.9 132.0,50.9" />
<polygon fill="none" stroke-width="1" stroke-dasharray="" stroke="black" points="132.0,67.0 132.0,70.0 232.0,70.0 232.0,67.0" />
<polygon fill="none" stroke-width="1" stroke-dasharray="" stroke="black" points="232.0,67.0 232.0,67.0 132.0,67.0 132.0,67.0" />
<polygon fill="none" stroke-width="1" stroke-dasharray="" stroke="black" points="132.0,70.0 132.0,70.0 232.0,70.0 232.0,70.0" />
<polygon fill="none" stroke-width="1" stroke-dasharray="" stroke="black" points="232.0,50.9 232.0,37.0 132.0,37.0 132.0,50.9 132.0,50.9 147.0,50.9 147.0,53.1 132.0,53.1 132.0,67.0 232.0,67.0 232.0,53.1 217.0,53.1 217.0,50.9 232.0,50.9" />
<polygon fill="none" stroke-width="1" stroke-dasharray="" stroke="black" points="132.0,37.0 232.0,37.0 232.0,37.0 132.0,37.0" />
<polygon fill="none" stroke-width="1" stroke-dasharray="" stroke="black" points="132.0,67.0 232.0,67.0 232.0,67.0 132.0,67.0" />
<polygon fill="none" stroke-width="1" stroke-dasharray="" stroke="black" points="232.0,57.0 232.0,67.0 132.0,67.0 132.0,57.0 132.0,57.0 147.0,57.0 147.0,47.0 132.0,47.0 132.0,37.0 232.0,37.0 232.0,47.0 217.0,47.0 217.0,57.0 232.0,57.0" />
<polygon fill="none" stroke-width="1" stroke-dasharray="" stroke="black" points="232.0,67.0 232.0,70.0 132.0,70.0 132.0,67.0" />
<polygon fill="none" stroke-width="1" stroke-dasharray="" stroke="black" points="147.0,50.9 147.0,53.1 147.0,57.0 147.0,47.0 147.0,50.9" />
<polygon fill="none" stroke-width="1" stroke-dasharray="" stroke="black" points="147.0,67.0 147.0,53.1 147.0,57.0 147.0,47.0 147.0,50.9 147.0,37.0 147.0,37.0 147.0,37.0 147.0,50.9 147.0,47.0 147.0,47.0 147.0,57.0 147.0,57.0 147.0,53.1 147.0,67.0 147.0,67.0" />
<polygon fill="none" stroke-width="1" stroke-dasharray="" stroke="black" points="147.0,47.0 147.0,57.0 147.0,53.1 147.0,50.9 147.0,47.0" />
<polygon fill="none" stroke-width="1" stroke-dasharray="" stroke="black" points="132.0,50.9 147.0,50.9 147.0,47.0 132.0,47.0" />
<polygon fill="none" stroke-width="1" stroke-dasharray="" stroke="black" points="132.0,57.0 147.0,57.0 147.0,53.1 132.0,53.1" />
<polygon fill="none" stroke-width="1" stroke-dasharray="" stroke="black" points="132.0,47.0 132.0,57.0 147.0,57.0 147.0,47.0 132.0,47.0" />
<polygon fill="none" stroke-width="1" stroke-dasharray="" stroke="black" points="147.0,47.0 147.0,50.9 132.0,50.9 132.0,47.0" />
<polygon fill="none" stroke-width="1" stroke-dasharray="" stroke="black" points="132.0,57.0 132.0,53.1 147.0,53.1 147.0,57.0" />
<polygon fill="none" stroke-width="1" stroke-dasharray="" stroke="black" points="132.0,50.9 147.0,50.9 147.0,37.0 132.0,37.0 132.0,50.9" />
<polygon fill="none" stroke-width="1" stroke-dasharray="" stroke="black" points="132.0,53.1 132.0,67.0 147.0,67.0 147.0,53.1 132.0,53.1" />
<polygon fill="none" stroke-width="1" stroke-dasharray="" stroke="black" points="132.0,37.0 132.0,37.0 132.0,37.0 147.0,37.0 147.0,37.0 132.0,37.0" />
<polygon fill="none" stroke-width="1" stroke-dasharray="" stroke="black" points="132.0,67.0 147.0,67.0 147.0,67.0 132.0,67.0 132.0,67.0 132.0,67.0" />
<polygon fill="none" stroke-width="1" stroke-dasharray="" stroke="black" points="147.0,50.9 132.0,50.9 132.0,37.0 147.0,37.0 147.0,50.9" />
<polygon fill="none" stroke-width="1" stroke-dasharray="" stroke="black" points="147.0,53.1 147.0,67.0 132.0,67.0 132.0,53.1 147.0,53.1" />
<polygon fill="none" stroke-width="1" stroke-dasharray="" stroke="black" points="132.0,47.0 132.0,50.9 147.0,50.9 147.0,47.0" />
<polygon fill="none" stroke-width="1" stroke-dasharray="" stroke="black" points="132.0,47.0 147.0,47.0 147.0,50.9 132.0,50.9" />
<polygon fill="none" stroke-width="1" stroke-dasharray="" stroke="black" points="147.0,57.0 147.0,53.1 132.0,53.1 132.0,57.0" />
<polygon fill="none" stroke-width="1" stroke-dasharray="" stroke="black" points="132.0,53.1 147.0,53.1 147.0,57.0 132.0,57.0" />
<polygon fill="none" stroke-width="1" stroke-dasharray="" stroke="black" points="147.0,47.0 147.0,57.0 132.0,57.0 132.0,47.0 147.0,47.0" />
<polygon fill="none" stroke-width="1" stroke-dasharray="" stroke="black" points="20.0,102.0 20.0,132.0 244.0,132.0 244.0,102.0 232.0,102.0 232.0,83.5 244.0,83.5 244.0,83.5 244.0,68.5 244.0,68.5 232.0,68.5 232.0,50.0 244.0,50.0 244.0,20.0 20.0,20.0 20.0,50.0 20.0,50.0 32.0,50.0 32.0,68.5 20.0,68.5 20.0,83.5 32.0,83.5 32.0,102.0 20.0,102.0" />
<polygon fill="none" stroke-width="1" stroke-dasharray="" stroke="black" points="244.0,20.0 20.0,20.0 20.0,20.0 244.0,20.0" />
<polygon fill="none" stroke-width="1" stroke-dasharray="" stroke="black" points="244.0,132.0 20.0,132.0 20.0,132.0 244.0,132.0" />
<polygon fill="none" stroke-width="1" stroke-dasharray="" stroke="black" points="244.0,120.0 20.0,120.0 20.0,120.0 244.0,120.0" />
<polygon fill="none" stroke-width="1" stroke-dasharray="" stroke="black" points="244.0,125.0 20.0,125.0 20.0,125.0 244.0,125.0" />
<polygon fill="none" stroke-width="1" stroke-dasharray="" stroke="black" points="20.0,86.6 20.0,65.4 20.0,65.4 32.0,65.4 32.0,53.1 20.0,53.1 20.0,20.0 244.0,20.0 244.0,53.1 244.0,53.1 232.0,53.1 232.0,65.4 244.0,65.4 244.0,86.6 232.0,86.6 232.0,98.9 244.0,98.9 244.0,98.9 244.0,120.0 20.0,120.0 20.0,98.9 32.0,98.9 32.0,86.6 20.0,86.6" />
<polygon fill="none" stroke-width="1" stroke-dasharray="" stroke="black" points="32.0,22.0 32.0,32.0 232.0,32.0 232.0,22.0 220.0,22.0 220.0,-7.5 232.0,-7.5 232.0,-7.5 232.0,-12.5 232.0,-12.5 220.0,-12.5 220.0,-42.0 232.0,-42.0 232.0,-52.0 32.0,-52.0 32.0,-42.0 32.0,-42.0 44.0,-42.0 44.0,-12.5 32.0,-12.5 32.0,-7.5 44.0,-7.5 44.0,22.0 32.0,22.0" />
<polygon fill="none" stroke-width="1" stroke-dasharray="" stroke="black" points="232.0,-52.0 32.0,-52.0 32.0,-52.0 232.0,-52.0" />
<polygon fill="none" stroke-width="1" stroke-dasharray="" stroke="black" points="232.0,32.0 32.0,32.0 32.0,32.0 232.0,32.0" />
<polygon fill="none" stroke-width="1" stroke-dasharray="" stroke="black" points="132.0,50.9 132.0,47.0 132.0,37.0 132.0,37.0 132.0,50.9" />
<polygon fill="none" stroke-width="1" stroke-dasharray="" stroke="black" points="132.0,53.1 132.0,67.0 132.0,67.0 132.0,57.0 132.0,53.1" />
<polygon fill="none" stroke-width="1" stroke-dasharray="" stroke="black" points="32.0,-4.4 32.0,-15.6 32.0,-15.6 44.0,-15.6 44.0,-38.9 32.0,-38.9 32.0,-52.0 232.0,-52.0 232.0,-38.9 232.0,-38.9 220.0,-38.9 220.0,-15.6 232.0,-15.6 232.0,-4.4 220.0,-4.4 220.0,18.9 232.0,18.9 232.0,18.9 232.0,32.0 32.0,32.0 32.0,18.9 44.0,18.9 44.0,-4.4 32.0,-4.4" />
<polygon fill="none" stroke-width="1" stroke-dasharray="" stroke="black" points="20.0,120.0 20.0,135.0 244.0,135.0 244.0,120.0" />
<polygon fill="none" stroke-width="1" stroke-dasharray="" stroke="black" points="32.0,-64.0 32.0,-52.0 232.0,-52.0 232.0,-64.0" />
<polygon fill="none" stroke-width="1" stroke-dasharray="" stroke="black" points="32.0,32.0 32.0,35.0 232.0,35.0 232.0,32.0" />
<polygon fill="none" stroke-width="1" stroke-dasharray="" stroke="black" points="44.0,-52.0 44.0,-37.0 220.0,-37.0 220.0,-52.0" />
<polygon fill="none" stroke-width="1" stroke-dasharray="" stroke="black" points="232.0,-64.0 232.0,-64.0 32.0,-64.0 32.0,-64.0" />
<polygon fill="none" stroke-width="1" stroke-dasharray="" stroke="black" points="32.0,-52.0 32.0,-52.0 232.0,-52.0 232.0,-52.0" />
<polygon fill="none" stroke-width="1" stroke-dasharray="" stroke="black" points="232.0,-64.0 232.0,-52.0 32.0,-52.0 32.0,-64.0" />
<polygon fill="none" stroke-width="1" stroke-dasharray="" stroke="black" points="32.0,-64.0 32.0,-52.0 232.0,-52.0 232.0,-64.0" />
<polygon fill="none" stroke-width="1" stroke-dasharray="" stroke="black" points="232.0,-64.0 232.0,-64.0 32.0,-64.0 32.0,-64.0" />
<polygon fill="none" stroke-width="1" stroke-dasharray="" stroke="black" points="32.0,-52.0 32.0,-52.0 232.0,-52.0 232.0,-52.0" />
<polygon fill="none" stroke-width="1" stroke-dasharray="" stroke="black" points="232.0,-64.0 232.0,-52.0 32.0,-52.0 32.0,-64.0" />
<polygon fill="none" stroke-width="1" stroke-dasharray="" stroke="black" points="220.0,-52.0 220.0,-52.0 44.0,-52.0 44.0,-52.0" />
<polygon fill="none" stroke-width="1" stroke-dasharray="" stroke="black" points="44.0,-37.0 44.0,-37.0 220.0,-37.0 220.0,-37.0" />
<polygon fill="none" stroke-width="1" stroke-dasharray="" stroke="black" points="232.0,32.0 232.0,32.0 32.0,32.0 32.0,32.0" />
<polygon fill="none" stroke-width="1" stroke-dasharray="" stroke="black" points="32.0,35.0 32.0,35.0 232.0,35.0 232.0,35.0" />
<polygon fill="none" stroke-width="1" stroke-dasharray="" stroke="black" points="132.0,57.0 132.0,53.1 132.0,67.0 132.0,67.0 132.0,67.0 132.0,53.1 132.0,57.0 132.0,47.0 132.0,50.9 132.0,37.0 132.0,37.0 132.0,37.0 132.0,50.9 132.0,47.0 132.0,47.0 132.0,57.0" />
<polygon fill="none" stroke-width="1" stroke-dasharray="" stroke="black" points="132.0,67.0 132.0,67.0 132.0,70.0 132.0,70.0" />
<polygon fill="none" stroke-width="1" stroke-dasharray="" stroke="black" points="244.0,120.0 244.0,120.0 20.0,120.0 20.0,120.0" />
<polygon fill="none" stroke-width="1" stroke-dasharray="" stroke="black" points="20.0,135.0 20.0,135.0 244.0,135.0 244.0,135.0" />
<polygon fill="none" stroke-width="1" stroke-dasharray="" stroke="black" points="32.0,-64.0 32.0,-52.0 232.0,-52.0 232.0,-64.0" />
<polygon fill="none" stroke-width="1" stroke-dasharray="" stroke="black" points="232.0,-64.0 232.0,-64.0 32.0,-64.0 32.0,-64.0" />
<polygon fill="none" stroke-width="1" stroke-dasharray="" stroke="black" points="32.0,-52.0 32.0,-52.0 232.0,-52.0 232.0,-52.0" />
<polygon fill="none" stroke-width="1" stroke-dasharray="" stroke="black" points="32.0,-67.0 32.0,-52.0 232.0,-52.0 232.0,-67.0" />
<polygon fill="none" stroke-width="1" stroke-dasharray="" stroke="black" points="232.0,-64.0 232.0,-52.0 32.0,-52.0 32.0,-64.0" />
<polygon fill="none" stroke-width="1" stroke-dasharray="" stroke="black" points="232.0,-67.0 232.0,-67.0 32.0,-67.0 32.0,-67.0" />
<polygon fill="none" stroke-width="1" stroke-dasharray="" stroke="black" points="32.0,-52.0 32.0,-52.0 232.0,-52.0 232.0,-52.0" />
<polygon fill="none" stroke-width="1" stroke-dasharray="" stroke="black" points="232.0,-67.0 232.0,-52.0 32.0,-52.0 32.0,-67.0" />
<polygon fill="none" stroke-width="1" stroke-dasharray="" stroke="black" points="32.0,-64.0 32.0,-52.0 232.0,-52.0 232.0,-64.0" />
<polygon fill="none" stroke-width="1" stroke-dasharray="" stroke="black" points="232.0,-64.0 232.0,-64.0 32.0,-64.0 32.0,-64.0" />
<polygon fill="none" stroke-width="1" stroke-dasharray="" stroke="black" points="32.0,-52.0 32.0,-52.0 232.0,-52.0 232.0,-52.0" />
<polygon fill="none" stroke-width="1" stroke-dasharray="" stroke="black" points="220.0,-52.0 220.0,-37.0 44.0,-37.0 44.0,-52.0" />
<polygon fill="none" stroke-width="1" stroke-dasharray="" stroke="black" points="232.0,-4.4 232.0,-15.6 232.0,-15.6 220.0,-15.6 220.0,-38.9 232.0,-38.9 232.0,-52.0 32.0,-52.0 32.0,-38.9 32.0,-38.9 44.0,-38.9 44.0,-15.6 32.0,-15.6 32.0,-4.4 44.0,-4.4 44.0,18.9 32.0,18.9 32.0,18.9 32.0,32.0 232.0,32.0 232.0,18.9 220.0,18.9 220.0,-4.4 232.0,-4.4" />
<polygon fill="none" stroke-width="1" stroke-dasharray="" stroke="black" points="132.0,47.0 132.0,50.9 132.0,37.0 132.0,37.0 132.0,47.0" />
<polygon fill="none" stroke-width="1" stroke-dasharray="" stroke="black" points="132.0,57.0 132.0,67.0 132.0,67.0 132.0,53.1 132.0,57.0" />
<polygon fill="none" stroke-width="1" stroke-dasharray="" stroke="black" points="32.0,-52.0 232.0,-52.0 232.0,-52.0 32.0,-52.0" />
<polygon fill="none" stroke-width="1" stroke-dasharray="" stroke="black" points="32.0,32.0 232.0,32.0 232.0,32.0 32.0,32.0" />
<polygon fill="none" stroke-width="1" stroke-dasharray="" stroke="black" points="232.0,-64.0 232.0,-52.0 32.0,-52.0 32.0,-64.0" />
<polygon fill="none" stroke-width="1" stroke-dasharray="" stroke="black" points="232.0,22.0 232.0,32.0 32.0,32.0 32.0,22.0 44.0,22.0 44.0,-7.5 32.0,-7.5 32.0,-7.5 32.0,-12.5 32.0,-12.5 44.0,-12.5 44.0,-42.0 32.0,-42.0 32.0,-52.0 232.0,-52.0 232.0,-42.0 232.0,-42.0 220.0,-42.0 220.0,-12.5 232.0,-12.5 232.0,-7.5 220.0,-7.5 220.0,22.0 232.0,22.0" />
<polygon fill="none" stroke-width="1" stroke-dasharray="" stroke="black" points="232.0,32.0 232.0,35.0 32.0,35.0 32.0,32.0" />
<polygon fill="none" stroke-width="1" stroke-dasharray="" stroke="black" points="244.0,86.6 244.0,65.4 244.0,65.4 232.0,65.4 232.0,53.1 244.0,53.1 244.0,20.0 20.0,20.0 20.0,53.1 20.0,53.1 32.0,53.1 32.0,65.4 20.0,65.4 20.0,86.6 32.0,86.6 32.0,98.9 20.0,98.9 20.0,98.9 20.0,120.0 244.0,120.0 244.0,98.9 232.0,98.9 232.0,86.6 244.0,86.6" />
<polygon fill="none" stroke-width="1" stroke-dasharray="" stroke="black" points="20.0,120.0 244.0,120.0 244.0,120.0 20.0,120.0" />
<polygon fill="none" stroke-width="1" stroke-dasharray="" stroke="black" points="20.0,125.0 244.0,125.0 244.0,125.0 20.0,125.0" />
<polygon fill="none" stroke-width="1" stroke-dasharray="" stroke="black" points="20.0,20.0 244.0,20.0 244.0,20.0 20.0,20.0" />
<polygon fill="none" stroke-width="1" stroke-dasharray="" stroke="black" points="20.0,132.0 244.0,132.0 244.0,132.0 20.0,132.0" />
<polygon fill="none" stroke-width="1" stroke-dasharray="" stroke="black" points="244.0,102.0 244.0,132.0 20.0,132.0 20.0,102.0 32.0,102.0 32.0,83.5 20.0,83.5 20.0,83.5 20.0,68.5 20.0,68.5 32.0,68.5 32.0,50.0 20.0,50.0 20.0,20.0 244.0,20.0 244.0,50.0 244.0,50.0 232.0,50.0 232.0,68.5 244.0,68.5 244.0,83.5 232.0,83.5 232.0,102.0 244.0,102.0" />
<polygon fill="none" stroke-width="1" stroke-dasharray="" stroke="black" points="244.0,120.0 244.0,135.0 20.0,135.0 20.0,120.0" />
<polygon fill="none" stroke-width="1" stroke-dasharray="" stroke="black" points="44.0,-38.9 44.0,-15.6 44.0,-12.5 44.0,-42.0 44.0,-38.9" />
<polygon fill="none" stroke-width="1" stroke-dasharray="" stroke="black" points="44.0,-4.4 44.0,18.9 44.0,22.0 44.0,-7.5 44.0,-4.4" />
<polygon fill="none" stroke-width="1" stroke-dasharray="" stroke="black" points="44.0,-52.0 44.0,-52.0 44.0,-37.0 44.0,-37.0" />
<polygon fill="none" stroke-width="1" stroke-dasharray="" stroke="black" points="44.0,32.0 44.0,18.9 44.0,22.0 44.0,-7.5 44.0,-4.4 44.0,-15.6 44.0,-12.5 44.0,-12.5 44.0,-42.0 44.0,-42.0 44.0,-38.9 44.0,-52.0 44.0,-52.0 44.0,-38.9 44.0,-42.0 44.0,-42.0 44.0,-12.5 44.0,-12.5 44.0,-15.6 44.0,-4.4 44.0,-7.5 44.0,22.0 44.0,18.9 44.0,32.0 44.0,32.0 44.0,32.0" />
<polygon fill="none" stroke-width="1" stroke-dasharray="" stroke="black" points="44.0,-42.0 44.0,-12.5 44.0,-15.6 44.0,-38.9 44.0,-42.0" />
<polygon fill="none" stroke-width="1" stroke-dasharray="" stroke="black" points="44.0,-7.5 44.0,22.0 44.0,18.9 44.0,-4.4 44.0,-7.5" />
<polygon fill="none" stroke-width="1" stroke-dasharray="" stroke="black" points="32.0,-38.9 44.0,-38.9 44.0,-42.0 32.0,-42.0" />
<polygon fill="none" stroke-width="1" stroke-dasharray="" stroke="black" points="32.0,-12.5 44.0,-12.5 44.0,-15.6 32.0,-15.6" />
<polygon fill="none" stroke-width="1" stroke-dasharray="" stroke="black" points="32.0,-4.4 44.0,-4.4 44.0,-7.5 32.0,-7.5" />
<polygon fill="none" stroke-width="1" stroke-dasharray="" stroke="black" points="32.0,22.0 44.0,22.0 44.0,18.9 32.0,18.9" />
<polygon fill="none" stroke-width="1" stroke-dasharray="" stroke="black" points="32.0,-42.0 32.0,-12.5 44.0,-12.5 44.0,-42.0 32.0,-42.0" />
<polygon fill="none" stroke-width="1" stroke-dasharray="" stroke="black" points="32.0,-7.5 32.0,22.0 44.0,22.0 44.0,-7.5 32.0,-7.5" />
<polygon fill="none" stroke-width="1" stroke-dasharray="" stroke="black" points="44.0,-42.0 44.0,-38.9 32.0,-38.9 32.0,-42.0" />
<polygon fill="none" stroke-width="1" stroke-dasharray="" stroke="black" points="32.0,-12.5 32.0,-15.6 44.0,-15.6 44.0,-12.5" />
<polygon fill="none" stroke-width="1" stroke-dasharray="" stroke="black" points="44.0,-7.5 44.0,-4.4 32.0,-4.4 32.0,-7.5" />
<polygon fill="none" stroke-width="1" stroke-dasharray="" stroke="black" points="32.0,22.0 32.0,18.9 44.0,18.9 44.0,22.0" />
<polygon fill="none" stroke-width="1" stroke-dasharray="" stroke="black" points="32.0,-38.9 44.0,-38.9 44.0,-52.0 32.0,-52.0 32.0,-38.9" />
<polygon fill="none" stroke-width="1" stroke-dasharray="" stroke="black" points="32.0,-15.6 32.0,-4.4 44.0,-4.4 44.0,-15.6 32.0,-15.6" />
<polygon fill="none" stroke-width="1" stroke-dasharray="" stroke="black" points="32.0,18.9 32.0,32.0 44.0,32.0 44.0,18.9 32.0,18.9" />
<polygon fill="none" stroke-width="1" stroke-dasharray="" stroke="black" points="32.0,-52.0 32.0,-52.0 32.0,-52.0 44.0,-52.0 44.0,-52.0 32.0,-52.0" />
<polygon fill="none" stroke-width="1" stroke-dasharray="" stroke="black" points="32.0,32.0 44.0,32.0 44.0,32.0 32.0,32.0 32.0,32.0 32.0,32.0" />
<polygon fill="none" stroke-width="1" stroke-dasharray="" stroke="black" points="44.0,-38.9 32.0,-38.9 32.0,-52.0 44.0,-52.0 44.0,-38.9" />
<polygon fill="none" stroke-width="1" stroke-dasharray="" stroke="black" points="44.0,-15.6 44.0,-4.4 32.0,-4.4 32.0,-15.6 44.0,-15.6" />
<polygon fill="none" stroke-width="1" stroke-dasharray="" stroke="black" points="44.0,18.9 44.0,32.0 32.0,32.0 32.0,18.9 44.0,18.9" />
<polygon fill="none" stroke-width="1" stroke-dasharray="" stroke="black" points="32.0,-42.0 32.0,-38.9 44.0,-38.9 44.0,-42.0" />
<polygon fill="none" stroke-width="1" stroke-dasharray="" stroke="black" points="32.0,-42.0 44.0,-42.0 44.0,-38.9 32.0,-38.9" />
<polygon fill="none" stroke-width="1" stroke-dasharray="" stroke="black" points="44.0,-12.5 44.0,-15.6 32.0,-15.6 32.0,-12.5" />
<polygon fill="none" stroke-width="1" stroke-dasharray="" stroke="black" points="32.0,-15.6 44.0,-15.6 44.0,-12.5 32.0,-12.5" />
<polygon fill="none" stroke-width="1" stroke-dasharray="" stroke="black" points="32.0,-7.5 32.0,-4.4 44.0,-4.4 44.0,-7.5" />
<polygon fill="none" stroke-width="1" stroke-dasharray="" stroke="black" points="32.0,-7.5 44.0,-7.5 44.0,-4.4 32.0,-4.4" />
<polygon fill="none" stroke-width="1" stroke-dasharray="" stroke="black" points="44.0,22.0 44.0,18.9 32.0,18.9 32.0,22.0" />
<polygon fill="none" stroke-width="1" stroke-dasharray="" stroke="black" points="32.0,18.9 44.0,18.9 44.0,22.0 32.0,22.0" />
<polygon fill="none" stroke-width="1" stroke-dasharray="" stroke="black" points="44.0,-42.0 44.0,-12.5 32.0,-12.5 32.0,-42.0 44.0,-42.0" />
<polygon fill="none" stroke-width="1" stroke-dasharray="" stroke="black" points="44.0,-7.5 44.0,22.0 32.0,22.0 32.0,-7.5 44.0,-7.5" />
<polygon fill="none" stroke-width="1" stroke-dasharray="" stroke="black" points="32.0,53.1 32.0,65.4 32.0,68.5 32.0,50.0 32.0,53.1" />
<polygon fill="none" stroke-width="1" stroke-dasharray="" stroke="black" points="32.0,86.6 32.0,98.9 32.0,102.0 32.0,83.5 32.0,86.6" />
<polygon fill="none" stroke-width="1" stroke-dasharray="" stroke="black" points="32.0,-38.9 32.0,-42.0 32.0,-52.0 32.0,-52.0 32.0,-38.9" />
<polygon fill="none" stroke-width="1" stroke-dasharray="" stroke="black" points="32.0,-15.6 32.0,-4.4 32.0,-7.5 32.0,-12.5 32.0,-15.6" />
<polygon fill="none" stroke-width="1" stroke-dasharray="" stroke="black" points="32.0,18.9 32.0,32.0 32.0,32.0 32.0,22.0 32.0,18.9" />
<polygon fill="none" stroke-width="1" stroke-dasharray="" stroke="black" points="32.0,-64.0 32.0,-64.0 32.0,-52.0 32.0,-52.0" />
<polygon fill="none" stroke-width="1" stroke-dasharray="" stroke="black" points="32.0,-64.0 32.0,-64.0 32.0,-52.0 32.0,-52.0" />
<polygon fill="none" stroke-width="1" stroke-dasharray="" stroke="black" points="32.0,22.0 32.0,18.9 32.0,32.0 32.0,32.0 32.0,18.9 32.0,22.0 32.0,22.0 32.0,-7.5 32.0,-7.5 32.0,-4.4 32.0,-15.6 32.0,-12.5 32.0,-42.0 32.0,-38.9 32.0,-52.0 32.0,-52.0 32.0,-52.0 32.0,-52.0 32.0,-38.9 32.0,-42.0 32.0,-12.5 32.0,-15.6 32.0,-4.4 32.0,-7.5 32.0,-7.5 32.0,22.0" />
<polygon fill="none" stroke-width="1" stroke-dasharray="" stroke="black" points="32.0,32.0 32.0,32.0 32.0,35.0 32.0,35.0" />
<polygon fill="none" stroke-width="1" stroke-dasharray="" stroke="black" points="32.0,120.0 32.0,98.9 32.0,102.0 32.0,83.5 32.0,86.6 32.0,65.4 32.0,68.5 32.0,68.5 32.0,50.0 32.0,50.0 32.0,53.1 32.0,20.0 32.0,20.0 32.0,53.1 32.0,50.0 32.0,50.0 32.0,68.5 32.0,68.5 32.0,65.4 32.0,86.6 32.0,83.5 32.0,102.0 32.0,98.9 32.0,120.0 32.0,120.0 32.0,120.0" />
<polygon fill="none" stroke-width="1" stroke-dasharray="" stroke="black" points="32.0,-64.0 32.0,-64.0 32.0,-52.0 32.0,-52.0" />
<polygon fill="none" stroke-width="1" stroke-dasharray="" stroke="black" points="32.0,-67.0 32.0,-67.0 32.0,-52.0 32.0,-52.0" />
<polygon fill="none" stroke-width="1" stroke-dasharray="" stroke="black" points="32.0,-64.0 32.0,-64.0 32.0,-52.0 32.0,-52.0" />
<polygon fill="none" stroke-width="1" stroke-dasharray="" stroke="black" points="32.0,-42.0 32.0,-38.9 32.0,-52.0 32.0,-52.0 32.0,-42.0" />
<polygon fill="none" stroke-width="1" stroke-dasharray="" stroke="black" points="32.0,-12.5 32.0,-7.5 32.0,-4.4 32.0,-15.6 32.0,-12.5" />
<polygon fill="none" stroke-width="1" stroke-dasharray="" stroke="black" points="32.0,22.0 32.0,32.0 32.0,32.0 32.0,18.9 32.0,22.0" />
<polygon fill="none" stroke-width="1" stroke-dasharray="" stroke="black" points="32.0,50.0 32.0,68.5 32.0,65.4 32.0,53.1 32.0,50.0" />
<polygon fill="none" stroke-width="1" stroke-dasharray="" stroke="black" points="32.0,83.5 32.0,102.0 32.0,98.9 32.0,86.6 32.0,83.5" />
<polygon fill="none" stroke-width="1" stroke-dasharray="" stroke="black" points="27.0,120.0 32.0,120.0 32.0,120.0 27.0,120.0 27.0,120.0 27.0,120.0" />
<polygon fill="none" stroke-width="1" stroke-dasharray="" stroke="black" points="27.0,125.0 27.0,125.0 27.0,125.0 32.0,125.0 32.0,125.0 27.0,125.0" />
<polygon fill="none" stroke-width="1" stroke-dasharray="" stroke="black" points="20.0,53.1 32.0,53.1 32.0,50.0 20.0,50.0" />
<polygon fill="none" stroke-width="1" stroke-dasharray="" stroke="black" points="20.0,68.5 32.0,68.5 32.0,65.4 20.0,65.4" />
<polygon fill="none" stroke-width="1" stroke-dasharray="" stroke="black" points="20.0,86.6 32.0,86.6 32.0,83.5 20.0,83.5" />
<polygon fill="none" stroke-width="1" stroke-dasharray="" stroke="black" points="20.0,102.0 32.0,102.0 32.0,98.9 20.0,98.9" />
<polygon fill="none" stroke-width="1" stroke-dasharray="" stroke="black" points="20.0,50.0 20.0,68.5 32.0,68.5 32.0,50.0 20.0,50.0" />
<polygon fill="none" stroke-width="1" stroke-dasharray="" stroke="black" points="20.0,83.5 20.0,102.0 32.0,102.0 32.0,83.5 20.0,83.5" />
<polygon fill="none" stroke-width="1" stroke-dasharray="" stroke="black" points="32.0,50.0 32.0,53.1 20.0,53.1 20.0,50.0" />
<polygon fill="none" stroke-width="1" stroke-dasharray="" stroke="black" points="20.0,68.5 20.0,65.4 32.0,65.4 32.0,68.5" />
<polygon fill="none" stroke-width="1" stroke-dasharray="" stroke="black" points="32.0,83.5 32.0,86.6 20.0,86.6 20.0,83.5" />
<polygon fill="none" stroke-width="1" stroke-dasharray="" stroke="black" points="20.0,102.0 20.0,98.9 32.0,98.9 32.0,102.0" />
<polygon fill="none" stroke-width="1" stroke-dasharray="" stroke="black" points="20.0,53.1 32.0,53.1 32.0,20.0 20.0,20.0 20.0,53.1" />
<polygon fill="none" stroke-width="1" stroke-dasharray="" stroke="black" points="20.0,65.4 20.0,86.6 32.0,86.6 32.0,65.4 20.0,65.4" />
<polygon fill="none" stroke-width="1" stroke-dasharray="" stroke="black" points="20.0,98.9 20.0,132.0 32.0,132.0 32.0,125.0 27.0,125.0 27.0,120.0 32.0,120.0 32.0,98.9 20.0,98.9" />
<polygon fill="none" stroke-width="1" stroke-dasharray="" stroke="black" points="20.0,20.0 20.0,20.0 20.0,20.0 32.0,20.0 32.0,20.0 20.0,20.0" />
<polygon fill="none" stroke-width="1" stroke-dasharray="" stroke="black" points="20.0,132.0 32.0,132.0 32.0,132.0 20.0,132.0 20.0,132.0 20.0,132.0" />
<polygon fill="none" stroke-width="1" stroke-dasharray="" stroke="black" points="32.0,53.1 20.0,53.1 20.0,20.0 32.0,20.0 32.0,53.1" />
<polygon fill="none" stroke-width="1" stroke-dasharray="" stroke="black" points="32.0,65.4 32.0,86.6 20.0,86.6 20.0,65.4 32.0,65.4" />
<polygon fill="none" stroke-width="1" stroke-dasharray="" stroke="black" points="32.0,98.9 32.0,120.0 27.0,120.0 27.0,125.0 32.0,125.0 32.0,132.0 20.0,132.0 20.0,98.9 32.0,98.9" />
<polygon fill="none" stroke-width="1" stroke-dasharray="" stroke="black" points="20.0,50.0 20.0,53.1 32.0,53.1 32.0,50.0" />
<polygon fill="none" stroke-width="1" stroke-dasharray="" stroke="black" points="20.0,50.0 32.0,50.0 32.0,53.1 20.0,53.1" />
<polygon fill="none" stroke-width="1" stroke-dasharray="" stroke="black" points="32.0,68.5 32.0,65.4 20.0,65.4 20.0,68.5" />
<polygon fill="none" stroke-width="1" stroke-dasharray="" stroke="black" points="20.0,65.4 32.0,65.4 32.0,68.5 20.0,68.5" />
<polygon fill="none" stroke-width="1" stroke-dasharray="" stroke="black" points="20.0,83.5 20.0,86.6 32.0,86.6 32.0,83.5" />
<polygon fill="none" stroke-width="1" stroke-dasharray="" stroke="black" points="20.0,83.5 32.0,83.5 32.0,86.6 20.0,86.6" />
<polygon fill="none" stroke-width="1" stroke-dasharray="" stroke="black" points="32.0,102.0 32.0,98.9 20.0,98.9 20.0,102.0" />
<polygon fill="none" stroke-width="1" stroke-dasharray="" stroke="black" points="20.0,98.9 32.0,98.9 32.0,102.0 20.0,102.0" />
<polygon fill="none" stroke-width="1" stroke-dasharray="" stroke="black" points="32.0,50.0 32.0,68.5 20.0,68.5 20.0,50.0 32.0,50.0" />
<polygon fill="none" stroke-width="1" stroke-dasharray="" stroke="black" points="32.0,83.5 32.0,102.0 20.0,102.0 20.0,83.5 32.0,83.5" />
<polygon fill="none" stroke-width="1" stroke-dasharray="" stroke="black" points="20.0,53.1 20.0,50.0 20.0,20.0 20.0,20.0 20.0,53.1" />
<polygon fill="none" stroke-width="1" stroke-dasharray="" stroke="black" points="20.0,65.4 20.0,86.6 20.0,83.5 20.0,68.5 20.0,65.4" />
<polygon fill="none" stroke-width="1" stroke-dasharray="" stroke="black" points="20.0,98.9 20.0,120.0 20.0,120.0 20.0,125.0 20.0,125.0 20.0,132.0 20.0,132.0 20.0,102.0 20.0,98.9" />
<polygon fill="none" stroke-width="1" stroke-dasharray="" stroke="black" points="20.0,50.0 20.0,53.1 20.0,20.0 20.0,20.0 20.0,50.0" />
<polygon fill="none" stroke-width="1" stroke-dasharray="" stroke="black" points="20.0,68.5 20.0,83.5 20.0,86.6 20.0,65.4 20.0,68.5" />
<polygon fill="none" stroke-width="1" stroke-dasharray="" stroke="black" points="20.0,102.0 20.0,132.0 20.0,132.0 20.0,125.0 20.0,125.0 20.0,120.0 20.0,120.0 20.0,98.9 20.0,102.0" />
<polygon fill="none" stroke-width="1" stroke-dasharray="" stroke="black" points="20.0,102.0 20.0,98.9 20.0,132.0 20.0,132.0 20.0,98.9 20.0,102.0 20.0,102.0 20.0,83.5 20.0,83.5 20.0,86.6 20.0,65.4 20.0,68.5 20.0,50.0 20.0,53.1 20.0,20.0 20.0,20.0 20.0,20.0 20.0,20.0 20.0,53.1 20.0,50.0 20.0,68.5 20.0,65.4 20.0,86.6 20.0,83.5 20.0,83.5 20.0,102.0" />
<polygon fill="none" stroke-width="1" stroke-dasharray="" stroke="black" points="20.0,120.0 20.0,120.0 20.0,135.0 20.0,135.0" />
</svg>
