<svg width="1600" viewBox="0.0 0.0 800.0 140.7" xmlns="http://www.w3.org/2000/svg">
<polygon fill="none" stroke-width="1" stroke-dasharray="2" stroke="gray" points="90.71067811865478,100.7232628627803 105.71067811865478,104.60037905106705 105.71067811865478,90.71067811865477 90.71067811865478,90.71067811865477 90.71067811865478,100.7232628627803" />
<polygon fill="none" stroke-width="1" stroke-dasharray="2" stroke="gray" points="90.71067811865478,110.69809337452925 90.71067811865478,120.71067811865477 105.71067811865478,120.71067811865477 105.71067811865478,106.82097718624249 90.71067811865478,110.69809337452925" />
<polygon fill="none" stroke-width="1" stroke-dasharray="2" stroke="gray" points="90.71067811865478,110.69809337452925 105.72067811865477,106.81839244211696 105.72067811865477,120.71067811865477 475.70067811865476,120.71067811865474 475.70067811865476,120.71067811865474 475.70067811865476,106.81839244211693 490.71067811865476,110.69809337452921 490.71067811865476,100.72326286278026 475.70067811865476,104.60296379519255 475.70067811865476,90.71067811865474 475.70067811865476,90.71067811865474 105.72067811865477,90.71067811865477 105.72067811865477,104.60296379519258 90.71067811865478,100.72326286278029 90.71067811865478,100.72326286278029 90.71067811865478,110.69809337452925" />
<polygon fill="none" stroke-width="1" stroke-dasharray="2" stroke="gray" points="475.71067811865476,104.60037905106702 490.71067811865476,100.72326286278026 490.71067811865476,90.71067811865474 475.71067811865476,90.71067811865474 475.71067811865476,104.60037905106702" />
<polygon fill="none" stroke-width="1" stroke-dasharray="2" stroke="gray" points="475.71067811865476,106.82097718624246 475.71067811865476,120.71067811865474 490.71067811865476,120.71067811865474 490.71067811865476,110.69809337452921 475.71067811865476,106.82097718624246" />
<polygon fill="none" stroke-width="1" stroke-dasharray="2" stroke="gray" points="80.10407640085657,90.09407640085657 80.10407640085657,100.11407640085656 90.71067811865478,110.72067811865477 90.71067811865478,100.70067811865476 80.10407640085657,90.09407640085657" />
<polygon fill="rgba(192,192,192,0.75)" stroke-width="1" stroke-dasharray="" stroke="silver" points="90.71067811865478,100.71067811865477 80.10407640085657,90.10407640085657 95.10407640085657,93.98636207739438 105.71067811865478,104.59296379519259" />
<polygon fill="none" stroke-width="1" stroke-dasharray="2" stroke="gray" points="105.71067811865478,106.82839244211695 95.10407640085657,96.22179072431875 80.10407640085657,100.10407640085657 90.71067811865478,110.71067811865477" />
<polygon fill="none" stroke-width="1" stroke-dasharray="2" stroke="gray" points="90.71067811865478,100.71067811865477 105.71067811865478,104.59296379519259 95.10407640085657,93.98636207739438 80.10407640085657,90.10407640085657" />
<polygon fill="rgba(255,255,255,0.75)" stroke-width="1" stroke-dasharray="" stroke="black" points="80.10407640085657,100.10407640085657 95.10407640085657,96.22179072431875 105.71067811865478,106.82839244211695 90.71067811865478,110.71067811865477" />
<polygon fill="none" stroke-width="1" stroke-dasharray="2" stroke="gray" points="95.10407640085657,93.99636207739437 105.71067811865478,104.60296379519258 105.71067811865478,90.71067811865477 95.10407640085657,80.10407640085657 95.10407640085657,93.99636207739437" />
<polygon fill="none" stroke-width="1" stroke-dasharray="2" stroke="gray" points="95.10407640085657,96.21179072431875 95.10407640085657,110.10407640085657 105.71067811865478,120.71067811865477 105.71067811865478,106.81839244211696 95.10407640085657,96.21179072431875" />
<polygon fill="none" stroke-width="1" stroke-dasharray="2" stroke="gray" points="105.72067811865472,90.71067811865477 475.70067811865476,90.71067811865474 475.70067811865476,90.71067811865474 465.0940764008566,80.10407640085654 95.11407640085656,80.10407640085657 105.72067811865472,90.71067811865477" />
<polygon fill="rgba(192,192,192,0.75)" stroke-width="1" stroke-dasharray="" stroke="black" points="105.72067811865472,120.71067811865477 95.11407640085656,110.10407640085657 465.0940764008566,110.10407640085654 475.70067811865476,120.71067811865474 475.70067811865476,120.71067811865474 105.72067811865472,120.71067811865477" />
<polygon fill="rgba(255,255,255,0.75)" stroke-width="1" stroke-dasharray="" stroke="black" points="475.71067811865476,104.60296379519255 465.10407640085657,93.99636207739434 465.10407640085657,80.10407640085654 475.71067811865476,90.71067811865474 475.71067811865476,104.60296379519255" />
<polygon fill="rgba(255,255,255,0.75)" stroke-width="1" stroke-dasharray="" stroke="black" points="475.71067811865476,106.81839244211693 475.71067811865476,120.71067811865474 465.10407640085657,110.10407640085654 465.10407640085657,96.21179072431872 475.71067811865476,106.81839244211693" />
<polygon fill="rgba(255,255,255,0.75)" stroke-width="1" stroke-dasharray="" stroke="black" points="475.71067811865476,104.59296379519256 465.10407640085657,93.98636207739435 480.10407640085657,90.10407640085654 490.71067811865476,100.71067811865474" />
<polygon fill="none" stroke-width="1" stroke-dasharray="2" stroke="gray" points="480.10407640085657,90.10407640085654 465.10407640085657,93.98636207739435 475.71067811865476,104.59296379519256 490.71067811865476,100.71067811865474" />
<polygon fill="none" stroke-width="1" stroke-dasharray="2" stroke="gray" points="490.71067811865476,110.71067811865474 480.10407640085657,100.10407640085654 465.10407640085657,96.22179072431872 475.71067811865476,106.82839244211692" />
<polygon fill="rgba(192,192,192,0.75)" stroke-width="1" stroke-dasharray="" stroke="silver" points="490.71067811865476,110.71067811865474 475.71067811865476,106.82839244211692 465.10407640085657,96.22179072431872 480.10407640085657,100.10407640085654" />
<polygon fill="rgba(255,255,255,0.75)" stroke-width="1" stroke-dasharray="" stroke="black" points="490.71067811865476,100.70067811865474 490.71067811865476,110.72067811865475 480.10407640085657,100.11407640085653 480.10407640085657,90.09407640085654 490.71067811865476,100.70067811865474" />
<polygon fill="none" stroke-width="1" stroke-dasharray="2" stroke="gray" points="80.10407640085657,90.09666114498208 80.10407640085657,100.11149165673103 95.10407640085657,96.23437546844428 95.10407640085657,93.97377733326886 80.10407640085657,90.09666114498208" />
<polygon fill="rgba(255,255,255,0.75)" stroke-width="1" stroke-dasharray="" stroke="black" points="95.11407640085656,110.10407640085657 95.11407640085656,96.21179072431875 80.10407640085657,100.09149165673105 80.10407640085657,90.11666114498209 95.11407640085656,93.99636207739437 95.11407640085656,80.10407640085657 95.11407640085656,80.10407640085657 465.0940764008566,80.10407640085654 465.0940764008566,93.99636207739434 480.10407640085657,90.11666114498206 480.10407640085657,90.11666114498206 480.10407640085657,100.09149165673101 480.10407640085657,100.09149165673101 465.0940764008566,96.21179072431872 465.0940764008566,110.10407640085654 95.11407640085656,110.10407640085657" />
<polygon fill="none" stroke-width="1" stroke-dasharray="2" stroke="gray" points="465.10407640085657,93.97377733326883 465.10407640085657,96.23437546844426 480.10407640085657,100.111491656731 480.10407640085657,90.09666114498206 465.10407640085657,93.97377733326883" />
<polygon fill="none" stroke-width="1" stroke-dasharray="2" stroke="gray" points="20.00000000000001,40.01000000000003 20.00000000000001,50.00000000000003 90.71067811865478,120.71067811865477 90.71067811865478,110.72067811865477 90.71067811865478,110.72067811865477 80.0970053330447,100.1070053330447 80.0970053330447,90.0870053330447 90.71067811865478,100.70067811865476 90.71067811865478,90.71067811865477 20.00000000000001,20.00000000000003 20.00000000000001,29.99000000000003 30.6136727856101,40.603672785610115 30.6136727856101,50.62367278561012 20.00000000000001,40.01000000000003" />
<polygon fill="none" stroke-width="1" stroke-dasharray="2" stroke="gray" points="105.71067811865478,90.71067811865477 35.000000000000014,20.00000000000003 20.00000000000001,20.00000000000003 90.71067811865478,90.71067811865477" />
<polygon fill="rgba(192,192,192,0.75)" stroke-width="1" stroke-dasharray="" stroke="black" points="90.71067811865478,120.71067811865477 20.00000000000001,50.00000000000003 35.000000000000014,50.00000000000003 105.71067811865478,120.71067811865477" />
<polygon fill="rgba(255,255,255,0.75)" stroke-width="1" stroke-dasharray="" stroke="black" points="35.000000000000014,33.87228567653784 35.000000000000014,20.00000000000003 105.71067811865478,90.71067811865477 105.71067811865478,104.58296379519258 105.71067811865478,104.58296379519258 95.0970053330447,93.96929100958252 95.0970053330447,96.22471965650689 105.71067811865478,106.83839244211696 105.71067811865478,120.71067811865477 35.000000000000014,50.00000000000003 35.000000000000014,36.127714323462214 45.61367278561009,46.74138710907229 45.61367278561009,44.48595846214792 35.000000000000014,33.87228567653784" />
<polygon fill="none" stroke-width="1" stroke-dasharray="2" stroke="gray" points="475.71067811865476,104.58296379519255 475.71067811865476,90.71067811865474 405.0,20.0 405.0,33.872285676537814 405.0,33.872285676537814 415.6136727856101,44.48595846214789 415.6136727856101,46.741387109072264 405.0,36.127714323462186 405.0,50.0 475.71067811865476,120.71067811865474 475.71067811865476,106.83839244211693 465.09700533304465,96.22471965650685 465.09700533304465,93.96929100958248 475.71067811865476,104.58296379519255" />
<polygon fill="none" stroke-width="1" stroke-dasharray="2" stroke="gray" points="405.0,20.0 475.71067811865476,90.71067811865474 490.71067811865476,90.71067811865474 420.0,20.0" />
<polygon fill="rgba(192,192,192,0.75)" stroke-width="1" stroke-dasharray="" stroke="black" points="420.0,50.0 490.71067811865476,120.71067811865474 475.71067811865476,120.71067811865474 405.0,50.0" />
<polygon fill="rgba(255,255,255,0.75)" stroke-width="1" stroke-dasharray="" stroke="black" points="490.71067811865476,110.72067811865475 490.71067811865476,120.71067811865474 420.0,50.0 420.0,40.010000000000005 420.0,40.010000000000005 430.6136727856101,50.62367278561008 430.6136727856101,40.60367278561008 420.0,29.990000000000002 420.0,20.0 490.71067811865476,90.71067811865474 490.71067811865476,100.70067811865474 480.09700533304465,90.08700533304466 480.09700533304465,100.10700533304467 490.71067811865476,110.72067811865475" />
<polygon fill="rgba(255,255,255,0.75)" stroke-width="1" stroke-dasharray="" stroke="black" points="45.60660171779823,44.47630265021053 45.60660171779823,46.736900785385956 30.606601717798227,50.61401697367272 30.606601717798227,40.599186461923765 45.60660171779823,44.47630265021053" />
<polygon fill="none" stroke-width="1" stroke-dasharray="2" stroke="gray" points="415.5966017177982,60.60660171779821 415.5966017177982,46.7143160412604 430.6066017177982,50.594016973672694 430.6066017177982,40.61918646192373 415.5966017177982,44.49888739433602 415.5966017177982,30.606601717798213 415.5966017177982,30.606601717798213 45.61660171779815,30.606601717798213 45.61660171779821,44.49888739433602 30.606601717798213,40.61918646192374 30.606601717798213,40.61918646192374 30.606601717798213,50.59401697367269 30.606601717798213,50.59401697367269 45.61660171779821,46.7143160412604 45.61660171779821,60.60660171779821 415.5966017177982,60.60660171779821" />
<polygon fill="rgba(255,255,255,0.75)" stroke-width="1" stroke-dasharray="" stroke="black" points="430.6066017177982,40.599186461923736 430.6066017177982,50.61401697367269 415.60660171779824,46.73690078538593 415.60660171779824,44.4763026502105 430.6066017177982,40.599186461923736" />
<polygon fill="rgba(192,192,192,0.75)" stroke-width="1" stroke-dasharray="" stroke="silver" points="35.000000000000014,33.88228567653784 45.60660171779823,44.488887394336054 30.606601717798227,40.60660171779824 20.00000000000001,30.00000000000003" />
<polygon fill="none" stroke-width="1" stroke-dasharray="2" stroke="gray" points="20.00000000000001,40.00000000000003 30.606601717798227,50.60660171779824 45.60660171779823,46.72431604126043 35.000000000000014,36.117714323462216" />
<polygon fill="rgba(255,255,255,0.75)" stroke-width="1" stroke-dasharray="" stroke="black" points="420.0,30.0 430.6066017177982,40.60660171779821 415.60660171779824,44.488887394336025 405.0,33.88228567653781" />
<polygon fill="none" stroke-width="1" stroke-dasharray="2" stroke="gray" points="405.0,36.11771432346219 415.60660171779824,46.7243160412604 430.6066017177982,50.60660171779821 420.0,40.0" />
<polygon fill="none" stroke-width="1" stroke-dasharray="2" stroke="gray" points="20.0,29.990000000000002 20.0,40.010000000000005 30.606601717798213,50.61660171779822 30.606601717798213,40.596601717798215 20.0,29.990000000000002" />
<polygon fill="none" stroke-width="1" stroke-dasharray="2" stroke="gray" points="30.606601717798213,40.60660171779821 45.60660171779821,44.488887394336025 35.0,33.88228567653781 20.0,30.0" />
<polygon fill="rgba(255,255,255,0.75)" stroke-width="1" stroke-dasharray="" stroke="black" points="20.0,40.0 35.0,36.11771432346219 45.60660171779821,46.7243160412604 30.606601717798213,50.60660171779821" />
<polygon fill="none" stroke-width="1" stroke-dasharray="2" stroke="gray" points="35.0,33.89228567653781 45.60660171779821,44.49888739433602 45.60660171779821,30.606601717798213 35.0,20.0 35.0,33.89228567653781" />
<polygon fill="none" stroke-width="1" stroke-dasharray="2" stroke="gray" points="35.0,36.10771432346219 35.0,50.0 45.60660171779821,60.60660171779821 45.60660171779821,46.7143160412604 35.0,36.10771432346219" />
<polygon fill="none" stroke-width="1" stroke-dasharray="2" stroke="gray" points="404.99000000000007,20.0 35.01,20.0 35.01,20.0 45.616601717798204,30.606601717798213 415.5966017177982,30.606601717798213 404.99000000000007,20.0" />
<polygon fill="rgba(192,192,192,0.75)" stroke-width="1" stroke-dasharray="" stroke="black" points="404.99000000000007,50.0 415.5966017177982,60.60660171779821 45.616601717798204,60.60660171779821 35.01,50.0 35.01,50.0 404.99000000000007,50.0" />
<polygon fill="rgba(255,255,255,0.75)" stroke-width="1" stroke-dasharray="" stroke="black" points="415.6066017177982,44.49888739433602 405.0,33.89228567653781 405.0,20.0 415.6066017177982,30.606601717798213 415.6066017177982,44.49888739433602" />
<polygon fill="rgba(255,255,255,0.75)" stroke-width="1" stroke-dasharray="" stroke="black" points="415.6066017177982,46.7143160412604 415.6066017177982,60.60660171779821 405.0,50.0 405.0,36.10771432346219 415.6066017177982,46.7143160412604" />
<polygon fill="none" stroke-width="1" stroke-dasharray="2" stroke="gray" points="420.0,30.0 405.0,33.88228567653781 415.6066017177982,44.488887394336025 430.6066017177982,40.60660171779821" />
<polygon fill="rgba(192,192,192,0.75)" stroke-width="1" stroke-dasharray="" stroke="silver" points="430.6066017177982,50.60660171779821 415.6066017177982,46.7243160412604 405.0,36.11771432346219 420.0,40.0" />
<polygon fill="rgba(255,255,255,0.75)" stroke-width="1" stroke-dasharray="" stroke="black" points="430.6066017177982,40.596601717798215 430.6066017177982,50.61660171779822 420.0,40.010000000000005 420.0,29.990000000000002 430.6066017177982,40.596601717798215" />
<polygon fill="rgba(255,255,255,0.75)" stroke-width="1" stroke-dasharray="" stroke="black" points="35.000000000000014,33.88970093241232 20.00000000000001,30.01258474412555 20.00000000000001,20.00000000000003 35.000000000000014,20.00000000000003 35.000000000000014,33.88970093241232" />
<polygon fill="rgba(255,255,255,0.75)" stroke-width="1" stroke-dasharray="" stroke="black" points="35.000000000000014,36.11029906758774 35.000000000000014,50.00000000000003 20.00000000000001,50.00000000000003 20.00000000000001,39.9874152558745 35.000000000000014,36.11029906758774" />
<polygon fill="rgba(255,255,255,0.75)" stroke-width="1" stroke-dasharray="" stroke="black" points="420.0,30.012584744125526 405.0,33.88970093241229 405.0,20.0 420.0,20.0 420.0,30.012584744125526" />
<polygon fill="rgba(255,255,255,0.75)" stroke-width="1" stroke-dasharray="" stroke="black" points="420.0,39.98741525587448 420.0,50.0 405.0,50.0 405.0,36.11029906758771 420.0,39.98741525587448" />
<polygon fill="rgba(255,255,255,0.75)" stroke-width="1" stroke-dasharray="" stroke="black" points="420.0,39.98741525587448 404.99,36.10771432346219 404.99,50.0 35.00999999999999,50.0 35.00999999999999,50.0 35.01,36.10771432346219 20.0,39.987415255874474 20.0,30.012584744125522 35.01,33.89228567653781 35.010000000000005,20.0 35.010000000000005,20.0 404.99,20.0 404.99,33.89228567653781 420.0,30.01258474412552 420.0,30.01258474412552 420.0,39.98741525587448" />
</svg>
