<svg width="1000" viewBox="0 0 1000 963.4852813742385" xmlns="http://www.w3.org/2000/svg">
<polygon fill="none" stroke-width="1" stroke-dasharray="2" stroke="gray" points="18.48528137423857,18.485281374238568 18.48528137423857,198.48528137423858 808.4852813742385,198.48528137423858 808.4852813742385,18.485281374238568" />
<polygon fill="none" stroke-width="1" stroke-dasharray="2" stroke="gray" points="10.0,10.0 10.0,190.0 18.48528137423857,198.48528137423858 18.48528137423857,18.485281374238568" />
<polygon fill="none" stroke-width="1" stroke-dasharray="2" stroke="gray" points="18.48528137423857,18.485281374238568 808.4852813742385,18.485281374238568 800.0,10.0 10.0,10.0" />
<polygon fill="rgba(192,192,192,0.75)" stroke-width="1" stroke-dasharray="" stroke="black" points="10.0,190.0 800.0,190.0 808.4852813742385,198.48528137423858 18.48528137423857,198.48528137423858" />
<polygon fill="rgba(255,255,255,0.75)" stroke-width="1" stroke-dasharray="" stroke="black" points="808.4852813742385,18.485281374238568 808.4852813742385,198.48528137423858 800.0,190.0 800.0,10.0" />
<polygon fill="rgba(255,255,255,0.75)" stroke-width="1" stroke-dasharray="" stroke="black" points="10.0,10.0 800.0,10.0 800.0,190.0 10.0,190.0" />
<polygon fill="none" stroke-width="1" stroke-dasharray="2" stroke="gray" points="20.606601717798213,224.6066017177982 20.606601717798213,359.6066017177982 760.6066017177982,359.6066017177982 760.6066017177982,224.6066017177982" />
<polygon fill="none" stroke-width="1" stroke-dasharray="2" stroke="gray" points="10.0,214.0 10.0,349.0 20.606601717798213,359.6066017177982 20.606601717798213,224.6066017177982" />
<polygon fill="none" stroke-width="1" stroke-dasharray="2" stroke="gray" points="20.606601717798213,224.6066017177982 760.6066017177982,224.6066017177982 750.0,214.0 10.0,214.0" />
<polygon fill="rgba(192,192,192,0.75)" stroke-width="1" stroke-dasharray="" stroke="black" points="10.0,349.0 750.0,349.0 760.6066017177982,359.6066017177982 20.606601717798213,359.6066017177982" />
<polygon fill="rgba(255,255,255,0.75)" stroke-width="1" stroke-dasharray="" stroke="black" points="760.6066017177982,224.6066017177982 760.6066017177982,359.6066017177982 750.0,349.0 750.0,214.0" />
<polygon fill="rgba(255,255,255,0.75)" stroke-width="1" stroke-dasharray="" stroke="black" points="10.0,214.0 750.0,214.0 750.0,349.0 10.0,349.0" />
<polygon fill="none" stroke-width="1" stroke-dasharray="2" stroke="gray" points="23.435028842544405,392.4350288425444 23.435028842544405,557.4350288425444 423.4350288425444,557.4350288425444 423.4350288425444,392.4350288425444" />
<polygon fill="none" stroke-width="1" stroke-dasharray="2" stroke="gray" points="10.0,379.0 10.0,544.0 23.435028842544405,557.4350288425444 23.435028842544405,392.4350288425444" />
<polygon fill="none" stroke-width="1" stroke-dasharray="2" stroke="gray" points="23.435028842544405,392.4350288425444 423.4350288425444,392.4350288425444 410.0,379.0 10.0,379.0" />
<polygon fill="rgba(192,192,192,0.75)" stroke-width="1" stroke-dasharray="" stroke="black" points="10.0,544.0 410.0,544.0 423.4350288425444,557.4350288425444 23.435028842544405,557.4350288425444" />
<polygon fill="rgba(255,255,255,0.75)" stroke-width="1" stroke-dasharray="" stroke="black" points="423.4350288425444,392.4350288425444 423.4350288425444,557.4350288425444 410.0,544.0 410.0,379.0" />
<polygon fill="rgba(255,255,255,0.75)" stroke-width="1" stroke-dasharray="" stroke="black" points="10.0,379.0 410.0,379.0 410.0,544.0 10.0,544.0" />
<polygon fill="none" stroke-width="1" stroke-dasharray="2" stroke="gray" points="20.606601717798213,592.6066017177982 20.606601717798213,777.6066017177982 410.6066017177982,777.6066017177982 410.6066017177982,592.6066017177982" />
<polygon fill="none" stroke-width="1" stroke-dasharray="2" stroke="gray" points="10.0,582.0 10.0,767.0 20.606601717798213,777.6066017177982 20.606601717798213,592.6066017177982" />
<polygon fill="none" stroke-width="1" stroke-dasharray="2" stroke="gray" points="20.606601717798213,592.6066017177982 410.6066017177982,592.6066017177982 400.0,582.0 10.0,582.0" />
<polygon fill="rgba(192,192,192,0.75)" stroke-width="1" stroke-dasharray="" stroke="black" points="10.0,767.0 400.0,767.0 410.6066017177982,777.6066017177982 20.606601717798213,777.6066017177982" />
<polygon fill="rgba(255,255,255,0.75)" stroke-width="1" stroke-dasharray="" stroke="black" points="410.6066017177982,592.6066017177982 410.6066017177982,777.6066017177982 400.0,767.0 400.0,582.0" />
<polygon fill="rgba(255,255,255,0.75)" stroke-width="1" stroke-dasharray="" stroke="black" points="10.0,582.0 400.0,582.0 400.0,767.0 10.0,767.0" />
<polygon fill="none" stroke-width="1" stroke-dasharray="2" stroke="gray" points="23.435028842544405,810.4350288425444 23.435028842544405,875.4350288425444 743.4350288425444,875.4350288425444 743.4350288425444,810.4350288425444" />
<polygon fill="none" stroke-width="1" stroke-dasharray="2" stroke="gray" points="10.0,797.0 10.0,862.0 23.435028842544405,875.4350288425444 23.435028842544405,810.4350288425444" />
<polygon fill="none" stroke-width="1" stroke-dasharray="2" stroke="gray" points="23.435028842544405,810.4350288425444 743.4350288425444,810.4350288425444 730.0,797.0 10.0,797.0" />
<polygon fill="rgba(192,192,192,0.75)" stroke-width="1" stroke-dasharray="" stroke="black" points="10.0,862.0 730.0,862.0 743.4350288425444,875.4350288425444 23.435028842544405,875.4350288425444" />
<polygon fill="rgba(255,255,255,0.75)" stroke-width="1" stroke-dasharray="" stroke="black" points="743.4350288425444,810.4350288425444 743.4350288425444,875.4350288425444 730.0,862.0 730.0,797.0" />
<polygon fill="rgba(255,255,255,0.75)" stroke-width="1" stroke-dasharray="" stroke="black" points="10.0,797.0 730.0,797.0 730.0,862.0 10.0,862.0" />
<polygon fill="none" stroke-width="1" stroke-dasharray="2" stroke="gray" points="18.48528137423857,908.4852813742385 18.48528137423857,953.4852813742385 768.4852813742385,953.4852813742385 768.4852813742385,908.4852813742385" />
<polygon fill="none" stroke-width="1" stroke-dasharray="2" stroke="gray" points="10.0,900.0 10.0,945.0 18.48528137423857,953.4852813742385 18.48528137423857,908.4852813742385" />
<polygon fill="none" stroke-width="1" stroke-dasharray="2" stroke="gray" points="18.48528137423857,908.4852813742385 768.4852813742385,908.4852813742385 760.0,900.0 10.0,900.0" />
<polygon fill="rgba(192,192,192,0.75)" stroke-width="1" stroke-dasharray="" stroke="black" points="10.0,945.0 760.0,945.0 768.4852813742385,953.4852813742385 18.48528137423857,953.4852813742385" />
<polygon fill="rgba(255,255,255,0.75)" stroke-width="1" stroke-dasharray="" stroke="black" points="768.4852813742385,908.4852813742385 768.4852813742385,953.4852813742385 760.0,945.0 760.0,900.0" />
<polygon fill="rgba(255,255,255,0.75)" stroke-width="1" stroke-dasharray="" stroke="black" points="10.0,900.0 760.0,900.0 760.0,945.0 10.0,945.0" />
<polygon fill="none" stroke-width="1" stroke-dasharray="2" stroke="gray" points="38.48528137423857,38.48528137423857 38.48528137423857,218.48528137423858 828.4852813742385,218.48528137423858 828.4852813742385,38.48528137423857" />
<polygon fill="none" stroke-width="1" stroke-dasharray="2" stroke="gray" points="30.0,30.0 30.0,210.0 38.48528137423857,218.48528137423858 38.48528137423857,38.48528137423857" />
<polygon fill="none" stroke-width="1" stroke-dasharray="2" stroke="gray" points="38.48528137423857,38.48528137423857 828.4852813742385,38.48528137423857 820.0,30.0 30.0,30.0" />
<polygon fill="rgba(192,192,192,0.75)" stroke-width="1" stroke-dasharray="" stroke="black" points="30.0,210.0 820.0,210.0 828.4852813742385,218.48528137423858 38.48528137423857,218.48528137423858" />
<polygon fill="rgba(255,255,255,0.75)" stroke-width="1" stroke-dasharray="" stroke="black" points="828.4852813742385,38.48528137423857 828.4852813742385,218.48528137423858 820.0,210.0 820.0,30.0" />
<polygon fill="rgba(255,255,255,0.75)" stroke-width="1" stroke-dasharray="" stroke="black" points="30.0,30.0 820.0,30.0 820.0,210.0 30.0,210.0" />
<polygon fill="none" stroke-width="1" stroke-dasharray="2" stroke="gray" points="40.60660171779821,244.6066017177982 40.60660171779821,379.6066017177982 780.6066017177982,379.6066017177982 780.6066017177982,244.6066017177982" />
<polygon fill="none" stroke-width="1" stroke-dasharray="2" stroke="gray" points="30.0,234.0 30.0,369.0 40.60660171779821,379.6066017177982 40.60660171779821,244.6066017177982" />
<polygon fill="none" stroke-width="1" stroke-dasharray="2" stroke="gray" points="40.60660171779821,244.6066017177982 780.6066017177982,244.6066017177982 770.0,234.0 30.0,234.0" />
<polygon fill="rgba(192,192,192,0.75)" stroke-width="1" stroke-dasharray="" stroke="black" points="30.0,369.0 770.0,369.0 780.6066017177982,379.6066017177982 40.60660171779821,379.6066017177982" />
<polygon fill="rgba(255,255,255,0.75)" stroke-width="1" stroke-dasharray="" stroke="black" points="780.6066017177982,244.6066017177982 780.6066017177982,379.6066017177982 770.0,369.0 770.0,234.0" />
<polygon fill="rgba(255,255,255,0.75)" stroke-width="1" stroke-dasharray="" stroke="black" points="30.0,234.0 770.0,234.0 770.0,369.0 30.0,369.0" />
<polygon fill="none" stroke-width="1" stroke-dasharray="2" stroke="gray" points="43.435028842544405,412.4350288425444 43.435028842544405,577.4350288425444 443.4350288425444,577.4350288425444 443.4350288425444,412.4350288425444" />
<polygon fill="none" stroke-width="1" stroke-dasharray="2" stroke="gray" points="30.0,399.0 30.0,564.0 43.435028842544405,577.4350288425444 43.435028842544405,412.4350288425444" />
<polygon fill="none" stroke-width="1" stroke-dasharray="2" stroke="gray" points="43.435028842544405,412.4350288425444 443.4350288425444,412.4350288425444 430.0,399.0 30.0,399.0" />
<polygon fill="rgba(192,192,192,0.75)" stroke-width="1" stroke-dasharray="" stroke="black" points="30.0,564.0 430.0,564.0 443.4350288425444,577.4350288425444 43.435028842544405,577.4350288425444" />
<polygon fill="rgba(255,255,255,0.75)" stroke-width="1" stroke-dasharray="" stroke="black" points="443.4350288425444,412.4350288425444 443.4350288425444,577.4350288425444 430.0,564.0 430.0,399.0" />
<polygon fill="rgba(255,255,255,0.75)" stroke-width="1" stroke-dasharray="" stroke="black" points="30.0,399.0 430.0,399.0 430.0,564.0 30.0,564.0" />
<polygon fill="none" stroke-width="1" stroke-dasharray="2" stroke="gray" points="40.60660171779821,612.6066017177982 40.60660171779821,797.6066017177982 430.6066017177982,797.6066017177982 430.6066017177982,612.6066017177982" />
<polygon fill="none" stroke-width="1" stroke-dasharray="2" stroke="gray" points="30.0,602.0 30.0,787.0 40.60660171779821,797.6066017177982 40.60660171779821,612.6066017177982" />
<polygon fill="none" stroke-width="1" stroke-dasharray="2" stroke="gray" points="40.60660171779821,612.6066017177982 430.6066017177982,612.6066017177982 420.0,602.0 30.0,602.0" />
<polygon fill="rgba(192,192,192,0.75)" stroke-width="1" stroke-dasharray="" stroke="black" points="30.0,787.0 420.0,787.0 430.6066017177982,797.6066017177982 40.60660171779821,797.6066017177982" />
<polygon fill="rgba(255,255,255,0.75)" stroke-width="1" stroke-dasharray="" stroke="black" points="430.6066017177982,612.6066017177982 430.6066017177982,797.6066017177982 420.0,787.0 420.0,602.0" />
<polygon fill="rgba(255,255,255,0.75)" stroke-width="1" stroke-dasharray="" stroke="black" points="30.0,602.0 420.0,602.0 420.0,787.0 30.0,787.0" />
<polygon fill="none" stroke-width="1" stroke-dasharray="2" stroke="gray" points="43.435028842544405,830.4350288425444 43.435028842544405,895.4350288425444 763.4350288425444,895.4350288425444 763.4350288425444,830.4350288425444" />
<polygon fill="none" stroke-width="1" stroke-dasharray="2" stroke="gray" points="30.0,817.0 30.0,882.0 43.435028842544405,895.4350288425444 43.435028842544405,830.4350288425444" />
<polygon fill="none" stroke-width="1" stroke-dasharray="2" stroke="gray" points="43.435028842544405,830.4350288425444 763.4350288425444,830.4350288425444 750.0,817.0 30.0,817.0" />
<polygon fill="rgba(192,192,192,0.75)" stroke-width="1" stroke-dasharray="" stroke="black" points="30.0,882.0 750.0,882.0 763.4350288425444,895.4350288425444 43.435028842544405,895.4350288425444" />
<polygon fill="rgba(255,255,255,0.75)" stroke-width="1" stroke-dasharray="" stroke="black" points="763.4350288425444,830.4350288425444 763.4350288425444,895.4350288425444 750.0,882.0 750.0,817.0" />
<polygon fill="rgba(255,255,255,0.75)" stroke-width="1" stroke-dasharray="" stroke="black" points="30.0,817.0 750.0,817.0 750.0,882.0 30.0,882.0" />
<polygon fill="none" stroke-width="1" stroke-dasharray="2" stroke="gray" points="58.48528137423857,58.48528137423857 58.48528137423857,238.48528137423858 848.4852813742385,238.48528137423858 848.4852813742385,58.48528137423857" />
<polygon fill="none" stroke-width="1" stroke-dasharray="2" stroke="gray" points="50.0,50.0 50.0,230.0 58.48528137423857,238.48528137423858 58.48528137423857,58.48528137423857" />
<polygon fill="none" stroke-width="1" stroke-dasharray="2" stroke="gray" points="58.48528137423857,58.48528137423857 848.4852813742385,58.48528137423857 840.0,50.0 50.0,50.0" />
<polygon fill="rgba(192,192,192,0.75)" stroke-width="1" stroke-dasharray="" stroke="black" points="50.0,230.0 840.0,230.0 848.4852813742385,238.48528137423858 58.48528137423857,238.48528137423858" />
<polygon fill="rgba(255,255,255,0.75)" stroke-width="1" stroke-dasharray="" stroke="black" points="848.4852813742385,58.48528137423857 848.4852813742385,238.48528137423858 840.0,230.0 840.0,50.0" />
<polygon fill="rgba(255,255,255,0.75)" stroke-width="1" stroke-dasharray="" stroke="black" points="50.0,50.0 840.0,50.0 840.0,230.0 50.0,230.0" />
<polygon fill="none" stroke-width="1" stroke-dasharray="2" stroke="gray" points="60.60660171779821,264.6066017177982 60.60660171779821,399.6066017177982 800.6066017177982,399.6066017177982 800.6066017177982,264.6066017177982" />
<polygon fill="none" stroke-width="1" stroke-dasharray="2" stroke="gray" points="50.0,254.0 50.0,389.0 60.60660171779821,399.6066017177982 60.60660171779821,264.6066017177982" />
<polygon fill="none" stroke-width="1" stroke-dasharray="2" stroke="gray" points="60.60660171779821,264.6066017177982 800.6066017177982,264.6066017177982 790.0,254.0 50.0,254.0" />
<polygon fill="rgba(192,192,192,0.75)" stroke-width="1" stroke-dasharray="" stroke="black" points="50.0,389.0 790.0,389.0 800.6066017177982,399.6066017177982 60.60660171779821,399.6066017177982" />
<polygon fill="rgba(255,255,255,0.75)" stroke-width="1" stroke-dasharray="" stroke="black" points="800.6066017177982,264.6066017177982 800.6066017177982,399.6066017177982 790.0,389.0 790.0,254.0" />
<polygon fill="rgba(255,255,255,0.75)" stroke-width="1" stroke-dasharray="" stroke="black" points="50.0,254.0 790.0,254.0 790.0,389.0 50.0,389.0" />
<polygon fill="none" stroke-width="1" stroke-dasharray="2" stroke="gray" points="63.435028842544405,432.4350288425444 63.435028842544405,597.4350288425444 463.4350288425444,597.4350288425444 463.4350288425444,432.4350288425444" />
<polygon fill="none" stroke-width="1" stroke-dasharray="2" stroke="gray" points="50.0,419.0 50.0,584.0 63.435028842544405,597.4350288425444 63.435028842544405,432.4350288425444" />
<polygon fill="none" stroke-width="1" stroke-dasharray="2" stroke="gray" points="63.435028842544405,432.4350288425444 463.4350288425444,432.4350288425444 450.0,419.0 50.0,419.0" />
<polygon fill="rgba(192,192,192,0.75)" stroke-width="1" stroke-dasharray="" stroke="black" points="50.0,584.0 450.0,584.0 463.4350288425444,597.4350288425444 63.435028842544405,597.4350288425444" />
<polygon fill="rgba(255,255,255,0.75)" stroke-width="1" stroke-dasharray="" stroke="black" points="463.4350288425444,432.4350288425444 463.4350288425444,597.4350288425444 450.0,584.0 450.0,419.0" />
<polygon fill="rgba(255,255,255,0.75)" stroke-width="1" stroke-dasharray="" stroke="black" points="50.0,419.0 450.0,419.0 450.0,584.0 50.0,584.0" />
</svg>
