<svg width="1100" viewBox="0.0 -67.0 550.0 202.0" xmlns="http://www.w3.org/2000/svg">
<polygon fill="none" stroke-width="1" stroke-dasharray="" stroke="black" points="224.0,50.0 224.0,53.1 224.0,20.0 224.0,20.0 224.0,50.0" />
<polygon fill="none" stroke-width="1" stroke-dasharray="" stroke="black" points="224.0,68.5 224.0,83.5 224.0,86.6 224.0,65.4 224.0,68.5" />
<polygon fill="none" stroke-width="1" stroke-dasharray="" stroke="black" points="224.0,102.0 224.0,132.0 224.0,132.0 224.0,125.0 224.0,125.0 224.0,120.0 224.0,120.0 224.0,98.9 224.0,102.0" />
<polygon fill="none" stroke-width="1" stroke-dasharray="" stroke="black" points="224.0,102.0 224.0,98.9 224.0,132.0 224.0,132.0 224.0,98.9 224.0,102.0 224.0,102.0 224.0,83.5 224.0,83.5 224.0,86.6 224.0,65.4 224.0,68.5 224.0,50.0 224.0,53.1 224.0,20.0 224.0,20.0 224.0,20.0 224.0,20.0 224.0,53.1 224.0,50.0 224.0,68.5 224.0,65.4 224.0,86.6 224.0,83.5 224.0,83.5 224.0,102.0" />
<polygon fill="none" stroke-width="1" stroke-dasharray="" stroke="black" points="224.0,120.0 224.0,135.0 224.0,135.0 224.0,120.0" />
<polygon fill="none" stroke-width="1" stroke-dasharray="" stroke="black" points="224.0,53.1 224.0,50.0 224.0,20.0 224.0,20.0 224.0,53.1" />
<polygon fill="none" stroke-width="1" stroke-dasharray="" stroke="black" points="224.0,65.4 224.0,86.6 224.0,83.5 224.0,68.5 224.0,65.4" />
<polygon fill="none" stroke-width="1" stroke-dasharray="" stroke="black" points="224.0,98.9 224.0,120.0 224.0,120.0 224.0,125.0 224.0,125.0 224.0,132.0 224.0,132.0 224.0,102.0 224.0,98.9" />
<polygon fill="none" stroke-width="1" stroke-dasharray="" stroke="black" points="212.0,50.0 212.0,68.5 224.0,68.5 224.0,50.0 212.0,50.0" />
<polygon fill="none" stroke-width="1" stroke-dasharray="" stroke="black" points="212.0,83.5 212.0,102.0 224.0,102.0 224.0,83.5 212.0,83.5" />
<polygon fill="none" stroke-width="1" stroke-dasharray="" stroke="black" points="224.0,50.0 224.0,53.1 212.0,53.1 212.0,50.0" />
<polygon fill="none" stroke-width="1" stroke-dasharray="" stroke="black" points="224.0,50.0 212.0,50.0 212.0,53.1 224.0,53.1" />
<polygon fill="none" stroke-width="1" stroke-dasharray="" stroke="black" points="212.0,68.5 212.0,65.4 224.0,65.4 224.0,68.5" />
<polygon fill="none" stroke-width="1" stroke-dasharray="" stroke="black" points="224.0,65.4 212.0,65.4 212.0,68.5 224.0,68.5" />
<polygon fill="none" stroke-width="1" stroke-dasharray="" stroke="black" points="224.0,83.5 224.0,86.6 212.0,86.6 212.0,83.5" />
<polygon fill="none" stroke-width="1" stroke-dasharray="" stroke="black" points="224.0,83.5 212.0,83.5 212.0,86.6 224.0,86.6" />
<polygon fill="none" stroke-width="1" stroke-dasharray="" stroke="black" points="212.0,102.0 212.0,98.9 224.0,98.9 224.0,102.0" />
<polygon fill="none" stroke-width="1" stroke-dasharray="" stroke="black" points="224.0,98.9 212.0,98.9 212.0,102.0 224.0,102.0" />
<polygon fill="none" stroke-width="1" stroke-dasharray="" stroke="black" points="212.0,53.1 224.0,53.1 224.0,20.0 212.0,20.0 212.0,53.1" />
<polygon fill="none" stroke-width="1" stroke-dasharray="" stroke="black" points="212.0,65.4 212.0,86.6 224.0,86.6 224.0,65.4 212.0,65.4" />
<polygon fill="none" stroke-width="1" stroke-dasharray="" stroke="black" points="212.0,98.9 212.0,120.0 217.0,120.0 217.0,125.0 212.0,125.0 212.0,132.0 224.0,132.0 224.0,98.9 212.0,98.9" />
<polygon fill="none" stroke-width="1" stroke-dasharray="" stroke="black" points="224.0,20.0 224.0,20.0 224.0,20.0 212.0,20.0 212.0,20.0 224.0,20.0" />
<polygon fill="none" stroke-width="1" stroke-dasharray="" stroke="black" points="224.0,132.0 212.0,132.0 212.0,132.0 224.0,132.0 224.0,132.0 224.0,132.0" />
<polygon fill="none" stroke-width="1" stroke-dasharray="" stroke="black" points="224.0,53.1 212.0,53.1 212.0,20.0 224.0,20.0 224.0,53.1" />
<polygon fill="none" stroke-width="1" stroke-dasharray="" stroke="black" points="224.0,65.4 224.0,86.6 212.0,86.6 212.0,65.4 224.0,65.4" />
<polygon fill="none" stroke-width="1" stroke-dasharray="" stroke="black" points="224.0,98.9 224.0,132.0 212.0,132.0 212.0,125.0 217.0,125.0 217.0,120.0 212.0,120.0 212.0,98.9 224.0,98.9" />
<polygon fill="none" stroke-width="1" stroke-dasharray="" stroke="black" points="224.0,53.1 212.0,53.1 212.0,50.0 224.0,50.0" />
<polygon fill="none" stroke-width="1" stroke-dasharray="" stroke="black" points="212.0,50.0 212.0,53.1 224.0,53.1 224.0,50.0" />
<polygon fill="none" stroke-width="1" stroke-dasharray="" stroke="black" points="224.0,68.5 212.0,68.5 212.0,65.4 224.0,65.4" />
<polygon fill="none" stroke-width="1" stroke-dasharray="" stroke="black" points="224.0,68.5 224.0,65.4 212.0,65.4 212.0,68.5" />
<polygon fill="none" stroke-width="1" stroke-dasharray="" stroke="black" points="224.0,86.6 212.0,86.6 212.0,83.5 224.0,83.5" />
<polygon fill="none" stroke-width="1" stroke-dasharray="" stroke="black" points="212.0,83.5 212.0,86.6 224.0,86.6 224.0,83.5" />
<polygon fill="none" stroke-width="1" stroke-dasharray="" stroke="black" points="224.0,102.0 212.0,102.0 212.0,98.9 224.0,98.9" />
<polygon fill="none" stroke-width="1" stroke-dasharray="" stroke="black" points="224.0,102.0 224.0,98.9 212.0,98.9 212.0,102.0" />
<polygon fill="none" stroke-width="1" stroke-dasharray="" stroke="black" points="224.0,50.0 224.0,68.5 212.0,68.5 212.0,50.0 224.0,50.0" />
<polygon fill="none" stroke-width="1" stroke-dasharray="" stroke="black" points="224.0,83.5 224.0,102.0 212.0,102.0 212.0,83.5 224.0,83.5" />
<polygon fill="none" stroke-width="1" stroke-dasharray="" stroke="black" points="217.0,120.0 212.0,120.0 212.0,120.0 217.0,120.0 217.0,120.0 217.0,120.0" />
<polygon fill="none" stroke-width="1" stroke-dasharray="" stroke="black" points="217.0,125.0 217.0,125.0 217.0,125.0 212.0,125.0 212.0,125.0 217.0,125.0" />
<polygon fill="none" stroke-width="1" stroke-dasharray="" stroke="black" points="212.0,50.0 212.0,68.5 212.0,65.4 212.0,53.1 212.0,50.0" />
<polygon fill="none" stroke-width="1" stroke-dasharray="" stroke="black" points="212.0,83.5 212.0,102.0 212.0,98.9 212.0,86.6 212.0,83.5" />
<polygon fill="none" stroke-width="1" stroke-dasharray="" stroke="black" points="212.0,-42.0 212.0,-38.9 212.0,-52.0 212.0,-52.0 212.0,-42.0" />
<polygon fill="none" stroke-width="1" stroke-dasharray="" stroke="black" points="212.0,-12.5 212.0,-7.5 212.0,-4.4 212.0,-15.6 212.0,-12.5" />
<polygon fill="none" stroke-width="1" stroke-dasharray="" stroke="black" points="212.0,22.0 212.0,32.0 212.0,32.0 212.0,18.9 212.0,22.0" />
<polygon fill="none" stroke-width="1" stroke-dasharray="" stroke="black" points="212.0,47.0 212.0,50.9 212.0,37.0 212.0,37.0 212.0,47.0" />
<polygon fill="none" stroke-width="1" stroke-dasharray="" stroke="black" points="212.0,57.0 212.0,67.0 212.0,67.0 212.0,53.1 212.0,57.0" />
<polygon fill="none" stroke-width="1" stroke-dasharray="" stroke="black" points="212.0,22.0 212.0,18.9 212.0,32.0 212.0,32.0 212.0,18.9 212.0,22.0 212.0,22.0 212.0,-7.5 212.0,-7.5 212.0,-4.4 212.0,-15.6 212.0,-12.5 212.0,-42.0 212.0,-38.9 212.0,-52.0 212.0,-52.0 212.0,-52.0 212.0,-52.0 212.0,-38.9 212.0,-42.0 212.0,-12.5 212.0,-15.6 212.0,-4.4 212.0,-7.5 212.0,-7.5 212.0,22.0" />
<polygon fill="none" stroke-width="1" stroke-dasharray="" stroke="black" points="212.0,57.0 212.0,53.1 212.0,67.0 212.0,67.0 212.0,67.0 212.0,53.1 212.0,57.0 212.0,47.0 212.0,50.9 212.0,37.0 212.0,37.0 212.0,37.0 212.0,50.9 212.0,47.0 212.0,47.0 212.0,57.0" />
<polygon fill="none" stroke-width="1" stroke-dasharray="" stroke="black" points="212.0,120.0 212.0,98.9 212.0,102.0 212.0,83.5 212.0,86.6 212.0,65.4 212.0,68.5 212.0,68.5 212.0,50.0 212.0,50.0 212.0,53.1 212.0,20.0 212.0,20.0 212.0,53.1 212.0,50.0 212.0,50.0 212.0,68.5 212.0,68.5 212.0,65.4 212.0,86.6 212.0,83.5 212.0,102.0 212.0,98.9 212.0,120.0 212.0,120.0 212.0,120.0" />
<polygon fill="none" stroke-width="1" stroke-dasharray="" stroke="black" points="212.0,-64.0 212.0,-52.0 212.0,-52.0 212.0,-64.0" />
<polygon fill="none" stroke-width="1" stroke-dasharray="" stroke="black" points="212.0,-64.0 212.0,-52.0 212.0,-52.0 212.0,-64.0" />
<polygon fill="none" stroke-width="1" stroke-dasharray="" stroke="black" points="212.0,32.0 212.0,35.0 212.0,35.0 212.0,32.0" />
<polygon fill="none" stroke-width="1" stroke-dasharray="" stroke="black" points="212.0,67.0 212.0,70.0 212.0,70.0 212.0,67.0" />
<polygon fill="none" stroke-width="1" stroke-dasharray="" stroke="black" points="212.0,-64.0 212.0,-52.0 212.0,-52.0 212.0,-64.0" />
<polygon fill="none" stroke-width="1" stroke-dasharray="" stroke="black" points="212.0,-67.0 212.0,-52.0 212.0,-52.0 212.0,-67.0" />
<polygon fill="none" stroke-width="1" stroke-dasharray="" stroke="black" points="212.0,-64.0 212.0,-52.0 212.0,-52.0 212.0,-64.0" />
<polygon fill="none" stroke-width="1" stroke-dasharray="" stroke="black" points="212.0,50.9 212.0,47.0 212.0,37.0 212.0,37.0 212.0,50.9" />
<polygon fill="none" stroke-width="1" stroke-dasharray="" stroke="black" points="212.0,53.1 212.0,67.0 212.0,67.0 212.0,57.0 212.0,53.1" />
<polygon fill="none" stroke-width="1" stroke-dasharray="" stroke="black" points="212.0,-38.9 212.0,-42.0 212.0,-52.0 212.0,-52.0 212.0,-38.9" />
<polygon fill="none" stroke-width="1" stroke-dasharray="" stroke="black" points="212.0,-15.6 212.0,-4.4 212.0,-7.5 212.0,-12.5 212.0,-15.6" />
<polygon fill="none" stroke-width="1" stroke-dasharray="" stroke="black" points="212.0,18.9 212.0,32.0 212.0,32.0 212.0,22.0 212.0,18.9" />
<polygon fill="none" stroke-width="1" stroke-dasharray="" stroke="black" points="212.0,53.1 212.0,65.4 212.0,68.5 212.0,50.0 212.0,53.1" />
<polygon fill="none" stroke-width="1" stroke-dasharray="" stroke="black" points="212.0,86.6 212.0,98.9 212.0,102.0 212.0,83.5 212.0,86.6" />
<polygon fill="none" stroke-width="1" stroke-dasharray="" stroke="black" points="200.0,-42.0 200.0,-12.5 212.0,-12.5 212.0,-42.0 200.0,-42.0" />
<polygon fill="none" stroke-width="1" stroke-dasharray="" stroke="black" points="200.0,-7.5 200.0,22.0 212.0,22.0 212.0,-7.5 200.0,-7.5" />
<polygon fill="none" stroke-width="1" stroke-dasharray="" stroke="black" points="212.0,-42.0 212.0,-38.9 200.0,-38.9 200.0,-42.0" />
<polygon fill="none" stroke-width="1" stroke-dasharray="" stroke="black" points="212.0,-42.0 200.0,-42.0 200.0,-38.9 212.0,-38.9" />
<polygon fill="none" stroke-width="1" stroke-dasharray="" stroke="black" points="200.0,-12.5 200.0,-15.6 212.0,-15.6 212.0,-12.5" />
<polygon fill="none" stroke-width="1" stroke-dasharray="" stroke="black" points="212.0,-15.6 200.0,-15.6 200.0,-12.5 212.0,-12.5" />
<polygon fill="none" stroke-width="1" stroke-dasharray="" stroke="black" points="212.0,-7.5 212.0,-4.4 200.0,-4.4 200.0,-7.5" />
<polygon fill="none" stroke-width="1" stroke-dasharray="" stroke="black" points="212.0,-7.5 200.0,-7.5 200.0,-4.4 212.0,-4.4" />
<polygon fill="none" stroke-width="1" stroke-dasharray="" stroke="black" points="200.0,22.0 200.0,18.9 212.0,18.9 212.0,22.0" />
<polygon fill="none" stroke-width="1" stroke-dasharray="" stroke="black" points="212.0,18.9 200.0,18.9 200.0,22.0 212.0,22.0" />
<polygon fill="none" stroke-width="1" stroke-dasharray="" stroke="black" points="200.0,-38.9 212.0,-38.9 212.0,-52.0 200.0,-52.0 200.0,-38.9" />
<polygon fill="none" stroke-width="1" stroke-dasharray="" stroke="black" points="200.0,-15.6 200.0,-4.4 212.0,-4.4 212.0,-15.6 200.0,-15.6" />
<polygon fill="none" stroke-width="1" stroke-dasharray="" stroke="black" points="200.0,18.9 200.0,32.0 212.0,32.0 212.0,18.9 200.0,18.9" />
<polygon fill="none" stroke-width="1" stroke-dasharray="" stroke="black" points="212.0,-52.0 212.0,-52.0 212.0,-52.0 200.0,-52.0 200.0,-52.0 212.0,-52.0" />
<polygon fill="none" stroke-width="1" stroke-dasharray="" stroke="black" points="212.0,32.0 200.0,32.0 200.0,32.0 212.0,32.0 212.0,32.0 212.0,32.0" />
<polygon fill="none" stroke-width="1" stroke-dasharray="" stroke="black" points="212.0,-38.9 200.0,-38.9 200.0,-52.0 212.0,-52.0 212.0,-38.9" />
<polygon fill="none" stroke-width="1" stroke-dasharray="" stroke="black" points="212.0,-15.6 212.0,-4.4 200.0,-4.4 200.0,-15.6 212.0,-15.6" />
<polygon fill="none" stroke-width="1" stroke-dasharray="" stroke="black" points="212.0,18.9 212.0,32.0 200.0,32.0 200.0,18.9 212.0,18.9" />
<polygon fill="none" stroke-width="1" stroke-dasharray="" stroke="black" points="212.0,-38.9 200.0,-38.9 200.0,-42.0 212.0,-42.0" />
<polygon fill="none" stroke-width="1" stroke-dasharray="" stroke="black" points="200.0,-42.0 200.0,-38.9 212.0,-38.9 212.0,-42.0" />
<polygon fill="none" stroke-width="1" stroke-dasharray="" stroke="black" points="212.0,-12.5 200.0,-12.5 200.0,-15.6 212.0,-15.6" />
<polygon fill="none" stroke-width="1" stroke-dasharray="" stroke="black" points="212.0,-12.5 212.0,-15.6 200.0,-15.6 200.0,-12.5" />
<polygon fill="none" stroke-width="1" stroke-dasharray="" stroke="black" points="212.0,-4.4 200.0,-4.4 200.0,-7.5 212.0,-7.5" />
<polygon fill="none" stroke-width="1" stroke-dasharray="" stroke="black" points="200.0,-7.5 200.0,-4.4 212.0,-4.4 212.0,-7.5" />
<polygon fill="none" stroke-width="1" stroke-dasharray="" stroke="black" points="212.0,22.0 200.0,22.0 200.0,18.9 212.0,18.9" />
<polygon fill="none" stroke-width="1" stroke-dasharray="" stroke="black" points="212.0,22.0 212.0,18.9 200.0,18.9 200.0,22.0" />
<polygon fill="none" stroke-width="1" stroke-dasharray="" stroke="black" points="212.0,-42.0 212.0,-12.5 200.0,-12.5 200.0,-42.0 212.0,-42.0" />
<polygon fill="none" stroke-width="1" stroke-dasharray="" stroke="black" points="212.0,-7.5 212.0,22.0 200.0,22.0 200.0,-7.5 212.0,-7.5" />
<polygon fill="none" stroke-width="1" stroke-dasharray="" stroke="black" points="197.0,47.0 197.0,57.0 212.0,57.0 212.0,47.0 197.0,47.0" />
<polygon fill="none" stroke-width="1" stroke-dasharray="" stroke="black" points="212.0,47.0 212.0,50.9 197.0,50.9 197.0,47.0" />
<polygon fill="none" stroke-width="1" stroke-dasharray="" stroke="black" points="212.0,47.0 197.0,47.0 197.0,50.9 212.0,50.9" />
<polygon fill="none" stroke-width="1" stroke-dasharray="" stroke="black" points="197.0,57.0 197.0,53.1 212.0,53.1 212.0,57.0" />
<polygon fill="none" stroke-width="1" stroke-dasharray="" stroke="black" points="212.0,53.1 197.0,53.1 197.0,57.0 212.0,57.0" />
<polygon fill="none" stroke-width="1" stroke-dasharray="" stroke="black" points="197.0,50.9 212.0,50.9 212.0,37.0 197.0,37.0 197.0,50.9" />
<polygon fill="none" stroke-width="1" stroke-dasharray="" stroke="black" points="197.0,53.1 197.0,67.0 212.0,67.0 212.0,53.1 197.0,53.1" />
<polygon fill="none" stroke-width="1" stroke-dasharray="" stroke="black" points="212.0,37.0 212.0,37.0 212.0,37.0 197.0,37.0 197.0,37.0 212.0,37.0" />
<polygon fill="none" stroke-width="1" stroke-dasharray="" stroke="black" points="212.0,67.0 197.0,67.0 197.0,67.0 212.0,67.0 212.0,67.0 212.0,67.0" />
<polygon fill="none" stroke-width="1" stroke-dasharray="" stroke="black" points="212.0,50.9 197.0,50.9 197.0,37.0 212.0,37.0 212.0,50.9" />
<polygon fill="none" stroke-width="1" stroke-dasharray="" stroke="black" points="212.0,53.1 212.0,67.0 197.0,67.0 197.0,53.1 212.0,53.1" />
<polygon fill="none" stroke-width="1" stroke-dasharray="" stroke="black" points="212.0,50.9 197.0,50.9 197.0,47.0 212.0,47.0" />
<polygon fill="none" stroke-width="1" stroke-dasharray="" stroke="black" points="197.0,47.0 197.0,50.9 212.0,50.9 212.0,47.0" />
<polygon fill="none" stroke-width="1" stroke-dasharray="" stroke="black" points="212.0,57.0 197.0,57.0 197.0,53.1 212.0,53.1" />
<polygon fill="none" stroke-width="1" stroke-dasharray="" stroke="black" points="212.0,57.0 212.0,53.1 197.0,53.1 197.0,57.0" />
<polygon fill="none" stroke-width="1" stroke-dasharray="" stroke="black" points="212.0,47.0 212.0,57.0 197.0,57.0 197.0,47.0 212.0,47.0" />
<polygon fill="none" stroke-width="1" stroke-dasharray="" stroke="black" points="200.0,-42.0 200.0,-12.5 200.0,-15.6 200.0,-38.9 200.0,-42.0" />
<polygon fill="none" stroke-width="1" stroke-dasharray="" stroke="black" points="200.0,-7.5 200.0,22.0 200.0,18.9 200.0,-4.4 200.0,-7.5" />
<polygon fill="none" stroke-width="1" stroke-dasharray="" stroke="black" points="200.0,32.0 200.0,18.9 200.0,22.0 200.0,-7.5 200.0,-4.4 200.0,-15.6 200.0,-12.5 200.0,-12.5 200.0,-42.0 200.0,-42.0 200.0,-38.9 200.0,-52.0 200.0,-52.0 200.0,-38.9 200.0,-42.0 200.0,-42.0 200.0,-12.5 200.0,-12.5 200.0,-15.6 200.0,-4.4 200.0,-7.5 200.0,22.0 200.0,18.9 200.0,32.0 200.0,32.0 200.0,32.0" />
<polygon fill="none" stroke-width="1" stroke-dasharray="" stroke="black" points="200.0,-52.0 200.0,-37.0 200.0,-37.0 200.0,-52.0" />
<polygon fill="none" stroke-width="1" stroke-dasharray="" stroke="black" points="200.0,-38.9 200.0,-15.6 200.0,-12.5 200.0,-42.0 200.0,-38.9" />
<polygon fill="none" stroke-width="1" stroke-dasharray="" stroke="black" points="200.0,-4.4 200.0,18.9 200.0,22.0 200.0,-7.5 200.0,-4.4" />
<polygon fill="none" stroke-width="1" stroke-dasharray="" stroke="black" points="197.0,47.0 197.0,57.0 197.0,53.1 197.0,50.9 197.0,47.0" />
<polygon fill="none" stroke-width="1" stroke-dasharray="" stroke="black" points="197.0,67.0 197.0,53.1 197.0,57.0 197.0,47.0 197.0,50.9 197.0,37.0 197.0,37.0 197.0,37.0 197.0,50.9 197.0,47.0 197.0,47.0 197.0,57.0 197.0,57.0 197.0,53.1 197.0,67.0 197.0,67.0" />
<polygon fill="none" stroke-width="1" stroke-dasharray="" stroke="black" points="197.0,50.9 197.0,53.1 197.0,57.0 197.0,47.0 197.0,50.9" />
<polygon fill="none" stroke-width="1" stroke-dasharray="" stroke="black" points="112.0,57.0 112.0,67.0 212.0,67.0 212.0,57.0 212.0,57.0 197.0,57.0 197.0,47.0 212.0,47.0 212.0,37.0 112.0,37.0 112.0,47.0 127.0,47.0 127.0,57.0 112.0,57.0" />
<polygon fill="none" stroke-width="1" stroke-dasharray="" stroke="black" points="212.0,37.0 112.0,37.0 112.0,37.0 212.0,37.0" />
<polygon fill="none" stroke-width="1" stroke-dasharray="" stroke="black" points="212.0,67.0 112.0,67.0 112.0,67.0 212.0,67.0" />
<polygon fill="none" stroke-width="1" stroke-dasharray="" stroke="black" points="112.0,50.9 112.0,37.0 212.0,37.0 212.0,50.9 212.0,50.9 197.0,50.9 197.0,53.1 212.0,53.1 212.0,67.0 112.0,67.0 112.0,53.1 127.0,53.1 127.0,50.9 112.0,50.9" />
<polygon fill="none" stroke-width="1" stroke-dasharray="" stroke="black" points="112.0,67.0 112.0,70.0 212.0,70.0 212.0,67.0" />
<polygon fill="none" stroke-width="1" stroke-dasharray="" stroke="black" points="212.0,67.0 212.0,67.0 112.0,67.0 112.0,67.0" />
<polygon fill="none" stroke-width="1" stroke-dasharray="" stroke="black" points="112.0,70.0 112.0,70.0 212.0,70.0 212.0,70.0" />
<polygon fill="none" stroke-width="1" stroke-dasharray="" stroke="black" points="212.0,50.9 212.0,37.0 112.0,37.0 112.0,50.9 112.0,50.9 127.0,50.9 127.0,53.1 112.0,53.1 112.0,67.0 212.0,67.0 212.0,53.1 197.0,53.1 197.0,50.9 212.0,50.9" />
<polygon fill="none" stroke-width="1" stroke-dasharray="" stroke="black" points="112.0,37.0 212.0,37.0 212.0,37.0 112.0,37.0" />
<polygon fill="none" stroke-width="1" stroke-dasharray="" stroke="black" points="112.0,67.0 212.0,67.0 212.0,67.0 112.0,67.0" />
<polygon fill="none" stroke-width="1" stroke-dasharray="" stroke="black" points="212.0,57.0 212.0,67.0 112.0,67.0 112.0,57.0 112.0,57.0 127.0,57.0 127.0,47.0 112.0,47.0 112.0,37.0 212.0,37.0 212.0,47.0 197.0,47.0 197.0,57.0 212.0,57.0" />
<polygon fill="none" stroke-width="1" stroke-dasharray="" stroke="black" points="212.0,67.0 212.0,70.0 112.0,70.0 112.0,67.0" />
<polygon fill="none" stroke-width="1" stroke-dasharray="" stroke="black" points="127.0,50.9 127.0,53.1 127.0,57.0 127.0,47.0 127.0,50.9" />
<polygon fill="none" stroke-width="1" stroke-dasharray="" stroke="black" points="127.0,67.0 127.0,53.1 127.0,57.0 127.0,47.0 127.0,50.9 127.0,37.0 127.0,37.0 127.0,37.0 127.0,50.9 127.0,47.0 127.0,47.0 127.0,57.0 127.0,57.0 127.0,53.1 127.0,67.0 127.0,67.0" />
<polygon fill="none" stroke-width="1" stroke-dasharray="" stroke="black" points="127.0,47.0 127.0,57.0 127.0,53.1 127.0,50.9 127.0,47.0" />
<polygon fill="none" stroke-width="1" stroke-dasharray="" stroke="black" points="112.0,50.9 127.0,50.9 127.0,47.0 112.0,47.0" />
<polygon fill="none" stroke-width="1" stroke-dasharray="" stroke="black" points="112.0,57.0 127.0,57.0 127.0,53.1 112.0,53.1" />
<polygon fill="none" stroke-width="1" stroke-dasharray="" stroke="black" points="112.0,47.0 112.0,57.0 127.0,57.0 127.0,47.0 112.0,47.0" />
<polygon fill="none" stroke-width="1" stroke-dasharray="" stroke="black" points="127.0,47.0 127.0,50.9 112.0,50.9 112.0,47.0" />
<polygon fill="none" stroke-width="1" stroke-dasharray="" stroke="black" points="112.0,57.0 112.0,53.1 127.0,53.1 127.0,57.0" />
<polygon fill="none" stroke-width="1" stroke-dasharray="" stroke="black" points="112.0,50.9 127.0,50.9 127.0,37.0 112.0,37.0 112.0,50.9" />
<polygon fill="none" stroke-width="1" stroke-dasharray="" stroke="black" points="112.0,53.1 112.0,67.0 127.0,67.0 127.0,53.1 112.0,53.1" />
<polygon fill="none" stroke-width="1" stroke-dasharray="" stroke="black" points="112.0,37.0 112.0,37.0 112.0,37.0 127.0,37.0 127.0,37.0 112.0,37.0" />
<polygon fill="none" stroke-width="1" stroke-dasharray="" stroke="black" points="112.0,67.0 127.0,67.0 127.0,67.0 112.0,67.0 112.0,67.0 112.0,67.0" />
<polygon fill="none" stroke-width="1" stroke-dasharray="" stroke="black" points="127.0,50.9 112.0,50.9 112.0,37.0 127.0,37.0 127.0,50.9" />
<polygon fill="none" stroke-width="1" stroke-dasharray="" stroke="black" points="127.0,53.1 127.0,67.0 112.0,67.0 112.0,53.1 127.0,53.1" />
<polygon fill="none" stroke-width="1" stroke-dasharray="" stroke="black" points="112.0,47.0 112.0,50.9 127.0,50.9 127.0,47.0" />
<polygon fill="none" stroke-width="1" stroke-dasharray="" stroke="black" points="112.0,47.0 127.0,47.0 127.0,50.9 112.0,50.9" />
<polygon fill="none" stroke-width="1" stroke-dasharray="" stroke="black" points="127.0,57.0 127.0,53.1 112.0,53.1 112.0,57.0" />
<polygon fill="none" stroke-width="1" stroke-dasharray="" stroke="black" points="112.0,53.1 127.0,53.1 127.0,57.0 112.0,57.0" />
<polygon fill="none" stroke-width="1" stroke-dasharray="" stroke="black" points="127.0,47.0 127.0,57.0 112.0,57.0 112.0,47.0 127.0,47.0" />
<polygon fill="none" stroke-width="1" stroke-dasharray="" stroke="black" points="0.0,102.0 0.0,132.0 224.0,132.0 224.0,102.0 212.0,102.0 212.0,83.5 224.0,83.5 224.0,83.5 224.0,68.5 224.0,68.5 212.0,68.5 212.0,50.0 224.0,50.0 224.0,20.0 0.0,20.0 0.0,50.0 0.0,50.0 12.0,50.0 12.0,68.5 0.0,68.5 0.0,83.5 12.0,83.5 12.0,102.0 0.0,102.0" />
<polygon fill="none" stroke-width="1" stroke-dasharray="" stroke="black" points="224.0,20.0 0.0,20.0 0.0,20.0 224.0,20.0" />
<polygon fill="none" stroke-width="1" stroke-dasharray="" stroke="black" points="224.0,132.0 0.0,132.0 0.0,132.0 224.0,132.0" />
<polygon fill="none" stroke-width="1" stroke-dasharray="" stroke="black" points="224.0,120.0 0.0,120.0 0.0,120.0 224.0,120.0" />
<polygon fill="none" stroke-width="1" stroke-dasharray="" stroke="black" points="224.0,125.0 0.0,125.0 0.0,125.0 224.0,125.0" />
<polygon fill="none" stroke-width="1" stroke-dasharray="" stroke="black" points="0.0,86.6 0.0,65.4 0.0,65.4 12.0,65.4 12.0,53.1 0.0,53.1 0.0,20.0 224.0,20.0 224.0,53.1 224.0,53.1 212.0,53.1 212.0,65.4 224.0,65.4 224.0,86.6 212.0,86.6 212.0,98.9 224.0,98.9 224.0,98.9 224.0,120.0 0.0,120.0 0.0,98.9 12.0,98.9 12.0,86.6 0.0,86.6" />
<polygon fill="none" stroke-width="1" stroke-dasharray="" stroke="black" points="12.0,22.0 12.0,32.0 212.0,32.0 212.0,22.0 200.0,22.0 200.0,-7.5 212.0,-7.5 212.0,-7.5 212.0,-12.5 212.0,-12.5 200.0,-12.5 200.0,-42.0 212.0,-42.0 212.0,-52.0 12.0,-52.0 12.0,-42.0 12.0,-42.0 24.0,-42.0 24.0,-12.5 12.0,-12.5 12.0,-7.5 24.0,-7.5 24.0,22.0 12.0,22.0" />
<polygon fill="none" stroke-width="1" stroke-dasharray="" stroke="black" points="212.0,-52.0 12.0,-52.0 12.0,-52.0 212.0,-52.0" />
<polygon fill="none" stroke-width="1" stroke-dasharray="" stroke="black" points="212.0,32.0 12.0,32.0 12.0,32.0 212.0,32.0" />
<polygon fill="none" stroke-width="1" stroke-dasharray="" stroke="black" points="112.0,50.9 112.0,47.0 112.0,37.0 112.0,37.0 112.0,50.9" />
<polygon fill="none" stroke-width="1" stroke-dasharray="" stroke="black" points="112.0,53.1 112.0,67.0 112.0,67.0 112.0,57.0 112.0,53.1" />
<polygon fill="none" stroke-width="1" stroke-dasharray="" stroke="black" points="12.0,-4.4 12.0,-15.6 12.0,-15.6 24.0,-15.6 24.0,-38.9 12.0,-38.9 12.0,-52.0 212.0,-52.0 212.0,-38.9 212.0,-38.9 200.0,-38.9 200.0,-15.6 212.0,-15.6 212.0,-4.4 200.0,-4.4 200.0,18.9 212.0,18.9 212.0,18.9 212.0,32.0 12.0,32.0 12.0,18.9 24.0,18.9 24.0,-4.4 12.0,-4.4" />
<polygon fill="none" stroke-width="1" stroke-dasharray="" stroke="black" points="0.0,120.0 0.0,135.0 224.0,135.0 224.0,120.0" />
<polygon fill="none" stroke-width="1" stroke-dasharray="" stroke="black" points="12.0,-64.0 12.0,-52.0 212.0,-52.0 212.0,-64.0" />
<polygon fill="none" stroke-width="1" stroke-dasharray="" stroke="black" points="12.0,32.0 12.0,35.0 212.0,35.0 212.0,32.0" />
<polygon fill="none" stroke-width="1" stroke-dasharray="" stroke="black" points="24.0,-52.0 24.0,-37.0 200.0,-37.0 200.0,-52.0" />
<polygon fill="none" stroke-width="1" stroke-dasharray="" stroke="black" points="212.0,-64.0 212.0,-64.0 12.0,-64.0 12.0,-64.0" />
<polygon fill="none" stroke-width="1" stroke-dasharray="" stroke="black" points="12.0,-52.0 12.0,-52.0 212.0,-52.0 212.0,-52.0" />
<polygon fill="none" stroke-width="1" stroke-dasharray="" stroke="black" points="212.0,-64.0 212.0,-52.0 12.0,-52.0 12.0,-64.0" />
<polygon fill="none" stroke-width="1" stroke-dasharray="" stroke="black" points="12.0,-64.0 12.0,-52.0 212.0,-52.0 212.0,-64.0" />
<polygon fill="none" stroke-width="1" stroke-dasharray="" stroke="black" points="212.0,-64.0 212.0,-64.0 12.0,-64.0 12.0,-64.0" />
<polygon fill="none" stroke-width="1" stroke-dasharray="" stroke="black" points="12.0,-52.0 12.0,-52.0 212.0,-52.0 212.0,-52.0" />
<polygon fill="none" stroke-width="1" stroke-dasharray="" stroke="black" points="212.0,-64.0 212.0,-52.0 12.0,-52.0 12.0,-64.0" />
<polygon fill="none" stroke-width="1" stroke-dasharray="" stroke="black" points="200.0,-52.0 200.0,-52.0 24.0,-52.0 24.0,-52.0" />
<polygon fill="none" stroke-width="1" stroke-dasharray="" stroke="black" points="24.0,-37.0 24.0,-37.0 200.0,-37.0 200.0,-37.0" />
<polygon fill="none" stroke-width="1" stroke-dasharray="" stroke="black" points="212.0,32.0 212.0,32.0 12.0,32.0 12.0,32.0" />
<polygon fill="none" stroke-width="1" stroke-dasharray="" stroke="black" points="12.0,35.0 12.0,35.0 212.0,35.0 212.0,35.0" />
<polygon fill="none" stroke-width="1" stroke-dasharray="" stroke="black" points="112.0,57.0 112.0,53.1 112.0,67.0 112.0,67.0 112.0,67.0 112.0,53.1 112.0,57.0 112.0,47.0 112.0,50.9 112.0,37.0 112.0,37.0 112.0,37.0 112.0,50.9 112.0,47.0 112.0,47.0 112.0,57.0" />
<polygon fill="none" stroke-width="1" stroke-dasharray="" stroke="black" points="112.0,67.0 112.0,67.0 112.0,70.0 112.0,70.0" />
<polygon fill="none" stroke-width="1" stroke-dasharray="" stroke="black" points="224.0,120.0 224.0,120.0 0.0,120.0 0.0,120.0" />
<polygon fill="none" stroke-width="1" stroke-dasharray="" stroke="black" points="0.0,135.0 0.0,135.0 224.0,135.0 224.0,135.0" />
<polygon fill="none" stroke-width="1" stroke-dasharray="" stroke="black" points="12.0,-64.0 12.0,-52.0 212.0,-52.0 212.0,-64.0" />
<polygon fill="none" stroke-width="1" stroke-dasharray="" stroke="black" points="212.0,-64.0 212.0,-64.0 12.0,-64.0 12.0,-64.0" />
<polygon fill="none" stroke-width="1" stroke-dasharray="" stroke="black" points="12.0,-52.0 12.0,-52.0 212.0,-52.0 212.0,-52.0" />
<polygon fill="none" stroke-width="1" stroke-dasharray="" stroke="black" points="12.0,-67.0 12.0,-52.0 212.0,-52.0 212.0,-67.0" />
<polygon fill="none" stroke-width="1" stroke-dasharray="" stroke="black" points="212.0,-64.0 212.0,-52.0 12.0,-52.0 12.0,-64.0" />
<polygon fill="none" stroke-width="1" stroke-dasharray="" stroke="black" points="212.0,-67.0 212.0,-67.0 12.0,-67.0 12.0,-67.0" />
<polygon fill="none" stroke-width="1" stroke-dasharray="" stroke="black" points="12.0,-52.0 12.0,-52.0 212.0,-52.0 212.0,-52.0" />
<polygon fill="none" stroke-width="1" stroke-dasharray="" stroke="black" points="212.0,-67.0 212.0,-52.0 12.0,-52.0 12.0,-67.0" />
<polygon fill="none" stroke-width="1" stroke-dasharray="" stroke="black" points="12.0,-64.0 12.0,-52.0 212.0,-52.0 212.0,-64.0" />
<polygon fill="none" stroke-width="1" stroke-dasharray="" stroke="black" points="212.0,-64.0 212.0,-64.0 12.0,-64.0 12.0,-64.0" />
<polygon fill="none" stroke-width="1" stroke-dasharray="" stroke="black" points="12.0,-52.0 12.0,-52.0 212.0,-52.0 212.0,-52.0" />
<polygon fill="none" stroke-width="1" stroke-dasharray="" stroke="black" points="200.0,-52.0 200.0,-37.0 24.0,-37.0 24.0,-52.0" />
<polygon fill="none" stroke-width="1" stroke-dasharray="" stroke="black" points="212.0,-4.4 212.0,-15.6 212.0,-15.6 200.0,-15.6 200.0,-38.9 212.0,-38.9 212.0,-52.0 12.0,-52.0 12.0,-38.9 12.0,-38.9 24.0,-38.9 24.0,-15.6 12.0,-15.6 12.0,-4.4 24.0,-4.4 24.0,18.9 12.0,18.9 12.0,18.9 12.0,32.0 212.0,32.0 212.0,18.9 200.0,18.9 200.0,-4.4 212.0,-4.4" />
<polygon fill="none" stroke-width="1" stroke-dasharray="" stroke="black" points="112.0,47.0 112.0,50.9 112.0,37.0 112.0,37.0 112.0,47.0" />
<polygon fill="none" stroke-width="1" stroke-dasharray="" stroke="black" points="112.0,57.0 112.0,67.0 112.0,67.0 112.0,53.1 112.0,57.0" />
<polygon fill="none" stroke-width="1" stroke-dasharray="" stroke="black" points="12.0,-52.0 212.0,-52.0 212.0,-52.0 12.0,-52.0" />
<polygon fill="none" stroke-width="1" stroke-dasharray="" stroke="black" points="12.0,32.0 212.0,32.0 212.0,32.0 12.0,32.0" />
<polygon fill="none" stroke-width="1" stroke-dasharray="" stroke="black" points="212.0,-64.0 212.0,-52.0 12.0,-52.0 12.0,-64.0" />
<polygon fill="none" stroke-width="1" stroke-dasharray="" stroke="black" points="212.0,22.0 212.0,32.0 12.0,32.0 12.0,22.0 24.0,22.0 24.0,-7.5 12.0,-7.5 12.0,-7.5 12.0,-12.5 12.0,-12.5 24.0,-12.5 24.0,-42.0 12.0,-42.0 12.0,-52.0 212.0,-52.0 212.0,-42.0 212.0,-42.0 200.0,-42.0 200.0,-12.5 212.0,-12.5 212.0,-7.5 200.0,-7.5 200.0,22.0 212.0,22.0" />
<polygon fill="none" stroke-width="1" stroke-dasharray="" stroke="black" points="212.0,32.0 212.0,35.0 12.0,35.0 12.0,32.0" />
<polygon fill="none" stroke-width="1" stroke-dasharray="" stroke="black" points="224.0,86.6 224.0,65.4 224.0,65.4 212.0,65.4 212.0,53.1 224.0,53.1 224.0,20.0 0.0,20.0 0.0,53.1 0.0,53.1 12.0,53.1 12.0,65.4 0.0,65.4 0.0,86.6 12.0,86.6 12.0,98.9 0.0,98.9 0.0,98.9 0.0,120.0 224.0,120.0 224.0,98.9 212.0,98.9 212.0,86.6 224.0,86.6" />
<polygon fill="none" stroke-width="1" stroke-dasharray="" stroke="black" points="0.0,120.0 224.0,120.0 224.0,120.0 0.0,120.0" />
<polygon fill="none" stroke-width="1" stroke-dasharray="" stroke="black" points="0.0,125.0 224.0,125.0 224.0,125.0 0.0,125.0" />
<polygon fill="none" stroke-width="1" stroke-dasharray="" stroke="black" points="0.0,20.0 224.0,20.0 224.0,20.0 0.0,20.0" />
<polygon fill="none" stroke-width="1" stroke-dasharray="" stroke="black" points="0.0,132.0 224.0,132.0 224.0,132.0 0.0,132.0" />
<polygon fill="none" stroke-width="1" stroke-dasharray="" stroke="black" points="224.0,102.0 224.0,132.0 0.0,132.0 0.0,102.0 12.0,102.0 12.0,83.5 0.0,83.5 0.0,83.5 0.0,68.5 0.0,68.5 12.0,68.5 12.0,50.0 0.0,50.0 0.0,20.0 224.0,20.0 224.0,50.0 224.0,50.0 212.0,50.0 212.0,68.5 224.0,68.5 224.0,83.5 212.0,83.5 212.0,102.0 224.0,102.0" />
<polygon fill="none" stroke-width="1" stroke-dasharray="" stroke="black" points="224.0,120.0 224.0,135.0 0.0,135.0 0.0,120.0" />
<polygon fill="none" stroke-width="1" stroke-dasharray="" stroke="black" points="24.0,-38.9 24.0,-15.6 24.0,-12.5 24.0,-42.0 24.0,-38.9" />
<polygon fill="none" stroke-width="1" stroke-dasharray="" stroke="black" points="24.0,-4.4 24.0,18.9 24.0,22.0 24.0,-7.5 24.0,-4.4" />
<polygon fill="none" stroke-width="1" stroke-dasharray="" stroke="black" points="24.0,-52.0 24.0,-52.0 24.0,-37.0 24.0,-37.0" />
<polygon fill="none" stroke-width="1" stroke-dasharray="" stroke="black" points="24.0,32.0 24.0,18.9 24.0,22.0 24.0,-7.5 24.0,-4.4 24.0,-15.6 24.0,-12.5 24.0,-12.5 24.0,-42.0 24.0,-42.0 24.0,-38.9 24.0,-52.0 24.0,-52.0 24.0,-38.9 24.0,-42.0 24.0,-42.0 24.0,-12.5 24.0,-12.5 24.0,-15.6 24.0,-4.4 24.0,-7.5 24.0,22.0 24.0,18.9 24.0,32.0 24.0,32.0 24.0,32.0" />
<polygon fill="none" stroke-width="1" stroke-dasharray="" stroke="black" points="24.0,-42.0 24.0,-12.5 24.0,-15.6 24.0,-38.9 24.0,-42.0" />
<polygon fill="none" stroke-width="1" stroke-dasharray="" stroke="black" points="24.0,-7.5 24.0,22.0 24.0,18.9 24.0,-4.4 24.0,-7.5" />
<polygon fill="none" stroke-width="1" stroke-dasharray="" stroke="black" points="12.0,-38.9 24.0,-38.9 24.0,-42.0 12.0,-42.0" />
<polygon fill="none" stroke-width="1" stroke-dasharray="" stroke="black" points="12.0,-12.5 24.0,-12.5 24.0,-15.6 12.0,-15.6" />
<polygon fill="none" stroke-width="1" stroke-dasharray="" stroke="black" points="12.0,-4.4 24.0,-4.4 24.0,-7.5 12.0,-7.5" />
<polygon fill="none" stroke-width="1" stroke-dasharray="" stroke="black" points="12.0,22.0 24.0,22.0 24.0,18.9 12.0,18.9" />
<polygon fill="none" stroke-width="1" stroke-dasharray="" stroke="black" points="12.0,-42.0 12.0,-12.5 24.0,-12.5 24.0,-42.0 12.0,-42.0" />
<polygon fill="none" stroke-width="1" stroke-dasharray="" stroke="black" points="12.0,-7.5 12.0,22.0 24.0,22.0 24.0,-7.5 12.0,-7.5" />
<polygon fill="none" stroke-width="1" stroke-dasharray="" stroke="black" points="24.0,-42.0 24.0,-38.9 12.0,-38.9 12.0,-42.0" />
<polygon fill="none" stroke-width="1" stroke-dasharray="" stroke="black" points="12.0,-12.5 12.0,-15.6 24.0,-15.6 24.0,-12.5" />
<polygon fill="none" stroke-width="1" stroke-dasharray="" stroke="black" points="24.0,-7.5 24.0,-4.4 12.0,-4.4 12.0,-7.5" />
<polygon fill="none" stroke-width="1" stroke-dasharray="" stroke="black" points="12.0,22.0 12.0,18.9 24.0,18.9 24.0,22.0" />
<polygon fill="none" stroke-width="1" stroke-dasharray="" stroke="black" points="12.0,-38.9 24.0,-38.9 24.0,-52.0 12.0,-52.0 12.0,-38.9" />
<polygon fill="none" stroke-width="1" stroke-dasharray="" stroke="black" points="12.0,-15.6 12.0,-4.4 24.0,-4.4 24.0,-15.6 12.0,-15.6" />
<polygon fill="none" stroke-width="1" stroke-dasharray="" stroke="black" points="12.0,18.9 12.0,32.0 24.0,32.0 24.0,18.9 12.0,18.9" />
<polygon fill="none" stroke-width="1" stroke-dasharray="" stroke="black" points="12.0,-52.0 12.0,-52.0 12.0,-52.0 24.0,-52.0 24.0,-52.0 12.0,-52.0" />
<polygon fill="none" stroke-width="1" stroke-dasharray="" stroke="black" points="12.0,32.0 24.0,32.0 24.0,32.0 12.0,32.0 12.0,32.0 12.0,32.0" />
<polygon fill="none" stroke-width="1" stroke-dasharray="" stroke="black" points="24.0,-38.9 12.0,-38.9 12.0,-52.0 24.0,-52.0 24.0,-38.9" />
<polygon fill="none" stroke-width="1" stroke-dasharray="" stroke="black" points="24.0,-15.6 24.0,-4.4 12.0,-4.4 12.0,-15.6 24.0,-15.6" />
<polygon fill="none" stroke-width="1" stroke-dasharray="" stroke="black" points="24.0,18.9 24.0,32.0 12.0,32.0 12.0,18.9 24.0,18.9" />
<polygon fill="none" stroke-width="1" stroke-dasharray="" stroke="black" points="12.0,-42.0 12.0,-38.9 24.0,-38.9 24.0,-42.0" />
<polygon fill="none" stroke-width="1" stroke-dasharray="" stroke="black" points="12.0,-42.0 24.0,-42.0 24.0,-38.9 12.0,-38.9" />
<polygon fill="none" stroke-width="1" stroke-dasharray="" stroke="black" points="24.0,-12.5 24.0,-15.6 12.0,-15.6 12.0,-12.5" />
<polygon fill="none" stroke-width="1" stroke-dasharray="" stroke="black" points="12.0,-15.6 24.0,-15.6 24.0,-12.5 12.0,-12.5" />
<polygon fill="none" stroke-width="1" stroke-dasharray="" stroke="black" points="12.0,-7.5 12.0,-4.4 24.0,-4.4 24.0,-7.5" />
<polygon fill="none" stroke-width="1" stroke-dasharray="" stroke="black" points="12.0,-7.5 24.0,-7.5 24.0,-4.4 12.0,-4.4" />
<polygon fill="none" stroke-width="1" stroke-dasharray="" stroke="black" points="24.0,22.0 24.0,18.9 12.0,18.9 12.0,22.0" />
<polygon fill="none" stroke-width="1" stroke-dasharray="" stroke="black" points="12.0,18.9 24.0,18.9 24.0,22.0 12.0,22.0" />
<polygon fill="none" stroke-width="1" stroke-dasharray="" stroke="black" points="24.0,-42.0 24.0,-12.5 12.0,-12.5 12.0,-42.0 24.0,-42.0" />
<polygon fill="none" stroke-width="1" stroke-dasharray="" stroke="black" points="24.0,-7.5 24.0,22.0 12.0,22.0 12.0,-7.5 24.0,-7.5" />
<polygon fill="none" stroke-width="1" stroke-dasharray="" stroke="black" points="12.0,53.1 12.0,65.4 12.0,68.5 12.0,50.0 12.0,53.1" />
<polygon fill="none" stroke-width="1" stroke-dasharray="" stroke="black" points="12.0,86.6 12.0,98.9 12.0,102.0 12.0,83.5 12.0,86.6" />
<polygon fill="none" stroke-width="1" stroke-dasharray="" stroke="black" points="12.0,-38.9 12.0,-42.0 12.0,-52.0 12.0,-52.0 12.0,-38.9" />
<polygon fill="none" stroke-width="1" stroke-dasharray="" stroke="black" points="12.0,-15.6 12.0,-4.4 12.0,-7.5 12.0,-12.5 12.0,-15.6" />
<polygon fill="none" stroke-width="1" stroke-dasharray="" stroke="black" points="12.0,18.9 12.0,32.0 12.0,32.0 12.0,22.0 12.0,18.9" />
<polygon fill="none" stroke-width="1" stroke-dasharray="" stroke="black" points="12.0,-64.0 12.0,-64.0 12.0,-52.0 12.0,-52.0" />
<polygon fill="none" stroke-width="1" stroke-dasharray="" stroke="black" points="12.0,-64.0 12.0,-64.0 12.0,-52.0 12.0,-52.0" />
<polygon fill="none" stroke-width="1" stroke-dasharray="" stroke="black" points="12.0,22.0 12.0,18.9 12.0,32.0 12.0,32.0 12.0,18.9 12.0,22.0 12.0,22.0 12.0,-7.5 12.0,-7.5 12.0,-4.4 12.0,-15.6 12.0,-12.5 12.0,-42.0 12.0,-38.9 12.0,-52.0 12.0,-52.0 12.0,-52.0 12.0,-52.0 12.0,-38.9 12.0,-42.0 12.0,-12.5 12.0,-15.6 12.0,-4.4 12.0,-7.5 12.0,-7.5 12.0,22.0" />
<polygon fill="none" stroke-width="1" stroke-dasharray="" stroke="black" points="12.0,32.0 12.0,32.0 12.0,35.0 12.0,35.0" />
<polygon fill="none" stroke-width="1" stroke-dasharray="" stroke="black" points="12.0,120.0 12.0,98.9 12.0,102.0 12.0,83.5 12.0,86.6 12.0,65.4 12.0,68.5 12.0,68.5 12.0,50.0 12.0,50.0 12.0,53.1 12.0,20.0 12.0,20.0 12.0,53.1 12.0,50.0 12.0,50.0 12.0,68.5 12.0,68.5 12.0,65.4 12.0,86.6 12.0,83.5 12.0,102.0 12.0,98.9 12.0,120.0 12.0,120.0 12.0,120.0" />
<polygon fill="none" stroke-width="1" stroke-dasharray="" stroke="black" points="12.0,-64.0 12.0,-64.0 12.0,-52.0 12.0,-52.0" />
<polygon fill="none" stroke-width="1" stroke-dasharray="" stroke="black" points="12.0,-67.0 12.0,-67.0 12.0,-52.0 12.0,-52.0" />
<polygon fill="none" stroke-width="1" stroke-dasharray="" stroke="black" points="12.0,-64.0 12.0,-64.0 12.0,-52.0 12.0,-52.0" />
<polygon fill="none" stroke-width="1" stroke-dasharray="" stroke="black" points="12.0,-42.0 12.0,-38.9 12.0,-52.0 12.0,-52.0 12.0,-42.0" />
<polygon fill="none" stroke-width="1" stroke-dasharray="" stroke="black" points="12.0,-12.5 12.0,-7.5 12.0,-4.4 12.0,-15.6 12.0,-12.5" />
<polygon fill="none" stroke-width="1" stroke-dasharray="" stroke="black" points="12.0,22.0 12.0,32.0 12.0,32.0 12.0,18.9 12.0,22.0" />
<polygon fill="none" stroke-width="1" stroke-dasharray="" stroke="black" points="12.0,50.0 12.0,68.5 12.0,65.4 12.0,53.1 12.0,50.0" />
<polygon fill="none" stroke-width="1" stroke-dasharray="" stroke="black" points="12.0,83.5 12.0,102.0 12.0,98.9 12.0,86.6 12.0,83.5" />
<polygon fill="none" stroke-width="1" stroke-dasharray="" stroke="black" points="7.0,120.0 12.0,120.0 12.0,120.0 7.0,120.0 7.0,120.0 7.0,120.0" />
<polygon fill="none" stroke-width="1" stroke-dasharray="" stroke="black" points="7.0,125.0 7.0,125.0 7.0,125.0 12.0,125.0 12.0,125.0 7.0,125.0" />
<polygon fill="none" stroke-width="1" stroke-dasharray="" stroke="black" points="0.0,53.1 12.0,53.1 12.0,50.0 0.0,50.0" />
<polygon fill="none" stroke-width="1" stroke-dasharray="" stroke="black" points="0.0,68.5 12.0,68.5 12.0,65.4 0.0,65.4" />
<polygon fill="none" stroke-width="1" stroke-dasharray="" stroke="black" points="0.0,86.6 12.0,86.6 12.0,83.5 0.0,83.5" />
<polygon fill="none" stroke-width="1" stroke-dasharray="" stroke="black" points="0.0,102.0 12.0,102.0 12.0,98.9 0.0,98.9" />
<polygon fill="none" stroke-width="1" stroke-dasharray="" stroke="black" points="0.0,50.0 0.0,68.5 12.0,68.5 12.0,50.0 0.0,50.0" />
<polygon fill="none" stroke-width="1" stroke-dasharray="" stroke="black" points="0.0,83.5 0.0,102.0 12.0,102.0 12.0,83.5 0.0,83.5" />
<polygon fill="none" stroke-width="1" stroke-dasharray="" stroke="black" points="12.0,50.0 12.0,53.1 0.0,53.1 0.0,50.0" />
<polygon fill="none" stroke-width="1" stroke-dasharray="" stroke="black" points="0.0,68.5 0.0,65.4 12.0,65.4 12.0,68.5" />
<polygon fill="none" stroke-width="1" stroke-dasharray="" stroke="black" points="12.0,83.5 12.0,86.6 0.0,86.6 0.0,83.5" />
<polygon fill="none" stroke-width="1" stroke-dasharray="" stroke="black" points="0.0,102.0 0.0,98.9 12.0,98.9 12.0,102.0" />
<polygon fill="none" stroke-width="1" stroke-dasharray="" stroke="black" points="0.0,53.1 12.0,53.1 12.0,20.0 0.0,20.0 0.0,53.1" />
<polygon fill="none" stroke-width="1" stroke-dasharray="" stroke="black" points="0.0,65.4 0.0,86.6 12.0,86.6 12.0,65.4 0.0,65.4" />
<polygon fill="none" stroke-width="1" stroke-dasharray="" stroke="black" points="0.0,98.9 0.0,132.0 12.0,132.0 12.0,125.0 7.0,125.0 7.0,120.0 12.0,120.0 12.0,98.9 0.0,98.9" />
<polygon fill="none" stroke-width="1" stroke-dasharray="" stroke="black" points="0.0,20.0 0.0,20.0 0.0,20.0 12.0,20.0 12.0,20.0 0.0,20.0" />
<polygon fill="none" stroke-width="1" stroke-dasharray="" stroke="black" points="0.0,132.0 12.0,132.0 12.0,132.0 0.0,132.0 0.0,132.0 0.0,132.0" />
<polygon fill="none" stroke-width="1" stroke-dasharray="" stroke="black" points="12.0,53.1 0.0,53.1 0.0,20.0 12.0,20.0 12.0,53.1" />
<polygon fill="none" stroke-width="1" stroke-dasharray="" stroke="black" points="12.0,65.4 12.0,86.6 0.0,86.6 0.0,65.4 12.0,65.4" />
<polygon fill="none" stroke-width="1" stroke-dasharray="" stroke="black" points="12.0,98.9 12.0,120.0 7.0,120.0 7.0,125.0 12.0,125.0 12.0,132.0 0.0,132.0 0.0,98.9 12.0,98.9" />
<polygon fill="none" stroke-width="1" stroke-dasharray="" stroke="black" points="0.0,50.0 0.0,53.1 12.0,53.1 12.0,50.0" />
<polygon fill="none" stroke-width="1" stroke-dasharray="" stroke="black" points="0.0,50.0 12.0,50.0 12.0,53.1 0.0,53.1" />
<polygon fill="none" stroke-width="1" stroke-dasharray="" stroke="black" points="12.0,68.5 12.0,65.4 0.0,65.4 0.0,68.5" />
<polygon fill="none" stroke-width="1" stroke-dasharray="" stroke="black" points="0.0,65.4 12.0,65.4 12.0,68.5 0.0,68.5" />
<polygon fill="none" stroke-width="1" stroke-dasharray="" stroke="black" points="0.0,83.5 0.0,86.6 12.0,86.6 12.0,83.5" />
<polygon fill="none" stroke-width="1" stroke-dasharray="" stroke="black" points="0.0,83.5 12.0,83.5 12.0,86.6 0.0,86.6" />
<polygon fill="none" stroke-width="1" stroke-dasharray="" stroke="black" points="12.0,102.0 12.0,98.9 0.0,98.9 0.0,102.0" />
<polygon fill="none" stroke-width="1" stroke-dasharray="" stroke="black" points="0.0,98.9 12.0,98.9 12.0,102.0 0.0,102.0" />
<polygon fill="none" stroke-width="1" stroke-dasharray="" stroke="black" points="12.0,50.0 12.0,68.5 0.0,68.5 0.0,50.0 12.0,50.0" />
<polygon fill="none" stroke-width="1" stroke-dasharray="" stroke="black" points="12.0,83.5 12.0,102.0 0.0,102.0 0.0,83.5 12.0,83.5" />
<polygon fill="none" stroke-width="1" stroke-dasharray="" stroke="black" points="0.0,53.1 0.0,50.0 0.0,20.0 0.0,20.0 0.0,53.1" />
<polygon fill="none" stroke-width="1" stroke-dasharray="" stroke="black" points="0.0,65.4 0.0,86.6 0.0,83.5 0.0,68.5 0.0,65.4" />
<polygon fill="none" stroke-width="1" stroke-dasharray="" stroke="black" points="0.0,98.9 0.0,120.0 0.0,120.0 0.0,125.0 0.0,125.0 0.0,132.0 0.0,132.0 0.0,102.0 0.0,98.9" />
<polygon fill="none" stroke-width="1" stroke-dasharray="" stroke="black" points="0.0,50.0 0.0,53.1 0.0,20.0 0.0,20.0 0.0,50.0" />
<polygon fill="none" stroke-width="1" stroke-dasharray="" stroke="black" points="0.0,68.5 0.0,83.5 0.0,86.6 0.0,65.4 0.0,68.5" />
<polygon fill="none" stroke-width="1" stroke-dasharray="" stroke="black" points="0.0,102.0 0.0,132.0 0.0,132.0 0.0,125.0 0.0,125.0 0.0,120.0 0.0,120.0 0.0,98.9 0.0,102.0" />
<polygon fill="none" stroke-width="1" stroke-dasharray="" stroke="black" points="0.0,102.0 0.0,98.9 0.0,132.0 0.0,132.0 0.0,98.9 0.0,102.0 0.0,102.0 0.0,83.5 0.0,83.5 0.0,86.6 0.0,65.4 0.0,68.5 0.0,50.0 0.0,53.1 0.0,20.0 0.0,20.0 0.0,20.0 0.0,20.0 0.0,53.1 0.0,50.0 0.0,68.5 0.0,65.4 0.0,86.6 0.0,83.5 0.0,83.5 0.0,102.0" />
<polygon fill="none" stroke-width="1" stroke-dasharray="" stroke="black" points="0.0,120.0 0.0,120.0 0.0,135.0 0.0,135.0" />
</svg>
