<svg width="1100" viewBox="0.0 0.0 550.0 1008.5" xmlns="http://www.w3.org/2000/svg">
<polygon fill="none" stroke-width="1" stroke-dasharray="2" stroke="gray" points="430.5,118.5 430.5,97.4 442.5,100.5 442.5,82.0 430.5,85.1 430.5,63.9 442.5,67.0 442.5,67.0 442.5,48.5 442.5,48.5 430.5,51.6 430.5,18.5 30.5,18.5 30.5,51.6 18.5,48.5 18.5,48.5 18.5,67.0 18.5,67.0 30.5,63.9 30.5,85.1 18.5,82.0 18.5,100.5 30.5,97.4 30.5,118.5 30.5,118.5 430.5,118.5" />
<polygon fill="rgba(192,192,192,0.75)" stroke-width="1" stroke-dasharray="" stroke="black" points="426.9,114.9 430.5,118.5 30.5,118.5 27.0,114.9 27.0,114.9 426.9,114.9" />
<polygon fill="none" stroke-width="1" stroke-dasharray="2" stroke="gray" points="426.9,119.9 27.0,119.9 27.0,119.9 30.5,123.5 430.5,123.5 426.9,119.9" />
<polygon fill="none" stroke-width="1" stroke-dasharray="2" stroke="gray" points="10.0,40.0 10.0,58.5 18.5,67.0 18.5,48.5 10.0,40.0" />
<polygon fill="none" stroke-width="1" stroke-dasharray="2" stroke="gray" points="10.0,73.5 10.0,92.0 18.5,100.5 18.5,82.0 10.0,73.5" />
<polygon fill="none" stroke-width="1" stroke-dasharray="2" stroke="gray" points="18.5,48.5 30.5,51.6 22.0,43.1 10.0,40.0" />
<polygon fill="rgba(255,255,255,0.75)" stroke-width="1" stroke-dasharray="" stroke="black" points="10.0,58.5 22.0,55.4 30.5,63.9 18.5,67.0" />
<polygon fill="none" stroke-width="1" stroke-dasharray="2" stroke="gray" points="18.5,82.0 30.5,85.1 22.0,76.6 10.0,73.5" />
<polygon fill="rgba(255,255,255,0.75)" stroke-width="1" stroke-dasharray="" stroke="black" points="10.0,92.0 22.0,88.9 30.5,97.4 18.5,100.5" />
<polygon fill="none" stroke-width="1" stroke-dasharray="2" stroke="gray" points="22.0,43.1 30.5,51.6 30.5,18.5 22.0,10.0 22.0,43.1" />
<polygon fill="none" stroke-width="1" stroke-dasharray="2" stroke="gray" points="22.0,55.4 22.0,76.6 30.5,85.1 30.5,63.9 22.0,55.4" />
<polygon fill="none" stroke-width="1" stroke-dasharray="2" stroke="gray" points="22.0,88.9 22.0,122.0 30.5,130.5 30.5,123.5 26.9,119.9 26.9,114.9 30.5,118.5 30.5,97.4 22.0,88.9" />
<polygon fill="none" stroke-width="1" stroke-dasharray="2" stroke="gray" points="422.0,10.0 22.0,10.0 22.0,10.0 30.5,18.5 430.5,18.5 422.0,10.0" />
<polygon fill="rgba(192,192,192,0.75)" stroke-width="1" stroke-dasharray="" stroke="black" points="422.0,122.0 430.5,130.5 30.5,130.5 22.0,122.0 22.0,122.0 422.0,122.0" />
<polygon fill="rgba(255,255,255,0.75)" stroke-width="1" stroke-dasharray="" stroke="black" points="430.5,51.6 422.0,43.1 422.0,10.0 430.5,18.5 430.5,51.6" />
<polygon fill="rgba(255,255,255,0.75)" stroke-width="1" stroke-dasharray="" stroke="black" points="430.5,63.9 430.5,85.1 422.0,76.6 422.0,55.4 430.5,63.9" />
<polygon fill="rgba(255,255,255,0.75)" stroke-width="1" stroke-dasharray="" stroke="black" points="430.5,97.4 430.5,118.5 426.9,114.9 426.9,119.9 430.5,123.5 430.5,130.5 422.0,122.0 422.0,88.9 430.5,97.4" />
<polygon fill="none" stroke-width="1" stroke-dasharray="2" stroke="gray" points="434.0,40.0 422.0,43.1 430.5,51.6 442.5,48.5" />
<polygon fill="rgba(192,192,192,0.75)" stroke-width="1" stroke-dasharray="" stroke="silver" points="442.5,67.0 430.5,63.9 422.0,55.4 434.0,58.5" />
<polygon fill="none" stroke-width="1" stroke-dasharray="2" stroke="gray" points="434.0,73.5 422.0,76.6 430.5,85.1 442.5,82.0" />
<polygon fill="rgba(192,192,192,0.75)" stroke-width="1" stroke-dasharray="" stroke="silver" points="442.5,100.5 430.5,97.4 422.0,88.9 434.0,92.0" />
<polygon fill="rgba(255,255,255,0.75)" stroke-width="1" stroke-dasharray="" stroke="black" points="442.5,48.5 442.5,67.0 434.0,58.5 434.0,40.0 442.5,48.5" />
<polygon fill="rgba(255,255,255,0.75)" stroke-width="1" stroke-dasharray="" stroke="black" points="442.5,82.0 442.5,100.5 434.0,92.0 434.0,73.5 442.5,82.0" />
<polygon fill="rgba(255,255,255,0.75)" stroke-width="1" stroke-dasharray="" stroke="black" points="434.0,92.0 422.0,88.9 422.0,122.0 22.0,122.0 22.0,88.9 10.0,92.0 10.0,92.0 10.0,73.5 10.0,73.5 22.0,76.6 22.0,55.4 10.0,58.5 10.0,40.0 22.0,43.1 22.0,10.0 22.0,10.0 422.0,10.0 422.0,10.0 422.0,43.1 434.0,40.0 434.0,58.5 422.0,55.4 422.0,76.6 434.0,73.5 434.0,73.5 434.0,92.0" />
<text style="" text-anchor="middle" x="222.0" y="66.0" fill="black">base front</text>
<polygon fill="none" stroke-width="1" stroke-dasharray="2" stroke="gray" points="242.5,225.6 242.5,204.4 242.5,204.4 230.5,204.4 230.5,192.1 242.5,192.1 242.5,159.0 18.5,159.0 18.5,192.1 18.5,192.1 30.5,192.1 30.5,204.4 18.5,204.4 18.5,225.6 30.5,225.6 30.5,237.9 18.5,237.9 18.5,237.9 18.5,259.0 242.5,259.0 242.5,237.9 230.5,237.9 230.5,225.6 242.5,225.6" />
<polygon fill="rgba(192,192,192,0.75)" stroke-width="1" stroke-dasharray="" stroke="black" points="14.9,255.4 238.9,255.4 242.5,259.0 18.5,259.0" />
<polygon fill="none" stroke-width="1" stroke-dasharray="2" stroke="gray" points="18.5,264.0 242.5,264.0 238.9,260.4 14.9,260.4" />
<polygon fill="none" stroke-width="1" stroke-dasharray="2" stroke="gray" points="10.0,180.5 18.5,192.1 18.5,159.0 10.0,150.5 10.0,180.5" />
<polygon fill="none" stroke-width="1" stroke-dasharray="2" stroke="gray" points="10.0,199.0 10.0,214.0 18.5,225.6 18.5,204.4 10.0,199.0" />
<polygon fill="none" stroke-width="1" stroke-dasharray="2" stroke="gray" points="10.0,232.5 10.0,262.5 18.5,271.0 18.5,264.0 14.9,260.4 14.9,255.4 18.5,259.0 18.5,237.9 10.0,232.5" />
<polygon fill="rgba(255,255,255,0.75)" stroke-width="1" stroke-dasharray="" stroke="black" points="10.0,180.5 22.0,180.5 30.5,192.1 18.5,192.1" />
<polygon fill="none" stroke-width="1" stroke-dasharray="2" stroke="gray" points="18.5,204.4 30.5,204.4 22.0,199.0 10.0,199.0" />
<polygon fill="rgba(255,255,255,0.75)" stroke-width="1" stroke-dasharray="" stroke="black" points="10.0,214.0 22.0,214.0 30.5,225.6 18.5,225.6" />
<polygon fill="none" stroke-width="1" stroke-dasharray="2" stroke="gray" points="18.5,237.9 30.5,237.9 22.0,232.5 10.0,232.5" />
<polygon fill="none" stroke-width="1" stroke-dasharray="2" stroke="gray" points="22.0,180.5 22.0,199.0 30.5,204.4 30.5,192.1 22.0,180.5" />
<polygon fill="none" stroke-width="1" stroke-dasharray="2" stroke="gray" points="22.0,214.0 22.0,232.5 30.5,237.9 30.5,225.6 22.0,214.0" />
<polygon fill="none" stroke-width="1" stroke-dasharray="2" stroke="gray" points="18.5,159.0 242.5,159.0 234.0,150.5 10.0,150.5" />
<polygon fill="rgba(192,192,192,0.75)" stroke-width="1" stroke-dasharray="" stroke="black" points="10.0,262.5 234.0,262.5 242.5,271.0 18.5,271.0" />
<polygon fill="rgba(255,255,255,0.75)" stroke-width="1" stroke-dasharray="" stroke="black" points="230.5,192.1 230.5,204.4 222.0,199.0 222.0,180.5 230.5,192.1" />
<polygon fill="rgba(255,255,255,0.75)" stroke-width="1" stroke-dasharray="" stroke="black" points="230.5,225.6 230.5,237.9 222.0,232.5 222.0,214.0 230.5,225.6" />
<polygon fill="rgba(255,255,255,0.75)" stroke-width="1" stroke-dasharray="" stroke="black" points="242.5,192.1 230.5,192.1 222.0,180.5 234.0,180.5" />
<polygon fill="none" stroke-width="1" stroke-dasharray="2" stroke="gray" points="234.0,199.0 222.0,199.0 230.5,204.4 242.5,204.4" />
<polygon fill="rgba(255,255,255,0.75)" stroke-width="1" stroke-dasharray="" stroke="black" points="242.5,225.6 230.5,225.6 222.0,214.0 234.0,214.0" />
<polygon fill="none" stroke-width="1" stroke-dasharray="2" stroke="gray" points="234.0,232.5 222.0,232.5 230.5,237.9 242.5,237.9" />
<polygon fill="rgba(255,255,255,0.75)" stroke-width="1" stroke-dasharray="" stroke="black" points="242.5,192.1 234.0,180.5 234.0,150.5 242.5,159.0 242.5,192.1" />
<polygon fill="rgba(255,255,255,0.75)" stroke-width="1" stroke-dasharray="" stroke="black" points="242.5,204.4 242.5,225.6 234.0,214.0 234.0,199.0 242.5,204.4" />
<polygon fill="rgba(255,255,255,0.75)" stroke-width="1" stroke-dasharray="" stroke="black" points="242.5,237.9 242.5,259.0 238.9,255.4 238.9,260.4 242.5,264.0 242.5,271.0 234.0,262.5 234.0,232.5 242.5,237.9" />
<polygon fill="rgba(255,255,255,0.75)" stroke-width="1" stroke-dasharray="" stroke="black" points="234.0,232.5 234.0,262.5 10.0,262.5 10.0,232.5 22.0,232.5 22.0,214.0 10.0,214.0 10.0,214.0 10.0,199.0 10.0,199.0 22.0,199.0 22.0,180.5 10.0,180.5 10.0,150.5 234.0,150.5 234.0,180.5 234.0,180.5 222.0,180.5 222.0,199.0 234.0,199.0 234.0,214.0 222.0,214.0 222.0,232.5 234.0,232.5" />
<text style="" text-anchor="middle" x="122.0" y="206.48528137423858" fill="black">base left</text>
<polygon fill="none" stroke-width="1" stroke-dasharray="2" stroke="gray" points="430.5,399.5 430.5,378.3 442.5,381.4 442.5,363.0 430.5,366.1 430.5,344.8 442.5,347.9 442.5,347.9 442.5,329.5 442.5,329.5 430.5,332.6 430.5,299.5 30.5,299.5 30.5,332.6 18.5,329.5 18.5,329.5 18.5,347.9 18.5,347.9 30.5,344.8 30.5,366.1 18.5,363.0 18.5,381.4 30.5,378.3 30.5,399.5 30.5,399.5 430.5,399.5" />
<polygon fill="rgba(192,192,192,0.75)" stroke-width="1" stroke-dasharray="" stroke="black" points="426.9,395.9 430.5,399.5 30.5,399.5 27.0,395.9 27.0,395.9 426.9,395.9" />
<polygon fill="none" stroke-width="1" stroke-dasharray="2" stroke="gray" points="426.9,400.9 27.0,400.9 27.0,400.9 30.5,404.5 430.5,404.5 426.9,400.9" />
<polygon fill="none" stroke-width="1" stroke-dasharray="2" stroke="gray" points="10.0,321.0 10.0,339.5 18.5,348.0 18.5,329.4 10.0,321.0" />
<polygon fill="none" stroke-width="1" stroke-dasharray="2" stroke="gray" points="10.0,354.5 10.0,373.0 18.5,381.5 18.5,362.9 10.0,354.5" />
<polygon fill="none" stroke-width="1" stroke-dasharray="2" stroke="gray" points="18.5,329.5 30.5,332.6 22.0,324.1 10.0,321.0" />
<polygon fill="rgba(255,255,255,0.75)" stroke-width="1" stroke-dasharray="" stroke="black" points="10.0,339.5 22.0,336.4 30.5,344.9 18.5,348.0" />
<polygon fill="none" stroke-width="1" stroke-dasharray="2" stroke="gray" points="18.5,363.0 30.5,366.1 22.0,357.6 10.0,354.5" />
<polygon fill="rgba(255,255,255,0.75)" stroke-width="1" stroke-dasharray="" stroke="black" points="10.0,373.0 22.0,369.9 30.5,378.4 18.5,381.5" />
<polygon fill="none" stroke-width="1" stroke-dasharray="2" stroke="gray" points="22.0,324.1 30.5,332.6 30.5,299.5 22.0,291.0 22.0,324.1" />
<polygon fill="none" stroke-width="1" stroke-dasharray="2" stroke="gray" points="22.0,336.4 22.0,357.6 30.5,366.1 30.5,344.8 22.0,336.4" />
<polygon fill="none" stroke-width="1" stroke-dasharray="2" stroke="gray" points="22.0,369.9 22.0,403.0 30.5,411.5 30.5,404.5 26.9,400.9 26.9,395.9 30.5,399.5 30.5,378.3 22.0,369.9" />
<polygon fill="none" stroke-width="1" stroke-dasharray="2" stroke="gray" points="422.0,291.0 22.0,291.0 22.0,291.0 30.5,299.5 430.5,299.5 422.0,291.0" />
<polygon fill="rgba(192,192,192,0.75)" stroke-width="1" stroke-dasharray="" stroke="black" points="422.0,403.0 430.5,411.5 30.5,411.5 22.0,403.0 22.0,403.0 422.0,403.0" />
<polygon fill="rgba(255,255,255,0.75)" stroke-width="1" stroke-dasharray="" stroke="black" points="430.5,332.6 422.0,324.1 422.0,291.0 430.5,299.5 430.5,332.6" />
<polygon fill="rgba(255,255,255,0.75)" stroke-width="1" stroke-dasharray="" stroke="black" points="430.5,344.8 430.5,366.1 422.0,357.6 422.0,336.4 430.5,344.8" />
<polygon fill="rgba(255,255,255,0.75)" stroke-width="1" stroke-dasharray="" stroke="black" points="430.5,378.3 430.5,399.5 426.9,395.9 426.9,400.9 430.5,404.5 430.5,411.5 422.0,403.0 422.0,369.9 430.5,378.3" />
<polygon fill="none" stroke-width="1" stroke-dasharray="2" stroke="gray" points="434.0,321.0 422.0,324.1 430.5,332.6 442.5,329.5" />
<polygon fill="rgba(192,192,192,0.75)" stroke-width="1" stroke-dasharray="" stroke="silver" points="442.5,348.0 430.5,344.9 422.0,336.4 434.0,339.5" />
<polygon fill="none" stroke-width="1" stroke-dasharray="2" stroke="gray" points="434.0,354.5 422.0,357.6 430.5,366.1 442.5,363.0" />
<polygon fill="rgba(192,192,192,0.75)" stroke-width="1" stroke-dasharray="" stroke="silver" points="442.5,381.5 430.5,378.4 422.0,369.9 434.0,373.0" />
<polygon fill="rgba(255,255,255,0.75)" stroke-width="1" stroke-dasharray="" stroke="black" points="442.5,329.4 442.5,348.0 434.0,339.5 434.0,321.0 442.5,329.4" />
<polygon fill="rgba(255,255,255,0.75)" stroke-width="1" stroke-dasharray="" stroke="black" points="442.5,362.9 442.5,381.5 434.0,373.0 434.0,354.5 442.5,362.9" />
<polygon fill="rgba(255,255,255,0.75)" stroke-width="1" stroke-dasharray="" stroke="black" points="434.0,373.0 422.0,369.9 422.0,403.0 22.0,403.0 22.0,369.9 10.0,373.0 10.0,373.0 10.0,354.5 10.0,354.5 22.0,357.6 22.0,336.4 10.0,339.5 10.0,321.0 22.0,324.1 22.0,291.0 22.0,291.0 422.0,291.0 422.0,291.0 422.0,324.1 434.0,321.0 434.0,339.5 422.0,336.4 422.0,357.6 434.0,354.5 434.0,354.5 434.0,373.0" />
<text style="" text-anchor="middle" x="222.0" y="346.97056274847716" fill="black">base back</text>
<polygon fill="none" stroke-width="1" stroke-dasharray="2" stroke="gray" points="242.5,506.5 242.5,485.3 242.5,485.3 230.5,485.3 230.5,473.0 242.5,473.0 242.5,439.9 18.5,439.9 18.5,473.0 18.5,473.0 30.5,473.0 30.5,485.3 18.5,485.3 18.5,506.5 30.5,506.5 30.5,518.8 18.5,518.8 18.5,518.8 18.5,539.9 242.5,539.9 242.5,518.8 230.5,518.8 230.5,506.5 242.5,506.5" />
<polygon fill="rgba(192,192,192,0.75)" stroke-width="1" stroke-dasharray="" stroke="black" points="14.9,536.4 238.9,536.4 242.5,539.9 18.5,539.9" />
<polygon fill="none" stroke-width="1" stroke-dasharray="2" stroke="gray" points="18.5,544.9 242.5,544.9 238.9,541.4 14.9,541.4" />
<polygon fill="none" stroke-width="1" stroke-dasharray="2" stroke="gray" points="10.0,461.5 18.5,473.1 18.5,439.9 10.0,431.5 10.0,461.5" />
<polygon fill="none" stroke-width="1" stroke-dasharray="2" stroke="gray" points="10.0,479.9 10.0,495.0 18.5,506.6 18.5,485.3 10.0,479.9" />
<polygon fill="none" stroke-width="1" stroke-dasharray="2" stroke="gray" points="10.0,513.4 10.0,543.5 18.5,551.9 18.5,544.9 14.9,541.4 14.9,536.4 18.5,539.9 18.5,518.8 10.0,513.4" />
<polygon fill="rgba(255,255,255,0.75)" stroke-width="1" stroke-dasharray="" stroke="black" points="10.0,461.5 22.0,461.5 30.5,473.0 18.5,473.0" />
<polygon fill="none" stroke-width="1" stroke-dasharray="2" stroke="gray" points="18.5,485.3 30.5,485.3 22.0,480.0 10.0,480.0" />
<polygon fill="rgba(255,255,255,0.75)" stroke-width="1" stroke-dasharray="" stroke="black" points="10.0,495.0 22.0,495.0 30.5,506.5 18.5,506.5" />
<polygon fill="none" stroke-width="1" stroke-dasharray="2" stroke="gray" points="18.5,518.8 30.5,518.8 22.0,513.5 10.0,513.5" />
<polygon fill="none" stroke-width="1" stroke-dasharray="2" stroke="gray" points="22.0,461.4 22.0,480.0 30.5,485.3 30.5,473.0 22.0,461.4" />
<polygon fill="none" stroke-width="1" stroke-dasharray="2" stroke="gray" points="22.0,494.9 22.0,513.5 30.5,518.8 30.5,506.5 22.0,494.9" />
<polygon fill="none" stroke-width="1" stroke-dasharray="2" stroke="gray" points="18.5,439.9 242.5,439.9 234.0,431.5 10.0,431.5" />
<polygon fill="rgba(192,192,192,0.75)" stroke-width="1" stroke-dasharray="" stroke="black" points="10.0,543.5 234.0,543.5 242.5,551.9 18.5,551.9" />
<polygon fill="rgba(255,255,255,0.75)" stroke-width="1" stroke-dasharray="" stroke="black" points="230.5,473.0 230.5,485.3 222.0,480.0 222.0,461.4 230.5,473.0" />
<polygon fill="rgba(255,255,255,0.75)" stroke-width="1" stroke-dasharray="" stroke="black" points="230.5,506.5 230.5,518.8 222.0,513.5 222.0,494.9 230.5,506.5" />
<polygon fill="rgba(255,255,255,0.75)" stroke-width="1" stroke-dasharray="" stroke="black" points="242.5,473.0 230.5,473.0 222.0,461.5 234.0,461.5" />
<polygon fill="none" stroke-width="1" stroke-dasharray="2" stroke="gray" points="234.0,480.0 222.0,480.0 230.5,485.3 242.5,485.3" />
<polygon fill="rgba(255,255,255,0.75)" stroke-width="1" stroke-dasharray="" stroke="black" points="242.5,506.5 230.5,506.5 222.0,495.0 234.0,495.0" />
<polygon fill="none" stroke-width="1" stroke-dasharray="2" stroke="gray" points="234.0,513.5 222.0,513.5 230.5,518.8 242.5,518.8" />
<polygon fill="rgba(255,255,255,0.75)" stroke-width="1" stroke-dasharray="" stroke="black" points="242.5,473.1 234.0,461.5 234.0,431.5 242.5,439.9 242.5,473.1" />
<polygon fill="rgba(255,255,255,0.75)" stroke-width="1" stroke-dasharray="" stroke="black" points="242.5,485.3 242.5,506.6 234.0,495.0 234.0,479.9 242.5,485.3" />
<polygon fill="rgba(255,255,255,0.75)" stroke-width="1" stroke-dasharray="" stroke="black" points="242.5,518.8 242.5,539.9 238.9,536.4 238.9,541.4 242.5,544.9 242.5,551.9 234.0,543.5 234.0,513.4 242.5,518.8" />
<polygon fill="rgba(255,255,255,0.75)" stroke-width="1" stroke-dasharray="" stroke="black" points="234.0,513.5 234.0,543.5 10.0,543.5 10.0,513.5 22.0,513.5 22.0,494.9 10.0,494.9 10.0,494.9 10.0,480.0 10.0,480.0 22.0,480.0 22.0,461.4 10.0,461.4 10.0,431.5 234.0,431.5 234.0,461.4 234.0,461.4 222.0,461.4 222.0,480.0 234.0,480.0 234.0,494.9 222.0,494.9 222.0,513.5 234.0,513.5" />
<text style="" text-anchor="middle" x="122.0" y="487.45584412271575" fill="black">base right</text>
<polygon fill="none" stroke-width="1" stroke-dasharray="2" stroke="gray" points="20.6,582.5 20.6,998.5 236.6,998.5 236.6,582.5" />
<polygon fill="none" stroke-width="1" stroke-dasharray="2" stroke="gray" points="10.0,571.9 10.0,987.9 20.6,998.5 20.6,582.5" />
<polygon fill="none" stroke-width="1" stroke-dasharray="2" stroke="gray" points="20.6,582.5 236.6,582.5 226.0,571.9 10.0,571.9" />
<polygon fill="rgba(192,192,192,0.75)" stroke-width="1" stroke-dasharray="" stroke="black" points="10.0,987.9 226.0,987.9 236.6,998.5 20.6,998.5" />
<polygon fill="rgba(255,255,255,0.75)" stroke-width="1" stroke-dasharray="" stroke="black" points="236.6,582.5 236.6,998.5 226.0,987.9 226.0,571.9" />
<polygon fill="rgba(255,255,255,0.75)" stroke-width="1" stroke-dasharray="" stroke="black" points="10.0,571.9 226.0,571.9 226.0,987.9 10.0,987.9" />
<text style="" text-anchor="middle" x="118.0" y="779.9411254969543" fill="black">base bottom</text>
</svg>
