<svg width="1100" viewBox="0 0 550 362.12132034355966" xmlns="http://www.w3.org/2000/svg">
<polygon fill="none" stroke-width="1" stroke-dasharray="2" stroke="gray" points="412.5966017177983,50.60660171779821 412.5966017177982,38.52604935697804 420.6066017177982,40.59401998168747 420.6066017177982,30.61918345390896 412.5966017177982,32.68715407861838 412.5966017177983,20.606601717798213 412.5966017177983,20.606601717798213 28.616601717798204,20.606601717798213 28.61660171779821,32.68715407861838 20.606601717798213,30.61918345390896 20.606601717798213,30.61918345390896 20.606601717798213,40.59401998168746 20.606601717798213,40.59401998168746 28.61660171779821,38.52604935697804 28.61660171779821,50.60660171779821 412.5966017177983,50.60660171779821" />
<polygon fill="none" stroke-width="1" stroke-dasharray="2" stroke="gray" points="10.0,19.990000000000002 10.0,30.01 20.606601717798213,40.61660171779821 20.606601717798213,30.596601717798215 10.0,19.990000000000002" />
<polygon fill="none" stroke-width="1" stroke-dasharray="2" stroke="gray" points="20.606601717798213,30.606601717798213 28.606601717798213,32.67715407861838 18.0,22.070552360820166 10.0,20.0" />
<polygon fill="rgba(255,255,255,0.75)" stroke-width="1" stroke-dasharray="" stroke="black" points="10.0,30.0 18.0,27.929447639179834 28.606601717798213,38.53604935697805 20.606601717798213,40.60660171779821" />
<polygon fill="none" stroke-width="1" stroke-dasharray="2" stroke="gray" points="18.0,22.080552360820164 28.606601717798213,32.68715407861837 28.606601717798213,20.606601717798213 18.0,10.0 18.0,22.080552360820164" />
<polygon fill="none" stroke-width="1" stroke-dasharray="2" stroke="gray" points="18.0,27.919447639179836 18.0,40.0 28.606601717798213,50.60660171779821 28.606601717798213,38.52604935697805 18.0,27.919447639179836" />
<polygon fill="none" stroke-width="1" stroke-dasharray="2" stroke="gray" points="401.99,10.0 18.009999999999998,10.0 18.009999999999998,10.0 28.616601717798204,20.606601717798213 412.5966017177982,20.606601717798213 401.99,10.0" />
<polygon fill="rgba(192,192,192,0.75)" stroke-width="1" stroke-dasharray="" stroke="black" points="401.99,40.0 412.5966017177982,50.60660171779821 28.616601717798204,50.60660171779821 18.009999999999998,40.0 18.009999999999998,40.0 401.99,40.0" />
<polygon fill="rgba(255,255,255,0.75)" stroke-width="1" stroke-dasharray="" stroke="black" points="412.6066017177982,32.68715407861838 402.0,22.08055236082016 402.0,10.0 412.6066017177982,20.606601717798213 412.6066017177982,32.68715407861838" />
<polygon fill="rgba(255,255,255,0.75)" stroke-width="1" stroke-dasharray="" stroke="black" points="412.6066017177982,38.52604935697805 412.6066017177982,50.60660171779821 402.0,40.0 402.0,27.919447639179836 412.6066017177982,38.52604935697805" />
<polygon fill="none" stroke-width="1" stroke-dasharray="2" stroke="gray" points="410.0,20.0 402.0,22.070552360820166 412.6066017177982,32.67715407861838 420.6066017177982,30.606601717798213" />
<polygon fill="rgba(192,192,192,0.75)" stroke-width="1" stroke-dasharray="" stroke="silver" points="420.6066017177982,40.60660171779821 412.6066017177982,38.53604935697805 402.0,27.929447639179834 410.0,30.0" />
<polygon fill="rgba(255,255,255,0.75)" stroke-width="1" stroke-dasharray="" stroke="black" points="420.6066017177982,30.596601717798215 420.6066017177982,40.61660171779821 410.0,30.01 410.0,19.990000000000002 420.6066017177982,30.596601717798215" />
<polygon fill="rgba(255,255,255,0.75)" stroke-width="1" stroke-dasharray="" stroke="black" points="410.0,29.987418263889253 401.99,27.919447639179833 401.99,40.0 18.010000000000048,40.0 18.010000000000048,40.0 18.009999999999998,27.919447639179833 10.0,29.987418263889253 10.0,20.012581736110747 18.009999999999998,22.080552360820164 18.009999999999998,10.0 18.009999999999998,10.0 401.99,10.0 401.99,22.080552360820164 410.0,20.012581736110747 410.0,20.012581736110747 410.0,29.987418263889253" />
<text style="" text-anchor="middle" x="210.0" y="25.0" fill="black">till front</text>
<polygon fill="none" stroke-width="1" stroke-dasharray="2" stroke="gray" points="412.5966017177983,110.60660171779821 412.5966017177982,98.52604935697805 420.6066017177982,100.59401998168747 420.6066017177982,90.61918345390896 412.5966017177982,92.68715407861838 412.5966017177983,80.60660171779821 412.5966017177983,80.60660171779821 28.616601717798204,80.60660171779821 28.61660171779821,92.68715407861838 20.606601717798213,90.61918345390896 20.606601717798213,90.61918345390896 20.606601717798213,100.59401998168747 20.606601717798213,100.59401998168747 28.61660171779821,98.52604935697805 28.61660171779821,110.60660171779821 412.5966017177983,110.60660171779821" />
<polygon fill="none" stroke-width="1" stroke-dasharray="2" stroke="gray" points="10.0,79.99 10.0,90.01 20.606601717798213,100.61660171779822 20.606601717798213,90.59660171779822 10.0,79.99" />
<polygon fill="none" stroke-width="1" stroke-dasharray="2" stroke="gray" points="20.606601717798213,90.60660171779821 28.606601717798213,92.67715407861837 18.0,82.07055236082016 10.0,80.0" />
<polygon fill="rgba(255,255,255,0.75)" stroke-width="1" stroke-dasharray="" stroke="black" points="10.0,90.0 18.0,87.92944763917984 28.606601717798213,98.53604935697805 20.606601717798213,100.60660171779821" />
<polygon fill="none" stroke-width="1" stroke-dasharray="2" stroke="gray" points="18.0,82.08055236082016 28.606601717798213,92.68715407861838 28.606601717798213,80.60660171779821 18.0,70.0 18.0,82.08055236082016" />
<polygon fill="none" stroke-width="1" stroke-dasharray="2" stroke="gray" points="18.0,87.91944763917984 18.0,100.0 28.606601717798213,110.60660171779821 28.606601717798213,98.52604935697805 18.0,87.91944763917984" />
<polygon fill="none" stroke-width="1" stroke-dasharray="2" stroke="gray" points="401.99,70.0 18.009999999999998,70.0 18.009999999999998,70.0 28.616601717798204,80.60660171779821 412.5966017177982,80.60660171779821 401.99,70.0" />
<polygon fill="rgba(192,192,192,0.75)" stroke-width="1" stroke-dasharray="" stroke="black" points="401.99,100.0 412.5966017177982,110.60660171779821 28.616601717798204,110.60660171779821 18.009999999999998,100.0 18.009999999999998,100.0 401.99,100.0" />
<polygon fill="rgba(255,255,255,0.75)" stroke-width="1" stroke-dasharray="" stroke="black" points="412.6066017177982,92.68715407861838 402.0,82.08055236082016 402.0,70.0 412.6066017177982,80.60660171779821 412.6066017177982,92.68715407861838" />
<polygon fill="rgba(255,255,255,0.75)" stroke-width="1" stroke-dasharray="" stroke="black" points="412.6066017177982,98.52604935697805 412.6066017177982,110.60660171779821 402.0,100.0 402.0,87.91944763917984 412.6066017177982,98.52604935697805" />
<polygon fill="none" stroke-width="1" stroke-dasharray="2" stroke="gray" points="410.0,80.0 402.0,82.07055236082016 412.6066017177982,92.67715407861837 420.6066017177982,90.60660171779821" />
<polygon fill="rgba(192,192,192,0.75)" stroke-width="1" stroke-dasharray="" stroke="silver" points="420.6066017177982,100.60660171779821 412.6066017177982,98.53604935697805 402.0,87.92944763917984 410.0,90.0" />
<polygon fill="rgba(255,255,255,0.75)" stroke-width="1" stroke-dasharray="" stroke="black" points="420.6066017177982,90.59660171779821 420.6066017177982,100.61660171779822 410.0,90.01 410.0,79.99000000000001 420.6066017177982,90.59660171779821" />
<polygon fill="rgba(255,255,255,0.75)" stroke-width="1" stroke-dasharray="" stroke="black" points="410.0,89.98741826388925 401.99,87.91944763917984 401.99,100.0 18.010000000000048,100.0 18.010000000000048,100.0 18.009999999999998,87.91944763917984 10.0,89.98741826388925 10.0,80.01258173611075 18.009999999999998,82.08055236082016 18.009999999999998,70.0 18.009999999999998,70.0 401.99,70.0 401.99,82.08055236082016 410.0,80.01258173611075 410.0,80.01258173611075 410.0,89.98741826388925" />
<text style="" text-anchor="middle" x="210.0" y="85.0" fill="black">till back</text>
<polygon fill="none" stroke-width="1" stroke-dasharray="2" stroke="gray" points="120.60660171779821,152.66715407861838 120.60660171779821,140.6066017177982 20.606601717798213,140.6066017177982 20.606601717798213,152.66715407861838 20.606601717798213,152.66715407861838 28.61660171779821,152.66715407861838 28.61660171779821,158.54604935697805 20.606601717798213,158.54604935697805 20.606601717798213,170.6066017177982 120.60660171779821,170.6066017177982 120.60660171779821,158.54604935697805 112.59660171779821,158.54604935697805 112.59660171779821,152.66715407861838 120.60660171779821,152.66715407861838" />
<polygon fill="none" stroke-width="1" stroke-dasharray="2" stroke="gray" points="10.0,140.0113785302003 20.606601717798213,152.6857755484181 20.606601717798213,140.6066017177982 10.0,130.0 10.0,140.0113785302003" />
<polygon fill="none" stroke-width="1" stroke-dasharray="2" stroke="gray" points="10.0,149.9886214697997 10.0,160.0 20.606601717798213,170.6066017177982 20.606601717798213,158.52742788717833 10.0,149.9886214697997" />
<polygon fill="rgba(255,255,255,0.75)" stroke-width="1" stroke-dasharray="" stroke="black" points="10.0,140.0 18.0,140.0 28.606601717798213,152.67715407861837 20.606601717798213,152.67715407861837" />
<polygon fill="none" stroke-width="1" stroke-dasharray="2" stroke="gray" points="20.606601717798213,158.53604935697805 28.606601717798213,158.53604935697805 18.0,150.0 10.0,150.0" />
<polygon fill="none" stroke-width="1" stroke-dasharray="2" stroke="gray" points="18.0,139.99137853020028 18.0,150.00862146979972 28.606601717798213,158.54742788717832 28.606601717798213,152.6657755484181 18.0,139.99137853020028" />
<polygon fill="none" stroke-width="1" stroke-dasharray="2" stroke="gray" points="20.606601717798213,140.6066017177982 120.60660171779821,140.6066017177982 110.0,130.0 10.0,130.0" />
<polygon fill="rgba(192,192,192,0.75)" stroke-width="1" stroke-dasharray="" stroke="black" points="10.0,160.0 110.0,160.0 120.60660171779821,170.6066017177982 20.606601717798213,170.6066017177982" />
<polygon fill="rgba(255,255,255,0.75)" stroke-width="1" stroke-dasharray="" stroke="black" points="112.60660171779821,152.6657755484181 112.60660171779821,158.54742788717832 102.0,150.00862146979972 102.0,139.99137853020028 112.60660171779821,152.6657755484181" />
<polygon fill="rgba(255,255,255,0.75)" stroke-width="1" stroke-dasharray="" stroke="black" points="120.60660171779821,152.67715407861837 112.60660171779821,152.67715407861837 102.0,140.0 110.0,140.0" />
<polygon fill="none" stroke-width="1" stroke-dasharray="2" stroke="gray" points="110.0,150.0 102.0,150.0 112.60660171779821,158.53604935697805 120.60660171779821,158.53604935697805" />
<polygon fill="rgba(255,255,255,0.75)" stroke-width="1" stroke-dasharray="" stroke="black" points="120.60660171779821,152.6857755484181 110.0,140.0113785302003 110.0,130.0 120.60660171779821,140.6066017177982 120.60660171779821,152.6857755484181" />
<polygon fill="rgba(255,255,255,0.75)" stroke-width="1" stroke-dasharray="" stroke="black" points="120.60660171779821,158.52742788717833 120.60660171779821,170.6066017177982 110.0,160.0 110.0,149.9886214697997 120.60660171779821,158.52742788717833" />
<polygon fill="rgba(255,255,255,0.75)" stroke-width="1" stroke-dasharray="" stroke="black" points="110.0,150.01 110.0,160.0 10.0,160.0 10.0,150.01 10.0,150.01 18.009999999999998,150.01 18.009999999999998,139.99 10.0,139.99 10.0,130.0 110.0,130.0 110.0,139.99 101.99,139.99 101.99,150.01 110.0,150.01" />
<text style="" text-anchor="middle" x="60.0" y="145.0" fill="black">till left</text>
<polygon fill="none" stroke-width="1" stroke-dasharray="2" stroke="gray" points="120.60660171779821,212.66715407861838 120.60660171779821,200.6066017177982 20.606601717798213,200.6066017177982 20.606601717798213,212.66715407861838 20.606601717798213,212.66715407861838 28.61660171779821,212.66715407861838 28.61660171779821,218.54604935697805 20.606601717798213,218.54604935697805 20.606601717798213,230.6066017177982 120.60660171779821,230.6066017177982 120.60660171779821,218.54604935697805 112.59660171779821,218.54604935697805 112.59660171779821,212.66715407861838 120.60660171779821,212.66715407861838" />
<polygon fill="none" stroke-width="1" stroke-dasharray="2" stroke="gray" points="10.0,200.0113785302003 20.606601717798213,212.6857755484181 20.606601717798213,200.6066017177982 10.0,190.0 10.0,200.0113785302003" />
<polygon fill="none" stroke-width="1" stroke-dasharray="2" stroke="gray" points="10.0,209.9886214697997 10.0,220.0 20.606601717798213,230.6066017177982 20.606601717798213,218.52742788717833 10.0,209.9886214697997" />
<polygon fill="rgba(255,255,255,0.75)" stroke-width="1" stroke-dasharray="" stroke="black" points="10.0,200.0 18.0,200.0 28.606601717798213,212.67715407861837 20.606601717798213,212.67715407861837" />
<polygon fill="none" stroke-width="1" stroke-dasharray="2" stroke="gray" points="20.606601717798213,218.53604935697805 28.606601717798213,218.53604935697805 18.0,210.0 10.0,210.0" />
<polygon fill="none" stroke-width="1" stroke-dasharray="2" stroke="gray" points="18.0,199.99137853020028 18.0,210.00862146979972 28.606601717798213,218.54742788717832 28.606601717798213,212.6657755484181 18.0,199.99137853020028" />
<polygon fill="none" stroke-width="1" stroke-dasharray="2" stroke="gray" points="20.606601717798213,200.6066017177982 120.60660171779821,200.6066017177982 110.0,190.0 10.0,190.0" />
<polygon fill="rgba(192,192,192,0.75)" stroke-width="1" stroke-dasharray="" stroke="black" points="10.0,220.0 110.0,220.0 120.60660171779821,230.6066017177982 20.606601717798213,230.6066017177982" />
<polygon fill="rgba(255,255,255,0.75)" stroke-width="1" stroke-dasharray="" stroke="black" points="112.60660171779821,212.6657755484181 112.60660171779821,218.54742788717832 102.0,210.00862146979972 102.0,199.99137853020028 112.60660171779821,212.6657755484181" />
<polygon fill="rgba(255,255,255,0.75)" stroke-width="1" stroke-dasharray="" stroke="black" points="120.60660171779821,212.67715407861837 112.60660171779821,212.67715407861837 102.0,200.0 110.0,200.0" />
<polygon fill="none" stroke-width="1" stroke-dasharray="2" stroke="gray" points="110.0,210.0 102.0,210.0 112.60660171779821,218.53604935697805 120.60660171779821,218.53604935697805" />
<polygon fill="rgba(255,255,255,0.75)" stroke-width="1" stroke-dasharray="" stroke="black" points="120.60660171779821,212.6857755484181 110.0,200.0113785302003 110.0,190.0 120.60660171779821,200.6066017177982 120.60660171779821,212.6857755484181" />
<polygon fill="rgba(255,255,255,0.75)" stroke-width="1" stroke-dasharray="" stroke="black" points="120.60660171779821,218.52742788717833 120.60660171779821,230.6066017177982 110.0,220.0 110.0,209.9886214697997 120.60660171779821,218.52742788717833" />
<polygon fill="rgba(255,255,255,0.75)" stroke-width="1" stroke-dasharray="" stroke="black" points="110.0,210.01 110.0,220.0 10.0,220.0 10.0,210.01 10.0,210.01 18.009999999999998,210.01 18.009999999999998,199.99 10.0,199.99 10.0,190.0 110.0,190.0 110.0,199.99 101.99,199.99 101.99,210.01 110.0,210.01" />
<text style="" text-anchor="middle" x="60.0" y="205.0" fill="black">till right</text>
<polygon fill="none" stroke-width="1" stroke-dasharray="2" stroke="gray" points="12.121320343559642,252.12132034355963 12.121320343559642,352.12132034355966 412.12132034355966,352.12132034355966 412.12132034355966,252.12132034355963" />
<polygon fill="none" stroke-width="1" stroke-dasharray="2" stroke="gray" points="10.0,250.0 10.0,350.0 12.121320343559642,352.12132034355966 12.121320343559642,252.12132034355963" />
<polygon fill="none" stroke-width="1" stroke-dasharray="2" stroke="gray" points="12.121320343559642,252.12132034355963 412.12132034355966,252.12132034355963 410.0,250.0 10.0,250.0" />
<polygon fill="rgba(192,192,192,0.75)" stroke-width="1" stroke-dasharray="" stroke="black" points="10.0,350.0 410.0,350.0 412.12132034355966,352.12132034355966 12.121320343559642,352.12132034355966" />
<polygon fill="rgba(255,255,255,0.75)" stroke-width="1" stroke-dasharray="" stroke="black" points="412.12132034355966,252.12132034355963 412.12132034355966,352.12132034355966 410.0,350.0 410.0,250.0" />
<polygon fill="rgba(255,255,255,0.75)" stroke-width="1" stroke-dasharray="" stroke="black" points="10.0,250.0 410.0,250.0 410.0,350.0 10.0,350.0" />
<text style="" text-anchor="middle" x="210.0" y="300.0" fill="black">till bottom</text>
</svg>
