<svg width="1600" viewBox="0.0 -216.9 800.0 243.4" xmlns="http://www.w3.org/2000/svg">
<polygon fill="none" stroke-width="1" stroke-dasharray="2" stroke="gray" points="181.9,-191.9 193.9,-188.8 193.9,-201.9 181.9,-201.9 181.9,-191.9" />
<polygon fill="none" stroke-width="1" stroke-dasharray="2" stroke="gray" points="181.9,-162.4 181.9,-157.4 193.9,-154.3 193.9,-165.5 181.9,-162.4" />
<polygon fill="none" stroke-width="1" stroke-dasharray="2" stroke="gray" points="181.9,-127.9 181.9,-117.9 193.9,-117.9 193.9,-131.0 181.9,-127.9" />
<polygon fill="none" stroke-width="1" stroke-dasharray="2" stroke="gray" points="181.9,-127.9 193.9,-131.0 193.9,-117.9 569.9,-117.9 569.9,-131.0 581.9,-127.9 581.9,-127.9 581.9,-157.4 581.9,-157.4 569.9,-154.3 569.9,-165.5 581.9,-162.4 581.9,-191.9 569.9,-188.8 569.9,-201.9 569.9,-201.9 193.9,-201.9 193.9,-201.9 193.9,-188.8 181.9,-191.9 181.9,-162.4 193.9,-165.5 193.9,-154.3 181.9,-157.4 181.9,-157.4 181.9,-127.9" />
<polygon fill="none" stroke-width="1" stroke-dasharray="2" stroke="gray" points="181.9,-213.9 181.9,-201.9 211.9,-201.9 211.9,-213.9" />
<polygon fill="none" stroke-width="1" stroke-dasharray="2" stroke="gray" points="211.9,-213.9 211.9,-201.9 241.9,-201.9 241.9,-213.9" />
<polygon fill="none" stroke-width="1" stroke-dasharray="2" stroke="gray" points="181.9,-117.9 181.9,-114.9 581.9,-114.9 581.9,-117.9" />
<polygon fill="none" stroke-width="1" stroke-dasharray="2" stroke="gray" points="506.9,-213.9 506.9,-201.9 536.9,-201.9 536.9,-213.9" />
<polygon fill="none" stroke-width="1" stroke-dasharray="2" stroke="gray" points="536.9,-216.9 536.9,-201.9 551.9,-201.9 551.9,-216.9" />
<polygon fill="none" stroke-width="1" stroke-dasharray="2" stroke="gray" points="551.9,-213.9 551.9,-201.9 581.9,-201.9 581.9,-213.9" />
<polygon fill="none" stroke-width="1" stroke-dasharray="2" stroke="gray" points="569.9,-188.8 581.9,-191.9 581.9,-201.9 569.9,-201.9 569.9,-188.8" />
<polygon fill="none" stroke-width="1" stroke-dasharray="2" stroke="gray" points="569.9,-165.5 569.9,-154.3 581.9,-157.4 581.9,-162.4 569.9,-165.5" />
<polygon fill="none" stroke-width="1" stroke-dasharray="2" stroke="gray" points="569.9,-131.0 569.9,-117.9 581.9,-117.9 581.9,-127.9 569.9,-131.0" />
<polygon fill="none" stroke-width="1" stroke-dasharray="2" stroke="gray" points="173.4,-183.4 173.4,-153.9 181.9,-162.4 181.9,-191.9 173.4,-183.4" />
<polygon fill="none" stroke-width="1" stroke-dasharray="2" stroke="gray" points="173.4,-148.9 173.4,-119.4 181.9,-127.9 181.9,-157.4 173.4,-148.9" />
<polygon fill="rgba(255,255,255,0.75)" stroke-width="1" stroke-dasharray="" stroke="black" points="181.9,-191.9 193.9,-188.8 185.4,-180.3 173.4,-183.4" />
<polygon fill="none" stroke-width="1" stroke-dasharray="2" stroke="gray" points="181.9,-191.9 173.4,-183.4 185.4,-180.3 193.9,-188.8" />
<polygon fill="none" stroke-width="1" stroke-dasharray="2" stroke="gray" points="173.4,-153.9 185.4,-157.0 193.9,-165.5 181.9,-162.4" />
<polygon fill="rgba(255,255,255,0.75)" stroke-width="1" stroke-dasharray="" stroke="silver" points="193.9,-165.5 185.4,-157.0 173.4,-153.9 181.9,-162.4" />
<polygon fill="rgba(255,255,255,0.75)" stroke-width="1" stroke-dasharray="" stroke="black" points="181.9,-157.4 193.9,-154.3 185.4,-145.8 173.4,-148.9" />
<polygon fill="none" stroke-width="1" stroke-dasharray="2" stroke="gray" points="181.9,-157.4 173.4,-148.9 185.4,-145.8 193.9,-154.3" />
<polygon fill="none" stroke-width="1" stroke-dasharray="2" stroke="gray" points="173.4,-119.4 185.4,-122.5 193.9,-131.0 181.9,-127.9" />
<polygon fill="rgba(255,255,255,0.75)" stroke-width="1" stroke-dasharray="" stroke="silver" points="193.9,-131.0 185.4,-122.5 173.4,-119.4 181.9,-127.9" />
<polygon fill="none" stroke-width="1" stroke-dasharray="2" stroke="gray" points="185.4,-180.3 193.9,-188.8 193.9,-201.9 185.4,-193.4 185.4,-180.3" />
<polygon fill="none" stroke-width="1" stroke-dasharray="2" stroke="gray" points="185.4,-157.0 185.4,-145.8 193.9,-154.3 193.9,-165.5 185.4,-157.0" />
<polygon fill="none" stroke-width="1" stroke-dasharray="2" stroke="gray" points="185.4,-122.5 185.4,-109.4 193.9,-117.9 193.9,-131.0 185.4,-122.5" />
<polygon fill="rgba(255,255,255,0.75)" stroke-width="1" stroke-dasharray="" stroke="black" points="193.9,-201.9 569.9,-201.9 569.9,-201.9 561.4,-193.4 185.4,-193.4 193.9,-201.9" />
<polygon fill="none" stroke-width="1" stroke-dasharray="2" stroke="gray" points="193.9,-117.9 185.4,-109.4 561.4,-109.4 569.9,-117.9 569.9,-117.9 193.9,-117.9" />
<polygon fill="rgba(255,255,255,0.75)" stroke-width="1" stroke-dasharray="" stroke="black" points="569.9,-188.8 561.4,-180.3 561.4,-193.4 569.9,-201.9 569.9,-188.8" />
<polygon fill="rgba(255,255,255,0.75)" stroke-width="1" stroke-dasharray="" stroke="black" points="569.9,-165.5 569.9,-154.3 561.4,-145.8 561.4,-157.0 569.9,-165.5" />
<polygon fill="rgba(255,255,255,0.75)" stroke-width="1" stroke-dasharray="" stroke="black" points="569.9,-131.0 569.9,-117.9 561.4,-109.4 561.4,-122.5 569.9,-131.0" />
<polygon fill="none" stroke-width="1" stroke-dasharray="2" stroke="gray" points="569.9,-188.8 561.4,-180.3 573.4,-183.4 581.9,-191.9" />
<polygon fill="rgba(255,255,255,0.75)" stroke-width="1" stroke-dasharray="" stroke="silver" points="573.4,-183.4 561.4,-180.3 569.9,-188.8 581.9,-191.9" />
<polygon fill="rgba(255,255,255,0.75)" stroke-width="1" stroke-dasharray="" stroke="black" points="581.9,-162.4 573.4,-153.9 561.4,-157.0 569.9,-165.5" />
<polygon fill="none" stroke-width="1" stroke-dasharray="2" stroke="gray" points="581.9,-162.4 569.9,-165.5 561.4,-157.0 573.4,-153.9" />
<polygon fill="none" stroke-width="1" stroke-dasharray="2" stroke="gray" points="569.9,-154.3 561.4,-145.8 573.4,-148.9 581.9,-157.4" />
<polygon fill="rgba(255,255,255,0.75)" stroke-width="1" stroke-dasharray="" stroke="silver" points="573.4,-148.9 561.4,-145.8 569.9,-154.3 581.9,-157.4" />
<polygon fill="rgba(255,255,255,0.75)" stroke-width="1" stroke-dasharray="" stroke="black" points="581.9,-127.9 573.4,-119.4 561.4,-122.5 569.9,-131.0" />
<polygon fill="none" stroke-width="1" stroke-dasharray="2" stroke="gray" points="581.9,-127.9 569.9,-131.0 561.4,-122.5 573.4,-119.4" />
<polygon fill="rgba(255,255,255,0.75)" stroke-width="1" stroke-dasharray="" stroke="black" points="581.9,-191.9 581.9,-162.4 573.4,-153.9 573.4,-183.4 581.9,-191.9" />
<polygon fill="rgba(255,255,255,0.75)" stroke-width="1" stroke-dasharray="" stroke="black" points="581.9,-157.4 581.9,-127.9 573.4,-119.4 573.4,-148.9 581.9,-157.4" />
<polygon fill="none" stroke-width="1" stroke-dasharray="2" stroke="gray" points="173.4,-183.4 173.4,-153.9 185.4,-157.0 185.4,-180.3 173.4,-183.4" />
<polygon fill="none" stroke-width="1" stroke-dasharray="2" stroke="gray" points="173.4,-148.9 173.4,-119.4 185.4,-122.5 185.4,-145.8 173.4,-148.9" />
<polygon fill="rgba(255,255,255,0.75)" stroke-width="1" stroke-dasharray="" stroke="black" points="185.4,-109.4 185.4,-122.5 173.4,-119.4 173.4,-148.9 185.4,-145.8 185.4,-157.0 173.4,-153.9 173.4,-153.9 173.4,-183.4 173.4,-183.4 185.4,-180.3 185.4,-193.4 561.4,-193.4 561.4,-180.3 573.4,-183.4 573.4,-183.4 573.4,-153.9 573.4,-153.9 561.4,-157.0 561.4,-145.8 573.4,-148.9 573.4,-119.4 561.4,-122.5 561.4,-109.4 561.4,-109.4 185.4,-109.4" />
<polygon fill="none" stroke-width="1" stroke-dasharray="2" stroke="gray" points="185.4,-193.4 185.4,-178.4 561.4,-178.4 561.4,-193.4" />
<polygon fill="none" stroke-width="1" stroke-dasharray="2" stroke="gray" points="561.4,-180.3 561.4,-157.0 573.4,-153.9 573.4,-183.4 561.4,-180.3" />
<polygon fill="none" stroke-width="1" stroke-dasharray="2" stroke="gray" points="561.4,-145.8 561.4,-122.5 573.4,-119.4 573.4,-148.9 561.4,-145.8" />
<polygon fill="none" stroke-width="1" stroke-dasharray="2" stroke="gray" points="40.5,13.5 40.5,23.5 181.9,-117.9 181.9,-127.9 173.4,-119.4 173.4,-148.9 181.9,-157.4 181.9,-157.4 181.9,-162.4 181.9,-162.4 173.4,-153.9 173.4,-183.4 181.9,-191.9 181.9,-201.9 40.5,-60.5 40.5,-50.5 40.5,-50.5 49.0,-59.0 49.0,-29.5 40.5,-21.0 40.5,-16.0 49.0,-24.5 49.0,5.0 40.5,13.5" />
<polygon fill="rgba(255,255,255,0.75)" stroke-width="1" stroke-dasharray="" stroke="black" points="193.9,-201.9 52.5,-60.5 40.5,-60.5 181.9,-201.9" />
<polygon fill="none" stroke-width="1" stroke-dasharray="2" stroke="gray" points="181.9,-117.9 40.5,23.5 52.5,23.5 193.9,-117.9" />
<polygon fill="rgba(255,255,255,0.75)" stroke-width="1" stroke-dasharray="" stroke="black" points="52.5,-12.9 52.5,-24.1 52.5,-24.1 61.0,-32.6 61.0,-55.9 52.5,-47.4 52.5,-60.5 193.9,-201.9 193.9,-188.8 193.9,-188.8 185.4,-180.3 185.4,-157.0 193.9,-165.5 193.9,-154.3 185.4,-145.8 185.4,-122.5 193.9,-131.0 193.9,-131.0 193.9,-117.9 52.5,23.5 52.5,10.4 61.0,1.9 61.0,-21.4 52.5,-12.9" />
<polygon fill="none" stroke-width="1" stroke-dasharray="2" stroke="gray" points="40.5,-72.5 40.5,-60.5 181.9,-201.9 181.9,-213.9" />
<polygon fill="none" stroke-width="1" stroke-dasharray="2" stroke="gray" points="40.5,23.5 40.5,26.5 181.9,-114.9 181.9,-117.9" />
<polygon fill="none" stroke-width="1" stroke-dasharray="2" stroke="gray" points="61.0,-69.0 61.0,-54.0 185.4,-178.4 185.4,-193.4" />
<polygon fill="rgba(255,255,255,0.75)" stroke-width="1" stroke-dasharray="" stroke="black" points="181.9,-213.9 211.9,-213.9 70.5,-72.5 40.5,-72.5" />
<polygon fill="none" stroke-width="1" stroke-dasharray="2" stroke="gray" points="40.5,-60.5 70.5,-60.5 211.9,-201.9 181.9,-201.9" />
<polygon fill="rgba(255,255,255,0.75)" stroke-width="1" stroke-dasharray="" stroke="black" points="211.9,-213.9 211.9,-201.9 70.5,-60.5 70.5,-72.5" />
<polygon fill="none" stroke-width="1" stroke-dasharray="2" stroke="gray" points="70.5,-72.5 70.5,-60.5 211.9,-201.9 211.9,-213.9" />
<polygon fill="rgba(255,255,255,0.75)" stroke-width="1" stroke-dasharray="" stroke="black" points="211.9,-213.9 241.9,-213.9 100.5,-72.5 70.5,-72.5" />
<polygon fill="none" stroke-width="1" stroke-dasharray="2" stroke="gray" points="70.5,-60.5 100.5,-60.5 241.9,-201.9 211.9,-201.9" />
<polygon fill="rgba(255,255,255,0.75)" stroke-width="1" stroke-dasharray="" stroke="black" points="241.9,-213.9 241.9,-201.9 100.5,-60.5 100.5,-72.5" />
<polygon fill="rgba(255,255,255,0.75)" stroke-width="1" stroke-dasharray="" stroke="black" points="185.4,-193.4 561.4,-193.4 437.0,-69.0 61.0,-69.0" />
<polygon fill="none" stroke-width="1" stroke-dasharray="2" stroke="gray" points="61.0,-54.0 437.0,-54.0 561.4,-178.4 185.4,-178.4" />
<polygon fill="rgba(255,255,255,0.75)" stroke-width="1" stroke-dasharray="" stroke="black" points="181.9,-117.9 581.9,-117.9 440.5,23.5 40.5,23.5" />
<polygon fill="none" stroke-width="1" stroke-dasharray="2" stroke="gray" points="40.5,26.5 440.5,26.5 581.9,-114.9 181.9,-114.9" />
<polygon fill="none" stroke-width="1" stroke-dasharray="2" stroke="gray" points="365.5,-72.5 365.5,-60.5 506.9,-201.9 506.9,-213.9" />
<polygon fill="rgba(255,255,255,0.75)" stroke-width="1" stroke-dasharray="" stroke="black" points="506.9,-213.9 536.9,-213.9 395.5,-72.5 365.5,-72.5" />
<polygon fill="none" stroke-width="1" stroke-dasharray="2" stroke="gray" points="365.5,-60.5 395.5,-60.5 536.9,-201.9 506.9,-201.9" />
<polygon fill="none" stroke-width="1" stroke-dasharray="2" stroke="gray" points="395.5,-75.5 395.5,-60.5 536.9,-201.9 536.9,-216.9" />
<polygon fill="rgba(255,255,255,0.75)" stroke-width="1" stroke-dasharray="" stroke="black" points="536.9,-213.9 536.9,-201.9 395.5,-60.5 395.5,-72.5" />
<polygon fill="rgba(255,255,255,0.75)" stroke-width="1" stroke-dasharray="" stroke="black" points="536.9,-216.9 551.9,-216.9 410.5,-75.5 395.5,-75.5" />
<polygon fill="none" stroke-width="1" stroke-dasharray="2" stroke="gray" points="395.5,-60.5 410.5,-60.5 551.9,-201.9 536.9,-201.9" />
<polygon fill="rgba(255,255,255,0.75)" stroke-width="1" stroke-dasharray="" stroke="black" points="551.9,-216.9 551.9,-201.9 410.5,-60.5 410.5,-75.5" />
<polygon fill="none" stroke-width="1" stroke-dasharray="2" stroke="gray" points="410.5,-72.5 410.5,-60.5 551.9,-201.9 551.9,-213.9" />
<polygon fill="rgba(255,255,255,0.75)" stroke-width="1" stroke-dasharray="" stroke="black" points="551.9,-213.9 581.9,-213.9 440.5,-72.5 410.5,-72.5" />
<polygon fill="none" stroke-width="1" stroke-dasharray="2" stroke="gray" points="410.5,-60.5 440.5,-60.5 581.9,-201.9 551.9,-201.9" />
<polygon fill="rgba(255,255,255,0.75)" stroke-width="1" stroke-dasharray="" stroke="black" points="561.4,-193.4 561.4,-178.4 437.0,-54.0 437.0,-69.0" />
<polygon fill="none" stroke-width="1" stroke-dasharray="2" stroke="gray" points="569.9,-154.3 569.9,-165.5 569.9,-165.5 561.4,-157.0 561.4,-180.3 569.9,-188.8 569.9,-201.9 428.5,-60.5 428.5,-47.4 428.5,-47.4 437.0,-55.9 437.0,-32.6 428.5,-24.1 428.5,-12.9 437.0,-21.4 437.0,1.9 428.5,10.4 428.5,10.4 428.5,23.5 569.9,-117.9 569.9,-131.0 561.4,-122.5 561.4,-145.8 569.9,-154.3" />
<polygon fill="rgba(255,255,255,0.75)" stroke-width="1" stroke-dasharray="" stroke="black" points="428.5,-60.5 569.9,-201.9 581.9,-201.9 440.5,-60.5" />
<polygon fill="none" stroke-width="1" stroke-dasharray="2" stroke="gray" points="440.5,23.5 581.9,-117.9 569.9,-117.9 428.5,23.5" />
<polygon fill="rgba(255,255,255,0.75)" stroke-width="1" stroke-dasharray="" stroke="black" points="581.9,-213.9 581.9,-201.9 440.5,-60.5 440.5,-72.5" />
<polygon fill="rgba(255,255,255,0.75)" stroke-width="1" stroke-dasharray="" stroke="black" points="581.9,-127.9 581.9,-117.9 440.5,23.5 440.5,13.5 449.0,5.0 449.0,-24.5 440.5,-16.0 440.5,-16.0 440.5,-21.0 440.5,-21.0 449.0,-29.5 449.0,-59.0 440.5,-50.5 440.5,-60.5 581.9,-201.9 581.9,-191.9 581.9,-191.9 573.4,-183.4 573.4,-153.9 581.9,-162.4 581.9,-157.4 573.4,-148.9 573.4,-119.4 581.9,-127.9" />
<polygon fill="rgba(255,255,255,0.75)" stroke-width="1" stroke-dasharray="" stroke="black" points="581.9,-117.9 581.9,-114.9 440.5,26.5 440.5,23.5" />
<polygon fill="rgba(255,255,255,0.75)" stroke-width="1" stroke-dasharray="" stroke="black" points="61.0,-55.9 61.0,-32.6 49.0,-29.5 49.0,-59.0 61.0,-55.9" />
<polygon fill="rgba(255,255,255,0.75)" stroke-width="1" stroke-dasharray="" stroke="black" points="61.0,-21.4 61.0,1.9 49.0,5.0 49.0,-24.5 61.0,-21.4" />
<polygon fill="rgba(255,255,255,0.75)" stroke-width="1" stroke-dasharray="" stroke="black" points="61.0,-69.0 437.0,-69.0 437.0,-54.0 61.0,-54.0" />
<polygon fill="none" stroke-width="1" stroke-dasharray="2" stroke="gray" points="437.0,15.0 437.0,1.9 449.0,5.0 449.0,-24.5 437.0,-21.4 437.0,-32.6 449.0,-29.5 449.0,-29.5 449.0,-59.0 449.0,-59.0 437.0,-55.9 437.0,-69.0 61.0,-69.0 61.0,-55.9 49.0,-59.0 49.0,-59.0 49.0,-29.5 49.0,-29.5 61.0,-32.6 61.0,-21.4 49.0,-24.5 49.0,5.0 61.0,1.9 61.0,15.0 61.0,15.0 437.0,15.0" />
<polygon fill="rgba(255,255,255,0.75)" stroke-width="1" stroke-dasharray="" stroke="black" points="449.0,-59.0 449.0,-29.5 437.0,-32.6 437.0,-55.9 449.0,-59.0" />
<polygon fill="rgba(255,255,255,0.75)" stroke-width="1" stroke-dasharray="" stroke="black" points="449.0,-24.5 449.0,5.0 437.0,1.9 437.0,-21.4 449.0,-24.5" />
<polygon fill="none" stroke-width="1" stroke-dasharray="2" stroke="gray" points="52.5,-47.4 61.0,-55.9 49.0,-59.0 40.5,-50.5" />
<polygon fill="rgba(255,255,255,0.75)" stroke-width="1" stroke-dasharray="" stroke="silver" points="40.5,-21.0 49.0,-29.5 61.0,-32.6 52.5,-24.1" />
<polygon fill="none" stroke-width="1" stroke-dasharray="2" stroke="gray" points="52.5,-12.9 61.0,-21.4 49.0,-24.5 40.5,-16.0" />
<polygon fill="rgba(255,255,255,0.75)" stroke-width="1" stroke-dasharray="" stroke="silver" points="40.5,13.5 49.0,5.0 61.0,1.9 52.5,10.4" />
<polygon fill="none" stroke-width="1" stroke-dasharray="2" stroke="gray" points="40.5,-50.5 40.5,-21.0 49.0,-29.5 49.0,-59.0 40.5,-50.5" />
<polygon fill="none" stroke-width="1" stroke-dasharray="2" stroke="gray" points="40.5,-16.0 40.5,13.5 49.0,5.0 49.0,-24.5 40.5,-16.0" />
<polygon fill="rgba(255,255,255,0.75)" stroke-width="1" stroke-dasharray="" stroke="black" points="49.0,-59.0 61.0,-55.9 52.5,-47.4 40.5,-50.5" />
<polygon fill="none" stroke-width="1" stroke-dasharray="2" stroke="gray" points="40.5,-21.0 52.5,-24.1 61.0,-32.6 49.0,-29.5" />
<polygon fill="rgba(255,255,255,0.75)" stroke-width="1" stroke-dasharray="" stroke="black" points="49.0,-24.5 61.0,-21.4 52.5,-12.9 40.5,-16.0" />
<polygon fill="none" stroke-width="1" stroke-dasharray="2" stroke="gray" points="40.5,13.5 52.5,10.4 61.0,1.9 49.0,5.0" />
<polygon fill="none" stroke-width="1" stroke-dasharray="2" stroke="gray" points="52.5,-47.4 61.0,-55.9 61.0,-69.0 52.5,-60.5 52.5,-47.4" />
<polygon fill="none" stroke-width="1" stroke-dasharray="2" stroke="gray" points="52.5,-24.1 52.5,-12.9 61.0,-21.4 61.0,-32.6 52.5,-24.1" />
<polygon fill="none" stroke-width="1" stroke-dasharray="2" stroke="gray" points="52.5,10.4 52.5,23.5 61.0,15.0 61.0,1.9 52.5,10.4" />
<polygon fill="rgba(255,255,255,0.75)" stroke-width="1" stroke-dasharray="" stroke="black" points="428.5,-60.5 52.5,-60.5 52.5,-60.5 61.0,-69.0 437.0,-69.0 428.5,-60.5" />
<polygon fill="none" stroke-width="1" stroke-dasharray="2" stroke="gray" points="428.5,23.5 437.0,15.0 61.0,15.0 52.5,23.5 52.5,23.5 428.5,23.5" />
<polygon fill="rgba(255,255,255,0.75)" stroke-width="1" stroke-dasharray="" stroke="black" points="437.0,-55.9 428.5,-47.4 428.5,-60.5 437.0,-69.0 437.0,-55.9" />
<polygon fill="rgba(255,255,255,0.75)" stroke-width="1" stroke-dasharray="" stroke="black" points="437.0,-32.6 437.0,-21.4 428.5,-12.9 428.5,-24.1 437.0,-32.6" />
<polygon fill="rgba(255,255,255,0.75)" stroke-width="1" stroke-dasharray="" stroke="black" points="437.0,1.9 437.0,15.0 428.5,23.5 428.5,10.4 437.0,1.9" />
<polygon fill="rgba(255,255,255,0.75)" stroke-width="1" stroke-dasharray="" stroke="silver" points="440.5,-50.5 428.5,-47.4 437.0,-55.9 449.0,-59.0" />
<polygon fill="none" stroke-width="1" stroke-dasharray="2" stroke="gray" points="440.5,-50.5 449.0,-59.0 437.0,-55.9 428.5,-47.4" />
<polygon fill="none" stroke-width="1" stroke-dasharray="2" stroke="gray" points="449.0,-29.5 437.0,-32.6 428.5,-24.1 440.5,-21.0" />
<polygon fill="rgba(255,255,255,0.75)" stroke-width="1" stroke-dasharray="" stroke="black" points="428.5,-24.1 437.0,-32.6 449.0,-29.5 440.5,-21.0" />
<polygon fill="rgba(255,255,255,0.75)" stroke-width="1" stroke-dasharray="" stroke="silver" points="440.5,-16.0 428.5,-12.9 437.0,-21.4 449.0,-24.5" />
<polygon fill="none" stroke-width="1" stroke-dasharray="2" stroke="gray" points="440.5,-16.0 449.0,-24.5 437.0,-21.4 428.5,-12.9" />
<polygon fill="none" stroke-width="1" stroke-dasharray="2" stroke="gray" points="449.0,5.0 437.0,1.9 428.5,10.4 440.5,13.5" />
<polygon fill="rgba(255,255,255,0.75)" stroke-width="1" stroke-dasharray="" stroke="black" points="428.5,10.4 437.0,1.9 449.0,5.0 440.5,13.5" />
<polygon fill="rgba(255,255,255,0.75)" stroke-width="1" stroke-dasharray="" stroke="black" points="449.0,-59.0 449.0,-29.5 440.5,-21.0 440.5,-50.5 449.0,-59.0" />
<polygon fill="rgba(255,255,255,0.75)" stroke-width="1" stroke-dasharray="" stroke="black" points="449.0,-24.5 449.0,5.0 440.5,13.5 440.5,-16.0 449.0,-24.5" />
<polygon fill="rgba(255,255,255,0.75)" stroke-width="1" stroke-dasharray="" stroke="black" points="52.5,-47.4 40.5,-50.5 40.5,-60.5 52.5,-60.5 52.5,-47.4" />
<polygon fill="rgba(255,255,255,0.75)" stroke-width="1" stroke-dasharray="" stroke="black" points="52.5,-24.1 52.5,-12.9 40.5,-16.0 40.5,-21.0 52.5,-24.1" />
<polygon fill="rgba(255,255,255,0.75)" stroke-width="1" stroke-dasharray="" stroke="black" points="52.5,10.4 52.5,23.5 40.5,23.5 40.5,13.5 52.5,10.4" />
<polygon fill="rgba(255,255,255,0.75)" stroke-width="1" stroke-dasharray="" stroke="black" points="40.5,-72.5 70.5,-72.5 70.5,-60.5 40.5,-60.5" />
<polygon fill="rgba(255,255,255,0.75)" stroke-width="1" stroke-dasharray="" stroke="black" points="70.5,-72.5 100.5,-72.5 100.5,-60.5 70.5,-60.5" />
<polygon fill="rgba(255,255,255,0.75)" stroke-width="1" stroke-dasharray="" stroke="black" points="440.5,13.5 428.5,10.4 428.5,23.5 52.5,23.5 52.5,10.4 40.5,13.5 40.5,13.5 40.5,-16.0 40.5,-16.0 52.5,-12.9 52.5,-24.1 40.5,-21.0 40.5,-50.5 52.5,-47.4 52.5,-60.5 52.5,-60.5 428.5,-60.5 428.5,-60.5 428.5,-47.4 440.5,-50.5 440.5,-21.0 428.5,-24.1 428.5,-12.9 440.5,-16.0 440.5,-16.0 440.5,13.5" />
<polygon fill="rgba(255,255,255,0.75)" stroke-width="1" stroke-dasharray="" stroke="black" points="40.5,23.5 440.5,23.5 440.5,26.5 40.5,26.5" />
<polygon fill="rgba(255,255,255,0.75)" stroke-width="1" stroke-dasharray="" stroke="black" points="365.5,-72.5 395.5,-72.5 395.5,-60.5 365.5,-60.5" />
<polygon fill="rgba(255,255,255,0.75)" stroke-width="1" stroke-dasharray="" stroke="black" points="395.5,-75.5 410.5,-75.5 410.5,-60.5 395.5,-60.5" />
<polygon fill="rgba(255,255,255,0.75)" stroke-width="1" stroke-dasharray="" stroke="black" points="410.5,-72.5 440.5,-72.5 440.5,-60.5 410.5,-60.5" />
<polygon fill="rgba(255,255,255,0.75)" stroke-width="1" stroke-dasharray="" stroke="black" points="440.5,-50.5 428.5,-47.4 428.5,-60.5 440.5,-60.5 440.5,-50.5" />
<polygon fill="rgba(255,255,255,0.75)" stroke-width="1" stroke-dasharray="" stroke="black" points="440.5,-21.0 440.5,-16.0 428.5,-12.9 428.5,-24.1 440.5,-21.0" />
<polygon fill="rgba(255,255,255,0.75)" stroke-width="1" stroke-dasharray="" stroke="black" points="440.5,13.5 440.5,23.5 428.5,23.5 428.5,10.4 440.5,13.5" />
</svg>
