<svg width="1100" viewBox="0 0 550 306.12132034355966" xmlns="http://www.w3.org/2000/svg">
<polygon fill="none" stroke-width="1" stroke-dasharray="2" stroke="gray" points="407.64685424949243,45.65685424949238 407.6468542494924,33.57630188867221 415.65685424949237,35.64427251338164 415.65685424949237,25.669435985603126 407.6468542494924,27.737406610312544 407.64685424949243,15.65685424949238 407.64685424949243,15.65685424949238 23.66685424949237,15.65685424949238 23.666854249492378,27.737406610312544 15.65685424949238,25.669435985603126 15.65685424949238,25.669435985603126 15.65685424949238,35.64427251338163 15.65685424949238,35.64427251338163 23.666854249492378,33.57630188867221 23.666854249492378,45.65685424949238 407.64685424949243,45.65685424949238" />
<polygon fill="none" stroke-width="1" stroke-dasharray="2" stroke="gray" points="10.0,19.990000000000002 10.0,30.01 15.65685424949238,35.66685424949238 15.65685424949238,25.64685424949238 10.0,19.990000000000002" />
<polygon fill="none" stroke-width="1" stroke-dasharray="2" stroke="gray" points="15.65685424949238,25.65685424949238 23.65685424949238,27.727406610312546 18.0,22.070552360820166 10.0,20.0" />
<polygon fill="rgba(255,255,255,0.75)" stroke-width="1" stroke-dasharray="" stroke="black" points="10.0,30.0 18.0,27.929447639179834 23.65685424949238,33.58630188867221 15.65685424949238,35.65685424949238" />
<polygon fill="none" stroke-width="1" stroke-dasharray="2" stroke="gray" points="18.0,22.080552360820164 23.65685424949238,27.737406610312544 23.65685424949238,15.65685424949238 18.0,10.0 18.0,22.080552360820164" />
<polygon fill="none" stroke-width="1" stroke-dasharray="2" stroke="gray" points="18.0,27.919447639179833 18.0,40.0 23.65685424949238,45.65685424949238 23.65685424949238,33.57630188867222 18.0,27.919447639179833" />
<polygon fill="none" stroke-width="1" stroke-dasharray="2" stroke="gray" points="401.99000000000007,10.0 18.009999999999998,10.0 18.009999999999998,10.0 23.666854249492427,15.65685424949238 407.6468542494924,15.65685424949238 401.99000000000007,10.0" />
<polygon fill="rgba(192,192,192,0.75)" stroke-width="1" stroke-dasharray="" stroke="black" points="401.99000000000007,40.0 407.6468542494924,45.65685424949238 23.666854249492427,45.65685424949238 18.009999999999998,40.0 18.009999999999998,40.0 401.99000000000007,40.0" />
<polygon fill="rgba(255,255,255,0.75)" stroke-width="1" stroke-dasharray="" stroke="black" points="407.65685424949237,27.737406610312544 402.0,22.080552360820164 402.0,10.0 407.65685424949237,15.65685424949238 407.65685424949237,27.737406610312544" />
<polygon fill="rgba(255,255,255,0.75)" stroke-width="1" stroke-dasharray="" stroke="black" points="407.65685424949237,33.57630188867221 407.65685424949237,45.65685424949238 402.0,40.0 402.0,27.919447639179836 407.65685424949237,33.57630188867221" />
<polygon fill="none" stroke-width="1" stroke-dasharray="2" stroke="gray" points="410.0,20.0 402.0,22.070552360820166 407.65685424949237,27.727406610312546 415.65685424949237,25.65685424949238" />
<polygon fill="rgba(192,192,192,0.75)" stroke-width="1" stroke-dasharray="" stroke="silver" points="415.65685424949237,35.65685424949238 407.65685424949237,33.58630188867221 402.0,27.929447639179834 410.0,30.0" />
<polygon fill="rgba(255,255,255,0.75)" stroke-width="1" stroke-dasharray="" stroke="black" points="415.65685424949237,25.64685424949238 415.65685424949237,35.66685424949238 410.0,30.01 410.0,19.990000000000002 415.65685424949237,25.64685424949238" />
<polygon fill="rgba(255,255,255,0.75)" stroke-width="1" stroke-dasharray="" stroke="black" points="410.0,29.987418263889253 401.99,27.919447639179833 401.99,40.0 18.010000000000048,40.0 18.010000000000048,40.0 18.009999999999998,27.919447639179833 10.0,29.987418263889253 10.0,20.012581736110747 18.009999999999998,22.080552360820164 18.009999999999998,10.0 18.009999999999998,10.0 401.99,10.0 401.99,22.080552360820164 410.0,20.012581736110747 410.0,20.012581736110747 410.0,29.987418263889253" />
<text style="" text-anchor="middle" x="210.0" y="25.0" fill="black">till front</text>
<polygon fill="none" stroke-width="1" stroke-dasharray="2" stroke="gray" points="407.64685424949243,91.65685424949238 407.6468542494924,79.57630188867222 415.65685424949237,81.64427251338164 415.65685424949237,71.66943598560313 407.6468542494924,73.73740661031255 407.64685424949243,61.65685424949238 407.64685424949243,61.65685424949238 23.66685424949237,61.65685424949238 23.666854249492378,73.73740661031255 15.65685424949238,71.66943598560313 15.65685424949238,71.66943598560313 15.65685424949238,81.64427251338164 15.65685424949238,81.64427251338164 23.666854249492378,79.57630188867222 23.666854249492378,91.65685424949238 407.64685424949243,91.65685424949238" />
<polygon fill="none" stroke-width="1" stroke-dasharray="2" stroke="gray" points="10.0,65.99 10.0,76.01 15.65685424949238,81.66685424949239 15.65685424949238,71.64685424949239 10.0,65.99" />
<polygon fill="none" stroke-width="1" stroke-dasharray="2" stroke="gray" points="15.65685424949238,71.65685424949238 23.65685424949238,73.72740661031254 18.0,68.07055236082016 10.0,66.0" />
<polygon fill="rgba(255,255,255,0.75)" stroke-width="1" stroke-dasharray="" stroke="black" points="10.0,76.0 18.0,73.92944763917984 23.65685424949238,79.58630188867222 15.65685424949238,81.65685424949238" />
<polygon fill="none" stroke-width="1" stroke-dasharray="2" stroke="gray" points="18.0,68.08055236082016 23.65685424949238,73.73740661031255 23.65685424949238,61.65685424949238 18.0,56.0 18.0,68.08055236082016" />
<polygon fill="none" stroke-width="1" stroke-dasharray="2" stroke="gray" points="18.0,73.91944763917984 18.0,86.0 23.65685424949238,91.65685424949238 23.65685424949238,79.57630188867222 18.0,73.91944763917984" />
<polygon fill="none" stroke-width="1" stroke-dasharray="2" stroke="gray" points="401.99000000000007,56.0 18.009999999999998,56.0 18.009999999999998,56.0 23.666854249492427,61.65685424949238 407.6468542494924,61.65685424949238 401.99000000000007,56.0" />
<polygon fill="rgba(192,192,192,0.75)" stroke-width="1" stroke-dasharray="" stroke="black" points="401.99000000000007,86.0 407.6468542494924,91.65685424949238 23.666854249492427,91.65685424949238 18.009999999999998,86.0 18.009999999999998,86.0 401.99000000000007,86.0" />
<polygon fill="rgba(255,255,255,0.75)" stroke-width="1" stroke-dasharray="" stroke="black" points="407.65685424949237,73.73740661031255 402.0,68.08055236082016 402.0,56.0 407.65685424949237,61.65685424949238 407.65685424949237,73.73740661031255" />
<polygon fill="rgba(255,255,255,0.75)" stroke-width="1" stroke-dasharray="" stroke="black" points="407.65685424949237,79.57630188867222 407.65685424949237,91.65685424949238 402.0,86.0 402.0,73.91944763917984 407.65685424949237,79.57630188867222" />
<polygon fill="none" stroke-width="1" stroke-dasharray="2" stroke="gray" points="410.0,66.0 402.0,68.07055236082016 407.65685424949237,73.72740661031254 415.65685424949237,71.65685424949238" />
<polygon fill="rgba(192,192,192,0.75)" stroke-width="1" stroke-dasharray="" stroke="silver" points="415.65685424949237,81.65685424949238 407.65685424949237,79.58630188867222 402.0,73.92944763917984 410.0,76.0" />
<polygon fill="rgba(255,255,255,0.75)" stroke-width="1" stroke-dasharray="" stroke="black" points="415.65685424949237,71.64685424949238 415.65685424949237,81.66685424949239 410.0,76.01 410.0,65.99000000000001 415.65685424949237,71.64685424949238" />
<polygon fill="rgba(255,255,255,0.75)" stroke-width="1" stroke-dasharray="" stroke="black" points="410.0,75.98741826388925 401.99,73.91944763917984 401.99,86.0 18.010000000000048,86.0 18.010000000000048,86.0 18.009999999999998,73.91944763917984 10.0,75.98741826388925 10.0,66.01258173611075 18.009999999999998,68.08055236082016 18.009999999999998,56.0 18.009999999999998,56.0 401.99,56.0 401.99,68.08055236082016 410.0,66.01258173611075 410.0,66.01258173611075 410.0,75.98741826388925" />
<text style="" text-anchor="middle" x="210.0" y="71.0" fill="black">till back</text>
<polygon fill="none" stroke-width="1" stroke-dasharray="2" stroke="gray" points="115.65685424949238,119.71740661031255 115.65685424949238,107.65685424949238 15.65685424949238,107.65685424949238 15.65685424949238,119.71740661031255 15.65685424949238,119.71740661031255 23.666854249492378,119.71740661031255 23.666854249492378,125.59630188867222 15.65685424949238,125.59630188867222 15.65685424949238,137.65685424949237 115.65685424949238,137.65685424949237 115.65685424949238,125.59630188867222 107.64685424949238,125.59630188867222 107.64685424949238,119.71740661031255 115.65685424949238,119.71740661031255" />
<polygon fill="none" stroke-width="1" stroke-dasharray="2" stroke="gray" points="10.0,112.01258173611075 15.65685424949238,119.7348248742018 15.65685424949238,107.65685424949238 10.0,102.0 10.0,112.01258173611075" />
<polygon fill="none" stroke-width="1" stroke-dasharray="2" stroke="gray" points="10.0,121.98741826388925 10.0,132.0 15.65685424949238,137.65685424949237 15.65685424949238,125.57888362478296 10.0,121.98741826388925" />
<polygon fill="rgba(255,255,255,0.75)" stroke-width="1" stroke-dasharray="" stroke="black" points="10.0,112.0 18.0,112.0 23.65685424949238,119.72740661031254 15.65685424949238,119.72740661031254" />
<polygon fill="none" stroke-width="1" stroke-dasharray="2" stroke="gray" points="15.65685424949238,125.58630188867222 23.65685424949238,125.58630188867222 18.0,122.0 10.0,122.0" />
<polygon fill="none" stroke-width="1" stroke-dasharray="2" stroke="gray" points="18.0,111.99258173611075 18.0,122.00741826388925 23.65685424949238,125.59888362478297 23.65685424949238,119.7148248742018 18.0,111.99258173611075" />
<polygon fill="none" stroke-width="1" stroke-dasharray="2" stroke="gray" points="15.65685424949238,107.65685424949238 115.65685424949238,107.65685424949238 110.0,102.0 10.0,102.0" />
<polygon fill="rgba(192,192,192,0.75)" stroke-width="1" stroke-dasharray="" stroke="black" points="10.0,132.0 110.0,132.0 115.65685424949238,137.65685424949237 15.65685424949238,137.65685424949237" />
<polygon fill="rgba(255,255,255,0.75)" stroke-width="1" stroke-dasharray="" stroke="black" points="107.65685424949238,119.7148248742018 107.65685424949238,125.59888362478297 102.0,122.00741826388925 102.0,111.99258173611075 107.65685424949238,119.7148248742018" />
<polygon fill="rgba(255,255,255,0.75)" stroke-width="1" stroke-dasharray="" stroke="black" points="115.65685424949238,119.72740661031254 107.65685424949238,119.72740661031254 102.0,112.0 110.0,112.0" />
<polygon fill="none" stroke-width="1" stroke-dasharray="2" stroke="gray" points="110.0,122.0 102.0,122.0 107.65685424949238,125.58630188867222 115.65685424949238,125.58630188867222" />
<polygon fill="rgba(255,255,255,0.75)" stroke-width="1" stroke-dasharray="" stroke="black" points="115.65685424949238,119.7348248742018 110.0,112.01258173611075 110.0,102.0 115.65685424949238,107.65685424949238 115.65685424949238,119.7348248742018" />
<polygon fill="rgba(255,255,255,0.75)" stroke-width="1" stroke-dasharray="" stroke="black" points="115.65685424949238,125.57888362478296 115.65685424949238,137.65685424949237 110.0,132.0 110.0,121.98741826388925 115.65685424949238,125.57888362478296" />
<polygon fill="rgba(255,255,255,0.75)" stroke-width="1" stroke-dasharray="" stroke="black" points="110.0,122.01 110.0,132.0 10.0,132.0 10.0,122.01 10.0,122.01 18.009999999999998,122.01 18.009999999999998,111.99 10.0,111.99000000000001 10.0,102.0 110.0,102.0 110.0,111.99000000000001 101.99,111.99 101.99,122.01 110.0,122.01" />
<text style="" text-anchor="middle" x="60.0" y="117.0" fill="black">till left</text>
<polygon fill="none" stroke-width="1" stroke-dasharray="2" stroke="gray" points="115.65685424949238,165.71740661031254 115.65685424949238,153.65685424949237 15.65685424949238,153.65685424949237 15.65685424949238,165.71740661031254 15.65685424949238,165.71740661031254 23.666854249492378,165.71740661031254 23.666854249492378,171.5963018886722 15.65685424949238,171.5963018886722 15.65685424949238,183.65685424949237 115.65685424949238,183.65685424949237 115.65685424949238,171.5963018886722 107.64685424949238,171.5963018886722 107.64685424949238,165.71740661031254 115.65685424949238,165.71740661031254" />
<polygon fill="none" stroke-width="1" stroke-dasharray="2" stroke="gray" points="10.0,158.01258173611075 15.65685424949238,165.7348248742018 15.65685424949238,153.65685424949237 10.0,148.0 10.0,158.01258173611075" />
<polygon fill="none" stroke-width="1" stroke-dasharray="2" stroke="gray" points="10.0,167.98741826388925 10.0,178.0 15.65685424949238,183.65685424949237 15.65685424949238,171.57888362478295 10.0,167.98741826388925" />
<polygon fill="rgba(255,255,255,0.75)" stroke-width="1" stroke-dasharray="" stroke="black" points="10.0,158.0 18.0,158.0 23.65685424949238,165.72740661031253 15.65685424949238,165.72740661031253" />
<polygon fill="none" stroke-width="1" stroke-dasharray="2" stroke="gray" points="15.65685424949238,171.5863018886722 23.65685424949238,171.5863018886722 18.0,168.0 10.0,168.0" />
<polygon fill="none" stroke-width="1" stroke-dasharray="2" stroke="gray" points="18.0,157.99258173611074 18.0,168.00741826388926 23.65685424949238,171.59888362478296 23.65685424949238,165.71482487420178 18.0,157.99258173611074" />
<polygon fill="none" stroke-width="1" stroke-dasharray="2" stroke="gray" points="15.65685424949238,153.65685424949237 115.65685424949238,153.65685424949237 110.0,148.0 10.0,148.0" />
<polygon fill="rgba(192,192,192,0.75)" stroke-width="1" stroke-dasharray="" stroke="black" points="10.0,178.0 110.0,178.0 115.65685424949238,183.65685424949237 15.65685424949238,183.65685424949237" />
<polygon fill="rgba(255,255,255,0.75)" stroke-width="1" stroke-dasharray="" stroke="black" points="107.65685424949238,165.71482487420178 107.65685424949238,171.59888362478296 102.0,168.00741826388926 102.0,157.99258173611076 107.65685424949238,165.71482487420178" />
<polygon fill="rgba(255,255,255,0.75)" stroke-width="1" stroke-dasharray="" stroke="black" points="115.65685424949238,165.72740661031253 107.65685424949238,165.72740661031253 102.0,158.0 110.0,158.0" />
<polygon fill="none" stroke-width="1" stroke-dasharray="2" stroke="gray" points="110.0,168.0 102.0,168.0 107.65685424949238,171.5863018886722 115.65685424949238,171.5863018886722" />
<polygon fill="rgba(255,255,255,0.75)" stroke-width="1" stroke-dasharray="" stroke="black" points="115.65685424949238,165.7348248742018 110.0,158.01258173611075 110.0,148.0 115.65685424949238,153.65685424949237 115.65685424949238,165.7348248742018" />
<polygon fill="rgba(255,255,255,0.75)" stroke-width="1" stroke-dasharray="" stroke="black" points="115.65685424949238,171.57888362478295 115.65685424949238,183.65685424949237 110.0,178.0 110.0,167.98741826388925 115.65685424949238,171.57888362478295" />
<polygon fill="rgba(255,255,255,0.75)" stroke-width="1" stroke-dasharray="" stroke="black" points="110.0,168.01 110.0,178.0 10.0,178.0 10.0,168.01 10.0,168.01 18.009999999999998,168.01 18.009999999999998,157.99 10.0,157.99 10.0,148.0 110.0,148.0 110.0,157.99 101.99,157.99 101.99,168.01 110.0,168.01" />
<text style="" text-anchor="middle" x="60.0" y="163.0" fill="black">till right</text>
<polygon fill="none" stroke-width="1" stroke-dasharray="2" stroke="gray" points="12.121320343559642,196.12132034355963 12.121320343559642,296.12132034355966 412.12132034355966,296.12132034355966 412.12132034355966,196.12132034355963" />
<polygon fill="none" stroke-width="1" stroke-dasharray="2" stroke="gray" points="10.0,194.0 10.0,294.0 12.121320343559642,296.12132034355966 12.121320343559642,196.12132034355963" />
<polygon fill="none" stroke-width="1" stroke-dasharray="2" stroke="gray" points="12.121320343559642,196.12132034355963 412.12132034355966,196.12132034355963 410.0,194.0 10.0,194.0" />
<polygon fill="rgba(192,192,192,0.75)" stroke-width="1" stroke-dasharray="" stroke="black" points="10.0,294.0 410.0,294.0 412.12132034355966,296.12132034355966 12.121320343559642,296.12132034355966" />
<polygon fill="rgba(255,255,255,0.75)" stroke-width="1" stroke-dasharray="" stroke="black" points="412.12132034355966,196.12132034355963 412.12132034355966,296.12132034355966 410.0,294.0 410.0,194.0" />
<polygon fill="rgba(255,255,255,0.75)" stroke-width="1" stroke-dasharray="" stroke="black" points="10.0,194.0 410.0,194.0 410.0,294.0 10.0,294.0" />
<text style="" text-anchor="middle" x="210.0" y="244.0" fill="black">till bottom</text>
</svg>
