<svg width="1100" viewBox="0 0 550 793.6568542494924" xmlns="http://www.w3.org/2000/svg">
<polygon fill="none" stroke-width="1" stroke-dasharray="2" stroke="gray" points="430.4752813742386,118.48528137423857 430.4752813742386,97.36945283300831 442.4852813742386,100.47269749026084 442.4852813742386,81.9978652582163 430.4752813742386,85.10110991546883 430.4752813742386,63.86945283300832 442.4852813742386,66.97269749026084 442.4852813742386,66.97269749026084 442.4852813742386,48.49786525821631 442.4852813742386,48.49786525821631 430.4752813742386,51.60110991546882 430.4752813742386,18.485281374238568 30.495281374238562,18.485281374238568 30.49528137423857,51.60110991546882 18.48528137423857,48.497865258216294 18.48528137423857,48.497865258216294 18.48528137423857,66.97269749026084 18.48528137423857,66.97269749026084 30.49528137423857,63.86945283300832 30.49528137423857,85.10110991546883 18.48528137423857,81.9978652582163 18.48528137423857,100.47269749026083 30.49528137423857,97.36945283300831 30.495281374238562,118.48528137423857 30.495281374238562,118.48528137423857 430.4752813742386,118.48528137423857" />
<polygon fill="rgba(192,192,192,0.75)" stroke-width="1" stroke-dasharray="" stroke="black" points="426.9397474683059,114.94974746830583 430.4752813742386,118.48528137423857 30.49528137423862,118.48528137423857 26.95974746830583,114.94974746830583 26.95974746830583,114.94974746830583 426.9397474683059,114.94974746830583" />
<polygon fill="none" stroke-width="1" stroke-dasharray="2" stroke="gray" points="426.9397474683059,119.94974746830583 26.95974746830583,119.94974746830583 26.95974746830583,119.94974746830583 30.49528137423862,123.48528137423857 430.4752813742386,123.48528137423857 426.9397474683059,119.94974746830583" />
<polygon fill="none" stroke-width="1" stroke-dasharray="2" stroke="gray" points="10.0,39.989999999999995 10.0,58.51 18.48528137423857,66.99528137423857 18.48528137423857,48.47528137423856 10.0,39.989999999999995" />
<polygon fill="none" stroke-width="1" stroke-dasharray="2" stroke="gray" points="10.0,73.49000000000001 10.0,92.01 18.48528137423857,100.49528137423857 18.48528137423857,81.97528137423858 10.0,73.49000000000001" />
<polygon fill="none" stroke-width="1" stroke-dasharray="2" stroke="gray" points="18.48528137423857,48.48528137423857 30.48528137423857,51.59110991546882 22.0,43.10582854123025 10.0,40.0" />
<polygon fill="rgba(255,255,255,0.75)" stroke-width="1" stroke-dasharray="" stroke="black" points="10.0,58.5 22.0,55.39417145876975 30.48528137423857,63.879452833008315 18.48528137423857,66.98528137423857" />
<polygon fill="none" stroke-width="1" stroke-dasharray="2" stroke="gray" points="18.48528137423857,81.98528137423857 30.48528137423857,85.09110991546882 22.0,76.60582854123025 10.0,73.5" />
<polygon fill="rgba(255,255,255,0.75)" stroke-width="1" stroke-dasharray="" stroke="black" points="10.0,92.0 22.0,88.89417145876975 30.48528137423857,97.37945283300832 18.48528137423857,100.48528137423857" />
<polygon fill="none" stroke-width="1" stroke-dasharray="2" stroke="gray" points="22.0,43.11582854123024 30.48528137423857,51.601109915468825 30.48528137423857,18.485281374238568 22.0,10.0 22.0,43.11582854123024" />
<polygon fill="none" stroke-width="1" stroke-dasharray="2" stroke="gray" points="22.0,55.38417145876975 22.0,76.61582854123026 30.48528137423857,85.10110991546883 30.48528137423857,63.86945283300832 22.0,55.38417145876975" />
<polygon fill="none" stroke-width="1" stroke-dasharray="2" stroke="gray" points="22.0,88.88417145876974 22.0,122.0 30.48528137423857,130.48528137423858 30.48528137423857,123.48528137423857 26.949747468305834,119.94974746830583 26.949747468305834,114.94974746830583 30.48528137423857,118.48528137423857 30.48528137423857,97.36945283300831 22.0,88.88417145876974" />
<polygon fill="none" stroke-width="1" stroke-dasharray="2" stroke="gray" points="421.99000000000007,10.0 22.009999999999998,10.0 22.009999999999998,10.0 30.49528137423862,18.485281374238568 430.4752813742386,18.485281374238568 421.99000000000007,10.0" />
<polygon fill="rgba(192,192,192,0.75)" stroke-width="1" stroke-dasharray="" stroke="black" points="421.99000000000007,122.0 430.4752813742386,130.48528137423858 30.49528137423862,130.48528137423858 22.009999999999998,122.0 22.009999999999998,122.0 421.99000000000007,122.0" />
<polygon fill="rgba(255,255,255,0.75)" stroke-width="1" stroke-dasharray="" stroke="black" points="430.4852813742386,51.60110991546881 422.0,43.11582854123026 422.0,10.0 430.4852813742386,18.485281374238568 430.4852813742386,51.60110991546881" />
<polygon fill="rgba(255,255,255,0.75)" stroke-width="1" stroke-dasharray="" stroke="black" points="430.4852813742386,63.86945283300831 430.4852813742386,85.10110991546881 422.0,76.61582854123026 422.0,55.38417145876974 430.4852813742386,63.86945283300831" />
<polygon fill="rgba(255,255,255,0.75)" stroke-width="1" stroke-dasharray="" stroke="black" points="430.4852813742386,97.36945283300831 430.4852813742386,118.48528137423857 426.9497474683058,114.94974746830583 426.9497474683058,119.94974746830583 430.4852813742386,123.48528137423857 430.4852813742386,130.48528137423858 422.0,122.0 422.0,88.88417145876974 430.4852813742386,97.36945283300831" />
<polygon fill="none" stroke-width="1" stroke-dasharray="2" stroke="gray" points="434.0,40.0 422.0,43.10582854123025 430.4852813742386,51.59110991546882 442.4852813742386,48.48528137423857" />
<polygon fill="rgba(192,192,192,0.75)" stroke-width="1" stroke-dasharray="" stroke="silver" points="442.4852813742386,66.98528137423857 430.4852813742386,63.879452833008315 422.0,55.39417145876975 434.0,58.5" />
<polygon fill="none" stroke-width="1" stroke-dasharray="2" stroke="gray" points="434.0,73.5 422.0,76.60582854123025 430.4852813742386,85.09110991546882 442.4852813742386,81.98528137423857" />
<polygon fill="rgba(192,192,192,0.75)" stroke-width="1" stroke-dasharray="" stroke="silver" points="442.4852813742386,100.48528137423857 430.4852813742386,97.37945283300832 422.0,88.89417145876975 434.0,92.0" />
<polygon fill="rgba(255,255,255,0.75)" stroke-width="1" stroke-dasharray="" stroke="black" points="442.4852813742386,48.47528137423856 442.4852813742386,66.99528137423857 434.0,58.51 434.0,39.989999999999995 442.4852813742386,48.47528137423856" />
<polygon fill="rgba(255,255,255,0.75)" stroke-width="1" stroke-dasharray="" stroke="black" points="442.4852813742386,81.97528137423858 442.4852813742386,100.49528137423857 434.0,92.01 434.0,73.49000000000001 442.4852813742386,81.97528137423858" />
<polygon fill="rgba(255,255,255,0.75)" stroke-width="1" stroke-dasharray="" stroke="black" points="434.0,91.98741611602227 421.99,88.88417145876974 421.99,122.0 22.009999999999998,122.0 22.009999999999998,88.88417145876974 10.0,91.98741611602226 10.0,91.98741611602226 10.0,73.51258388397773 10.0,73.51258388397773 22.009999999999998,76.61582854123026 22.009999999999998,55.38417145876975 10.0,58.48741611602227 10.0,40.01258388397774 22.009999999999998,43.11582854123025 22.009999999999998,10.0 22.009999999999998,10.0 421.99,10.0 421.99,10.0 421.99,43.11582854123025 434.0,40.012583883977726 434.0,58.487416116022274 421.99,55.38417145876975 421.99,76.61582854123026 434.0,73.51258388397773 434.0,73.51258388397773 434.0,91.98741611602227" />
<text style="" text-anchor="middle" x="222.0" y="66.0" fill="black">base front</text>
<polygon fill="none" stroke-width="1" stroke-dasharray="2" stroke="gray" points="430.4752813742386,254.48528137423858 430.4752813742386,233.36945283300832 442.4852813742386,236.47269749026086 442.4852813742386,217.9978652582163 430.4752813742386,221.10110991546884 430.4752813742386,199.86945283300832 442.4852813742386,202.97269749026086 442.4852813742386,202.97269749026086 442.4852813742386,184.49786525821634 442.4852813742386,184.49786525821634 430.4752813742386,187.60110991546884 430.4752813742386,154.48528137423858 30.495281374238562,154.48528137423858 30.49528137423857,187.60110991546884 18.48528137423857,184.4978652582163 18.48528137423857,184.4978652582163 18.48528137423857,202.97269749026086 18.48528137423857,202.97269749026086 30.49528137423857,199.86945283300832 30.49528137423857,221.10110991546884 18.48528137423857,217.9978652582163 18.48528137423857,236.47269749026083 30.49528137423857,233.36945283300832 30.495281374238562,254.48528137423858 30.495281374238562,254.48528137423858 430.4752813742386,254.48528137423858" />
<polygon fill="rgba(192,192,192,0.75)" stroke-width="1" stroke-dasharray="" stroke="black" points="426.9397474683059,250.94974746830584 430.4752813742386,254.48528137423858 30.49528137423862,254.48528137423858 26.95974746830583,250.94974746830584 26.95974746830583,250.94974746830584 426.9397474683059,250.94974746830584" />
<polygon fill="none" stroke-width="1" stroke-dasharray="2" stroke="gray" points="426.9397474683059,255.94974746830584 26.95974746830583,255.94974746830584 26.95974746830583,255.94974746830584 30.49528137423862,259.4852813742386 430.4752813742386,259.4852813742386 426.9397474683059,255.94974746830584" />
<polygon fill="none" stroke-width="1" stroke-dasharray="2" stroke="gray" points="10.0,175.99 10.0,194.51 18.48528137423857,202.99528137423857 18.48528137423857,184.4752813742386 10.0,175.99" />
<polygon fill="none" stroke-width="1" stroke-dasharray="2" stroke="gray" points="10.0,209.49 10.0,228.01 18.48528137423857,236.49528137423857 18.48528137423857,217.9752813742386 10.0,209.49" />
<polygon fill="none" stroke-width="1" stroke-dasharray="2" stroke="gray" points="18.48528137423857,184.48528137423858 30.48528137423857,187.59110991546885 22.0,179.10582854123027 10.0,176.0" />
<polygon fill="rgba(255,255,255,0.75)" stroke-width="1" stroke-dasharray="" stroke="black" points="10.0,194.5 22.0,191.39417145876973 30.48528137423857,199.87945283300832 18.48528137423857,202.98528137423858" />
<polygon fill="none" stroke-width="1" stroke-dasharray="2" stroke="gray" points="18.48528137423857,217.98528137423858 30.48528137423857,221.09110991546885 22.0,212.60582854123027 10.0,209.5" />
<polygon fill="rgba(255,255,255,0.75)" stroke-width="1" stroke-dasharray="" stroke="black" points="10.0,228.0 22.0,224.89417145876973 30.48528137423857,233.37945283300832 18.48528137423857,236.48528137423858" />
<polygon fill="none" stroke-width="1" stroke-dasharray="2" stroke="gray" points="22.0,179.11582854123026 30.48528137423857,187.60110991546884 30.48528137423857,154.48528137423858 22.0,146.0 22.0,179.11582854123026" />
<polygon fill="none" stroke-width="1" stroke-dasharray="2" stroke="gray" points="22.0,191.38417145876974 22.0,212.61582854123026 30.48528137423857,221.10110991546884 30.48528137423857,199.86945283300832 22.0,191.38417145876974" />
<polygon fill="none" stroke-width="1" stroke-dasharray="2" stroke="gray" points="22.0,224.88417145876974 22.0,258.0 30.48528137423857,266.4852813742386 30.48528137423857,259.4852813742386 26.949747468305834,255.94974746830584 26.949747468305834,250.94974746830584 30.48528137423857,254.48528137423858 30.48528137423857,233.36945283300832 22.0,224.88417145876974" />
<polygon fill="none" stroke-width="1" stroke-dasharray="2" stroke="gray" points="421.99000000000007,146.0 22.009999999999998,146.0 22.009999999999998,146.0 30.49528137423862,154.48528137423858 430.4752813742386,154.48528137423858 421.99000000000007,146.0" />
<polygon fill="rgba(192,192,192,0.75)" stroke-width="1" stroke-dasharray="" stroke="black" points="421.99000000000007,258.0 430.4752813742386,266.4852813742386 30.49528137423862,266.4852813742386 22.009999999999998,258.0 22.009999999999998,258.0 421.99000000000007,258.0" />
<polygon fill="rgba(255,255,255,0.75)" stroke-width="1" stroke-dasharray="" stroke="black" points="430.4852813742386,187.60110991546884 422.0,179.11582854123026 422.0,146.0 430.4852813742386,154.48528137423858 430.4852813742386,187.60110991546884" />
<polygon fill="rgba(255,255,255,0.75)" stroke-width="1" stroke-dasharray="" stroke="black" points="430.4852813742386,199.86945283300832 430.4852813742386,221.10110991546884 422.0,212.61582854123026 422.0,191.38417145876974 430.4852813742386,199.86945283300832" />
<polygon fill="rgba(255,255,255,0.75)" stroke-width="1" stroke-dasharray="" stroke="black" points="430.4852813742386,233.36945283300832 430.4852813742386,254.48528137423858 426.9497474683058,250.94974746830584 426.9497474683058,255.94974746830584 430.4852813742386,259.4852813742386 430.4852813742386,266.4852813742386 422.0,258.0 422.0,224.88417145876974 430.4852813742386,233.36945283300832" />
<polygon fill="none" stroke-width="1" stroke-dasharray="2" stroke="gray" points="434.0,176.0 422.0,179.10582854123027 430.4852813742386,187.59110991546885 442.4852813742386,184.48528137423858" />
<polygon fill="rgba(192,192,192,0.75)" stroke-width="1" stroke-dasharray="" stroke="silver" points="442.4852813742386,202.98528137423858 430.4852813742386,199.87945283300832 422.0,191.39417145876973 434.0,194.5" />
<polygon fill="none" stroke-width="1" stroke-dasharray="2" stroke="gray" points="434.0,209.5 422.0,212.60582854123027 430.4852813742386,221.09110991546885 442.4852813742386,217.98528137423858" />
<polygon fill="rgba(192,192,192,0.75)" stroke-width="1" stroke-dasharray="" stroke="silver" points="442.4852813742386,236.48528137423858 430.4852813742386,233.37945283300832 422.0,224.89417145876973 434.0,228.0" />
<polygon fill="rgba(255,255,255,0.75)" stroke-width="1" stroke-dasharray="" stroke="black" points="442.4852813742386,184.4752813742386 442.4852813742386,202.99528137423857 434.0,194.51 434.0,175.99 442.4852813742386,184.4752813742386" />
<polygon fill="rgba(255,255,255,0.75)" stroke-width="1" stroke-dasharray="" stroke="black" points="442.4852813742386,217.9752813742386 442.4852813742386,236.49528137423857 434.0,228.01 434.0,209.49 442.4852813742386,217.9752813742386" />
<polygon fill="rgba(255,255,255,0.75)" stroke-width="1" stroke-dasharray="" stroke="black" points="434.0,227.98741611602227 421.99,224.88417145876974 421.99,258.0 22.009999999999998,258.0 22.009999999999998,224.88417145876974 10.0,227.98741611602225 10.0,227.98741611602225 10.0,209.51258388397773 10.0,209.51258388397773 22.009999999999998,212.61582854123026 22.009999999999998,191.38417145876974 10.0,194.48741611602227 10.0,176.01258388397775 22.009999999999998,179.11582854123026 22.009999999999998,146.0 22.009999999999998,146.0 421.99,146.0 421.99,146.0 421.99,179.11582854123026 434.0,176.01258388397773 434.0,194.48741611602227 421.99,191.38417145876974 421.99,212.61582854123026 434.0,209.51258388397773 434.0,209.51258388397773 434.0,227.98741611602227" />
<text style="" text-anchor="middle" x="222.0" y="202.0" fill="black">base back</text>
<polygon fill="none" stroke-width="1" stroke-dasharray="2" stroke="gray" points="242.48528137423858,357.08110991546886 242.48528137423858,335.8894528330083 242.48528137423858,335.8894528330083 230.4752813742386,335.8894528330083 230.4752813742386,323.58110991546886 242.48528137423858,323.58110991546886 242.48528137423858,290.4852813742386 18.48528137423857,290.4852813742386 18.48528137423857,323.58110991546886 18.48528137423857,323.58110991546886 30.49528137423857,323.58110991546886 30.49528137423857,335.8894528330083 18.48528137423857,335.8894528330083 18.48528137423857,357.08110991546886 30.49528137423857,357.08110991546886 30.49528137423857,369.3894528330083 18.48528137423857,369.3894528330083 18.48528137423857,369.3894528330083 18.48528137423857,390.4852813742386 242.48528137423858,390.4852813742386 242.48528137423858,369.3894528330083 230.4752813742386,369.3894528330083 230.4752813742386,357.08110991546886 242.48528137423858,357.08110991546886" />
<polygon fill="rgba(192,192,192,0.75)" stroke-width="1" stroke-dasharray="" stroke="black" points="14.949747468305834,386.9497474683058 238.94974746830584,386.9497474683058 242.48528137423858,390.4852813742386 18.48528137423857,390.4852813742386" />
<polygon fill="none" stroke-width="1" stroke-dasharray="2" stroke="gray" points="18.48528137423857,395.4852813742386 242.48528137423858,395.4852813742386 238.94974746830584,391.9497474683058 14.949747468305834,391.9497474683058" />
<polygon fill="none" stroke-width="1" stroke-dasharray="2" stroke="gray" points="10.0,312.01258388397775 18.48528137423857,323.5985260314911 18.48528137423857,290.4852813742386 10.0,282.0 10.0,312.01258388397775" />
<polygon fill="none" stroke-width="1" stroke-dasharray="2" stroke="gray" points="10.0,330.48741611602225 10.0,345.5125838839777 18.48528137423857,357.0985260314911 18.48528137423857,335.8720367169861 10.0,330.48741611602225" />
<polygon fill="none" stroke-width="1" stroke-dasharray="2" stroke="gray" points="10.0,363.98741611602225 10.0,394.0 18.48528137423857,402.4852813742386 18.48528137423857,395.4852813742386 14.949747468305834,391.9497474683058 14.949747468305834,386.9497474683058 18.48528137423857,390.4852813742386 18.48528137423857,369.3720367169861 10.0,363.98741611602225" />
<polygon fill="rgba(255,255,255,0.75)" stroke-width="1" stroke-dasharray="" stroke="black" points="10.0,312.0 22.0,312.0 30.48528137423857,323.59110991546885 18.48528137423857,323.59110991546885" />
<polygon fill="none" stroke-width="1" stroke-dasharray="2" stroke="gray" points="18.48528137423857,335.8794528330083 30.48528137423857,335.8794528330083 22.0,330.5 10.0,330.5" />
<polygon fill="rgba(255,255,255,0.75)" stroke-width="1" stroke-dasharray="" stroke="black" points="10.0,345.5 22.0,345.5 30.48528137423857,357.09110991546885 18.48528137423857,357.09110991546885" />
<polygon fill="none" stroke-width="1" stroke-dasharray="2" stroke="gray" points="18.48528137423857,369.3794528330083 30.48528137423857,369.3794528330083 22.0,364.0 10.0,364.0" />
<polygon fill="none" stroke-width="1" stroke-dasharray="2" stroke="gray" points="22.0,311.9925838839777 22.0,330.5074161160223 30.48528137423857,335.89203671698607 30.48528137423857,323.5785260314911 22.0,311.9925838839777" />
<polygon fill="none" stroke-width="1" stroke-dasharray="2" stroke="gray" points="22.0,345.4925838839777 22.0,364.0074161160223 30.48528137423857,369.39203671698607 30.48528137423857,357.0785260314911 22.0,345.4925838839777" />
<polygon fill="none" stroke-width="1" stroke-dasharray="2" stroke="gray" points="18.48528137423857,290.4852813742386 242.48528137423858,290.4852813742386 234.0,282.0 10.0,282.0" />
<polygon fill="rgba(192,192,192,0.75)" stroke-width="1" stroke-dasharray="" stroke="black" points="10.0,394.0 234.0,394.0 242.48528137423858,402.4852813742386 18.48528137423857,402.4852813742386" />
<polygon fill="rgba(255,255,255,0.75)" stroke-width="1" stroke-dasharray="" stroke="black" points="230.48528137423858,323.5785260314911 230.48528137423858,335.89203671698607 222.0,330.5074161160223 222.0,311.9925838839777 230.48528137423858,323.5785260314911" />
<polygon fill="rgba(255,255,255,0.75)" stroke-width="1" stroke-dasharray="" stroke="black" points="230.48528137423858,357.0785260314911 230.48528137423858,369.39203671698607 222.0,364.0074161160223 222.0,345.4925838839777 230.48528137423858,357.0785260314911" />
<polygon fill="rgba(255,255,255,0.75)" stroke-width="1" stroke-dasharray="" stroke="black" points="242.48528137423858,323.59110991546885 230.48528137423858,323.59110991546885 222.0,312.0 234.0,312.0" />
<polygon fill="none" stroke-width="1" stroke-dasharray="2" stroke="gray" points="234.0,330.5 222.0,330.5 230.48528137423858,335.8794528330083 242.48528137423858,335.8794528330083" />
<polygon fill="rgba(255,255,255,0.75)" stroke-width="1" stroke-dasharray="" stroke="black" points="242.48528137423858,357.09110991546885 230.48528137423858,357.09110991546885 222.0,345.5 234.0,345.5" />
<polygon fill="none" stroke-width="1" stroke-dasharray="2" stroke="gray" points="234.0,364.0 222.0,364.0 230.48528137423858,369.3794528330083 242.48528137423858,369.3794528330083" />
<polygon fill="rgba(255,255,255,0.75)" stroke-width="1" stroke-dasharray="" stroke="black" points="242.48528137423858,323.5985260314911 234.0,312.01258388397775 234.0,282.0 242.48528137423858,290.4852813742386 242.48528137423858,323.5985260314911" />
<polygon fill="rgba(255,255,255,0.75)" stroke-width="1" stroke-dasharray="" stroke="black" points="242.48528137423858,335.8720367169861 242.48528137423858,357.0985260314911 234.0,345.51258388397775 234.0,330.4874161160223 242.48528137423858,335.8720367169861" />
<polygon fill="rgba(255,255,255,0.75)" stroke-width="1" stroke-dasharray="" stroke="black" points="242.48528137423858,369.3720367169861 242.48528137423858,390.4852813742386 238.94974746830584,386.9497474683058 238.94974746830584,391.9497474683058 242.48528137423858,395.4852813742386 242.48528137423858,402.4852813742386 234.0,394.0 234.0,363.98741611602225 242.48528137423858,369.3720367169861" />
<polygon fill="rgba(255,255,255,0.75)" stroke-width="1" stroke-dasharray="" stroke="black" points="234.0,364.01 234.0,394.0 10.0,394.0 10.0,364.01 22.009999999999998,364.01 22.009999999999998,345.49 10.0,345.49 10.0,345.49 10.0,330.51 10.0,330.51 22.009999999999998,330.51 22.009999999999998,311.99 10.0,311.99 10.0,282.0 234.0,282.0 234.0,311.99 234.0,311.99 221.99,311.99 221.99,330.51 234.0,330.51 234.0,345.49 221.99,345.49 221.99,364.01 234.0,364.01" />
<text style="" text-anchor="middle" x="122.0" y="338.0" fill="black">base left</text>
<polygon fill="none" stroke-width="1" stroke-dasharray="2" stroke="gray" points="242.48528137423858,493.08110991546886 242.48528137423858,471.8894528330083 242.48528137423858,471.8894528330083 230.4752813742386,471.8894528330083 230.4752813742386,459.58110991546886 242.48528137423858,459.58110991546886 242.48528137423858,426.4852813742386 18.48528137423857,426.4852813742386 18.48528137423857,459.58110991546886 18.48528137423857,459.58110991546886 30.49528137423857,459.58110991546886 30.49528137423857,471.8894528330083 18.48528137423857,471.8894528330083 18.48528137423857,493.08110991546886 30.49528137423857,493.08110991546886 30.49528137423857,505.3894528330083 18.48528137423857,505.3894528330083 18.48528137423857,505.3894528330083 18.48528137423857,526.4852813742385 242.48528137423858,526.4852813742385 242.48528137423858,505.3894528330083 230.4752813742386,505.3894528330083 230.4752813742386,493.08110991546886 242.48528137423858,493.08110991546886" />
<polygon fill="rgba(192,192,192,0.75)" stroke-width="1" stroke-dasharray="" stroke="black" points="14.949747468305834,522.9497474683059 238.94974746830584,522.9497474683059 242.48528137423858,526.4852813742385 18.48528137423857,526.4852813742385" />
<polygon fill="none" stroke-width="1" stroke-dasharray="2" stroke="gray" points="18.48528137423857,531.4852813742385 242.48528137423858,531.4852813742385 238.94974746830584,527.9497474683059 14.949747468305834,527.9497474683059" />
<polygon fill="none" stroke-width="1" stroke-dasharray="2" stroke="gray" points="10.0,448.01258388397775 18.48528137423857,459.5985260314911 18.48528137423857,426.4852813742386 10.0,418.0 10.0,448.01258388397775" />
<polygon fill="none" stroke-width="1" stroke-dasharray="2" stroke="gray" points="10.0,466.48741611602225 10.0,481.5125838839777 18.48528137423857,493.0985260314911 18.48528137423857,471.8720367169861 10.0,466.48741611602225" />
<polygon fill="none" stroke-width="1" stroke-dasharray="2" stroke="gray" points="10.0,499.98741611602225 10.0,530.0 18.48528137423857,538.4852813742385 18.48528137423857,531.4852813742385 14.949747468305834,527.9497474683059 14.949747468305834,522.9497474683059 18.48528137423857,526.4852813742385 18.48528137423857,505.3720367169861 10.0,499.98741611602225" />
<polygon fill="rgba(255,255,255,0.75)" stroke-width="1" stroke-dasharray="" stroke="black" points="10.0,448.0 22.0,448.0 30.48528137423857,459.59110991546885 18.48528137423857,459.59110991546885" />
<polygon fill="none" stroke-width="1" stroke-dasharray="2" stroke="gray" points="18.48528137423857,471.8794528330083 30.48528137423857,471.8794528330083 22.0,466.5 10.0,466.5" />
<polygon fill="rgba(255,255,255,0.75)" stroke-width="1" stroke-dasharray="" stroke="black" points="10.0,481.5 22.0,481.5 30.48528137423857,493.09110991546885 18.48528137423857,493.09110991546885" />
<polygon fill="none" stroke-width="1" stroke-dasharray="2" stroke="gray" points="18.48528137423857,505.3794528330083 30.48528137423857,505.3794528330083 22.0,500.0 10.0,500.0" />
<polygon fill="none" stroke-width="1" stroke-dasharray="2" stroke="gray" points="22.0,447.9925838839777 22.0,466.5074161160223 30.48528137423857,471.89203671698607 30.48528137423857,459.5785260314911 22.0,447.9925838839777" />
<polygon fill="none" stroke-width="1" stroke-dasharray="2" stroke="gray" points="22.0,481.4925838839777 22.0,500.0074161160223 30.48528137423857,505.39203671698607 30.48528137423857,493.0785260314911 22.0,481.4925838839777" />
<polygon fill="none" stroke-width="1" stroke-dasharray="2" stroke="gray" points="18.48528137423857,426.4852813742386 242.48528137423858,426.4852813742386 234.0,418.0 10.0,418.0" />
<polygon fill="rgba(192,192,192,0.75)" stroke-width="1" stroke-dasharray="" stroke="black" points="10.0,530.0 234.0,530.0 242.48528137423858,538.4852813742385 18.48528137423857,538.4852813742385" />
<polygon fill="rgba(255,255,255,0.75)" stroke-width="1" stroke-dasharray="" stroke="black" points="230.48528137423858,459.5785260314911 230.48528137423858,471.89203671698607 222.0,466.5074161160223 222.0,447.9925838839777 230.48528137423858,459.5785260314911" />
<polygon fill="rgba(255,255,255,0.75)" stroke-width="1" stroke-dasharray="" stroke="black" points="230.48528137423858,493.0785260314911 230.48528137423858,505.39203671698607 222.0,500.0074161160223 222.0,481.4925838839777 230.48528137423858,493.0785260314911" />
<polygon fill="rgba(255,255,255,0.75)" stroke-width="1" stroke-dasharray="" stroke="black" points="242.48528137423858,459.59110991546885 230.48528137423858,459.59110991546885 222.0,448.0 234.0,448.0" />
<polygon fill="none" stroke-width="1" stroke-dasharray="2" stroke="gray" points="234.0,466.5 222.0,466.5 230.48528137423858,471.8794528330083 242.48528137423858,471.8794528330083" />
<polygon fill="rgba(255,255,255,0.75)" stroke-width="1" stroke-dasharray="" stroke="black" points="242.48528137423858,493.09110991546885 230.48528137423858,493.09110991546885 222.0,481.5 234.0,481.5" />
<polygon fill="none" stroke-width="1" stroke-dasharray="2" stroke="gray" points="234.0,500.0 222.0,500.0 230.48528137423858,505.3794528330083 242.48528137423858,505.3794528330083" />
<polygon fill="rgba(255,255,255,0.75)" stroke-width="1" stroke-dasharray="" stroke="black" points="242.48528137423858,459.5985260314911 234.0,448.01258388397775 234.0,418.0 242.48528137423858,426.4852813742386 242.48528137423858,459.5985260314911" />
<polygon fill="rgba(255,255,255,0.75)" stroke-width="1" stroke-dasharray="" stroke="black" points="242.48528137423858,471.8720367169861 242.48528137423858,493.0985260314911 234.0,481.51258388397775 234.0,466.4874161160223 242.48528137423858,471.8720367169861" />
<polygon fill="rgba(255,255,255,0.75)" stroke-width="1" stroke-dasharray="" stroke="black" points="242.48528137423858,505.3720367169861 242.48528137423858,526.4852813742385 238.94974746830584,522.9497474683059 238.94974746830584,527.9497474683059 242.48528137423858,531.4852813742385 242.48528137423858,538.4852813742385 234.0,530.0 234.0,499.98741611602225 242.48528137423858,505.3720367169861" />
<polygon fill="rgba(255,255,255,0.75)" stroke-width="1" stroke-dasharray="" stroke="black" points="234.0,500.01 234.0,530.0 10.0,530.0 10.0,500.01 22.009999999999998,500.01 22.009999999999998,481.49 10.0,481.49 10.0,481.49 10.0,466.51 10.0,466.51 22.009999999999998,466.51 22.009999999999998,447.99 10.0,447.99 10.0,418.0 234.0,418.0 234.0,447.99 234.0,447.99 221.99,447.99 221.99,466.51 234.0,466.51 234.0,481.49 221.99,481.49 221.99,500.01 234.0,500.01" />
<text style="" text-anchor="middle" x="122.0" y="474.0" fill="black">base right</text>
<polygon fill="none" stroke-width="1" stroke-dasharray="2" stroke="gray" points="15.65685424949238,559.6568542494924 15.65685424949238,783.6568542494924 439.65685424949237,783.6568542494924 439.65685424949237,559.6568542494924" />
<polygon fill="none" stroke-width="1" stroke-dasharray="2" stroke="gray" points="10.0,554.0 10.0,778.0 15.65685424949238,783.6568542494924 15.65685424949238,559.6568542494924" />
<polygon fill="none" stroke-width="1" stroke-dasharray="2" stroke="gray" points="15.65685424949238,559.6568542494924 439.65685424949237,559.6568542494924 434.0,554.0 10.0,554.0" />
<polygon fill="rgba(192,192,192,0.75)" stroke-width="1" stroke-dasharray="" stroke="black" points="10.0,778.0 434.0,778.0 439.65685424949237,783.6568542494924 15.65685424949238,783.6568542494924" />
<polygon fill="rgba(255,255,255,0.75)" stroke-width="1" stroke-dasharray="" stroke="black" points="439.65685424949237,559.6568542494924 439.65685424949237,783.6568542494924 434.0,778.0 434.0,554.0" />
<polygon fill="rgba(255,255,255,0.75)" stroke-width="1" stroke-dasharray="" stroke="black" points="10.0,554.0 434.0,554.0 434.0,778.0 10.0,778.0" />
<text style="" text-anchor="middle" x="222.0" y="666.0" fill="black">base bottom</text>
</svg>
