<svg width="1100" viewBox="0.0 -82.0 550.0 234.0" xmlns="http://www.w3.org/2000/svg">
<polygon fill="none" stroke-width="1" stroke-dasharray="" stroke="black" points="244.0,42.4 244.0,45.5 244.0,20.0 244.0,20.0 244.0,42.4" />
<polygon fill="none" stroke-width="1" stroke-dasharray="" stroke="black" points="244.0,64.8 244.0,87.2 244.0,90.3 244.0,61.7 244.0,64.8" />
<polygon fill="none" stroke-width="1" stroke-dasharray="" stroke="black" points="244.0,109.6 244.0,132.0 244.0,132.0 244.0,125.0 244.0,125.0 244.0,120.0 244.0,120.0 244.0,106.5 244.0,109.6" />
<polygon fill="none" stroke-width="1" stroke-dasharray="" stroke="black" points="244.0,109.6 244.0,106.5 244.0,132.0 244.0,132.0 244.0,106.5 244.0,109.6 244.0,109.6 244.0,87.2 244.0,87.2 244.0,90.3 244.0,61.7 244.0,64.8 244.0,42.4 244.0,45.5 244.0,20.0 244.0,20.0 244.0,20.0 244.0,20.0 244.0,45.5 244.0,42.4 244.0,64.8 244.0,61.7 244.0,90.3 244.0,87.2 244.0,87.2 244.0,109.6" />
<polygon fill="none" stroke-width="1" stroke-dasharray="" stroke="black" points="244.0,120.0 244.0,135.0 244.0,135.0 244.0,120.0" />
<polygon fill="none" stroke-width="1" stroke-dasharray="" stroke="black" points="244.0,45.5 244.0,42.4 244.0,20.0 244.0,20.0 244.0,45.5" />
<polygon fill="none" stroke-width="1" stroke-dasharray="" stroke="black" points="244.0,61.7 244.0,90.3 244.0,87.2 244.0,64.8 244.0,61.7" />
<polygon fill="none" stroke-width="1" stroke-dasharray="" stroke="black" points="244.0,106.5 244.0,120.0 244.0,120.0 244.0,125.0 244.0,125.0 244.0,132.0 244.0,132.0 244.0,109.6 244.0,106.5" />
<polygon fill="none" stroke-width="1" stroke-dasharray="" stroke="black" points="232.0,42.4 232.0,64.8 244.0,64.8 244.0,42.4 232.0,42.4" />
<polygon fill="none" stroke-width="1" stroke-dasharray="" stroke="black" points="232.0,87.2 232.0,109.6 244.0,109.6 244.0,87.2 232.0,87.2" />
<polygon fill="none" stroke-width="1" stroke-dasharray="" stroke="black" points="244.0,42.4 244.0,45.5 232.0,45.5 232.0,42.4" />
<polygon fill="none" stroke-width="1" stroke-dasharray="" stroke="black" points="244.0,42.4 232.0,42.4 232.0,45.5 244.0,45.5" />
<polygon fill="none" stroke-width="1" stroke-dasharray="" stroke="black" points="232.0,64.8 232.0,61.7 244.0,61.7 244.0,64.8" />
<polygon fill="none" stroke-width="1" stroke-dasharray="" stroke="black" points="244.0,61.7 232.0,61.7 232.0,64.8 244.0,64.8" />
<polygon fill="none" stroke-width="1" stroke-dasharray="" stroke="black" points="244.0,87.2 244.0,90.3 232.0,90.3 232.0,87.2" />
<polygon fill="none" stroke-width="1" stroke-dasharray="" stroke="black" points="244.0,87.2 232.0,87.2 232.0,90.3 244.0,90.3" />
<polygon fill="none" stroke-width="1" stroke-dasharray="" stroke="black" points="232.0,109.6 232.0,106.5 244.0,106.5 244.0,109.6" />
<polygon fill="none" stroke-width="1" stroke-dasharray="" stroke="black" points="244.0,106.5 232.0,106.5 232.0,109.6 244.0,109.6" />
<polygon fill="none" stroke-width="1" stroke-dasharray="" stroke="black" points="232.0,45.5 244.0,45.5 244.0,20.0 232.0,20.0 232.0,45.5" />
<polygon fill="none" stroke-width="1" stroke-dasharray="" stroke="black" points="232.0,61.7 232.0,90.3 244.0,90.3 244.0,61.7 232.0,61.7" />
<polygon fill="none" stroke-width="1" stroke-dasharray="" stroke="black" points="232.0,106.5 232.0,120.0 237.0,120.0 237.0,125.0 232.0,125.0 232.0,132.0 244.0,132.0 244.0,106.5 232.0,106.5" />
<polygon fill="none" stroke-width="1" stroke-dasharray="" stroke="black" points="244.0,20.0 244.0,20.0 244.0,20.0 232.0,20.0 232.0,20.0 244.0,20.0" />
<polygon fill="none" stroke-width="1" stroke-dasharray="" stroke="black" points="244.0,132.0 232.0,132.0 232.0,132.0 244.0,132.0 244.0,132.0 244.0,132.0" />
<polygon fill="none" stroke-width="1" stroke-dasharray="" stroke="black" points="244.0,45.5 232.0,45.5 232.0,20.0 244.0,20.0 244.0,45.5" />
<polygon fill="none" stroke-width="1" stroke-dasharray="" stroke="black" points="244.0,61.7 244.0,90.3 232.0,90.3 232.0,61.7 244.0,61.7" />
<polygon fill="none" stroke-width="1" stroke-dasharray="" stroke="black" points="244.0,106.5 244.0,132.0 232.0,132.0 232.0,125.0 237.0,125.0 237.0,120.0 232.0,120.0 232.0,106.5 244.0,106.5" />
<polygon fill="none" stroke-width="1" stroke-dasharray="" stroke="black" points="244.0,45.5 232.0,45.5 232.0,42.4 244.0,42.4" />
<polygon fill="none" stroke-width="1" stroke-dasharray="" stroke="black" points="232.0,42.4 232.0,45.5 244.0,45.5 244.0,42.4" />
<polygon fill="none" stroke-width="1" stroke-dasharray="" stroke="black" points="244.0,64.8 232.0,64.8 232.0,61.7 244.0,61.7" />
<polygon fill="none" stroke-width="1" stroke-dasharray="" stroke="black" points="244.0,64.8 244.0,61.7 232.0,61.7 232.0,64.8" />
<polygon fill="none" stroke-width="1" stroke-dasharray="" stroke="black" points="244.0,90.3 232.0,90.3 232.0,87.2 244.0,87.2" />
<polygon fill="none" stroke-width="1" stroke-dasharray="" stroke="black" points="232.0,87.2 232.0,90.3 244.0,90.3 244.0,87.2" />
<polygon fill="none" stroke-width="1" stroke-dasharray="" stroke="black" points="244.0,109.6 232.0,109.6 232.0,106.5 244.0,106.5" />
<polygon fill="none" stroke-width="1" stroke-dasharray="" stroke="black" points="244.0,109.6 244.0,106.5 232.0,106.5 232.0,109.6" />
<polygon fill="none" stroke-width="1" stroke-dasharray="" stroke="black" points="244.0,42.4 244.0,64.8 232.0,64.8 232.0,42.4 244.0,42.4" />
<polygon fill="none" stroke-width="1" stroke-dasharray="" stroke="black" points="244.0,87.2 244.0,109.6 232.0,109.6 232.0,87.2 244.0,87.2" />
<polygon fill="none" stroke-width="1" stroke-dasharray="" stroke="black" points="237.0,120.0 232.0,120.0 232.0,120.0 237.0,120.0 237.0,120.0 237.0,120.0" />
<polygon fill="none" stroke-width="1" stroke-dasharray="" stroke="black" points="237.0,125.0 237.0,125.0 237.0,125.0 232.0,125.0 232.0,125.0 237.0,125.0" />
<polygon fill="none" stroke-width="1" stroke-dasharray="" stroke="black" points="232.0,42.4 232.0,64.8 232.0,61.7 232.0,45.5 232.0,42.4" />
<polygon fill="none" stroke-width="1" stroke-dasharray="" stroke="black" points="232.0,87.2 232.0,109.6 232.0,106.5 232.0,90.3 232.0,87.2" />
<polygon fill="none" stroke-width="1" stroke-dasharray="" stroke="black" points="232.0,-35.2 232.0,-32.1 232.0,-52.0 232.0,-52.0 232.0,-35.2" />
<polygon fill="none" stroke-width="1" stroke-dasharray="" stroke="black" points="232.0,-18.4 232.0,-1.6 232.0,1.5 232.0,-21.5 232.0,-18.4" />
<polygon fill="none" stroke-width="1" stroke-dasharray="" stroke="black" points="232.0,15.2 232.0,32.0 232.0,32.0 232.0,12.1 232.0,15.2" />
<polygon fill="none" stroke-width="1" stroke-dasharray="" stroke="black" points="232.0,47.0 232.0,50.9 232.0,37.0 232.0,37.0 232.0,47.0" />
<polygon fill="none" stroke-width="1" stroke-dasharray="" stroke="black" points="232.0,57.0 232.0,67.0 232.0,67.0 232.0,53.1 232.0,57.0" />
<polygon fill="none" stroke-width="1" stroke-dasharray="" stroke="black" points="232.0,15.2 232.0,12.1 232.0,32.0 232.0,32.0 232.0,12.1 232.0,15.2 232.0,15.2 232.0,-1.6 232.0,-1.6 232.0,1.5 232.0,-21.5 232.0,-18.4 232.0,-35.2 232.0,-32.1 232.0,-52.0 232.0,-52.0 232.0,-52.0 232.0,-52.0 232.0,-32.1 232.0,-35.2 232.0,-18.4 232.0,-21.5 232.0,1.5 232.0,-1.6 232.0,-1.6 232.0,15.2" />
<polygon fill="none" stroke-width="1" stroke-dasharray="" stroke="black" points="232.0,57.0 232.0,53.1 232.0,67.0 232.0,67.0 232.0,67.0 232.0,53.1 232.0,57.0 232.0,47.0 232.0,50.9 232.0,37.0 232.0,37.0 232.0,37.0 232.0,50.9 232.0,47.0 232.0,47.0 232.0,57.0" />
<polygon fill="none" stroke-width="1" stroke-dasharray="" stroke="black" points="232.0,120.0 232.0,106.5 232.0,109.6 232.0,87.2 232.0,90.3 232.0,61.7 232.0,64.8 232.0,64.8 232.0,42.4 232.0,42.4 232.0,45.5 232.0,20.0 232.0,20.0 232.0,45.5 232.0,42.4 232.0,42.4 232.0,64.8 232.0,64.8 232.0,61.7 232.0,90.3 232.0,87.2 232.0,109.6 232.0,106.5 232.0,120.0 232.0,120.0 232.0,120.0" />
<polygon fill="none" stroke-width="1" stroke-dasharray="" stroke="black" points="232.0,-64.0 232.0,-52.0 232.0,-52.0 232.0,-64.0" />
<polygon fill="none" stroke-width="1" stroke-dasharray="" stroke="black" points="232.0,-64.0 232.0,-52.0 232.0,-52.0 232.0,-64.0" />
<polygon fill="none" stroke-width="1" stroke-dasharray="" stroke="black" points="232.0,32.0 232.0,35.0 232.0,35.0 232.0,32.0" />
<polygon fill="none" stroke-width="1" stroke-dasharray="" stroke="black" points="232.0,67.0 232.0,70.0 232.0,70.0 232.0,67.0" />
<polygon fill="none" stroke-width="1" stroke-dasharray="" stroke="black" points="232.0,-64.0 232.0,-52.0 232.0,-52.0 232.0,-64.0" />
<polygon fill="none" stroke-width="1" stroke-dasharray="" stroke="black" points="232.0,-67.0 232.0,-52.0 232.0,-52.0 232.0,-67.0" />
<polygon fill="none" stroke-width="1" stroke-dasharray="" stroke="black" points="232.0,-64.0 232.0,-52.0 232.0,-52.0 232.0,-64.0" />
<polygon fill="none" stroke-width="1" stroke-dasharray="" stroke="black" points="232.0,50.9 232.0,47.0 232.0,37.0 232.0,37.0 232.0,50.9" />
<polygon fill="none" stroke-width="1" stroke-dasharray="" stroke="black" points="232.0,53.1 232.0,67.0 232.0,67.0 232.0,57.0 232.0,53.1" />
<polygon fill="none" stroke-width="1" stroke-dasharray="" stroke="black" points="232.0,-32.1 232.0,-35.2 232.0,-52.0 232.0,-52.0 232.0,-32.1" />
<polygon fill="none" stroke-width="1" stroke-dasharray="" stroke="black" points="232.0,-21.5 232.0,1.5 232.0,-1.6 232.0,-18.4 232.0,-21.5" />
<polygon fill="none" stroke-width="1" stroke-dasharray="" stroke="black" points="232.0,12.1 232.0,32.0 232.0,32.0 232.0,15.2 232.0,12.1" />
<polygon fill="none" stroke-width="1" stroke-dasharray="" stroke="black" points="232.0,45.5 232.0,61.7 232.0,64.8 232.0,42.4 232.0,45.5" />
<polygon fill="none" stroke-width="1" stroke-dasharray="" stroke="black" points="232.0,90.3 232.0,106.5 232.0,109.6 232.0,87.2 232.0,90.3" />
<polygon fill="none" stroke-width="1" stroke-dasharray="" stroke="black" points="220.0,-35.2 220.0,-18.4 232.0,-18.4 232.0,-35.2 220.0,-35.2" />
<polygon fill="none" stroke-width="1" stroke-dasharray="" stroke="black" points="220.0,-1.6 220.0,15.2 232.0,15.2 232.0,-1.6 220.0,-1.6" />
<polygon fill="none" stroke-width="1" stroke-dasharray="" stroke="black" points="232.0,-35.2 232.0,-32.1 220.0,-32.1 220.0,-35.2" />
<polygon fill="none" stroke-width="1" stroke-dasharray="" stroke="black" points="232.0,-35.2 220.0,-35.2 220.0,-32.1 232.0,-32.1" />
<polygon fill="none" stroke-width="1" stroke-dasharray="" stroke="black" points="220.0,-18.4 220.0,-21.5 232.0,-21.5 232.0,-18.4" />
<polygon fill="none" stroke-width="1" stroke-dasharray="" stroke="black" points="232.0,-21.5 220.0,-21.5 220.0,-18.4 232.0,-18.4" />
<polygon fill="none" stroke-width="1" stroke-dasharray="" stroke="black" points="232.0,-1.6 232.0,1.5 220.0,1.5 220.0,-1.6" />
<polygon fill="none" stroke-width="1" stroke-dasharray="" stroke="black" points="232.0,-1.6 220.0,-1.6 220.0,1.5 232.0,1.5" />
<polygon fill="none" stroke-width="1" stroke-dasharray="" stroke="black" points="220.0,15.2 220.0,12.1 232.0,12.1 232.0,15.2" />
<polygon fill="none" stroke-width="1" stroke-dasharray="" stroke="black" points="232.0,12.1 220.0,12.1 220.0,15.2 232.0,15.2" />
<polygon fill="none" stroke-width="1" stroke-dasharray="" stroke="black" points="220.0,-32.1 232.0,-32.1 232.0,-52.0 220.0,-52.0 220.0,-32.1" />
<polygon fill="none" stroke-width="1" stroke-dasharray="" stroke="black" points="220.0,-21.5 220.0,1.5 232.0,1.5 232.0,-21.5 220.0,-21.5" />
<polygon fill="none" stroke-width="1" stroke-dasharray="" stroke="black" points="220.0,12.1 220.0,32.0 232.0,32.0 232.0,12.1 220.0,12.1" />
<polygon fill="none" stroke-width="1" stroke-dasharray="" stroke="black" points="232.0,-52.0 232.0,-52.0 232.0,-52.0 220.0,-52.0 220.0,-52.0 232.0,-52.0" />
<polygon fill="none" stroke-width="1" stroke-dasharray="" stroke="black" points="232.0,32.0 220.0,32.0 220.0,32.0 232.0,32.0 232.0,32.0 232.0,32.0" />
<polygon fill="none" stroke-width="1" stroke-dasharray="" stroke="black" points="232.0,-32.1 220.0,-32.1 220.0,-52.0 232.0,-52.0 232.0,-32.1" />
<polygon fill="none" stroke-width="1" stroke-dasharray="" stroke="black" points="232.0,-21.5 232.0,1.5 220.0,1.5 220.0,-21.5 232.0,-21.5" />
<polygon fill="none" stroke-width="1" stroke-dasharray="" stroke="black" points="232.0,12.1 232.0,32.0 220.0,32.0 220.0,12.1 232.0,12.1" />
<polygon fill="none" stroke-width="1" stroke-dasharray="" stroke="black" points="232.0,-32.1 220.0,-32.1 220.0,-35.2 232.0,-35.2" />
<polygon fill="none" stroke-width="1" stroke-dasharray="" stroke="black" points="220.0,-35.2 220.0,-32.1 232.0,-32.1 232.0,-35.2" />
<polygon fill="none" stroke-width="1" stroke-dasharray="" stroke="black" points="232.0,-18.4 220.0,-18.4 220.0,-21.5 232.0,-21.5" />
<polygon fill="none" stroke-width="1" stroke-dasharray="" stroke="black" points="232.0,-18.4 232.0,-21.5 220.0,-21.5 220.0,-18.4" />
<polygon fill="none" stroke-width="1" stroke-dasharray="" stroke="black" points="232.0,1.5 220.0,1.5 220.0,-1.6 232.0,-1.6" />
<polygon fill="none" stroke-width="1" stroke-dasharray="" stroke="black" points="220.0,-1.6 220.0,1.5 232.0,1.5 232.0,-1.6" />
<polygon fill="none" stroke-width="1" stroke-dasharray="" stroke="black" points="232.0,15.2 220.0,15.2 220.0,12.1 232.0,12.1" />
<polygon fill="none" stroke-width="1" stroke-dasharray="" stroke="black" points="232.0,15.2 232.0,12.1 220.0,12.1 220.0,15.2" />
<polygon fill="none" stroke-width="1" stroke-dasharray="" stroke="black" points="232.0,-35.2 232.0,-18.4 220.0,-18.4 220.0,-35.2 232.0,-35.2" />
<polygon fill="none" stroke-width="1" stroke-dasharray="" stroke="black" points="232.0,-1.6 232.0,15.2 220.0,15.2 220.0,-1.6 232.0,-1.6" />
<polygon fill="none" stroke-width="1" stroke-dasharray="" stroke="black" points="217.0,47.0 217.0,57.0 232.0,57.0 232.0,47.0 217.0,47.0" />
<polygon fill="none" stroke-width="1" stroke-dasharray="" stroke="black" points="232.0,47.0 232.0,50.9 217.0,50.9 217.0,47.0" />
<polygon fill="none" stroke-width="1" stroke-dasharray="" stroke="black" points="232.0,47.0 217.0,47.0 217.0,50.9 232.0,50.9" />
<polygon fill="none" stroke-width="1" stroke-dasharray="" stroke="black" points="217.0,57.0 217.0,53.1 232.0,53.1 232.0,57.0" />
<polygon fill="none" stroke-width="1" stroke-dasharray="" stroke="black" points="232.0,53.1 217.0,53.1 217.0,57.0 232.0,57.0" />
<polygon fill="none" stroke-width="1" stroke-dasharray="" stroke="black" points="217.0,50.9 232.0,50.9 232.0,37.0 217.0,37.0 217.0,50.9" />
<polygon fill="none" stroke-width="1" stroke-dasharray="" stroke="black" points="217.0,53.1 217.0,67.0 232.0,67.0 232.0,53.1 217.0,53.1" />
<polygon fill="none" stroke-width="1" stroke-dasharray="" stroke="black" points="232.0,37.0 232.0,37.0 232.0,37.0 217.0,37.0 217.0,37.0 232.0,37.0" />
<polygon fill="none" stroke-width="1" stroke-dasharray="" stroke="black" points="232.0,67.0 217.0,67.0 217.0,67.0 232.0,67.0 232.0,67.0 232.0,67.0" />
<polygon fill="none" stroke-width="1" stroke-dasharray="" stroke="black" points="232.0,50.9 217.0,50.9 217.0,37.0 232.0,37.0 232.0,50.9" />
<polygon fill="none" stroke-width="1" stroke-dasharray="" stroke="black" points="232.0,53.1 232.0,67.0 217.0,67.0 217.0,53.1 232.0,53.1" />
<polygon fill="none" stroke-width="1" stroke-dasharray="" stroke="black" points="232.0,50.9 217.0,50.9 217.0,47.0 232.0,47.0" />
<polygon fill="none" stroke-width="1" stroke-dasharray="" stroke="black" points="217.0,47.0 217.0,50.9 232.0,50.9 232.0,47.0" />
<polygon fill="none" stroke-width="1" stroke-dasharray="" stroke="black" points="232.0,57.0 217.0,57.0 217.0,53.1 232.0,53.1" />
<polygon fill="none" stroke-width="1" stroke-dasharray="" stroke="black" points="232.0,57.0 232.0,53.1 217.0,53.1 217.0,57.0" />
<polygon fill="none" stroke-width="1" stroke-dasharray="" stroke="black" points="232.0,47.0 232.0,57.0 217.0,57.0 217.0,47.0 232.0,47.0" />
<polygon fill="none" stroke-width="1" stroke-dasharray="" stroke="black" points="220.0,-35.2 220.0,-18.4 220.0,-21.5 220.0,-32.1 220.0,-35.2" />
<polygon fill="none" stroke-width="1" stroke-dasharray="" stroke="black" points="220.0,-1.6 220.0,15.2 220.0,12.1 220.0,1.5 220.0,-1.6" />
<polygon fill="none" stroke-width="1" stroke-dasharray="" stroke="black" points="220.0,32.0 220.0,12.1 220.0,15.2 220.0,-1.6 220.0,1.5 220.0,-21.5 220.0,-18.4 220.0,-18.4 220.0,-35.2 220.0,-35.2 220.0,-32.1 220.0,-52.0 220.0,-52.0 220.0,-32.1 220.0,-35.2 220.0,-35.2 220.0,-18.4 220.0,-18.4 220.0,-21.5 220.0,1.5 220.0,-1.6 220.0,15.2 220.0,12.1 220.0,32.0 220.0,32.0 220.0,32.0" />
<polygon fill="none" stroke-width="1" stroke-dasharray="" stroke="black" points="220.0,-52.0 220.0,-37.0 220.0,-37.0 220.0,-52.0" />
<polygon fill="none" stroke-width="1" stroke-dasharray="" stroke="black" points="220.0,-32.1 220.0,-21.5 220.0,-18.4 220.0,-35.2 220.0,-32.1" />
<polygon fill="none" stroke-width="1" stroke-dasharray="" stroke="black" points="220.0,1.5 220.0,12.1 220.0,15.2 220.0,-1.6 220.0,1.5" />
<polygon fill="none" stroke-width="1" stroke-dasharray="" stroke="black" points="217.0,47.0 217.0,57.0 217.0,53.1 217.0,50.9 217.0,47.0" />
<polygon fill="none" stroke-width="1" stroke-dasharray="" stroke="black" points="217.0,67.0 217.0,53.1 217.0,57.0 217.0,47.0 217.0,50.9 217.0,37.0 217.0,37.0 217.0,37.0 217.0,50.9 217.0,47.0 217.0,47.0 217.0,57.0 217.0,57.0 217.0,53.1 217.0,67.0 217.0,67.0" />
<polygon fill="none" stroke-width="1" stroke-dasharray="" stroke="black" points="217.0,50.9 217.0,53.1 217.0,57.0 217.0,47.0 217.0,50.9" />
<polygon fill="none" stroke-width="1" stroke-dasharray="" stroke="black" points="132.0,57.0 132.0,67.0 232.0,67.0 232.0,57.0 232.0,57.0 217.0,57.0 217.0,47.0 232.0,47.0 232.0,37.0 132.0,37.0 132.0,47.0 147.0,47.0 147.0,57.0 132.0,57.0" />
<polygon fill="none" stroke-width="1" stroke-dasharray="" stroke="black" points="232.0,37.0 132.0,37.0 132.0,37.0 232.0,37.0" />
<polygon fill="none" stroke-width="1" stroke-dasharray="" stroke="black" points="232.0,67.0 132.0,67.0 132.0,67.0 232.0,67.0" />
<polygon fill="none" stroke-width="1" stroke-dasharray="" stroke="black" points="132.0,50.9 132.0,37.0 232.0,37.0 232.0,50.9 232.0,50.9 217.0,50.9 217.0,53.1 232.0,53.1 232.0,67.0 132.0,67.0 132.0,53.1 147.0,53.1 147.0,50.9 132.0,50.9" />
<polygon fill="none" stroke-width="1" stroke-dasharray="" stroke="black" points="132.0,67.0 132.0,70.0 232.0,70.0 232.0,67.0" />
<polygon fill="none" stroke-width="1" stroke-dasharray="" stroke="black" points="232.0,67.0 232.0,67.0 132.0,67.0 132.0,67.0" />
<polygon fill="none" stroke-width="1" stroke-dasharray="" stroke="black" points="132.0,70.0 132.0,70.0 232.0,70.0 232.0,70.0" />
<polygon fill="none" stroke-width="1" stroke-dasharray="" stroke="black" points="232.0,50.9 232.0,37.0 132.0,37.0 132.0,50.9 132.0,50.9 147.0,50.9 147.0,53.1 132.0,53.1 132.0,67.0 232.0,67.0 232.0,53.1 217.0,53.1 217.0,50.9 232.0,50.9" />
<polygon fill="none" stroke-width="1" stroke-dasharray="" stroke="black" points="132.0,37.0 232.0,37.0 232.0,37.0 132.0,37.0" />
<polygon fill="none" stroke-width="1" stroke-dasharray="" stroke="black" points="132.0,67.0 232.0,67.0 232.0,67.0 132.0,67.0" />
<polygon fill="none" stroke-width="1" stroke-dasharray="" stroke="black" points="232.0,57.0 232.0,67.0 132.0,67.0 132.0,57.0 132.0,57.0 147.0,57.0 147.0,47.0 132.0,47.0 132.0,37.0 232.0,37.0 232.0,47.0 217.0,47.0 217.0,57.0 232.0,57.0" />
<polygon fill="none" stroke-width="1" stroke-dasharray="" stroke="black" points="232.0,67.0 232.0,70.0 132.0,70.0 132.0,67.0" />
<polygon fill="none" stroke-width="1" stroke-dasharray="" stroke="black" points="147.0,50.9 147.0,53.1 147.0,57.0 147.0,47.0 147.0,50.9" />
<polygon fill="none" stroke-width="1" stroke-dasharray="" stroke="black" points="147.0,67.0 147.0,53.1 147.0,57.0 147.0,47.0 147.0,50.9 147.0,37.0 147.0,37.0 147.0,37.0 147.0,50.9 147.0,47.0 147.0,47.0 147.0,57.0 147.0,57.0 147.0,53.1 147.0,67.0 147.0,67.0" />
<polygon fill="none" stroke-width="1" stroke-dasharray="" stroke="black" points="147.0,47.0 147.0,57.0 147.0,53.1 147.0,50.9 147.0,47.0" />
<polygon fill="none" stroke-width="1" stroke-dasharray="" stroke="black" points="132.0,50.9 147.0,50.9 147.0,47.0 132.0,47.0" />
<polygon fill="none" stroke-width="1" stroke-dasharray="" stroke="black" points="132.0,57.0 147.0,57.0 147.0,53.1 132.0,53.1" />
<polygon fill="none" stroke-width="1" stroke-dasharray="" stroke="black" points="132.0,47.0 132.0,57.0 147.0,57.0 147.0,47.0 132.0,47.0" />
<polygon fill="none" stroke-width="1" stroke-dasharray="" stroke="black" points="147.0,47.0 147.0,50.9 132.0,50.9 132.0,47.0" />
<polygon fill="none" stroke-width="1" stroke-dasharray="" stroke="black" points="132.0,57.0 132.0,53.1 147.0,53.1 147.0,57.0" />
<polygon fill="none" stroke-width="1" stroke-dasharray="" stroke="black" points="132.0,50.9 147.0,50.9 147.0,37.0 132.0,37.0 132.0,50.9" />
<polygon fill="none" stroke-width="1" stroke-dasharray="" stroke="black" points="132.0,53.1 132.0,67.0 147.0,67.0 147.0,53.1 132.0,53.1" />
<polygon fill="none" stroke-width="1" stroke-dasharray="" stroke="black" points="132.0,37.0 132.0,37.0 132.0,37.0 147.0,37.0 147.0,37.0 132.0,37.0" />
<polygon fill="none" stroke-width="1" stroke-dasharray="" stroke="black" points="132.0,67.0 147.0,67.0 147.0,67.0 132.0,67.0 132.0,67.0 132.0,67.0" />
<polygon fill="none" stroke-width="1" stroke-dasharray="" stroke="black" points="147.0,50.9 132.0,50.9 132.0,37.0 147.0,37.0 147.0,50.9" />
<polygon fill="none" stroke-width="1" stroke-dasharray="" stroke="black" points="147.0,53.1 147.0,67.0 132.0,67.0 132.0,53.1 147.0,53.1" />
<polygon fill="none" stroke-width="1" stroke-dasharray="" stroke="black" points="132.0,47.0 132.0,50.9 147.0,50.9 147.0,47.0" />
<polygon fill="none" stroke-width="1" stroke-dasharray="" stroke="black" points="132.0,47.0 147.0,47.0 147.0,50.9 132.0,50.9" />
<polygon fill="none" stroke-width="1" stroke-dasharray="" stroke="black" points="147.0,57.0 147.0,53.1 132.0,53.1 132.0,57.0" />
<polygon fill="none" stroke-width="1" stroke-dasharray="" stroke="black" points="132.0,53.1 147.0,53.1 147.0,57.0 132.0,57.0" />
<polygon fill="none" stroke-width="1" stroke-dasharray="" stroke="black" points="147.0,47.0 147.0,57.0 132.0,57.0 132.0,47.0 147.0,47.0" />
<polygon fill="none" stroke-width="1" stroke-dasharray="" stroke="black" points="20.0,109.6 20.0,132.0 244.0,132.0 244.0,109.6 232.0,109.6 232.0,87.2 244.0,87.2 244.0,87.2 244.0,64.8 244.0,64.8 232.0,64.8 232.0,42.4 244.0,42.4 244.0,20.0 20.0,20.0 20.0,42.4 20.0,42.4 32.0,42.4 32.0,64.8 20.0,64.8 20.0,87.2 32.0,87.2 32.0,109.6 20.0,109.6" />
<polygon fill="none" stroke-width="1" stroke-dasharray="" stroke="black" points="244.0,20.0 20.0,20.0 20.0,20.0 244.0,20.0" />
<polygon fill="none" stroke-width="1" stroke-dasharray="" stroke="black" points="244.0,132.0 20.0,132.0 20.0,132.0 244.0,132.0" />
<polygon fill="none" stroke-width="1" stroke-dasharray="" stroke="black" points="244.0,120.0 20.0,120.0 20.0,120.0 244.0,120.0" />
<polygon fill="none" stroke-width="1" stroke-dasharray="" stroke="black" points="244.0,125.0 20.0,125.0 20.0,125.0 244.0,125.0" />
<polygon fill="none" stroke-width="1" stroke-dasharray="" stroke="black" points="20.0,90.3 20.0,61.7 20.0,61.7 32.0,61.7 32.0,45.5 20.0,45.5 20.0,20.0 244.0,20.0 244.0,45.5 244.0,45.5 232.0,45.5 232.0,61.7 244.0,61.7 244.0,90.3 232.0,90.3 232.0,106.5 244.0,106.5 244.0,106.5 244.0,120.0 20.0,120.0 20.0,106.5 32.0,106.5 32.0,90.3 20.0,90.3" />
<polygon fill="none" stroke-width="1" stroke-dasharray="" stroke="black" points="32.0,15.2 32.0,32.0 232.0,32.0 232.0,15.2 220.0,15.2 220.0,-1.6 232.0,-1.6 232.0,-1.6 232.0,-18.4 232.0,-18.4 220.0,-18.4 220.0,-35.2 232.0,-35.2 232.0,-52.0 32.0,-52.0 32.0,-35.2 32.0,-35.2 44.0,-35.2 44.0,-18.4 32.0,-18.4 32.0,-1.6 44.0,-1.6 44.0,15.2 32.0,15.2" />
<polygon fill="none" stroke-width="1" stroke-dasharray="" stroke="black" points="232.0,-52.0 32.0,-52.0 32.0,-52.0 232.0,-52.0" />
<polygon fill="none" stroke-width="1" stroke-dasharray="" stroke="black" points="232.0,32.0 32.0,32.0 32.0,32.0 232.0,32.0" />
<polygon fill="none" stroke-width="1" stroke-dasharray="" stroke="black" points="132.0,50.9 132.0,47.0 132.0,37.0 132.0,37.0 132.0,50.9" />
<polygon fill="none" stroke-width="1" stroke-dasharray="" stroke="black" points="132.0,53.1 132.0,67.0 132.0,67.0 132.0,57.0 132.0,53.1" />
<polygon fill="none" stroke-width="1" stroke-dasharray="" stroke="black" points="32.0,1.5 32.0,-21.5 32.0,-21.5 44.0,-21.5 44.0,-32.1 32.0,-32.1 32.0,-52.0 232.0,-52.0 232.0,-32.1 232.0,-32.1 220.0,-32.1 220.0,-21.5 232.0,-21.5 232.0,1.5 220.0,1.5 220.0,12.1 232.0,12.1 232.0,12.1 232.0,32.0 32.0,32.0 32.0,12.1 44.0,12.1 44.0,1.5 32.0,1.5" />
<polygon fill="none" stroke-width="1" stroke-dasharray="" stroke="black" points="20.0,120.0 20.0,135.0 244.0,135.0 244.0,120.0" />
<polygon fill="none" stroke-width="1" stroke-dasharray="" stroke="black" points="32.0,-64.0 32.0,-52.0 232.0,-52.0 232.0,-64.0" />
<polygon fill="none" stroke-width="1" stroke-dasharray="" stroke="black" points="32.0,32.0 32.0,35.0 232.0,35.0 232.0,32.0" />
<polygon fill="none" stroke-width="1" stroke-dasharray="" stroke="black" points="44.0,-52.0 44.0,-37.0 220.0,-37.0 220.0,-52.0" />
<polygon fill="none" stroke-width="1" stroke-dasharray="" stroke="black" points="232.0,-64.0 232.0,-64.0 32.0,-64.0 32.0,-64.0" />
<polygon fill="none" stroke-width="1" stroke-dasharray="" stroke="black" points="32.0,-52.0 32.0,-52.0 232.0,-52.0 232.0,-52.0" />
<polygon fill="none" stroke-width="1" stroke-dasharray="" stroke="black" points="232.0,-64.0 232.0,-52.0 32.0,-52.0 32.0,-64.0" />
<polygon fill="none" stroke-width="1" stroke-dasharray="" stroke="black" points="32.0,-64.0 32.0,-52.0 232.0,-52.0 232.0,-64.0" />
<polygon fill="none" stroke-width="1" stroke-dasharray="" stroke="black" points="232.0,-64.0 232.0,-64.0 32.0,-64.0 32.0,-64.0" />
<polygon fill="none" stroke-width="1" stroke-dasharray="" stroke="black" points="32.0,-52.0 32.0,-52.0 232.0,-52.0 232.0,-52.0" />
<polygon fill="none" stroke-width="1" stroke-dasharray="" stroke="black" points="232.0,-64.0 232.0,-52.0 32.0,-52.0 32.0,-64.0" />
<polygon fill="none" stroke-width="1" stroke-dasharray="" stroke="black" points="220.0,-52.0 220.0,-52.0 44.0,-52.0 44.0,-52.0" />
<polygon fill="none" stroke-width="1" stroke-dasharray="" stroke="black" points="44.0,-37.0 44.0,-37.0 220.0,-37.0 220.0,-37.0" />
<polygon fill="none" stroke-width="1" stroke-dasharray="" stroke="black" points="232.0,32.0 232.0,32.0 32.0,32.0 32.0,32.0" />
<polygon fill="none" stroke-width="1" stroke-dasharray="" stroke="black" points="32.0,35.0 32.0,35.0 232.0,35.0 232.0,35.0" />
<polygon fill="none" stroke-width="1" stroke-dasharray="" stroke="black" points="132.0,57.0 132.0,53.1 132.0,67.0 132.0,67.0 132.0,67.0 132.0,53.1 132.0,57.0 132.0,47.0 132.0,50.9 132.0,37.0 132.0,37.0 132.0,37.0 132.0,50.9 132.0,47.0 132.0,47.0 132.0,57.0" />
<polygon fill="none" stroke-width="1" stroke-dasharray="" stroke="black" points="132.0,67.0 132.0,67.0 132.0,70.0 132.0,70.0" />
<polygon fill="none" stroke-width="1" stroke-dasharray="" stroke="black" points="244.0,120.0 244.0,120.0 20.0,120.0 20.0,120.0" />
<polygon fill="none" stroke-width="1" stroke-dasharray="" stroke="black" points="20.0,135.0 20.0,135.0 244.0,135.0 244.0,135.0" />
<polygon fill="none" stroke-width="1" stroke-dasharray="" stroke="black" points="32.0,-64.0 32.0,-52.0 232.0,-52.0 232.0,-64.0" />
<polygon fill="none" stroke-width="1" stroke-dasharray="" stroke="black" points="232.0,-64.0 232.0,-64.0 32.0,-64.0 32.0,-64.0" />
<polygon fill="none" stroke-width="1" stroke-dasharray="" stroke="black" points="32.0,-52.0 32.0,-52.0 232.0,-52.0 232.0,-52.0" />
<polygon fill="none" stroke-width="1" stroke-dasharray="" stroke="black" points="32.0,-67.0 32.0,-52.0 232.0,-52.0 232.0,-67.0" />
<polygon fill="none" stroke-width="1" stroke-dasharray="" stroke="black" points="232.0,-64.0 232.0,-52.0 32.0,-52.0 32.0,-64.0" />
<polygon fill="none" stroke-width="1" stroke-dasharray="" stroke="black" points="232.0,-67.0 232.0,-67.0 32.0,-67.0 32.0,-67.0" />
<polygon fill="none" stroke-width="1" stroke-dasharray="" stroke="black" points="32.0,-52.0 32.0,-52.0 232.0,-52.0 232.0,-52.0" />
<polygon fill="none" stroke-width="1" stroke-dasharray="" stroke="black" points="232.0,-67.0 232.0,-52.0 32.0,-52.0 32.0,-67.0" />
<polygon fill="none" stroke-width="1" stroke-dasharray="" stroke="black" points="32.0,-64.0 32.0,-52.0 232.0,-52.0 232.0,-64.0" />
<polygon fill="none" stroke-width="1" stroke-dasharray="" stroke="black" points="232.0,-64.0 232.0,-64.0 32.0,-64.0 32.0,-64.0" />
<polygon fill="none" stroke-width="1" stroke-dasharray="" stroke="black" points="32.0,-52.0 32.0,-52.0 232.0,-52.0 232.0,-52.0" />
<polygon fill="none" stroke-width="1" stroke-dasharray="" stroke="black" points="220.0,-52.0 220.0,-37.0 44.0,-37.0 44.0,-52.0" />
<polygon fill="none" stroke-width="1" stroke-dasharray="" stroke="black" points="232.0,1.5 232.0,-21.5 232.0,-21.5 220.0,-21.5 220.0,-32.1 232.0,-32.1 232.0,-52.0 32.0,-52.0 32.0,-32.1 32.0,-32.1 44.0,-32.1 44.0,-21.5 32.0,-21.5 32.0,1.5 44.0,1.5 44.0,12.1 32.0,12.1 32.0,12.1 32.0,32.0 232.0,32.0 232.0,12.1 220.0,12.1 220.0,1.5 232.0,1.5" />
<polygon fill="none" stroke-width="1" stroke-dasharray="" stroke="black" points="132.0,47.0 132.0,50.9 132.0,37.0 132.0,37.0 132.0,47.0" />
<polygon fill="none" stroke-width="1" stroke-dasharray="" stroke="black" points="132.0,57.0 132.0,67.0 132.0,67.0 132.0,53.1 132.0,57.0" />
<polygon fill="none" stroke-width="1" stroke-dasharray="" stroke="black" points="32.0,-52.0 232.0,-52.0 232.0,-52.0 32.0,-52.0" />
<polygon fill="none" stroke-width="1" stroke-dasharray="" stroke="black" points="32.0,32.0 232.0,32.0 232.0,32.0 32.0,32.0" />
<polygon fill="none" stroke-width="1" stroke-dasharray="" stroke="black" points="232.0,-64.0 232.0,-52.0 32.0,-52.0 32.0,-64.0" />
<polygon fill="none" stroke-width="1" stroke-dasharray="" stroke="black" points="232.0,15.2 232.0,32.0 32.0,32.0 32.0,15.2 44.0,15.2 44.0,-1.6 32.0,-1.6 32.0,-1.6 32.0,-18.4 32.0,-18.4 44.0,-18.4 44.0,-35.2 32.0,-35.2 32.0,-52.0 232.0,-52.0 232.0,-35.2 232.0,-35.2 220.0,-35.2 220.0,-18.4 232.0,-18.4 232.0,-1.6 220.0,-1.6 220.0,15.2 232.0,15.2" />
<polygon fill="none" stroke-width="1" stroke-dasharray="" stroke="black" points="232.0,32.0 232.0,35.0 32.0,35.0 32.0,32.0" />
<polygon fill="none" stroke-width="1" stroke-dasharray="" stroke="black" points="244.0,90.3 244.0,61.7 244.0,61.7 232.0,61.7 232.0,45.5 244.0,45.5 244.0,20.0 20.0,20.0 20.0,45.5 20.0,45.5 32.0,45.5 32.0,61.7 20.0,61.7 20.0,90.3 32.0,90.3 32.0,106.5 20.0,106.5 20.0,106.5 20.0,120.0 244.0,120.0 244.0,106.5 232.0,106.5 232.0,90.3 244.0,90.3" />
<polygon fill="none" stroke-width="1" stroke-dasharray="" stroke="black" points="20.0,120.0 244.0,120.0 244.0,120.0 20.0,120.0" />
<polygon fill="none" stroke-width="1" stroke-dasharray="" stroke="black" points="20.0,125.0 244.0,125.0 244.0,125.0 20.0,125.0" />
<polygon fill="none" stroke-width="1" stroke-dasharray="" stroke="black" points="20.0,20.0 244.0,20.0 244.0,20.0 20.0,20.0" />
<polygon fill="none" stroke-width="1" stroke-dasharray="" stroke="black" points="20.0,132.0 244.0,132.0 244.0,132.0 20.0,132.0" />
<polygon fill="none" stroke-width="1" stroke-dasharray="" stroke="black" points="244.0,109.6 244.0,132.0 20.0,132.0 20.0,109.6 32.0,109.6 32.0,87.2 20.0,87.2 20.0,87.2 20.0,64.8 20.0,64.8 32.0,64.8 32.0,42.4 20.0,42.4 20.0,20.0 244.0,20.0 244.0,42.4 244.0,42.4 232.0,42.4 232.0,64.8 244.0,64.8 244.0,87.2 232.0,87.2 232.0,109.6 244.0,109.6" />
<polygon fill="none" stroke-width="1" stroke-dasharray="" stroke="black" points="244.0,120.0 244.0,135.0 20.0,135.0 20.0,120.0" />
<polygon fill="none" stroke-width="1" stroke-dasharray="" stroke="black" points="44.0,-32.1 44.0,-21.5 44.0,-18.4 44.0,-35.2 44.0,-32.1" />
<polygon fill="none" stroke-width="1" stroke-dasharray="" stroke="black" points="44.0,1.5 44.0,12.1 44.0,15.2 44.0,-1.6 44.0,1.5" />
<polygon fill="none" stroke-width="1" stroke-dasharray="" stroke="black" points="44.0,-52.0 44.0,-52.0 44.0,-37.0 44.0,-37.0" />
<polygon fill="none" stroke-width="1" stroke-dasharray="" stroke="black" points="44.0,32.0 44.0,12.1 44.0,15.2 44.0,-1.6 44.0,1.5 44.0,-21.5 44.0,-18.4 44.0,-18.4 44.0,-35.2 44.0,-35.2 44.0,-32.1 44.0,-52.0 44.0,-52.0 44.0,-32.1 44.0,-35.2 44.0,-35.2 44.0,-18.4 44.0,-18.4 44.0,-21.5 44.0,1.5 44.0,-1.6 44.0,15.2 44.0,12.1 44.0,32.0 44.0,32.0 44.0,32.0" />
<polygon fill="none" stroke-width="1" stroke-dasharray="" stroke="black" points="44.0,-35.2 44.0,-18.4 44.0,-21.5 44.0,-32.1 44.0,-35.2" />
<polygon fill="none" stroke-width="1" stroke-dasharray="" stroke="black" points="44.0,-1.6 44.0,15.2 44.0,12.1 44.0,1.5 44.0,-1.6" />
<polygon fill="none" stroke-width="1" stroke-dasharray="" stroke="black" points="32.0,-32.1 44.0,-32.1 44.0,-35.2 32.0,-35.2" />
<polygon fill="none" stroke-width="1" stroke-dasharray="" stroke="black" points="32.0,-18.4 44.0,-18.4 44.0,-21.5 32.0,-21.5" />
<polygon fill="none" stroke-width="1" stroke-dasharray="" stroke="black" points="32.0,1.5 44.0,1.5 44.0,-1.6 32.0,-1.6" />
<polygon fill="none" stroke-width="1" stroke-dasharray="" stroke="black" points="32.0,15.2 44.0,15.2 44.0,12.1 32.0,12.1" />
<polygon fill="none" stroke-width="1" stroke-dasharray="" stroke="black" points="32.0,-35.2 32.0,-18.4 44.0,-18.4 44.0,-35.2 32.0,-35.2" />
<polygon fill="none" stroke-width="1" stroke-dasharray="" stroke="black" points="32.0,-1.6 32.0,15.2 44.0,15.2 44.0,-1.6 32.0,-1.6" />
<polygon fill="none" stroke-width="1" stroke-dasharray="" stroke="black" points="44.0,-35.2 44.0,-32.1 32.0,-32.1 32.0,-35.2" />
<polygon fill="none" stroke-width="1" stroke-dasharray="" stroke="black" points="32.0,-18.4 32.0,-21.5 44.0,-21.5 44.0,-18.4" />
<polygon fill="none" stroke-width="1" stroke-dasharray="" stroke="black" points="44.0,-1.6 44.0,1.5 32.0,1.5 32.0,-1.6" />
<polygon fill="none" stroke-width="1" stroke-dasharray="" stroke="black" points="32.0,15.2 32.0,12.1 44.0,12.1 44.0,15.2" />
<polygon fill="none" stroke-width="1" stroke-dasharray="" stroke="black" points="32.0,-32.1 44.0,-32.1 44.0,-52.0 32.0,-52.0 32.0,-32.1" />
<polygon fill="none" stroke-width="1" stroke-dasharray="" stroke="black" points="32.0,-21.5 32.0,1.5 44.0,1.5 44.0,-21.5 32.0,-21.5" />
<polygon fill="none" stroke-width="1" stroke-dasharray="" stroke="black" points="32.0,12.1 32.0,32.0 44.0,32.0 44.0,12.1 32.0,12.1" />
<polygon fill="none" stroke-width="1" stroke-dasharray="" stroke="black" points="32.0,-52.0 32.0,-52.0 32.0,-52.0 44.0,-52.0 44.0,-52.0 32.0,-52.0" />
<polygon fill="none" stroke-width="1" stroke-dasharray="" stroke="black" points="32.0,32.0 44.0,32.0 44.0,32.0 32.0,32.0 32.0,32.0 32.0,32.0" />
<polygon fill="none" stroke-width="1" stroke-dasharray="" stroke="black" points="44.0,-32.1 32.0,-32.1 32.0,-52.0 44.0,-52.0 44.0,-32.1" />
<polygon fill="none" stroke-width="1" stroke-dasharray="" stroke="black" points="44.0,-21.5 44.0,1.5 32.0,1.5 32.0,-21.5 44.0,-21.5" />
<polygon fill="none" stroke-width="1" stroke-dasharray="" stroke="black" points="44.0,12.1 44.0,32.0 32.0,32.0 32.0,12.1 44.0,12.1" />
<polygon fill="none" stroke-width="1" stroke-dasharray="" stroke="black" points="32.0,-35.2 32.0,-32.1 44.0,-32.1 44.0,-35.2" />
<polygon fill="none" stroke-width="1" stroke-dasharray="" stroke="black" points="32.0,-35.2 44.0,-35.2 44.0,-32.1 32.0,-32.1" />
<polygon fill="none" stroke-width="1" stroke-dasharray="" stroke="black" points="44.0,-18.4 44.0,-21.5 32.0,-21.5 32.0,-18.4" />
<polygon fill="none" stroke-width="1" stroke-dasharray="" stroke="black" points="32.0,-21.5 44.0,-21.5 44.0,-18.4 32.0,-18.4" />
<polygon fill="none" stroke-width="1" stroke-dasharray="" stroke="black" points="32.0,-1.6 32.0,1.5 44.0,1.5 44.0,-1.6" />
<polygon fill="none" stroke-width="1" stroke-dasharray="" stroke="black" points="32.0,-1.6 44.0,-1.6 44.0,1.5 32.0,1.5" />
<polygon fill="none" stroke-width="1" stroke-dasharray="" stroke="black" points="44.0,15.2 44.0,12.1 32.0,12.1 32.0,15.2" />
<polygon fill="none" stroke-width="1" stroke-dasharray="" stroke="black" points="32.0,12.1 44.0,12.1 44.0,15.2 32.0,15.2" />
<polygon fill="none" stroke-width="1" stroke-dasharray="" stroke="black" points="44.0,-35.2 44.0,-18.4 32.0,-18.4 32.0,-35.2 44.0,-35.2" />
<polygon fill="none" stroke-width="1" stroke-dasharray="" stroke="black" points="44.0,-1.6 44.0,15.2 32.0,15.2 32.0,-1.6 44.0,-1.6" />
<polygon fill="none" stroke-width="1" stroke-dasharray="" stroke="black" points="32.0,45.5 32.0,61.7 32.0,64.8 32.0,42.4 32.0,45.5" />
<polygon fill="none" stroke-width="1" stroke-dasharray="" stroke="black" points="32.0,90.3 32.0,106.5 32.0,109.6 32.0,87.2 32.0,90.3" />
<polygon fill="none" stroke-width="1" stroke-dasharray="" stroke="black" points="32.0,-32.1 32.0,-35.2 32.0,-52.0 32.0,-52.0 32.0,-32.1" />
<polygon fill="none" stroke-width="1" stroke-dasharray="" stroke="black" points="32.0,-21.5 32.0,1.5 32.0,-1.6 32.0,-18.4 32.0,-21.5" />
<polygon fill="none" stroke-width="1" stroke-dasharray="" stroke="black" points="32.0,12.1 32.0,32.0 32.0,32.0 32.0,15.2 32.0,12.1" />
<polygon fill="none" stroke-width="1" stroke-dasharray="" stroke="black" points="32.0,-64.0 32.0,-64.0 32.0,-52.0 32.0,-52.0" />
<polygon fill="none" stroke-width="1" stroke-dasharray="" stroke="black" points="32.0,-64.0 32.0,-64.0 32.0,-52.0 32.0,-52.0" />
<polygon fill="none" stroke-width="1" stroke-dasharray="" stroke="black" points="32.0,15.2 32.0,12.1 32.0,32.0 32.0,32.0 32.0,12.1 32.0,15.2 32.0,15.2 32.0,-1.6 32.0,-1.6 32.0,1.5 32.0,-21.5 32.0,-18.4 32.0,-35.2 32.0,-32.1 32.0,-52.0 32.0,-52.0 32.0,-52.0 32.0,-52.0 32.0,-32.1 32.0,-35.2 32.0,-18.4 32.0,-21.5 32.0,1.5 32.0,-1.6 32.0,-1.6 32.0,15.2" />
<polygon fill="none" stroke-width="1" stroke-dasharray="" stroke="black" points="32.0,32.0 32.0,32.0 32.0,35.0 32.0,35.0" />
<polygon fill="none" stroke-width="1" stroke-dasharray="" stroke="black" points="32.0,120.0 32.0,106.5 32.0,109.6 32.0,87.2 32.0,90.3 32.0,61.7 32.0,64.8 32.0,64.8 32.0,42.4 32.0,42.4 32.0,45.5 32.0,20.0 32.0,20.0 32.0,45.5 32.0,42.4 32.0,42.4 32.0,64.8 32.0,64.8 32.0,61.7 32.0,90.3 32.0,87.2 32.0,109.6 32.0,106.5 32.0,120.0 32.0,120.0 32.0,120.0" />
<polygon fill="none" stroke-width="1" stroke-dasharray="" stroke="black" points="32.0,-64.0 32.0,-64.0 32.0,-52.0 32.0,-52.0" />
<polygon fill="none" stroke-width="1" stroke-dasharray="" stroke="black" points="32.0,-67.0 32.0,-67.0 32.0,-52.0 32.0,-52.0" />
<polygon fill="none" stroke-width="1" stroke-dasharray="" stroke="black" points="32.0,-64.0 32.0,-64.0 32.0,-52.0 32.0,-52.0" />
<polygon fill="none" stroke-width="1" stroke-dasharray="" stroke="black" points="32.0,-35.2 32.0,-32.1 32.0,-52.0 32.0,-52.0 32.0,-35.2" />
<polygon fill="none" stroke-width="1" stroke-dasharray="" stroke="black" points="32.0,-18.4 32.0,-1.6 32.0,1.5 32.0,-21.5 32.0,-18.4" />
<polygon fill="none" stroke-width="1" stroke-dasharray="" stroke="black" points="32.0,15.2 32.0,32.0 32.0,32.0 32.0,12.1 32.0,15.2" />
<polygon fill="none" stroke-width="1" stroke-dasharray="" stroke="black" points="32.0,42.4 32.0,64.8 32.0,61.7 32.0,45.5 32.0,42.4" />
<polygon fill="none" stroke-width="1" stroke-dasharray="" stroke="black" points="32.0,87.2 32.0,109.6 32.0,106.5 32.0,90.3 32.0,87.2" />
<polygon fill="none" stroke-width="1" stroke-dasharray="" stroke="black" points="27.0,120.0 32.0,120.0 32.0,120.0 27.0,120.0 27.0,120.0 27.0,120.0" />
<polygon fill="none" stroke-width="1" stroke-dasharray="" stroke="black" points="27.0,125.0 27.0,125.0 27.0,125.0 32.0,125.0 32.0,125.0 27.0,125.0" />
<polygon fill="none" stroke-width="1" stroke-dasharray="" stroke="black" points="20.0,45.5 32.0,45.5 32.0,42.4 20.0,42.4" />
<polygon fill="none" stroke-width="1" stroke-dasharray="" stroke="black" points="20.0,64.8 32.0,64.8 32.0,61.7 20.0,61.7" />
<polygon fill="none" stroke-width="1" stroke-dasharray="" stroke="black" points="20.0,90.3 32.0,90.3 32.0,87.2 20.0,87.2" />
<polygon fill="none" stroke-width="1" stroke-dasharray="" stroke="black" points="20.0,109.6 32.0,109.6 32.0,106.5 20.0,106.5" />
<polygon fill="none" stroke-width="1" stroke-dasharray="" stroke="black" points="20.0,42.4 20.0,64.8 32.0,64.8 32.0,42.4 20.0,42.4" />
<polygon fill="none" stroke-width="1" stroke-dasharray="" stroke="black" points="20.0,87.2 20.0,109.6 32.0,109.6 32.0,87.2 20.0,87.2" />
<polygon fill="none" stroke-width="1" stroke-dasharray="" stroke="black" points="32.0,42.4 32.0,45.5 20.0,45.5 20.0,42.4" />
<polygon fill="none" stroke-width="1" stroke-dasharray="" stroke="black" points="20.0,64.8 20.0,61.7 32.0,61.7 32.0,64.8" />
<polygon fill="none" stroke-width="1" stroke-dasharray="" stroke="black" points="32.0,87.2 32.0,90.3 20.0,90.3 20.0,87.2" />
<polygon fill="none" stroke-width="1" stroke-dasharray="" stroke="black" points="20.0,109.6 20.0,106.5 32.0,106.5 32.0,109.6" />
<polygon fill="none" stroke-width="1" stroke-dasharray="" stroke="black" points="20.0,45.5 32.0,45.5 32.0,20.0 20.0,20.0 20.0,45.5" />
<polygon fill="none" stroke-width="1" stroke-dasharray="" stroke="black" points="20.0,61.7 20.0,90.3 32.0,90.3 32.0,61.7 20.0,61.7" />
<polygon fill="none" stroke-width="1" stroke-dasharray="" stroke="black" points="20.0,106.5 20.0,132.0 32.0,132.0 32.0,125.0 27.0,125.0 27.0,120.0 32.0,120.0 32.0,106.5 20.0,106.5" />
<polygon fill="none" stroke-width="1" stroke-dasharray="" stroke="black" points="20.0,20.0 20.0,20.0 20.0,20.0 32.0,20.0 32.0,20.0 20.0,20.0" />
<polygon fill="none" stroke-width="1" stroke-dasharray="" stroke="black" points="20.0,132.0 32.0,132.0 32.0,132.0 20.0,132.0 20.0,132.0 20.0,132.0" />
<polygon fill="none" stroke-width="1" stroke-dasharray="" stroke="black" points="32.0,45.5 20.0,45.5 20.0,20.0 32.0,20.0 32.0,45.5" />
<polygon fill="none" stroke-width="1" stroke-dasharray="" stroke="black" points="32.0,61.7 32.0,90.3 20.0,90.3 20.0,61.7 32.0,61.7" />
<polygon fill="none" stroke-width="1" stroke-dasharray="" stroke="black" points="32.0,106.5 32.0,120.0 27.0,120.0 27.0,125.0 32.0,125.0 32.0,132.0 20.0,132.0 20.0,106.5 32.0,106.5" />
<polygon fill="none" stroke-width="1" stroke-dasharray="" stroke="black" points="20.0,42.4 20.0,45.5 32.0,45.5 32.0,42.4" />
<polygon fill="none" stroke-width="1" stroke-dasharray="" stroke="black" points="20.0,42.4 32.0,42.4 32.0,45.5 20.0,45.5" />
<polygon fill="none" stroke-width="1" stroke-dasharray="" stroke="black" points="32.0,64.8 32.0,61.7 20.0,61.7 20.0,64.8" />
<polygon fill="none" stroke-width="1" stroke-dasharray="" stroke="black" points="20.0,61.7 32.0,61.7 32.0,64.8 20.0,64.8" />
<polygon fill="none" stroke-width="1" stroke-dasharray="" stroke="black" points="20.0,87.2 20.0,90.3 32.0,90.3 32.0,87.2" />
<polygon fill="none" stroke-width="1" stroke-dasharray="" stroke="black" points="20.0,87.2 32.0,87.2 32.0,90.3 20.0,90.3" />
<polygon fill="none" stroke-width="1" stroke-dasharray="" stroke="black" points="32.0,109.6 32.0,106.5 20.0,106.5 20.0,109.6" />
<polygon fill="none" stroke-width="1" stroke-dasharray="" stroke="black" points="20.0,106.5 32.0,106.5 32.0,109.6 20.0,109.6" />
<polygon fill="none" stroke-width="1" stroke-dasharray="" stroke="black" points="32.0,42.4 32.0,64.8 20.0,64.8 20.0,42.4 32.0,42.4" />
<polygon fill="none" stroke-width="1" stroke-dasharray="" stroke="black" points="32.0,87.2 32.0,109.6 20.0,109.6 20.0,87.2 32.0,87.2" />
<polygon fill="none" stroke-width="1" stroke-dasharray="" stroke="black" points="20.0,45.5 20.0,42.4 20.0,20.0 20.0,20.0 20.0,45.5" />
<polygon fill="none" stroke-width="1" stroke-dasharray="" stroke="black" points="20.0,61.7 20.0,90.3 20.0,87.2 20.0,64.8 20.0,61.7" />
<polygon fill="none" stroke-width="1" stroke-dasharray="" stroke="black" points="20.0,106.5 20.0,120.0 20.0,120.0 20.0,125.0 20.0,125.0 20.0,132.0 20.0,132.0 20.0,109.6 20.0,106.5" />
<polygon fill="none" stroke-width="1" stroke-dasharray="" stroke="black" points="20.0,42.4 20.0,45.5 20.0,20.0 20.0,20.0 20.0,42.4" />
<polygon fill="none" stroke-width="1" stroke-dasharray="" stroke="black" points="20.0,64.8 20.0,87.2 20.0,90.3 20.0,61.7 20.0,64.8" />
<polygon fill="none" stroke-width="1" stroke-dasharray="" stroke="black" points="20.0,109.6 20.0,132.0 20.0,132.0 20.0,125.0 20.0,125.0 20.0,120.0 20.0,120.0 20.0,106.5 20.0,109.6" />
<polygon fill="none" stroke-width="1" stroke-dasharray="" stroke="black" points="20.0,109.6 20.0,106.5 20.0,132.0 20.0,132.0 20.0,106.5 20.0,109.6 20.0,109.6 20.0,87.2 20.0,87.2 20.0,90.3 20.0,61.7 20.0,64.8 20.0,42.4 20.0,45.5 20.0,20.0 20.0,20.0 20.0,20.0 20.0,20.0 20.0,45.5 20.0,42.4 20.0,64.8 20.0,61.7 20.0,90.3 20.0,87.2 20.0,87.2 20.0,109.6" />
<polygon fill="none" stroke-width="1" stroke-dasharray="" stroke="black" points="20.0,120.0 20.0,120.0 20.0,135.0 20.0,135.0" />
<polyline fill="none" stroke-width="1" stroke-dasharray="2" stroke="silver" points="244.0,132.0 244.0,147.0" />
<polyline fill="none" stroke-width="1" stroke-dasharray="2" stroke="silver" points="20.0,132.0 20.0,147.0" />
<polyline fill="none" stroke-width="1" stroke-dasharray="2" stroke="gray" points="20.0,147.0 244.0,147.0" />
<polyline fill="none" stroke-width="1" stroke-dasharray="" stroke="gray" points="-4.0,-2.0 0.0,0.0 -4.0,2.0" transform="translate(243.0, 147.0) rotate(0.0)" />
<polyline fill="none" stroke-width="1" stroke-dasharray="" stroke="gray" points="-4.0,-2.0 0.0,0.0 -4.0,2.0" transform="translate(21.0, 147.0) rotate(180.0)" />
<rect x="117.0" y="142.0" width="30" height="10" style="fill: rgba(255,255,255,0.75); stroke: none; stroke-width: 1;" />
<text style="font-size:12px" text-anchor="middle" x="132.0" y="150.0" fill="black">224</text>
<polyline fill="none" stroke-width="1" stroke-dasharray="2" stroke="silver" points="244.0,132.0 259.0,132.0" />
<polyline fill="none" stroke-width="1" stroke-dasharray="2" stroke="silver" points="244.0,20.0 259.0,20.0" />
<polyline fill="none" stroke-width="1" stroke-dasharray="2" stroke="gray" points="259.0,20.0 259.0,132.0" />
<polyline fill="none" stroke-width="1" stroke-dasharray="" stroke="gray" points="-4.0,-2.0 0.0,0.0 -4.0,2.0" transform="translate(259.0, 131.0) rotate(90.0)" />
<polyline fill="none" stroke-width="1" stroke-dasharray="" stroke="gray" points="-4.0,-2.0 0.0,0.0 -4.0,2.0" transform="translate(259.0, 21.0) rotate(-90.0)" />
<rect x="254.0" y="61.0" width="10" height="30" style="fill: rgba(255,255,255,0.75); stroke: none; stroke-width: 1;" />
<text style="font-size:12px" text-anchor="middle" x="0" y="0" fill="black" transform="translate(256.0 76.0) rotate(90)">112</text>
<polyline fill="none" stroke-width="1" stroke-dasharray="2" stroke="silver" points="232.0,-52.0 232.0,-77.0" />
<polyline fill="none" stroke-width="1" stroke-dasharray="2" stroke="silver" points="32.0,-52.0 32.0,-77.0" />
<polyline fill="none" stroke-width="1" stroke-dasharray="2" stroke="gray" points="32.0,-77.0 232.0,-77.0" />
<polyline fill="none" stroke-width="1" stroke-dasharray="" stroke="gray" points="-4.0,-2.0 0.0,0.0 -4.0,2.0" transform="translate(231.0, -77.0) rotate(0.0)" />
<polyline fill="none" stroke-width="1" stroke-dasharray="" stroke="gray" points="-4.0,-2.0 0.0,0.0 -4.0,2.0" transform="translate(33.0, -77.0) rotate(180.0)" />
<rect x="117.0" y="-82.0" width="30" height="10" style="fill: rgba(255,255,255,0.75); stroke: none; stroke-width: 1;" />
<text style="font-size:12px" text-anchor="middle" x="132.0" y="-74.0" fill="black">200</text>
<polyline fill="none" stroke-width="1" stroke-dasharray="2" stroke="silver" points="232.0,32.0 247.0,32.0" />
<polyline fill="none" stroke-width="1" stroke-dasharray="2" stroke="silver" points="232.0,-52.0 247.0,-52.0" />
<polyline fill="none" stroke-width="1" stroke-dasharray="2" stroke="gray" points="247.0,-52.0 247.0,32.0" />
<polyline fill="none" stroke-width="1" stroke-dasharray="" stroke="gray" points="-4.0,-2.0 0.0,0.0 -4.0,2.0" transform="translate(247.0, 31.0) rotate(90.0)" />
<polyline fill="none" stroke-width="1" stroke-dasharray="" stroke="gray" points="-4.0,-2.0 0.0,0.0 -4.0,2.0" transform="translate(247.0, -51.0) rotate(-90.0)" />
<rect x="242.0" y="-22.5" width="10" height="25" style="fill: rgba(255,255,255,0.75); stroke: none; stroke-width: 1;" />
<text style="font-size:12px" text-anchor="middle" x="0" y="0" fill="black" transform="translate(244.0 -10.0) rotate(90)">84</text>
<polyline fill="none" stroke-width="1" stroke-dasharray="2" stroke="silver" points="232.0,67.0 232.0,82.0" />
<polyline fill="none" stroke-width="1" stroke-dasharray="2" stroke="silver" points="132.0,67.0 132.0,82.0" />
<polyline fill="none" stroke-width="1" stroke-dasharray="2" stroke="gray" points="132.0,82.0 232.0,82.0" />
<polyline fill="none" stroke-width="1" stroke-dasharray="" stroke="gray" points="-4.0,-2.0 0.0,0.0 -4.0,2.0" transform="translate(231.0, 82.0) rotate(0.0)" />
<polyline fill="none" stroke-width="1" stroke-dasharray="" stroke="gray" points="-4.0,-2.0 0.0,0.0 -4.0,2.0" transform="translate(133.0, 82.0) rotate(180.0)" />
<rect x="167.0" y="77.0" width="30" height="10" style="fill: rgba(255,255,255,0.75); stroke: none; stroke-width: 1;" />
<text style="font-size:12px" text-anchor="middle" x="182.0" y="85.0" fill="black">100</text>
<polyline fill="none" stroke-width="1" stroke-dasharray="2" stroke="silver" points="132.0,67.0 117.0,67.0" />
<polyline fill="none" stroke-width="1" stroke-dasharray="2" stroke="silver" points="132.0,37.0 117.0,37.0" />
<polyline fill="none" stroke-width="1" stroke-dasharray="2" stroke="gray" points="117.0,37.0 117.0,67.0" />
<polyline fill="none" stroke-width="1" stroke-dasharray="" stroke="gray" points="-4.0,-2.0 0.0,0.0 -4.0,2.0" transform="translate(117.0, 66.0) rotate(90.0)" />
<polyline fill="none" stroke-width="1" stroke-dasharray="" stroke="gray" points="-4.0,-2.0 0.0,0.0 -4.0,2.0" transform="translate(117.0, 38.0) rotate(-90.0)" />
<rect x="112.0" y="39.5" width="10" height="25" style="fill: rgba(255,255,255,0.75); stroke: none; stroke-width: 1;" />
<text style="font-size:12px" text-anchor="middle" x="0" y="0" fill="black" transform="translate(120.0 52.0) rotate(-90)">30</text>
</svg>
