<svg width="1100" viewBox="0 0 550 1085.4852813742386" xmlns="http://www.w3.org/2000/svg">
<polygon fill="none" stroke-width="1" stroke-dasharray="2" stroke="gray" points="406.47528137423853,94.48528137423857 406.4752813742386,81.36945283300831 418.4852813742386,84.47269749026084 418.4852813742386,58.997865258216294 406.4752813742386,62.10110991546882 406.4752813742386,50.86945283300832 418.4852813742386,53.97269749026084 418.4852813742386,53.97269749026084 418.4852813742386,28.497865258216294 418.4852813742386,28.497865258216294 406.4752813742386,31.601109915468818 406.4752813742386,18.485281374238568 30.49528137423862,18.485281374238568 30.49528137423857,31.601109915468818 18.48528137423857,28.4978652582163 18.48528137423857,28.4978652582163 18.48528137423857,53.97269749026084 18.48528137423857,53.97269749026084 30.49528137423857,50.86945283300832 30.49528137423857,62.10110991546882 18.48528137423857,58.997865258216294 18.48528137423857,84.47269749026083 30.49528137423857,81.36945283300831 30.49528137423862,94.48528137423857 30.49528137423862,94.48528137423857 406.47528137423853,94.48528137423857" />
<polygon fill="none" stroke-width="1" stroke-dasharray="2" stroke="gray" points="10.0,19.99 10.0,45.51 18.48528137423857,53.995281374238566 18.48528137423857,28.475281374238563 10.0,19.99" />
<polygon fill="none" stroke-width="1" stroke-dasharray="2" stroke="gray" points="10.0,50.49 10.0,76.01 18.48528137423857,84.49528137423857 18.48528137423857,58.97528137423857 10.0,50.49" />
<polygon fill="none" stroke-width="1" stroke-dasharray="2" stroke="gray" points="18.48528137423857,28.485281374238568 30.48528137423857,31.59110991546882 22.0,23.10582854123025 10.0,20.0" />
<polygon fill="rgba(255,255,255,0.75)" stroke-width="1" stroke-dasharray="" stroke="black" points="10.0,45.5 22.0,42.39417145876975 30.48528137423857,50.879452833008315 18.48528137423857,53.98528137423857" />
<polygon fill="none" stroke-width="1" stroke-dasharray="2" stroke="gray" points="18.48528137423857,58.98528137423857 30.48528137423857,62.09110991546882 22.0,53.60582854123025 10.0,50.5" />
<polygon fill="rgba(255,255,255,0.75)" stroke-width="1" stroke-dasharray="" stroke="black" points="10.0,76.0 22.0,72.89417145876975 30.48528137423857,81.37945283300832 18.48528137423857,84.48528137423857" />
<polygon fill="none" stroke-width="1" stroke-dasharray="2" stroke="gray" points="22.0,23.11582854123025 30.48528137423857,31.601109915468818 30.48528137423857,18.485281374238568 22.0,10.0 22.0,23.11582854123025" />
<polygon fill="none" stroke-width="1" stroke-dasharray="2" stroke="gray" points="22.0,42.38417145876975 22.0,53.61582854123026 30.48528137423857,62.10110991546882 30.48528137423857,50.86945283300831 22.0,42.38417145876975" />
<polygon fill="none" stroke-width="1" stroke-dasharray="2" stroke="gray" points="22.0,72.88417145876974 22.0,86.0 30.48528137423857,94.48528137423857 30.48528137423857,81.36945283300831 22.0,72.88417145876974" />
<polygon fill="none" stroke-width="1" stroke-dasharray="2" stroke="gray" points="397.98999999999995,10.0 22.009999999999998,10.0 22.009999999999998,10.0 30.495281374238562,18.485281374238568 406.4752813742386,18.485281374238568 397.98999999999995,10.0" />
<polygon fill="rgba(192,192,192,0.75)" stroke-width="1" stroke-dasharray="" stroke="black" points="397.98999999999995,86.0 406.4752813742386,94.48528137423857 30.495281374238562,94.48528137423857 22.009999999999998,86.0 22.009999999999998,86.0 397.98999999999995,86.0" />
<polygon fill="rgba(255,255,255,0.75)" stroke-width="1" stroke-dasharray="" stroke="black" points="406.4852813742386,31.601109915468818 398.0,23.11582854123025 398.0,10.0 406.4852813742386,18.485281374238568 406.4852813742386,31.601109915468818" />
<polygon fill="rgba(255,255,255,0.75)" stroke-width="1" stroke-dasharray="" stroke="black" points="406.4852813742386,50.86945283300832 406.4852813742386,62.101109915468825 398.0,53.61582854123025 398.0,42.38417145876974 406.4852813742386,50.86945283300832" />
<polygon fill="rgba(255,255,255,0.75)" stroke-width="1" stroke-dasharray="" stroke="black" points="406.4852813742386,81.36945283300831 406.4852813742386,94.48528137423857 398.0,86.0 398.0,72.88417145876974 406.4852813742386,81.36945283300831" />
<polygon fill="none" stroke-width="1" stroke-dasharray="2" stroke="gray" points="410.0,20.0 398.0,23.10582854123025 406.4852813742386,31.59110991546882 418.4852813742386,28.485281374238568" />
<polygon fill="rgba(192,192,192,0.75)" stroke-width="1" stroke-dasharray="" stroke="silver" points="418.4852813742386,53.98528137423857 406.4852813742386,50.879452833008315 398.0,42.39417145876975 410.0,45.5" />
<polygon fill="none" stroke-width="1" stroke-dasharray="2" stroke="gray" points="410.0,50.5 398.0,53.60582854123025 406.4852813742386,62.09110991546882 418.4852813742386,58.98528137423857" />
<polygon fill="rgba(192,192,192,0.75)" stroke-width="1" stroke-dasharray="" stroke="silver" points="418.4852813742386,84.48528137423857 406.4852813742386,81.37945283300832 398.0,72.89417145876975 410.0,76.0" />
<polygon fill="rgba(255,255,255,0.75)" stroke-width="1" stroke-dasharray="" stroke="black" points="418.4852813742386,28.47528137423857 418.4852813742386,53.995281374238566 410.0,45.51 410.0,19.989999999999995 418.4852813742386,28.47528137423857" />
<polygon fill="rgba(255,255,255,0.75)" stroke-width="1" stroke-dasharray="" stroke="black" points="418.4852813742386,58.97528137423857 418.4852813742386,84.49528137423857 410.0,76.01 410.0,50.49 418.4852813742386,58.97528137423857" />
<polygon fill="rgba(255,255,255,0.75)" stroke-width="1" stroke-dasharray="" stroke="black" points="410.0,75.98741611602227 397.99,72.88417145876974 397.99,86.0 22.009999999999998,86.0 22.009999999999998,72.88417145876974 10.0,75.98741611602226 10.0,75.98741611602226 10.0,50.512583883977726 10.0,50.512583883977726 22.009999999999998,53.61582854123025 22.009999999999998,42.38417145876975 10.0,45.487416116022274 10.0,20.012583883977726 22.009999999999998,23.11582854123025 22.009999999999998,10.0 22.009999999999998,10.0 397.99000000000007,10.0 397.99000000000007,10.0 397.99,23.11582854123025 410.0,20.012583883977726 410.0,45.48741611602228 397.99,42.38417145876975 397.99,53.61582854123025 410.0,50.512583883977726 410.0,50.512583883977726 410.0,75.98741611602227" />
<text style="" text-anchor="middle" x="210.0" y="48.0" fill="black">box front</text>
<polygon fill="none" stroke-width="1" stroke-dasharray="2" stroke="gray" points="206.4752813742386,194.48528137423858 206.4752813742386,181.36945283300832 218.48528137423858,184.47269749026086 218.48528137423858,158.9978652582163 206.4752813742386,162.10110991546884 206.4752813742386,150.86945283300832 218.48528137423858,153.97269749026086 218.48528137423858,153.97269749026086 218.48528137423858,128.4978652582163 218.48528137423858,128.4978652582163 206.4752813742386,131.6011099154688 206.4752813742386,118.48528137423857 30.495281374238562,118.48528137423857 30.49528137423857,131.6011099154688 18.48528137423857,128.4978652582163 18.48528137423857,128.4978652582163 18.48528137423857,153.97269749026086 18.48528137423857,153.97269749026086 30.49528137423857,150.86945283300832 30.49528137423857,162.10110991546884 18.48528137423857,158.9978652582163 18.48528137423857,184.47269749026083 30.49528137423857,181.36945283300832 30.495281374238534,194.48528137423858 30.495281374238534,194.48528137423858 206.4752813742386,194.48528137423858" />
<polygon fill="none" stroke-width="1" stroke-dasharray="2" stroke="gray" points="10.0,119.99 10.0,145.51 18.48528137423857,153.99528137423857 18.48528137423857,128.47528137423856 10.0,119.99" />
<polygon fill="none" stroke-width="1" stroke-dasharray="2" stroke="gray" points="10.0,150.49 10.0,176.01 18.48528137423857,184.49528137423857 18.48528137423857,158.9752813742386 10.0,150.49" />
<polygon fill="none" stroke-width="1" stroke-dasharray="2" stroke="gray" points="18.48528137423857,128.48528137423858 30.48528137423857,131.59110991546882 22.0,123.10582854123025 10.0,120.0" />
<polygon fill="rgba(255,255,255,0.75)" stroke-width="1" stroke-dasharray="" stroke="black" points="10.0,145.5 22.0,142.39417145876973 30.48528137423857,150.87945283300832 18.48528137423857,153.98528137423858" />
<polygon fill="none" stroke-width="1" stroke-dasharray="2" stroke="gray" points="18.48528137423857,158.98528137423858 30.48528137423857,162.09110991546885 22.0,153.60582854123027 10.0,150.5" />
<polygon fill="rgba(255,255,255,0.75)" stroke-width="1" stroke-dasharray="" stroke="black" points="10.0,176.0 22.0,172.89417145876973 30.48528137423857,181.37945283300832 18.48528137423857,184.48528137423858" />
<polygon fill="none" stroke-width="1" stroke-dasharray="2" stroke="gray" points="22.0,123.11582854123024 30.48528137423857,131.60110991546884 30.48528137423857,118.48528137423857 22.0,110.0 22.0,123.11582854123024" />
<polygon fill="none" stroke-width="1" stroke-dasharray="2" stroke="gray" points="22.0,142.38417145876974 22.0,153.61582854123026 30.48528137423857,162.10110991546884 30.48528137423857,150.86945283300832 22.0,142.38417145876974" />
<polygon fill="none" stroke-width="1" stroke-dasharray="2" stroke="gray" points="22.0,172.88417145876974 22.0,186.0 30.48528137423857,194.48528137423858 30.48528137423857,181.36945283300832 22.0,172.88417145876974" />
<polygon fill="none" stroke-width="1" stroke-dasharray="2" stroke="gray" points="197.99000000000004,110.0 22.009999999999998,110.0 22.009999999999998,110.0 30.49528137423859,118.48528137423857 206.4752813742386,118.48528137423857 197.99000000000004,110.0" />
<polygon fill="rgba(192,192,192,0.75)" stroke-width="1" stroke-dasharray="" stroke="black" points="197.99000000000004,186.0 206.4752813742386,194.48528137423858 30.49528137423859,194.48528137423858 22.009999999999998,186.0 22.009999999999998,186.0 197.99000000000004,186.0" />
<polygon fill="rgba(255,255,255,0.75)" stroke-width="1" stroke-dasharray="" stroke="black" points="206.48528137423858,131.6011099154688 198.0,123.11582854123026 198.0,110.0 206.48528137423858,118.48528137423857 206.48528137423858,131.6011099154688" />
<polygon fill="rgba(255,255,255,0.75)" stroke-width="1" stroke-dasharray="" stroke="black" points="206.48528137423858,150.86945283300832 206.48528137423858,162.10110991546884 198.0,153.61582854123026 198.0,142.38417145876974 206.48528137423858,150.86945283300832" />
<polygon fill="rgba(255,255,255,0.75)" stroke-width="1" stroke-dasharray="" stroke="black" points="206.48528137423858,181.36945283300832 206.48528137423858,194.48528137423858 198.0,186.0 198.0,172.88417145876974 206.48528137423858,181.36945283300832" />
<polygon fill="none" stroke-width="1" stroke-dasharray="2" stroke="gray" points="210.0,120.0 198.0,123.10582854123025 206.48528137423858,131.59110991546882 218.48528137423858,128.48528137423858" />
<polygon fill="rgba(192,192,192,0.75)" stroke-width="1" stroke-dasharray="" stroke="silver" points="218.48528137423858,153.98528137423858 206.48528137423858,150.87945283300832 198.0,142.39417145876973 210.0,145.5" />
<polygon fill="none" stroke-width="1" stroke-dasharray="2" stroke="gray" points="210.0,150.5 198.0,153.60582854123027 206.48528137423858,162.09110991546885 218.48528137423858,158.98528137423858" />
<polygon fill="rgba(192,192,192,0.75)" stroke-width="1" stroke-dasharray="" stroke="silver" points="218.48528137423858,184.48528137423858 206.48528137423858,181.37945283300832 198.0,172.89417145876973 210.0,176.0" />
<polygon fill="rgba(255,255,255,0.75)" stroke-width="1" stroke-dasharray="" stroke="black" points="218.48528137423858,128.47528137423856 218.48528137423858,153.99528137423857 210.0,145.51 210.0,119.99 218.48528137423858,128.47528137423856" />
<polygon fill="rgba(255,255,255,0.75)" stroke-width="1" stroke-dasharray="" stroke="black" points="218.48528137423858,158.9752813742386 218.48528137423858,184.49528137423857 210.0,176.01 210.0,150.49 218.48528137423858,158.9752813742386" />
<polygon fill="rgba(255,255,255,0.75)" stroke-width="1" stroke-dasharray="" stroke="black" points="210.0,175.98741611602227 197.99,172.88417145876974 197.99,186.0 22.009999999999998,186.0 22.009999999999998,172.88417145876974 10.0,175.98741611602225 10.0,175.98741611602225 10.0,150.51258388397773 10.0,150.51258388397773 22.009999999999998,153.61582854123026 22.009999999999998,142.38417145876974 10.0,145.48741611602227 10.0,120.01258388397773 22.009999999999998,123.11582854123024 22.009999999999998,110.0 22.009999999999998,110.0 197.98999999999998,110.0 197.98999999999998,110.0 197.99,123.11582854123024 210.0,120.01258388397773 210.0,145.48741611602227 197.99,142.38417145876974 197.99,153.61582854123026 210.0,150.51258388397773 210.0,150.51258388397773 210.0,175.98741611602227" />
<text style="" text-anchor="middle" x="110.0" y="148.0" fill="black">box left</text>
<polygon fill="none" stroke-width="1" stroke-dasharray="2" stroke="gray" points="418.4852813742386,262.0811099154688 418.4852813742386,250.8894528330083 418.4852813742386,250.8894528330083 406.4752813742386,250.88945283300833 406.4752813742386,231.58110991546883 418.4852813742386,231.58110991546883 418.4852813742386,218.48528137423858 18.48528137423857,218.48528137423858 18.48528137423857,231.58110991546883 18.48528137423857,231.58110991546883 30.49528137423857,231.58110991546883 30.49528137423857,250.88945283300833 18.48528137423857,250.88945283300833 18.48528137423857,262.0811099154688 30.49528137423857,262.0811099154688 30.49528137423857,281.3894528330083 18.48528137423857,281.3894528330083 18.48528137423857,281.3894528330083 18.48528137423857,294.4852813742386 418.4852813742386,294.4852813742386 418.4852813742386,281.3894528330083 406.4752813742386,281.3894528330083 406.4752813742386,262.0811099154688 418.4852813742386,262.0811099154688" />
<polygon fill="none" stroke-width="1" stroke-dasharray="2" stroke="gray" points="10.0,220.01258388397773 18.48528137423857,231.5985260314911 18.48528137423857,218.48528137423858 10.0,210.0 10.0,220.01258388397773" />
<polygon fill="none" stroke-width="1" stroke-dasharray="2" stroke="gray" points="10.0,245.48741611602227 10.0,250.51258388397773 18.48528137423857,262.0985260314911 18.48528137423857,250.87203671698606 10.0,245.48741611602227" />
<polygon fill="none" stroke-width="1" stroke-dasharray="2" stroke="gray" points="10.0,275.98741611602225 10.0,286.0 18.48528137423857,294.4852813742386 18.48528137423857,281.3720367169861 10.0,275.98741611602225" />
<polygon fill="rgba(255,255,255,0.75)" stroke-width="1" stroke-dasharray="" stroke="black" points="10.0,220.0 22.0,220.0 30.48528137423857,231.59110991546882 18.48528137423857,231.59110991546882" />
<polygon fill="none" stroke-width="1" stroke-dasharray="2" stroke="gray" points="18.48528137423857,250.87945283300832 30.48528137423857,250.87945283300832 22.0,245.5 10.0,245.5" />
<polygon fill="rgba(255,255,255,0.75)" stroke-width="1" stroke-dasharray="" stroke="black" points="10.0,250.5 22.0,250.5 30.48528137423857,262.09110991546885 18.48528137423857,262.09110991546885" />
<polygon fill="none" stroke-width="1" stroke-dasharray="2" stroke="gray" points="18.48528137423857,281.3794528330083 30.48528137423857,281.3794528330083 22.0,276.0 10.0,276.0" />
<polygon fill="none" stroke-width="1" stroke-dasharray="2" stroke="gray" points="22.0,219.99258388397772 22.0,245.50741611602226 30.48528137423857,250.89203671698607 30.48528137423857,231.5785260314911 22.0,219.99258388397772" />
<polygon fill="none" stroke-width="1" stroke-dasharray="2" stroke="gray" points="22.0,250.49258388397772 22.0,276.0074161160223 30.48528137423857,281.39203671698607 30.48528137423857,262.0785260314911 22.0,250.49258388397772" />
<polygon fill="none" stroke-width="1" stroke-dasharray="2" stroke="gray" points="18.48528137423857,218.48528137423858 418.4852813742386,218.48528137423858 410.0,210.0 10.0,210.0" />
<polygon fill="rgba(192,192,192,0.75)" stroke-width="1" stroke-dasharray="" stroke="black" points="10.0,286.0 410.0,286.0 418.4852813742386,294.4852813742386 18.48528137423857,294.4852813742386" />
<polygon fill="rgba(255,255,255,0.75)" stroke-width="1" stroke-dasharray="" stroke="black" points="406.4852813742386,231.5785260314911 406.4852813742386,250.89203671698604 398.0,245.50741611602226 398.0,219.99258388397772 406.4852813742386,231.5785260314911" />
<polygon fill="rgba(255,255,255,0.75)" stroke-width="1" stroke-dasharray="" stroke="black" points="406.4852813742386,262.0785260314911 406.4852813742386,281.39203671698607 398.0,276.0074161160223 398.0,250.49258388397772 406.4852813742386,262.0785260314911" />
<polygon fill="rgba(255,255,255,0.75)" stroke-width="1" stroke-dasharray="" stroke="black" points="418.4852813742386,231.59110991546882 406.4852813742386,231.59110991546882 398.0,220.0 410.0,220.0" />
<polygon fill="none" stroke-width="1" stroke-dasharray="2" stroke="gray" points="410.0,245.5 398.0,245.5 406.4852813742386,250.87945283300832 418.4852813742386,250.87945283300832" />
<polygon fill="rgba(255,255,255,0.75)" stroke-width="1" stroke-dasharray="" stroke="black" points="418.4852813742386,262.09110991546885 406.4852813742386,262.09110991546885 398.0,250.5 410.0,250.5" />
<polygon fill="none" stroke-width="1" stroke-dasharray="2" stroke="gray" points="410.0,276.0 398.0,276.0 406.4852813742386,281.3794528330083 418.4852813742386,281.3794528330083" />
<polygon fill="rgba(255,255,255,0.75)" stroke-width="1" stroke-dasharray="" stroke="black" points="418.4852813742386,231.5985260314911 410.0,220.01258388397773 410.0,210.0 418.4852813742386,218.48528137423858 418.4852813742386,231.5985260314911" />
<polygon fill="rgba(255,255,255,0.75)" stroke-width="1" stroke-dasharray="" stroke="black" points="418.4852813742386,250.87203671698606 418.4852813742386,262.0985260314911 410.0,250.51258388397773 410.0,245.48741611602227 418.4852813742386,250.87203671698606" />
<polygon fill="rgba(255,255,255,0.75)" stroke-width="1" stroke-dasharray="" stroke="black" points="418.4852813742386,281.37203671698603 418.4852813742386,294.4852813742386 410.0,286.0 410.0,275.98741611602225 418.4852813742386,281.37203671698603" />
<polygon fill="rgba(255,255,255,0.75)" stroke-width="1" stroke-dasharray="" stroke="black" points="410.0,276.01 410.0,286.0 10.0,286.0 10.0,276.01 22.009999999999998,276.01 22.009999999999998,250.49 10.0,250.49 10.0,250.49 10.0,245.51 10.0,245.51 22.009999999999998,245.51 22.009999999999998,219.99 10.0,219.99 10.0,210.0 410.0,210.0 410.0,219.99 410.0,219.99 397.99,219.99 397.99,245.51 410.0,245.51 410.0,250.49 397.99,250.49 397.99,276.01 410.0,276.01" />
<text style="" text-anchor="middle" x="210.0" y="248.0" fill="black">box back</text>
<polygon fill="none" stroke-width="1" stroke-dasharray="2" stroke="gray" points="218.48528137423858,362.08110991546886 218.48528137423858,350.8894528330083 218.48528137423858,350.8894528330083 206.4752813742386,350.8894528330083 206.4752813742386,331.58110991546886 218.48528137423858,331.58110991546886 218.48528137423858,318.4852813742386 18.48528137423857,318.4852813742386 18.48528137423857,331.58110991546886 18.48528137423857,331.58110991546886 30.49528137423857,331.58110991546886 30.49528137423857,350.8894528330083 18.48528137423857,350.8894528330083 18.48528137423857,362.08110991546886 30.49528137423857,362.08110991546886 30.49528137423857,381.3894528330083 18.48528137423857,381.3894528330083 18.48528137423857,381.3894528330083 18.48528137423857,394.4852813742386 218.48528137423858,394.4852813742386 218.48528137423858,381.3894528330083 206.4752813742386,381.3894528330083 206.4752813742386,362.08110991546886 218.48528137423858,362.08110991546886" />
<polygon fill="none" stroke-width="1" stroke-dasharray="2" stroke="gray" points="10.0,320.01258388397775 18.48528137423857,331.5985260314911 18.48528137423857,318.4852813742386 10.0,310.0 10.0,320.01258388397775" />
<polygon fill="none" stroke-width="1" stroke-dasharray="2" stroke="gray" points="10.0,345.48741611602225 10.0,350.51258388397775 18.48528137423857,362.0985260314911 18.48528137423857,350.8720367169861 10.0,345.48741611602225" />
<polygon fill="none" stroke-width="1" stroke-dasharray="2" stroke="gray" points="10.0,375.98741611602225 10.0,386.0 18.48528137423857,394.4852813742386 18.48528137423857,381.3720367169861 10.0,375.98741611602225" />
<polygon fill="rgba(255,255,255,0.75)" stroke-width="1" stroke-dasharray="" stroke="black" points="10.0,320.0 22.0,320.0 30.48528137423857,331.59110991546885 18.48528137423857,331.59110991546885" />
<polygon fill="none" stroke-width="1" stroke-dasharray="2" stroke="gray" points="18.48528137423857,350.8794528330083 30.48528137423857,350.8794528330083 22.0,345.5 10.0,345.5" />
<polygon fill="rgba(255,255,255,0.75)" stroke-width="1" stroke-dasharray="" stroke="black" points="10.0,350.5 22.0,350.5 30.48528137423857,362.09110991546885 18.48528137423857,362.09110991546885" />
<polygon fill="none" stroke-width="1" stroke-dasharray="2" stroke="gray" points="18.48528137423857,381.3794528330083 30.48528137423857,381.3794528330083 22.0,376.0 10.0,376.0" />
<polygon fill="none" stroke-width="1" stroke-dasharray="2" stroke="gray" points="22.0,319.9925838839777 22.0,345.5074161160223 30.48528137423857,350.89203671698607 30.48528137423857,331.5785260314911 22.0,319.9925838839777" />
<polygon fill="none" stroke-width="1" stroke-dasharray="2" stroke="gray" points="22.0,350.4925838839777 22.0,376.0074161160223 30.48528137423857,381.39203671698607 30.48528137423857,362.0785260314911 22.0,350.4925838839777" />
<polygon fill="none" stroke-width="1" stroke-dasharray="2" stroke="gray" points="18.48528137423857,318.4852813742386 218.48528137423858,318.4852813742386 210.0,310.0 10.0,310.0" />
<polygon fill="rgba(192,192,192,0.75)" stroke-width="1" stroke-dasharray="" stroke="black" points="10.0,386.0 210.0,386.0 218.48528137423858,394.4852813742386 18.48528137423857,394.4852813742386" />
<polygon fill="rgba(255,255,255,0.75)" stroke-width="1" stroke-dasharray="" stroke="black" points="206.48528137423858,331.5785260314911 206.48528137423858,350.89203671698607 198.0,345.5074161160223 198.0,319.9925838839777 206.48528137423858,331.5785260314911" />
<polygon fill="rgba(255,255,255,0.75)" stroke-width="1" stroke-dasharray="" stroke="black" points="206.48528137423858,362.0785260314911 206.48528137423858,381.39203671698607 198.0,376.0074161160223 198.0,350.4925838839777 206.48528137423858,362.0785260314911" />
<polygon fill="rgba(255,255,255,0.75)" stroke-width="1" stroke-dasharray="" stroke="black" points="218.48528137423858,331.59110991546885 206.48528137423858,331.59110991546885 198.0,320.0 210.0,320.0" />
<polygon fill="none" stroke-width="1" stroke-dasharray="2" stroke="gray" points="210.0,345.5 198.0,345.5 206.48528137423858,350.8794528330083 218.48528137423858,350.8794528330083" />
<polygon fill="rgba(255,255,255,0.75)" stroke-width="1" stroke-dasharray="" stroke="black" points="218.48528137423858,362.09110991546885 206.48528137423858,362.09110991546885 198.0,350.5 210.0,350.5" />
<polygon fill="none" stroke-width="1" stroke-dasharray="2" stroke="gray" points="210.0,376.0 198.0,376.0 206.48528137423858,381.3794528330083 218.48528137423858,381.3794528330083" />
<polygon fill="rgba(255,255,255,0.75)" stroke-width="1" stroke-dasharray="" stroke="black" points="218.48528137423858,331.5985260314911 210.0,320.01258388397775 210.0,310.0 218.48528137423858,318.4852813742386 218.48528137423858,331.5985260314911" />
<polygon fill="rgba(255,255,255,0.75)" stroke-width="1" stroke-dasharray="" stroke="black" points="218.48528137423858,350.8720367169861 218.48528137423858,362.0985260314911 210.0,350.51258388397775 210.0,345.48741611602225 218.48528137423858,350.8720367169861" />
<polygon fill="rgba(255,255,255,0.75)" stroke-width="1" stroke-dasharray="" stroke="black" points="218.48528137423858,381.37203671698603 218.48528137423858,394.4852813742386 210.0,386.0 210.0,375.98741611602225 218.48528137423858,381.37203671698603" />
<polygon fill="rgba(255,255,255,0.75)" stroke-width="1" stroke-dasharray="" stroke="black" points="210.0,376.01 210.0,386.0 10.0,386.0 10.0,376.01 22.009999999999998,376.01 22.009999999999998,350.49 10.0,350.49 10.0,350.49 10.0,345.51 10.0,345.51 22.009999999999998,345.51 22.009999999999998,319.99 10.0,319.99 10.0,310.0 210.0,310.0 210.0,319.99 210.0,319.99 197.99,319.99 197.99,345.51 210.0,345.51 210.0,350.49 197.99,350.49 197.99,376.01 210.0,376.01" />
<text style="" text-anchor="middle" x="110.0" y="348.0" fill="black">box right</text>
<polygon fill="none" stroke-width="1" stroke-dasharray="2" stroke="gray" points="20.606601717798213,420.6066017177982 20.606601717798213,604.6066017177982 404.6066017177982,604.6066017177982 404.6066017177982,420.6066017177982" />
<polygon fill="none" stroke-width="1" stroke-dasharray="2" stroke="gray" points="10.0,410.0 10.0,594.0 20.606601717798213,604.6066017177982 20.606601717798213,420.6066017177982" />
<polygon fill="none" stroke-width="1" stroke-dasharray="2" stroke="gray" points="20.606601717798213,420.6066017177982 404.6066017177982,420.6066017177982 394.0,410.0 10.0,410.0" />
<polygon fill="rgba(192,192,192,0.75)" stroke-width="1" stroke-dasharray="" stroke="black" points="10.0,594.0 394.0,594.0 404.6066017177982,604.6066017177982 20.606601717798213,604.6066017177982" />
<polygon fill="rgba(255,255,255,0.75)" stroke-width="1" stroke-dasharray="" stroke="black" points="404.6066017177982,420.6066017177982 404.6066017177982,604.6066017177982 394.0,594.0 394.0,410.0" />
<polygon fill="rgba(255,255,255,0.75)" stroke-width="1" stroke-dasharray="" stroke="black" points="10.0,410.0 394.0,410.0 394.0,594.0 10.0,594.0" />
<text style="" text-anchor="middle" x="202.0" y="502.0" fill="black">box lid</text>
<polygon fill="none" stroke-width="1" stroke-dasharray="2" stroke="gray" points="12.121320343559642,626.1213203435597 12.121320343559642,826.1213203435597 412.12132034355966,826.1213203435597 412.12132034355966,626.1213203435597" />
<polygon fill="none" stroke-width="1" stroke-dasharray="2" stroke="gray" points="10.0,624.0 10.0,824.0 12.121320343559642,826.1213203435597 12.121320343559642,626.1213203435597" />
<polygon fill="none" stroke-width="1" stroke-dasharray="2" stroke="gray" points="12.121320343559642,626.1213203435597 412.12132034355966,626.1213203435597 410.0,624.0 10.0,624.0" />
<polygon fill="rgba(192,192,192,0.75)" stroke-width="1" stroke-dasharray="" stroke="black" points="10.0,824.0 410.0,824.0 412.12132034355966,826.1213203435597 12.121320343559642,826.1213203435597" />
<polygon fill="rgba(255,255,255,0.75)" stroke-width="1" stroke-dasharray="" stroke="black" points="412.12132034355966,626.1213203435597 412.12132034355966,826.1213203435597 410.0,824.0 410.0,624.0" />
<polygon fill="rgba(255,255,255,0.75)" stroke-width="1" stroke-dasharray="" stroke="black" points="10.0,624.0 410.0,624.0 410.0,824.0 10.0,824.0" />
<text style="" text-anchor="middle" x="210.0" y="724.0" fill="black">box bottom</text>
<polygon fill="none" stroke-width="1" stroke-dasharray="2" stroke="gray" points="20.606601717798213,840.6066017177982 20.606601717798213,855.6066017177982 220.6066017177982,855.6066017177982 220.6066017177982,840.6066017177982" />
<polygon fill="none" stroke-width="1" stroke-dasharray="2" stroke="gray" points="10.0,830.0 10.0,845.0 20.606601717798213,855.6066017177982 20.606601717798213,840.6066017177982" />
<polygon fill="none" stroke-width="1" stroke-dasharray="2" stroke="gray" points="20.606601717798213,840.6066017177982 220.6066017177982,840.6066017177982 210.0,830.0 10.0,830.0" />
<polygon fill="rgba(192,192,192,0.75)" stroke-width="1" stroke-dasharray="" stroke="black" points="10.0,845.0 210.0,845.0 220.6066017177982,855.6066017177982 20.606601717798213,855.6066017177982" />
<polygon fill="rgba(255,255,255,0.75)" stroke-width="1" stroke-dasharray="" stroke="black" points="220.6066017177982,840.6066017177982 220.6066017177982,855.6066017177982 210.0,845.0 210.0,830.0" />
<polygon fill="rgba(255,255,255,0.75)" stroke-width="1" stroke-dasharray="" stroke="black" points="10.0,830.0 210.0,830.0 210.0,845.0 10.0,845.0" />
<text style="" text-anchor="middle" x="110.0" y="837.5" fill="black">wedge</text>
<polygon fill="none" stroke-width="1" stroke-dasharray="2" stroke="gray" points="18.48528137423857,883.4852813742385 18.48528137423857,913.4852813742385 218.48528137423858,913.4852813742385 218.48528137423858,883.4852813742385" />
<polygon fill="none" stroke-width="1" stroke-dasharray="2" stroke="gray" points="10.0,875.0 10.0,905.0 18.48528137423857,913.4852813742385 18.48528137423857,883.4852813742385" />
<polygon fill="none" stroke-width="1" stroke-dasharray="2" stroke="gray" points="18.48528137423857,883.4852813742385 218.48528137423858,883.4852813742385 210.0,875.0 10.0,875.0" />
<polygon fill="rgba(192,192,192,0.75)" stroke-width="1" stroke-dasharray="" stroke="black" points="10.0,905.0 210.0,905.0 218.48528137423858,913.4852813742385 18.48528137423857,913.4852813742385" />
<polygon fill="rgba(255,255,255,0.75)" stroke-width="1" stroke-dasharray="" stroke="black" points="218.48528137423858,883.4852813742385 218.48528137423858,913.4852813742385 210.0,905.0 210.0,875.0" />
<polygon fill="rgba(255,255,255,0.75)" stroke-width="1" stroke-dasharray="" stroke="black" points="10.0,875.0 210.0,875.0 210.0,905.0 10.0,905.0" />
<text style="" text-anchor="middle" x="110.0" y="890.0" fill="black">bottom brace</text>
<polygon fill="none" stroke-width="1" stroke-dasharray="2" stroke="gray" points="18.48528137423857,937.4852813742385 18.48528137423857,967.4852813742385 218.48528137423858,967.4852813742385 218.48528137423858,937.4852813742385" />
<polygon fill="none" stroke-width="1" stroke-dasharray="2" stroke="gray" points="10.0,929.0 10.0,959.0 18.48528137423857,967.4852813742385 18.48528137423857,937.4852813742385" />
<polygon fill="none" stroke-width="1" stroke-dasharray="2" stroke="gray" points="18.48528137423857,937.4852813742385 218.48528137423858,937.4852813742385 210.0,929.0 10.0,929.0" />
<polygon fill="rgba(192,192,192,0.75)" stroke-width="1" stroke-dasharray="" stroke="black" points="10.0,959.0 210.0,959.0 218.48528137423858,967.4852813742385 18.48528137423857,967.4852813742385" />
<polygon fill="rgba(255,255,255,0.75)" stroke-width="1" stroke-dasharray="" stroke="black" points="218.48528137423858,937.4852813742385 218.48528137423858,967.4852813742385 210.0,959.0 210.0,929.0" />
<polygon fill="rgba(255,255,255,0.75)" stroke-width="1" stroke-dasharray="" stroke="black" points="10.0,929.0 210.0,929.0 210.0,959.0 10.0,959.0" />
<text style="" text-anchor="middle" x="110.0" y="944.0" fill="black">batten</text>
<polygon fill="none" stroke-width="1" stroke-dasharray="2" stroke="gray" points="18.48528137423857,991.4852813742385 18.48528137423857,1021.4852813742385 218.48528137423858,1021.4852813742385 218.48528137423858,991.4852813742385" />
<polygon fill="none" stroke-width="1" stroke-dasharray="2" stroke="gray" points="10.0,983.0 10.0,1013.0 18.48528137423857,1021.4852813742385 18.48528137423857,991.4852813742385" />
<polygon fill="none" stroke-width="1" stroke-dasharray="2" stroke="gray" points="18.48528137423857,991.4852813742385 218.48528137423858,991.4852813742385 210.0,983.0 10.0,983.0" />
<polygon fill="rgba(192,192,192,0.75)" stroke-width="1" stroke-dasharray="" stroke="black" points="10.0,1013.0 210.0,1013.0 218.48528137423858,1021.4852813742385 18.48528137423857,1021.4852813742385" />
<polygon fill="rgba(255,255,255,0.75)" stroke-width="1" stroke-dasharray="" stroke="black" points="218.48528137423858,991.4852813742385 218.48528137423858,1021.4852813742385 210.0,1013.0 210.0,983.0" />
<polygon fill="rgba(255,255,255,0.75)" stroke-width="1" stroke-dasharray="" stroke="black" points="10.0,983.0 210.0,983.0 210.0,1013.0 10.0,1013.0" />
<text style="" text-anchor="middle" x="110.0" y="998.0" fill="black">batten</text>
<polygon fill="none" stroke-width="1" stroke-dasharray="2" stroke="gray" points="18.48528137423857,1045.4852813742386 18.48528137423857,1075.4852813742386 218.48528137423858,1075.4852813742386 218.48528137423858,1045.4852813742386" />
<polygon fill="none" stroke-width="1" stroke-dasharray="2" stroke="gray" points="10.0,1037.0 10.0,1067.0 18.48528137423857,1075.4852813742386 18.48528137423857,1045.4852813742386" />
<polygon fill="none" stroke-width="1" stroke-dasharray="2" stroke="gray" points="18.48528137423857,1045.4852813742386 218.48528137423858,1045.4852813742386 210.0,1037.0 10.0,1037.0" />
<polygon fill="rgba(192,192,192,0.75)" stroke-width="1" stroke-dasharray="" stroke="black" points="10.0,1067.0 210.0,1067.0 218.48528137423858,1075.4852813742386 18.48528137423857,1075.4852813742386" />
<polygon fill="rgba(255,255,255,0.75)" stroke-width="1" stroke-dasharray="" stroke="black" points="218.48528137423858,1045.4852813742386 218.48528137423858,1075.4852813742386 210.0,1067.0 210.0,1037.0" />
<polygon fill="rgba(255,255,255,0.75)" stroke-width="1" stroke-dasharray="" stroke="black" points="10.0,1037.0 210.0,1037.0 210.0,1067.0 10.0,1067.0" />
<text style="" text-anchor="middle" x="110.0" y="1052.0" fill="black">batten</text>
</svg>
