<svg width="1600" viewBox="0.0 0.0 800.0 140.7" xmlns="http://www.w3.org/2000/svg">
<polygon fill="none" stroke-width="1" stroke-dasharray="2" stroke="gray" points="90.7,100.7 105.7,104.6 105.7,90.7 90.7,90.7 90.7,100.7" />
<polygon fill="none" stroke-width="1" stroke-dasharray="2" stroke="gray" points="90.7,110.7 90.7,120.7 105.7,120.7 105.7,106.8 90.7,110.7" />
<polygon fill="none" stroke-width="1" stroke-dasharray="2" stroke="gray" points="90.7,110.7 105.7,106.8 105.7,120.7 475.7,120.7 475.7,120.7 475.7,106.8 490.7,110.7 490.7,100.7 475.7,104.6 475.7,90.7 475.7,90.7 105.7,90.7 105.7,104.6 90.7,100.7 90.7,100.7 90.7,110.7" />
<polygon fill="none" stroke-width="1" stroke-dasharray="2" stroke="gray" points="475.7,104.6 490.7,100.7 490.7,90.7 475.7,90.7 475.7,104.6" />
<polygon fill="none" stroke-width="1" stroke-dasharray="2" stroke="gray" points="475.7,106.8 475.7,120.7 490.7,120.7 490.7,110.7 475.7,106.8" />
<polygon fill="none" stroke-width="1" stroke-dasharray="2" stroke="gray" points="80.1,90.1 80.1,100.1 90.7,110.7 90.7,100.7 80.1,90.1" />
<polygon fill="rgba(192,192,192,0.75)" stroke-width="1" stroke-dasharray="" stroke="silver" points="90.7,100.7 80.1,90.1 95.1,94.0 105.7,104.6" />
<polygon fill="none" stroke-width="1" stroke-dasharray="2" stroke="gray" points="105.7,106.8 95.1,96.2 80.1,100.1 90.7,110.7" />
<polygon fill="none" stroke-width="1" stroke-dasharray="2" stroke="gray" points="90.7,100.7 105.7,104.6 95.1,94.0 80.1,90.1" />
<polygon fill="rgba(255,255,255,0.75)" stroke-width="1" stroke-dasharray="" stroke="black" points="80.1,100.1 95.1,96.2 105.7,106.8 90.7,110.7" />
<polygon fill="none" stroke-width="1" stroke-dasharray="2" stroke="gray" points="95.1,94.0 105.7,104.6 105.7,90.7 95.1,80.1 95.1,94.0" />
<polygon fill="none" stroke-width="1" stroke-dasharray="2" stroke="gray" points="95.1,96.2 95.1,110.1 105.7,120.7 105.7,106.8 95.1,96.2" />
<polygon fill="none" stroke-width="1" stroke-dasharray="2" stroke="gray" points="105.7,90.7 475.7,90.7 475.7,90.7 465.1,80.1 95.1,80.1 105.7,90.7" />
<polygon fill="rgba(192,192,192,0.75)" stroke-width="1" stroke-dasharray="" stroke="black" points="105.7,120.7 95.1,110.1 465.1,110.1 475.7,120.7 475.7,120.7 105.7,120.7" />
<polygon fill="rgba(255,255,255,0.75)" stroke-width="1" stroke-dasharray="" stroke="black" points="475.7,104.6 465.1,94.0 465.1,80.1 475.7,90.7 475.7,104.6" />
<polygon fill="rgba(255,255,255,0.75)" stroke-width="1" stroke-dasharray="" stroke="black" points="475.7,106.8 475.7,120.7 465.1,110.1 465.1,96.2 475.7,106.8" />
<polygon fill="rgba(255,255,255,0.75)" stroke-width="1" stroke-dasharray="" stroke="black" points="475.7,104.6 465.1,94.0 480.1,90.1 490.7,100.7" />
<polygon fill="none" stroke-width="1" stroke-dasharray="2" stroke="gray" points="480.1,90.1 465.1,94.0 475.7,104.6 490.7,100.7" />
<polygon fill="none" stroke-width="1" stroke-dasharray="2" stroke="gray" points="490.7,110.7 480.1,100.1 465.1,96.2 475.7,106.8" />
<polygon fill="rgba(192,192,192,0.75)" stroke-width="1" stroke-dasharray="" stroke="silver" points="490.7,110.7 475.7,106.8 465.1,96.2 480.1,100.1" />
<polygon fill="rgba(255,255,255,0.75)" stroke-width="1" stroke-dasharray="" stroke="black" points="490.7,100.7 490.7,110.7 480.1,100.1 480.1,90.1 490.7,100.7" />
<polygon fill="none" stroke-width="1" stroke-dasharray="2" stroke="gray" points="80.1,90.1 80.1,100.1 95.1,96.2 95.1,94.0 80.1,90.1" />
<polygon fill="rgba(255,255,255,0.75)" stroke-width="1" stroke-dasharray="" stroke="black" points="95.1,110.1 95.1,96.2 80.1,100.1 80.1,90.1 95.1,94.0 95.1,80.1 95.1,80.1 465.1,80.1 465.1,94.0 480.1,90.1 480.1,90.1 480.1,100.1 480.1,100.1 465.1,96.2 465.1,110.1 95.1,110.1" />
<polygon fill="none" stroke-width="1" stroke-dasharray="2" stroke="gray" points="465.1,94.0 465.1,96.2 480.1,100.1 480.1,90.1 465.1,94.0" />
<polygon fill="none" stroke-width="1" stroke-dasharray="2" stroke="gray" points="20.0,40.0 20.0,50.0 90.7,120.7 90.7,110.7 90.7,110.7 80.1,100.1 80.1,90.1 90.7,100.7 90.7,90.7 20.0,20.0 20.0,30.0 30.6,40.6 30.6,50.6 20.0,40.0" />
<polygon fill="none" stroke-width="1" stroke-dasharray="2" stroke="gray" points="105.7,90.7 35.0,20.0 20.0,20.0 90.7,90.7" />
<polygon fill="rgba(192,192,192,0.75)" stroke-width="1" stroke-dasharray="" stroke="black" points="90.7,120.7 20.0,50.0 35.0,50.0 105.7,120.7" />
<polygon fill="rgba(255,255,255,0.75)" stroke-width="1" stroke-dasharray="" stroke="black" points="35.0,33.9 35.0,20.0 105.7,90.7 105.7,104.6 105.7,104.6 95.1,94.0 95.1,96.2 105.7,106.8 105.7,120.7 35.0,50.0 35.0,36.1 45.6,46.7 45.6,44.5 35.0,33.9" />
<polygon fill="none" stroke-width="1" stroke-dasharray="2" stroke="gray" points="475.7,104.6 475.7,90.7 405.0,20.0 405.0,33.9 405.0,33.9 415.6,44.5 415.6,46.7 405.0,36.1 405.0,50.0 475.7,120.7 475.7,106.8 465.1,96.2 465.1,94.0 475.7,104.6" />
<polygon fill="none" stroke-width="1" stroke-dasharray="2" stroke="gray" points="405.0,20.0 475.7,90.7 490.7,90.7 420.0,20.0" />
<polygon fill="rgba(192,192,192,0.75)" stroke-width="1" stroke-dasharray="" stroke="black" points="420.0,50.0 490.7,120.7 475.7,120.7 405.0,50.0" />
<polygon fill="rgba(255,255,255,0.75)" stroke-width="1" stroke-dasharray="" stroke="black" points="490.7,110.7 490.7,120.7 420.0,50.0 420.0,40.0 420.0,40.0 430.6,50.6 430.6,40.6 420.0,30.0 420.0,20.0 490.7,90.7 490.7,100.7 480.1,90.1 480.1,100.1 490.7,110.7" />
<polygon fill="rgba(255,255,255,0.75)" stroke-width="1" stroke-dasharray="" stroke="black" points="45.6,44.5 45.6,46.7 30.6,50.6 30.6,40.6 45.6,44.5" />
<polygon fill="none" stroke-width="1" stroke-dasharray="2" stroke="gray" points="415.6,60.6 415.6,46.7 430.6,50.6 430.6,40.6 415.6,44.5 415.6,30.6 415.6,30.6 45.6,30.6 45.6,44.5 30.6,40.6 30.6,40.6 30.6,50.6 30.6,50.6 45.6,46.7 45.6,60.6 415.6,60.6" />
<polygon fill="rgba(255,255,255,0.75)" stroke-width="1" stroke-dasharray="" stroke="black" points="430.6,40.6 430.6,50.6 415.6,46.7 415.6,44.5 430.6,40.6" />
<polygon fill="rgba(192,192,192,0.75)" stroke-width="1" stroke-dasharray="" stroke="silver" points="35.0,33.9 45.6,44.5 30.6,40.6 20.0,30.0" />
<polygon fill="none" stroke-width="1" stroke-dasharray="2" stroke="gray" points="20.0,40.0 30.6,50.6 45.6,46.7 35.0,36.1" />
<polygon fill="rgba(255,255,255,0.75)" stroke-width="1" stroke-dasharray="" stroke="black" points="420.0,30.0 430.6,40.6 415.6,44.5 405.0,33.9" />
<polygon fill="none" stroke-width="1" stroke-dasharray="2" stroke="gray" points="405.0,36.1 415.6,46.7 430.6,50.6 420.0,40.0" />
<polygon fill="none" stroke-width="1" stroke-dasharray="2" stroke="gray" points="20.0,30.0 20.0,40.0 30.6,50.6 30.6,40.6 20.0,30.0" />
<polygon fill="none" stroke-width="1" stroke-dasharray="2" stroke="gray" points="30.6,40.6 45.6,44.5 35.0,33.9 20.0,30.0" />
<polygon fill="rgba(255,255,255,0.75)" stroke-width="1" stroke-dasharray="" stroke="black" points="20.0,40.0 35.0,36.1 45.6,46.7 30.6,50.6" />
<polygon fill="none" stroke-width="1" stroke-dasharray="2" stroke="gray" points="35.0,33.9 45.6,44.5 45.6,30.6 35.0,20.0 35.0,33.9" />
<polygon fill="none" stroke-width="1" stroke-dasharray="2" stroke="gray" points="35.0,36.1 35.0,50.0 45.6,60.6 45.6,46.7 35.0,36.1" />
<polygon fill="none" stroke-width="1" stroke-dasharray="2" stroke="gray" points="405.0,20.0 35.0,20.0 35.0,20.0 45.6,30.6 415.6,30.6 405.0,20.0" />
<polygon fill="rgba(192,192,192,0.75)" stroke-width="1" stroke-dasharray="" stroke="black" points="405.0,50.0 415.6,60.6 45.6,60.6 35.0,50.0 35.0,50.0 405.0,50.0" />
<polygon fill="rgba(255,255,255,0.75)" stroke-width="1" stroke-dasharray="" stroke="black" points="415.6,44.5 405.0,33.9 405.0,20.0 415.6,30.6 415.6,44.5" />
<polygon fill="rgba(255,255,255,0.75)" stroke-width="1" stroke-dasharray="" stroke="black" points="415.6,46.7 415.6,60.6 405.0,50.0 405.0,36.1 415.6,46.7" />
<polygon fill="none" stroke-width="1" stroke-dasharray="2" stroke="gray" points="420.0,30.0 405.0,33.9 415.6,44.5 430.6,40.6" />
<polygon fill="rgba(192,192,192,0.75)" stroke-width="1" stroke-dasharray="" stroke="silver" points="430.6,50.6 415.6,46.7 405.0,36.1 420.0,40.0" />
<polygon fill="rgba(255,255,255,0.75)" stroke-width="1" stroke-dasharray="" stroke="black" points="430.6,40.6 430.6,50.6 420.0,40.0 420.0,30.0 430.6,40.6" />
<polygon fill="rgba(255,255,255,0.75)" stroke-width="1" stroke-dasharray="" stroke="black" points="35.0,33.9 20.0,30.0 20.0,20.0 35.0,20.0 35.0,33.9" />
<polygon fill="rgba(255,255,255,0.75)" stroke-width="1" stroke-dasharray="" stroke="black" points="35.0,36.1 35.0,50.0 20.0,50.0 20.0,40.0 35.0,36.1" />
<polygon fill="rgba(255,255,255,0.75)" stroke-width="1" stroke-dasharray="" stroke="black" points="420.0,30.0 405.0,33.9 405.0,20.0 420.0,20.0 420.0,30.0" />
<polygon fill="rgba(255,255,255,0.75)" stroke-width="1" stroke-dasharray="" stroke="black" points="420.0,40.0 420.0,50.0 405.0,50.0 405.0,36.1 420.0,40.0" />
<polygon fill="rgba(255,255,255,0.75)" stroke-width="1" stroke-dasharray="" stroke="black" points="420.0,40.0 405.0,36.1 405.0,50.0 35.0,50.0 35.0,50.0 35.0,36.1 20.0,40.0 20.0,30.0 35.0,33.9 35.0,20.0 35.0,20.0 405.0,20.0 405.0,33.9 420.0,30.0 420.0,30.0 420.0,40.0" />
</svg>
