<svg width="1400" viewBox="0 0 1400 1478.6066017177982" xmlns="http://www.w3.org/2000/svg">
<polygon fill="none" stroke-width="1" stroke-dasharray="2" stroke="gray" points="12.121320343559642,12.121320343559642 12.121320343559642,332.12132034355966 432.12132034355966,332.12132034355966 432.12132034355966,12.121320343559642" />
<polygon fill="none" stroke-width="1" stroke-dasharray="2" stroke="gray" points="10.0,10.0 10.0,330.0 12.121320343559642,332.12132034355966 12.121320343559642,12.121320343559642" />
<polygon fill="none" stroke-width="1" stroke-dasharray="2" stroke="gray" points="12.121320343559642,12.121320343559642 432.12132034355966,12.121320343559642 430.0,10.0 10.0,10.0" />
<polygon fill="rgba(192,192,192,0.75)" stroke-width="1" stroke-dasharray="" stroke="black" points="10.0,330.0 430.0,330.0 432.12132034355966,332.12132034355966 12.121320343559642,332.12132034355966" />
<polygon fill="rgba(255,255,255,0.75)" stroke-width="1" stroke-dasharray="" stroke="black" points="432.12132034355966,12.121320343559642 432.12132034355966,332.12132034355966 430.0,330.0 430.0,10.0" />
<polygon fill="rgba(255,255,255,0.75)" stroke-width="1" stroke-dasharray="" stroke="black" points="10.0,10.0 430.0,10.0 430.0,330.0 10.0,330.0" />
<polygon fill="rgba(0,255,0,0.25)" stroke-width="1" stroke-dasharray="" stroke="green" points="410.0,10.0 416.0,10.0 416.0,330.0 418.12132034355966,332.12132034355966 412.12132034355966,332.12132034355966 410.0,330.0" />
<text style="" text-anchor="left" x="420.0" y="20" fill="black">1</text>
<polygon fill="rgba(255,0,0,0.25)" stroke-width="1" stroke-dasharray="" stroke="rgba(255,0,0,0.25)" points="415.0,10.0 431.0,10.0 431.0,330.0 433.12132034355966,332.12132034355966 417.12132034355966,332.12132034355966 415.0,330.0" />
<polygon fill="rgba(0,0,255,0.25)" stroke-width="1" stroke-dasharray="" stroke="blue" points="10.0,110.0 411.0,110.0 411.0,115.0 10.0,115.0" />
<text style="" text-anchor="left" x="20" y="120.0" fill="black">2</text>
<polygon fill="rgba(0,0,255,0.25)" stroke-width="1" stroke-dasharray="" stroke="blue" points="10.0,315.0 411.0,315.0 411.0,320.0 10.0,320.0" />
<text style="" text-anchor="left" x="20" y="325.0" fill="black">3</text>
<polygon fill="rgba(255,0,0,0.25)" stroke-width="1" stroke-dasharray="" stroke="rgba(255,0,0,0.25)" points="10.0,320.0 411.0,320.0 411.0,330.0 413.12132034355966,332.12132034355966 12.121320343559642,332.12132034355966 10.0,330.0" />
<text style="" text-anchor="start" x="210.0" y="60.0" fill="black">till bottom</text>
<text style="" text-anchor="start" x="210.0" y="215.0" fill="black">box bottom</text>
<polygon fill="none" stroke-width="1" stroke-dasharray="2" stroke="gray" points="20.606601717798213,346.6066017177982 20.606601717798213,481.6066017177982 760.6066017177982,481.6066017177982 760.6066017177982,346.6066017177982" />
<polygon fill="none" stroke-width="1" stroke-dasharray="2" stroke="gray" points="10.0,336.0 10.0,471.0 20.606601717798213,481.6066017177982 20.606601717798213,346.6066017177982" />
<polygon fill="none" stroke-width="1" stroke-dasharray="2" stroke="gray" points="20.606601717798213,346.6066017177982 760.6066017177982,346.6066017177982 750.0,336.0 10.0,336.0" />
<polygon fill="rgba(192,192,192,0.75)" stroke-width="1" stroke-dasharray="" stroke="black" points="10.0,471.0 750.0,471.0 760.6066017177982,481.6066017177982 20.606601717798213,481.6066017177982" />
<polygon fill="rgba(255,255,255,0.75)" stroke-width="1" stroke-dasharray="" stroke="black" points="760.6066017177982,346.6066017177982 760.6066017177982,481.6066017177982 750.0,471.0 750.0,336.0" />
<polygon fill="rgba(255,255,255,0.75)" stroke-width="1" stroke-dasharray="" stroke="black" points="10.0,336.0 750.0,336.0 750.0,471.0 10.0,471.0" />
<polygon fill="rgba(0,255,0,0.25)" stroke-width="1" stroke-dasharray="" stroke="green" points="386.0,336.0 392.0,336.0 392.0,471.0 402.6066017177982,481.6066017177982 396.6066017177982,481.6066017177982 386.0,471.0" />
<text style="" text-anchor="left" x="396.0" y="346" fill="black">1</text>
<polygon fill="rgba(0,255,0,0.25)" stroke-width="1" stroke-dasharray="" stroke="green" points="607.0,336.0 613.0,336.0 613.0,471.0 623.6066017177982,481.6066017177982 617.6066017177982,481.6066017177982 607.0,471.0" />
<text style="" text-anchor="left" x="617.0" y="346" fill="black">2</text>
<polygon fill="rgba(255,0,0,0.25)" stroke-width="1" stroke-dasharray="" stroke="rgba(255,0,0,0.25)" points="612.0,336.0 751.0,336.0 751.0,471.0 761.6066017177982,481.6066017177982 622.6066017177982,481.6066017177982 612.0,471.0" />
<text style="" text-anchor="start" x="198.0" y="403.5" fill="black">box lid a</text>
<text style="" text-anchor="start" x="499.0" y="403.5" fill="black">base bottom a</text>
<polygon fill="none" stroke-width="1" stroke-dasharray="2" stroke="gray" points="20.606601717798213,511.6066017177982 20.606601717798213,646.6066017177982 760.6066017177982,646.6066017177982 760.6066017177982,511.6066017177982" />
<polygon fill="none" stroke-width="1" stroke-dasharray="2" stroke="gray" points="10.0,501.0 10.0,636.0 20.606601717798213,646.6066017177982 20.606601717798213,511.6066017177982" />
<polygon fill="none" stroke-width="1" stroke-dasharray="2" stroke="gray" points="20.606601717798213,511.6066017177982 760.6066017177982,511.6066017177982 750.0,501.0 10.0,501.0" />
<polygon fill="rgba(192,192,192,0.75)" stroke-width="1" stroke-dasharray="" stroke="black" points="10.0,636.0 750.0,636.0 760.6066017177982,646.6066017177982 20.606601717798213,646.6066017177982" />
<polygon fill="rgba(255,255,255,0.75)" stroke-width="1" stroke-dasharray="" stroke="black" points="760.6066017177982,511.6066017177982 760.6066017177982,646.6066017177982 750.0,636.0 750.0,501.0" />
<polygon fill="rgba(255,255,255,0.75)" stroke-width="1" stroke-dasharray="" stroke="black" points="10.0,501.0 750.0,501.0 750.0,636.0 10.0,636.0" />
<polygon fill="rgba(0,255,0,0.25)" stroke-width="1" stroke-dasharray="" stroke="green" points="386.0,501.0 392.0,501.0 392.0,636.0 402.6066017177982,646.6066017177982 396.6066017177982,646.6066017177982 386.0,636.0" />
<text style="" text-anchor="left" x="396.0" y="511" fill="black">1</text>
<polygon fill="rgba(0,255,0,0.25)" stroke-width="1" stroke-dasharray="" stroke="green" points="607.0,501.0 613.0,501.0 613.0,636.0 623.6066017177982,646.6066017177982 617.6066017177982,646.6066017177982 607.0,636.0" />
<text style="" text-anchor="left" x="617.0" y="511" fill="black">2</text>
<polygon fill="rgba(255,0,0,0.25)" stroke-width="1" stroke-dasharray="" stroke="rgba(255,0,0,0.25)" points="612.0,501.0 751.0,501.0 751.0,636.0 761.6066017177982,646.6066017177982 622.6066017177982,646.6066017177982 612.0,636.0" />
<text style="" text-anchor="start" x="198.0" y="568.5" fill="black">box lid b</text>
<text style="" text-anchor="start" x="499.0" y="568.5" fill="black">base bottom b</text>
<polygon fill="none" stroke-width="1" stroke-dasharray="2" stroke="gray" points="20.606601717798213,676.6066017177982 20.606601717798213,811.6066017177982 760.6066017177982,811.6066017177982 760.6066017177982,676.6066017177982" />
<polygon fill="none" stroke-width="1" stroke-dasharray="2" stroke="gray" points="10.0,666.0 10.0,801.0 20.606601717798213,811.6066017177982 20.606601717798213,676.6066017177982" />
<polygon fill="none" stroke-width="1" stroke-dasharray="2" stroke="gray" points="20.606601717798213,676.6066017177982 760.6066017177982,676.6066017177982 750.0,666.0 10.0,666.0" />
<polygon fill="rgba(192,192,192,0.75)" stroke-width="1" stroke-dasharray="" stroke="black" points="10.0,801.0 750.0,801.0 760.6066017177982,811.6066017177982 20.606601717798213,811.6066017177982" />
<polygon fill="rgba(255,255,255,0.75)" stroke-width="1" stroke-dasharray="" stroke="black" points="760.6066017177982,676.6066017177982 760.6066017177982,811.6066017177982 750.0,801.0 750.0,666.0" />
<polygon fill="rgba(255,255,255,0.75)" stroke-width="1" stroke-dasharray="" stroke="black" points="10.0,666.0 750.0,666.0 750.0,801.0 10.0,801.0" />
<polygon fill="rgba(0,255,0,0.25)" stroke-width="1" stroke-dasharray="" stroke="green" points="410.0,666.0 416.0,666.0 416.0,801.0 426.6066017177982,811.6066017177982 420.6066017177982,811.6066017177982 410.0,801.0" />
<text style="" text-anchor="left" x="420.0" y="676" fill="black">1</text>
<polygon fill="rgba(0,255,0,0.25)" stroke-width="1" stroke-dasharray="" stroke="green" points="631.0,666.0 637.0,666.0 637.0,801.0 647.6066017177982,811.6066017177982 641.6066017177982,811.6066017177982 631.0,801.0" />
<text style="" text-anchor="left" x="641.0" y="676" fill="black">2</text>
<polygon fill="rgba(255,0,0,0.25)" stroke-width="1" stroke-dasharray="" stroke="rgba(255,0,0,0.25)" points="636.0,666.0 751.0,666.0 751.0,801.0 761.6066017177982,811.6066017177982 646.6066017177982,811.6066017177982 636.0,801.0" />
<text style="" text-anchor="start" x="523.0" y="733.5" fill="black">base bottom c</text>
<polygon fill="rgba(0,0,255,0.25)" stroke-width="1" stroke-dasharray="" stroke="blue" points="10.0,696.0 411.0,696.0 411.0,701.0 10.0,701.0" />
<text style="" text-anchor="left" x="20" y="706" fill="black">3</text>
<polygon fill="rgba(0,0,255,0.25)" stroke-width="1" stroke-dasharray="" stroke="blue" points="10.0,731.0 411.0,731.0 411.0,736.0 10.0,736.0" />
<text style="" text-anchor="left" x="20" y="741" fill="black">4</text>
<polygon fill="rgba(0,0,255,0.25)" stroke-width="1" stroke-dasharray="" stroke="blue" points="10.0,766.0 411.0,766.0 411.0,771.0 10.0,771.0" />
<text style="" text-anchor="left" x="20" y="776" fill="black">5</text>
<polygon fill="rgba(0,255,0,0.25)" stroke-width="1" stroke-dasharray="" stroke="green" points="226.0,771.0 232.0,771.0 232.0,801.0 242.6066017177982,811.6066017177982 236.6066017177982,811.6066017177982 226.0,801.0" />
<text style="" text-anchor="left" x="236.0" y="781" fill="black">6</text>
<polygon fill="rgba(255,0,0,0.25)" stroke-width="1" stroke-dasharray="" stroke="rgba(255,0,0,0.25)" points="231.0,771.0 411.0,771.0 411.0,801.0 421.6066017177982,811.6066017177982 241.6066017177982,811.6066017177982 231.0,801.0" />
<text style="" text-anchor="start" x="118.0" y="786.0" fill="black">base bottom d</text>
<polygon fill="rgba(0,255,0,0.25)" stroke-width="1" stroke-dasharray="" stroke="green" points="110.0,736.0 116.0,736.0 116.0,766.0 110.0,766.0" />
<text style="" text-anchor="left" x="120.0" y="746" fill="black">7</text>
<polygon fill="rgba(0,255,0,0.25)" stroke-width="1" stroke-dasharray="" stroke="green" points="215.0,736.0 221.0,736.0 221.0,766.0 215.0,766.0" />
<text style="" text-anchor="left" x="225.0" y="746" fill="black">8</text>
<polygon fill="rgba(255,0,0,0.25)" stroke-width="1" stroke-dasharray="" stroke="rgba(255,0,0,0.25)" points="220.0,736.0 411.0,736.0 411.0,766.0 220.0,766.0" />
<text style="" text-anchor="start" x="210.0" y="681.0" fill="black">till front</text>
<text style="" text-anchor="start" x="210.0" y="716.0" fill="black">till back</text>
<text style="" text-anchor="start" x="60.0" y="751.0" fill="black">till left</text>
<text style="" text-anchor="start" x="165.0" y="751.0" fill="black">till right</text>
<polygon fill="none" stroke-width="1" stroke-dasharray="2" stroke="gray" points="18.48528137423857,839.4852813742385 18.48528137423857,1019.4852813742385 808.4852813742385,1019.4852813742385 808.4852813742385,839.4852813742385" />
<polygon fill="none" stroke-width="1" stroke-dasharray="2" stroke="gray" points="10.0,831.0 10.0,1011.0 18.48528137423857,1019.4852813742385 18.48528137423857,839.4852813742385" />
<polygon fill="none" stroke-width="1" stroke-dasharray="2" stroke="gray" points="18.48528137423857,839.4852813742385 808.4852813742385,839.4852813742385 800.0,831.0 10.0,831.0" />
<polygon fill="rgba(192,192,192,0.75)" stroke-width="1" stroke-dasharray="" stroke="black" points="10.0,1011.0 800.0,1011.0 808.4852813742385,1019.4852813742385 18.48528137423857,1019.4852813742385" />
<polygon fill="rgba(255,255,255,0.75)" stroke-width="1" stroke-dasharray="" stroke="black" points="808.4852813742385,839.4852813742385 808.4852813742385,1019.4852813742385 800.0,1011.0 800.0,831.0" />
<polygon fill="rgba(255,255,255,0.75)" stroke-width="1" stroke-dasharray="" stroke="black" points="10.0,831.0 800.0,831.0 800.0,1011.0 10.0,1011.0" />
<polygon fill="rgba(0,0,255,0.25)" stroke-width="1" stroke-dasharray="" stroke="blue" points="10.0,943.0 801.0,943.0 801.0,948.0 10.0,948.0" />
<text style="" text-anchor="left" x="20" y="953.0" fill="black">1</text>
<polygon fill="rgba(0,0,255,0.25)" stroke-width="1" stroke-dasharray="" stroke="blue" points="10.0,978.0 801.0,978.0 801.0,983.0 10.0,983.0" />
<text style="" text-anchor="left" x="20" y="988.0" fill="black">2</text>
<polygon fill="rgba(255,0,0,0.25)" stroke-width="1" stroke-dasharray="" stroke="rgba(255,0,0,0.25)" points="10.0,983.0 801.0,983.0 801.0,1011.0 809.4852813742385,1019.4852813742385 18.48528137423857,1019.4852813742385 10.0,1011.0" />
<polygon fill="rgba(0,255,0,0.25)" stroke-width="1" stroke-dasharray="" stroke="green" points="434.0,831.0 440.0,831.0 440.0,943.0 434.0,943.0" />
<text style="" text-anchor="left" x="444.0" y="841" fill="black">3</text>
<polygon fill="rgba(0,255,0,0.25)" stroke-width="1" stroke-dasharray="" stroke="green" points="663.0,831.0 669.0,831.0 669.0,943.0 663.0,943.0" />
<text style="" text-anchor="left" x="673.0" y="841" fill="black">4</text>
<polygon fill="rgba(255,0,0,0.25)" stroke-width="1" stroke-dasharray="" stroke="rgba(255,0,0,0.25)" points="668.0,831.0 801.0,831.0 801.0,943.0 668.0,943.0" />
<text style="" text-anchor="start" x="222.0" y="887.0" fill="black">base front</text>
<text style="" text-anchor="start" x="551.0" y="887.0" fill="black">base left</text>
<polygon fill="rgba(0,255,0,0.25)" stroke-width="1" stroke-dasharray="" stroke="green" points="210.0,948.0 216.0,948.0 216.0,978.0 210.0,978.0" />
<text style="" text-anchor="left" x="220.0" y="958.0" fill="black">5</text>
<polygon fill="rgba(0,255,0,0.25)" stroke-width="1" stroke-dasharray="" stroke="green" points="415.0,948.0 421.0,948.0 421.0,978.0 415.0,978.0" />
<text style="" text-anchor="left" x="425.0" y="958.0" fill="black">6</text>
<polygon fill="rgba(0,255,0,0.25)" stroke-width="1" stroke-dasharray="" stroke="green" points="620.0,948.0 626.0,948.0 626.0,978.0 620.0,978.0" />
<text style="" text-anchor="left" x="630.0" y="958.0" fill="black">7</text>
<polygon fill="rgba(255,0,0,0.25)" stroke-width="1" stroke-dasharray="" stroke="rgba(255,0,0,0.25)" points="625.0,948.0 801.0,948.0 801.0,978.0 625.0,978.0" />
<text style="" text-anchor="start" x="110.0" y="963.0" fill="black">batten</text>
<text style="" text-anchor="start" x="315.0" y="963.0" fill="black">batten</text>
<text style="" text-anchor="start" x="520.0" y="963.0" fill="black">batten</text>
<polygon fill="none" stroke-width="1" stroke-dasharray="2" stroke="gray" points="18.48528137423857,1043.4852813742386 18.48528137423857,1223.4852813742386 808.4852813742385,1223.4852813742386 808.4852813742385,1043.4852813742386" />
<polygon fill="none" stroke-width="1" stroke-dasharray="2" stroke="gray" points="10.0,1035.0 10.0,1215.0 18.48528137423857,1223.4852813742386 18.48528137423857,1043.4852813742386" />
<polygon fill="none" stroke-width="1" stroke-dasharray="2" stroke="gray" points="18.48528137423857,1043.4852813742386 808.4852813742385,1043.4852813742386 800.0,1035.0 10.0,1035.0" />
<polygon fill="rgba(192,192,192,0.75)" stroke-width="1" stroke-dasharray="" stroke="black" points="10.0,1215.0 800.0,1215.0 808.4852813742385,1223.4852813742386 18.48528137423857,1223.4852813742386" />
<polygon fill="rgba(255,255,255,0.75)" stroke-width="1" stroke-dasharray="" stroke="black" points="808.4852813742385,1043.4852813742386 808.4852813742385,1223.4852813742386 800.0,1215.0 800.0,1035.0" />
<polygon fill="rgba(255,255,255,0.75)" stroke-width="1" stroke-dasharray="" stroke="black" points="10.0,1035.0 800.0,1035.0 800.0,1215.0 10.0,1215.0" />
<polygon fill="rgba(0,0,255,0.25)" stroke-width="1" stroke-dasharray="" stroke="blue" points="10.0,1147.0 801.0,1147.0 801.0,1152.0 10.0,1152.0" />
<text style="" text-anchor="left" x="20" y="1157.0" fill="black">1</text>
<polygon fill="rgba(0,0,255,0.25)" stroke-width="1" stroke-dasharray="" stroke="blue" points="10.0,1182.0 801.0,1182.0 801.0,1187.0 10.0,1187.0" />
<text style="" text-anchor="left" x="20" y="1192.0" fill="black">2</text>
<polygon fill="rgba(255,0,0,0.25)" stroke-width="1" stroke-dasharray="" stroke="rgba(255,0,0,0.25)" points="10.0,1187.0 801.0,1187.0 801.0,1215.0 809.4852813742385,1223.4852813742386 18.48528137423857,1223.4852813742386 10.0,1215.0" />
<polygon fill="rgba(0,255,0,0.25)" stroke-width="1" stroke-dasharray="" stroke="green" points="434.0,1035.0 440.0,1035.0 440.0,1147.0 434.0,1147.0" />
<text style="" text-anchor="left" x="444.0" y="1045" fill="black">3</text>
<polygon fill="rgba(0,255,0,0.25)" stroke-width="1" stroke-dasharray="" stroke="green" points="663.0,1035.0 669.0,1035.0 669.0,1147.0 663.0,1147.0" />
<text style="" text-anchor="left" x="673.0" y="1045" fill="black">4</text>
<polygon fill="rgba(255,0,0,0.25)" stroke-width="1" stroke-dasharray="" stroke="rgba(255,0,0,0.25)" points="668.0,1035.0 801.0,1035.0 801.0,1147.0 668.0,1147.0" />
<text style="" text-anchor="start" x="222.0" y="1091.0" fill="black">base back</text>
<text style="" text-anchor="start" x="551.0" y="1091.0" fill="black">base right</text>
<polygon fill="rgba(0,255,0,0.25)" stroke-width="1" stroke-dasharray="" stroke="green" points="210.0,1152.0 216.0,1152.0 216.0,1182.0 210.0,1182.0" />
<text style="" text-anchor="left" x="220.0" y="1162.0" fill="black">5</text>
<polygon fill="rgba(255,0,0,0.25)" stroke-width="1" stroke-dasharray="" stroke="rgba(255,0,0,0.25)" points="215.0,1152.0 801.0,1152.0 801.0,1182.0 215.0,1182.0" />
<text style="" text-anchor="start" x="110.0" y="1167.0" fill="black">bottom brace</text>
<polygon fill="none" stroke-width="1" stroke-dasharray="2" stroke="gray" points="18.48528137423857,1247.4852813742386 18.48528137423857,1427.4852813742386 808.4852813742385,1427.4852813742386 808.4852813742385,1247.4852813742386" />
<polygon fill="none" stroke-width="1" stroke-dasharray="2" stroke="gray" points="10.0,1239.0 10.0,1419.0 18.48528137423857,1427.4852813742386 18.48528137423857,1247.4852813742386" />
<polygon fill="none" stroke-width="1" stroke-dasharray="2" stroke="gray" points="18.48528137423857,1247.4852813742386 808.4852813742385,1247.4852813742386 800.0,1239.0 10.0,1239.0" />
<polygon fill="rgba(192,192,192,0.75)" stroke-width="1" stroke-dasharray="" stroke="black" points="10.0,1419.0 800.0,1419.0 808.4852813742385,1427.4852813742386 18.48528137423857,1427.4852813742386" />
<polygon fill="rgba(255,255,255,0.75)" stroke-width="1" stroke-dasharray="" stroke="black" points="808.4852813742385,1247.4852813742386 808.4852813742385,1427.4852813742386 800.0,1419.0 800.0,1239.0" />
<polygon fill="rgba(255,255,255,0.75)" stroke-width="1" stroke-dasharray="" stroke="black" points="10.0,1239.0 800.0,1239.0 800.0,1419.0 10.0,1419.0" />
<polygon fill="rgba(0,0,255,0.25)" stroke-width="1" stroke-dasharray="" stroke="blue" points="10.0,1315.0 801.0,1315.0 801.0,1320.0 10.0,1320.0" />
<text style="" text-anchor="left" x="20" y="1325.0" fill="black">1</text>
<polygon fill="rgba(0,0,255,0.25)" stroke-width="1" stroke-dasharray="" stroke="blue" points="10.0,1396.0 801.0,1396.0 801.0,1401.0 10.0,1401.0" />
<text style="" text-anchor="left" x="20" y="1406.0" fill="black">2</text>
<polygon fill="rgba(255,0,0,0.25)" stroke-width="1" stroke-dasharray="" stroke="rgba(255,0,0,0.25)" points="10.0,1401.0 801.0,1401.0 801.0,1419.0 809.4852813742385,1427.4852813742386 18.48528137423857,1427.4852813742386 10.0,1419.0" />
<polygon fill="rgba(0,255,0,0.25)" stroke-width="1" stroke-dasharray="" stroke="green" points="410.0,1239.0 416.0,1239.0 416.0,1315.0 410.0,1315.0" />
<text style="" text-anchor="left" x="420.0" y="1249" fill="black">3</text>
<polygon fill="rgba(0,255,0,0.25)" stroke-width="1" stroke-dasharray="" stroke="green" points="615.0,1239.0 621.0,1239.0 621.0,1315.0 615.0,1315.0" />
<text style="" text-anchor="left" x="625.0" y="1249" fill="black">4</text>
<polygon fill="rgba(255,0,0,0.25)" stroke-width="1" stroke-dasharray="" stroke="rgba(255,0,0,0.25)" points="620.0,1239.0 801.0,1239.0 801.0,1315.0 620.0,1315.0" />
<polygon fill="rgba(0,255,0,0.25)" stroke-width="1" stroke-dasharray="" stroke="green" points="410.0,1320.0 416.0,1320.0 416.0,1396.0 410.0,1396.0" />
<text style="" text-anchor="left" x="420.0" y="1330.0" fill="black">5</text>
<polygon fill="rgba(0,255,0,0.25)" stroke-width="1" stroke-dasharray="" stroke="green" points="615.0,1320.0 621.0,1320.0 621.0,1396.0 615.0,1396.0" />
<text style="" text-anchor="left" x="625.0" y="1330.0" fill="black">6</text>
<polygon fill="rgba(255,0,0,0.25)" stroke-width="1" stroke-dasharray="" stroke="rgba(255,0,0,0.25)" points="620.0,1320.0 801.0,1320.0 801.0,1396.0 620.0,1396.0" />
<text style="" text-anchor="start" x="210.0" y="1277.0" fill="black">box front</text>
<text style="" text-anchor="start" x="515.0" y="1277.0" fill="black">box left</text>
<text style="" text-anchor="start" x="210.0" y="1358.0" fill="black">box back</text>
<text style="" text-anchor="start" x="515.0" y="1358.0" fill="black">box right</text>
<polygon fill="none" stroke-width="1" stroke-dasharray="2" stroke="gray" points="20.606601717798213,1453.6066017177982 20.606601717798213,1468.6066017177982 420.6066017177982,1468.6066017177982 420.6066017177982,1453.6066017177982" />
<polygon fill="none" stroke-width="1" stroke-dasharray="2" stroke="gray" points="10.0,1443.0 10.0,1458.0 20.606601717798213,1468.6066017177982 20.606601717798213,1453.6066017177982" />
<polygon fill="none" stroke-width="1" stroke-dasharray="2" stroke="gray" points="20.606601717798213,1453.6066017177982 420.6066017177982,1453.6066017177982 410.0,1443.0 10.0,1443.0" />
<polygon fill="rgba(192,192,192,0.75)" stroke-width="1" stroke-dasharray="" stroke="black" points="10.0,1458.0 410.0,1458.0 420.6066017177982,1468.6066017177982 20.606601717798213,1468.6066017177982" />
<polygon fill="rgba(255,255,255,0.75)" stroke-width="1" stroke-dasharray="" stroke="black" points="420.6066017177982,1453.6066017177982 420.6066017177982,1468.6066017177982 410.0,1458.0 410.0,1443.0" />
<polygon fill="rgba(255,255,255,0.75)" stroke-width="1" stroke-dasharray="" stroke="black" points="10.0,1443.0 410.0,1443.0 410.0,1458.0 10.0,1458.0" />
<polygon fill="rgba(0,255,0,0.25)" stroke-width="1" stroke-dasharray="" stroke="green" points="210.0,1443.0 216.0,1443.0 216.0,1458.0 226.6066017177982,1468.6066017177982 220.6066017177982,1468.6066017177982 210.0,1458.0" />
<text style="" text-anchor="left" x="220.0" y="1453" fill="black">1</text>
<polygon fill="rgba(255,0,0,0.25)" stroke-width="1" stroke-dasharray="" stroke="rgba(255,0,0,0.25)" points="215.0,1443.0 411.0,1443.0 411.0,1458.0 421.6066017177982,1468.6066017177982 225.6066017177982,1468.6066017177982 215.0,1458.0" />
<text style="" text-anchor="start" x="110.0" y="1450.5" fill="black">wedge</text>
</svg>
