<svg width="1100" viewBox="0.0 0.0 550.0 1158.2" xmlns="http://www.w3.org/2000/svg">
<polygon fill="none" stroke-width="1" stroke-dasharray="2" stroke="gray" points="406.5,102.5 406.5,82.6 418.5,85.7 418.5,68.9 406.5,72.0 406.5,49.0 418.5,52.1 418.5,52.1 418.5,35.3 418.5,35.3 406.5,38.4 406.5,18.5 30.5,18.5 30.5,38.4 18.5,35.3 18.5,35.3 18.5,52.1 18.5,52.1 30.5,49.0 30.5,72.0 18.5,68.9 18.5,85.7 30.5,82.6 30.5,102.5 30.5,102.5 406.5,102.5" />
<polygon fill="none" stroke-width="1" stroke-dasharray="2" stroke="gray" points="10.0,26.8 10.0,43.6 18.5,52.1 18.5,35.3 10.0,26.8" />
<polygon fill="none" stroke-width="1" stroke-dasharray="2" stroke="gray" points="10.0,60.4 10.0,77.2 18.5,85.7 18.5,68.9 10.0,60.4" />
<polygon fill="none" stroke-width="1" stroke-dasharray="2" stroke="gray" points="18.5,35.3 30.5,38.4 22.0,29.9 10.0,26.8" />
<polygon fill="rgba(255,255,255,0.75)" stroke-width="1" stroke-dasharray="" stroke="black" points="10.0,43.6 22.0,40.5 30.5,49.0 18.5,52.1" />
<polygon fill="none" stroke-width="1" stroke-dasharray="2" stroke="gray" points="18.5,68.9 30.5,72.0 22.0,63.5 10.0,60.4" />
<polygon fill="rgba(255,255,255,0.75)" stroke-width="1" stroke-dasharray="" stroke="black" points="10.0,77.2 22.0,74.1 30.5,82.6 18.5,85.7" />
<polygon fill="none" stroke-width="1" stroke-dasharray="2" stroke="gray" points="22.0,29.9 30.5,38.4 30.5,18.5 22.0,10.0 22.0,29.9" />
<polygon fill="none" stroke-width="1" stroke-dasharray="2" stroke="gray" points="22.0,40.5 22.0,63.5 30.5,72.0 30.5,49.0 22.0,40.5" />
<polygon fill="none" stroke-width="1" stroke-dasharray="2" stroke="gray" points="22.0,74.1 22.0,94.0 30.5,102.5 30.5,82.6 22.0,74.1" />
<polygon fill="none" stroke-width="1" stroke-dasharray="2" stroke="gray" points="398.0,10.0 22.0,10.0 22.0,10.0 30.5,18.5 406.5,18.5 398.0,10.0" />
<polygon fill="rgba(192,192,192,0.75)" stroke-width="1" stroke-dasharray="" stroke="black" points="398.0,94.0 406.5,102.5 30.5,102.5 22.0,94.0 22.0,94.0 398.0,94.0" />
<polygon fill="rgba(255,255,255,0.75)" stroke-width="1" stroke-dasharray="" stroke="black" points="406.5,38.4 398.0,29.9 398.0,10.0 406.5,18.5 406.5,38.4" />
<polygon fill="rgba(255,255,255,0.75)" stroke-width="1" stroke-dasharray="" stroke="black" points="406.5,49.0 406.5,72.0 398.0,63.5 398.0,40.5 406.5,49.0" />
<polygon fill="rgba(255,255,255,0.75)" stroke-width="1" stroke-dasharray="" stroke="black" points="406.5,82.6 406.5,102.5 398.0,94.0 398.0,74.1 406.5,82.6" />
<polygon fill="none" stroke-width="1" stroke-dasharray="2" stroke="gray" points="410.0,26.8 398.0,29.9 406.5,38.4 418.5,35.3" />
<polygon fill="rgba(192,192,192,0.75)" stroke-width="1" stroke-dasharray="" stroke="silver" points="418.5,52.1 406.5,49.0 398.0,40.5 410.0,43.6" />
<polygon fill="none" stroke-width="1" stroke-dasharray="2" stroke="gray" points="410.0,60.4 398.0,63.5 406.5,72.0 418.5,68.9" />
<polygon fill="rgba(192,192,192,0.75)" stroke-width="1" stroke-dasharray="" stroke="silver" points="418.5,85.7 406.5,82.6 398.0,74.1 410.0,77.2" />
<polygon fill="rgba(255,255,255,0.75)" stroke-width="1" stroke-dasharray="" stroke="black" points="418.5,35.3 418.5,52.1 410.0,43.6 410.0,26.8 418.5,35.3" />
<polygon fill="rgba(255,255,255,0.75)" stroke-width="1" stroke-dasharray="" stroke="black" points="418.5,68.9 418.5,85.7 410.0,77.2 410.0,60.4 418.5,68.9" />
<polygon fill="rgba(255,255,255,0.75)" stroke-width="1" stroke-dasharray="" stroke="black" points="410.0,77.2 398.0,74.1 398.0,94.0 22.0,94.0 22.0,74.1 10.0,77.2 10.0,77.2 10.0,60.4 10.0,60.4 22.0,63.5 22.0,40.5 10.0,43.6 10.0,26.8 22.0,29.9 22.0,10.0 22.0,10.0 398.0,10.0 398.0,10.0 398.0,29.9 410.0,26.8 410.0,43.6 398.0,40.5 398.0,63.5 410.0,60.4 410.0,60.4 410.0,77.2" />
<text style="" text-anchor="middle" x="210.0" y="52.0" fill="black">box front</text>
<polygon fill="none" stroke-width="1" stroke-dasharray="2" stroke="gray" points="218.5,184.5 218.5,161.5 218.5,161.5 206.5,161.5 206.5,150.9 218.5,150.9 218.5,131.0 18.5,131.0 18.5,150.9 18.5,150.9 30.5,150.9 30.5,161.5 18.5,161.5 18.5,184.5 30.5,184.5 30.5,195.1 18.5,195.1 18.5,195.1 18.5,215.0 218.5,215.0 218.5,195.1 206.5,195.1 206.5,184.5 218.5,184.5" />
<polygon fill="none" stroke-width="1" stroke-dasharray="2" stroke="gray" points="10.0,139.3 18.5,150.9 18.5,131.0 10.0,122.5 10.0,139.3" />
<polygon fill="none" stroke-width="1" stroke-dasharray="2" stroke="gray" points="10.0,156.1 10.0,172.9 18.5,184.5 18.5,161.5 10.0,156.1" />
<polygon fill="none" stroke-width="1" stroke-dasharray="2" stroke="gray" points="10.0,189.7 10.0,206.5 18.5,215.0 18.5,195.1 10.0,189.7" />
<polygon fill="rgba(255,255,255,0.75)" stroke-width="1" stroke-dasharray="" stroke="black" points="10.0,139.3 22.0,139.3 30.5,150.9 18.5,150.9" />
<polygon fill="none" stroke-width="1" stroke-dasharray="2" stroke="gray" points="18.5,161.5 30.5,161.5 22.0,156.1 10.0,156.1" />
<polygon fill="rgba(255,255,255,0.75)" stroke-width="1" stroke-dasharray="" stroke="black" points="10.0,172.9 22.0,172.9 30.5,184.5 18.5,184.5" />
<polygon fill="none" stroke-width="1" stroke-dasharray="2" stroke="gray" points="18.5,195.1 30.5,195.1 22.0,189.7 10.0,189.7" />
<polygon fill="none" stroke-width="1" stroke-dasharray="2" stroke="gray" points="22.0,139.3 22.0,156.1 30.5,161.5 30.5,150.9 22.0,139.3" />
<polygon fill="none" stroke-width="1" stroke-dasharray="2" stroke="gray" points="22.0,172.9 22.0,189.7 30.5,195.1 30.5,184.5 22.0,172.9" />
<polygon fill="none" stroke-width="1" stroke-dasharray="2" stroke="gray" points="18.5,131.0 218.5,131.0 210.0,122.5 10.0,122.5" />
<polygon fill="rgba(192,192,192,0.75)" stroke-width="1" stroke-dasharray="" stroke="black" points="10.0,206.5 210.0,206.5 218.5,215.0 18.5,215.0" />
<polygon fill="rgba(255,255,255,0.75)" stroke-width="1" stroke-dasharray="" stroke="black" points="206.5,150.9 206.5,161.5 198.0,156.1 198.0,139.3 206.5,150.9" />
<polygon fill="rgba(255,255,255,0.75)" stroke-width="1" stroke-dasharray="" stroke="black" points="206.5,184.5 206.5,195.1 198.0,189.7 198.0,172.9 206.5,184.5" />
<polygon fill="rgba(255,255,255,0.75)" stroke-width="1" stroke-dasharray="" stroke="black" points="218.5,150.9 206.5,150.9 198.0,139.3 210.0,139.3" />
<polygon fill="none" stroke-width="1" stroke-dasharray="2" stroke="gray" points="210.0,156.1 198.0,156.1 206.5,161.5 218.5,161.5" />
<polygon fill="rgba(255,255,255,0.75)" stroke-width="1" stroke-dasharray="" stroke="black" points="218.5,184.5 206.5,184.5 198.0,172.9 210.0,172.9" />
<polygon fill="none" stroke-width="1" stroke-dasharray="2" stroke="gray" points="210.0,189.7 198.0,189.7 206.5,195.1 218.5,195.1" />
<polygon fill="rgba(255,255,255,0.75)" stroke-width="1" stroke-dasharray="" stroke="black" points="218.5,150.9 210.0,139.3 210.0,122.5 218.5,131.0 218.5,150.9" />
<polygon fill="rgba(255,255,255,0.75)" stroke-width="1" stroke-dasharray="" stroke="black" points="218.5,161.5 218.5,184.5 210.0,172.9 210.0,156.1 218.5,161.5" />
<polygon fill="rgba(255,255,255,0.75)" stroke-width="1" stroke-dasharray="" stroke="black" points="218.5,195.1 218.5,215.0 210.0,206.5 210.0,189.7 218.5,195.1" />
<polygon fill="rgba(255,255,255,0.75)" stroke-width="1" stroke-dasharray="" stroke="black" points="210.0,189.7 210.0,206.5 10.0,206.5 10.0,189.7 22.0,189.7 22.0,172.9 10.0,172.9 10.0,172.9 10.0,156.1 10.0,156.1 22.0,156.1 22.0,139.3 10.0,139.3 10.0,122.5 210.0,122.5 210.0,139.3 210.0,139.3 198.0,139.3 198.0,156.1 210.0,156.1 210.0,172.9 198.0,172.9 198.0,189.7 210.0,189.7" />
<text style="" text-anchor="middle" x="110.0" y="164.48528137423858" fill="black">box left</text>
<polygon fill="none" stroke-width="1" stroke-dasharray="2" stroke="gray" points="406.5,327.5 406.5,307.5 418.5,310.6 418.5,293.9 406.5,297.0 406.5,273.9 418.5,277.0 418.5,277.0 418.5,260.3 418.5,260.3 406.5,263.4 406.5,243.5 30.5,243.5 30.5,263.4 18.5,260.3 18.5,260.3 18.5,277.0 18.5,277.0 30.5,273.9 30.5,297.0 18.5,293.9 18.5,310.6 30.5,307.5 30.5,327.5 30.5,327.5 406.5,327.5" />
<polygon fill="none" stroke-width="1" stroke-dasharray="2" stroke="gray" points="10.0,251.8 10.0,268.6 18.5,277.1 18.5,260.2 10.0,251.8" />
<polygon fill="none" stroke-width="1" stroke-dasharray="2" stroke="gray" points="10.0,285.4 10.0,302.2 18.5,310.7 18.5,293.8 10.0,285.4" />
<polygon fill="none" stroke-width="1" stroke-dasharray="2" stroke="gray" points="18.5,260.3 30.5,263.4 22.0,254.9 10.0,251.8" />
<polygon fill="rgba(255,255,255,0.75)" stroke-width="1" stroke-dasharray="" stroke="black" points="10.0,268.6 22.0,265.5 30.5,274.0 18.5,277.1" />
<polygon fill="none" stroke-width="1" stroke-dasharray="2" stroke="gray" points="18.5,293.9 30.5,297.0 22.0,288.5 10.0,285.4" />
<polygon fill="rgba(255,255,255,0.75)" stroke-width="1" stroke-dasharray="" stroke="black" points="10.0,302.2 22.0,299.1 30.5,307.6 18.5,310.7" />
<polygon fill="none" stroke-width="1" stroke-dasharray="2" stroke="gray" points="22.0,254.9 30.5,263.4 30.5,243.5 22.0,235.0 22.0,254.9" />
<polygon fill="none" stroke-width="1" stroke-dasharray="2" stroke="gray" points="22.0,265.5 22.0,288.5 30.5,297.0 30.5,273.9 22.0,265.5" />
<polygon fill="none" stroke-width="1" stroke-dasharray="2" stroke="gray" points="22.0,299.1 22.0,319.0 30.5,327.5 30.5,307.5 22.0,299.1" />
<polygon fill="none" stroke-width="1" stroke-dasharray="2" stroke="gray" points="398.0,235.0 22.0,235.0 22.0,235.0 30.5,243.5 406.5,243.5 398.0,235.0" />
<polygon fill="rgba(192,192,192,0.75)" stroke-width="1" stroke-dasharray="" stroke="black" points="398.0,319.0 406.5,327.5 30.5,327.5 22.0,319.0 22.0,319.0 398.0,319.0" />
<polygon fill="rgba(255,255,255,0.75)" stroke-width="1" stroke-dasharray="" stroke="black" points="406.5,263.4 398.0,254.9 398.0,235.0 406.5,243.5 406.5,263.4" />
<polygon fill="rgba(255,255,255,0.75)" stroke-width="1" stroke-dasharray="" stroke="black" points="406.5,273.9 406.5,297.0 398.0,288.5 398.0,265.5 406.5,273.9" />
<polygon fill="rgba(255,255,255,0.75)" stroke-width="1" stroke-dasharray="" stroke="black" points="406.5,307.5 406.5,327.5 398.0,319.0 398.0,299.1 406.5,307.5" />
<polygon fill="none" stroke-width="1" stroke-dasharray="2" stroke="gray" points="410.0,251.8 398.0,254.9 406.5,263.4 418.5,260.3" />
<polygon fill="rgba(192,192,192,0.75)" stroke-width="1" stroke-dasharray="" stroke="silver" points="418.5,277.1 406.5,274.0 398.0,265.5 410.0,268.6" />
<polygon fill="none" stroke-width="1" stroke-dasharray="2" stroke="gray" points="410.0,285.4 398.0,288.5 406.5,297.0 418.5,293.9" />
<polygon fill="rgba(192,192,192,0.75)" stroke-width="1" stroke-dasharray="" stroke="silver" points="418.5,310.7 406.5,307.6 398.0,299.1 410.0,302.2" />
<polygon fill="rgba(255,255,255,0.75)" stroke-width="1" stroke-dasharray="" stroke="black" points="418.5,260.2 418.5,277.1 410.0,268.6 410.0,251.8 418.5,260.2" />
<polygon fill="rgba(255,255,255,0.75)" stroke-width="1" stroke-dasharray="" stroke="black" points="418.5,293.8 418.5,310.7 410.0,302.2 410.0,285.4 418.5,293.8" />
<polygon fill="rgba(255,255,255,0.75)" stroke-width="1" stroke-dasharray="" stroke="black" points="410.0,302.2 398.0,299.1 398.0,319.0 22.0,319.0 22.0,299.1 10.0,302.2 10.0,302.2 10.0,285.4 10.0,285.4 22.0,288.5 22.0,265.5 10.0,268.6 10.0,251.8 22.0,254.9 22.0,235.0 22.0,235.0 398.0,235.0 398.0,235.0 398.0,254.9 410.0,251.8 410.0,268.6 398.0,265.5 398.0,288.5 410.0,285.4 410.0,285.4 410.0,302.2" />
<text style="" text-anchor="middle" x="210.0" y="276.97056274847716" fill="black">box back</text>
<polygon fill="none" stroke-width="1" stroke-dasharray="2" stroke="gray" points="218.5,409.4 218.5,386.4 218.5,386.4 206.5,386.4 206.5,375.8 218.5,375.8 218.5,355.9 18.5,355.9 18.5,375.8 18.5,375.8 30.5,375.8 30.5,386.4 18.5,386.4 18.5,409.4 30.5,409.4 30.5,420.0 18.5,420.0 18.5,420.0 18.5,439.9 218.5,439.9 218.5,420.0 206.5,420.0 206.5,409.4 218.5,409.4" />
<polygon fill="none" stroke-width="1" stroke-dasharray="2" stroke="gray" points="10.0,364.3 18.5,375.9 18.5,355.9 10.0,347.5 10.0,364.3" />
<polygon fill="none" stroke-width="1" stroke-dasharray="2" stroke="gray" points="10.0,381.0 10.0,397.9 18.5,409.5 18.5,386.4 10.0,381.0" />
<polygon fill="none" stroke-width="1" stroke-dasharray="2" stroke="gray" points="10.0,414.6 10.0,431.5 18.5,439.9 18.5,420.0 10.0,414.6" />
<polygon fill="rgba(255,255,255,0.75)" stroke-width="1" stroke-dasharray="" stroke="black" points="10.0,364.3 22.0,364.3 30.5,375.8 18.5,375.8" />
<polygon fill="none" stroke-width="1" stroke-dasharray="2" stroke="gray" points="18.5,386.4 30.5,386.4 22.0,381.1 10.0,381.1" />
<polygon fill="rgba(255,255,255,0.75)" stroke-width="1" stroke-dasharray="" stroke="black" points="10.0,397.9 22.0,397.9 30.5,409.4 18.5,409.4" />
<polygon fill="none" stroke-width="1" stroke-dasharray="2" stroke="gray" points="18.5,420.0 30.5,420.0 22.0,414.7 10.0,414.7" />
<polygon fill="none" stroke-width="1" stroke-dasharray="2" stroke="gray" points="22.0,364.2 22.0,381.1 30.5,386.4 30.5,375.8 22.0,364.2" />
<polygon fill="none" stroke-width="1" stroke-dasharray="2" stroke="gray" points="22.0,397.8 22.0,414.7 30.5,420.0 30.5,409.4 22.0,397.8" />
<polygon fill="none" stroke-width="1" stroke-dasharray="2" stroke="gray" points="18.5,355.9 218.5,355.9 210.0,347.5 10.0,347.5" />
<polygon fill="rgba(192,192,192,0.75)" stroke-width="1" stroke-dasharray="" stroke="black" points="10.0,431.5 210.0,431.5 218.5,439.9 18.5,439.9" />
<polygon fill="rgba(255,255,255,0.75)" stroke-width="1" stroke-dasharray="" stroke="black" points="206.5,375.8 206.5,386.4 198.0,381.1 198.0,364.2 206.5,375.8" />
<polygon fill="rgba(255,255,255,0.75)" stroke-width="1" stroke-dasharray="" stroke="black" points="206.5,409.4 206.5,420.0 198.0,414.7 198.0,397.8 206.5,409.4" />
<polygon fill="rgba(255,255,255,0.75)" stroke-width="1" stroke-dasharray="" stroke="black" points="218.5,375.8 206.5,375.8 198.0,364.3 210.0,364.3" />
<polygon fill="none" stroke-width="1" stroke-dasharray="2" stroke="gray" points="210.0,381.1 198.0,381.1 206.5,386.4 218.5,386.4" />
<polygon fill="rgba(255,255,255,0.75)" stroke-width="1" stroke-dasharray="" stroke="black" points="218.5,409.4 206.5,409.4 198.0,397.9 210.0,397.9" />
<polygon fill="none" stroke-width="1" stroke-dasharray="2" stroke="gray" points="210.0,414.7 198.0,414.7 206.5,420.0 218.5,420.0" />
<polygon fill="rgba(255,255,255,0.75)" stroke-width="1" stroke-dasharray="" stroke="black" points="218.5,375.9 210.0,364.3 210.0,347.5 218.5,355.9 218.5,375.9" />
<polygon fill="rgba(255,255,255,0.75)" stroke-width="1" stroke-dasharray="" stroke="black" points="218.5,386.4 218.5,409.5 210.0,397.9 210.0,381.0 218.5,386.4" />
<polygon fill="rgba(255,255,255,0.75)" stroke-width="1" stroke-dasharray="" stroke="black" points="218.5,420.0 218.5,439.9 210.0,431.5 210.0,414.6 218.5,420.0" />
<polygon fill="rgba(255,255,255,0.75)" stroke-width="1" stroke-dasharray="" stroke="black" points="210.0,414.7 210.0,431.5 10.0,431.5 10.0,414.7 22.0,414.7 22.0,397.8 10.0,397.8 10.0,397.8 10.0,381.1 10.0,381.1 22.0,381.1 22.0,364.2 10.0,364.2 10.0,347.5 210.0,347.5 210.0,364.2 210.0,364.2 198.0,364.2 198.0,381.1 210.0,381.1 210.0,397.8 198.0,397.8 198.0,414.7 210.0,414.7" />
<text style="" text-anchor="middle" x="110.0" y="389.4558441227157" fill="black">box right</text>
<polygon fill="none" stroke-width="1" stroke-dasharray="2" stroke="gray" points="20.6,470.5 20.6,646.5 396.6,646.5 396.6,470.5" />
<polygon fill="none" stroke-width="1" stroke-dasharray="2" stroke="gray" points="10.0,459.9 10.0,635.9 20.6,646.5 20.6,470.5" />
<polygon fill="none" stroke-width="1" stroke-dasharray="2" stroke="gray" points="20.6,470.5 396.6,470.5 386.0,459.9 10.0,459.9" />
<polygon fill="rgba(192,192,192,0.75)" stroke-width="1" stroke-dasharray="" stroke="black" points="10.0,635.9 386.0,635.9 396.6,646.5 20.6,646.5" />
<polygon fill="rgba(255,255,255,0.75)" stroke-width="1" stroke-dasharray="" stroke="black" points="396.6,470.5 396.6,646.5 386.0,635.9 386.0,459.9" />
<polygon fill="rgba(255,255,255,0.75)" stroke-width="1" stroke-dasharray="" stroke="black" points="10.0,459.9 386.0,459.9 386.0,635.9 10.0,635.9" />
<text style="" text-anchor="middle" x="198.0" y="547.9411254969543" fill="black">box lid</text>
<polygon fill="none" stroke-width="1" stroke-dasharray="2" stroke="gray" points="12.1,668.7 12.1,868.7 412.1,868.7 412.1,668.7" />
<polygon fill="none" stroke-width="1" stroke-dasharray="2" stroke="gray" points="10.0,666.5 10.0,866.5 12.1,868.7 12.1,668.7" />
<polygon fill="none" stroke-width="1" stroke-dasharray="2" stroke="gray" points="12.1,668.7 412.1,668.7 410.0,666.5 10.0,666.5" />
<polygon fill="rgba(192,192,192,0.75)" stroke-width="1" stroke-dasharray="" stroke="black" points="10.0,866.5 410.0,866.5 412.1,868.7 12.1,868.7" />
<polygon fill="rgba(255,255,255,0.75)" stroke-width="1" stroke-dasharray="" stroke="black" points="412.1,668.7 412.1,868.7 410.0,866.5 410.0,666.5" />
<polygon fill="rgba(255,255,255,0.75)" stroke-width="1" stroke-dasharray="" stroke="black" points="10.0,666.5 410.0,666.5 410.0,866.5 10.0,866.5" />
<text style="" text-anchor="middle" x="210.0" y="766.5477272147525" fill="black">box bottom</text>
<polygon fill="none" stroke-width="1" stroke-dasharray="2" stroke="gray" points="20.6,899.3 20.6,914.3 220.6,914.3 220.6,899.3" />
<polygon fill="none" stroke-width="1" stroke-dasharray="2" stroke="gray" points="10.0,888.7 10.0,903.7 20.6,914.3 20.6,899.3" />
<polygon fill="none" stroke-width="1" stroke-dasharray="2" stroke="gray" points="20.6,899.3 220.6,899.3 210.0,888.7 10.0,888.7" />
<polygon fill="rgba(192,192,192,0.75)" stroke-width="1" stroke-dasharray="" stroke="black" points="10.0,903.7 210.0,903.7 220.6,914.3 20.6,914.3" />
<polygon fill="rgba(255,255,255,0.75)" stroke-width="1" stroke-dasharray="" stroke="black" points="220.6,899.3 220.6,914.3 210.0,903.7 210.0,888.7" />
<polygon fill="rgba(255,255,255,0.75)" stroke-width="1" stroke-dasharray="" stroke="black" points="10.0,888.7 210.0,888.7 210.0,903.7 10.0,903.7" />
<text style="" text-anchor="middle" x="110.0" y="896.1690475583122" fill="black">wedge</text>
<polygon fill="none" stroke-width="1" stroke-dasharray="2" stroke="gray" points="18.5,942.8 18.5,972.8 218.5,972.8 218.5,942.8" />
<polygon fill="none" stroke-width="1" stroke-dasharray="2" stroke="gray" points="10.0,934.3 10.0,964.3 18.5,972.8 18.5,942.8" />
<polygon fill="none" stroke-width="1" stroke-dasharray="2" stroke="gray" points="18.5,942.8 218.5,942.8 210.0,934.3 10.0,934.3" />
<polygon fill="rgba(192,192,192,0.75)" stroke-width="1" stroke-dasharray="" stroke="black" points="10.0,964.3 210.0,964.3 218.5,972.8 18.5,972.8" />
<polygon fill="rgba(255,255,255,0.75)" stroke-width="1" stroke-dasharray="" stroke="black" points="218.5,942.8 218.5,972.8 210.0,964.3 210.0,934.3" />
<polygon fill="rgba(255,255,255,0.75)" stroke-width="1" stroke-dasharray="" stroke="black" points="10.0,934.3 210.0,934.3 210.0,964.3 10.0,964.3" />
<text style="" text-anchor="middle" x="110.0" y="949.2756492761104" fill="black">batten</text>
<polygon fill="none" stroke-width="1" stroke-dasharray="2" stroke="gray" points="18.5,1001.2 18.5,1031.2 218.5,1031.2 218.5,1001.2" />
<polygon fill="none" stroke-width="1" stroke-dasharray="2" stroke="gray" points="10.0,992.8 10.0,1022.8 18.5,1031.2 18.5,1001.2" />
<polygon fill="none" stroke-width="1" stroke-dasharray="2" stroke="gray" points="18.5,1001.2 218.5,1001.2 210.0,992.8 10.0,992.8" />
<polygon fill="rgba(192,192,192,0.75)" stroke-width="1" stroke-dasharray="" stroke="black" points="10.0,1022.8 210.0,1022.8 218.5,1031.2 18.5,1031.2" />
<polygon fill="rgba(255,255,255,0.75)" stroke-width="1" stroke-dasharray="" stroke="black" points="218.5,1001.2 218.5,1031.2 210.0,1022.8 210.0,992.8" />
<polygon fill="rgba(255,255,255,0.75)" stroke-width="1" stroke-dasharray="" stroke="black" points="10.0,992.8 210.0,992.8 210.0,1022.8 10.0,1022.8" />
<text style="" text-anchor="middle" x="110.0" y="1007.7609306503489" fill="black">batten</text>
<polygon fill="none" stroke-width="1" stroke-dasharray="2" stroke="gray" points="18.5,1059.7 18.5,1089.7 218.5,1089.7 218.5,1059.7" />
<polygon fill="none" stroke-width="1" stroke-dasharray="2" stroke="gray" points="10.0,1051.2 10.0,1081.2 18.5,1089.7 18.5,1059.7" />
<polygon fill="none" stroke-width="1" stroke-dasharray="2" stroke="gray" points="18.5,1059.7 218.5,1059.7 210.0,1051.2 10.0,1051.2" />
<polygon fill="rgba(192,192,192,0.75)" stroke-width="1" stroke-dasharray="" stroke="black" points="10.0,1081.2 210.0,1081.2 218.5,1089.7 18.5,1089.7" />
<polygon fill="rgba(255,255,255,0.75)" stroke-width="1" stroke-dasharray="" stroke="black" points="218.5,1059.7 218.5,1089.7 210.0,1081.2 210.0,1051.2" />
<polygon fill="rgba(255,255,255,0.75)" stroke-width="1" stroke-dasharray="" stroke="black" points="10.0,1051.2 210.0,1051.2 210.0,1081.2 10.0,1081.2" />
<text style="" text-anchor="middle" x="110.0" y="1066.2462120245875" fill="black">batten</text>
<polygon fill="none" stroke-width="1" stroke-dasharray="2" stroke="gray" points="18.5,1118.2 18.5,1148.2 218.5,1148.2 218.5,1118.2" />
<polygon fill="none" stroke-width="1" stroke-dasharray="2" stroke="gray" points="10.0,1109.7 10.0,1139.7 18.5,1148.2 18.5,1118.2" />
<polygon fill="none" stroke-width="1" stroke-dasharray="2" stroke="gray" points="18.5,1118.2 218.5,1118.2 210.0,1109.7 10.0,1109.7" />
<polygon fill="rgba(192,192,192,0.75)" stroke-width="1" stroke-dasharray="" stroke="black" points="10.0,1139.7 210.0,1139.7 218.5,1148.2 18.5,1148.2" />
<polygon fill="rgba(255,255,255,0.75)" stroke-width="1" stroke-dasharray="" stroke="black" points="218.5,1118.2 218.5,1148.2 210.0,1139.7 210.0,1109.7" />
<polygon fill="rgba(255,255,255,0.75)" stroke-width="1" stroke-dasharray="" stroke="black" points="10.0,1109.7 210.0,1109.7 210.0,1139.7 10.0,1139.7" />
<text style="" text-anchor="middle" x="110.0" y="1124.7314933988262" fill="black">bottom brace</text>
</svg>
