<svg width="1600" viewBox="0.0 -216.9 800.0 351.9" xmlns="http://www.w3.org/2000/svg">
<polygon fill="none" stroke-width="1" stroke-dasharray="2" stroke="gray" points="178.4,-116.0 190.4,-112.9 190.4,-138.4 178.4,-138.4 178.4,-116.0" />
<polygon fill="none" stroke-width="1" stroke-dasharray="2" stroke="gray" points="178.4,-93.6 178.4,-71.2 190.4,-68.1 190.4,-96.7 178.4,-93.6" />
<polygon fill="none" stroke-width="1" stroke-dasharray="2" stroke="gray" points="178.4,-48.8 178.4,-26.4 190.4,-26.4 190.4,-33.4 185.4,-33.4 185.4,-38.4 190.4,-38.4 190.4,-51.9 178.4,-48.8" />
<polygon fill="none" stroke-width="1" stroke-dasharray="2" stroke="gray" points="178.4,-48.8 190.4,-51.9 190.4,-26.4 590.4,-26.4 590.4,-51.9 602.4,-48.8 602.4,-48.8 602.4,-71.2 602.4,-71.2 590.4,-68.1 590.4,-96.7 602.4,-93.6 602.4,-116.0 590.4,-112.9 590.4,-138.4 590.4,-138.4 190.4,-138.4 190.4,-138.4 190.4,-112.9 178.4,-116.0 178.4,-93.6 190.4,-96.7 190.4,-68.1 178.4,-71.2 178.4,-71.2 178.4,-48.8" />
<polygon fill="none" stroke-width="1" stroke-dasharray="2" stroke="gray" points="178.4,-38.4 178.4,-23.4 602.4,-23.4 602.4,-38.4" />
<polygon fill="none" stroke-width="1" stroke-dasharray="2" stroke="gray" points="590.4,-112.9 602.4,-116.0 602.4,-138.4 590.4,-138.4 590.4,-112.9" />
<polygon fill="none" stroke-width="1" stroke-dasharray="2" stroke="gray" points="590.4,-96.7 590.4,-68.1 602.4,-71.2 602.4,-93.6 590.4,-96.7" />
<polygon fill="none" stroke-width="1" stroke-dasharray="2" stroke="gray" points="590.4,-51.9 590.4,-38.4 595.4,-38.4 595.4,-33.4 590.4,-33.4 590.4,-26.4 602.4,-26.4 602.4,-48.8 590.4,-51.9" />
<polygon fill="none" stroke-width="1" stroke-dasharray="2" stroke="gray" points="169.9,-107.5 169.9,-85.1 178.4,-93.6 178.4,-116.0 169.9,-107.5" />
<polygon fill="none" stroke-width="1" stroke-dasharray="2" stroke="gray" points="169.9,-62.7 169.9,-40.3 178.4,-48.8 178.4,-71.2 169.9,-62.7" />
<polygon fill="rgba(255,255,255,0.75)" stroke-width="1" stroke-dasharray="" stroke="black" points="178.4,-116.0 190.4,-112.9 181.9,-104.4 169.9,-107.5" />
<polygon fill="none" stroke-width="1" stroke-dasharray="2" stroke="gray" points="178.4,-116.0 169.9,-107.5 181.9,-104.4 190.4,-112.9" />
<polygon fill="none" stroke-width="1" stroke-dasharray="2" stroke="gray" points="169.9,-85.1 181.9,-88.2 190.4,-96.7 178.4,-93.6" />
<polygon fill="rgba(255,255,255,0.75)" stroke-width="1" stroke-dasharray="" stroke="silver" points="190.4,-96.7 181.9,-88.2 169.9,-85.1 178.4,-93.6" />
<polygon fill="rgba(255,255,255,0.75)" stroke-width="1" stroke-dasharray="" stroke="black" points="178.4,-71.2 190.4,-68.1 181.9,-59.6 169.9,-62.7" />
<polygon fill="none" stroke-width="1" stroke-dasharray="2" stroke="gray" points="178.4,-71.2 169.9,-62.7 181.9,-59.6 190.4,-68.1" />
<polygon fill="none" stroke-width="1" stroke-dasharray="2" stroke="gray" points="169.9,-40.3 181.9,-43.4 190.4,-51.9 178.4,-48.8" />
<polygon fill="rgba(255,255,255,0.75)" stroke-width="1" stroke-dasharray="" stroke="silver" points="190.4,-51.9 181.9,-43.4 169.9,-40.3 178.4,-48.8" />
<polygon fill="none" stroke-width="1" stroke-dasharray="2" stroke="gray" points="181.9,-104.4 190.4,-112.9 190.4,-138.4 181.9,-129.9 181.9,-104.4" />
<polygon fill="none" stroke-width="1" stroke-dasharray="2" stroke="gray" points="181.9,-88.2 181.9,-59.6 190.4,-68.1 190.4,-96.7 181.9,-88.2" />
<polygon fill="none" stroke-width="1" stroke-dasharray="2" stroke="gray" points="181.9,-43.4 181.9,-29.9 185.4,-33.4 185.4,-28.4 181.9,-24.9 181.9,-17.9 190.4,-26.4 190.4,-51.9 181.9,-43.4" />
<polygon fill="rgba(255,255,255,0.75)" stroke-width="1" stroke-dasharray="" stroke="black" points="190.4,-138.4 590.4,-138.4 590.4,-138.4 581.9,-129.9 181.9,-129.9 190.4,-138.4" />
<polygon fill="none" stroke-width="1" stroke-dasharray="2" stroke="gray" points="190.4,-26.4 181.9,-17.9 581.9,-17.9 590.4,-26.4 590.4,-26.4 190.4,-26.4" />
<polygon fill="rgba(255,255,255,0.75)" stroke-width="1" stroke-dasharray="" stroke="black" points="590.4,-112.9 581.9,-104.4 581.9,-129.9 590.4,-138.4 590.4,-112.9" />
<polygon fill="rgba(255,255,255,0.75)" stroke-width="1" stroke-dasharray="" stroke="black" points="590.4,-96.7 590.4,-68.1 581.9,-59.6 581.9,-88.2 590.4,-96.7" />
<polygon fill="rgba(255,255,255,0.75)" stroke-width="1" stroke-dasharray="" stroke="black" points="590.4,-51.9 590.4,-26.4 581.9,-17.9 581.9,-24.9 585.4,-28.4 585.4,-33.4 581.9,-29.9 581.9,-43.4 590.4,-51.9" />
<polygon fill="none" stroke-width="1" stroke-dasharray="2" stroke="gray" points="590.4,-112.9 581.9,-104.4 593.9,-107.5 602.4,-116.0" />
<polygon fill="rgba(255,255,255,0.75)" stroke-width="1" stroke-dasharray="" stroke="silver" points="593.9,-107.5 581.9,-104.4 590.4,-112.9 602.4,-116.0" />
<polygon fill="rgba(255,255,255,0.75)" stroke-width="1" stroke-dasharray="" stroke="black" points="602.4,-93.6 593.9,-85.1 581.9,-88.2 590.4,-96.7" />
<polygon fill="none" stroke-width="1" stroke-dasharray="2" stroke="gray" points="602.4,-93.6 590.4,-96.7 581.9,-88.2 593.9,-85.1" />
<polygon fill="none" stroke-width="1" stroke-dasharray="2" stroke="gray" points="590.4,-68.1 581.9,-59.6 593.9,-62.7 602.4,-71.2" />
<polygon fill="rgba(255,255,255,0.75)" stroke-width="1" stroke-dasharray="" stroke="silver" points="593.9,-62.7 581.9,-59.6 590.4,-68.1 602.4,-71.2" />
<polygon fill="rgba(255,255,255,0.75)" stroke-width="1" stroke-dasharray="" stroke="black" points="602.4,-48.8 593.9,-40.3 581.9,-43.4 590.4,-51.9" />
<polygon fill="none" stroke-width="1" stroke-dasharray="2" stroke="gray" points="602.4,-48.8 590.4,-51.9 581.9,-43.4 593.9,-40.3" />
<polygon fill="rgba(255,255,255,0.75)" stroke-width="1" stroke-dasharray="" stroke="black" points="602.4,-116.0 602.4,-93.6 593.9,-85.1 593.9,-107.5 602.4,-116.0" />
<polygon fill="rgba(255,255,255,0.75)" stroke-width="1" stroke-dasharray="" stroke="black" points="602.4,-71.2 602.4,-48.8 593.9,-40.3 593.9,-62.7 602.4,-71.2" />
<polygon fill="none" stroke-width="1" stroke-dasharray="2" stroke="gray" points="185.5,-33.4 181.9,-29.9 581.9,-29.9 585.4,-33.4 585.4,-33.4 185.5,-33.4" />
<polygon fill="rgba(255,255,255,0.75)" stroke-width="1" stroke-dasharray="" stroke="black" points="185.5,-28.4 585.4,-28.4 585.4,-28.4 581.9,-24.9 181.9,-24.9 185.5,-28.4" />
<polygon fill="none" stroke-width="1" stroke-dasharray="2" stroke="gray" points="169.9,-107.5 169.9,-85.1 181.9,-88.2 181.9,-104.4 169.9,-107.5" />
<polygon fill="none" stroke-width="1" stroke-dasharray="2" stroke="gray" points="169.9,-62.7 169.9,-40.3 181.9,-43.4 181.9,-59.6 169.9,-62.7" />
<polygon fill="none" stroke-width="1" stroke-dasharray="2" stroke="gray" points="181.9,-185.1 193.9,-182.0 193.9,-201.9 181.9,-201.9 181.9,-185.1" />
<polygon fill="none" stroke-width="1" stroke-dasharray="2" stroke="gray" points="181.9,-168.3 181.9,-151.5 193.9,-148.4 193.9,-171.4 181.9,-168.3" />
<polygon fill="none" stroke-width="1" stroke-dasharray="2" stroke="gray" points="181.9,-134.7 181.9,-117.9 193.9,-117.9 193.9,-137.8 181.9,-134.7" />
<polygon fill="none" stroke-width="1" stroke-dasharray="2" stroke="gray" points="181.9,-102.9 196.9,-99.0 196.9,-112.9 181.9,-112.9 181.9,-102.9" />
<polygon fill="none" stroke-width="1" stroke-dasharray="2" stroke="gray" points="181.9,-92.9 181.9,-82.9 196.9,-82.9 196.9,-96.8 181.9,-92.9" />
<polygon fill="none" stroke-width="1" stroke-dasharray="2" stroke="gray" points="181.9,-134.7 193.9,-137.8 193.9,-117.9 569.9,-117.9 569.9,-137.8 581.9,-134.7 581.9,-134.7 581.9,-151.5 581.9,-151.5 569.9,-148.4 569.9,-171.4 581.9,-168.3 581.9,-185.1 569.9,-182.0 569.9,-201.9 569.9,-201.9 193.9,-201.9 193.9,-201.9 193.9,-182.0 181.9,-185.1 181.9,-168.3 193.9,-171.4 193.9,-148.4 181.9,-151.5 181.9,-151.5 181.9,-134.7" />
<polygon fill="none" stroke-width="1" stroke-dasharray="2" stroke="gray" points="181.9,-92.9 196.9,-96.8 196.9,-82.9 566.9,-82.9 566.9,-82.9 566.9,-96.8 581.9,-92.9 581.9,-102.9 566.9,-99.0 566.9,-112.9 566.9,-112.9 196.9,-112.9 196.9,-99.0 181.9,-102.9 181.9,-102.9 181.9,-92.9" />
<polygon fill="rgba(255,255,255,0.75)" stroke-width="1" stroke-dasharray="" stroke="black" points="181.9,-29.9 181.9,-43.4 169.9,-40.3 169.9,-62.7 181.9,-59.6 181.9,-88.2 169.9,-85.1 169.9,-85.1 169.9,-107.5 169.9,-107.5 181.9,-104.4 181.9,-129.9 581.9,-129.9 581.9,-104.4 593.9,-107.5 593.9,-107.5 593.9,-85.1 593.9,-85.1 581.9,-88.2 581.9,-59.6 593.9,-62.7 593.9,-40.3 581.9,-43.4 581.9,-29.9 581.9,-29.9 181.9,-29.9" />
<polygon fill="none" stroke-width="1" stroke-dasharray="2" stroke="gray" points="181.9,-213.9 181.9,-201.9 211.9,-201.9 211.9,-213.9" />
<polygon fill="none" stroke-width="1" stroke-dasharray="2" stroke="gray" points="211.9,-213.9 211.9,-201.9 241.9,-201.9 241.9,-213.9" />
<polygon fill="none" stroke-width="1" stroke-dasharray="2" stroke="gray" points="181.9,-117.9 181.9,-114.9 581.9,-114.9 581.9,-117.9" />
<polygon fill="none" stroke-width="1" stroke-dasharray="2" stroke="gray" points="181.9,-82.9 181.9,-79.9 581.9,-79.9 581.9,-82.9" />
<polygon fill="none" stroke-width="1" stroke-dasharray="2" stroke="gray" points="506.9,-213.9 506.9,-201.9 536.9,-201.9 536.9,-213.9" />
<polygon fill="none" stroke-width="1" stroke-dasharray="2" stroke="gray" points="536.9,-216.9 536.9,-201.9 551.9,-201.9 551.9,-216.9" />
<polygon fill="none" stroke-width="1" stroke-dasharray="2" stroke="gray" points="551.9,-213.9 551.9,-201.9 581.9,-201.9 581.9,-213.9" />
<polygon fill="none" stroke-width="1" stroke-dasharray="2" stroke="gray" points="566.9,-99.0 581.9,-102.9 581.9,-112.9 566.9,-112.9 566.9,-99.0" />
<polygon fill="none" stroke-width="1" stroke-dasharray="2" stroke="gray" points="566.9,-96.8 566.9,-82.9 581.9,-82.9 581.9,-92.9 566.9,-96.8" />
<polygon fill="none" stroke-width="1" stroke-dasharray="2" stroke="gray" points="569.9,-182.0 581.9,-185.1 581.9,-201.9 569.9,-201.9 569.9,-182.0" />
<polygon fill="none" stroke-width="1" stroke-dasharray="2" stroke="gray" points="569.9,-171.4 569.9,-148.4 581.9,-151.5 581.9,-168.3 569.9,-171.4" />
<polygon fill="none" stroke-width="1" stroke-dasharray="2" stroke="gray" points="569.9,-137.8 569.9,-117.9 581.9,-117.9 581.9,-134.7 569.9,-137.8" />
<polygon fill="none" stroke-width="1" stroke-dasharray="2" stroke="gray" points="581.9,-104.4 581.9,-88.2 593.9,-85.1 593.9,-107.5 581.9,-104.4" />
<polygon fill="none" stroke-width="1" stroke-dasharray="2" stroke="gray" points="581.9,-59.6 581.9,-43.4 593.9,-40.3 593.9,-62.7 581.9,-59.6" />
<polygon fill="none" stroke-width="1" stroke-dasharray="2" stroke="gray" points="173.4,-176.6 173.4,-159.8 181.9,-168.3 181.9,-185.1 173.4,-176.6" />
<polygon fill="none" stroke-width="1" stroke-dasharray="2" stroke="gray" points="173.4,-143.0 173.4,-126.2 181.9,-134.7 181.9,-151.5 173.4,-143.0" />
<polygon fill="rgba(255,255,255,0.75)" stroke-width="1" stroke-dasharray="" stroke="black" points="181.9,-185.1 193.9,-182.0 185.4,-173.5 173.4,-176.6" />
<polygon fill="none" stroke-width="1" stroke-dasharray="2" stroke="gray" points="181.9,-185.1 173.4,-176.6 185.4,-173.5 193.9,-182.0" />
<polygon fill="none" stroke-width="1" stroke-dasharray="2" stroke="gray" points="173.4,-159.8 185.4,-162.9 193.9,-171.4 181.9,-168.3" />
<polygon fill="rgba(255,255,255,0.75)" stroke-width="1" stroke-dasharray="" stroke="silver" points="193.9,-171.4 185.4,-162.9 173.4,-159.8 181.9,-168.3" />
<polygon fill="rgba(255,255,255,0.75)" stroke-width="1" stroke-dasharray="" stroke="black" points="181.9,-151.5 193.9,-148.4 185.4,-139.9 173.4,-143.0" />
<polygon fill="none" stroke-width="1" stroke-dasharray="2" stroke="gray" points="181.9,-151.5 173.4,-143.0 185.4,-139.9 193.9,-148.4" />
<polygon fill="none" stroke-width="1" stroke-dasharray="2" stroke="gray" points="173.4,-126.2 185.4,-129.3 193.9,-137.8 181.9,-134.7" />
<polygon fill="rgba(255,255,255,0.75)" stroke-width="1" stroke-dasharray="" stroke="silver" points="193.9,-137.8 185.4,-129.3 173.4,-126.2 181.9,-134.7" />
<polygon fill="none" stroke-width="1" stroke-dasharray="2" stroke="gray" points="185.4,-173.5 193.9,-182.0 193.9,-201.9 185.4,-193.4 185.4,-173.5" />
<polygon fill="none" stroke-width="1" stroke-dasharray="2" stroke="gray" points="185.4,-162.9 185.4,-139.9 193.9,-148.4 193.9,-171.4 185.4,-162.9" />
<polygon fill="none" stroke-width="1" stroke-dasharray="2" stroke="gray" points="185.4,-129.3 185.4,-109.4 193.9,-117.9 193.9,-137.8 185.4,-129.3" />
<polygon fill="rgba(255,255,255,0.75)" stroke-width="1" stroke-dasharray="" stroke="black" points="193.9,-201.9 569.9,-201.9 569.9,-201.9 561.4,-193.4 185.4,-193.4 193.9,-201.9" />
<polygon fill="none" stroke-width="1" stroke-dasharray="2" stroke="gray" points="193.9,-117.9 185.4,-109.4 561.4,-109.4 569.9,-117.9 569.9,-117.9 193.9,-117.9" />
<polygon fill="rgba(255,255,255,0.75)" stroke-width="1" stroke-dasharray="" stroke="black" points="569.9,-182.0 561.4,-173.5 561.4,-193.4 569.9,-201.9 569.9,-182.0" />
<polygon fill="rgba(255,255,255,0.75)" stroke-width="1" stroke-dasharray="" stroke="black" points="569.9,-171.4 569.9,-148.4 561.4,-139.9 561.4,-162.9 569.9,-171.4" />
<polygon fill="rgba(255,255,255,0.75)" stroke-width="1" stroke-dasharray="" stroke="black" points="569.9,-137.8 569.9,-117.9 561.4,-109.4 561.4,-129.3 569.9,-137.8" />
<polygon fill="none" stroke-width="1" stroke-dasharray="2" stroke="gray" points="569.9,-182.0 561.4,-173.5 573.4,-176.6 581.9,-185.1" />
<polygon fill="rgba(255,255,255,0.75)" stroke-width="1" stroke-dasharray="" stroke="silver" points="573.4,-176.6 561.4,-173.5 569.9,-182.0 581.9,-185.1" />
<polygon fill="rgba(255,255,255,0.75)" stroke-width="1" stroke-dasharray="" stroke="black" points="581.9,-168.3 573.4,-159.8 561.4,-162.9 569.9,-171.4" />
<polygon fill="none" stroke-width="1" stroke-dasharray="2" stroke="gray" points="581.9,-168.3 569.9,-171.4 561.4,-162.9 573.4,-159.8" />
<polygon fill="none" stroke-width="1" stroke-dasharray="2" stroke="gray" points="569.9,-148.4 561.4,-139.9 573.4,-143.0 581.9,-151.5" />
<polygon fill="rgba(255,255,255,0.75)" stroke-width="1" stroke-dasharray="" stroke="silver" points="573.4,-143.0 561.4,-139.9 569.9,-148.4 581.9,-151.5" />
<polygon fill="rgba(255,255,255,0.75)" stroke-width="1" stroke-dasharray="" stroke="black" points="581.9,-134.7 573.4,-126.2 561.4,-129.3 569.9,-137.8" />
<polygon fill="none" stroke-width="1" stroke-dasharray="2" stroke="gray" points="581.9,-134.7 569.9,-137.8 561.4,-129.3 573.4,-126.2" />
<polygon fill="rgba(255,255,255,0.75)" stroke-width="1" stroke-dasharray="" stroke="black" points="581.9,-185.1 581.9,-168.3 573.4,-159.8 573.4,-176.6 581.9,-185.1" />
<polygon fill="rgba(255,255,255,0.75)" stroke-width="1" stroke-dasharray="" stroke="black" points="581.9,-151.5 581.9,-134.7 573.4,-126.2 573.4,-143.0 581.9,-151.5" />
<polygon fill="none" stroke-width="1" stroke-dasharray="2" stroke="gray" points="171.3,-92.3 171.3,-82.3 181.9,-92.9 181.9,-102.9 171.3,-92.3" />
<polygon fill="rgba(255,255,255,0.75)" stroke-width="1" stroke-dasharray="" stroke="black" points="181.9,-102.9 196.9,-99.0 186.3,-88.4 171.3,-92.3" />
<polygon fill="none" stroke-width="1" stroke-dasharray="2" stroke="gray" points="181.9,-102.9 171.3,-92.3 186.3,-88.4 196.9,-99.0" />
<polygon fill="none" stroke-width="1" stroke-dasharray="2" stroke="gray" points="171.3,-82.3 186.3,-86.2 196.9,-96.8 181.9,-92.9" />
<polygon fill="rgba(255,255,255,0.75)" stroke-width="1" stroke-dasharray="" stroke="silver" points="196.9,-96.8 186.3,-86.2 171.3,-82.3 181.9,-92.9" />
<polygon fill="none" stroke-width="1" stroke-dasharray="2" stroke="gray" points="186.3,-88.4 196.9,-99.0 196.9,-112.9 186.3,-102.3 186.3,-88.4" />
<polygon fill="none" stroke-width="1" stroke-dasharray="2" stroke="gray" points="186.3,-86.2 186.3,-72.3 196.9,-82.9 196.9,-96.8 186.3,-86.2" />
<polygon fill="rgba(255,255,255,0.75)" stroke-width="1" stroke-dasharray="" stroke="black" points="196.9,-112.9 566.9,-112.9 566.9,-112.9 556.3,-102.3 186.3,-102.3 196.9,-112.9" />
<polygon fill="none" stroke-width="1" stroke-dasharray="2" stroke="gray" points="196.9,-82.9 186.3,-72.3 556.3,-72.3 566.9,-82.9 566.9,-82.9 196.9,-82.9" />
<polygon fill="rgba(255,255,255,0.75)" stroke-width="1" stroke-dasharray="" stroke="black" points="566.9,-99.0 556.3,-88.4 556.3,-102.3 566.9,-112.9 566.9,-99.0" />
<polygon fill="rgba(255,255,255,0.75)" stroke-width="1" stroke-dasharray="" stroke="black" points="566.9,-96.8 566.9,-82.9 556.3,-72.3 556.3,-86.2 566.9,-96.8" />
<polygon fill="none" stroke-width="1" stroke-dasharray="2" stroke="gray" points="566.9,-99.0 556.3,-88.4 571.3,-92.3 581.9,-102.9" />
<polygon fill="rgba(255,255,255,0.75)" stroke-width="1" stroke-dasharray="" stroke="silver" points="571.3,-92.3 556.3,-88.4 566.9,-99.0 581.9,-102.9" />
<polygon fill="rgba(255,255,255,0.75)" stroke-width="1" stroke-dasharray="" stroke="black" points="581.9,-92.9 571.3,-82.3 556.3,-86.2 566.9,-96.8" />
<polygon fill="none" stroke-width="1" stroke-dasharray="2" stroke="gray" points="581.9,-92.9 566.9,-96.8 556.3,-86.2 571.3,-82.3" />
<polygon fill="rgba(255,255,255,0.75)" stroke-width="1" stroke-dasharray="" stroke="black" points="581.9,-102.9 581.9,-92.9 571.3,-82.3 571.3,-92.3 581.9,-102.9" />
<polygon fill="none" stroke-width="1" stroke-dasharray="2" stroke="gray" points="173.4,-176.6 173.4,-159.8 185.4,-162.9 185.4,-173.5 173.4,-176.6" />
<polygon fill="none" stroke-width="1" stroke-dasharray="2" stroke="gray" points="173.4,-143.0 173.4,-126.2 185.4,-129.3 185.4,-139.9 173.4,-143.0" />
<polygon fill="rgba(255,255,255,0.75)" stroke-width="1" stroke-dasharray="" stroke="black" points="185.4,-109.4 185.4,-129.3 173.4,-126.2 173.4,-143.0 185.4,-139.9 185.4,-162.9 173.4,-159.8 173.4,-159.8 173.4,-176.6 173.4,-176.6 185.4,-173.5 185.4,-193.4 561.4,-193.4 561.4,-173.5 573.4,-176.6 573.4,-176.6 573.4,-159.8 573.4,-159.8 561.4,-162.9 561.4,-139.9 573.4,-143.0 573.4,-126.2 561.4,-129.3 561.4,-109.4 561.4,-109.4 185.4,-109.4" />
<polygon fill="none" stroke-width="1" stroke-dasharray="2" stroke="gray" points="185.4,-193.4 185.4,-178.4 561.4,-178.4 561.4,-193.4" />
<polygon fill="none" stroke-width="1" stroke-dasharray="2" stroke="gray" points="561.4,-173.5 561.4,-162.9 573.4,-159.8 573.4,-176.6 561.4,-173.5" />
<polygon fill="none" stroke-width="1" stroke-dasharray="2" stroke="gray" points="561.4,-139.9 561.4,-129.3 573.4,-126.2 573.4,-143.0 561.4,-139.9" />
<polygon fill="none" stroke-width="1" stroke-dasharray="2" stroke="gray" points="171.3,-92.3 171.3,-82.3 186.3,-86.2 186.3,-88.4 171.3,-92.3" />
<polygon fill="rgba(255,255,255,0.75)" stroke-width="1" stroke-dasharray="" stroke="black" points="186.3,-72.3 186.3,-86.2 171.3,-82.3 171.3,-92.3 186.3,-88.4 186.3,-102.3 186.3,-102.3 556.3,-102.3 556.3,-88.4 571.3,-92.3 571.3,-92.3 571.3,-82.3 571.3,-82.3 556.3,-86.2 556.3,-72.3 186.3,-72.3" />
<polygon fill="none" stroke-width="1" stroke-dasharray="2" stroke="gray" points="556.3,-88.4 556.3,-86.2 571.3,-82.3 571.3,-92.3 556.3,-88.4" />
<polygon fill="none" stroke-width="1" stroke-dasharray="2" stroke="gray" points="111.2,-22.2 111.2,-12.2 181.9,-82.9 181.9,-92.9 181.9,-92.9 171.3,-82.3 171.3,-92.3 181.9,-102.9 181.9,-112.9 111.2,-42.2 111.2,-32.2 121.8,-42.8 121.8,-32.8 111.2,-22.2" />
<polygon fill="rgba(255,255,255,0.75)" stroke-width="1" stroke-dasharray="" stroke="black" points="196.9,-112.9 126.2,-42.2 111.2,-42.2 181.9,-112.9" />
<polygon fill="none" stroke-width="1" stroke-dasharray="2" stroke="gray" points="181.9,-82.9 111.2,-12.2 126.2,-12.2 196.9,-82.9" />
<polygon fill="rgba(255,255,255,0.75)" stroke-width="1" stroke-dasharray="" stroke="black" points="126.2,-28.3 126.2,-42.2 196.9,-112.9 196.9,-99.0 196.9,-99.0 186.3,-88.4 186.3,-86.2 196.9,-96.8 196.9,-82.9 126.2,-12.2 126.2,-26.1 136.8,-36.7 136.8,-38.9 126.2,-28.3" />
<polygon fill="none" stroke-width="1" stroke-dasharray="2" stroke="gray" points="111.2,-12.2 111.2,-9.2 181.9,-79.9 181.9,-82.9" />
<polygon fill="rgba(255,255,255,0.75)" stroke-width="1" stroke-dasharray="" stroke="black" points="181.9,-82.9 581.9,-82.9 511.2,-12.2 111.2,-12.2" />
<polygon fill="none" stroke-width="1" stroke-dasharray="2" stroke="gray" points="111.2,-9.2 511.2,-9.2 581.9,-79.9 181.9,-79.9" />
<polygon fill="none" stroke-width="1" stroke-dasharray="2" stroke="gray" points="566.9,-99.0 566.9,-112.9 496.2,-42.2 496.2,-28.3 496.2,-28.3 506.8,-38.9 506.8,-36.7 496.2,-26.1 496.2,-12.2 566.9,-82.9 566.9,-96.8 556.3,-86.2 556.3,-88.4 566.9,-99.0" />
<polygon fill="rgba(255,255,255,0.75)" stroke-width="1" stroke-dasharray="" stroke="black" points="496.2,-42.2 566.9,-112.9 581.9,-112.9 511.2,-42.2" />
<polygon fill="none" stroke-width="1" stroke-dasharray="2" stroke="gray" points="511.2,-12.2 581.9,-82.9 566.9,-82.9 496.2,-12.2" />
<polygon fill="rgba(255,255,255,0.75)" stroke-width="1" stroke-dasharray="" stroke="black" points="581.9,-92.9 581.9,-82.9 511.2,-12.2 511.2,-22.2 511.2,-22.2 521.8,-32.8 521.8,-42.8 511.2,-32.2 511.2,-42.2 581.9,-112.9 581.9,-102.9 571.3,-92.3 571.3,-82.3 581.9,-92.9" />
<polygon fill="rgba(255,255,255,0.75)" stroke-width="1" stroke-dasharray="" stroke="black" points="581.9,-82.9 581.9,-79.9 511.2,-9.2 511.2,-12.2" />
<polygon fill="rgba(255,255,255,0.75)" stroke-width="1" stroke-dasharray="" stroke="black" points="136.8,-38.9 136.8,-36.7 121.8,-32.8 121.8,-42.8 136.8,-38.9" />
<polygon fill="none" stroke-width="1" stroke-dasharray="2" stroke="gray" points="506.8,-22.8 506.8,-36.7 521.8,-32.8 521.8,-42.8 506.8,-38.9 506.8,-52.8 506.8,-52.8 136.8,-52.8 136.8,-38.9 121.8,-42.8 121.8,-42.8 121.8,-32.8 121.8,-32.8 136.8,-36.7 136.8,-22.8 506.8,-22.8" />
<polygon fill="rgba(255,255,255,0.75)" stroke-width="1" stroke-dasharray="" stroke="black" points="521.8,-42.8 521.8,-32.8 506.8,-36.7 506.8,-38.9 521.8,-42.8" />
<polygon fill="none" stroke-width="1" stroke-dasharray="2" stroke="gray" points="126.2,-28.3 136.8,-38.9 121.8,-42.8 111.2,-32.2" />
<polygon fill="rgba(255,255,255,0.75)" stroke-width="1" stroke-dasharray="" stroke="silver" points="111.2,-22.2 121.8,-32.8 136.8,-36.7 126.2,-26.1" />
<polygon fill="none" stroke-width="1" stroke-dasharray="2" stroke="gray" points="111.2,-32.2 111.2,-22.2 121.8,-32.8 121.8,-42.8 111.2,-32.2" />
<polygon fill="rgba(255,255,255,0.75)" stroke-width="1" stroke-dasharray="" stroke="black" points="121.8,-42.8 136.8,-38.9 126.2,-28.3 111.2,-32.2" />
<polygon fill="none" stroke-width="1" stroke-dasharray="2" stroke="gray" points="111.2,-22.2 126.2,-26.1 136.8,-36.7 121.8,-32.8" />
<polygon fill="none" stroke-width="1" stroke-dasharray="2" stroke="gray" points="126.2,-28.3 136.8,-38.9 136.8,-52.8 126.2,-42.2 126.2,-28.3" />
<polygon fill="none" stroke-width="1" stroke-dasharray="2" stroke="gray" points="126.2,-26.1 126.2,-12.2 136.8,-22.8 136.8,-36.7 126.2,-26.1" />
<polygon fill="rgba(255,255,255,0.75)" stroke-width="1" stroke-dasharray="" stroke="black" points="496.2,-42.2 126.2,-42.2 126.2,-42.2 136.8,-52.8 506.8,-52.8 496.2,-42.2" />
<polygon fill="none" stroke-width="1" stroke-dasharray="2" stroke="gray" points="496.2,-12.2 506.8,-22.8 136.8,-22.8 126.2,-12.2 126.2,-12.2 496.2,-12.2" />
<polygon fill="rgba(255,255,255,0.75)" stroke-width="1" stroke-dasharray="" stroke="black" points="506.8,-38.9 496.2,-28.3 496.2,-42.2 506.8,-52.8 506.8,-38.9" />
<polygon fill="rgba(255,255,255,0.75)" stroke-width="1" stroke-dasharray="" stroke="black" points="506.8,-36.7 506.8,-22.8 496.2,-12.2 496.2,-26.1 506.8,-36.7" />
<polygon fill="rgba(255,255,255,0.75)" stroke-width="1" stroke-dasharray="" stroke="silver" points="511.2,-32.2 496.2,-28.3 506.8,-38.9 521.8,-42.8" />
<polygon fill="none" stroke-width="1" stroke-dasharray="2" stroke="gray" points="511.2,-32.2 521.8,-42.8 506.8,-38.9 496.2,-28.3" />
<polygon fill="none" stroke-width="1" stroke-dasharray="2" stroke="gray" points="521.8,-32.8 506.8,-36.7 496.2,-26.1 511.2,-22.2" />
<polygon fill="rgba(255,255,255,0.75)" stroke-width="1" stroke-dasharray="" stroke="black" points="496.2,-26.1 506.8,-36.7 521.8,-32.8 511.2,-22.2" />
<polygon fill="rgba(255,255,255,0.75)" stroke-width="1" stroke-dasharray="" stroke="black" points="521.8,-42.8 521.8,-32.8 511.2,-22.2 511.2,-32.2 521.8,-42.8" />
<polygon fill="none" stroke-width="1" stroke-dasharray="2" stroke="gray" points="20.0,109.6 20.0,132.0 178.4,-26.4 178.4,-48.8 169.9,-40.3 169.9,-62.7 178.4,-71.2 178.4,-71.2 178.4,-93.6 178.4,-93.6 169.9,-85.1 169.9,-107.5 178.4,-116.0 178.4,-138.4 20.0,20.0 20.0,42.4 20.0,42.4 28.5,33.9 28.5,56.3 20.0,64.8 20.0,87.2 28.5,78.7 28.5,101.1 20.0,109.6" />
<polygon fill="rgba(255,255,255,0.75)" stroke-width="1" stroke-dasharray="" stroke="black" points="190.4,-138.4 32.0,20.0 20.0,20.0 178.4,-138.4" />
<polygon fill="none" stroke-width="1" stroke-dasharray="2" stroke="gray" points="178.4,-26.4 20.0,132.0 32.0,132.0 190.4,-26.4" />
<polygon fill="none" stroke-width="1" stroke-dasharray="2" stroke="gray" points="185.4,-38.4 27.0,120.0 32.0,120.0 190.4,-38.4" />
<polygon fill="rgba(255,255,255,0.75)" stroke-width="1" stroke-dasharray="" stroke="black" points="190.4,-33.4 32.0,125.0 27.0,125.0 185.4,-33.4" />
<polygon fill="rgba(255,255,255,0.75)" stroke-width="1" stroke-dasharray="" stroke="black" points="32.0,90.3 32.0,61.7 32.0,61.7 40.5,53.2 40.5,37.0 32.0,45.5 32.0,20.0 190.4,-138.4 190.4,-112.9 190.4,-112.9 181.9,-104.4 181.9,-88.2 190.4,-96.7 190.4,-68.1 181.9,-59.6 181.9,-43.4 190.4,-51.9 190.4,-51.9 190.4,-38.4 32.0,120.0 32.0,106.5 40.5,98.0 40.5,81.8 32.0,90.3" />
<polygon fill="none" stroke-width="1" stroke-dasharray="2" stroke="gray" points="40.5,6.7 40.5,23.5 181.9,-117.9 181.9,-134.7 173.4,-126.2 173.4,-143.0 181.9,-151.5 181.9,-151.5 181.9,-168.3 181.9,-168.3 173.4,-159.8 173.4,-176.6 181.9,-185.1 181.9,-201.9 40.5,-60.5 40.5,-43.7 40.5,-43.7 49.0,-52.2 49.0,-35.4 40.5,-26.9 40.5,-10.1 49.0,-18.6 49.0,-1.8 40.5,6.7" />
<polygon fill="rgba(255,255,255,0.75)" stroke-width="1" stroke-dasharray="" stroke="black" points="193.9,-201.9 52.5,-60.5 40.5,-60.5 181.9,-201.9" />
<polygon fill="none" stroke-width="1" stroke-dasharray="2" stroke="gray" points="181.9,-117.9 40.5,23.5 52.5,23.5 193.9,-117.9" />
<polygon fill="rgba(255,255,255,0.75)" stroke-width="1" stroke-dasharray="" stroke="black" points="126.2,-28.3 111.2,-32.2 111.2,-42.2 126.2,-42.2 126.2,-28.3" />
<polygon fill="rgba(255,255,255,0.75)" stroke-width="1" stroke-dasharray="" stroke="black" points="126.2,-26.1 126.2,-12.2 111.2,-12.2 111.2,-22.2 126.2,-26.1" />
<polygon fill="rgba(255,255,255,0.75)" stroke-width="1" stroke-dasharray="" stroke="black" points="52.5,-7.0 52.5,-30.0 52.5,-30.0 61.0,-38.5 61.0,-49.1 52.5,-40.6 52.5,-60.5 193.9,-201.9 193.9,-182.0 193.9,-182.0 185.4,-173.5 185.4,-162.9 193.9,-171.4 193.9,-148.4 185.4,-139.9 185.4,-129.3 193.9,-137.8 193.9,-137.8 193.9,-117.9 52.5,23.5 52.5,3.6 61.0,-4.9 61.0,-15.5 52.5,-7.0" />
<polygon fill="none" stroke-width="1" stroke-dasharray="2" stroke="gray" points="20.0,120.0 20.0,135.0 178.4,-23.4 178.4,-38.4" />
<polygon fill="none" stroke-width="1" stroke-dasharray="2" stroke="gray" points="40.5,-72.5 40.5,-60.5 181.9,-201.9 181.9,-213.9" />
<polygon fill="none" stroke-width="1" stroke-dasharray="2" stroke="gray" points="40.5,23.5 40.5,26.5 181.9,-114.9 181.9,-117.9" />
<polygon fill="none" stroke-width="1" stroke-dasharray="2" stroke="gray" points="61.0,-69.0 61.0,-54.0 185.4,-178.4 185.4,-193.4" />
<polygon fill="rgba(255,255,255,0.75)" stroke-width="1" stroke-dasharray="" stroke="black" points="181.9,-213.9 211.9,-213.9 70.5,-72.5 40.5,-72.5" />
<polygon fill="none" stroke-width="1" stroke-dasharray="2" stroke="gray" points="40.5,-60.5 70.5,-60.5 211.9,-201.9 181.9,-201.9" />
<polygon fill="rgba(255,255,255,0.75)" stroke-width="1" stroke-dasharray="" stroke="black" points="211.9,-213.9 211.9,-201.9 70.5,-60.5 70.5,-72.5" />
<polygon fill="none" stroke-width="1" stroke-dasharray="2" stroke="gray" points="70.5,-72.5 70.5,-60.5 211.9,-201.9 211.9,-213.9" />
<polygon fill="rgba(255,255,255,0.75)" stroke-width="1" stroke-dasharray="" stroke="black" points="211.9,-213.9 241.9,-213.9 100.5,-72.5 70.5,-72.5" />
<polygon fill="none" stroke-width="1" stroke-dasharray="2" stroke="gray" points="70.5,-60.5 100.5,-60.5 241.9,-201.9 211.9,-201.9" />
<polygon fill="rgba(255,255,255,0.75)" stroke-width="1" stroke-dasharray="" stroke="black" points="241.9,-213.9 241.9,-201.9 100.5,-60.5 100.5,-72.5" />
<polygon fill="rgba(255,255,255,0.75)" stroke-width="1" stroke-dasharray="" stroke="black" points="185.4,-193.4 561.4,-193.4 437.0,-69.0 61.0,-69.0" />
<polygon fill="none" stroke-width="1" stroke-dasharray="2" stroke="gray" points="61.0,-54.0 437.0,-54.0 561.4,-178.4 185.4,-178.4" />
<polygon fill="rgba(255,255,255,0.75)" stroke-width="1" stroke-dasharray="" stroke="black" points="181.9,-117.9 581.9,-117.9 440.5,23.5 40.5,23.5" />
<polygon fill="none" stroke-width="1" stroke-dasharray="2" stroke="gray" points="40.5,26.5 440.5,26.5 581.9,-114.9 181.9,-114.9" />
<polygon fill="rgba(255,255,255,0.75)" stroke-width="1" stroke-dasharray="" stroke="black" points="511.2,-22.2 496.2,-26.1 496.2,-12.2 126.2,-12.2 126.2,-12.2 126.2,-26.1 111.2,-22.2 111.2,-32.2 126.2,-28.3 126.2,-42.2 126.2,-42.2 496.2,-42.2 496.2,-28.3 511.2,-32.2 511.2,-32.2 511.2,-22.2" />
<polygon fill="rgba(255,255,255,0.75)" stroke-width="1" stroke-dasharray="" stroke="black" points="111.2,-12.2 511.2,-12.2 511.2,-9.2 111.2,-9.2" />
<polygon fill="rgba(255,255,255,0.75)" stroke-width="1" stroke-dasharray="" stroke="black" points="178.4,-38.4 602.4,-38.4 444.0,120.0 20.0,120.0" />
<polygon fill="none" stroke-width="1" stroke-dasharray="2" stroke="gray" points="20.0,135.0 444.0,135.0 602.4,-23.4 178.4,-23.4" />
<polygon fill="none" stroke-width="1" stroke-dasharray="2" stroke="gray" points="365.5,-72.5 365.5,-60.5 506.9,-201.9 506.9,-213.9" />
<polygon fill="rgba(255,255,255,0.75)" stroke-width="1" stroke-dasharray="" stroke="black" points="506.9,-213.9 536.9,-213.9 395.5,-72.5 365.5,-72.5" />
<polygon fill="none" stroke-width="1" stroke-dasharray="2" stroke="gray" points="365.5,-60.5 395.5,-60.5 536.9,-201.9 506.9,-201.9" />
<polygon fill="none" stroke-width="1" stroke-dasharray="2" stroke="gray" points="395.5,-75.5 395.5,-60.5 536.9,-201.9 536.9,-216.9" />
<polygon fill="rgba(255,255,255,0.75)" stroke-width="1" stroke-dasharray="" stroke="black" points="536.9,-213.9 536.9,-201.9 395.5,-60.5 395.5,-72.5" />
<polygon fill="rgba(255,255,255,0.75)" stroke-width="1" stroke-dasharray="" stroke="black" points="536.9,-216.9 551.9,-216.9 410.5,-75.5 395.5,-75.5" />
<polygon fill="none" stroke-width="1" stroke-dasharray="2" stroke="gray" points="395.5,-60.5 410.5,-60.5 551.9,-201.9 536.9,-201.9" />
<polygon fill="rgba(255,255,255,0.75)" stroke-width="1" stroke-dasharray="" stroke="black" points="551.9,-216.9 551.9,-201.9 410.5,-60.5 410.5,-75.5" />
<polygon fill="none" stroke-width="1" stroke-dasharray="2" stroke="gray" points="410.5,-72.5 410.5,-60.5 551.9,-201.9 551.9,-213.9" />
<polygon fill="rgba(255,255,255,0.75)" stroke-width="1" stroke-dasharray="" stroke="black" points="551.9,-213.9 581.9,-213.9 440.5,-72.5 410.5,-72.5" />
<polygon fill="none" stroke-width="1" stroke-dasharray="2" stroke="gray" points="410.5,-60.5 440.5,-60.5 581.9,-201.9 551.9,-201.9" />
<polygon fill="rgba(255,255,255,0.75)" stroke-width="1" stroke-dasharray="" stroke="black" points="561.4,-193.4 561.4,-178.4 437.0,-54.0 437.0,-69.0" />
<polygon fill="none" stroke-width="1" stroke-dasharray="2" stroke="gray" points="569.9,-148.4 569.9,-171.4 569.9,-171.4 561.4,-162.9 561.4,-173.5 569.9,-182.0 569.9,-201.9 428.5,-60.5 428.5,-40.6 428.5,-40.6 437.0,-49.1 437.0,-38.5 428.5,-30.0 428.5,-7.0 437.0,-15.5 437.0,-4.9 428.5,3.6 428.5,3.6 428.5,23.5 569.9,-117.9 569.9,-137.8 561.4,-129.3 561.4,-139.9 569.9,-148.4" />
<polygon fill="rgba(255,255,255,0.75)" stroke-width="1" stroke-dasharray="" stroke="black" points="511.2,-32.2 496.2,-28.3 496.2,-42.2 511.2,-42.2 511.2,-32.2" />
<polygon fill="rgba(255,255,255,0.75)" stroke-width="1" stroke-dasharray="" stroke="black" points="511.2,-22.2 511.2,-12.2 496.2,-12.2 496.2,-26.1 511.2,-22.2" />
<polygon fill="rgba(255,255,255,0.75)" stroke-width="1" stroke-dasharray="" stroke="black" points="428.5,-60.5 569.9,-201.9 581.9,-201.9 440.5,-60.5" />
<polygon fill="none" stroke-width="1" stroke-dasharray="2" stroke="gray" points="440.5,23.5 581.9,-117.9 569.9,-117.9 428.5,23.5" />
<polygon fill="rgba(255,255,255,0.75)" stroke-width="1" stroke-dasharray="" stroke="black" points="581.9,-213.9 581.9,-201.9 440.5,-60.5 440.5,-72.5" />
<polygon fill="rgba(255,255,255,0.75)" stroke-width="1" stroke-dasharray="" stroke="black" points="581.9,-134.7 581.9,-117.9 440.5,23.5 440.5,6.7 449.0,-1.8 449.0,-18.6 440.5,-10.1 440.5,-10.1 440.5,-26.9 440.5,-26.9 449.0,-35.4 449.0,-52.2 440.5,-43.7 440.5,-60.5 581.9,-201.9 581.9,-185.1 581.9,-185.1 573.4,-176.6 573.4,-159.8 581.9,-168.3 581.9,-151.5 573.4,-143.0 573.4,-126.2 581.9,-134.7" />
<polygon fill="rgba(255,255,255,0.75)" stroke-width="1" stroke-dasharray="" stroke="black" points="581.9,-117.9 581.9,-114.9 440.5,26.5 440.5,23.5" />
<polygon fill="none" stroke-width="1" stroke-dasharray="2" stroke="gray" points="590.4,-68.1 590.4,-96.7 590.4,-96.7 581.9,-88.2 581.9,-104.4 590.4,-112.9 590.4,-138.4 432.0,20.0 432.0,45.5 432.0,45.5 440.5,37.0 440.5,53.2 432.0,61.7 432.0,90.3 440.5,81.8 440.5,98.0 432.0,106.5 432.0,106.5 432.0,120.0 590.4,-38.4 590.4,-51.9 581.9,-43.4 581.9,-59.6 590.4,-68.1" />
<polygon fill="none" stroke-width="1" stroke-dasharray="2" stroke="gray" points="437.0,120.0 595.4,-38.4 590.4,-38.4 432.0,120.0" />
<polygon fill="rgba(255,255,255,0.75)" stroke-width="1" stroke-dasharray="" stroke="black" points="432.0,125.0 590.4,-33.4 595.4,-33.4 437.0,125.0" />
<polygon fill="rgba(255,255,255,0.75)" stroke-width="1" stroke-dasharray="" stroke="black" points="432.0,20.0 590.4,-138.4 602.4,-138.4 444.0,20.0" />
<polygon fill="none" stroke-width="1" stroke-dasharray="2" stroke="gray" points="444.0,132.0 602.4,-26.4 590.4,-26.4 432.0,132.0" />
<polygon fill="rgba(255,255,255,0.75)" stroke-width="1" stroke-dasharray="" stroke="black" points="602.4,-48.8 602.4,-26.4 444.0,132.0 444.0,109.6 452.5,101.1 452.5,78.7 444.0,87.2 444.0,87.2 444.0,64.8 444.0,64.8 452.5,56.3 452.5,33.9 444.0,42.4 444.0,20.0 602.4,-138.4 602.4,-116.0 602.4,-116.0 593.9,-107.5 593.9,-85.1 602.4,-93.6 602.4,-71.2 593.9,-62.7 593.9,-40.3 602.4,-48.8" />
<polygon fill="rgba(255,255,255,0.75)" stroke-width="1" stroke-dasharray="" stroke="black" points="602.4,-38.4 602.4,-23.4 444.0,135.0 444.0,120.0" />
<polygon fill="rgba(255,255,255,0.75)" stroke-width="1" stroke-dasharray="" stroke="black" points="61.0,-49.1 61.0,-38.5 49.0,-35.4 49.0,-52.2 61.0,-49.1" />
<polygon fill="rgba(255,255,255,0.75)" stroke-width="1" stroke-dasharray="" stroke="black" points="61.0,-15.5 61.0,-4.9 49.0,-1.8 49.0,-18.6 61.0,-15.5" />
<polygon fill="rgba(255,255,255,0.75)" stroke-width="1" stroke-dasharray="" stroke="black" points="61.0,-69.0 437.0,-69.0 437.0,-54.0 61.0,-54.0" />
<polygon fill="none" stroke-width="1" stroke-dasharray="2" stroke="gray" points="437.0,15.0 437.0,-4.9 449.0,-1.8 449.0,-18.6 437.0,-15.5 437.0,-38.5 449.0,-35.4 449.0,-35.4 449.0,-52.2 449.0,-52.2 437.0,-49.1 437.0,-69.0 61.0,-69.0 61.0,-49.1 49.0,-52.2 49.0,-52.2 49.0,-35.4 49.0,-35.4 61.0,-38.5 61.0,-15.5 49.0,-18.6 49.0,-1.8 61.0,-4.9 61.0,15.0 61.0,15.0 437.0,15.0" />
<polygon fill="rgba(255,255,255,0.75)" stroke-width="1" stroke-dasharray="" stroke="black" points="449.0,-52.2 449.0,-35.4 437.0,-38.5 437.0,-49.1 449.0,-52.2" />
<polygon fill="rgba(255,255,255,0.75)" stroke-width="1" stroke-dasharray="" stroke="black" points="449.0,-18.6 449.0,-1.8 437.0,-4.9 437.0,-15.5 449.0,-18.6" />
<polygon fill="none" stroke-width="1" stroke-dasharray="2" stroke="gray" points="52.5,-40.6 61.0,-49.1 49.0,-52.2 40.5,-43.7" />
<polygon fill="rgba(255,255,255,0.75)" stroke-width="1" stroke-dasharray="" stroke="silver" points="40.5,-26.9 49.0,-35.4 61.0,-38.5 52.5,-30.0" />
<polygon fill="none" stroke-width="1" stroke-dasharray="2" stroke="gray" points="52.5,-7.0 61.0,-15.5 49.0,-18.6 40.5,-10.1" />
<polygon fill="rgba(255,255,255,0.75)" stroke-width="1" stroke-dasharray="" stroke="silver" points="40.5,6.7 49.0,-1.8 61.0,-4.9 52.5,3.6" />
<polygon fill="none" stroke-width="1" stroke-dasharray="2" stroke="gray" points="40.5,-43.7 40.5,-26.9 49.0,-35.4 49.0,-52.2 40.5,-43.7" />
<polygon fill="none" stroke-width="1" stroke-dasharray="2" stroke="gray" points="40.5,-10.1 40.5,6.7 49.0,-1.8 49.0,-18.6 40.5,-10.1" />
<polygon fill="rgba(255,255,255,0.75)" stroke-width="1" stroke-dasharray="" stroke="black" points="49.0,-52.2 61.0,-49.1 52.5,-40.6 40.5,-43.7" />
<polygon fill="none" stroke-width="1" stroke-dasharray="2" stroke="gray" points="40.5,-26.9 52.5,-30.0 61.0,-38.5 49.0,-35.4" />
<polygon fill="rgba(255,255,255,0.75)" stroke-width="1" stroke-dasharray="" stroke="black" points="49.0,-18.6 61.0,-15.5 52.5,-7.0 40.5,-10.1" />
<polygon fill="none" stroke-width="1" stroke-dasharray="2" stroke="gray" points="40.5,6.7 52.5,3.6 61.0,-4.9 49.0,-1.8" />
<polygon fill="none" stroke-width="1" stroke-dasharray="2" stroke="gray" points="52.5,-40.6 61.0,-49.1 61.0,-69.0 52.5,-60.5 52.5,-40.6" />
<polygon fill="none" stroke-width="1" stroke-dasharray="2" stroke="gray" points="52.5,-30.0 52.5,-7.0 61.0,-15.5 61.0,-38.5 52.5,-30.0" />
<polygon fill="none" stroke-width="1" stroke-dasharray="2" stroke="gray" points="52.5,3.6 52.5,23.5 61.0,15.0 61.0,-4.9 52.5,3.6" />
<polygon fill="rgba(255,255,255,0.75)" stroke-width="1" stroke-dasharray="" stroke="black" points="428.5,-60.5 52.5,-60.5 52.5,-60.5 61.0,-69.0 437.0,-69.0 428.5,-60.5" />
<polygon fill="none" stroke-width="1" stroke-dasharray="2" stroke="gray" points="428.5,23.5 437.0,15.0 61.0,15.0 52.5,23.5 52.5,23.5 428.5,23.5" />
<polygon fill="rgba(255,255,255,0.75)" stroke-width="1" stroke-dasharray="" stroke="black" points="437.0,-49.1 428.5,-40.6 428.5,-60.5 437.0,-69.0 437.0,-49.1" />
<polygon fill="rgba(255,255,255,0.75)" stroke-width="1" stroke-dasharray="" stroke="black" points="437.0,-38.5 437.0,-15.5 428.5,-7.0 428.5,-30.0 437.0,-38.5" />
<polygon fill="rgba(255,255,255,0.75)" stroke-width="1" stroke-dasharray="" stroke="black" points="437.0,-4.9 437.0,15.0 428.5,23.5 428.5,3.6 437.0,-4.9" />
<polygon fill="rgba(255,255,255,0.75)" stroke-width="1" stroke-dasharray="" stroke="silver" points="440.5,-43.7 428.5,-40.6 437.0,-49.1 449.0,-52.2" />
<polygon fill="none" stroke-width="1" stroke-dasharray="2" stroke="gray" points="440.5,-43.7 449.0,-52.2 437.0,-49.1 428.5,-40.6" />
<polygon fill="none" stroke-width="1" stroke-dasharray="2" stroke="gray" points="449.0,-35.4 437.0,-38.5 428.5,-30.0 440.5,-26.9" />
<polygon fill="rgba(255,255,255,0.75)" stroke-width="1" stroke-dasharray="" stroke="black" points="428.5,-30.0 437.0,-38.5 449.0,-35.4 440.5,-26.9" />
<polygon fill="rgba(255,255,255,0.75)" stroke-width="1" stroke-dasharray="" stroke="silver" points="440.5,-10.1 428.5,-7.0 437.0,-15.5 449.0,-18.6" />
<polygon fill="none" stroke-width="1" stroke-dasharray="2" stroke="gray" points="440.5,-10.1 449.0,-18.6 437.0,-15.5 428.5,-7.0" />
<polygon fill="none" stroke-width="1" stroke-dasharray="2" stroke="gray" points="449.0,-1.8 437.0,-4.9 428.5,3.6 440.5,6.7" />
<polygon fill="rgba(255,255,255,0.75)" stroke-width="1" stroke-dasharray="" stroke="black" points="428.5,3.6 437.0,-4.9 449.0,-1.8 440.5,6.7" />
<polygon fill="rgba(255,255,255,0.75)" stroke-width="1" stroke-dasharray="" stroke="black" points="449.0,-52.2 449.0,-35.4 440.5,-26.9 440.5,-43.7 449.0,-52.2" />
<polygon fill="rgba(255,255,255,0.75)" stroke-width="1" stroke-dasharray="" stroke="black" points="449.0,-18.6 449.0,-1.8 440.5,6.7 440.5,-10.1 449.0,-18.6" />
<polygon fill="rgba(255,255,255,0.75)" stroke-width="1" stroke-dasharray="" stroke="black" points="40.5,37.0 40.5,53.2 28.5,56.3 28.5,33.9 40.5,37.0" />
<polygon fill="rgba(255,255,255,0.75)" stroke-width="1" stroke-dasharray="" stroke="black" points="40.5,81.8 40.5,98.0 28.5,101.1 28.5,78.7 40.5,81.8" />
<polygon fill="rgba(255,255,255,0.75)" stroke-width="1" stroke-dasharray="" stroke="black" points="52.5,-40.6 40.5,-43.7 40.5,-60.5 52.5,-60.5 52.5,-40.6" />
<polygon fill="rgba(255,255,255,0.75)" stroke-width="1" stroke-dasharray="" stroke="black" points="52.5,-30.0 52.5,-7.0 40.5,-10.1 40.5,-26.9 52.5,-30.0" />
<polygon fill="rgba(255,255,255,0.75)" stroke-width="1" stroke-dasharray="" stroke="black" points="52.5,3.6 52.5,23.5 40.5,23.5 40.5,6.7 52.5,3.6" />
<polygon fill="rgba(255,255,255,0.75)" stroke-width="1" stroke-dasharray="" stroke="black" points="40.5,-72.5 70.5,-72.5 70.5,-60.5 40.5,-60.5" />
<polygon fill="rgba(255,255,255,0.75)" stroke-width="1" stroke-dasharray="" stroke="black" points="70.5,-72.5 100.5,-72.5 100.5,-60.5 70.5,-60.5" />
<polygon fill="rgba(255,255,255,0.75)" stroke-width="1" stroke-dasharray="" stroke="black" points="440.5,6.7 428.5,3.6 428.5,23.5 52.5,23.5 52.5,3.6 40.5,6.7 40.5,6.7 40.5,-10.1 40.5,-10.1 52.5,-7.0 52.5,-30.0 40.5,-26.9 40.5,-43.7 52.5,-40.6 52.5,-60.5 52.5,-60.5 428.5,-60.5 428.5,-60.5 428.5,-40.6 440.5,-43.7 440.5,-26.9 428.5,-30.0 428.5,-7.0 440.5,-10.1 440.5,-10.1 440.5,6.7" />
<polygon fill="rgba(255,255,255,0.75)" stroke-width="1" stroke-dasharray="" stroke="black" points="40.5,23.5 440.5,23.5 440.5,26.5 40.5,26.5" />
<polygon fill="none" stroke-width="1" stroke-dasharray="2" stroke="gray" points="440.5,111.5 440.5,98.0 452.5,101.1 452.5,78.7 440.5,81.8 440.5,53.2 452.5,56.3 452.5,56.3 452.5,33.9 452.5,33.9 440.5,37.0 440.5,11.5 40.5,11.5 40.5,37.0 28.5,33.9 28.5,33.9 28.5,56.3 28.5,56.3 40.5,53.2 40.5,81.8 28.5,78.7 28.5,101.1 40.5,98.0 40.5,111.5 40.5,111.5 440.5,111.5" />
<polygon fill="rgba(255,255,255,0.75)" stroke-width="1" stroke-dasharray="" stroke="black" points="365.5,-72.5 395.5,-72.5 395.5,-60.5 365.5,-60.5" />
<polygon fill="rgba(255,255,255,0.75)" stroke-width="1" stroke-dasharray="" stroke="black" points="395.5,-75.5 410.5,-75.5 410.5,-60.5 395.5,-60.5" />
<polygon fill="rgba(255,255,255,0.75)" stroke-width="1" stroke-dasharray="" stroke="black" points="410.5,-72.5 440.5,-72.5 440.5,-60.5 410.5,-60.5" />
<polygon fill="rgba(255,255,255,0.75)" stroke-width="1" stroke-dasharray="" stroke="black" points="440.5,-43.7 428.5,-40.6 428.5,-60.5 440.5,-60.5 440.5,-43.7" />
<polygon fill="rgba(255,255,255,0.75)" stroke-width="1" stroke-dasharray="" stroke="black" points="440.5,-26.9 440.5,-10.1 428.5,-7.0 428.5,-30.0 440.5,-26.9" />
<polygon fill="rgba(255,255,255,0.75)" stroke-width="1" stroke-dasharray="" stroke="black" points="440.5,6.7 440.5,23.5 428.5,23.5 428.5,3.6 440.5,6.7" />
<polygon fill="rgba(255,255,255,0.75)" stroke-width="1" stroke-dasharray="" stroke="black" points="452.5,33.9 452.5,56.3 440.5,53.2 440.5,37.0 452.5,33.9" />
<polygon fill="rgba(255,255,255,0.75)" stroke-width="1" stroke-dasharray="" stroke="black" points="452.5,78.7 452.5,101.1 440.5,98.0 440.5,81.8 452.5,78.7" />
<polygon fill="none" stroke-width="1" stroke-dasharray="2" stroke="gray" points="436.9,115.1 440.5,111.5 40.5,111.5 37.0,115.1 37.0,115.1 436.9,115.1" />
<polygon fill="rgba(255,255,255,0.75)" stroke-width="1" stroke-dasharray="" stroke="black" points="436.9,120.1 37.0,120.1 37.0,120.1 40.5,116.5 440.5,116.5 436.9,120.1" />
<polygon fill="none" stroke-width="1" stroke-dasharray="2" stroke="gray" points="32.0,45.5 40.5,37.0 28.5,33.9 20.0,42.4" />
<polygon fill="rgba(255,255,255,0.75)" stroke-width="1" stroke-dasharray="" stroke="silver" points="20.0,64.8 28.5,56.3 40.5,53.2 32.0,61.7" />
<polygon fill="none" stroke-width="1" stroke-dasharray="2" stroke="gray" points="32.0,90.3 40.5,81.8 28.5,78.7 20.0,87.2" />
<polygon fill="rgba(255,255,255,0.75)" stroke-width="1" stroke-dasharray="" stroke="silver" points="20.0,109.6 28.5,101.1 40.5,98.0 32.0,106.5" />
<polygon fill="none" stroke-width="1" stroke-dasharray="2" stroke="gray" points="20.0,42.4 20.0,64.8 28.5,56.3 28.5,33.9 20.0,42.4" />
<polygon fill="none" stroke-width="1" stroke-dasharray="2" stroke="gray" points="20.0,87.2 20.0,109.6 28.5,101.1 28.5,78.7 20.0,87.2" />
<polygon fill="rgba(255,255,255,0.75)" stroke-width="1" stroke-dasharray="" stroke="black" points="28.5,33.9 40.5,37.0 32.0,45.5 20.0,42.4" />
<polygon fill="none" stroke-width="1" stroke-dasharray="2" stroke="gray" points="20.0,64.8 32.0,61.7 40.5,53.2 28.5,56.3" />
<polygon fill="rgba(255,255,255,0.75)" stroke-width="1" stroke-dasharray="" stroke="black" points="28.5,78.7 40.5,81.8 32.0,90.3 20.0,87.2" />
<polygon fill="none" stroke-width="1" stroke-dasharray="2" stroke="gray" points="20.0,109.6 32.0,106.5 40.5,98.0 28.5,101.1" />
<polygon fill="none" stroke-width="1" stroke-dasharray="2" stroke="gray" points="32.0,45.5 40.5,37.0 40.5,11.5 32.0,20.0 32.0,45.5" />
<polygon fill="none" stroke-width="1" stroke-dasharray="2" stroke="gray" points="32.0,61.7 32.0,90.3 40.5,81.8 40.5,53.2 32.0,61.7" />
<polygon fill="none" stroke-width="1" stroke-dasharray="2" stroke="gray" points="32.0,106.5 32.0,132.0 40.5,123.5 40.5,116.5 36.9,120.1 36.9,115.1 40.5,111.5 40.5,98.0 32.0,106.5" />
<polygon fill="rgba(255,255,255,0.75)" stroke-width="1" stroke-dasharray="" stroke="black" points="432.0,20.0 32.0,20.0 32.0,20.0 40.5,11.5 440.5,11.5 432.0,20.0" />
<polygon fill="none" stroke-width="1" stroke-dasharray="2" stroke="gray" points="432.0,132.0 440.5,123.5 40.5,123.5 32.0,132.0 32.0,132.0 432.0,132.0" />
<polygon fill="rgba(255,255,255,0.75)" stroke-width="1" stroke-dasharray="" stroke="black" points="440.5,37.0 432.0,45.5 432.0,20.0 440.5,11.5 440.5,37.0" />
<polygon fill="rgba(255,255,255,0.75)" stroke-width="1" stroke-dasharray="" stroke="black" points="440.5,53.2 440.5,81.8 432.0,90.3 432.0,61.7 440.5,53.2" />
<polygon fill="rgba(255,255,255,0.75)" stroke-width="1" stroke-dasharray="" stroke="black" points="440.5,98.0 440.5,111.5 436.9,115.1 436.9,120.1 440.5,116.5 440.5,123.5 432.0,132.0 432.0,106.5 440.5,98.0" />
<polygon fill="rgba(255,255,255,0.75)" stroke-width="1" stroke-dasharray="" stroke="silver" points="444.0,42.4 432.0,45.5 440.5,37.0 452.5,33.9" />
<polygon fill="none" stroke-width="1" stroke-dasharray="2" stroke="gray" points="444.0,42.4 452.5,33.9 440.5,37.0 432.0,45.5" />
<polygon fill="none" stroke-width="1" stroke-dasharray="2" stroke="gray" points="452.5,56.3 440.5,53.2 432.0,61.7 444.0,64.8" />
<polygon fill="rgba(255,255,255,0.75)" stroke-width="1" stroke-dasharray="" stroke="black" points="432.0,61.7 440.5,53.2 452.5,56.3 444.0,64.8" />
<polygon fill="rgba(255,255,255,0.75)" stroke-width="1" stroke-dasharray="" stroke="silver" points="444.0,87.2 432.0,90.3 440.5,81.8 452.5,78.7" />
<polygon fill="none" stroke-width="1" stroke-dasharray="2" stroke="gray" points="444.0,87.2 452.5,78.7 440.5,81.8 432.0,90.3" />
<polygon fill="none" stroke-width="1" stroke-dasharray="2" stroke="gray" points="452.5,101.1 440.5,98.0 432.0,106.5 444.0,109.6" />
<polygon fill="rgba(255,255,255,0.75)" stroke-width="1" stroke-dasharray="" stroke="black" points="432.0,106.5 440.5,98.0 452.5,101.1 444.0,109.6" />
<polygon fill="rgba(255,255,255,0.75)" stroke-width="1" stroke-dasharray="" stroke="black" points="452.5,33.9 452.5,56.3 444.0,64.8 444.0,42.4 452.5,33.9" />
<polygon fill="rgba(255,255,255,0.75)" stroke-width="1" stroke-dasharray="" stroke="black" points="452.5,78.7 452.5,101.1 444.0,109.6 444.0,87.2 452.5,78.7" />
<polygon fill="rgba(255,255,255,0.75)" stroke-width="1" stroke-dasharray="" stroke="black" points="32.0,45.5 20.0,42.4 20.0,20.0 32.0,20.0 32.0,45.5" />
<polygon fill="rgba(255,255,255,0.75)" stroke-width="1" stroke-dasharray="" stroke="black" points="32.0,61.7 32.0,90.3 20.0,87.2 20.0,64.8 32.0,61.7" />
<polygon fill="rgba(255,255,255,0.75)" stroke-width="1" stroke-dasharray="" stroke="black" points="32.0,106.5 32.0,120.0 27.0,120.0 27.0,125.0 32.0,125.0 32.0,132.0 20.0,132.0 20.0,109.6 32.0,106.5" />
<polygon fill="rgba(255,255,255,0.75)" stroke-width="1" stroke-dasharray="" stroke="black" points="444.0,42.4 432.0,45.5 432.0,20.0 444.0,20.0 444.0,42.4" />
<polygon fill="rgba(255,255,255,0.75)" stroke-width="1" stroke-dasharray="" stroke="black" points="444.0,64.8 444.0,87.2 432.0,90.3 432.0,61.7 444.0,64.8" />
<polygon fill="rgba(255,255,255,0.75)" stroke-width="1" stroke-dasharray="" stroke="black" points="444.0,109.6 444.0,132.0 432.0,132.0 432.0,125.0 437.0,125.0 437.0,120.0 432.0,120.0 432.0,106.5 444.0,109.6" />
<polygon fill="rgba(255,255,255,0.75)" stroke-width="1" stroke-dasharray="" stroke="black" points="444.0,109.6 432.0,106.5 432.0,132.0 32.0,132.0 32.0,106.5 20.0,109.6 20.0,109.6 20.0,87.2 20.0,87.2 32.0,90.3 32.0,61.7 20.0,64.8 20.0,42.4 32.0,45.5 32.0,20.0 32.0,20.0 432.0,20.0 432.0,20.0 432.0,45.5 444.0,42.4 444.0,64.8 432.0,61.7 432.0,90.3 444.0,87.2 444.0,87.2 444.0,109.6" />
<polygon fill="rgba(255,255,255,0.75)" stroke-width="1" stroke-dasharray="" stroke="black" points="20.0,120.0 444.0,120.0 444.0,135.0 20.0,135.0" />
</svg>
