<svg width="1100" viewBox="0.0 0.0 550.0 336.6" xmlns="http://www.w3.org/2000/svg">
<polygon fill="none" stroke-width="1" stroke-dasharray="2" stroke="gray" points="180.1,217.6 195.1,221.5 195.1,205.6 189.3,205.6 189.3,192.6 195.1,192.6 195.1,187.6 180.1,187.6 180.1,217.6" />
<polygon fill="none" stroke-width="1" stroke-dasharray="2" stroke="gray" points="180.1,233.9 180.1,248.9 195.1,252.8 195.1,230.0 180.1,233.9" />
<polygon fill="none" stroke-width="1" stroke-dasharray="2" stroke="gray" points="180.1,265.2 180.1,280.3 195.1,284.1 195.1,261.4 180.1,265.2" />
<polygon fill="none" stroke-width="1" stroke-dasharray="2" stroke="gray" points="180.1,296.6 180.1,326.6 195.1,326.6 195.1,321.6 189.3,321.6 189.3,308.6 195.1,308.6 195.1,292.7 180.1,296.6" />
<polygon fill="none" stroke-width="1" stroke-dasharray="2" stroke="gray" points="325.1,296.6 310.0,296.6 310.0,280.2 325.1,280.2 325.1,265.3 310.0,265.3 310.0,248.9 325.1,248.9 325.1,248.9 325.1,233.9 325.1,233.9 310.0,233.9 310.0,217.6 325.1,217.6 325.1,187.6 195.1,187.6 195.1,187.6 195.1,221.5 180.1,217.6 180.1,233.9 195.1,230.0 195.1,252.8 180.1,248.9 180.1,248.9 180.1,265.2 180.1,265.2 195.1,261.4 195.1,284.1 180.1,280.3 180.1,296.6 195.1,292.7 195.1,326.6 195.1,326.6 325.1,326.6 325.1,296.6" />
<polygon fill="none" stroke-width="1" stroke-dasharray="2" stroke="gray" points="310.1,217.6 310.1,233.9 325.1,233.9 325.1,217.6 310.1,217.6" />
<polygon fill="none" stroke-width="1" stroke-dasharray="2" stroke="gray" points="310.1,248.9 310.1,265.3 325.1,265.3 325.1,248.9 310.1,248.9" />
<polygon fill="none" stroke-width="1" stroke-dasharray="2" stroke="gray" points="310.1,280.2 310.1,296.6 325.1,296.6 325.1,280.2 310.1,280.2" />
<polygon fill="rgba(192,192,192,0.75)" stroke-width="1" stroke-dasharray="" stroke="silver" points="180.1,217.6 163.4,208.4 178.4,212.3 195.1,221.5" />
<polygon fill="none" stroke-width="1" stroke-dasharray="2" stroke="gray" points="195.1,230.0 178.4,220.8 163.4,224.7 180.1,233.9" />
<polygon fill="rgba(192,192,192,0.75)" stroke-width="1" stroke-dasharray="" stroke="silver" points="180.1,248.9 163.4,239.7 178.4,243.6 195.1,252.8" />
<polygon fill="none" stroke-width="1" stroke-dasharray="2" stroke="gray" points="195.1,261.4 178.4,252.2 163.4,256.1 180.1,265.2" />
<polygon fill="rgba(192,192,192,0.75)" stroke-width="1" stroke-dasharray="" stroke="silver" points="180.1,280.2 163.4,271.1 178.4,274.9 195.1,284.1" />
<polygon fill="none" stroke-width="1" stroke-dasharray="2" stroke="gray" points="195.1,292.7 178.4,283.5 163.4,287.4 180.1,296.6" />
<polygon fill="none" stroke-width="1" stroke-dasharray="2" stroke="gray" points="163.4,208.4 163.4,224.7 180.1,233.9 180.1,217.6 163.4,208.4" />
<polygon fill="none" stroke-width="1" stroke-dasharray="2" stroke="gray" points="163.4,239.7 163.4,256.1 180.1,265.3 180.1,248.9 163.4,239.7" />
<polygon fill="none" stroke-width="1" stroke-dasharray="2" stroke="gray" points="163.4,271.0 163.4,287.4 180.1,296.6 180.1,280.2 163.4,271.0" />
<polygon fill="none" stroke-width="1" stroke-dasharray="2" stroke="gray" points="180.1,217.6 195.1,221.5 178.4,212.3 163.4,208.4" />
<polygon fill="rgba(255,255,255,0.75)" stroke-width="1" stroke-dasharray="" stroke="black" points="163.4,224.7 178.4,220.8 195.1,230.0 180.1,233.9" />
<polygon fill="none" stroke-width="1" stroke-dasharray="2" stroke="gray" points="180.1,248.9 195.1,252.8 178.4,243.6 163.4,239.7" />
<polygon fill="rgba(255,255,255,0.75)" stroke-width="1" stroke-dasharray="" stroke="black" points="163.4,256.1 178.4,252.2 195.1,261.4 180.1,265.2" />
<polygon fill="none" stroke-width="1" stroke-dasharray="2" stroke="gray" points="180.1,280.2 195.1,284.1 178.4,274.9 163.4,271.1" />
<polygon fill="rgba(255,255,255,0.75)" stroke-width="1" stroke-dasharray="" stroke="black" points="163.4,287.4 178.4,283.5 195.1,292.7 180.1,296.6" />
<polygon fill="none" stroke-width="1" stroke-dasharray="2" stroke="gray" points="178.4,212.3 195.1,221.5 195.1,187.6 178.4,178.4 178.4,183.4 184.8,186.9 184.8,199.9 178.4,196.4 178.4,212.3" />
<polygon fill="none" stroke-width="1" stroke-dasharray="2" stroke="gray" points="178.4,220.8 178.4,243.6 195.1,252.8 195.1,230.0 178.4,220.8" />
<polygon fill="none" stroke-width="1" stroke-dasharray="2" stroke="gray" points="178.4,252.2 178.4,275.0 195.1,284.1 195.1,261.4 178.4,252.2" />
<polygon fill="none" stroke-width="1" stroke-dasharray="2" stroke="gray" points="178.4,283.5 178.4,299.4 184.8,302.9 184.8,315.9 178.4,312.4 178.4,317.4 195.1,326.6 195.1,292.7 178.4,283.5" />
<polygon fill="none" stroke-width="1" stroke-dasharray="2" stroke="gray" points="195.1,187.6 325.1,187.6 323.4,178.4 178.4,178.4 195.1,187.6" />
<polygon fill="rgba(192,192,192,0.75)" stroke-width="1" stroke-dasharray="" stroke="black" points="195.1,326.6 178.4,317.4 323.4,317.4 325.1,326.6 195.1,326.6" />
<polygon fill="rgba(255,255,255,0.75)" stroke-width="1" stroke-dasharray="" stroke="silver" points="310.1,217.6 310.1,233.9 308.4,220.8 308.4,212.3 310.1,217.6" />
<polygon fill="rgba(255,255,255,0.75)" stroke-width="1" stroke-dasharray="" stroke="silver" points="310.1,248.9 310.1,265.3 308.4,252.2 308.4,243.6 310.1,248.9" />
<polygon fill="rgba(255,255,255,0.75)" stroke-width="1" stroke-dasharray="" stroke="silver" points="310.1,280.2 310.1,296.6 308.4,283.5 308.4,274.9 310.1,280.2" />
<polygon fill="none" stroke-width="1" stroke-dasharray="2" stroke="gray" points="325.1,217.6 323.4,212.3 308.4,212.3 310.1,217.6" />
<polygon fill="rgba(255,255,255,0.75)" stroke-width="1" stroke-dasharray="" stroke="black" points="310.1,233.9 308.4,220.8 323.4,220.8 325.1,233.9" />
<polygon fill="none" stroke-width="1" stroke-dasharray="2" stroke="gray" points="325.1,248.9 323.4,243.6 308.4,243.6 310.1,248.9" />
<polygon fill="rgba(255,255,255,0.75)" stroke-width="1" stroke-dasharray="" stroke="black" points="310.1,265.2 308.4,252.2 323.4,252.2 325.1,265.2" />
<polygon fill="none" stroke-width="1" stroke-dasharray="2" stroke="gray" points="325.1,280.2 323.4,274.9 308.4,274.9 310.1,280.2" />
<polygon fill="rgba(255,255,255,0.75)" stroke-width="1" stroke-dasharray="" stroke="black" points="310.1,296.6 308.4,283.5 323.4,283.5 325.1,296.6" />
<polygon fill="rgba(192,192,192,0.75)" stroke-width="1" stroke-dasharray="" stroke="silver" points="325.1,217.6 310.1,217.6 308.4,212.3 323.4,212.3" />
<polygon fill="none" stroke-width="1" stroke-dasharray="2" stroke="gray" points="323.4,220.8 308.4,220.8 310.1,233.9 325.1,233.9" />
<polygon fill="rgba(192,192,192,0.75)" stroke-width="1" stroke-dasharray="" stroke="silver" points="325.1,248.9 310.1,248.9 308.4,243.6 323.4,243.6" />
<polygon fill="none" stroke-width="1" stroke-dasharray="2" stroke="gray" points="323.4,252.2 308.4,252.2 310.1,265.2 325.1,265.2" />
<polygon fill="rgba(192,192,192,0.75)" stroke-width="1" stroke-dasharray="" stroke="silver" points="325.1,280.2 310.1,280.2 308.4,274.9 323.4,274.9" />
<polygon fill="none" stroke-width="1" stroke-dasharray="2" stroke="gray" points="323.4,283.5 308.4,283.5 310.1,296.6 325.1,296.6" />
<polygon fill="rgba(255,255,255,0.75)" stroke-width="1" stroke-dasharray="" stroke="silver" points="325.1,217.6 323.4,212.3 323.4,196.4 324.0,199.9 324.0,186.9 323.4,183.4 323.4,178.4 325.1,187.6 325.1,217.6" />
<polygon fill="rgba(255,255,255,0.75)" stroke-width="1" stroke-dasharray="" stroke="silver" points="325.1,233.9 325.1,248.9 323.4,243.6 323.4,220.8 325.1,233.9" />
<polygon fill="rgba(255,255,255,0.75)" stroke-width="1" stroke-dasharray="" stroke="silver" points="325.1,265.2 325.1,280.3 323.4,274.9 323.4,252.2 325.1,265.2" />
<polygon fill="rgba(255,255,255,0.75)" stroke-width="1" stroke-dasharray="" stroke="silver" points="325.1,296.6 325.1,326.6 323.4,317.4 323.4,312.4 324.0,315.9 324.0,302.9 323.4,299.4 323.4,283.5 325.1,296.6" />
<polygon fill="rgba(192,192,192,0.75)" stroke-width="1" stroke-dasharray="" stroke="black" points="184.8,186.9 178.4,183.4 323.4,183.4 324.0,186.9 184.8,186.9" />
<polygon fill="none" stroke-width="1" stroke-dasharray="2" stroke="gray" points="184.8,199.9 324.0,199.9 323.4,196.4 178.4,196.4 184.8,199.9" />
<polygon fill="rgba(192,192,192,0.75)" stroke-width="1" stroke-dasharray="" stroke="black" points="184.8,302.9 178.4,299.4 323.4,299.4 324.0,302.9 184.8,302.9" />
<polygon fill="none" stroke-width="1" stroke-dasharray="2" stroke="gray" points="184.8,315.9 324.0,315.9 323.4,312.4 178.4,312.4 184.8,315.9" />
<polygon fill="none" stroke-width="1" stroke-dasharray="2" stroke="gray" points="163.4,208.4 163.4,224.7 178.4,220.8 178.4,212.3 163.4,208.4" />
<polygon fill="none" stroke-width="1" stroke-dasharray="2" stroke="gray" points="163.4,239.7 163.4,256.1 178.4,252.2 178.4,243.6 163.4,239.7" />
<polygon fill="none" stroke-width="1" stroke-dasharray="2" stroke="gray" points="163.4,271.0 163.4,287.4 178.4,283.5 178.4,274.9 163.4,271.0" />
<polygon fill="rgba(255,255,255,0.75)" stroke-width="1" stroke-dasharray="" stroke="black" points="323.4,274.9 308.4,274.9 308.4,283.5 323.4,283.5 323.4,299.4 178.4,299.4 178.4,283.5 163.4,287.4 163.4,287.4 163.4,271.1 163.4,271.1 178.4,275.0 178.4,252.2 163.4,256.0 163.4,239.7 178.4,243.6 178.4,220.8 163.4,224.7 163.4,224.7 163.4,208.4 163.4,208.4 178.4,212.3 178.4,196.4 323.4,196.4 323.4,212.3 323.4,212.3 308.4,212.3 308.4,220.8 323.4,220.8 323.4,243.6 308.4,243.6 308.4,252.2 323.4,252.2 323.4,252.2 323.4,274.9" />
<polygon fill="none" stroke-width="1" stroke-dasharray="2" stroke="gray" points="308.4,212.3 323.4,212.3 323.4,178.4 308.4,178.4 308.4,183.4 314.1,183.4 314.1,196.4 308.4,196.4 308.4,212.3" />
<polygon fill="none" stroke-width="1" stroke-dasharray="2" stroke="gray" points="308.4,220.8 308.4,243.6 323.4,243.6 323.4,220.8 308.4,220.8" />
<polygon fill="none" stroke-width="1" stroke-dasharray="2" stroke="gray" points="308.4,252.2 308.4,275.0 323.4,275.0 323.4,252.2 308.4,252.2" />
<polygon fill="none" stroke-width="1" stroke-dasharray="2" stroke="gray" points="308.4,283.5 308.4,299.4 314.1,299.4 314.1,312.4 308.4,312.4 308.4,317.4 323.4,317.4 323.4,283.5 308.4,283.5" />
<polygon fill="rgba(255,255,255,0.75)" stroke-width="1" stroke-dasharray="" stroke="silver" points="308.8,207.8 310.5,217.0 310.5,200.6 308.8,191.5 308.8,176.5 310.5,185.7 310.5,169.3 308.8,160.1 308.8,160.1 308.8,145.1 308.8,145.1 310.5,154.3 310.5,138.0 308.8,128.8 308.8,98.8 323.4,178.4 323.4,178.4 323.4,212.3 325.1,217.6 325.1,233.9 323.4,220.8 323.4,243.6 325.1,248.9 325.1,248.9 325.1,265.2 325.1,265.2 323.4,252.2 323.4,274.9 325.1,280.3 325.1,296.6 323.4,283.5 323.4,317.4 323.4,317.4 308.8,237.8 308.8,207.8" />
<polygon fill="none" stroke-width="1" stroke-dasharray="2" stroke="gray" points="35.5,108.0 180.1,187.6 195.1,187.6 33.8,98.8 35.5,108.0" />
<polygon fill="rgba(192,192,192,0.75)" stroke-width="1" stroke-dasharray="" stroke="black" points="35.5,247.0 33.8,237.8 195.1,326.6 180.1,326.6 35.5,247.0" />
<polygon fill="rgba(192,192,192,0.75)" stroke-width="1" stroke-dasharray="" stroke="black" points="34.5,107.3 33.8,103.8 195.1,192.6 189.3,192.6 34.5,107.3" />
<polygon fill="none" stroke-width="1" stroke-dasharray="2" stroke="gray" points="34.5,120.3 189.3,205.6 195.1,205.6 33.8,116.8 34.5,120.3" />
<polygon fill="rgba(192,192,192,0.75)" stroke-width="1" stroke-dasharray="" stroke="black" points="34.5,223.3 33.8,219.8 195.1,308.6 189.3,308.6 34.5,223.3" />
<polygon fill="none" stroke-width="1" stroke-dasharray="2" stroke="gray" points="34.5,236.3 189.3,321.6 195.1,321.6 33.8,232.8 34.5,236.3" />
<polygon fill="none" stroke-width="1" stroke-dasharray="2" stroke="gray" points="180.1,296.6 163.4,287.4 163.4,271.0 180.1,280.2 180.1,265.3 163.4,256.1 163.4,239.7 180.1,248.9 180.1,248.9 180.1,233.9 180.1,233.9 163.4,224.7 163.4,208.4 180.1,217.6 180.1,187.6 35.5,108.0 35.5,108.0 35.5,141.9 18.8,128.8 18.8,145.1 35.5,150.4 35.5,173.2 18.8,160.1 18.8,160.1 18.8,176.4 18.8,176.4 35.5,181.8 35.5,204.5 18.8,191.5 18.8,207.8 35.5,213.1 35.5,247.0 35.5,247.0 180.1,326.6 180.1,296.6" />
<polygon fill="none" stroke-width="1" stroke-dasharray="2" stroke="gray" points="292.1,186.1 293.8,195.3 293.8,203.9 292.1,194.7 292.1,210.6 308.4,299.4 308.4,283.5 310.1,296.6 310.1,296.6 310.1,280.3 310.1,280.3 308.4,274.9 308.4,252.2 310.1,265.2 310.1,248.9 308.4,243.6 308.4,220.8 310.1,233.9 310.1,233.9 310.1,217.6 310.1,217.6 308.4,212.3 308.4,196.4 292.1,107.6 292.1,123.5 292.1,123.5 293.8,132.7 293.8,141.3 292.1,132.1 292.1,154.8 293.8,164.0 293.8,172.6 292.1,163.4 292.1,163.4 292.1,186.1" />
<polygon fill="rgba(255,255,255,0.75)" stroke-width="1" stroke-dasharray="" stroke="black" points="195.1,284.1 178.4,274.9 178.4,283.5 195.1,292.7 195.1,308.6 33.8,219.8 33.8,203.9 17.1,198.6 17.1,198.6 17.1,182.3 17.1,182.3 33.8,195.4 33.8,172.6 17.1,167.2 17.1,150.9 33.8,164.0 33.8,141.2 17.1,135.9 17.1,135.9 17.1,119.6 17.1,119.6 33.8,132.7 33.8,116.8 195.1,205.6 195.1,221.5 195.1,221.5 178.4,212.3 178.4,220.8 195.1,230.0 195.1,252.8 178.4,243.6 178.4,252.2 195.1,261.4 195.1,261.4 195.1,284.1" />
<polygon fill="rgba(192,192,192,0.75)" stroke-width="1" stroke-dasharray="" stroke="black" points="314.1,183.4 308.4,183.4 292.1,94.6 298.5,98.1 314.1,183.4" />
<polygon fill="none" stroke-width="1" stroke-dasharray="2" stroke="gray" points="314.1,196.4 298.5,111.1 292.1,107.6 308.4,196.4 314.1,196.4" />
<polygon fill="rgba(192,192,192,0.75)" stroke-width="1" stroke-dasharray="" stroke="black" points="314.1,299.4 308.4,299.4 292.1,210.6 298.5,214.1 314.1,299.4" />
<polygon fill="none" stroke-width="1" stroke-dasharray="2" stroke="gray" points="314.1,312.4 298.5,227.1 292.1,223.6 308.4,312.4 314.1,312.4" />
<polygon fill="none" stroke-width="1" stroke-dasharray="2" stroke="gray" points="323.4,178.4 308.8,98.8 292.1,89.6 308.4,178.4 323.4,178.4" />
<polygon fill="rgba(192,192,192,0.75)" stroke-width="1" stroke-dasharray="" stroke="black" points="323.4,317.4 308.4,317.4 292.1,228.6 308.8,237.8 323.4,317.4" />
<polygon fill="rgba(255,255,255,0.75)" stroke-width="1" stroke-dasharray="" stroke="black" points="310.5,138.0 310.5,154.3 293.8,141.3 293.8,132.7 310.5,138.0" />
<polygon fill="rgba(255,255,255,0.75)" stroke-width="1" stroke-dasharray="" stroke="black" points="310.5,169.3 310.5,185.7 293.8,172.6 293.8,164.0 310.5,169.3" />
<polygon fill="rgba(255,255,255,0.75)" stroke-width="1" stroke-dasharray="" stroke="black" points="310.5,200.6 310.5,217.0 293.8,203.9 293.8,195.3 310.5,200.6" />
<polygon fill="rgba(255,255,255,0.75)" stroke-width="1" stroke-dasharray="" stroke="silver" points="310.5,138.0 310.5,154.3 308.8,145.1 308.8,128.8 310.5,138.0" />
<polygon fill="rgba(255,255,255,0.75)" stroke-width="1" stroke-dasharray="" stroke="silver" points="310.5,169.3 310.5,185.7 308.8,176.5 308.8,160.1 310.5,169.3" />
<polygon fill="rgba(255,255,255,0.75)" stroke-width="1" stroke-dasharray="" stroke="silver" points="310.5,200.6 310.5,217.0 308.8,207.8 308.8,191.5 310.5,200.6" />
<polygon fill="none" stroke-width="1" stroke-dasharray="2" stroke="gray" points="18.8,128.8 35.5,141.9 35.5,126.0 29.1,122.4 29.1,109.4 35.5,113.0 35.5,108.0 18.8,98.8 18.8,128.8" />
<polygon fill="none" stroke-width="1" stroke-dasharray="2" stroke="gray" points="18.8,145.1 18.8,160.1 35.5,173.2 35.5,150.4 18.8,145.1" />
<polygon fill="none" stroke-width="1" stroke-dasharray="2" stroke="gray" points="18.8,176.4 18.8,191.5 35.5,204.5 35.5,181.8 18.8,176.4" />
<polygon fill="none" stroke-width="1" stroke-dasharray="2" stroke="gray" points="18.8,207.8 18.8,237.8 35.5,247.0 35.5,242.0 29.1,238.4 29.1,225.4 35.5,229.0 35.5,213.1 18.8,207.8" />
<polygon fill="none" stroke-width="1" stroke-dasharray="2" stroke="gray" points="33.8,132.7 35.5,141.9 35.5,108.0 33.8,98.8 33.8,103.8 34.4,107.3 34.4,120.3 33.8,116.8 33.8,132.7" />
<polygon fill="none" stroke-width="1" stroke-dasharray="2" stroke="gray" points="33.8,141.2 33.8,164.0 35.5,173.2 35.5,150.4 33.8,141.2" />
<polygon fill="none" stroke-width="1" stroke-dasharray="2" stroke="gray" points="33.8,172.6 33.8,195.3 35.5,204.5 35.5,181.8 33.8,172.6" />
<polygon fill="none" stroke-width="1" stroke-dasharray="2" stroke="gray" points="33.8,203.9 33.8,219.8 34.4,223.3 34.4,236.3 33.8,232.8 33.8,237.8 35.5,247.0 35.5,213.1 33.8,203.9" />
<polygon fill="none" stroke-width="1" stroke-dasharray="2" stroke="gray" points="308.8,128.8 292.1,123.5 293.8,132.7 310.5,138.0" />
<polygon fill="rgba(192,192,192,0.75)" stroke-width="1" stroke-dasharray="" stroke="silver" points="310.5,154.3 293.8,141.2 292.1,132.0 308.8,145.1" />
<polygon fill="none" stroke-width="1" stroke-dasharray="2" stroke="gray" points="308.8,160.1 292.1,154.8 293.8,164.0 310.5,169.3" />
<polygon fill="rgba(192,192,192,0.75)" stroke-width="1" stroke-dasharray="" stroke="silver" points="310.5,185.7 293.8,172.6 292.1,163.4 308.8,176.5" />
<polygon fill="none" stroke-width="1" stroke-dasharray="2" stroke="gray" points="308.8,191.5 292.1,186.2 293.8,195.3 310.5,200.7" />
<polygon fill="rgba(192,192,192,0.75)" stroke-width="1" stroke-dasharray="" stroke="silver" points="310.5,217.0 293.8,203.9 292.1,194.7 308.8,207.8" />
<polygon fill="rgba(255,255,255,0.75)" stroke-width="1" stroke-dasharray="" stroke="black" points="308.8,128.8 310.5,138.0 293.8,132.7 292.1,123.5" />
<polygon fill="none" stroke-width="1" stroke-dasharray="2" stroke="gray" points="292.1,132.0 293.8,141.2 310.5,154.3 308.8,145.1" />
<polygon fill="rgba(255,255,255,0.75)" stroke-width="1" stroke-dasharray="" stroke="black" points="308.8,160.1 310.5,169.3 293.8,164.0 292.1,154.8" />
<polygon fill="none" stroke-width="1" stroke-dasharray="2" stroke="gray" points="292.1,163.4 293.8,172.6 310.5,185.7 308.8,176.5" />
<polygon fill="rgba(255,255,255,0.75)" stroke-width="1" stroke-dasharray="" stroke="black" points="308.8,191.5 310.5,200.7 293.8,195.3 292.1,186.2" />
<polygon fill="none" stroke-width="1" stroke-dasharray="2" stroke="gray" points="292.1,194.7 293.8,203.9 310.5,217.0 308.8,207.8" />
<polygon fill="rgba(192,192,192,0.75)" stroke-width="1" stroke-dasharray="" stroke="silver" points="18.8,128.8 17.1,119.6 33.8,132.7 35.5,141.9" />
<polygon fill="none" stroke-width="1" stroke-dasharray="2" stroke="gray" points="35.5,150.4 33.8,141.2 17.1,135.9 18.8,145.1" />
<polygon fill="rgba(192,192,192,0.75)" stroke-width="1" stroke-dasharray="" stroke="silver" points="18.8,160.1 17.1,150.9 33.8,164.0 35.5,173.2" />
<polygon fill="none" stroke-width="1" stroke-dasharray="2" stroke="gray" points="35.5,181.8 33.8,172.6 17.1,167.3 18.8,176.5" />
<polygon fill="rgba(192,192,192,0.75)" stroke-width="1" stroke-dasharray="" stroke="silver" points="18.8,191.5 17.1,182.3 33.8,195.3 35.5,204.5" />
<polygon fill="none" stroke-width="1" stroke-dasharray="2" stroke="gray" points="35.5,213.1 33.8,203.9 17.1,198.6 18.8,207.8" />
<polygon fill="none" stroke-width="1" stroke-dasharray="2" stroke="gray" points="18.8,128.8 35.5,141.9 33.8,132.7 17.1,119.6" />
<polygon fill="rgba(255,255,255,0.75)" stroke-width="1" stroke-dasharray="" stroke="black" points="17.1,135.9 33.8,141.2 35.5,150.4 18.8,145.1" />
<polygon fill="none" stroke-width="1" stroke-dasharray="2" stroke="gray" points="18.8,160.1 35.5,173.2 33.8,164.0 17.1,150.9" />
<polygon fill="rgba(255,255,255,0.75)" stroke-width="1" stroke-dasharray="" stroke="black" points="17.1,167.3 33.8,172.6 35.5,181.8 18.8,176.5" />
<polygon fill="none" stroke-width="1" stroke-dasharray="2" stroke="gray" points="18.8,191.5 35.5,204.5 33.8,195.3 17.1,182.3" />
<polygon fill="rgba(255,255,255,0.75)" stroke-width="1" stroke-dasharray="" stroke="black" points="17.1,198.6 33.8,203.9 35.5,213.1 18.8,207.8" />
<polygon fill="rgba(255,255,255,0.75)" stroke-width="1" stroke-dasharray="" stroke="silver" points="293.8,132.7 292.1,123.5 292.1,89.6 293.8,98.8 293.8,103.8 293.1,100.3 293.1,113.3 293.8,116.8 293.8,132.7" />
<polygon fill="rgba(255,255,255,0.75)" stroke-width="1" stroke-dasharray="" stroke="silver" points="293.8,141.2 293.8,164.0 292.1,154.8 292.1,132.0 293.8,141.2" />
<polygon fill="rgba(255,255,255,0.75)" stroke-width="1" stroke-dasharray="" stroke="silver" points="293.8,172.6 293.8,195.4 292.1,186.2 292.1,163.4 293.8,172.6" />
<polygon fill="rgba(255,255,255,0.75)" stroke-width="1" stroke-dasharray="" stroke="silver" points="293.8,203.9 293.8,219.8 293.1,216.3 293.1,229.3 293.8,232.8 293.8,237.8 292.1,228.6 292.1,194.7 293.8,203.9" />
<polygon fill="rgba(255,255,255,0.75)" stroke-width="1" stroke-dasharray="" stroke="black" points="308.8,128.8 292.1,123.5 292.1,107.6 298.5,111.1 298.5,98.1 292.1,94.6 292.1,89.6 308.8,98.8 308.8,128.8" />
<polygon fill="rgba(255,255,255,0.75)" stroke-width="1" stroke-dasharray="" stroke="black" points="308.8,145.1 308.8,160.1 292.1,154.8 292.1,132.0 308.8,145.1" />
<polygon fill="rgba(255,255,255,0.75)" stroke-width="1" stroke-dasharray="" stroke="black" points="308.8,176.4 308.8,191.5 292.1,186.2 292.1,163.4 308.8,176.4" />
<polygon fill="rgba(255,255,255,0.75)" stroke-width="1" stroke-dasharray="" stroke="black" points="308.8,207.8 308.8,237.8 292.1,228.6 292.1,223.6 298.5,227.1 298.5,214.1 292.1,210.6 292.1,194.7 308.8,207.8" />
<polygon fill="none" stroke-width="1" stroke-dasharray="2" stroke="gray" points="17.1,119.6 17.1,135.9 33.8,141.2 33.8,132.7 17.1,119.6" />
<polygon fill="none" stroke-width="1" stroke-dasharray="2" stroke="gray" points="17.1,150.9 17.1,167.3 33.8,172.6 33.8,164.0 17.1,150.9" />
<polygon fill="none" stroke-width="1" stroke-dasharray="2" stroke="gray" points="17.1,182.3 17.1,198.6 33.8,203.9 33.8,195.3 17.1,182.3" />
<polygon fill="none" stroke-width="1" stroke-dasharray="2" stroke="gray" points="17.1,119.6 17.1,135.9 18.8,145.1 18.8,128.8 17.1,119.6" />
<polygon fill="none" stroke-width="1" stroke-dasharray="2" stroke="gray" points="17.1,150.9 17.1,167.3 18.8,176.5 18.8,160.1 17.1,150.9" />
<polygon fill="none" stroke-width="1" stroke-dasharray="2" stroke="gray" points="17.1,182.3 17.1,198.6 18.8,207.8 18.8,191.4 17.1,182.3" />
<polygon fill="rgba(192,192,192,0.75)" stroke-width="1" stroke-dasharray="" stroke="black" points="13.4,24.2 19.2,24.2 35.5,113.0 29.1,109.4 13.4,24.2" />
<polygon fill="none" stroke-width="1" stroke-dasharray="2" stroke="gray" points="13.4,37.2 29.1,122.4 35.5,126.0 19.2,37.2 13.4,37.2" />
<polygon fill="rgba(192,192,192,0.75)" stroke-width="1" stroke-dasharray="" stroke="black" points="13.4,140.2 19.2,140.2 35.5,229.0 29.1,225.4 13.4,140.2" />
<polygon fill="none" stroke-width="1" stroke-dasharray="2" stroke="gray" points="13.4,153.2 29.1,238.4 35.5,242.0 19.2,153.2 13.4,153.2" />
<polygon fill="none" stroke-width="1" stroke-dasharray="2" stroke="gray" points="4.2,19.2 18.8,98.8 35.5,108.0 19.2,19.2 4.2,19.2" />
<polygon fill="rgba(192,192,192,0.75)" stroke-width="1" stroke-dasharray="" stroke="black" points="4.2,158.2 19.2,158.2 35.5,247.0 18.8,237.8 4.2,158.2" />
<polygon fill="none" stroke-width="1" stroke-dasharray="2" stroke="gray" points="132.5,106.5 149.2,115.7 149.2,124.3 132.5,115.1 132.5,131.0 293.8,219.8 293.8,203.9 310.5,217.0 310.5,217.0 310.5,200.7 310.5,200.7 293.8,195.3 293.8,172.6 310.5,185.6 310.5,169.3 293.8,164.0 293.8,141.2 310.5,154.3 310.5,154.3 310.5,138.0 310.5,138.0 293.8,132.7 293.8,116.8 132.5,28.0 132.5,43.9 132.5,43.9 149.2,53.1 149.2,61.7 132.5,52.5 132.5,75.2 149.2,84.4 149.2,93.0 132.5,83.8 132.5,83.8 132.5,106.5" />
<polygon fill="rgba(255,255,255,0.75)" stroke-width="1" stroke-dasharray="" stroke="silver" points="35.5,204.5 33.8,195.3 33.8,203.9 35.5,213.1 35.5,229.0 19.2,140.2 19.2,124.3 17.5,119.0 17.5,119.0 17.5,102.7 17.5,102.7 19.2,115.8 19.2,93.0 17.5,87.7 17.5,71.3 19.2,84.4 19.2,61.6 17.5,56.3 17.5,56.3 17.5,40.0 17.5,40.0 19.2,53.1 19.2,37.2 35.5,126.0 35.5,141.9 35.5,141.9 33.8,132.7 33.8,141.2 35.5,150.4 35.5,173.2 33.8,164.0 33.8,172.6 35.5,181.8 35.5,181.8 35.5,204.5" />
<polygon fill="rgba(255,255,255,0.75)" stroke-width="1" stroke-dasharray="" stroke="black" points="147.5,119.0 164.2,128.2 164.2,111.9 147.5,102.7 147.5,87.7 164.2,96.9 164.2,80.5 147.5,71.3 147.5,71.3 147.5,56.3 147.5,56.3 164.2,65.5 164.2,49.2 147.5,40.0 147.5,10.0 292.1,89.6 292.1,89.6 292.1,123.5 308.8,128.8 308.8,145.1 292.1,132.0 292.1,154.8 308.8,160.1 308.8,160.1 308.8,176.4 308.8,176.4 292.1,163.4 292.1,186.2 308.8,191.5 308.8,207.8 292.1,194.7 292.1,228.6 292.1,228.6 147.5,149.0 147.5,119.0" />
<polygon fill="rgba(192,192,192,0.75)" stroke-width="1" stroke-dasharray="" stroke="black" points="293.1,100.3 293.8,103.8 132.5,15.0 138.2,15.0 293.1,100.3" />
<polygon fill="none" stroke-width="1" stroke-dasharray="2" stroke="gray" points="293.1,113.3 138.2,28.0 132.5,28.0 293.8,116.8 293.1,113.3" />
<polygon fill="rgba(192,192,192,0.75)" stroke-width="1" stroke-dasharray="" stroke="black" points="293.1,216.3 293.8,219.8 132.5,131.0 138.2,131.0 293.1,216.3" />
<polygon fill="none" stroke-width="1" stroke-dasharray="2" stroke="gray" points="293.1,229.3 138.2,144.0 132.5,144.0 293.8,232.8 293.1,229.3" />
<polygon fill="none" stroke-width="1" stroke-dasharray="2" stroke="gray" points="292.1,89.6 147.5,10.0 132.5,10.0 293.8,98.8 292.1,89.6" />
<polygon fill="rgba(192,192,192,0.75)" stroke-width="1" stroke-dasharray="" stroke="black" points="292.1,228.6 293.8,237.8 132.5,149.0 147.5,149.0 292.1,228.6" />
<polygon fill="none" stroke-width="1" stroke-dasharray="2" stroke="gray" points="18.8,207.8 17.1,198.6 17.1,182.2 18.8,191.4 18.8,176.5 17.1,167.3 17.1,150.9 18.8,160.1 18.8,160.1 18.8,145.1 18.8,145.1 17.1,135.9 17.1,119.6 18.8,128.8 18.8,98.8 4.2,19.2 4.2,19.2 4.2,53.1 2.5,40.0 2.5,56.3 4.2,61.6 4.2,84.4 2.5,71.3 2.5,71.3 2.5,87.7 2.5,87.7 4.2,93.0 4.2,115.8 2.5,102.7 2.5,119.0 4.2,124.3 4.2,158.2 4.2,158.2 18.8,237.8 18.8,207.8" />
<polygon fill="rgba(255,255,255,0.75)" stroke-width="1" stroke-dasharray="" stroke="black" points="19.2,53.1 4.2,53.1 4.2,19.2 19.2,19.2 19.2,24.2 13.4,24.2 13.4,37.2 19.2,37.2 19.2,53.1" />
<polygon fill="rgba(255,255,255,0.75)" stroke-width="1" stroke-dasharray="" stroke="black" points="19.2,124.3 19.2,140.2 13.4,140.2 13.4,153.2 19.2,153.2 19.2,158.2 4.2,158.2 4.2,124.3 19.2,124.3" />
<polygon fill="rgba(255,255,255,0.75)" stroke-width="1" stroke-dasharray="" stroke="black" points="19.2,61.6 19.2,84.4 4.2,84.4 4.2,61.6 19.2,61.6" />
<polygon fill="rgba(255,255,255,0.75)" stroke-width="1" stroke-dasharray="" stroke="black" points="19.2,93.0 19.2,115.8 4.2,115.8 4.2,93.0 19.2,93.0" />
<polygon fill="none" stroke-width="1" stroke-dasharray="2" stroke="gray" points="4.2,115.7 19.2,115.7 19.2,124.3 4.2,124.3 4.2,140.2 149.2,140.2 149.2,124.3 164.2,128.2 164.2,128.2 164.2,111.9 164.2,111.9 149.2,115.8 149.2,93.0 164.2,96.8 164.2,80.5 149.2,84.4 149.2,61.6 164.2,65.5 164.2,65.5 164.2,49.2 164.2,49.2 149.2,53.1 149.2,37.2 4.2,37.2 4.2,53.1 4.2,53.1 19.2,53.1 19.2,61.7 4.2,61.7 4.2,84.4 19.2,84.4 19.2,93.0 4.2,93.0 4.2,93.0 4.2,115.7" />
<polygon fill="rgba(255,255,255,0.75)" stroke-width="1" stroke-dasharray="" stroke="black" points="164.2,49.2 164.2,65.5 149.2,61.7 149.2,53.1 164.2,49.2" />
<polygon fill="rgba(255,255,255,0.75)" stroke-width="1" stroke-dasharray="" stroke="black" points="164.2,80.5 164.2,96.9 149.2,93.0 149.2,84.4 164.2,80.5" />
<polygon fill="rgba(255,255,255,0.75)" stroke-width="1" stroke-dasharray="" stroke="black" points="164.2,111.9 164.2,128.2 149.2,124.3 149.2,115.7 164.2,111.9" />
<polygon fill="rgba(192,192,192,0.75)" stroke-width="1" stroke-dasharray="" stroke="black" points="142.7,20.7 149.2,24.2 4.2,24.2 3.5,20.7 142.7,20.7" />
<polygon fill="none" stroke-width="1" stroke-dasharray="2" stroke="gray" points="142.7,33.7 3.5,33.7 4.2,37.2 149.2,37.2 142.7,33.7" />
<polygon fill="rgba(192,192,192,0.75)" stroke-width="1" stroke-dasharray="" stroke="black" points="142.7,136.7 149.2,140.2 4.2,140.2 3.5,136.7 142.7,136.7" />
<polygon fill="none" stroke-width="1" stroke-dasharray="2" stroke="gray" points="142.7,149.7 3.5,149.7 4.2,153.2 149.2,153.2 142.7,149.7" />
<polygon fill="none" stroke-width="1" stroke-dasharray="2" stroke="gray" points="2.5,40.0 4.2,53.1 19.2,53.1 17.5,40.0" />
<polygon fill="rgba(192,192,192,0.75)" stroke-width="1" stroke-dasharray="" stroke="silver" points="17.5,56.3 19.2,61.6 4.2,61.6 2.5,56.3" />
<polygon fill="none" stroke-width="1" stroke-dasharray="2" stroke="gray" points="2.5,71.3 4.2,84.4 19.2,84.4 17.5,71.3" />
<polygon fill="rgba(192,192,192,0.75)" stroke-width="1" stroke-dasharray="" stroke="silver" points="17.5,87.7 19.2,93.0 4.2,93.0 2.5,87.7" />
<polygon fill="none" stroke-width="1" stroke-dasharray="2" stroke="gray" points="2.5,102.7 4.2,115.7 19.2,115.7 17.5,102.7" />
<polygon fill="rgba(192,192,192,0.75)" stroke-width="1" stroke-dasharray="" stroke="silver" points="17.5,119.0 19.2,124.3 4.2,124.3 2.5,119.0" />
<polygon fill="none" stroke-width="1" stroke-dasharray="2" stroke="gray" points="2.5,40.0 4.2,53.1 4.2,37.2 3.5,33.7 3.5,20.7 4.2,24.2 4.2,19.2 2.5,10.0 2.5,40.0" />
<polygon fill="none" stroke-width="1" stroke-dasharray="2" stroke="gray" points="2.5,56.3 2.5,71.3 4.2,84.4 4.2,61.6 2.5,56.3" />
<polygon fill="none" stroke-width="1" stroke-dasharray="2" stroke="gray" points="2.5,87.7 2.5,102.7 4.2,115.8 4.2,93.0 2.5,87.7" />
<polygon fill="none" stroke-width="1" stroke-dasharray="2" stroke="gray" points="2.5,119.0 2.5,149.0 4.2,158.2 4.2,153.2 3.5,149.7 3.5,136.7 4.2,140.2 4.2,124.3 2.5,119.0" />
<polygon fill="rgba(255,255,255,0.75)" stroke-width="1" stroke-dasharray="" stroke="black" points="2.5,40.0 17.5,40.0 19.2,53.1 4.2,53.1" />
<polygon fill="none" stroke-width="1" stroke-dasharray="2" stroke="gray" points="4.2,61.6 19.2,61.6 17.5,56.3 2.5,56.3" />
<polygon fill="rgba(255,255,255,0.75)" stroke-width="1" stroke-dasharray="" stroke="black" points="2.5,71.3 17.5,71.3 19.2,84.4 4.2,84.4" />
<polygon fill="none" stroke-width="1" stroke-dasharray="2" stroke="gray" points="4.2,93.0 19.2,93.0 17.5,87.7 2.5,87.7" />
<polygon fill="rgba(255,255,255,0.75)" stroke-width="1" stroke-dasharray="" stroke="black" points="2.5,102.7 17.5,102.7 19.2,115.7 4.2,115.7" />
<polygon fill="none" stroke-width="1" stroke-dasharray="2" stroke="gray" points="4.2,124.3 19.2,124.3 17.5,119.0 2.5,119.0" />
<polygon fill="none" stroke-width="1" stroke-dasharray="2" stroke="gray" points="17.5,40.0 17.5,56.3 19.2,61.7 19.2,53.1 17.5,40.0" />
<polygon fill="none" stroke-width="1" stroke-dasharray="2" stroke="gray" points="17.5,71.3 17.5,87.7 19.2,93.0 19.2,84.4 17.5,71.3" />
<polygon fill="none" stroke-width="1" stroke-dasharray="2" stroke="gray" points="17.5,102.7 17.5,119.0 19.2,124.3 19.2,115.7 17.5,102.7" />
<polygon fill="none" stroke-width="1" stroke-dasharray="2" stroke="gray" points="132.5,10.0 2.5,10.0 4.2,19.2 149.2,19.2 132.5,10.0" />
<polygon fill="rgba(192,192,192,0.75)" stroke-width="1" stroke-dasharray="" stroke="black" points="132.5,149.0 149.2,158.2 4.2,158.2 2.5,149.0 132.5,149.0" />
<polygon fill="rgba(255,255,255,0.75)" stroke-width="1" stroke-dasharray="" stroke="black" points="149.2,53.1 132.5,43.9 132.5,10.0 149.2,19.2 149.2,24.2 142.7,20.7 142.7,33.7 149.2,37.2 149.2,53.1" />
<polygon fill="rgba(255,255,255,0.75)" stroke-width="1" stroke-dasharray="" stroke="black" points="149.2,61.6 149.2,84.4 132.5,75.2 132.5,52.4 149.2,61.6" />
<polygon fill="rgba(255,255,255,0.75)" stroke-width="1" stroke-dasharray="" stroke="black" points="149.2,93.0 149.2,115.8 132.5,106.6 132.5,83.8 149.2,93.0" />
<polygon fill="rgba(255,255,255,0.75)" stroke-width="1" stroke-dasharray="" stroke="black" points="149.2,124.3 149.2,140.2 142.7,136.7 142.7,149.7 149.2,153.2 149.2,158.2 132.5,149.0 132.5,115.1 149.2,124.3" />
<polygon fill="none" stroke-width="1" stroke-dasharray="2" stroke="gray" points="147.5,40.0 132.5,43.9 149.2,53.1 164.2,49.2" />
<polygon fill="rgba(192,192,192,0.75)" stroke-width="1" stroke-dasharray="" stroke="silver" points="164.2,65.5 149.2,61.6 132.5,52.4 147.5,56.3" />
<polygon fill="none" stroke-width="1" stroke-dasharray="2" stroke="gray" points="147.5,71.3 132.5,75.2 149.2,84.4 164.2,80.5" />
<polygon fill="rgba(192,192,192,0.75)" stroke-width="1" stroke-dasharray="" stroke="silver" points="164.2,96.9 149.2,93.0 132.5,83.8 147.5,87.7" />
<polygon fill="none" stroke-width="1" stroke-dasharray="2" stroke="gray" points="147.5,102.7 132.5,106.6 149.2,115.7 164.2,111.9" />
<polygon fill="rgba(192,192,192,0.75)" stroke-width="1" stroke-dasharray="" stroke="silver" points="164.2,128.2 149.2,124.3 132.5,115.1 147.5,119.0" />
<polygon fill="rgba(255,255,255,0.75)" stroke-width="1" stroke-dasharray="" stroke="black" points="164.2,49.2 164.2,65.5 147.5,56.3 147.5,40.0 164.2,49.2" />
<polygon fill="rgba(255,255,255,0.75)" stroke-width="1" stroke-dasharray="" stroke="black" points="164.2,80.5 164.2,96.9 147.5,87.7 147.5,71.3 164.2,80.5" />
<polygon fill="rgba(255,255,255,0.75)" stroke-width="1" stroke-dasharray="" stroke="black" points="164.2,111.8 164.2,128.2 147.5,119.0 147.5,102.7 164.2,111.8" />
<polygon fill="rgba(255,255,255,0.75)" stroke-width="1" stroke-dasharray="" stroke="black" points="147.5,40.0 164.2,49.2 149.2,53.1 132.5,43.9" />
<polygon fill="none" stroke-width="1" stroke-dasharray="2" stroke="gray" points="132.5,52.4 149.2,61.6 164.2,65.5 147.5,56.3" />
<polygon fill="rgba(255,255,255,0.75)" stroke-width="1" stroke-dasharray="" stroke="black" points="147.5,71.3 164.2,80.5 149.2,84.4 132.5,75.2" />
<polygon fill="none" stroke-width="1" stroke-dasharray="2" stroke="gray" points="132.5,83.8 149.2,93.0 164.2,96.9 147.5,87.7" />
<polygon fill="rgba(255,255,255,0.75)" stroke-width="1" stroke-dasharray="" stroke="black" points="147.5,102.7 164.2,111.9 149.2,115.7 132.5,106.6" />
<polygon fill="none" stroke-width="1" stroke-dasharray="2" stroke="gray" points="132.5,115.1 149.2,124.3 164.2,128.2 147.5,119.0" />
<polygon fill="rgba(255,255,255,0.75)" stroke-width="1" stroke-dasharray="" stroke="black" points="17.5,40.0 17.5,56.3 2.5,56.3 2.5,40.0 17.5,40.0" />
<polygon fill="rgba(255,255,255,0.75)" stroke-width="1" stroke-dasharray="" stroke="black" points="17.5,71.3 17.5,87.7 2.5,87.7 2.5,71.3 17.5,71.3" />
<polygon fill="rgba(255,255,255,0.75)" stroke-width="1" stroke-dasharray="" stroke="black" points="17.5,102.7 17.5,119.0 2.5,119.0 2.5,102.7 17.5,102.7" />
<polygon fill="rgba(255,255,255,0.75)" stroke-width="1" stroke-dasharray="" stroke="black" points="147.5,40.0 132.5,43.9 132.5,28.0 138.2,28.0 138.2,15.0 132.5,15.0 132.5,10.0 147.5,10.0 147.5,40.0" />
<polygon fill="rgba(255,255,255,0.75)" stroke-width="1" stroke-dasharray="" stroke="black" points="147.5,56.3 147.5,71.3 132.5,75.2 132.5,52.4 147.5,56.3" />
<polygon fill="rgba(255,255,255,0.75)" stroke-width="1" stroke-dasharray="" stroke="black" points="147.5,87.7 147.5,102.7 132.5,106.6 132.5,83.8 147.5,87.7" />
<polygon fill="rgba(255,255,255,0.75)" stroke-width="1" stroke-dasharray="" stroke="black" points="147.5,119.0 147.5,149.0 132.5,149.0 132.5,144.0 138.2,144.0 138.2,131.0 132.5,131.0 132.5,115.1 147.5,119.0" />
<polygon fill="rgba(255,255,255,0.75)" stroke-width="1" stroke-dasharray="" stroke="black" points="2.5,119.0 17.5,119.0 17.5,102.7 2.5,102.7 2.5,87.7 17.5,87.7 17.5,71.3 2.5,71.3 2.5,71.3 2.5,56.3 2.5,56.3 17.5,56.3 17.5,40.0 2.5,40.0 2.5,10.0 132.5,10.0 132.5,10.0 132.5,43.9 147.5,40.0 147.5,56.3 132.5,52.4 132.5,75.2 147.5,71.3 147.5,71.3 147.5,87.7 147.5,87.7 132.5,83.8 132.5,106.6 147.5,102.7 147.5,119.0 132.5,115.1 132.5,149.0 132.5,149.0 2.5,149.0 2.5,119.0" />
<polygon fill="rgba(192,192,192,0.5)" stroke-width="1" stroke-dasharray="" stroke="none" points="310.1,233.9 310.1,230.6 325.1,230.6 325.1,233.9 310.1,233.9" />
<polygon fill="rgba(192,192,192,0.5)" stroke-width="1" stroke-dasharray="" stroke="none" points="310.1,280.2 310.1,283.6 325.1,283.6 325.1,280.2 310.1,280.2" />
<polygon fill="rgba(192,192,192,0.5)" stroke-width="1" stroke-dasharray="" stroke="none" points="195.1,278.6 325.1,278.6 325.1,280.2 310.1,280.2 310.1,283.6 195.1,283.6 195.1,278.6" />
<polygon fill="rgba(192,192,192,0.5)" stroke-width="1" stroke-dasharray="" stroke="none" points="310.1,230.6 195.1,230.6 195.1,235.6 325.1,235.6 325.1,233.9 310.1,233.9 310.1,230.6" />
<polygon fill="rgba(192,192,192,0.5)" stroke-width="1" stroke-dasharray="" stroke="none" points="163.4,224.7 163.4,221.4 180.1,230.6 180.1,233.9 163.4,224.7" />
<polygon fill="rgba(192,192,192,0.5)" stroke-width="1" stroke-dasharray="" stroke="none" points="163.4,271.0 163.4,274.4 180.1,283.6 180.1,280.2 163.4,271.0" />
<polygon fill="rgba(192,192,192,0.5)" stroke-width="1" stroke-dasharray="" stroke="none" points="163.4,221.4 35.5,151.0 35.5,156.0 180.1,235.6 180.1,233.9 163.4,224.7 163.4,221.4" />
<polygon fill="rgba(192,192,192,0.5)" stroke-width="1" stroke-dasharray="" stroke="none" points="35.5,199.0 180.1,278.6 180.1,280.2 163.4,271.1 163.4,274.4 35.5,204.0 35.5,199.0" />
<polygon fill="rgba(192,192,192,0.5)" stroke-width="1" stroke-dasharray="" stroke="none" points="310.5,151.0 323.4,221.4 323.4,226.4 308.8,146.8 308.8,145.1 310.5,154.3 310.5,151.0" />
<polygon fill="rgba(192,192,192,0.5)" stroke-width="1" stroke-dasharray="" stroke="none" points="323.4,269.4 308.8,189.8 308.8,191.5 310.5,200.7 310.5,204.0 323.4,274.4 323.4,269.4" />
<polygon fill="rgba(192,192,192,0.5)" stroke-width="1" stroke-dasharray="" stroke="none" points="318.8,158.9 318.8,155.6 317.1,146.4 317.1,149.7 318.8,158.9" />
<polygon fill="rgba(192,192,192,0.5)" stroke-width="1" stroke-dasharray="" stroke="none" points="318.8,205.2 318.8,208.6 317.1,199.4 317.1,196.0 318.8,205.2" />
<polygon fill="rgba(192,192,192,0.5)" stroke-width="1" stroke-dasharray="" stroke="none" points="8.7,131.3 8.7,128.0 10.4,137.2 10.4,140.5 8.7,131.3" />
<polygon fill="rgba(192,192,192,0.5)" stroke-width="1" stroke-dasharray="" stroke="none" points="8.7,177.6 8.7,181.0 10.4,190.2 10.4,186.8 8.7,177.6" />
<polygon fill="rgba(192,192,192,0.5)" stroke-width="1" stroke-dasharray="" stroke="none" points="17.1,132.6 4.2,62.2 4.2,67.2 18.8,146.8 18.8,145.1 17.1,135.9 17.1,132.6" />
<polygon fill="rgba(192,192,192,0.5)" stroke-width="1" stroke-dasharray="" stroke="none" points="4.2,110.2 18.8,189.8 18.8,191.5 17.1,182.3 17.1,185.6 4.2,115.2 4.2,110.2" />
<polygon fill="rgba(192,192,192,0.5)" stroke-width="1" stroke-dasharray="" stroke="none" points="164.2,62.2 292.1,132.6 292.1,137.6 147.5,58.0 147.5,56.3 164.2,65.5 164.2,62.2" />
<polygon fill="rgba(192,192,192,0.5)" stroke-width="1" stroke-dasharray="" stroke="none" points="292.1,180.6 147.5,101.0 147.5,102.7 164.2,111.9 164.2,115.2 292.1,185.6 292.1,180.6" />
<polygon fill="rgba(192,192,192,0.5)" stroke-width="1" stroke-dasharray="" stroke="none" points="164.2,65.5 164.2,62.2 147.5,53.0 147.5,56.4 164.2,65.5" />
<polygon fill="rgba(192,192,192,0.5)" stroke-width="1" stroke-dasharray="" stroke="none" points="164.2,111.8 164.2,115.2 147.5,106.0 147.5,102.6 164.2,111.8" />
<polygon fill="rgba(192,192,192,0.5)" stroke-width="1" stroke-dasharray="" stroke="none" points="17.5,53.0 132.5,53.0 132.5,58.0 2.5,58.0 2.5,56.3 17.5,56.3 17.5,53.0" />
<polygon fill="rgba(192,192,192,0.5)" stroke-width="1" stroke-dasharray="" stroke="none" points="132.5,101.0 2.5,101.0 2.5,102.7 17.5,102.7 17.5,106.0 132.5,106.0 132.5,101.0" />
<polygon fill="rgba(192,192,192,0.5)" stroke-width="1" stroke-dasharray="" stroke="none" points="17.5,56.3 17.5,53.0 2.5,53.0 2.5,56.3 17.5,56.3" />
<polygon fill="rgba(192,192,192,0.5)" stroke-width="1" stroke-dasharray="" stroke="none" points="17.5,102.6 17.5,106.0 2.5,106.0 2.5,102.6 17.5,102.6" />
</svg>
