<svg width="1100" viewBox="0.0 -167.6 550.0 316.6" xmlns="http://www.w3.org/2000/svg">
<polygon fill="none" stroke-width="1" stroke-dasharray="2" stroke="gray" points="180.1,-137.6 195.1,-133.7 195.1,-149.6 189.3,-149.6 189.3,-162.6 195.1,-162.6 195.1,-167.6 180.1,-167.6 180.1,-137.6" />
<polygon fill="none" stroke-width="1" stroke-dasharray="2" stroke="gray" points="180.1,-121.3 180.1,-106.2 195.1,-102.4 195.1,-125.1 180.1,-121.3" />
<polygon fill="none" stroke-width="1" stroke-dasharray="2" stroke="gray" points="180.1,-89.9 180.1,-74.9 195.1,-71.0 195.1,-93.8 180.1,-89.9" />
<polygon fill="none" stroke-width="1" stroke-dasharray="2" stroke="gray" points="180.1,-58.6 180.1,-28.6 195.1,-28.6 195.1,-33.6 189.3,-33.6 189.3,-46.6 195.1,-46.6 195.1,-62.5 180.1,-58.6" />
<polygon fill="none" stroke-width="1" stroke-dasharray="2" stroke="gray" points="325.1,-58.6 310.0,-58.6 310.0,-74.9 325.1,-74.9 325.1,-89.9 310.0,-89.9 310.0,-106.3 325.1,-106.3 325.1,-106.3 325.1,-121.2 325.1,-121.2 310.0,-121.2 310.0,-137.6 325.1,-137.6 325.1,-167.6 195.1,-167.6 195.1,-167.6 195.1,-133.7 180.1,-137.6 180.1,-121.3 195.1,-125.1 195.1,-102.4 180.1,-106.2 180.1,-106.2 180.1,-89.9 180.1,-89.9 195.1,-93.8 195.1,-71.0 180.1,-74.9 180.1,-58.6 195.1,-62.5 195.1,-28.6 195.1,-28.6 325.1,-28.6 325.1,-58.6" />
<polygon fill="none" stroke-width="1" stroke-dasharray="2" stroke="gray" points="310.1,-137.6 310.1,-121.2 325.1,-121.2 325.1,-137.6 310.1,-137.6" />
<polygon fill="none" stroke-width="1" stroke-dasharray="2" stroke="gray" points="310.1,-106.3 310.1,-89.9 325.1,-89.9 325.1,-106.3 310.1,-106.3" />
<polygon fill="none" stroke-width="1" stroke-dasharray="2" stroke="gray" points="310.1,-74.9 310.1,-58.6 325.1,-58.6 325.1,-74.9 310.1,-74.9" />
<polygon fill="none" stroke-width="1" stroke-dasharray="2" stroke="gray" points="180.1,-137.6 163.4,-128.4 178.4,-124.5 195.1,-133.7" />
<polygon fill="rgba(255,255,255,0.75)" stroke-width="1" stroke-dasharray="" stroke="silver" points="195.1,-125.1 178.4,-115.9 163.4,-112.1 180.1,-121.2" />
<polygon fill="none" stroke-width="1" stroke-dasharray="2" stroke="gray" points="180.1,-106.2 163.4,-97.1 178.4,-93.2 195.1,-102.4" />
<polygon fill="rgba(255,255,255,0.75)" stroke-width="1" stroke-dasharray="" stroke="silver" points="195.1,-93.8 178.4,-84.6 163.4,-80.7 180.1,-89.9" />
<polygon fill="none" stroke-width="1" stroke-dasharray="2" stroke="gray" points="180.1,-74.9 163.4,-65.7 178.4,-61.8 195.1,-71.0" />
<polygon fill="rgba(255,255,255,0.75)" stroke-width="1" stroke-dasharray="" stroke="silver" points="195.1,-62.5 178.4,-53.3 163.4,-49.4 180.1,-58.6" />
<polygon fill="none" stroke-width="1" stroke-dasharray="2" stroke="gray" points="163.4,-128.4 163.4,-112.0 180.1,-121.2 180.1,-137.6 163.4,-128.4" />
<polygon fill="none" stroke-width="1" stroke-dasharray="2" stroke="gray" points="163.4,-97.1 163.4,-80.7 180.1,-89.9 180.1,-106.3 163.4,-97.1" />
<polygon fill="none" stroke-width="1" stroke-dasharray="2" stroke="gray" points="163.4,-65.7 163.4,-49.4 180.1,-58.6 180.1,-74.9 163.4,-65.7" />
<polygon fill="rgba(255,255,255,0.75)" stroke-width="1" stroke-dasharray="" stroke="black" points="180.1,-137.6 195.1,-133.7 178.4,-124.5 163.4,-128.4" />
<polygon fill="none" stroke-width="1" stroke-dasharray="2" stroke="gray" points="163.4,-112.1 178.4,-115.9 195.1,-125.1 180.1,-121.2" />
<polygon fill="rgba(255,255,255,0.75)" stroke-width="1" stroke-dasharray="" stroke="black" points="180.1,-106.2 195.1,-102.4 178.4,-93.2 163.4,-97.1" />
<polygon fill="none" stroke-width="1" stroke-dasharray="2" stroke="gray" points="163.4,-80.7 178.4,-84.6 195.1,-93.8 180.1,-89.9" />
<polygon fill="rgba(255,255,255,0.75)" stroke-width="1" stroke-dasharray="" stroke="black" points="180.1,-74.9 195.1,-71.0 178.4,-61.8 163.4,-65.7" />
<polygon fill="none" stroke-width="1" stroke-dasharray="2" stroke="gray" points="163.4,-49.4 178.4,-53.3 195.1,-62.5 180.1,-58.6" />
<polygon fill="none" stroke-width="1" stroke-dasharray="2" stroke="gray" points="178.4,-124.5 195.1,-133.7 195.1,-167.6 178.4,-158.4 178.4,-153.4 184.8,-156.9 184.8,-143.9 178.4,-140.4 178.4,-124.5" />
<polygon fill="none" stroke-width="1" stroke-dasharray="2" stroke="gray" points="178.4,-116.0 178.4,-93.2 195.1,-102.4 195.1,-125.1 178.4,-116.0" />
<polygon fill="none" stroke-width="1" stroke-dasharray="2" stroke="gray" points="178.4,-84.6 178.4,-61.8 195.1,-71.0 195.1,-93.8 178.4,-84.6" />
<polygon fill="none" stroke-width="1" stroke-dasharray="2" stroke="gray" points="178.4,-53.3 178.4,-37.4 184.8,-40.9 184.8,-27.9 178.4,-24.4 178.4,-19.4 195.1,-28.6 195.1,-62.5 178.4,-53.3" />
<polygon fill="rgba(255,255,255,0.75)" stroke-width="1" stroke-dasharray="" stroke="black" points="195.1,-167.6 325.1,-167.6 323.4,-158.4 178.4,-158.4 195.1,-167.6" />
<polygon fill="none" stroke-width="1" stroke-dasharray="2" stroke="gray" points="195.1,-28.6 178.4,-19.4 323.4,-19.4 325.1,-28.6 195.1,-28.6" />
<polygon fill="rgba(255,255,255,0.75)" stroke-width="1" stroke-dasharray="" stroke="silver" points="310.1,-137.6 310.1,-121.2 308.4,-115.9 308.4,-124.5 310.1,-137.6" />
<polygon fill="rgba(255,255,255,0.75)" stroke-width="1" stroke-dasharray="" stroke="silver" points="310.1,-106.3 310.1,-89.9 308.4,-84.6 308.4,-93.2 310.1,-106.3" />
<polygon fill="rgba(255,255,255,0.75)" stroke-width="1" stroke-dasharray="" stroke="silver" points="310.1,-74.9 310.1,-58.6 308.4,-53.3 308.4,-61.8 310.1,-74.9" />
<polygon fill="rgba(255,255,255,0.75)" stroke-width="1" stroke-dasharray="" stroke="black" points="325.1,-137.6 323.4,-124.5 308.4,-124.5 310.1,-137.6" />
<polygon fill="none" stroke-width="1" stroke-dasharray="2" stroke="gray" points="310.1,-121.2 308.4,-115.9 323.4,-115.9 325.1,-121.2" />
<polygon fill="rgba(255,255,255,0.75)" stroke-width="1" stroke-dasharray="" stroke="black" points="325.1,-106.2 323.4,-93.2 308.4,-93.2 310.1,-106.2" />
<polygon fill="none" stroke-width="1" stroke-dasharray="2" stroke="gray" points="310.1,-89.9 308.4,-84.6 323.4,-84.6 325.1,-89.9" />
<polygon fill="rgba(255,255,255,0.75)" stroke-width="1" stroke-dasharray="" stroke="black" points="325.1,-74.9 323.4,-61.8 308.4,-61.8 310.1,-74.9" />
<polygon fill="none" stroke-width="1" stroke-dasharray="2" stroke="gray" points="310.1,-58.6 308.4,-53.3 323.4,-53.3 325.1,-58.6" />
<polygon fill="none" stroke-width="1" stroke-dasharray="2" stroke="gray" points="325.1,-137.6 310.1,-137.6 308.4,-124.5 323.4,-124.5" />
<polygon fill="rgba(255,255,255,0.75)" stroke-width="1" stroke-dasharray="" stroke="silver" points="323.4,-115.9 308.4,-115.9 310.1,-121.2 325.1,-121.2" />
<polygon fill="none" stroke-width="1" stroke-dasharray="2" stroke="gray" points="325.1,-106.2 310.1,-106.2 308.4,-93.2 323.4,-93.2" />
<polygon fill="rgba(255,255,255,0.75)" stroke-width="1" stroke-dasharray="" stroke="silver" points="323.4,-84.6 308.4,-84.6 310.1,-89.9 325.1,-89.9" />
<polygon fill="none" stroke-width="1" stroke-dasharray="2" stroke="gray" points="325.1,-74.9 310.1,-74.9 308.4,-61.8 323.4,-61.8" />
<polygon fill="rgba(255,255,255,0.75)" stroke-width="1" stroke-dasharray="" stroke="silver" points="323.4,-53.3 308.4,-53.3 310.1,-58.6 325.1,-58.6" />
<polygon fill="rgba(255,255,255,0.75)" stroke-width="1" stroke-dasharray="" stroke="silver" points="325.1,-137.6 323.4,-124.5 323.4,-140.4 324.0,-143.9 324.0,-156.9 323.4,-153.4 323.4,-158.4 325.1,-167.6 325.1,-137.6" />
<polygon fill="rgba(255,255,255,0.75)" stroke-width="1" stroke-dasharray="" stroke="silver" points="325.1,-121.3 325.1,-106.2 323.4,-93.2 323.4,-115.9 325.1,-121.3" />
<polygon fill="rgba(255,255,255,0.75)" stroke-width="1" stroke-dasharray="" stroke="silver" points="325.1,-89.9 325.1,-74.9 323.4,-61.8 323.4,-84.6 325.1,-89.9" />
<polygon fill="rgba(255,255,255,0.75)" stroke-width="1" stroke-dasharray="" stroke="silver" points="325.1,-58.6 325.1,-28.6 323.4,-19.4 323.4,-24.4 324.0,-27.9 324.0,-40.9 323.4,-37.4 323.4,-53.3 325.1,-58.6" />
<polygon fill="none" stroke-width="1" stroke-dasharray="2" stroke="gray" points="184.8,-156.9 178.4,-153.4 323.4,-153.4 324.0,-156.9 184.8,-156.9" />
<polygon fill="rgba(255,255,255,0.75)" stroke-width="1" stroke-dasharray="" stroke="black" points="184.8,-143.9 324.0,-143.9 323.4,-140.4 178.4,-140.4 184.8,-143.9" />
<polygon fill="none" stroke-width="1" stroke-dasharray="2" stroke="gray" points="184.8,-40.9 178.4,-37.4 323.4,-37.4 324.0,-40.9 184.8,-40.9" />
<polygon fill="rgba(255,255,255,0.75)" stroke-width="1" stroke-dasharray="" stroke="black" points="184.8,-27.9 324.0,-27.9 323.4,-24.4 178.4,-24.4 184.8,-27.9" />
<polygon fill="none" stroke-width="1" stroke-dasharray="2" stroke="gray" points="163.4,-128.4 163.4,-112.0 178.4,-115.9 178.4,-124.5 163.4,-128.4" />
<polygon fill="none" stroke-width="1" stroke-dasharray="2" stroke="gray" points="163.4,-97.1 163.4,-80.7 178.4,-84.6 178.4,-93.2 163.4,-97.1" />
<polygon fill="none" stroke-width="1" stroke-dasharray="2" stroke="gray" points="163.4,-65.7 163.4,-49.4 178.4,-53.3 178.4,-61.8 163.4,-65.7" />
<polygon fill="rgba(255,255,255,0.75)" stroke-width="1" stroke-dasharray="" stroke="black" points="323.4,-61.8 308.4,-61.8 308.4,-53.3 323.4,-53.3 323.4,-37.4 178.4,-37.4 178.4,-53.3 163.4,-49.4 163.4,-49.4 163.4,-65.7 163.4,-65.7 178.4,-61.8 178.4,-84.6 163.4,-80.7 163.4,-97.0 178.4,-93.2 178.4,-116.0 163.4,-112.1 163.4,-112.1 163.4,-128.4 163.4,-128.4 178.4,-124.5 178.4,-140.4 323.4,-140.4 323.4,-124.5 323.4,-124.5 308.4,-124.5 308.4,-115.9 323.4,-115.9 323.4,-93.2 308.4,-93.2 308.4,-84.6 323.4,-84.6 323.4,-84.6 323.4,-61.8" />
<polygon fill="none" stroke-width="1" stroke-dasharray="2" stroke="gray" points="308.4,-124.5 323.4,-124.5 323.4,-158.4 308.4,-158.4 308.4,-153.4 314.1,-153.4 314.1,-140.4 308.4,-140.4 308.4,-124.5" />
<polygon fill="none" stroke-width="1" stroke-dasharray="2" stroke="gray" points="308.4,-116.0 308.4,-93.2 323.4,-93.2 323.4,-116.0 308.4,-116.0" />
<polygon fill="none" stroke-width="1" stroke-dasharray="2" stroke="gray" points="308.4,-84.6 308.4,-61.8 323.4,-61.8 323.4,-84.6 308.4,-84.6" />
<polygon fill="none" stroke-width="1" stroke-dasharray="2" stroke="gray" points="308.4,-53.3 308.4,-37.4 314.1,-37.4 314.1,-24.4 308.4,-24.4 308.4,-19.4 323.4,-19.4 323.4,-53.3 308.4,-53.3" />
<polygon fill="rgba(255,255,255,0.75)" stroke-width="1" stroke-dasharray="" stroke="silver" points="308.8,30.2 310.5,21.0 310.5,4.7 308.8,13.9 308.8,-1.1 310.5,-10.3 310.5,-26.7 308.8,-17.5 308.8,-17.5 308.8,-32.5 308.8,-32.5 310.5,-41.6 310.5,-58.0 308.8,-48.8 308.8,-78.8 323.4,-158.4 323.4,-158.4 323.4,-124.5 325.1,-137.6 325.1,-121.3 323.4,-115.9 323.4,-93.2 325.1,-106.2 325.1,-106.2 325.1,-89.9 325.1,-89.9 323.4,-84.6 323.4,-61.8 325.1,-74.9 325.1,-58.6 323.4,-53.3 323.4,-19.4 323.4,-19.4 308.8,60.2 308.8,30.2" />
<polygon fill="rgba(255,255,255,0.75)" stroke-width="1" stroke-dasharray="" stroke="black" points="35.5,-88.0 180.1,-167.6 195.1,-167.6 33.8,-78.8 35.5,-88.0" />
<polygon fill="none" stroke-width="1" stroke-dasharray="2" stroke="gray" points="35.5,51.0 33.8,60.2 195.1,-28.6 180.1,-28.6 35.5,51.0" />
<polygon fill="none" stroke-width="1" stroke-dasharray="2" stroke="gray" points="34.5,-77.3 33.8,-73.8 195.1,-162.6 189.3,-162.6 34.5,-77.3" />
<polygon fill="rgba(255,255,255,0.75)" stroke-width="1" stroke-dasharray="" stroke="black" points="34.5,-64.3 189.3,-149.6 195.1,-149.6 33.8,-60.8 34.5,-64.3" />
<polygon fill="none" stroke-width="1" stroke-dasharray="2" stroke="gray" points="34.5,38.7 33.8,42.2 195.1,-46.6 189.3,-46.6 34.5,38.7" />
<polygon fill="rgba(255,255,255,0.75)" stroke-width="1" stroke-dasharray="" stroke="black" points="34.5,51.7 189.3,-33.6 195.1,-33.6 33.8,55.2 34.5,51.7" />
<polygon fill="none" stroke-width="1" stroke-dasharray="2" stroke="gray" points="180.1,-58.6 163.4,-49.4 163.4,-65.7 180.1,-74.9 180.1,-89.9 163.4,-80.7 163.4,-97.1 180.1,-106.3 180.1,-106.3 180.1,-121.2 180.1,-121.2 163.4,-112.0 163.4,-128.4 180.1,-137.6 180.1,-167.6 35.5,-88.0 35.5,-88.0 35.5,-54.1 18.8,-48.8 18.8,-32.5 35.5,-45.5 35.5,-22.8 18.8,-17.4 18.8,-17.4 18.8,-1.1 18.8,-1.1 35.5,-14.2 35.5,8.6 18.8,13.9 18.8,30.2 35.5,17.1 35.5,51.0 35.5,51.0 180.1,-28.6 180.1,-58.6" />
<polygon fill="none" stroke-width="1" stroke-dasharray="2" stroke="gray" points="292.1,26.9 293.8,17.7 293.8,26.3 292.1,35.5 292.1,51.4 308.4,-37.4 308.4,-53.3 310.1,-58.6 310.1,-58.6 310.1,-74.9 310.1,-74.9 308.4,-61.8 308.4,-84.6 310.1,-89.9 310.1,-106.2 308.4,-93.2 308.4,-115.9 310.1,-121.3 310.1,-121.3 310.1,-137.6 310.1,-137.6 308.4,-124.5 308.4,-140.4 292.1,-51.6 292.1,-35.7 292.1,-35.7 293.8,-44.9 293.8,-36.3 292.1,-27.1 292.1,-4.4 293.8,-13.6 293.8,-5.0 292.1,4.2 292.1,4.2 292.1,26.9" />
<polygon fill="rgba(255,255,255,0.75)" stroke-width="1" stroke-dasharray="" stroke="black" points="195.1,-71.0 178.4,-61.8 178.4,-53.3 195.1,-62.5 195.1,-46.6 33.8,42.2 33.8,26.3 17.1,39.4 17.1,39.4 17.1,23.1 17.1,23.1 33.8,17.8 33.8,-5.0 17.1,8.1 17.1,-8.2 33.8,-13.6 33.8,-36.4 17.1,-23.3 17.1,-23.3 17.1,-39.6 17.1,-39.6 33.8,-44.9 33.8,-60.8 195.1,-149.6 195.1,-133.7 195.1,-133.7 178.4,-124.5 178.4,-115.9 195.1,-125.1 195.1,-102.4 178.4,-93.2 178.4,-84.6 195.1,-93.8 195.1,-93.8 195.1,-71.0" />
<polygon fill="none" stroke-width="1" stroke-dasharray="2" stroke="gray" points="314.1,-153.4 308.4,-153.4 292.1,-64.6 298.5,-68.1 314.1,-153.4" />
<polygon fill="rgba(255,255,255,0.75)" stroke-width="1" stroke-dasharray="" stroke="black" points="314.1,-140.4 298.5,-55.1 292.1,-51.6 308.4,-140.4 314.1,-140.4" />
<polygon fill="none" stroke-width="1" stroke-dasharray="2" stroke="gray" points="314.1,-37.4 308.4,-37.4 292.1,51.4 298.5,47.9 314.1,-37.4" />
<polygon fill="rgba(255,255,255,0.75)" stroke-width="1" stroke-dasharray="" stroke="black" points="314.1,-24.4 298.5,60.9 292.1,64.4 308.4,-24.4 314.1,-24.4" />
<polygon fill="rgba(255,255,255,0.75)" stroke-width="1" stroke-dasharray="" stroke="black" points="323.4,-158.4 308.8,-78.8 292.1,-69.6 308.4,-158.4 323.4,-158.4" />
<polygon fill="none" stroke-width="1" stroke-dasharray="2" stroke="gray" points="323.4,-19.4 308.4,-19.4 292.1,69.4 308.8,60.2 323.4,-19.4" />
<polygon fill="rgba(255,255,255,0.75)" stroke-width="1" stroke-dasharray="" stroke="black" points="310.5,-58.0 310.5,-41.6 293.8,-36.3 293.8,-44.9 310.5,-58.0" />
<polygon fill="rgba(255,255,255,0.75)" stroke-width="1" stroke-dasharray="" stroke="black" points="310.5,-26.7 310.5,-10.3 293.8,-5.0 293.8,-13.6 310.5,-26.7" />
<polygon fill="rgba(255,255,255,0.75)" stroke-width="1" stroke-dasharray="" stroke="black" points="310.5,4.7 310.5,21.0 293.8,26.3 293.8,17.7 310.5,4.7" />
<polygon fill="rgba(255,255,255,0.75)" stroke-width="1" stroke-dasharray="" stroke="silver" points="310.5,-58.0 310.5,-41.6 308.8,-32.5 308.8,-48.8 310.5,-58.0" />
<polygon fill="rgba(255,255,255,0.75)" stroke-width="1" stroke-dasharray="" stroke="silver" points="310.5,-26.7 310.5,-10.3 308.8,-1.1 308.8,-17.5 310.5,-26.7" />
<polygon fill="rgba(255,255,255,0.75)" stroke-width="1" stroke-dasharray="" stroke="silver" points="310.5,4.7 310.5,21.0 308.8,30.2 308.8,13.9 310.5,4.7" />
<polygon fill="none" stroke-width="1" stroke-dasharray="2" stroke="gray" points="18.8,-48.8 35.5,-54.1 35.5,-70.0 29.1,-66.4 29.1,-79.4 35.5,-83.0 35.5,-88.0 18.8,-78.8 18.8,-48.8" />
<polygon fill="none" stroke-width="1" stroke-dasharray="2" stroke="gray" points="18.8,-32.5 18.8,-17.4 35.5,-22.8 35.5,-45.5 18.8,-32.5" />
<polygon fill="none" stroke-width="1" stroke-dasharray="2" stroke="gray" points="18.8,-1.1 18.8,13.9 35.5,8.6 35.5,-14.2 18.8,-1.1" />
<polygon fill="none" stroke-width="1" stroke-dasharray="2" stroke="gray" points="18.8,30.2 18.8,60.2 35.5,51.0 35.5,46.0 29.1,49.6 29.1,36.6 35.5,33.0 35.5,17.1 18.8,30.2" />
<polygon fill="none" stroke-width="1" stroke-dasharray="2" stroke="gray" points="33.8,-44.9 35.5,-54.1 35.5,-88.0 33.8,-78.8 33.8,-73.8 34.4,-77.3 34.4,-64.3 33.8,-60.8 33.8,-44.9" />
<polygon fill="none" stroke-width="1" stroke-dasharray="2" stroke="gray" points="33.8,-36.3 33.8,-13.6 35.5,-22.8 35.5,-45.5 33.8,-36.3" />
<polygon fill="none" stroke-width="1" stroke-dasharray="2" stroke="gray" points="33.8,-5.0 33.8,17.8 35.5,8.6 35.5,-14.2 33.8,-5.0" />
<polygon fill="none" stroke-width="1" stroke-dasharray="2" stroke="gray" points="33.8,26.3 33.8,42.2 34.4,38.7 34.4,51.7 33.8,55.2 33.8,60.2 35.5,51.0 35.5,17.1 33.8,26.3" />
<polygon fill="rgba(255,255,255,0.75)" stroke-width="1" stroke-dasharray="" stroke="silver" points="308.8,-48.8 292.1,-35.7 293.8,-44.9 310.5,-58.0" />
<polygon fill="none" stroke-width="1" stroke-dasharray="2" stroke="gray" points="310.5,-41.7 293.8,-36.3 292.1,-27.2 308.8,-32.5" />
<polygon fill="rgba(255,255,255,0.75)" stroke-width="1" stroke-dasharray="" stroke="silver" points="308.8,-17.5 292.1,-4.4 293.8,-13.6 310.5,-26.7" />
<polygon fill="none" stroke-width="1" stroke-dasharray="2" stroke="gray" points="310.5,-10.3 293.8,-5.0 292.1,4.2 308.8,-1.1" />
<polygon fill="rgba(255,255,255,0.75)" stroke-width="1" stroke-dasharray="" stroke="silver" points="308.8,13.9 292.1,27.0 293.8,17.8 310.5,4.7" />
<polygon fill="none" stroke-width="1" stroke-dasharray="2" stroke="gray" points="310.5,21.0 293.8,26.3 292.1,35.5 308.8,30.2" />
<polygon fill="none" stroke-width="1" stroke-dasharray="2" stroke="gray" points="308.8,-48.8 310.5,-58.0 293.8,-44.9 292.1,-35.7" />
<polygon fill="rgba(255,255,255,0.75)" stroke-width="1" stroke-dasharray="" stroke="black" points="292.1,-27.2 293.8,-36.3 310.5,-41.7 308.8,-32.5" />
<polygon fill="none" stroke-width="1" stroke-dasharray="2" stroke="gray" points="308.8,-17.5 310.5,-26.7 293.8,-13.6 292.1,-4.4" />
<polygon fill="rgba(255,255,255,0.75)" stroke-width="1" stroke-dasharray="" stroke="black" points="292.1,4.2 293.8,-5.0 310.5,-10.3 308.8,-1.1" />
<polygon fill="none" stroke-width="1" stroke-dasharray="2" stroke="gray" points="308.8,13.9 310.5,4.7 293.8,17.8 292.1,27.0" />
<polygon fill="rgba(255,255,255,0.75)" stroke-width="1" stroke-dasharray="" stroke="black" points="292.1,35.5 293.8,26.3 310.5,21.0 308.8,30.2" />
<polygon fill="none" stroke-width="1" stroke-dasharray="2" stroke="gray" points="18.8,-48.8 17.1,-39.6 33.8,-44.9 35.5,-54.1" />
<polygon fill="rgba(255,255,255,0.75)" stroke-width="1" stroke-dasharray="" stroke="silver" points="35.5,-45.5 33.8,-36.3 17.1,-23.3 18.8,-32.5" />
<polygon fill="none" stroke-width="1" stroke-dasharray="2" stroke="gray" points="18.8,-17.5 17.1,-8.3 33.8,-13.6 35.5,-22.8" />
<polygon fill="rgba(255,255,255,0.75)" stroke-width="1" stroke-dasharray="" stroke="silver" points="35.5,-14.2 33.8,-5.0 17.1,8.1 18.8,-1.1" />
<polygon fill="none" stroke-width="1" stroke-dasharray="2" stroke="gray" points="18.8,13.9 17.1,23.1 33.8,17.8 35.5,8.6" />
<polygon fill="rgba(255,255,255,0.75)" stroke-width="1" stroke-dasharray="" stroke="silver" points="35.5,17.1 33.8,26.3 17.1,39.4 18.8,30.2" />
<polygon fill="rgba(255,255,255,0.75)" stroke-width="1" stroke-dasharray="" stroke="black" points="18.8,-48.8 35.5,-54.1 33.8,-44.9 17.1,-39.6" />
<polygon fill="none" stroke-width="1" stroke-dasharray="2" stroke="gray" points="17.1,-23.3 33.8,-36.3 35.5,-45.5 18.8,-32.5" />
<polygon fill="rgba(255,255,255,0.75)" stroke-width="1" stroke-dasharray="" stroke="black" points="18.8,-17.5 35.5,-22.8 33.8,-13.6 17.1,-8.3" />
<polygon fill="none" stroke-width="1" stroke-dasharray="2" stroke="gray" points="17.1,8.1 33.8,-5.0 35.5,-14.2 18.8,-1.1" />
<polygon fill="rgba(255,255,255,0.75)" stroke-width="1" stroke-dasharray="" stroke="black" points="18.8,13.9 35.5,8.6 33.8,17.8 17.1,23.1" />
<polygon fill="none" stroke-width="1" stroke-dasharray="2" stroke="gray" points="17.1,39.4 33.8,26.3 35.5,17.1 18.8,30.2" />
<polygon fill="rgba(255,255,255,0.75)" stroke-width="1" stroke-dasharray="" stroke="silver" points="293.8,-44.9 292.1,-35.7 292.1,-69.6 293.8,-78.8 293.8,-73.8 293.1,-70.3 293.1,-57.3 293.8,-60.8 293.8,-44.9" />
<polygon fill="rgba(255,255,255,0.75)" stroke-width="1" stroke-dasharray="" stroke="silver" points="293.8,-36.4 293.8,-13.6 292.1,-4.4 292.1,-27.2 293.8,-36.4" />
<polygon fill="rgba(255,255,255,0.75)" stroke-width="1" stroke-dasharray="" stroke="silver" points="293.8,-5.0 293.8,17.8 292.1,27.0 292.1,4.2 293.8,-5.0" />
<polygon fill="rgba(255,255,255,0.75)" stroke-width="1" stroke-dasharray="" stroke="silver" points="293.8,26.3 293.8,42.2 293.1,45.7 293.1,58.7 293.8,55.2 293.8,60.2 292.1,69.4 292.1,35.5 293.8,26.3" />
<polygon fill="rgba(255,255,255,0.75)" stroke-width="1" stroke-dasharray="" stroke="black" points="308.8,-48.8 292.1,-35.7 292.1,-51.6 298.5,-55.1 298.5,-68.1 292.1,-64.6 292.1,-69.6 308.8,-78.8 308.8,-48.8" />
<polygon fill="rgba(255,255,255,0.75)" stroke-width="1" stroke-dasharray="" stroke="black" points="308.8,-32.5 308.8,-17.4 292.1,-4.4 292.1,-27.2 308.8,-32.5" />
<polygon fill="rgba(255,255,255,0.75)" stroke-width="1" stroke-dasharray="" stroke="black" points="308.8,-1.1 308.8,13.9 292.1,27.0 292.1,4.2 308.8,-1.1" />
<polygon fill="rgba(255,255,255,0.75)" stroke-width="1" stroke-dasharray="" stroke="black" points="308.8,30.2 308.8,60.2 292.1,69.4 292.1,64.4 298.5,60.9 298.5,47.9 292.1,51.4 292.1,35.5 308.8,30.2" />
<polygon fill="none" stroke-width="1" stroke-dasharray="2" stroke="gray" points="17.1,-39.6 17.1,-23.3 33.8,-36.3 33.8,-44.9 17.1,-39.6" />
<polygon fill="none" stroke-width="1" stroke-dasharray="2" stroke="gray" points="17.1,-8.3 17.1,8.1 33.8,-5.0 33.8,-13.6 17.1,-8.3" />
<polygon fill="none" stroke-width="1" stroke-dasharray="2" stroke="gray" points="17.1,23.1 17.1,39.4 33.8,26.3 33.8,17.8 17.1,23.1" />
<polygon fill="none" stroke-width="1" stroke-dasharray="2" stroke="gray" points="17.1,-39.6 17.1,-23.3 18.8,-32.4 18.8,-48.8 17.1,-39.6" />
<polygon fill="none" stroke-width="1" stroke-dasharray="2" stroke="gray" points="17.1,-8.3 17.1,8.1 18.8,-1.1 18.8,-17.5 17.1,-8.3" />
<polygon fill="none" stroke-width="1" stroke-dasharray="2" stroke="gray" points="17.1,23.1 17.1,39.4 18.8,30.2 18.8,13.9 17.1,23.1" />
<polygon fill="none" stroke-width="1" stroke-dasharray="2" stroke="gray" points="13.4,5.8 19.2,5.8 35.5,-83.0 29.1,-79.4 13.4,5.8" />
<polygon fill="rgba(255,255,255,0.75)" stroke-width="1" stroke-dasharray="" stroke="black" points="13.4,18.8 29.1,-66.4 35.5,-70.0 19.2,18.8 13.4,18.8" />
<polygon fill="none" stroke-width="1" stroke-dasharray="2" stroke="gray" points="13.4,121.8 19.2,121.8 35.5,33.0 29.1,36.6 13.4,121.8" />
<polygon fill="rgba(255,255,255,0.75)" stroke-width="1" stroke-dasharray="" stroke="black" points="13.4,134.8 29.1,49.6 35.5,46.0 19.2,134.8 13.4,134.8" />
<polygon fill="rgba(255,255,255,0.75)" stroke-width="1" stroke-dasharray="" stroke="black" points="4.2,0.8 18.8,-78.8 35.5,-88.0 19.2,0.8 4.2,0.8" />
<polygon fill="none" stroke-width="1" stroke-dasharray="2" stroke="gray" points="4.2,139.8 19.2,139.8 35.5,51.0 18.8,60.2 4.2,139.8" />
<polygon fill="none" stroke-width="1" stroke-dasharray="2" stroke="gray" points="132.5,106.5 149.2,97.3 149.2,105.9 132.5,115.1 132.5,131.0 293.8,42.2 293.8,26.3 310.5,21.0 310.5,21.0 310.5,4.7 310.5,4.7 293.8,17.8 293.8,-5.0 310.5,-10.3 310.5,-26.6 293.8,-13.6 293.8,-36.3 310.5,-41.7 310.5,-41.7 310.5,-58.0 310.5,-58.0 293.8,-44.9 293.8,-60.8 132.5,28.0 132.5,43.9 132.5,43.9 149.2,34.7 149.2,43.3 132.5,52.5 132.5,75.2 149.2,66.0 149.2,74.6 132.5,83.8 132.5,83.8 132.5,106.5" />
<polygon fill="rgba(255,255,255,0.75)" stroke-width="1" stroke-dasharray="" stroke="silver" points="35.5,8.6 33.8,17.8 33.8,26.3 35.5,17.1 35.5,33.0 19.2,121.8 19.2,105.9 17.5,119.0 17.5,119.0 17.5,102.7 17.5,102.7 19.2,97.4 19.2,74.6 17.5,87.7 17.5,71.3 19.2,66.0 19.2,43.2 17.5,56.3 17.5,56.3 17.5,40.0 17.5,40.0 19.2,34.7 19.2,18.8 35.5,-70.0 35.5,-54.1 35.5,-54.1 33.8,-44.9 33.8,-36.3 35.5,-45.5 35.5,-22.8 33.8,-13.6 33.8,-5.0 35.5,-14.2 35.5,-14.2 35.5,8.6" />
<polygon fill="rgba(255,255,255,0.75)" stroke-width="1" stroke-dasharray="" stroke="black" points="147.5,119.0 164.2,109.8 164.2,93.5 147.5,102.7 147.5,87.7 164.2,78.5 164.2,62.1 147.5,71.3 147.5,71.3 147.5,56.3 147.5,56.3 164.2,47.1 164.2,30.8 147.5,40.0 147.5,10.0 292.1,-69.6 292.1,-69.6 292.1,-35.7 308.8,-48.8 308.8,-32.5 292.1,-27.2 292.1,-4.4 308.8,-17.4 308.8,-17.4 308.8,-1.1 308.8,-1.1 292.1,4.2 292.1,27.0 308.8,13.9 308.8,30.2 292.1,35.5 292.1,69.4 292.1,69.4 147.5,149.0 147.5,119.0" />
<polygon fill="none" stroke-width="1" stroke-dasharray="2" stroke="gray" points="293.1,-70.3 293.8,-73.8 132.5,15.0 138.2,15.0 293.1,-70.3" />
<polygon fill="rgba(255,255,255,0.75)" stroke-width="1" stroke-dasharray="" stroke="black" points="293.1,-57.3 138.2,28.0 132.5,28.0 293.8,-60.8 293.1,-57.3" />
<polygon fill="none" stroke-width="1" stroke-dasharray="2" stroke="gray" points="293.1,45.7 293.8,42.2 132.5,131.0 138.2,131.0 293.1,45.7" />
<polygon fill="rgba(255,255,255,0.75)" stroke-width="1" stroke-dasharray="" stroke="black" points="293.1,58.7 138.2,144.0 132.5,144.0 293.8,55.2 293.1,58.7" />
<polygon fill="rgba(255,255,255,0.75)" stroke-width="1" stroke-dasharray="" stroke="black" points="292.1,-69.6 147.5,10.0 132.5,10.0 293.8,-78.8 292.1,-69.6" />
<polygon fill="none" stroke-width="1" stroke-dasharray="2" stroke="gray" points="292.1,69.4 293.8,60.2 132.5,149.0 147.5,149.0 292.1,69.4" />
<polygon fill="none" stroke-width="1" stroke-dasharray="2" stroke="gray" points="18.8,30.2 17.1,39.4 17.1,23.1 18.8,13.9 18.8,-1.1 17.1,8.1 17.1,-8.3 18.8,-17.5 18.8,-17.5 18.8,-32.4 18.8,-32.4 17.1,-23.2 17.1,-39.6 18.8,-48.8 18.8,-78.8 4.2,0.8 4.2,0.8 4.2,34.7 2.5,40.0 2.5,56.3 4.2,43.2 4.2,66.0 2.5,71.3 2.5,71.3 2.5,87.7 2.5,87.7 4.2,74.6 4.2,97.4 2.5,102.7 2.5,119.0 4.2,105.9 4.2,139.8 4.2,139.8 18.8,60.2 18.8,30.2" />
<polygon fill="rgba(255,255,255,0.75)" stroke-width="1" stroke-dasharray="" stroke="black" points="19.2,34.7 4.2,34.7 4.2,0.8 19.2,0.8 19.2,5.8 13.4,5.8 13.4,18.8 19.2,18.8 19.2,34.7" />
<polygon fill="rgba(255,255,255,0.75)" stroke-width="1" stroke-dasharray="" stroke="black" points="19.2,105.9 19.2,121.8 13.4,121.8 13.4,134.8 19.2,134.8 19.2,139.8 4.2,139.8 4.2,105.9 19.2,105.9" />
<polygon fill="rgba(255,255,255,0.75)" stroke-width="1" stroke-dasharray="" stroke="black" points="19.2,43.2 19.2,66.0 4.2,66.0 4.2,43.2 19.2,43.2" />
<polygon fill="rgba(255,255,255,0.75)" stroke-width="1" stroke-dasharray="" stroke="black" points="19.2,74.6 19.2,97.4 4.2,97.4 4.2,74.6 19.2,74.6" />
<polygon fill="none" stroke-width="1" stroke-dasharray="2" stroke="gray" points="4.2,97.3 19.2,97.3 19.2,105.9 4.2,105.9 4.2,121.8 149.2,121.8 149.2,105.9 164.2,109.8 164.2,109.8 164.2,93.5 164.2,93.5 149.2,97.4 149.2,74.6 164.2,78.5 164.2,62.2 149.2,66.0 149.2,43.2 164.2,47.1 164.2,47.1 164.2,30.8 164.2,30.8 149.2,34.7 149.2,18.8 4.2,18.8 4.2,34.7 4.2,34.7 19.2,34.7 19.2,43.3 4.2,43.3 4.2,66.0 19.2,66.0 19.2,74.6 4.2,74.6 4.2,74.6 4.2,97.3" />
<polygon fill="rgba(255,255,255,0.75)" stroke-width="1" stroke-dasharray="" stroke="black" points="164.2,30.8 164.2,47.1 149.2,43.3 149.2,34.7 164.2,30.8" />
<polygon fill="rgba(255,255,255,0.75)" stroke-width="1" stroke-dasharray="" stroke="black" points="164.2,62.1 164.2,78.5 149.2,74.6 149.2,66.0 164.2,62.1" />
<polygon fill="rgba(255,255,255,0.75)" stroke-width="1" stroke-dasharray="" stroke="black" points="164.2,93.5 164.2,109.8 149.2,105.9 149.2,97.3 164.2,93.5" />
<polygon fill="none" stroke-width="1" stroke-dasharray="2" stroke="gray" points="142.7,9.3 149.2,5.8 4.2,5.8 3.5,9.3 142.7,9.3" />
<polygon fill="rgba(255,255,255,0.75)" stroke-width="1" stroke-dasharray="" stroke="black" points="142.7,22.3 3.5,22.3 4.2,18.8 149.2,18.8 142.7,22.3" />
<polygon fill="none" stroke-width="1" stroke-dasharray="2" stroke="gray" points="142.7,125.3 149.2,121.8 4.2,121.8 3.5,125.3 142.7,125.3" />
<polygon fill="rgba(255,255,255,0.75)" stroke-width="1" stroke-dasharray="" stroke="black" points="142.7,138.3 3.5,138.3 4.2,134.8 149.2,134.8 142.7,138.3" />
<polygon fill="rgba(255,255,255,0.75)" stroke-width="1" stroke-dasharray="" stroke="silver" points="2.5,40.0 4.2,34.7 19.2,34.7 17.5,40.0" />
<polygon fill="none" stroke-width="1" stroke-dasharray="2" stroke="gray" points="17.5,56.3 19.2,43.3 4.2,43.3 2.5,56.3" />
<polygon fill="rgba(255,255,255,0.75)" stroke-width="1" stroke-dasharray="" stroke="silver" points="2.5,71.3 4.2,66.0 19.2,66.0 17.5,71.3" />
<polygon fill="none" stroke-width="1" stroke-dasharray="2" stroke="gray" points="17.5,87.7 19.2,74.6 4.2,74.6 2.5,87.7" />
<polygon fill="rgba(255,255,255,0.75)" stroke-width="1" stroke-dasharray="" stroke="silver" points="2.5,102.7 4.2,97.4 19.2,97.4 17.5,102.7" />
<polygon fill="none" stroke-width="1" stroke-dasharray="2" stroke="gray" points="17.5,119.0 19.2,105.9 4.2,105.9 2.5,119.0" />
<polygon fill="none" stroke-width="1" stroke-dasharray="2" stroke="gray" points="2.5,40.0 4.2,34.7 4.2,18.8 3.5,22.3 3.5,9.3 4.2,5.8 4.2,0.8 2.5,10.0 2.5,40.0" />
<polygon fill="none" stroke-width="1" stroke-dasharray="2" stroke="gray" points="2.5,56.3 2.5,71.3 4.2,66.0 4.2,43.2 2.5,56.3" />
<polygon fill="none" stroke-width="1" stroke-dasharray="2" stroke="gray" points="2.5,87.7 2.5,102.7 4.2,97.4 4.2,74.6 2.5,87.7" />
<polygon fill="none" stroke-width="1" stroke-dasharray="2" stroke="gray" points="2.5,119.0 2.5,149.0 4.2,139.8 4.2,134.8 3.5,138.3 3.5,125.3 4.2,121.8 4.2,105.9 2.5,119.0" />
<polygon fill="none" stroke-width="1" stroke-dasharray="2" stroke="gray" points="2.5,40.0 17.5,40.0 19.2,34.7 4.2,34.7" />
<polygon fill="rgba(255,255,255,0.75)" stroke-width="1" stroke-dasharray="" stroke="black" points="4.2,43.3 19.2,43.3 17.5,56.3 2.5,56.3" />
<polygon fill="none" stroke-width="1" stroke-dasharray="2" stroke="gray" points="2.5,71.3 17.5,71.3 19.2,66.0 4.2,66.0" />
<polygon fill="rgba(255,255,255,0.75)" stroke-width="1" stroke-dasharray="" stroke="black" points="4.2,74.6 19.2,74.6 17.5,87.7 2.5,87.7" />
<polygon fill="none" stroke-width="1" stroke-dasharray="2" stroke="gray" points="2.5,102.7 17.5,102.7 19.2,97.4 4.2,97.4" />
<polygon fill="rgba(255,255,255,0.75)" stroke-width="1" stroke-dasharray="" stroke="black" points="4.2,105.9 19.2,105.9 17.5,119.0 2.5,119.0" />
<polygon fill="none" stroke-width="1" stroke-dasharray="2" stroke="gray" points="17.5,40.0 17.5,56.3 19.2,43.3 19.2,34.7 17.5,40.0" />
<polygon fill="none" stroke-width="1" stroke-dasharray="2" stroke="gray" points="17.5,71.3 17.5,87.7 19.2,74.6 19.2,66.0 17.5,71.3" />
<polygon fill="none" stroke-width="1" stroke-dasharray="2" stroke="gray" points="17.5,102.7 17.5,119.0 19.2,105.9 19.2,97.3 17.5,102.7" />
<polygon fill="rgba(255,255,255,0.75)" stroke-width="1" stroke-dasharray="" stroke="black" points="132.5,10.0 2.5,10.0 4.2,0.8 149.2,0.8 132.5,10.0" />
<polygon fill="none" stroke-width="1" stroke-dasharray="2" stroke="gray" points="132.5,149.0 149.2,139.8 4.2,139.8 2.5,149.0 132.5,149.0" />
<polygon fill="rgba(255,255,255,0.75)" stroke-width="1" stroke-dasharray="" stroke="black" points="149.2,34.7 132.5,43.9 132.5,10.0 149.2,0.8 149.2,5.8 142.7,9.3 142.7,22.3 149.2,18.8 149.2,34.7" />
<polygon fill="rgba(255,255,255,0.75)" stroke-width="1" stroke-dasharray="" stroke="black" points="149.2,43.2 149.2,66.0 132.5,75.2 132.5,52.4 149.2,43.2" />
<polygon fill="rgba(255,255,255,0.75)" stroke-width="1" stroke-dasharray="" stroke="black" points="149.2,74.6 149.2,97.4 132.5,106.6 132.5,83.8 149.2,74.6" />
<polygon fill="rgba(255,255,255,0.75)" stroke-width="1" stroke-dasharray="" stroke="black" points="149.2,105.9 149.2,121.8 142.7,125.3 142.7,138.3 149.2,134.8 149.2,139.8 132.5,149.0 132.5,115.1 149.2,105.9" />
<polygon fill="rgba(255,255,255,0.75)" stroke-width="1" stroke-dasharray="" stroke="silver" points="147.5,40.0 132.5,43.9 149.2,34.7 164.2,30.8" />
<polygon fill="none" stroke-width="1" stroke-dasharray="2" stroke="gray" points="164.2,47.1 149.2,43.3 132.5,52.4 147.5,56.3" />
<polygon fill="rgba(255,255,255,0.75)" stroke-width="1" stroke-dasharray="" stroke="silver" points="147.5,71.3 132.5,75.2 149.2,66.0 164.2,62.1" />
<polygon fill="none" stroke-width="1" stroke-dasharray="2" stroke="gray" points="164.2,78.5 149.2,74.6 132.5,83.8 147.5,87.7" />
<polygon fill="rgba(255,255,255,0.75)" stroke-width="1" stroke-dasharray="" stroke="silver" points="147.5,102.7 132.5,106.6 149.2,97.4 164.2,93.5" />
<polygon fill="none" stroke-width="1" stroke-dasharray="2" stroke="gray" points="164.2,109.8 149.2,105.9 132.5,115.1 147.5,119.0" />
<polygon fill="rgba(255,255,255,0.75)" stroke-width="1" stroke-dasharray="" stroke="black" points="164.2,30.8 164.2,47.2 147.5,56.3 147.5,40.0 164.2,30.8" />
<polygon fill="rgba(255,255,255,0.75)" stroke-width="1" stroke-dasharray="" stroke="black" points="164.2,62.1 164.2,78.5 147.5,87.7 147.5,71.3 164.2,62.1" />
<polygon fill="rgba(255,255,255,0.75)" stroke-width="1" stroke-dasharray="" stroke="black" points="164.2,93.5 164.2,109.8 147.5,119.0 147.5,102.7 164.2,93.5" />
<polygon fill="none" stroke-width="1" stroke-dasharray="2" stroke="gray" points="147.5,40.0 164.2,30.8 149.2,34.7 132.5,43.9" />
<polygon fill="rgba(255,255,255,0.75)" stroke-width="1" stroke-dasharray="" stroke="black" points="132.5,52.4 149.2,43.3 164.2,47.1 147.5,56.3" />
<polygon fill="none" stroke-width="1" stroke-dasharray="2" stroke="gray" points="147.5,71.3 164.2,62.1 149.2,66.0 132.5,75.2" />
<polygon fill="rgba(255,255,255,0.75)" stroke-width="1" stroke-dasharray="" stroke="black" points="132.5,83.8 149.2,74.6 164.2,78.5 147.5,87.7" />
<polygon fill="none" stroke-width="1" stroke-dasharray="2" stroke="gray" points="147.5,102.7 164.2,93.5 149.2,97.4 132.5,106.6" />
<polygon fill="rgba(255,255,255,0.75)" stroke-width="1" stroke-dasharray="" stroke="black" points="132.5,115.1 149.2,105.9 164.2,109.8 147.5,119.0" />
<polygon fill="rgba(255,255,255,0.75)" stroke-width="1" stroke-dasharray="" stroke="black" points="17.5,40.0 17.5,56.3 2.5,56.3 2.5,40.0 17.5,40.0" />
<polygon fill="rgba(255,255,255,0.75)" stroke-width="1" stroke-dasharray="" stroke="black" points="17.5,71.3 17.5,87.7 2.5,87.7 2.5,71.3 17.5,71.3" />
<polygon fill="rgba(255,255,255,0.75)" stroke-width="1" stroke-dasharray="" stroke="black" points="17.5,102.7 17.5,119.0 2.5,119.0 2.5,102.7 17.5,102.7" />
<polygon fill="rgba(255,255,255,0.75)" stroke-width="1" stroke-dasharray="" stroke="black" points="147.5,40.0 132.5,43.9 132.5,28.0 138.2,28.0 138.2,15.0 132.5,15.0 132.5,10.0 147.5,10.0 147.5,40.0" />
<polygon fill="rgba(255,255,255,0.75)" stroke-width="1" stroke-dasharray="" stroke="black" points="147.5,56.3 147.5,71.3 132.5,75.2 132.5,52.4 147.5,56.3" />
<polygon fill="rgba(255,255,255,0.75)" stroke-width="1" stroke-dasharray="" stroke="black" points="147.5,87.7 147.5,102.7 132.5,106.6 132.5,83.8 147.5,87.7" />
<polygon fill="rgba(255,255,255,0.75)" stroke-width="1" stroke-dasharray="" stroke="black" points="147.5,119.0 147.5,149.0 132.5,149.0 132.5,144.0 138.2,144.0 138.2,131.0 132.5,131.0 132.5,115.1 147.5,119.0" />
<polygon fill="rgba(255,255,255,0.75)" stroke-width="1" stroke-dasharray="" stroke="black" points="2.5,119.0 17.5,119.0 17.5,102.7 2.5,102.7 2.5,87.7 17.5,87.7 17.5,71.3 2.5,71.3 2.5,71.3 2.5,56.3 2.5,56.3 17.5,56.3 17.5,40.0 2.5,40.0 2.5,10.0 132.5,10.0 132.5,10.0 132.5,43.9 147.5,40.0 147.5,56.3 132.5,52.4 132.5,75.2 147.5,71.3 147.5,71.3 147.5,87.7 147.5,87.7 132.5,83.8 132.5,106.6 147.5,102.7 147.5,119.0 132.5,115.1 132.5,149.0 132.5,149.0 2.5,149.0 2.5,119.0" />
<polygon fill="rgba(192,192,192,0.5)" stroke-width="1" stroke-dasharray="" stroke="none" points="310.1,-121.2 310.1,-124.6 325.1,-124.6 325.1,-121.2 310.1,-121.2" />
<polygon fill="rgba(192,192,192,0.5)" stroke-width="1" stroke-dasharray="" stroke="none" points="310.1,-74.9 310.1,-71.6 325.1,-71.6 325.1,-74.9 310.1,-74.9" />
<polygon fill="rgba(192,192,192,0.5)" stroke-width="1" stroke-dasharray="" stroke="none" points="195.1,-76.6 325.1,-76.6 325.1,-74.9 310.1,-74.9 310.1,-71.6 195.1,-71.6 195.1,-76.6" />
<polygon fill="rgba(192,192,192,0.5)" stroke-width="1" stroke-dasharray="" stroke="none" points="310.1,-124.6 195.1,-124.6 195.1,-119.6 325.1,-119.6 325.1,-121.2 310.1,-121.2 310.1,-124.6" />
<polygon fill="rgba(192,192,192,0.5)" stroke-width="1" stroke-dasharray="" stroke="none" points="163.4,-112.0 163.4,-115.4 180.1,-124.6 180.1,-121.2 163.4,-112.0" />
<polygon fill="rgba(192,192,192,0.5)" stroke-width="1" stroke-dasharray="" stroke="none" points="163.4,-65.7 163.4,-62.4 180.1,-71.6 180.1,-74.9 163.4,-65.7" />
<polygon fill="rgba(192,192,192,0.5)" stroke-width="1" stroke-dasharray="" stroke="none" points="163.4,-115.4 35.5,-45.0 35.5,-40.0 180.1,-119.6 180.1,-121.2 163.4,-112.1 163.4,-115.4" />
<polygon fill="rgba(192,192,192,0.5)" stroke-width="1" stroke-dasharray="" stroke="none" points="35.5,3.0 180.1,-76.6 180.1,-74.9 163.4,-65.7 163.4,-62.4 35.5,8.0 35.5,3.0" />
<polygon fill="rgba(192,192,192,0.5)" stroke-width="1" stroke-dasharray="" stroke="none" points="310.5,-45.0 323.4,-115.4 323.4,-110.4 308.8,-30.8 308.8,-32.5 310.5,-41.7 310.5,-45.0" />
<polygon fill="rgba(192,192,192,0.5)" stroke-width="1" stroke-dasharray="" stroke="none" points="323.4,-67.4 308.8,12.2 308.8,13.9 310.5,4.7 310.5,8.0 323.4,-62.4 323.4,-67.4" />
<polygon fill="rgba(192,192,192,0.5)" stroke-width="1" stroke-dasharray="" stroke="none" points="318.8,-46.2 318.8,-49.6 317.1,-40.4 317.1,-37.0 318.8,-46.2" />
<polygon fill="rgba(192,192,192,0.5)" stroke-width="1" stroke-dasharray="" stroke="none" points="318.8,0.1 318.8,3.4 317.1,12.6 317.1,9.3 318.8,0.1" />
<polygon fill="rgba(192,192,192,0.5)" stroke-width="1" stroke-dasharray="" stroke="none" points="8.7,-18.6 8.7,-22.0 10.4,-31.2 10.4,-27.8 8.7,-18.6" />
<polygon fill="rgba(192,192,192,0.5)" stroke-width="1" stroke-dasharray="" stroke="none" points="8.7,27.7 8.7,31.0 10.4,21.8 10.4,18.5 8.7,27.7" />
<polygon fill="rgba(192,192,192,0.5)" stroke-width="1" stroke-dasharray="" stroke="none" points="17.1,-26.6 4.2,43.8 4.2,48.8 18.8,-30.8 18.8,-32.5 17.1,-23.3 17.1,-26.6" />
<polygon fill="rgba(192,192,192,0.5)" stroke-width="1" stroke-dasharray="" stroke="none" points="4.2,91.8 18.8,12.2 18.8,13.9 17.1,23.1 17.1,26.4 4.2,96.8 4.2,91.8" />
<polygon fill="rgba(192,192,192,0.5)" stroke-width="1" stroke-dasharray="" stroke="none" points="164.2,43.8 292.1,-26.6 292.1,-21.6 147.5,58.0 147.5,56.3 164.2,47.1 164.2,43.8" />
<polygon fill="rgba(192,192,192,0.5)" stroke-width="1" stroke-dasharray="" stroke="none" points="292.1,21.4 147.5,101.0 147.5,102.7 164.2,93.5 164.2,96.8 292.1,26.4 292.1,21.4" />
<polygon fill="rgba(192,192,192,0.5)" stroke-width="1" stroke-dasharray="" stroke="none" points="164.2,47.2 164.2,43.8 147.5,53.0 147.5,56.4 164.2,47.2" />
<polygon fill="rgba(192,192,192,0.5)" stroke-width="1" stroke-dasharray="" stroke="none" points="164.2,93.5 164.2,96.8 147.5,106.0 147.5,102.6 164.2,93.5" />
<polygon fill="rgba(192,192,192,0.5)" stroke-width="1" stroke-dasharray="" stroke="none" points="17.5,53.0 132.5,53.0 132.5,58.0 2.5,58.0 2.5,56.3 17.5,56.3 17.5,53.0" />
<polygon fill="rgba(192,192,192,0.5)" stroke-width="1" stroke-dasharray="" stroke="none" points="132.5,101.0 2.5,101.0 2.5,102.7 17.5,102.7 17.5,106.0 132.5,106.0 132.5,101.0" />
<polygon fill="rgba(192,192,192,0.5)" stroke-width="1" stroke-dasharray="" stroke="none" points="17.5,56.4 17.5,53.0 2.5,53.0 2.5,56.4 17.5,56.4" />
<polygon fill="rgba(192,192,192,0.5)" stroke-width="1" stroke-dasharray="" stroke="none" points="17.5,102.7 17.5,106.0 2.5,106.0 2.5,102.7 17.5,102.7" />
</svg>
