<svg width="1100" viewBox="0.0 -167.6 550.0 316.6" xmlns="http://www.w3.org/2000/svg">
<polygon fill="none" stroke-width="1" stroke-dasharray="2" stroke="gray" points="180.1,-147.7 195.1,-143.8 195.1,-149.6 189.3,-149.6 189.3,-162.6 195.1,-162.6 195.1,-167.6 180.1,-167.6 180.1,-147.7" />
<polygon fill="none" stroke-width="1" stroke-dasharray="2" stroke="gray" points="180.1,-127.9 180.1,-108.0 195.1,-104.1 195.1,-131.8 180.1,-127.9" />
<polygon fill="none" stroke-width="1" stroke-dasharray="2" stroke="gray" points="180.1,-88.2 180.1,-68.3 195.1,-64.4 195.1,-92.0 180.1,-88.2" />
<polygon fill="none" stroke-width="1" stroke-dasharray="2" stroke="gray" points="180.1,-48.5 180.1,-28.6 195.1,-28.6 195.1,-33.6 189.3,-33.6 189.3,-46.6 195.1,-46.6 195.1,-52.3 180.1,-48.5" />
<polygon fill="none" stroke-width="1" stroke-dasharray="2" stroke="gray" points="325.1,-48.4 310.0,-48.4 310.0,-68.3 325.1,-68.3 325.1,-88.1 310.0,-88.1 310.0,-108.0 325.1,-108.0 325.1,-108.0 325.1,-127.9 325.1,-127.9 310.0,-127.9 310.0,-147.7 325.1,-147.7 325.1,-167.6 195.1,-167.6 195.1,-167.6 195.1,-143.8 180.1,-147.7 180.1,-127.9 195.1,-131.8 195.1,-104.1 180.1,-108.0 180.1,-108.0 180.1,-88.2 180.1,-88.2 195.1,-92.0 195.1,-64.4 180.1,-68.3 180.1,-48.5 195.1,-52.3 195.1,-28.6 195.1,-28.6 325.1,-28.6 325.1,-48.4" />
<polygon fill="none" stroke-width="1" stroke-dasharray="2" stroke="gray" points="310.1,-147.7 310.1,-127.9 325.1,-127.9 325.1,-147.7 310.1,-147.7" />
<polygon fill="none" stroke-width="1" stroke-dasharray="2" stroke="gray" points="310.1,-108.0 310.1,-88.1 325.1,-88.1 325.1,-108.0 310.1,-108.0" />
<polygon fill="none" stroke-width="1" stroke-dasharray="2" stroke="gray" points="310.1,-68.3 310.1,-48.4 325.1,-48.4 325.1,-68.3 310.1,-68.3" />
<polygon fill="none" stroke-width="1" stroke-dasharray="2" stroke="gray" points="180.1,-147.7 163.4,-138.5 178.4,-134.6 195.1,-143.8" />
<polygon fill="rgba(255,255,255,0.75)" stroke-width="1" stroke-dasharray="" stroke="silver" points="195.1,-131.8 178.4,-122.6 163.4,-118.7 180.1,-127.9" />
<polygon fill="none" stroke-width="1" stroke-dasharray="2" stroke="gray" points="180.1,-108.0 163.4,-98.8 178.4,-94.9 195.1,-104.1" />
<polygon fill="rgba(255,255,255,0.75)" stroke-width="1" stroke-dasharray="" stroke="silver" points="195.1,-92.0 178.4,-82.8 163.4,-79.0 180.1,-88.2" />
<polygon fill="none" stroke-width="1" stroke-dasharray="2" stroke="gray" points="180.1,-68.3 163.4,-59.1 178.4,-55.2 195.1,-64.4" />
<polygon fill="rgba(255,255,255,0.75)" stroke-width="1" stroke-dasharray="" stroke="silver" points="195.1,-52.3 178.4,-43.1 163.4,-39.2 180.1,-48.4" />
<polygon fill="none" stroke-width="1" stroke-dasharray="2" stroke="gray" points="163.4,-138.5 163.4,-118.7 180.1,-127.9 180.1,-147.7 163.4,-138.5" />
<polygon fill="none" stroke-width="1" stroke-dasharray="2" stroke="gray" points="163.4,-98.8 163.4,-79.0 180.1,-88.1 180.1,-108.0 163.4,-98.8" />
<polygon fill="none" stroke-width="1" stroke-dasharray="2" stroke="gray" points="163.4,-59.1 163.4,-39.2 180.1,-48.4 180.1,-68.3 163.4,-59.1" />
<polygon fill="rgba(255,255,255,0.75)" stroke-width="1" stroke-dasharray="" stroke="black" points="180.1,-147.7 195.1,-143.8 178.4,-134.6 163.4,-138.5" />
<polygon fill="none" stroke-width="1" stroke-dasharray="2" stroke="gray" points="163.4,-118.7 178.4,-122.6 195.1,-131.8 180.1,-127.9" />
<polygon fill="rgba(255,255,255,0.75)" stroke-width="1" stroke-dasharray="" stroke="black" points="180.1,-108.0 195.1,-104.1 178.4,-94.9 163.4,-98.8" />
<polygon fill="none" stroke-width="1" stroke-dasharray="2" stroke="gray" points="163.4,-79.0 178.4,-82.8 195.1,-92.0 180.1,-88.2" />
<polygon fill="rgba(255,255,255,0.75)" stroke-width="1" stroke-dasharray="" stroke="black" points="180.1,-68.3 195.1,-64.4 178.4,-55.2 163.4,-59.1" />
<polygon fill="none" stroke-width="1" stroke-dasharray="2" stroke="gray" points="163.4,-39.2 178.4,-43.1 195.1,-52.3 180.1,-48.4" />
<polygon fill="none" stroke-width="1" stroke-dasharray="2" stroke="gray" points="178.4,-134.6 195.1,-143.8 195.1,-167.6 178.4,-158.4 178.4,-153.4 184.8,-156.9 184.8,-143.9 178.4,-140.4 178.4,-134.6" />
<polygon fill="none" stroke-width="1" stroke-dasharray="2" stroke="gray" points="178.4,-122.6 178.4,-94.9 195.1,-104.1 195.1,-131.8 178.4,-122.6" />
<polygon fill="none" stroke-width="1" stroke-dasharray="2" stroke="gray" points="178.4,-82.9 178.4,-55.2 195.1,-64.4 195.1,-92.0 178.4,-82.9" />
<polygon fill="none" stroke-width="1" stroke-dasharray="2" stroke="gray" points="178.4,-43.1 178.4,-37.4 184.8,-40.9 184.8,-27.9 178.4,-24.4 178.4,-19.4 195.1,-28.6 195.1,-52.3 178.4,-43.1" />
<polygon fill="rgba(255,255,255,0.75)" stroke-width="1" stroke-dasharray="" stroke="black" points="195.1,-167.6 325.1,-167.6 323.4,-158.4 178.4,-158.4 195.1,-167.6" />
<polygon fill="none" stroke-width="1" stroke-dasharray="2" stroke="gray" points="195.1,-28.6 178.4,-19.4 323.4,-19.4 325.1,-28.6 195.1,-28.6" />
<polygon fill="rgba(255,255,255,0.75)" stroke-width="1" stroke-dasharray="" stroke="silver" points="310.1,-147.7 310.1,-127.9 308.4,-122.5 308.4,-134.7 310.1,-147.7" />
<polygon fill="rgba(255,255,255,0.75)" stroke-width="1" stroke-dasharray="" stroke="silver" points="310.1,-108.0 310.1,-88.1 308.4,-82.8 308.4,-94.9 310.1,-108.0" />
<polygon fill="rgba(255,255,255,0.75)" stroke-width="1" stroke-dasharray="" stroke="silver" points="310.1,-68.3 310.1,-48.4 308.4,-43.1 308.4,-55.2 310.1,-68.3" />
<polygon fill="rgba(255,255,255,0.75)" stroke-width="1" stroke-dasharray="" stroke="black" points="325.1,-147.7 323.4,-134.6 308.4,-134.6 310.1,-147.7" />
<polygon fill="none" stroke-width="1" stroke-dasharray="2" stroke="gray" points="310.1,-127.9 308.4,-122.6 323.4,-122.6 325.1,-127.9" />
<polygon fill="rgba(255,255,255,0.75)" stroke-width="1" stroke-dasharray="" stroke="black" points="325.1,-108.0 323.4,-94.9 308.4,-94.9 310.1,-108.0" />
<polygon fill="none" stroke-width="1" stroke-dasharray="2" stroke="gray" points="310.1,-88.2 308.4,-82.8 323.4,-82.8 325.1,-88.2" />
<polygon fill="rgba(255,255,255,0.75)" stroke-width="1" stroke-dasharray="" stroke="black" points="325.1,-68.3 323.4,-55.2 308.4,-55.2 310.1,-68.3" />
<polygon fill="none" stroke-width="1" stroke-dasharray="2" stroke="gray" points="310.1,-48.4 308.4,-43.1 323.4,-43.1 325.1,-48.4" />
<polygon fill="none" stroke-width="1" stroke-dasharray="2" stroke="gray" points="325.1,-147.7 310.1,-147.7 308.4,-134.6 323.4,-134.6" />
<polygon fill="rgba(255,255,255,0.75)" stroke-width="1" stroke-dasharray="" stroke="silver" points="323.4,-122.6 308.4,-122.6 310.1,-127.9 325.1,-127.9" />
<polygon fill="none" stroke-width="1" stroke-dasharray="2" stroke="gray" points="325.1,-108.0 310.1,-108.0 308.4,-94.9 323.4,-94.9" />
<polygon fill="rgba(255,255,255,0.75)" stroke-width="1" stroke-dasharray="" stroke="silver" points="323.4,-82.8 308.4,-82.8 310.1,-88.2 325.1,-88.2" />
<polygon fill="none" stroke-width="1" stroke-dasharray="2" stroke="gray" points="325.1,-68.3 310.1,-68.3 308.4,-55.2 323.4,-55.2" />
<polygon fill="rgba(255,255,255,0.75)" stroke-width="1" stroke-dasharray="" stroke="silver" points="323.4,-43.1 308.4,-43.1 310.1,-48.4 325.1,-48.4" />
<polygon fill="rgba(255,255,255,0.75)" stroke-width="1" stroke-dasharray="" stroke="silver" points="325.1,-147.7 323.4,-134.6 323.4,-140.4 324.0,-143.9 324.0,-156.9 323.4,-153.4 323.4,-158.4 325.1,-167.6 325.1,-147.7" />
<polygon fill="rgba(255,255,255,0.75)" stroke-width="1" stroke-dasharray="" stroke="silver" points="325.1,-127.9 325.1,-108.0 323.4,-94.9 323.4,-122.6 325.1,-127.9" />
<polygon fill="rgba(255,255,255,0.75)" stroke-width="1" stroke-dasharray="" stroke="silver" points="325.1,-88.2 325.1,-68.3 323.4,-55.2 323.4,-82.9 325.1,-88.2" />
<polygon fill="rgba(255,255,255,0.75)" stroke-width="1" stroke-dasharray="" stroke="silver" points="325.1,-48.5 325.1,-28.6 323.4,-19.4 323.4,-24.4 324.0,-27.9 324.0,-40.9 323.4,-37.4 323.4,-43.1 325.1,-48.5" />
<polygon fill="none" stroke-width="1" stroke-dasharray="2" stroke="gray" points="184.8,-156.9 178.4,-153.4 323.4,-153.4 324.0,-156.9 184.8,-156.9" />
<polygon fill="rgba(255,255,255,0.75)" stroke-width="1" stroke-dasharray="" stroke="black" points="184.8,-143.9 324.0,-143.9 323.4,-140.4 178.4,-140.4 184.8,-143.9" />
<polygon fill="none" stroke-width="1" stroke-dasharray="2" stroke="gray" points="184.8,-40.9 178.4,-37.4 323.4,-37.4 324.0,-40.9 184.8,-40.9" />
<polygon fill="rgba(255,255,255,0.75)" stroke-width="1" stroke-dasharray="" stroke="black" points="184.8,-27.9 324.0,-27.9 323.4,-24.4 178.4,-24.4 184.8,-27.9" />
<polygon fill="none" stroke-width="1" stroke-dasharray="2" stroke="gray" points="163.4,-138.5 163.4,-118.7 178.4,-122.5 178.4,-134.7 163.4,-138.5" />
<polygon fill="none" stroke-width="1" stroke-dasharray="2" stroke="gray" points="163.4,-98.8 163.4,-79.0 178.4,-82.8 178.4,-94.9 163.4,-98.8" />
<polygon fill="none" stroke-width="1" stroke-dasharray="2" stroke="gray" points="163.4,-59.1 163.4,-39.2 178.4,-43.1 178.4,-55.2 163.4,-59.1" />
<polygon fill="rgba(255,255,255,0.75)" stroke-width="1" stroke-dasharray="" stroke="black" points="323.4,-55.2 308.4,-55.2 308.4,-43.1 323.4,-43.1 323.4,-37.4 178.4,-37.4 178.4,-43.1 163.4,-39.3 163.4,-39.3 163.4,-59.1 163.4,-59.1 178.4,-55.2 178.4,-82.9 163.4,-79.0 163.4,-98.8 178.4,-94.9 178.4,-122.6 163.4,-118.7 163.4,-118.7 163.4,-138.5 163.4,-138.5 178.4,-134.6 178.4,-140.4 323.4,-140.4 323.4,-134.7 323.4,-134.7 308.4,-134.7 308.4,-122.5 323.4,-122.5 323.4,-94.9 308.4,-94.9 308.4,-82.8 323.4,-82.8 323.4,-82.8 323.4,-55.2" />
<polygon fill="none" stroke-width="1" stroke-dasharray="2" stroke="gray" points="308.4,-134.6 323.4,-134.6 323.4,-158.4 308.4,-158.4 308.4,-153.4 314.1,-153.4 314.1,-140.4 308.4,-140.4 308.4,-134.6" />
<polygon fill="none" stroke-width="1" stroke-dasharray="2" stroke="gray" points="308.4,-122.6 308.4,-94.9 323.4,-94.9 323.4,-122.6 308.4,-122.6" />
<polygon fill="none" stroke-width="1" stroke-dasharray="2" stroke="gray" points="308.4,-82.9 308.4,-55.2 323.4,-55.2 323.4,-82.9 308.4,-82.9" />
<polygon fill="none" stroke-width="1" stroke-dasharray="2" stroke="gray" points="308.4,-43.1 308.4,-37.4 314.1,-37.4 314.1,-24.4 308.4,-24.4 308.4,-19.4 323.4,-19.4 323.4,-43.1 308.4,-43.1" />
<polygon fill="rgba(255,255,255,0.75)" stroke-width="1" stroke-dasharray="" stroke="silver" points="308.8,40.4 310.5,31.2 310.5,11.3 308.8,20.5 308.8,0.6 310.5,-8.6 310.5,-28.4 308.8,-19.2 308.8,-19.2 308.8,-39.1 308.8,-39.1 310.5,-48.3 310.5,-68.1 308.8,-58.9 308.8,-78.8 323.4,-158.4 323.4,-158.4 323.4,-134.6 325.1,-147.7 325.1,-127.9 323.4,-122.6 323.4,-94.9 325.1,-108.0 325.1,-108.0 325.1,-88.2 325.1,-88.2 323.4,-82.8 323.4,-55.2 325.1,-68.3 325.1,-48.5 323.4,-43.1 323.4,-19.4 323.4,-19.4 308.8,60.2 308.8,40.4" />
<polygon fill="rgba(255,255,255,0.75)" stroke-width="1" stroke-dasharray="" stroke="black" points="35.5,-88.0 180.1,-167.6 195.1,-167.6 33.8,-78.8 35.5,-88.0" />
<polygon fill="none" stroke-width="1" stroke-dasharray="2" stroke="gray" points="35.5,51.0 33.8,60.2 195.1,-28.6 180.1,-28.6 35.5,51.0" />
<polygon fill="none" stroke-width="1" stroke-dasharray="2" stroke="gray" points="34.5,-77.3 33.8,-73.8 195.1,-162.6 189.3,-162.6 34.5,-77.3" />
<polygon fill="rgba(255,255,255,0.75)" stroke-width="1" stroke-dasharray="" stroke="black" points="34.5,-64.3 189.3,-149.6 195.1,-149.6 33.8,-60.8 34.5,-64.3" />
<polygon fill="none" stroke-width="1" stroke-dasharray="2" stroke="gray" points="34.5,38.7 33.8,42.2 195.1,-46.6 189.3,-46.6 34.5,38.7" />
<polygon fill="rgba(255,255,255,0.75)" stroke-width="1" stroke-dasharray="" stroke="black" points="34.5,51.7 189.3,-33.6 195.1,-33.6 33.8,55.2 34.5,51.7" />
<polygon fill="none" stroke-width="1" stroke-dasharray="2" stroke="gray" points="180.1,-48.4 163.4,-39.2 163.4,-59.1 180.1,-68.3 180.1,-88.1 163.4,-78.9 163.4,-98.8 180.1,-108.0 180.1,-108.0 180.1,-127.9 180.1,-127.9 163.4,-118.7 163.4,-138.5 180.1,-147.7 180.1,-167.6 35.5,-88.0 35.5,-88.0 35.5,-64.2 18.8,-58.9 18.8,-39.1 35.5,-52.2 35.5,-24.5 18.8,-19.2 18.8,-19.2 18.8,0.6 18.8,0.6 35.5,-12.5 35.5,15.2 18.8,20.5 18.8,40.3 35.5,27.3 35.5,51.0 35.5,51.0 180.1,-28.6 180.1,-48.4" />
<polygon fill="none" stroke-width="1" stroke-dasharray="2" stroke="gray" points="292.1,33.6 293.8,24.4 293.8,36.5 292.1,45.7 292.1,51.4 308.4,-37.4 308.4,-43.1 310.1,-48.5 310.1,-48.5 310.1,-68.3 310.1,-68.3 308.4,-55.2 308.4,-82.8 310.1,-88.2 310.1,-108.0 308.4,-94.9 308.4,-122.6 310.1,-127.9 310.1,-127.9 310.1,-147.7 310.1,-147.7 308.4,-134.6 308.4,-140.4 292.1,-51.6 292.1,-45.9 292.1,-45.9 293.8,-55.1 293.8,-43.0 292.1,-33.8 292.1,-6.2 293.8,-15.4 293.8,-3.2 292.1,6.0 292.1,6.0 292.1,33.6" />
<polygon fill="rgba(255,255,255,0.75)" stroke-width="1" stroke-dasharray="" stroke="black" points="195.1,-64.4 178.4,-55.2 178.4,-43.1 195.1,-52.3 195.1,-46.6 33.8,42.2 33.8,36.5 17.1,49.5 17.1,49.5 17.1,29.7 17.1,29.7 33.8,24.4 33.8,-3.3 17.1,9.8 17.1,-10.0 33.8,-15.3 33.8,-43.0 17.1,-29.9 17.1,-29.9 17.1,-49.7 17.1,-49.7 33.8,-55.0 33.8,-60.8 195.1,-149.6 195.1,-143.8 195.1,-143.8 178.4,-134.7 178.4,-122.5 195.1,-131.7 195.1,-104.1 178.4,-94.9 178.4,-82.8 195.1,-92.0 195.1,-92.0 195.1,-64.4" />
<polygon fill="none" stroke-width="1" stroke-dasharray="2" stroke="gray" points="314.1,-153.4 308.4,-153.4 292.1,-64.6 298.5,-68.1 314.1,-153.4" />
<polygon fill="rgba(255,255,255,0.75)" stroke-width="1" stroke-dasharray="" stroke="black" points="314.1,-140.4 298.5,-55.1 292.1,-51.6 308.4,-140.4 314.1,-140.4" />
<polygon fill="none" stroke-width="1" stroke-dasharray="2" stroke="gray" points="314.1,-37.4 308.4,-37.4 292.1,51.4 298.5,47.9 314.1,-37.4" />
<polygon fill="rgba(255,255,255,0.75)" stroke-width="1" stroke-dasharray="" stroke="black" points="314.1,-24.4 298.5,60.9 292.1,64.4 308.4,-24.4 314.1,-24.4" />
<polygon fill="rgba(255,255,255,0.75)" stroke-width="1" stroke-dasharray="" stroke="black" points="323.4,-158.4 308.8,-78.8 292.1,-69.6 308.4,-158.4 323.4,-158.4" />
<polygon fill="none" stroke-width="1" stroke-dasharray="2" stroke="gray" points="323.4,-19.4 308.4,-19.4 292.1,69.4 308.8,60.2 323.4,-19.4" />
<polygon fill="rgba(255,255,255,0.75)" stroke-width="1" stroke-dasharray="" stroke="black" points="310.5,-68.1 310.5,-48.3 293.8,-43.0 293.8,-55.1 310.5,-68.1" />
<polygon fill="rgba(255,255,255,0.75)" stroke-width="1" stroke-dasharray="" stroke="black" points="310.5,-28.4 310.5,-8.6 293.8,-3.2 293.8,-15.4 310.5,-28.4" />
<polygon fill="rgba(255,255,255,0.75)" stroke-width="1" stroke-dasharray="" stroke="black" points="310.5,11.3 310.5,31.2 293.8,36.5 293.8,24.4 310.5,11.3" />
<polygon fill="rgba(255,255,255,0.75)" stroke-width="1" stroke-dasharray="" stroke="silver" points="310.5,-68.1 310.5,-48.3 308.8,-39.1 308.8,-58.9 310.5,-68.1" />
<polygon fill="rgba(255,255,255,0.75)" stroke-width="1" stroke-dasharray="" stroke="silver" points="310.5,-28.4 310.5,-8.5 308.8,0.6 308.8,-19.2 310.5,-28.4" />
<polygon fill="rgba(255,255,255,0.75)" stroke-width="1" stroke-dasharray="" stroke="silver" points="310.5,11.3 310.5,31.2 308.8,40.4 308.8,20.5 310.5,11.3" />
<polygon fill="none" stroke-width="1" stroke-dasharray="2" stroke="gray" points="18.8,-58.9 35.5,-64.2 35.5,-70.0 29.1,-66.4 29.1,-79.4 35.5,-83.0 35.5,-88.0 18.8,-78.8 18.8,-58.9" />
<polygon fill="none" stroke-width="1" stroke-dasharray="2" stroke="gray" points="18.8,-39.1 18.8,-19.2 35.5,-24.5 35.5,-52.2 18.8,-39.1" />
<polygon fill="none" stroke-width="1" stroke-dasharray="2" stroke="gray" points="18.8,0.6 18.8,20.5 35.5,15.2 35.5,-12.4 18.8,0.6" />
<polygon fill="none" stroke-width="1" stroke-dasharray="2" stroke="gray" points="18.8,40.3 18.8,60.2 35.5,51.0 35.5,46.0 29.1,49.6 29.1,36.6 35.5,33.0 35.5,27.3 18.8,40.3" />
<polygon fill="none" stroke-width="1" stroke-dasharray="2" stroke="gray" points="33.8,-55.0 35.5,-64.2 35.5,-88.0 33.8,-78.8 33.8,-73.8 34.4,-77.3 34.4,-64.3 33.8,-60.8 33.8,-55.0" />
<polygon fill="none" stroke-width="1" stroke-dasharray="2" stroke="gray" points="33.8,-43.0 33.8,-15.3 35.5,-24.5 35.5,-52.2 33.8,-43.0" />
<polygon fill="none" stroke-width="1" stroke-dasharray="2" stroke="gray" points="33.8,-3.3 33.8,24.4 35.5,15.2 35.5,-12.4 33.8,-3.3" />
<polygon fill="none" stroke-width="1" stroke-dasharray="2" stroke="gray" points="33.8,36.5 33.8,42.2 34.4,38.7 34.4,51.7 33.8,55.2 33.8,60.2 35.5,51.0 35.5,27.3 33.8,36.5" />
<polygon fill="rgba(255,255,255,0.75)" stroke-width="1" stroke-dasharray="" stroke="silver" points="308.8,-58.9 292.1,-45.9 293.8,-55.1 310.5,-68.1" />
<polygon fill="none" stroke-width="1" stroke-dasharray="2" stroke="gray" points="310.5,-48.3 293.8,-43.0 292.1,-33.8 308.8,-39.1" />
<polygon fill="rgba(255,255,255,0.75)" stroke-width="1" stroke-dasharray="" stroke="silver" points="308.8,-19.2 292.1,-6.1 293.8,-15.3 310.5,-28.4" />
<polygon fill="none" stroke-width="1" stroke-dasharray="2" stroke="gray" points="310.5,-8.6 293.8,-3.3 292.1,5.9 308.8,0.6" />
<polygon fill="rgba(255,255,255,0.75)" stroke-width="1" stroke-dasharray="" stroke="silver" points="308.8,20.5 292.1,33.6 293.8,24.4 310.5,11.3" />
<polygon fill="none" stroke-width="1" stroke-dasharray="2" stroke="gray" points="310.5,31.2 293.8,36.5 292.1,45.7 308.8,40.3" />
<polygon fill="none" stroke-width="1" stroke-dasharray="2" stroke="gray" points="308.8,-58.9 310.5,-68.1 293.8,-55.1 292.1,-45.9" />
<polygon fill="rgba(255,255,255,0.75)" stroke-width="1" stroke-dasharray="" stroke="black" points="292.1,-33.8 293.8,-43.0 310.5,-48.3 308.8,-39.1" />
<polygon fill="none" stroke-width="1" stroke-dasharray="2" stroke="gray" points="308.8,-19.2 310.5,-28.4 293.8,-15.3 292.1,-6.1" />
<polygon fill="rgba(255,255,255,0.75)" stroke-width="1" stroke-dasharray="" stroke="black" points="292.1,5.9 293.8,-3.3 310.5,-8.6 308.8,0.6" />
<polygon fill="none" stroke-width="1" stroke-dasharray="2" stroke="gray" points="308.8,20.5 310.5,11.3 293.8,24.4 292.1,33.6" />
<polygon fill="rgba(255,255,255,0.75)" stroke-width="1" stroke-dasharray="" stroke="black" points="292.1,45.7 293.8,36.5 310.5,31.2 308.8,40.3" />
<polygon fill="none" stroke-width="1" stroke-dasharray="2" stroke="gray" points="18.8,-58.9 17.1,-49.7 33.8,-55.0 35.5,-64.2" />
<polygon fill="rgba(255,255,255,0.75)" stroke-width="1" stroke-dasharray="" stroke="silver" points="35.5,-52.2 33.8,-43.0 17.1,-29.9 18.8,-39.1" />
<polygon fill="none" stroke-width="1" stroke-dasharray="2" stroke="gray" points="18.8,-19.2 17.1,-10.0 33.8,-15.3 35.5,-24.5" />
<polygon fill="rgba(255,255,255,0.75)" stroke-width="1" stroke-dasharray="" stroke="silver" points="35.5,-12.4 33.8,-3.2 17.1,9.8 18.8,0.6" />
<polygon fill="none" stroke-width="1" stroke-dasharray="2" stroke="gray" points="18.8,20.5 17.1,29.7 33.8,24.4 35.5,15.2" />
<polygon fill="rgba(255,255,255,0.75)" stroke-width="1" stroke-dasharray="" stroke="silver" points="35.5,27.3 33.8,36.5 17.1,49.5 18.8,40.4" />
<polygon fill="rgba(255,255,255,0.75)" stroke-width="1" stroke-dasharray="" stroke="black" points="18.8,-58.9 35.5,-64.2 33.8,-55.0 17.1,-49.7" />
<polygon fill="none" stroke-width="1" stroke-dasharray="2" stroke="gray" points="17.1,-29.9 33.8,-43.0 35.5,-52.2 18.8,-39.1" />
<polygon fill="rgba(255,255,255,0.75)" stroke-width="1" stroke-dasharray="" stroke="black" points="18.8,-19.2 35.5,-24.5 33.8,-15.3 17.1,-10.0" />
<polygon fill="none" stroke-width="1" stroke-dasharray="2" stroke="gray" points="17.1,9.8 33.8,-3.2 35.5,-12.4 18.8,0.6" />
<polygon fill="rgba(255,255,255,0.75)" stroke-width="1" stroke-dasharray="" stroke="black" points="18.8,20.5 35.5,15.2 33.8,24.4 17.1,29.7" />
<polygon fill="none" stroke-width="1" stroke-dasharray="2" stroke="gray" points="17.1,49.5 33.8,36.5 35.5,27.3 18.8,40.4" />
<polygon fill="rgba(255,255,255,0.75)" stroke-width="1" stroke-dasharray="" stroke="silver" points="293.8,-55.0 292.1,-45.8 292.1,-69.6 293.8,-78.8 293.8,-73.8 293.1,-70.3 293.1,-57.3 293.8,-60.8 293.8,-55.0" />
<polygon fill="rgba(255,255,255,0.75)" stroke-width="1" stroke-dasharray="" stroke="silver" points="293.8,-43.0 293.8,-15.3 292.1,-6.1 292.1,-33.8 293.8,-43.0" />
<polygon fill="rgba(255,255,255,0.75)" stroke-width="1" stroke-dasharray="" stroke="silver" points="293.8,-3.3 293.8,24.4 292.1,33.6 292.1,5.9 293.8,-3.3" />
<polygon fill="rgba(255,255,255,0.75)" stroke-width="1" stroke-dasharray="" stroke="silver" points="293.8,36.5 293.8,42.2 293.1,45.7 293.1,58.7 293.8,55.2 293.8,60.2 292.1,69.4 292.1,45.6 293.8,36.5" />
<polygon fill="rgba(255,255,255,0.75)" stroke-width="1" stroke-dasharray="" stroke="black" points="308.8,-58.9 292.1,-45.9 292.1,-51.6 298.5,-55.1 298.5,-68.1 292.1,-64.6 292.1,-69.6 308.8,-78.8 308.8,-58.9" />
<polygon fill="rgba(255,255,255,0.75)" stroke-width="1" stroke-dasharray="" stroke="black" points="308.8,-39.1 308.8,-19.2 292.1,-6.1 292.1,-33.8 308.8,-39.1" />
<polygon fill="rgba(255,255,255,0.75)" stroke-width="1" stroke-dasharray="" stroke="black" points="308.8,0.6 308.8,20.5 292.1,33.6 292.1,5.9 308.8,0.6" />
<polygon fill="rgba(255,255,255,0.75)" stroke-width="1" stroke-dasharray="" stroke="black" points="308.8,40.3 308.8,60.2 292.1,69.4 292.1,64.4 298.5,60.9 298.5,47.9 292.1,51.4 292.1,45.6 308.8,40.3" />
<polygon fill="none" stroke-width="1" stroke-dasharray="2" stroke="gray" points="17.1,-49.7 17.1,-29.9 33.8,-42.9 33.8,-55.1 17.1,-49.7" />
<polygon fill="none" stroke-width="1" stroke-dasharray="2" stroke="gray" points="17.1,-10.0 17.1,9.8 33.8,-3.2 33.8,-15.3 17.1,-10.0" />
<polygon fill="none" stroke-width="1" stroke-dasharray="2" stroke="gray" points="17.1,29.7 17.1,49.6 33.8,36.5 33.8,24.4 17.1,29.7" />
<polygon fill="none" stroke-width="1" stroke-dasharray="2" stroke="gray" points="17.1,-49.7 17.1,-29.9 18.8,-39.1 18.8,-58.9 17.1,-49.7" />
<polygon fill="none" stroke-width="1" stroke-dasharray="2" stroke="gray" points="17.1,-10.0 17.1,9.8 18.8,0.7 18.8,-19.2 17.1,-10.0" />
<polygon fill="none" stroke-width="1" stroke-dasharray="2" stroke="gray" points="17.1,29.7 17.1,49.6 18.8,40.4 18.8,20.5 17.1,29.7" />
<polygon fill="none" stroke-width="1" stroke-dasharray="2" stroke="gray" points="13.4,5.8 19.2,5.8 35.5,-83.0 29.1,-79.4 13.4,5.8" />
<polygon fill="rgba(255,255,255,0.75)" stroke-width="1" stroke-dasharray="" stroke="black" points="13.4,18.8 29.1,-66.4 35.5,-70.0 19.2,18.8 13.4,18.8" />
<polygon fill="none" stroke-width="1" stroke-dasharray="2" stroke="gray" points="13.4,121.8 19.2,121.8 35.5,33.0 29.1,36.6 13.4,121.8" />
<polygon fill="rgba(255,255,255,0.75)" stroke-width="1" stroke-dasharray="" stroke="black" points="13.4,134.8 29.1,49.6 35.5,46.0 19.2,134.8 13.4,134.8" />
<polygon fill="rgba(255,255,255,0.75)" stroke-width="1" stroke-dasharray="" stroke="black" points="4.2,0.8 18.8,-78.8 35.5,-88.0 19.2,0.8 4.2,0.8" />
<polygon fill="none" stroke-width="1" stroke-dasharray="2" stroke="gray" points="4.2,139.8 19.2,139.8 35.5,51.0 18.8,60.2 4.2,139.8" />
<polygon fill="none" stroke-width="1" stroke-dasharray="2" stroke="gray" points="132.5,113.2 149.2,104.0 149.2,116.1 132.5,125.3 132.5,131.0 293.8,42.2 293.8,36.5 310.5,31.1 310.5,31.1 310.5,11.3 310.5,11.3 293.8,24.4 293.8,-3.3 310.5,-8.6 310.5,-28.4 293.8,-15.3 293.8,-43.0 310.5,-48.3 310.5,-48.3 310.5,-68.1 310.5,-68.1 293.8,-55.0 293.8,-60.8 132.5,28.0 132.5,33.7 132.5,33.7 149.2,24.5 149.2,36.6 132.5,45.8 132.5,73.4 149.2,64.2 149.2,76.4 132.5,85.6 132.5,85.6 132.5,113.2" />
<polygon fill="rgba(255,255,255,0.75)" stroke-width="1" stroke-dasharray="" stroke="silver" points="35.5,15.2 33.8,24.4 33.8,36.5 35.5,27.3 35.5,33.0 19.2,121.8 19.2,116.0 17.5,129.1 17.5,129.1 17.5,109.3 17.5,109.3 19.2,104.0 19.2,76.3 17.5,89.4 17.5,69.6 19.2,64.3 19.2,36.6 17.5,49.7 17.5,49.7 17.5,29.9 17.5,29.9 19.2,24.6 19.2,18.8 35.5,-70.0 35.5,-64.2 35.5,-64.2 33.8,-55.0 33.8,-42.9 35.5,-52.1 35.5,-24.5 33.8,-15.3 33.8,-3.2 35.5,-12.4 35.5,-12.4 35.5,15.2" />
<polygon fill="rgba(255,255,255,0.75)" stroke-width="1" stroke-dasharray="" stroke="black" points="147.5,129.2 164.2,120.0 164.2,100.1 147.5,109.3 147.5,89.4 164.2,80.2 164.2,60.4 147.5,69.6 147.5,69.6 147.5,49.7 147.5,49.7 164.2,40.5 164.2,20.6 147.5,29.8 147.5,10.0 292.1,-69.6 292.1,-69.6 292.1,-45.8 308.8,-58.9 308.8,-39.1 292.1,-33.8 292.1,-6.1 308.8,-19.2 308.8,-19.2 308.8,0.6 308.8,0.6 292.1,5.9 292.1,33.6 308.8,20.5 308.8,40.3 292.1,45.7 292.1,69.4 292.1,69.4 147.5,149.0 147.5,129.2" />
<polygon fill="none" stroke-width="1" stroke-dasharray="2" stroke="gray" points="293.1,-70.3 293.8,-73.8 132.5,15.0 138.2,15.0 293.1,-70.3" />
<polygon fill="rgba(255,255,255,0.75)" stroke-width="1" stroke-dasharray="" stroke="black" points="293.1,-57.3 138.2,28.0 132.5,28.0 293.8,-60.8 293.1,-57.3" />
<polygon fill="none" stroke-width="1" stroke-dasharray="2" stroke="gray" points="293.1,45.7 293.8,42.2 132.5,131.0 138.2,131.0 293.1,45.7" />
<polygon fill="rgba(255,255,255,0.75)" stroke-width="1" stroke-dasharray="" stroke="black" points="293.1,58.7 138.2,144.0 132.5,144.0 293.8,55.2 293.1,58.7" />
<polygon fill="rgba(255,255,255,0.75)" stroke-width="1" stroke-dasharray="" stroke="black" points="292.1,-69.6 147.5,10.0 132.5,10.0 293.8,-78.8 292.1,-69.6" />
<polygon fill="none" stroke-width="1" stroke-dasharray="2" stroke="gray" points="292.1,69.4 293.8,60.2 132.5,149.0 147.5,149.0 292.1,69.4" />
<polygon fill="none" stroke-width="1" stroke-dasharray="2" stroke="gray" points="18.8,40.4 17.1,49.6 17.1,29.7 18.8,20.5 18.8,0.7 17.1,9.8 17.1,-10.0 18.8,-19.2 18.8,-19.2 18.8,-39.1 18.8,-39.1 17.1,-29.9 17.1,-49.7 18.8,-58.9 18.8,-78.8 4.2,0.8 4.2,0.8 4.2,24.6 2.5,29.9 2.5,49.7 4.2,36.6 4.2,64.3 2.5,69.6 2.5,69.6 2.5,89.4 2.5,89.4 4.2,76.3 4.2,104.0 2.5,109.3 2.5,129.1 4.2,116.0 4.2,139.8 4.2,139.8 18.8,60.2 18.8,40.4" />
<polygon fill="rgba(255,255,255,0.75)" stroke-width="1" stroke-dasharray="" stroke="black" points="19.2,24.6 4.2,24.6 4.2,0.8 19.2,0.8 19.2,5.8 13.4,5.8 13.4,18.8 19.2,18.8 19.2,24.6" />
<polygon fill="rgba(255,255,255,0.75)" stroke-width="1" stroke-dasharray="" stroke="black" points="19.2,116.1 19.2,121.8 13.4,121.8 13.4,134.8 19.2,134.8 19.2,139.8 4.2,139.8 4.2,116.1 19.2,116.1" />
<polygon fill="rgba(255,255,255,0.75)" stroke-width="1" stroke-dasharray="" stroke="black" points="19.2,36.6 19.2,64.3 4.2,64.3 4.2,36.6 19.2,36.6" />
<polygon fill="rgba(255,255,255,0.75)" stroke-width="1" stroke-dasharray="" stroke="black" points="19.2,76.3 19.2,104.0 4.2,104.0 4.2,76.3 19.2,76.3" />
<polygon fill="none" stroke-width="1" stroke-dasharray="2" stroke="gray" points="4.2,104.0 19.2,104.0 19.2,116.1 4.2,116.1 4.2,121.8 149.2,121.8 149.2,116.1 164.2,119.9 164.2,119.9 164.2,100.1 164.2,100.1 149.2,104.0 149.2,76.3 164.2,80.2 164.2,60.4 149.2,64.3 149.2,36.6 164.2,40.5 164.2,40.5 164.2,20.7 164.2,20.7 149.2,24.6 149.2,18.8 4.2,18.8 4.2,24.5 4.2,24.5 19.2,24.5 19.2,36.6 4.2,36.6 4.2,64.3 19.2,64.3 19.2,76.4 4.2,76.4 4.2,76.4 4.2,104.0" />
<polygon fill="rgba(255,255,255,0.75)" stroke-width="1" stroke-dasharray="" stroke="black" points="164.2,20.7 164.2,40.5 149.2,36.6 149.2,24.5 164.2,20.7" />
<polygon fill="rgba(255,255,255,0.75)" stroke-width="1" stroke-dasharray="" stroke="black" points="164.2,60.4 164.2,80.2 149.2,76.4 149.2,64.3 164.2,60.4" />
<polygon fill="rgba(255,255,255,0.75)" stroke-width="1" stroke-dasharray="" stroke="black" points="164.2,100.1 164.2,120.0 149.2,116.1 149.2,104.0 164.2,100.1" />
<polygon fill="none" stroke-width="1" stroke-dasharray="2" stroke="gray" points="142.7,9.3 149.2,5.8 4.2,5.8 3.5,9.3 142.7,9.3" />
<polygon fill="rgba(255,255,255,0.75)" stroke-width="1" stroke-dasharray="" stroke="black" points="142.7,22.3 3.5,22.3 4.2,18.8 149.2,18.8 142.7,22.3" />
<polygon fill="none" stroke-width="1" stroke-dasharray="2" stroke="gray" points="142.7,125.3 149.2,121.8 4.2,121.8 3.5,125.3 142.7,125.3" />
<polygon fill="rgba(255,255,255,0.75)" stroke-width="1" stroke-dasharray="" stroke="black" points="142.7,138.3 3.5,138.3 4.2,134.8 149.2,134.8 142.7,138.3" />
<polygon fill="rgba(255,255,255,0.75)" stroke-width="1" stroke-dasharray="" stroke="silver" points="2.5,29.9 4.2,24.5 19.2,24.5 17.5,29.9" />
<polygon fill="none" stroke-width="1" stroke-dasharray="2" stroke="gray" points="17.5,49.7 19.2,36.6 4.2,36.6 2.5,49.7" />
<polygon fill="rgba(255,255,255,0.75)" stroke-width="1" stroke-dasharray="" stroke="silver" points="2.5,69.6 4.2,64.3 19.2,64.3 17.5,69.6" />
<polygon fill="none" stroke-width="1" stroke-dasharray="2" stroke="gray" points="17.5,89.4 19.2,76.4 4.2,76.4 2.5,89.4" />
<polygon fill="rgba(255,255,255,0.75)" stroke-width="1" stroke-dasharray="" stroke="silver" points="2.5,109.3 4.2,104.0 19.2,104.0 17.5,109.3" />
<polygon fill="none" stroke-width="1" stroke-dasharray="2" stroke="gray" points="17.5,129.1 19.2,116.1 4.2,116.1 2.5,129.1" />
<polygon fill="none" stroke-width="1" stroke-dasharray="2" stroke="gray" points="2.5,29.9 4.2,24.6 4.2,18.8 3.5,22.3 3.5,9.3 4.2,5.8 4.2,0.8 2.5,10.0 2.5,29.9" />
<polygon fill="none" stroke-width="1" stroke-dasharray="2" stroke="gray" points="2.5,49.7 2.5,69.6 4.2,64.3 4.2,36.6 2.5,49.7" />
<polygon fill="none" stroke-width="1" stroke-dasharray="2" stroke="gray" points="2.5,89.4 2.5,109.3 4.2,104.0 4.2,76.3 2.5,89.4" />
<polygon fill="none" stroke-width="1" stroke-dasharray="2" stroke="gray" points="2.5,129.1 2.5,149.0 4.2,139.8 4.2,134.8 3.5,138.3 3.5,125.3 4.2,121.8 4.2,116.1 2.5,129.1" />
<polygon fill="none" stroke-width="1" stroke-dasharray="2" stroke="gray" points="2.5,29.9 17.5,29.9 19.2,24.5 4.2,24.5" />
<polygon fill="rgba(255,255,255,0.75)" stroke-width="1" stroke-dasharray="" stroke="black" points="4.2,36.6 19.2,36.6 17.5,49.7 2.5,49.7" />
<polygon fill="none" stroke-width="1" stroke-dasharray="2" stroke="gray" points="2.5,69.6 17.5,69.6 19.2,64.3 4.2,64.3" />
<polygon fill="rgba(255,255,255,0.75)" stroke-width="1" stroke-dasharray="" stroke="black" points="4.2,76.4 19.2,76.4 17.5,89.4 2.5,89.4" />
<polygon fill="none" stroke-width="1" stroke-dasharray="2" stroke="gray" points="2.5,109.3 17.5,109.3 19.2,104.0 4.2,104.0" />
<polygon fill="rgba(255,255,255,0.75)" stroke-width="1" stroke-dasharray="" stroke="black" points="4.2,116.1 19.2,116.1 17.5,129.1 2.5,129.1" />
<polygon fill="none" stroke-width="1" stroke-dasharray="2" stroke="gray" points="17.5,29.9 17.5,49.7 19.2,36.6 19.2,24.5 17.5,29.9" />
<polygon fill="none" stroke-width="1" stroke-dasharray="2" stroke="gray" points="17.5,69.6 17.5,89.4 19.2,76.4 19.2,64.3 17.5,69.6" />
<polygon fill="none" stroke-width="1" stroke-dasharray="2" stroke="gray" points="17.5,109.3 17.5,129.1 19.2,116.1 19.2,104.0 17.5,109.3" />
<polygon fill="rgba(255,255,255,0.75)" stroke-width="1" stroke-dasharray="" stroke="black" points="132.5,10.0 2.5,10.0 4.2,0.8 149.2,0.8 132.5,10.0" />
<polygon fill="none" stroke-width="1" stroke-dasharray="2" stroke="gray" points="132.5,149.0 149.2,139.8 4.2,139.8 2.5,149.0 132.5,149.0" />
<polygon fill="rgba(255,255,255,0.75)" stroke-width="1" stroke-dasharray="" stroke="black" points="149.2,24.6 132.5,33.8 132.5,10.0 149.2,0.8 149.2,5.8 142.7,9.3 142.7,22.3 149.2,18.8 149.2,24.6" />
<polygon fill="rgba(255,255,255,0.75)" stroke-width="1" stroke-dasharray="" stroke="black" points="149.2,36.6 149.2,64.3 132.5,73.5 132.5,45.8 149.2,36.6" />
<polygon fill="rgba(255,255,255,0.75)" stroke-width="1" stroke-dasharray="" stroke="black" points="149.2,76.3 149.2,104.0 132.5,113.2 132.5,85.5 149.2,76.3" />
<polygon fill="rgba(255,255,255,0.75)" stroke-width="1" stroke-dasharray="" stroke="black" points="149.2,116.1 149.2,121.8 142.7,125.3 142.7,138.3 149.2,134.8 149.2,139.8 132.5,149.0 132.5,125.2 149.2,116.1" />
<polygon fill="rgba(255,255,255,0.75)" stroke-width="1" stroke-dasharray="" stroke="silver" points="147.5,29.9 132.5,33.7 149.2,24.5 164.2,20.7" />
<polygon fill="none" stroke-width="1" stroke-dasharray="2" stroke="gray" points="164.2,40.5 149.2,36.6 132.5,45.8 147.5,49.7" />
<polygon fill="rgba(255,255,255,0.75)" stroke-width="1" stroke-dasharray="" stroke="silver" points="147.5,69.6 132.5,73.5 149.2,64.3 164.2,60.4" />
<polygon fill="none" stroke-width="1" stroke-dasharray="2" stroke="gray" points="164.2,80.2 149.2,76.4 132.5,85.5 147.5,89.4" />
<polygon fill="rgba(255,255,255,0.75)" stroke-width="1" stroke-dasharray="" stroke="silver" points="147.5,109.3 132.5,113.2 149.2,104.0 164.2,100.1" />
<polygon fill="none" stroke-width="1" stroke-dasharray="2" stroke="gray" points="164.2,120.0 149.2,116.1 132.5,125.3 147.5,129.1" />
<polygon fill="rgba(255,255,255,0.75)" stroke-width="1" stroke-dasharray="" stroke="black" points="164.2,20.7 164.2,40.5 147.5,49.7 147.5,29.8 164.2,20.7" />
<polygon fill="rgba(255,255,255,0.75)" stroke-width="1" stroke-dasharray="" stroke="black" points="164.2,60.4 164.2,80.2 147.5,89.4 147.5,69.6 164.2,60.4" />
<polygon fill="rgba(255,255,255,0.75)" stroke-width="1" stroke-dasharray="" stroke="black" points="164.2,100.1 164.2,120.0 147.5,129.2 147.5,109.3 164.2,100.1" />
<polygon fill="none" stroke-width="1" stroke-dasharray="2" stroke="gray" points="147.5,29.9 164.2,20.7 149.2,24.5 132.5,33.7" />
<polygon fill="rgba(255,255,255,0.75)" stroke-width="1" stroke-dasharray="" stroke="black" points="132.5,45.8 149.2,36.6 164.2,40.5 147.5,49.7" />
<polygon fill="none" stroke-width="1" stroke-dasharray="2" stroke="gray" points="147.5,69.6 164.2,60.4 149.2,64.3 132.5,73.5" />
<polygon fill="rgba(255,255,255,0.75)" stroke-width="1" stroke-dasharray="" stroke="black" points="132.5,85.5 149.2,76.4 164.2,80.2 147.5,89.4" />
<polygon fill="none" stroke-width="1" stroke-dasharray="2" stroke="gray" points="147.5,109.3 164.2,100.1 149.2,104.0 132.5,113.2" />
<polygon fill="rgba(255,255,255,0.75)" stroke-width="1" stroke-dasharray="" stroke="black" points="132.5,125.3 149.2,116.1 164.2,120.0 147.5,129.1" />
<polygon fill="rgba(255,255,255,0.75)" stroke-width="1" stroke-dasharray="" stroke="black" points="17.5,29.8 17.5,49.7 2.5,49.7 2.5,29.8 17.5,29.8" />
<polygon fill="rgba(255,255,255,0.75)" stroke-width="1" stroke-dasharray="" stroke="black" points="17.5,69.6 17.5,89.4 2.5,89.4 2.5,69.6 17.5,69.6" />
<polygon fill="rgba(255,255,255,0.75)" stroke-width="1" stroke-dasharray="" stroke="black" points="17.5,109.3 17.5,129.2 2.5,129.2 2.5,109.3 17.5,109.3" />
<polygon fill="rgba(255,255,255,0.75)" stroke-width="1" stroke-dasharray="" stroke="black" points="147.5,29.9 132.5,33.7 132.5,28.0 138.2,28.0 138.2,15.0 132.5,15.0 132.5,10.0 147.5,10.0 147.5,29.9" />
<polygon fill="rgba(255,255,255,0.75)" stroke-width="1" stroke-dasharray="" stroke="black" points="147.5,49.7 147.5,69.6 132.5,73.5 132.5,45.8 147.5,49.7" />
<polygon fill="rgba(255,255,255,0.75)" stroke-width="1" stroke-dasharray="" stroke="black" points="147.5,89.4 147.5,109.3 132.5,113.2 132.5,85.5 147.5,89.4" />
<polygon fill="rgba(255,255,255,0.75)" stroke-width="1" stroke-dasharray="" stroke="black" points="147.5,129.1 147.5,149.0 132.5,149.0 132.5,144.0 138.2,144.0 138.2,131.0 132.5,131.0 132.5,125.3 147.5,129.1" />
<polygon fill="rgba(255,255,255,0.75)" stroke-width="1" stroke-dasharray="" stroke="black" points="2.5,129.2 17.5,129.2 17.5,109.3 2.5,109.3 2.5,89.4 17.5,89.4 17.5,69.6 2.5,69.6 2.5,69.6 2.5,49.7 2.5,49.7 17.5,49.7 17.5,29.8 2.5,29.8 2.5,10.0 132.5,10.0 132.5,10.0 132.5,33.8 147.5,29.9 147.5,49.7 132.5,45.8 132.5,73.5 147.5,69.6 147.5,69.6 147.5,89.4 147.5,89.4 132.5,85.5 132.5,113.2 147.5,109.3 147.5,129.1 132.5,125.2 132.5,149.0 132.5,149.0 2.5,149.0 2.5,129.2" />
<polygon fill="rgba(192,192,192,0.5)" stroke-width="1" stroke-dasharray="" stroke="none" points="195.1,-124.6 325.1,-124.6 325.1,-119.6 195.1,-119.6 195.1,-124.6" />
<polygon fill="rgba(192,192,192,0.5)" stroke-width="1" stroke-dasharray="" stroke="none" points="195.1,-76.6 325.1,-76.6 325.1,-71.6 195.1,-71.6 195.1,-76.6" />
<polygon fill="rgba(192,192,192,0.5)" stroke-width="1" stroke-dasharray="" stroke="none" points="35.5,-45.0 180.1,-124.6 180.1,-119.6 35.5,-40.0 35.5,-45.0" />
<polygon fill="rgba(192,192,192,0.5)" stroke-width="1" stroke-dasharray="" stroke="none" points="35.5,3.0 180.1,-76.6 180.1,-71.6 35.5,8.0 35.5,3.0" />
<polygon fill="rgba(192,192,192,0.5)" stroke-width="1" stroke-dasharray="" stroke="none" points="323.4,-115.4 308.8,-35.8 308.8,-30.8 323.4,-110.4 323.4,-115.4" />
<polygon fill="rgba(192,192,192,0.5)" stroke-width="1" stroke-dasharray="" stroke="none" points="323.4,-67.4 308.8,12.2 308.8,17.2 323.4,-62.4 323.4,-67.4" />
<polygon fill="rgba(192,192,192,0.5)" stroke-width="1" stroke-dasharray="" stroke="none" points="4.2,43.8 18.8,-35.8 18.8,-30.8 4.2,48.8 4.2,43.8" />
<polygon fill="rgba(192,192,192,0.5)" stroke-width="1" stroke-dasharray="" stroke="none" points="4.2,91.8 18.8,12.2 18.8,17.2 4.2,96.8 4.2,91.8" />
<polygon fill="rgba(192,192,192,0.5)" stroke-width="1" stroke-dasharray="" stroke="none" points="292.1,-26.6 147.5,53.0 147.5,58.0 292.1,-21.6 292.1,-26.6" />
<polygon fill="rgba(192,192,192,0.5)" stroke-width="1" stroke-dasharray="" stroke="none" points="292.1,21.4 147.5,101.0 147.5,106.0 292.1,26.4 292.1,21.4" />
<polygon fill="rgba(192,192,192,0.5)" stroke-width="1" stroke-dasharray="" stroke="none" points="132.5,53.0 2.5,53.0 2.5,58.0 132.5,58.0 132.5,53.0" />
<polygon fill="rgba(192,192,192,0.5)" stroke-width="1" stroke-dasharray="" stroke="none" points="132.5,101.0 2.5,101.0 2.5,106.0 132.5,106.0 132.5,101.0" />
</svg>
