<svg width="1100" viewBox="0.0 0.0 550.0 524.6" xmlns="http://www.w3.org/2000/svg">
<polygon fill="none" stroke-width="1" stroke-dasharray="2" stroke="gray" points="19.19238815542512,29.192388155425117 19.19238815542512,34.19238815542512 179.1923881554251,34.19238815542512 179.1923881554251,29.192388155425117" />
<polygon fill="none" stroke-width="1" stroke-dasharray="2" stroke="gray" points="19.19238815542512,47.19238815542512 19.19238815542512,150.1923881554251 179.1923881554251,150.1923881554251 179.1923881554251,47.19238815542512" />
<polygon fill="none" stroke-width="1" stroke-dasharray="2" stroke="gray" points="19.19238815542512,163.1923881554251 19.19238815542512,168.1923881554251 179.1923881554251,168.1923881554251 179.1923881554251,163.1923881554251" />
<polygon fill="rgba(192,192,192,0.75)" stroke-width="1" stroke-dasharray="" stroke="black" points="18.54360559544051,30.65685424949238 172.77010290354426,30.65685424949238 179.1923881554251,34.19238815542512 19.19238815542512,34.19238815542512" />
<polygon fill="none" stroke-width="1" stroke-dasharray="2" stroke="gray" points="19.19238815542512,47.19238815542512 179.1923881554251,47.19238815542512 172.77010290354426,43.65685424949238 18.54360559544051,43.65685424949238" />
<polygon fill="rgba(192,192,192,0.75)" stroke-width="1" stroke-dasharray="" stroke="black" points="18.54360559544051,146.65685424949237 172.77010290354426,146.65685424949237 179.1923881554251,150.1923881554251 19.19238815542512,150.1923881554251" />
<polygon fill="none" stroke-width="1" stroke-dasharray="2" stroke="gray" points="19.19238815542512,163.1923881554251 179.1923881554251,163.1923881554251 172.77010290354426,159.65685424949237 18.54360559544051,159.65685424949237" />
<polygon fill="none" stroke-width="1" stroke-dasharray="2" stroke="gray" points="18.54360559544051,30.65685424949238 18.54360559544051,43.65685424949238 172.77010290354426,43.65685424949238 172.77010290354426,30.65685424949238" />
<polygon fill="none" stroke-width="1" stroke-dasharray="2" stroke="gray" points="18.54360559544051,146.65685424949237 18.54360559544051,159.65685424949237 172.77010290354426,159.65685424949237 172.77010290354426,146.65685424949237" />
<polygon fill="none" stroke-width="1" stroke-dasharray="2" stroke="gray" points="17.505553499465137,20.0 17.505553499465137,159.0 19.19238815542512,168.1923881554251 19.19238815542512,163.1923881554251 18.54360559544051,159.65685424949237 18.54360559544051,146.65685424949237 19.19238815542512,150.1923881554251 19.19238815542512,47.19238815542512 18.54360559544051,43.65685424949238 18.54360559544051,30.65685424949238 19.19238815542512,34.19238815542512 19.19238815542512,29.192388155425117" />
<polygon fill="none" stroke-width="1" stroke-dasharray="2" stroke="gray" points="19.19238815542512,29.192388155425117 179.1923881554251,29.192388155425117 162.49444650053488,20.0 17.505553499465137,20.0" />
<polygon fill="rgba(192,192,192,0.75)" stroke-width="1" stroke-dasharray="" stroke="black" points="17.505553499465137,159.0 162.49444650053488,159.0 179.1923881554251,168.1923881554251 19.19238815542512,168.1923881554251" />
<polygon fill="rgba(255,255,255,0.75)" stroke-width="1" stroke-dasharray="" stroke="black" points="179.1923881554251,29.192388155425117 179.1923881554251,34.19238815542512 172.77010290354426,30.65685424949238 172.77010290354426,43.65685424949238 179.1923881554251,47.19238815542512 179.1923881554251,150.1923881554251 172.77010290354426,146.65685424949237 172.77010290354426,159.65685424949237 179.1923881554251,163.1923881554251 179.1923881554251,168.1923881554251 162.49444650053488,159.0 162.49444650053488,20.0" />
<polygon fill="rgba(255,255,255,0.75)" stroke-width="1" stroke-dasharray="" stroke="black" points="17.505553499465137,20.0 162.49444650053488,20.0 162.49444650053488,159.0 17.505553499465137,159.0" />
<polygon fill="rgba(192,192,192,0.5)" stroke-width="1" stroke-dasharray="" stroke="none" points="162.49444650053488,63.0 179.1923881554251,72.19238815542512 179.1923881554251,77.19238815542512 162.49444650053488,68.0" />
<polygon fill="rgba(192,192,192,0.5)" stroke-width="1" stroke-dasharray="" stroke="none" points="162.49444650053488,111.0 179.1923881554251,120.19238815542512 179.1923881554251,125.19238815542512 162.49444650053488,116.0" />
<polygon fill="rgba(192,192,192,0.5)" stroke-width="1" stroke-dasharray="" stroke="none" points="17.505553499465137,63.0 162.49444650053488,63.0 162.49444650053488,68.0 17.505553499465137,68.0" />
<polygon fill="rgba(192,192,192,0.5)" stroke-width="1" stroke-dasharray="" stroke="none" points="17.505553499465137,111.0 162.49444650053488,111.0 162.49444650053488,116.0 17.505553499465137,116.0" />
<polygon fill="none" stroke-width="1" stroke-dasharray="2" stroke="gray" points="11.686834655959982,197.3847763108502 11.686834655959982,202.3847763108502 171.69794165489023,202.3847763108502 171.69794165489023,197.3847763108502" />
<polygon fill="none" stroke-width="1" stroke-dasharray="2" stroke="gray" points="11.686834655959982,215.3847763108502 11.686834655959982,318.3847763108502 171.69794165489023,318.3847763108502 171.69794165489023,215.3847763108502" />
<polygon fill="none" stroke-width="1" stroke-dasharray="2" stroke="gray" points="11.686834655959982,331.3847763108502 11.686834655959982,336.3847763108502 171.69794165489023,336.3847763108502 171.69794165489023,331.3847763108502" />
<polygon fill="rgba(192,192,192,0.75)" stroke-width="1" stroke-dasharray="" stroke="black" points="11.038052095975374,198.84924240491748 165.27565640300938,198.84924240491748 171.69794165489023,202.3847763108502 11.686834655959982,202.3847763108502" />
<polygon fill="none" stroke-width="1" stroke-dasharray="2" stroke="gray" points="11.686834655959982,215.3847763108502 171.69794165489023,215.3847763108502 165.27565640300938,211.84924240491748 11.038052095975374,211.84924240491748" />
<polygon fill="rgba(192,192,192,0.75)" stroke-width="1" stroke-dasharray="" stroke="black" points="11.038052095975374,314.84924240491745 165.27565640300938,314.84924240491745 171.69794165489023,318.3847763108502 11.686834655959982,318.3847763108502" />
<polygon fill="none" stroke-width="1" stroke-dasharray="2" stroke="gray" points="11.686834655959982,331.3847763108502 171.69794165489023,331.3847763108502 165.27565640300938,327.84924240491745 11.038052095975374,327.84924240491745" />
<polygon fill="none" stroke-width="1" stroke-dasharray="2" stroke="gray" points="11.038052095975374,198.84924240491748 11.038052095975374,211.84924240491748 165.27565640300938,211.84924240491748 165.27565640300938,198.84924240491748" />
<polygon fill="none" stroke-width="1" stroke-dasharray="2" stroke="gray" points="11.038052095975374,314.84924240491745 11.038052095975374,327.84924240491745 165.27565640300938,327.84924240491745 165.27565640300938,314.84924240491745" />
<polygon fill="none" stroke-width="1" stroke-dasharray="2" stroke="gray" points="10.0,188.1923881554251 10.0,327.1923881554251 11.686834655959982,336.3847763108502 11.686834655959982,331.3847763108502 11.038052095975374,327.84924240491745 11.038052095975374,314.84924240491745 11.686834655959982,318.3847763108502 11.686834655959982,215.3847763108502 11.038052095975374,211.84924240491748 11.038052095975374,198.84924240491748 11.686834655959982,202.3847763108502 11.686834655959982,197.3847763108502" />
<polygon fill="none" stroke-width="1" stroke-dasharray="2" stroke="gray" points="11.686834655959982,197.3847763108502 171.69794165489023,197.3847763108502 155.0,188.1923881554251 10.0,188.1923881554251" />
<polygon fill="rgba(192,192,192,0.75)" stroke-width="1" stroke-dasharray="" stroke="black" points="10.0,327.1923881554251 155.0,327.1923881554251 171.69794165489023,336.3847763108502 11.686834655959982,336.3847763108502" />
<polygon fill="rgba(255,255,255,0.75)" stroke-width="1" stroke-dasharray="" stroke="black" points="171.69794165489023,197.3847763108502 171.69794165489023,202.3847763108502 165.27565640300938,198.84924240491748 165.27565640300938,211.84924240491748 171.69794165489023,215.3847763108502 171.69794165489023,318.3847763108502 165.27565640300938,314.84924240491745 165.27565640300938,327.84924240491745 171.69794165489023,331.3847763108502 171.69794165489023,336.3847763108502 155.0,327.1923881554251 155.0,188.1923881554251" />
<polygon fill="rgba(255,255,255,0.75)" stroke-width="1" stroke-dasharray="" stroke="black" points="10.0,188.1923881554251 155.0,188.1923881554251 155.0,327.1923881554251 10.0,327.1923881554251" />
<polygon fill="rgba(192,192,192,0.5)" stroke-width="1" stroke-dasharray="" stroke="none" points="155.0,231.1923881554251 171.69794165489023,240.3847763108502 171.69794165489023,245.3847763108502 155.0,236.1923881554251" />
<polygon fill="rgba(192,192,192,0.5)" stroke-width="1" stroke-dasharray="" stroke="none" points="155.0,279.1923881554251 171.69794165489023,288.3847763108502 171.69794165489023,293.3847763108502 155.0,284.1923881554251" />
<polygon fill="rgba(192,192,192,0.5)" stroke-width="1" stroke-dasharray="" stroke="none" points="10.0,231.1923881554251 155.0,231.1923881554251 155.0,236.1923881554251 10.0,236.1923881554251" />
<polygon fill="rgba(192,192,192,0.5)" stroke-width="1" stroke-dasharray="" stroke="none" points="10.0,279.1923881554251 155.0,279.1923881554251 155.0,284.1923881554251 10.0,284.1923881554251" />
<circle cx="140" cy="200.1923881554251" r="5" stroke="orange" fill="white" stroke-width="1" />
<circle cx="140" cy="248.1923881554251" r="5" stroke="orange" fill="white" stroke-width="1" />
<circle cx="140" cy="296.1923881554251" r="5" stroke="orange" fill="white" stroke-width="1" />
<polygon fill="none" stroke-width="1" stroke-dasharray="2" stroke="gray" points="19.19238815542512,365.57716446627535 19.19238815542512,370.57716446627535 179.1923881554251,370.57716446627535 179.1923881554251,365.57716446627535" />
<polygon fill="none" stroke-width="1" stroke-dasharray="2" stroke="gray" points="19.19238815542512,383.57716446627535 19.19238815542512,486.57716446627535 179.1923881554251,486.57716446627535 179.1923881554251,383.57716446627535" />
<polygon fill="none" stroke-width="1" stroke-dasharray="2" stroke="gray" points="19.19238815542512,499.57716446627535 19.19238815542512,504.57716446627535 179.1923881554251,504.57716446627535 179.1923881554251,499.57716446627535" />
<polygon fill="rgba(192,192,192,0.75)" stroke-width="1" stroke-dasharray="" stroke="black" points="18.54360559544051,367.0416305603426 172.77010290354426,367.0416305603426 179.1923881554251,370.57716446627535 19.19238815542512,370.57716446627535" />
<polygon fill="none" stroke-width="1" stroke-dasharray="2" stroke="gray" points="19.19238815542512,383.57716446627535 179.1923881554251,383.57716446627535 172.77010290354426,380.0416305603426 18.54360559544051,380.0416305603426" />
<polygon fill="rgba(192,192,192,0.75)" stroke-width="1" stroke-dasharray="" stroke="black" points="18.54360559544051,483.0416305603426 172.77010290354426,483.0416305603426 179.1923881554251,486.57716446627535 19.19238815542512,486.57716446627535" />
<polygon fill="none" stroke-width="1" stroke-dasharray="2" stroke="gray" points="19.19238815542512,499.57716446627535 179.1923881554251,499.57716446627535 172.77010290354426,496.0416305603426 18.54360559544051,496.0416305603426" />
<polygon fill="none" stroke-width="1" stroke-dasharray="2" stroke="gray" points="18.54360559544051,367.0416305603426 18.54360559544051,380.0416305603426 172.77010290354426,380.0416305603426 172.77010290354426,367.0416305603426" />
<polygon fill="none" stroke-width="1" stroke-dasharray="2" stroke="gray" points="18.54360559544051,483.0416305603426 18.54360559544051,496.0416305603426 172.77010290354426,496.0416305603426 172.77010290354426,483.0416305603426" />
<polygon fill="none" stroke-width="1" stroke-dasharray="2" stroke="gray" points="17.505553499465137,356.3847763108502 17.505553499465137,495.3847763108502 19.19238815542512,504.57716446627535 19.19238815542512,499.57716446627535 18.54360559544051,496.0416305603426 18.54360559544051,483.0416305603426 19.19238815542512,486.57716446627535 19.19238815542512,383.57716446627535 18.54360559544051,380.0416305603426 18.54360559544051,367.0416305603426 19.19238815542512,370.57716446627535 19.19238815542512,365.57716446627535" />
<polygon fill="none" stroke-width="1" stroke-dasharray="2" stroke="gray" points="19.19238815542512,365.57716446627535 179.1923881554251,365.57716446627535 162.49444650053488,356.3847763108502 17.505553499465137,356.3847763108502" />
<polygon fill="rgba(192,192,192,0.75)" stroke-width="1" stroke-dasharray="" stroke="black" points="17.505553499465137,495.3847763108502 162.49444650053488,495.3847763108502 179.1923881554251,504.57716446627535 19.19238815542512,504.57716446627535" />
<polygon fill="rgba(255,255,255,0.75)" stroke-width="1" stroke-dasharray="" stroke="black" points="179.1923881554251,365.57716446627535 179.1923881554251,370.57716446627535 172.77010290354426,367.0416305603426 172.77010290354426,380.0416305603426 179.1923881554251,383.57716446627535 179.1923881554251,486.57716446627535 172.77010290354426,483.0416305603426 172.77010290354426,496.0416305603426 179.1923881554251,499.57716446627535 179.1923881554251,504.57716446627535 162.49444650053488,495.3847763108502 162.49444650053488,356.3847763108502" />
<polygon fill="rgba(255,255,255,0.75)" stroke-width="1" stroke-dasharray="" stroke="black" points="17.505553499465137,356.3847763108502 162.49444650053488,356.3847763108502 162.49444650053488,495.3847763108502 17.505553499465137,495.3847763108502" />
<polygon fill="rgba(192,192,192,0.5)" stroke-width="1" stroke-dasharray="" stroke="none" points="162.49444650053488,399.3847763108502 179.1923881554251,408.57716446627535 179.1923881554251,413.57716446627535 162.49444650053488,404.3847763108502" />
<polygon fill="rgba(192,192,192,0.5)" stroke-width="1" stroke-dasharray="" stroke="none" points="162.49444650053488,447.3847763108502 179.1923881554251,456.57716446627535 179.1923881554251,461.57716446627535 162.49444650053488,452.3847763108502" />
<polygon fill="rgba(192,192,192,0.5)" stroke-width="1" stroke-dasharray="" stroke="none" points="17.505553499465137,399.3847763108502 162.49444650053488,399.3847763108502 162.49444650053488,404.3847763108502 17.505553499465137,404.3847763108502" />
<polygon fill="rgba(192,192,192,0.5)" stroke-width="1" stroke-dasharray="" stroke="none" points="17.505553499465137,447.3847763108502 162.49444650053488,447.3847763108502 162.49444650053488,452.3847763108502 17.505553499465137,452.3847763108502" />
<circle cx="25" cy="387.3847763108502" r="5" stroke="orange" fill="white" stroke-width="1" />
<circle cx="25" cy="435.3847763108502" r="5" stroke="orange" fill="white" stroke-width="1" />
<circle cx="25" cy="483.3847763108502" r="5" stroke="orange" fill="white" stroke-width="1" />
<polygon fill="none" stroke-width="1" stroke-dasharray="2" stroke="gray" points="309.19238815542514,29.192388155425117 309.19238815542514,34.19238815542512 469.19238815542514,34.19238815542512 469.19238815542514,29.192388155425117" />
<polygon fill="none" stroke-width="1" stroke-dasharray="2" stroke="gray" points="309.19238815542514,47.19238815542512 309.19238815542514,150.1923881554251 469.19238815542514,150.1923881554251 469.19238815542514,47.19238815542512" />
<polygon fill="none" stroke-width="1" stroke-dasharray="2" stroke="gray" points="309.19238815542514,163.1923881554251 309.19238815542514,168.1923881554251 469.19238815542514,168.1923881554251 469.19238815542514,163.1923881554251" />
<polygon fill="rgba(192,192,192,0.75)" stroke-width="1" stroke-dasharray="" stroke="black" points="308.5436055954405,30.65685424949238 462.7701029035442,30.65685424949238 469.19238815542514,34.19238815542512 309.19238815542514,34.19238815542512" />
<polygon fill="none" stroke-width="1" stroke-dasharray="2" stroke="gray" points="309.19238815542514,47.19238815542512 469.19238815542514,47.19238815542512 462.7701029035442,43.65685424949238 308.5436055954405,43.65685424949238" />
<polygon fill="rgba(192,192,192,0.75)" stroke-width="1" stroke-dasharray="" stroke="black" points="308.5436055954405,146.65685424949237 462.7701029035442,146.65685424949237 469.19238815542514,150.1923881554251 309.19238815542514,150.1923881554251" />
<polygon fill="none" stroke-width="1" stroke-dasharray="2" stroke="gray" points="309.19238815542514,163.1923881554251 469.19238815542514,163.1923881554251 462.7701029035442,159.65685424949237 308.5436055954405,159.65685424949237" />
<polygon fill="none" stroke-width="1" stroke-dasharray="2" stroke="gray" points="308.5436055954405,30.65685424949238 308.5436055954405,43.65685424949238 462.7701029035442,43.65685424949238 462.7701029035442,30.65685424949238" />
<polygon fill="none" stroke-width="1" stroke-dasharray="2" stroke="gray" points="308.5436055954405,146.65685424949237 308.5436055954405,159.65685424949237 462.7701029035442,159.65685424949237 462.7701029035442,146.65685424949237" />
<polygon fill="none" stroke-width="1" stroke-dasharray="2" stroke="gray" points="307.5055534994651,20.0 307.5055534994651,159.0 309.19238815542514,168.1923881554251 309.19238815542514,163.1923881554251 308.5436055954405,159.65685424949237 308.5436055954405,146.65685424949237 309.19238815542514,150.1923881554251 309.19238815542514,47.19238815542512 308.5436055954405,43.65685424949238 308.5436055954405,30.65685424949238 309.19238815542514,34.19238815542512 309.19238815542514,29.192388155425117" />
<polygon fill="none" stroke-width="1" stroke-dasharray="2" stroke="gray" points="309.19238815542514,29.192388155425117 469.19238815542514,29.192388155425117 452.4944465005349,20.0 307.5055534994651,20.0" />
<polygon fill="rgba(192,192,192,0.75)" stroke-width="1" stroke-dasharray="" stroke="black" points="307.5055534994651,159.0 452.4944465005349,159.0 469.19238815542514,168.1923881554251 309.19238815542514,168.1923881554251" />
<polygon fill="rgba(255,255,255,0.75)" stroke-width="1" stroke-dasharray="" stroke="black" points="469.19238815542514,29.192388155425117 469.19238815542514,34.19238815542512 462.7701029035442,30.65685424949238 462.7701029035442,43.65685424949238 469.19238815542514,47.19238815542512 469.19238815542514,150.1923881554251 462.7701029035442,146.65685424949237 462.7701029035442,159.65685424949237 469.19238815542514,163.1923881554251 469.19238815542514,168.1923881554251 452.4944465005349,159.0 452.4944465005349,20.0" />
<polygon fill="rgba(255,255,255,0.75)" stroke-width="1" stroke-dasharray="" stroke="black" points="307.5055534994651,20.0 452.4944465005349,20.0 452.4944465005349,159.0 307.5055534994651,159.0" />
<polygon fill="rgba(192,192,192,0.5)" stroke-width="1" stroke-dasharray="" stroke="none" points="452.4944465005349,63.0 469.19238815542514,72.19238815542512 469.19238815542514,77.19238815542512 452.4944465005349,68.0" />
<polygon fill="rgba(192,192,192,0.5)" stroke-width="1" stroke-dasharray="" stroke="none" points="452.4944465005349,111.0 469.19238815542514,120.19238815542512 469.19238815542514,125.19238815542512 452.4944465005349,116.0" />
<polygon fill="rgba(192,192,192,0.5)" stroke-width="1" stroke-dasharray="" stroke="none" points="307.5055534994651,63.0 452.4944465005349,63.0 452.4944465005349,68.0 307.5055534994651,68.0" />
<polygon fill="rgba(192,192,192,0.5)" stroke-width="1" stroke-dasharray="" stroke="none" points="307.5055534994651,111.0 452.4944465005349,111.0 452.4944465005349,116.0 307.5055534994651,116.0" />
<polygon fill="none" stroke-width="1" stroke-dasharray="2" stroke="gray" points="301.68683465596,197.3847763108502 301.68683465596,202.3847763108502 461.69794165489026,202.3847763108502 461.69794165489026,197.3847763108502" />
<polygon fill="none" stroke-width="1" stroke-dasharray="2" stroke="gray" points="301.68683465596,215.3847763108502 301.68683465596,318.3847763108502 461.69794165489026,318.3847763108502 461.69794165489026,215.3847763108502" />
<polygon fill="none" stroke-width="1" stroke-dasharray="2" stroke="gray" points="301.68683465596,331.3847763108502 301.68683465596,336.3847763108502 461.69794165489026,336.3847763108502 461.69794165489026,331.3847763108502" />
<polygon fill="rgba(192,192,192,0.75)" stroke-width="1" stroke-dasharray="" stroke="black" points="301.0380520959754,198.84924240491748 455.27565640300935,198.84924240491748 461.69794165489026,202.3847763108502 301.68683465596,202.3847763108502" />
<polygon fill="none" stroke-width="1" stroke-dasharray="2" stroke="gray" points="301.68683465596,215.3847763108502 461.69794165489026,215.3847763108502 455.27565640300935,211.84924240491748 301.0380520959754,211.84924240491748" />
<polygon fill="rgba(192,192,192,0.75)" stroke-width="1" stroke-dasharray="" stroke="black" points="301.0380520959754,314.84924240491745 455.27565640300935,314.84924240491745 461.69794165489026,318.3847763108502 301.68683465596,318.3847763108502" />
<polygon fill="none" stroke-width="1" stroke-dasharray="2" stroke="gray" points="301.68683465596,331.3847763108502 461.69794165489026,331.3847763108502 455.27565640300935,327.84924240491745 301.0380520959754,327.84924240491745" />
<polygon fill="none" stroke-width="1" stroke-dasharray="2" stroke="gray" points="301.0380520959754,198.84924240491748 301.0380520959754,211.84924240491748 455.27565640300935,211.84924240491748 455.27565640300935,198.84924240491748" />
<polygon fill="none" stroke-width="1" stroke-dasharray="2" stroke="gray" points="301.0380520959754,314.84924240491745 301.0380520959754,327.84924240491745 455.27565640300935,327.84924240491745 455.27565640300935,314.84924240491745" />
<polygon fill="none" stroke-width="1" stroke-dasharray="2" stroke="gray" points="300.0,188.1923881554251 300.0,327.1923881554251 301.68683465596,336.3847763108502 301.68683465596,331.3847763108502 301.0380520959754,327.84924240491745 301.0380520959754,314.84924240491745 301.68683465596,318.3847763108502 301.68683465596,215.3847763108502 301.0380520959754,211.84924240491748 301.0380520959754,198.84924240491748 301.68683465596,202.3847763108502 301.68683465596,197.3847763108502" />
<polygon fill="none" stroke-width="1" stroke-dasharray="2" stroke="gray" points="301.68683465596,197.3847763108502 461.69794165489026,197.3847763108502 445.0,188.1923881554251 300.0,188.1923881554251" />
<polygon fill="rgba(192,192,192,0.75)" stroke-width="1" stroke-dasharray="" stroke="black" points="300.0,327.1923881554251 445.0,327.1923881554251 461.69794165489026,336.3847763108502 301.68683465596,336.3847763108502" />
<polygon fill="rgba(255,255,255,0.75)" stroke-width="1" stroke-dasharray="" stroke="black" points="461.69794165489026,197.3847763108502 461.69794165489026,202.3847763108502 455.27565640300935,198.84924240491748 455.27565640300935,211.84924240491748 461.69794165489026,215.3847763108502 461.69794165489026,318.3847763108502 455.27565640300935,314.84924240491745 455.27565640300935,327.84924240491745 461.69794165489026,331.3847763108502 461.69794165489026,336.3847763108502 445.0,327.1923881554251 445.0,188.1923881554251" />
<polygon fill="rgba(255,255,255,0.75)" stroke-width="1" stroke-dasharray="" stroke="black" points="300.0,188.1923881554251 445.0,188.1923881554251 445.0,327.1923881554251 300.0,327.1923881554251" />
<polygon fill="rgba(192,192,192,0.5)" stroke-width="1" stroke-dasharray="" stroke="none" points="445.0,231.1923881554251 461.69794165489026,240.3847763108502 461.69794165489026,245.3847763108502 445.0,236.1923881554251" />
<polygon fill="rgba(192,192,192,0.5)" stroke-width="1" stroke-dasharray="" stroke="none" points="445.0,279.1923881554251 461.69794165489026,288.3847763108502 461.69794165489026,293.3847763108502 445.0,284.1923881554251" />
<polygon fill="rgba(192,192,192,0.5)" stroke-width="1" stroke-dasharray="" stroke="none" points="300.0,231.1923881554251 445.0,231.1923881554251 445.0,236.1923881554251 300.0,236.1923881554251" />
<polygon fill="rgba(192,192,192,0.5)" stroke-width="1" stroke-dasharray="" stroke="none" points="300.0,279.1923881554251 445.0,279.1923881554251 445.0,284.1923881554251 300.0,284.1923881554251" />
<circle cx="430" cy="200.1923881554251" r="5" stroke="orange" fill="white" stroke-width="1" />
<circle cx="430" cy="248.1923881554251" r="5" stroke="orange" fill="white" stroke-width="1" />
<circle cx="430" cy="296.1923881554251" r="5" stroke="orange" fill="white" stroke-width="1" />
<polygon fill="none" stroke-width="1" stroke-dasharray="2" stroke="gray" points="309.19238815542514,365.57716446627535 309.19238815542514,370.57716446627535 469.19238815542514,370.57716446627535 469.19238815542514,365.57716446627535" />
<polygon fill="none" stroke-width="1" stroke-dasharray="2" stroke="gray" points="309.19238815542514,383.57716446627535 309.19238815542514,486.57716446627535 469.19238815542514,486.57716446627535 469.19238815542514,383.57716446627535" />
<polygon fill="none" stroke-width="1" stroke-dasharray="2" stroke="gray" points="309.19238815542514,499.57716446627535 309.19238815542514,504.57716446627535 469.19238815542514,504.57716446627535 469.19238815542514,499.57716446627535" />
<polygon fill="rgba(192,192,192,0.75)" stroke-width="1" stroke-dasharray="" stroke="black" points="308.5436055954405,367.0416305603426 462.7701029035442,367.0416305603426 469.19238815542514,370.57716446627535 309.19238815542514,370.57716446627535" />
<polygon fill="none" stroke-width="1" stroke-dasharray="2" stroke="gray" points="309.19238815542514,383.57716446627535 469.19238815542514,383.57716446627535 462.7701029035442,380.0416305603426 308.5436055954405,380.0416305603426" />
<polygon fill="rgba(192,192,192,0.75)" stroke-width="1" stroke-dasharray="" stroke="black" points="308.5436055954405,483.0416305603426 462.7701029035442,483.0416305603426 469.19238815542514,486.57716446627535 309.19238815542514,486.57716446627535" />
<polygon fill="none" stroke-width="1" stroke-dasharray="2" stroke="gray" points="309.19238815542514,499.57716446627535 469.19238815542514,499.57716446627535 462.7701029035442,496.0416305603426 308.5436055954405,496.0416305603426" />
<polygon fill="none" stroke-width="1" stroke-dasharray="2" stroke="gray" points="308.5436055954405,367.0416305603426 308.5436055954405,380.0416305603426 462.7701029035442,380.0416305603426 462.7701029035442,367.0416305603426" />
<polygon fill="none" stroke-width="1" stroke-dasharray="2" stroke="gray" points="308.5436055954405,483.0416305603426 308.5436055954405,496.0416305603426 462.7701029035442,496.0416305603426 462.7701029035442,483.0416305603426" />
<polygon fill="none" stroke-width="1" stroke-dasharray="2" stroke="gray" points="307.5055534994651,356.3847763108502 307.5055534994651,495.3847763108502 309.19238815542514,504.57716446627535 309.19238815542514,499.57716446627535 308.5436055954405,496.0416305603426 308.5436055954405,483.0416305603426 309.19238815542514,486.57716446627535 309.19238815542514,383.57716446627535 308.5436055954405,380.0416305603426 308.5436055954405,367.0416305603426 309.19238815542514,370.57716446627535 309.19238815542514,365.57716446627535" />
<polygon fill="none" stroke-width="1" stroke-dasharray="2" stroke="gray" points="309.19238815542514,365.57716446627535 469.19238815542514,365.57716446627535 452.4944465005349,356.3847763108502 307.5055534994651,356.3847763108502" />
<polygon fill="rgba(192,192,192,0.75)" stroke-width="1" stroke-dasharray="" stroke="black" points="307.5055534994651,495.3847763108502 452.4944465005349,495.3847763108502 469.19238815542514,504.57716446627535 309.19238815542514,504.57716446627535" />
<polygon fill="rgba(255,255,255,0.75)" stroke-width="1" stroke-dasharray="" stroke="black" points="469.19238815542514,365.57716446627535 469.19238815542514,370.57716446627535 462.7701029035442,367.0416305603426 462.7701029035442,380.0416305603426 469.19238815542514,383.57716446627535 469.19238815542514,486.57716446627535 462.7701029035442,483.0416305603426 462.7701029035442,496.0416305603426 469.19238815542514,499.57716446627535 469.19238815542514,504.57716446627535 452.4944465005349,495.3847763108502 452.4944465005349,356.3847763108502" />
<polygon fill="rgba(255,255,255,0.75)" stroke-width="1" stroke-dasharray="" stroke="black" points="307.5055534994651,356.3847763108502 452.4944465005349,356.3847763108502 452.4944465005349,495.3847763108502 307.5055534994651,495.3847763108502" />
<polygon fill="rgba(192,192,192,0.5)" stroke-width="1" stroke-dasharray="" stroke="none" points="452.4944465005349,399.3847763108502 469.19238815542514,408.57716446627535 469.19238815542514,413.57716446627535 452.4944465005349,404.3847763108502" />
<polygon fill="rgba(192,192,192,0.5)" stroke-width="1" stroke-dasharray="" stroke="none" points="452.4944465005349,447.3847763108502 469.19238815542514,456.57716446627535 469.19238815542514,461.57716446627535 452.4944465005349,452.3847763108502" />
<polygon fill="rgba(192,192,192,0.5)" stroke-width="1" stroke-dasharray="" stroke="none" points="307.5055534994651,399.3847763108502 452.4944465005349,399.3847763108502 452.4944465005349,404.3847763108502 307.5055534994651,404.3847763108502" />
<polygon fill="rgba(192,192,192,0.5)" stroke-width="1" stroke-dasharray="" stroke="none" points="307.5055534994651,447.3847763108502 452.4944465005349,447.3847763108502 452.4944465005349,452.3847763108502 307.5055534994651,452.3847763108502" />
<rect x="325" y="389.3847763108502" width="40" height="10.0" style="fill: none; stroke: orange; stroke-width: 1;" />
<circle cx="315" cy="387.3847763108502" r="5" stroke="orange" fill="white" stroke-width="1" />
<circle cx="315" cy="435.3847763108502" r="5" stroke="orange" fill="white" stroke-width="1" />
<circle cx="315" cy="483.3847763108502" r="5" stroke="orange" fill="white" stroke-width="1" />
</svg>
