<svg width="1100" viewBox="0.0 0.0 550.0 351.1" xmlns="http://www.w3.org/2000/svg">
<polygon fill="none" stroke-width="1" stroke-dasharray="" stroke="black" points="150.0,50.0 295.0,50.0 302.5,63.0 142.5,63.0" />
<circle cx="295.0" cy="50.0" r="2" stroke="red" fill="white" stroke-width="1" />
<polygon fill="none" stroke-width="1" stroke-dasharray="" stroke="black" points="295.0,50.0 367.5,175.6 360.0,188.6 280.0,50.0" />
<circle cx="367.5" cy="175.6" r="2" stroke="red" fill="white" stroke-width="1" />
<polygon fill="none" stroke-width="1" stroke-dasharray="" stroke="black" points="367.5,175.6 295.0,301.1 280.0,301.1 360.0,162.6" />
<circle cx="295.0" cy="301.1" r="2" stroke="red" fill="white" stroke-width="1" />
<polygon fill="none" stroke-width="1" stroke-dasharray="" stroke="black" points="295.0,301.1 150.0,301.1 142.5,288.1 302.5,288.1" />
<circle cx="150.0" cy="301.1" r="2" stroke="red" fill="white" stroke-width="1" />
<polygon fill="none" stroke-width="1" stroke-dasharray="" stroke="black" points="150.0,301.1 77.5,175.6 85.0,162.6 165.0,301.1" />
<circle cx="77.5" cy="175.6" r="2" stroke="red" fill="white" stroke-width="1" />
<polygon fill="none" stroke-width="1" stroke-dasharray="" stroke="black" points="77.5,175.6 150.0,50.0 165.0,50.0 85.0,188.6" />
<circle cx="150.0" cy="50.0" r="2" stroke="red" fill="white" stroke-width="1" />
<polygon fill="none" stroke-width="1" stroke-dasharray="3" stroke="green" points="291.0,56.9 359.5,175.6 291.0,294.2 154.0,294.2 85.5,175.6 154.0,56.9" />
</svg>
