<svg width="1100" viewBox="0 0 550 188.1923881554251" xmlns="http://www.w3.org/2000/svg">
<polygon fill="none" stroke-width="1" stroke-dasharray="2" stroke="gray" points="164.17128115649484,34.19238815542512 164.17128115649487,29.192388155425117 19.19238815542512,29.192388155425117 19.19238815542512,34.19238815542512 164.17128115649484,34.19238815542512" />
<polygon fill="none" stroke-width="1" stroke-dasharray="2" stroke="gray" points="164.1712811564949,168.1923881554251 164.17128115649487,163.1923881554251 19.19238815542512,163.1923881554251 19.19238815542512,168.1923881554251 164.1712811564949,168.1923881554251" />
<polygon fill="none" stroke-width="1" stroke-dasharray="2" stroke="gray" points="19.19238815542512,125.73421520148666 34.213495154355364,125.73421520148666 34.213495154355364,134.31722777603022 19.19238815542512,134.31722777603022 19.19238815542512,150.1923881554251 164.17128115649487,150.1923881554251 164.17128115649487,134.2972277760302 179.1923881554251,138.17980340875297 179.1923881554251,138.17980340875297 179.1923881554251,121.87163956876391 179.1923881554251,121.87163956876391 164.17128115649487,125.75421520148667 164.17128115649487,102.96389444269688 179.1923881554251,106.84647007541965 179.1923881554251,90.53830623543057 164.17128115649487,94.42088186815334 164.17128115649487,71.63056110936355 179.1923881554251,75.51313674208632 179.1923881554251,75.51313674208632 179.1923881554251,59.20497290209727 179.1923881554251,59.20497290209727 164.17128115649487,63.08754853482 164.17128115649487,47.19238815542512 19.19238815542512,47.19238815542512 19.19238815542512,63.067548534820006 19.19238815542512,63.067548534820006 34.213495154355364,63.067548534820006 34.213495154355364,71.65056110936355 19.19238815542512,71.65056110936355 19.19238815542512,94.40088186815332 34.213495154355364,94.40088186815333 34.213495154355364,102.9838944426969 19.19238815542512,102.9838944426969 19.19238815542512,102.9838944426969 19.19238815542512,125.73421520148666" />
<polygon fill="rgba(192,192,192,0.75)" stroke-width="1" stroke-dasharray="" stroke="black" points="157.74899590461402,30.65685424949238 164.17128115649487,34.19238815542512 19.19238815542512,34.19238815542512 18.54360559544051,30.65685424949238 157.74899590461402,30.65685424949238" />
<polygon fill="none" stroke-width="1" stroke-dasharray="2" stroke="gray" points="157.74899590461402,43.65685424949238 18.54360559544051,43.65685424949238 19.19238815542512,47.19238815542512 164.17128115649487,47.19238815542512 157.74899590461402,43.65685424949238" />
<polygon fill="rgba(192,192,192,0.75)" stroke-width="1" stroke-dasharray="" stroke="black" points="157.74899590461402,146.65685424949237 164.17128115649487,150.1923881554251 19.19238815542512,150.1923881554251 18.54360559544051,146.65685424949237 157.74899590461402,146.65685424949237" />
<polygon fill="none" stroke-width="1" stroke-dasharray="2" stroke="gray" points="157.74899590461402,159.65685424949237 18.54360559544051,159.65685424949237 19.19238815542512,163.1923881554251 164.17128115649487,163.1923881554251 157.74899590461402,159.65685424949237" />
<polygon fill="none" stroke-width="1" stroke-dasharray="2" stroke="gray" points="157.74899590461402,43.65685424949238 157.74899590461402,30.65685424949238 18.54360559544051,30.65685424949238 18.54360559544051,43.65685424949238 157.74899590461402,43.65685424949238" />
<polygon fill="none" stroke-width="1" stroke-dasharray="2" stroke="gray" points="157.74899590461402,159.65685424949237 157.74899590461402,146.65685424949237 18.54360559544051,146.65685424949237 18.54360559544051,159.65685424949237 157.74899590461402,159.65685424949237" />
<polygon fill="none" stroke-width="1" stroke-dasharray="2" stroke="gray" points="17.505553499465137,50.01298399414701 19.19238815542512,63.084564540673014 19.19238815542512,47.19238815542512 18.54360559544051,43.65685424949238 18.54360559544051,30.65685424949238 19.19238815542512,34.19238815542512 19.19238815542512,29.192388155425117 17.505553499465137,20.0 17.505553499465137,50.01298399414701" />
<polygon fill="none" stroke-width="1" stroke-dasharray="2" stroke="gray" points="17.505553499465137,66.32034933918632 17.505553499465137,81.34631732748034 19.19238815542512,94.41789787400634 19.19238815542512,71.63354510351056 17.505553499465137,66.32034933918632" />
<polygon fill="none" stroke-width="1" stroke-dasharray="2" stroke="gray" points="17.505553499465137,97.65368267251965 17.505553499465137,112.67965066081366 19.19238815542512,125.75123120733967 19.19238815542512,102.96687843684388 17.505553499465137,97.65368267251965" />
<polygon fill="none" stroke-width="1" stroke-dasharray="2" stroke="gray" points="17.505553499465137,128.98701600585298 17.505553499465137,159.0 19.19238815542512,168.1923881554251 19.19238815542512,163.1923881554251 18.54360559544051,159.65685424949237 18.54360559544051,146.65685424949237 19.19238815542512,150.1923881554251 19.19238815542512,134.3002117701772 17.505553499465137,128.98701600585298" />
<polygon fill="rgba(255,255,255,0.75)" stroke-width="1" stroke-dasharray="" stroke="black" points="17.505553499465137,50.0 32.51666049839538,50.0 34.203495154355366,63.07754853482001 19.19238815542512,63.07754853482001" />
<polygon fill="none" stroke-width="1" stroke-dasharray="2" stroke="gray" points="19.19238815542512,71.64056110936356 34.203495154355366,71.64056110936356 32.51666049839538,66.33333333333333 17.505553499465137,66.33333333333333" />
<polygon fill="rgba(255,255,255,0.75)" stroke-width="1" stroke-dasharray="" stroke="black" points="17.505553499465137,81.33333333333333 32.51666049839538,81.33333333333333 34.203495154355366,94.41088186815334 19.19238815542512,94.41088186815334" />
<polygon fill="none" stroke-width="1" stroke-dasharray="2" stroke="gray" points="19.19238815542512,102.97389444269689 34.203495154355366,102.97389444269689 32.51666049839538,97.66666666666666 17.505553499465137,97.66666666666666" />
<polygon fill="rgba(255,255,255,0.75)" stroke-width="1" stroke-dasharray="" stroke="black" points="17.505553499465137,112.66666666666666 32.51666049839538,112.66666666666666 34.203495154355366,125.74421520148667 19.19238815542512,125.74421520148667" />
<polygon fill="none" stroke-width="1" stroke-dasharray="2" stroke="gray" points="19.19238815542512,134.3072277760302 34.203495154355366,134.3072277760302 32.51666049839538,129.0 17.505553499465137,129.0" />
<polygon fill="none" stroke-width="1" stroke-dasharray="2" stroke="gray" points="32.51666049839538,49.992983994147 32.51666049839538,66.34034933918633 34.203495154355366,71.65354510351058 34.203495154355366,63.064564540673004 32.51666049839538,49.992983994147" />
<polygon fill="none" stroke-width="1" stroke-dasharray="2" stroke="gray" points="32.51666049839538,81.32631732748033 32.51666049839538,97.67368267251965 34.203495154355366,102.9868784368439 34.203495154355366,94.39789787400633 32.51666049839538,81.32631732748033" />
<polygon fill="none" stroke-width="1" stroke-dasharray="2" stroke="gray" points="32.51666049839538,112.65965066081365 32.51666049839538,129.007016005853 34.203495154355366,134.32021177017722 34.203495154355366,125.73123120733966 32.51666049839538,112.65965066081365" />
<polygon fill="none" stroke-width="1" stroke-dasharray="2" stroke="gray" points="147.47333950160464,20.0 17.505553499465137,20.0 19.19238815542512,29.192388155425117 164.17128115649487,29.192388155425117 147.47333950160464,20.0" />
<polygon fill="rgba(192,192,192,0.75)" stroke-width="1" stroke-dasharray="" stroke="black" points="147.47333950160464,159.0 164.17128115649487,168.1923881554251 19.19238815542512,168.1923881554251 17.505553499465137,159.0 147.47333950160464,159.0" />
<polygon fill="rgba(255,255,255,0.75)" stroke-width="1" stroke-dasharray="" stroke="black" points="164.18128115649486,63.08754853482 147.48333950160463,53.895160379394895 147.48333950160463,20.0 164.18128115649486,29.192388155425117 164.18128115649486,34.19238815542512 157.758995904614,30.65685424949238 157.758995904614,43.65685424949238 164.18128115649486,47.19238815542512 164.18128115649486,63.08754853482" />
<polygon fill="rgba(255,255,255,0.75)" stroke-width="1" stroke-dasharray="" stroke="black" points="164.18128115649486,71.63056110936355 164.18128115649486,94.42088186815334 147.48333950160463,85.22849371272822 147.48333950160463,62.43817295393845 164.18128115649486,71.63056110936355" />
<polygon fill="rgba(255,255,255,0.75)" stroke-width="1" stroke-dasharray="" stroke="black" points="164.18128115649486,102.96389444269688 164.18128115649486,125.75421520148667 147.48333950160463,116.56182704606155 147.48333950160463,93.77150628727176 164.18128115649486,102.96389444269688" />
<polygon fill="rgba(255,255,255,0.75)" stroke-width="1" stroke-dasharray="" stroke="black" points="164.18128115649486,134.29722777603018 164.18128115649486,150.1923881554251 157.758995904614,146.65685424949237 157.758995904614,159.65685424949237 164.18128115649486,163.1923881554251 164.18128115649486,168.1923881554251 147.48333950160463,159.0 147.48333950160463,125.10483962060509 164.18128115649486,134.29722777603018" />
<polygon fill="none" stroke-width="1" stroke-dasharray="2" stroke="gray" points="162.49444650053488,50.0 147.48333950160463,53.88516037939489 164.18128115649486,63.07754853482001 179.1923881554251,59.19238815542512" />
<polygon fill="rgba(192,192,192,0.75)" stroke-width="1" stroke-dasharray="" stroke="silver" points="179.1923881554251,75.52572148875845 164.18128115649486,71.64056110936356 147.48333950160463,62.44817295393844 162.49444650053488,66.33333333333333" />
<polygon fill="none" stroke-width="1" stroke-dasharray="2" stroke="gray" points="162.49444650053488,81.33333333333333 147.48333950160463,85.21849371272822 164.18128115649486,94.41088186815334 179.1923881554251,90.52572148875845" />
<polygon fill="rgba(192,192,192,0.75)" stroke-width="1" stroke-dasharray="" stroke="silver" points="179.1923881554251,106.85905482209178 164.18128115649486,102.97389444269689 147.48333950160463,93.78150628727177 162.49444650053488,97.66666666666666" />
<polygon fill="none" stroke-width="1" stroke-dasharray="2" stroke="gray" points="162.49444650053488,112.66666666666666 147.48333950160463,116.55182704606155 164.18128115649486,125.74421520148667 179.1923881554251,121.85905482209178" />
<polygon fill="rgba(192,192,192,0.75)" stroke-width="1" stroke-dasharray="" stroke="silver" points="179.1923881554251,138.1923881554251 164.18128115649486,134.3072277760302 147.48333950160463,125.1148396206051 162.49444650053488,129.0" />
<polygon fill="rgba(255,255,255,0.75)" stroke-width="1" stroke-dasharray="" stroke="black" points="179.1923881554251,59.182388155425116 179.1923881554251,75.53572148875845 162.49444650053488,66.34333333333333 162.49444650053488,49.98999999999998 179.1923881554251,59.182388155425116" />
<polygon fill="rgba(255,255,255,0.75)" stroke-width="1" stroke-dasharray="" stroke="black" points="179.1923881554251,90.51572148875844 179.1923881554251,106.8690548220918 162.49444650053488,97.67666666666668 162.49444650053488,81.32333333333332 179.1923881554251,90.51572148875844" />
<polygon fill="rgba(255,255,255,0.75)" stroke-width="1" stroke-dasharray="" stroke="black" points="179.1923881554251,121.84905482209177 179.1923881554251,138.2023881554251 162.49444650053488,129.01 162.49444650053488,112.65666666666665 179.1923881554251,121.84905482209177" />
<polygon fill="rgba(255,255,255,0.75)" stroke-width="1" stroke-dasharray="" stroke="black" points="17.505553499465137,129.01 32.52666049839538,129.01 32.52666049839538,112.65666666666665 17.505553499465137,112.65666666666664 17.505553499465137,97.67666666666666 32.52666049839538,97.67666666666666 32.52666049839538,81.32333333333332 17.505553499465137,81.32333333333332 17.505553499465137,81.32333333333332 17.505553499465137,66.34333333333333 17.505553499465137,66.34333333333333 32.52666049839538,66.34333333333333 32.52666049839538,49.989999999999995 17.505553499465137,49.98999999999998 17.505553499465137,20.0 147.47333950160464,20.0 147.47333950160464,20.0 147.47333950160464,53.89516037939489 162.49444650053488,50.01258474667213 162.49444650053488,66.32074858666118 147.47333950160464,62.43817295393844 147.47333950160464,85.22849371272822 162.49444650053488,81.34591808000545 162.49444650053488,81.34591808000545 162.49444650053488,97.65408191999452 162.49444650053488,97.65408191999452 147.47333950160464,93.77150628727176 147.47333950160464,116.56182704606155 162.49444650053488,112.67925141333879 162.49444650053488,128.98741525332787 147.47333950160464,125.10483962060509 147.47333950160464,159.0 147.47333950160464,159.0 17.505553499465137,159.0 17.505553499465137,129.01" />
<polygon fill="rgba(192,192,192,0.5)" stroke-width="1" stroke-dasharray="" stroke="none" points="32.51666049839538,63.0 147.48333950160463,63.0 147.48333950160463,68.0 17.505553499465137,68.0 17.505553499465137,66.33333333333334 32.51666049839538,66.33333333333333 32.51666049839538,63.0" />
<polygon fill="rgba(192,192,192,0.5)" stroke-width="1" stroke-dasharray="" stroke="none" points="147.4833395016047,111.0 17.505553499465137,111.0 17.505553499465137,112.66666666666664 32.51666049839538,112.66666666666666 32.516660498395396,116.0 147.48333950160463,116.0 147.4833395016047,111.0" />
<polygon fill="none" stroke-width="1" stroke-dasharray="2" stroke="gray" points="461.69794165489026,125.73421520148666 461.69794165489026,102.9838944426969 461.69794165489026,102.9838944426969 446.67683465596,102.9838944426969 446.67683465596,94.40088186815333 461.69794165489026,94.40088186815335 461.69794165489026,71.65056110936357 446.67683465596,71.65056110936355 446.67683465596,63.067548534820006 461.69794165489026,63.067548534820006 461.69794165489026,63.067548534820006 461.69794165489026,47.19238815542512 316.70794165489025,47.19238815542512 316.70794165489025,63.08754853482 301.68683465596,59.20497290209725 301.68683465596,59.20497290209725 301.68683465596,75.51313674208632 301.68683465596,75.51313674208632 316.70794165489025,71.63056110936355 316.70794165489025,94.42088186815334 301.68683465596,90.53830623543058 301.68683465596,106.84647007541963 316.70794165489025,102.96389444269688 316.70794165489025,125.75421520148667 301.68683465596,121.87163956876391 301.68683465596,121.87163956876391 301.68683465596,138.17980340875295 301.68683465596,138.17980340875295 316.70794165489025,134.2972277760302 316.70794165489025,150.1923881554251 461.69794165489026,150.1923881554251 461.69794165489026,134.31722777603022 446.67683465596,134.31722777603022 446.67683465596,125.73421520148666 461.69794165489026,125.73421520148666" />
<polygon fill="none" stroke-width="1" stroke-dasharray="2" stroke="gray" points="316.70794165489025,34.19238815542512 461.69794165489026,34.19238815542512 461.69794165489026,29.192388155425117 316.70794165489025,29.192388155425117 316.70794165489025,34.19238815542512" />
<polygon fill="none" stroke-width="1" stroke-dasharray="2" stroke="gray" points="316.70794165489025,168.1923881554251 461.69794165489026,168.1923881554251 461.69794165489026,163.1923881554251 316.70794165489025,163.1923881554251 316.70794165489025,168.1923881554251" />
<polygon fill="rgba(192,192,192,0.75)" stroke-width="1" stroke-dasharray="" stroke="black" points="316.0591590949056,30.65685424949238 455.27565640300935,30.65685424949238 461.69794165489026,34.19238815542512 316.70794165489025,34.19238815542512 316.0591590949056,30.65685424949238" />
<polygon fill="none" stroke-width="1" stroke-dasharray="2" stroke="gray" points="316.0591590949056,43.65685424949238 316.70794165489025,47.19238815542512 461.69794165489026,47.19238815542512 455.27565640300935,43.65685424949238 316.0591590949056,43.65685424949238" />
<polygon fill="rgba(192,192,192,0.75)" stroke-width="1" stroke-dasharray="" stroke="black" points="316.0591590949056,146.65685424949237 455.27565640300935,146.65685424949237 461.69794165489026,150.1923881554251 316.70794165489025,150.1923881554251 316.0591590949056,146.65685424949237" />
<polygon fill="none" stroke-width="1" stroke-dasharray="2" stroke="gray" points="316.0591590949056,159.65685424949237 316.70794165489025,163.1923881554251 461.69794165489026,163.1923881554251 455.27565640300935,159.65685424949237 316.0591590949056,159.65685424949237" />
<polygon fill="none" stroke-width="1" stroke-dasharray="2" stroke="gray" points="316.0591590949056,159.65685424949237 455.27565640300935,159.65685424949237 455.27565640300935,146.65685424949237 316.05915909490557,146.65685424949237 316.0591590949056,159.65685424949237" />
<polygon fill="none" stroke-width="1" stroke-dasharray="2" stroke="gray" points="316.0591590949056,43.65685424949238 455.27565640300935,43.65685424949238 455.27565640300935,30.65685424949238 316.0591590949056,30.65685424949238 316.0591590949056,43.65685424949238" />
<polygon fill="none" stroke-width="1" stroke-dasharray="2" stroke="gray" points="300.0,49.989999999999995 300.0,66.34333333333333 301.68683465596,75.53572148875845 301.68683465596,59.182388155425116 300.0,49.989999999999995" />
<polygon fill="none" stroke-width="1" stroke-dasharray="2" stroke="gray" points="300.0,81.32333333333332 300.0,97.67666666666666 301.68683465596,106.8690548220918 301.68683465596,90.51572148875844 300.0,81.32333333333332" />
<polygon fill="none" stroke-width="1" stroke-dasharray="2" stroke="gray" points="300.0,112.65666666666665 300.0,129.01 301.68683465596,138.2023881554251 301.68683465596,121.84905482209177 300.0,112.65666666666665" />
<polygon fill="none" stroke-width="1" stroke-dasharray="2" stroke="gray" points="301.68683465596,59.19238815542512 316.69794165489026,63.07754853482001 315.01110699893025,53.88516037939489 300.0,50.0" />
<polygon fill="rgba(255,255,255,0.75)" stroke-width="1" stroke-dasharray="" stroke="black" points="300.0,66.33333333333333 315.01110699893025,62.44817295393844 316.69794165489026,71.64056110936356 301.68683465596,75.52572148875845" />
<polygon fill="none" stroke-width="1" stroke-dasharray="2" stroke="gray" points="301.68683465596,90.52572148875845 316.69794165489026,94.41088186815334 315.01110699893025,85.21849371272822 300.0,81.33333333333333" />
<polygon fill="rgba(255,255,255,0.75)" stroke-width="1" stroke-dasharray="" stroke="black" points="300.0,97.66666666666666 315.01110699893025,93.78150628727177 316.69794165489026,102.97389444269689 301.68683465596,106.85905482209178" />
<polygon fill="none" stroke-width="1" stroke-dasharray="2" stroke="gray" points="301.68683465596,121.85905482209178 316.69794165489026,125.74421520148667 315.01110699893025,116.55182704606155 300.0,112.66666666666666" />
<polygon fill="rgba(255,255,255,0.75)" stroke-width="1" stroke-dasharray="" stroke="black" points="300.0,129.0 315.01110699893025,125.1148396206051 316.69794165489026,134.3072277760302 301.68683465596,138.1923881554251" />
<polygon fill="none" stroke-width="1" stroke-dasharray="2" stroke="gray" points="315.01110699893025,53.89516037939489 316.69794165489026,63.087548534820016 316.69794165489026,47.19238815542512 316.04915909490563,43.65685424949238 316.04915909490563,30.65685424949238 316.69794165489026,34.19238815542512 316.69794165489026,29.192388155425117 315.01110699893025,20.0 315.01110699893025,53.89516037939489" />
<polygon fill="none" stroke-width="1" stroke-dasharray="2" stroke="gray" points="315.01110699893025,62.43817295393844 315.01110699893025,85.22849371272822 316.69794165489026,94.42088186815334 316.69794165489026,71.63056110936357 315.01110699893025,62.43817295393844" />
<polygon fill="none" stroke-width="1" stroke-dasharray="2" stroke="gray" points="315.01110699893025,93.77150628727176 315.01110699893025,116.56182704606155 316.69794165489026,125.75421520148667 316.69794165489026,102.96389444269688 315.01110699893025,93.77150628727176" />
<polygon fill="none" stroke-width="1" stroke-dasharray="2" stroke="gray" points="315.01110699893025,125.10483962060509 315.01110699893025,159.0 316.69794165489026,168.1923881554251 316.69794165489026,163.1923881554251 316.04915909490563,159.65685424949237 316.04915909490563,146.65685424949237 316.69794165489026,150.1923881554251 316.69794165489026,134.2972277760302 315.01110699893025,125.10483962060509" />
<polygon fill="none" stroke-width="1" stroke-dasharray="2" stroke="gray" points="315.02110699893024,20.0 316.70794165489025,29.192388155425117 461.69794165489026,29.192388155425117 445.0,20.0 315.02110699893024,20.0" />
<polygon fill="rgba(192,192,192,0.75)" stroke-width="1" stroke-dasharray="" stroke="black" points="315.02110699893024,159.0 445.0,159.0 461.69794165489026,168.1923881554251 316.70794165489025,168.1923881554251 315.02110699893024,159.0" />
<polygon fill="rgba(255,255,255,0.75)" stroke-width="1" stroke-dasharray="" stroke="black" points="446.68683465596,63.064564540673004 446.68683465596,71.65354510351055 429.98889300106975,66.34034933918633 429.98889300106975,49.992983994147 446.68683465596,63.064564540673004" />
<polygon fill="rgba(255,255,255,0.75)" stroke-width="1" stroke-dasharray="" stroke="black" points="446.68683465596,94.39789787400633 446.68683465596,102.9868784368439 429.98889300106975,97.67368267251966 429.98889300106975,81.32631732748033 446.68683465596,94.39789787400633" />
<polygon fill="rgba(255,255,255,0.75)" stroke-width="1" stroke-dasharray="" stroke="black" points="446.68683465596,125.73123120733966 446.68683465596,134.3202117701772 429.98889300106975,129.007016005853 429.98889300106975,112.65965066081365 446.68683465596,125.73123120733966" />
<polygon fill="rgba(255,255,255,0.75)" stroke-width="1" stroke-dasharray="" stroke="black" points="461.69794165489026,63.07754853482001 446.68683465596,63.07754853482001 429.98889300106975,50.0 445.0,50.0" />
<polygon fill="none" stroke-width="1" stroke-dasharray="2" stroke="gray" points="445.0,66.33333333333333 429.98889300106975,66.33333333333333 446.68683465596,71.64056110936356 461.69794165489026,71.64056110936356" />
<polygon fill="rgba(255,255,255,0.75)" stroke-width="1" stroke-dasharray="" stroke="black" points="461.69794165489026,94.41088186815334 446.68683465596,94.41088186815334 429.98889300106975,81.33333333333333 445.0,81.33333333333333" />
<polygon fill="none" stroke-width="1" stroke-dasharray="2" stroke="gray" points="445.0,97.66666666666666 429.98889300106975,97.66666666666666 446.68683465596,102.97389444269689 461.69794165489026,102.97389444269689" />
<polygon fill="rgba(255,255,255,0.75)" stroke-width="1" stroke-dasharray="" stroke="black" points="461.69794165489026,125.74421520148667 446.68683465596,125.74421520148667 429.98889300106975,112.66666666666666 445.0,112.66666666666666" />
<polygon fill="none" stroke-width="1" stroke-dasharray="2" stroke="gray" points="445.0,129.0 429.98889300106975,129.0 446.68683465596,134.3072277760302 461.69794165489026,134.3072277760302" />
<polygon fill="rgba(255,255,255,0.75)" stroke-width="1" stroke-dasharray="" stroke="black" points="461.69794165489026,63.084564540673 445.0,50.01298399414701 445.0,20.0 461.69794165489026,29.192388155425117 461.69794165489026,34.19238815542512 455.27565640300935,30.65685424949238 455.27565640300935,43.65685424949238 461.69794165489026,47.19238815542512 461.69794165489026,63.084564540673" />
<polygon fill="rgba(255,255,255,0.75)" stroke-width="1" stroke-dasharray="" stroke="black" points="461.69794165489026,71.63354510351056 461.69794165489026,94.41789787400634 445.0,81.34631732748032 445.0,66.32034933918632 461.69794165489026,71.63354510351056" />
<polygon fill="rgba(255,255,255,0.75)" stroke-width="1" stroke-dasharray="" stroke="black" points="461.69794165489026,102.96687843684388 461.69794165489026,125.75123120733967 445.0,112.67965066081368 445.0,97.65368267251965 461.69794165489026,102.96687843684388" />
<polygon fill="rgba(255,255,255,0.75)" stroke-width="1" stroke-dasharray="" stroke="black" points="461.69794165489026,134.3002117701772 461.69794165489026,150.1923881554251 455.27565640300935,146.65685424949237 455.27565640300935,159.65685424949237 461.69794165489026,163.1923881554251 461.69794165489026,168.1923881554251 445.0,159.0 445.0,128.98701600585298 461.69794165489026,134.3002117701772" />
<polygon fill="rgba(255,255,255,0.75)" stroke-width="1" stroke-dasharray="" stroke="black" points="445.0,129.01 445.0,159.0 315.02110699893024,159.0 315.02110699893024,159.0 315.02110699893024,125.10483962060509 300.0,128.98741525332784 300.0,112.6792514133388 315.02110699893024,116.56182704606155 315.02110699893024,93.77150628727176 300.0,97.65408191999452 300.0,97.65408191999452 300.0,81.34591808000546 300.0,81.34591808000546 315.02110699893024,85.22849371272822 315.02110699893024,62.43817295393844 300.0,66.3207485866612 300.0,50.01258474667213 315.02110699893024,53.89516037939489 315.02110699893024,20.0 315.02110699893024,20.0 445.0,20.0 445.0,49.99000000000001 429.97889300106976,49.989999999999995 429.97889300106976,66.34333333333333 445.0,66.34333333333333 445.0,66.34333333333333 445.0,81.32333333333332 445.0,81.32333333333332 429.97889300106976,81.32333333333332 429.97889300106976,97.67666666666666 445.0,97.67666666666666 445.0,112.65666666666665 429.97889300106976,112.65666666666665 429.97889300106976,129.01 445.0,129.01" />
<polygon fill="rgba(192,192,192,0.5)" stroke-width="1" stroke-dasharray="" stroke="none" points="312.79879330402633,63.0 300.0,63.0 300.0,66.30816383998906 312.79879330402633,63.0" />
<polygon fill="rgba(192,192,192,0.5)" stroke-width="1" stroke-dasharray="" stroke="none" points="315.01110699893025,111.0 445.0,111.0 445.0,112.66666666666666 429.98889300106975,112.66666666666666 429.98889300106975,116.0 315.01110699893025,116.0 315.01110699893025,111.0" />
<circle cx="430" cy="32.0" r="5" stroke="orange" fill="white" stroke-width="1" />
<circle cx="430" cy="80.0" r="5" stroke="orange" fill="white" stroke-width="1" />
<circle cx="430" cy="128.0" r="5" stroke="orange" fill="white" stroke-width="1" />
</svg>
