<svg width="1100" viewBox="0.0 0.0 550.0 356.4" xmlns="http://www.w3.org/2000/svg">
<polygon fill="none" stroke-width="1" stroke-dasharray="2" stroke="gray" points="19.2,29.2 19.2,168.2 504.2,168.2 504.2,29.2" />
<polygon fill="none" stroke-width="1" stroke-dasharray="2" stroke="gray" points="10.0,20.0 10.0,159.0 19.2,168.2 19.2,29.2" />
<polygon fill="none" stroke-width="1" stroke-dasharray="2" stroke="gray" points="19.2,29.2 504.2,29.2 495.0,20.0 10.0,20.0" />
<polygon fill="rgba(192,192,192,0.75)" stroke-width="1" stroke-dasharray="" stroke="black" points="10.0,159.0 495.0,159.0 504.2,168.2 19.2,168.2" />
<polygon fill="rgba(255,255,255,0.75)" stroke-width="1" stroke-dasharray="" stroke="black" points="504.2,29.2 504.2,168.2 495.0,159.0 495.0,20.0" />
<polygon fill="rgba(255,255,255,0.75)" stroke-width="1" stroke-dasharray="" stroke="black" points="10.0,20.0 495.0,20.0 495.0,159.0 10.0,159.0" />
<polygon fill="rgba(192,192,192,0.5)" stroke-width="1" stroke-dasharray="" stroke="none" points="495.0,63.0 504.2,72.2 504.2,77.2 495.0,68.0" />
<polygon fill="rgba(192,192,192,0.5)" stroke-width="1" stroke-dasharray="" stroke="none" points="495.0,111.0 504.2,120.2 504.2,125.2 495.0,116.0" />
<polygon fill="rgba(192,192,192,0.5)" stroke-width="1" stroke-dasharray="" stroke="none" points="10.0,63.0 495.0,63.0 495.0,68.0 10.0,68.0" />
<polygon fill="rgba(192,192,192,0.5)" stroke-width="1" stroke-dasharray="" stroke="none" points="10.0,111.0 495.0,111.0 495.0,116.0 10.0,116.0" />
<circle cx="165" cy="32.0" r="5" stroke="orange" fill="white" stroke-width="1" />
<circle cx="200" cy="51.0" r="5" stroke="orange" fill="white" stroke-width="1" />
<circle cx="165" cy="80.0" r="5" stroke="orange" fill="white" stroke-width="1" />
<circle cx="200" cy="99.0" r="5" stroke="orange" fill="white" stroke-width="1" />
<circle cx="165" cy="128.0" r="5" stroke="orange" fill="white" stroke-width="1" />
<circle cx="200" cy="147.0" r="5" stroke="orange" fill="white" stroke-width="1" />
<polygon fill="none" stroke-width="1" stroke-dasharray="2" stroke="gray" points="19.2,197.4 19.2,336.4 504.2,336.4 504.2,197.4" />
<polygon fill="none" stroke-width="1" stroke-dasharray="2" stroke="gray" points="10.0,188.2 10.0,327.2 19.2,336.4 19.2,197.4" />
<polygon fill="none" stroke-width="1" stroke-dasharray="2" stroke="gray" points="19.2,197.4 504.2,197.4 495.0,188.2 10.0,188.2" />
<polygon fill="rgba(192,192,192,0.75)" stroke-width="1" stroke-dasharray="" stroke="black" points="10.0,327.2 495.0,327.2 504.2,336.4 19.2,336.4" />
<polygon fill="rgba(255,255,255,0.75)" stroke-width="1" stroke-dasharray="" stroke="black" points="504.2,197.4 504.2,336.4 495.0,327.2 495.0,188.2" />
<polygon fill="rgba(255,255,255,0.75)" stroke-width="1" stroke-dasharray="" stroke="black" points="10.0,188.2 495.0,188.2 495.0,327.2 10.0,327.2" />
<polygon fill="rgba(192,192,192,0.5)" stroke-width="1" stroke-dasharray="" stroke="none" points="495.0,231.2 504.2,240.4 504.2,245.4 495.0,236.2" />
<polygon fill="rgba(192,192,192,0.5)" stroke-width="1" stroke-dasharray="" stroke="none" points="495.0,279.2 504.2,288.4 504.2,293.4 495.0,284.2" />
<polygon fill="rgba(192,192,192,0.5)" stroke-width="1" stroke-dasharray="" stroke="none" points="10.0,231.2 495.0,231.2 495.0,236.2 10.0,236.2" />
<polygon fill="rgba(192,192,192,0.5)" stroke-width="1" stroke-dasharray="" stroke="none" points="10.0,279.2 495.0,279.2 495.0,284.2 10.0,284.2" />
<circle cx="165" cy="200.2" r="5" stroke="orange" fill="white" stroke-width="1" />
<circle cx="200" cy="219.2" r="5" stroke="orange" fill="white" stroke-width="1" />
<rect x="290" y="236.1923881554251" width="40" height="10.0" style="fill: none; stroke: orange; stroke-width: 1;" />
<circle cx="165" cy="248.2" r="5" stroke="orange" fill="white" stroke-width="1" />
<circle cx="200" cy="267.2" r="5" stroke="orange" fill="white" stroke-width="1" />
<circle cx="165" cy="296.2" r="5" stroke="orange" fill="white" stroke-width="1" />
<circle cx="200" cy="315.2" r="5" stroke="orange" fill="white" stroke-width="1" />
<polygon fill="none" stroke-width="1" stroke-dasharray="3" stroke="green" points="284.0,159.0 215.5,40.4 78.5,40.4 10.0,159.0" />
<polygon fill="none" stroke-width="1" stroke-dasharray="3" stroke="green" points="416.1,138.6 484.6,20.0 210.6,20.0 279.1,138.6" />
<polygon fill="none" stroke-width="1" stroke-dasharray="3" stroke="green" points="215.5,306.8 284.0,188.2 10.0,188.2 78.5,306.8" />
<polygon fill="none" stroke-width="1" stroke-dasharray="3" stroke="green" points="484.6,327.2 416.1,208.6 279.1,208.6 210.6,327.2" />
</svg>
