<svg width="1500" viewBox="0.0 0.0 750.0 674.4" xmlns="http://www.w3.org/2000/svg">
<polygon fill="none" stroke-width="1" stroke-dasharray="2" stroke="gray" points="19.2,29.2 19.2,168.2 489.2,168.2 489.2,29.2" />
<polygon fill="none" stroke-width="1" stroke-dasharray="2" stroke="gray" points="10.0,20.0 10.0,159.0 19.2,168.2 19.2,29.2" />
<polygon fill="none" stroke-width="1" stroke-dasharray="2" stroke="gray" points="19.2,29.2 489.2,29.2 480.0,20.0 10.0,20.0" />
<polygon fill="rgba(192,192,192,0.75)" stroke-width="1" stroke-dasharray="" stroke="black" points="10.0,159.0 480.0,159.0 489.2,168.2 19.2,168.2" />
<polygon fill="rgba(255,255,255,0.75)" stroke-width="1" stroke-dasharray="" stroke="black" points="489.2,29.2 489.2,168.2 480.0,159.0 480.0,20.0" />
<polygon fill="rgba(255,255,255,0.75)" stroke-width="1" stroke-dasharray="" stroke="black" points="10.0,20.0 480.0,20.0 480.0,159.0 10.0,159.0" />
<polygon fill="rgba(192,192,192,0.5)" stroke-width="1" stroke-dasharray="" stroke="none" points="480.0,63.0 489.2,72.2 489.2,77.2 480.0,68.0" />
<polygon fill="rgba(192,192,192,0.5)" stroke-width="1" stroke-dasharray="" stroke="none" points="480.0,111.0 489.2,120.2 489.2,125.2 480.0,116.0" />
<polygon fill="rgba(192,192,192,0.5)" stroke-width="1" stroke-dasharray="" stroke="none" points="10.0,63.0 480.0,63.0 480.0,68.0 10.0,68.0" />
<polygon fill="rgba(192,192,192,0.5)" stroke-width="1" stroke-dasharray="" stroke="none" points="10.0,111.0 480.0,111.0 480.0,116.0 10.0,116.0" />
<circle cx="150" cy="32.0" r="5" stroke="orange" fill="white" stroke-width="1" />
<circle cx="185" cy="51.0" r="5" stroke="orange" fill="white" stroke-width="1" />
<circle cx="150" cy="80.0" r="5" stroke="orange" fill="white" stroke-width="1" />
<circle cx="185" cy="99.0" r="5" stroke="orange" fill="white" stroke-width="1" />
<circle cx="150" cy="128.0" r="5" stroke="orange" fill="white" stroke-width="1" />
<circle cx="185" cy="147.0" r="5" stroke="orange" fill="white" stroke-width="1" />
<polygon fill="rgba(0,255,0,0.25)" stroke-width="1" stroke-dasharray="" stroke="green" points="75.0,20.0 76.0,20.0 6.5,159.0 15.7,168.2 14.7,168.2 5.5,159.0" />
<text style="" text-anchor="left" x="85" y="30" fill="black">1</text>
<polygon fill="rgba(0,255,0,0.25)" stroke-width="1" stroke-dasharray="" stroke="green" points="210.6,20.0 211.6,20.0 281.1,159.0 290.3,168.2 289.3,168.2 280.1,159.0" />
<text style="" text-anchor="left" x="220.56565949879928" y="30" fill="black">2</text>
<polygon fill="rgba(0,255,0,0.25)" stroke-width="1" stroke-dasharray="" stroke="green" points="476.1,20.0 477.1,20.0 407.6,159.0 416.8,168.2 415.8,168.2 406.6,159.0" />
<text style="" text-anchor="left" x="486.13131899759856" y="30" fill="black">3</text>
<polygon fill="none" stroke-width="1" stroke-dasharray="2" stroke="gray" points="19.2,197.4 19.2,336.4 489.2,336.4 489.2,197.4" />
<polygon fill="none" stroke-width="1" stroke-dasharray="2" stroke="gray" points="10.0,188.2 10.0,327.2 19.2,336.4 19.2,197.4" />
<polygon fill="none" stroke-width="1" stroke-dasharray="2" stroke="gray" points="19.2,197.4 489.2,197.4 480.0,188.2 10.0,188.2" />
<polygon fill="rgba(192,192,192,0.75)" stroke-width="1" stroke-dasharray="" stroke="black" points="10.0,327.2 480.0,327.2 489.2,336.4 19.2,336.4" />
<polygon fill="rgba(255,255,255,0.75)" stroke-width="1" stroke-dasharray="" stroke="black" points="489.2,197.4 489.2,336.4 480.0,327.2 480.0,188.2" />
<polygon fill="rgba(255,255,255,0.75)" stroke-width="1" stroke-dasharray="" stroke="black" points="10.0,188.2 480.0,188.2 480.0,327.2 10.0,327.2" />
<polygon fill="rgba(192,192,192,0.5)" stroke-width="1" stroke-dasharray="" stroke="none" points="480.0,231.2 489.2,240.4 489.2,245.4 480.0,236.2" />
<polygon fill="rgba(192,192,192,0.5)" stroke-width="1" stroke-dasharray="" stroke="none" points="480.0,279.2 489.2,288.4 489.2,293.4 480.0,284.2" />
<polygon fill="rgba(192,192,192,0.5)" stroke-width="1" stroke-dasharray="" stroke="none" points="10.0,231.2 480.0,231.2 480.0,236.2 10.0,236.2" />
<polygon fill="rgba(192,192,192,0.5)" stroke-width="1" stroke-dasharray="" stroke="none" points="10.0,279.2 480.0,279.2 480.0,284.2 10.0,284.2" />
<circle cx="150" cy="200.2" r="5" stroke="orange" fill="white" stroke-width="1" />
<circle cx="185" cy="219.2" r="5" stroke="orange" fill="white" stroke-width="1" />
<rect x="275" y="236.1923881554251" width="40" height="10.0" style="fill: none; stroke: orange; stroke-width: 1;" />
<circle cx="150" cy="248.2" r="5" stroke="orange" fill="white" stroke-width="1" />
<circle cx="185" cy="267.2" r="5" stroke="orange" fill="white" stroke-width="1" />
<circle cx="150" cy="296.2" r="5" stroke="orange" fill="white" stroke-width="1" />
<circle cx="185" cy="315.2" r="5" stroke="orange" fill="white" stroke-width="1" />
<polygon fill="rgba(0,255,0,0.25)" stroke-width="1" stroke-dasharray="" stroke="green" points="10.0,188.2 11.0,188.2 80.5,327.2 89.7,336.4 88.7,336.4 79.5,327.2" />
<text style="" text-anchor="left" x="20" y="198.1923881554251" fill="black">1</text>
<polygon fill="rgba(0,255,0,0.25)" stroke-width="1" stroke-dasharray="" stroke="green" points="275.6,188.2 276.6,188.2 207.1,327.2 216.3,336.4 215.3,336.4 206.1,327.2" />
<text style="" text-anchor="left" x="285.5656594987993" y="198.1923881554251" fill="black">2</text>
<polygon fill="rgba(0,255,0,0.25)" stroke-width="1" stroke-dasharray="" stroke="green" points="411.1,188.2 412.1,188.2 481.6,327.2 490.8,336.4 489.8,336.4 480.6,327.2" />
<text style="" text-anchor="left" x="421.13131899759856" y="198.1923881554251" fill="black">3</text>
<polygon fill="none" stroke-width="1" stroke-dasharray="2" stroke="gray" points="19.2,356.4 19.2,495.4 84.2,495.4 84.2,356.4" />
<polygon fill="none" stroke-width="1" stroke-dasharray="2" stroke="gray" points="10.0,347.2 10.0,486.2 19.2,495.4 19.2,356.4" />
<polygon fill="none" stroke-width="1" stroke-dasharray="2" stroke="gray" points="19.2,356.4 84.2,356.4 75.0,347.2 10.0,347.2" />
<polygon fill="rgba(192,192,192,0.75)" stroke-width="1" stroke-dasharray="" stroke="black" points="10.0,486.2 75.0,486.2 84.2,495.4 19.2,495.4" />
<polygon fill="rgba(255,255,255,0.75)" stroke-width="1" stroke-dasharray="" stroke="black" points="84.2,356.4 84.2,495.4 75.0,486.2 75.0,347.2" />
<polygon fill="rgba(255,255,255,0.75)" stroke-width="1" stroke-dasharray="" stroke="black" points="10.0,347.2 75.0,347.2 75.0,486.2 10.0,486.2" />
<polygon fill="rgba(192,192,192,0.5)" stroke-width="1" stroke-dasharray="" stroke="none" points="75.0,390.2 84.2,399.4 84.2,404.4 75.0,395.2" />
<polygon fill="rgba(192,192,192,0.5)" stroke-width="1" stroke-dasharray="" stroke="none" points="75.0,438.2 84.2,447.4 84.2,452.4 75.0,443.2" />
<polygon fill="rgba(192,192,192,0.5)" stroke-width="1" stroke-dasharray="" stroke="none" points="10.0,390.2 75.0,390.2 75.0,395.2 10.0,395.2" />
<polygon fill="rgba(192,192,192,0.5)" stroke-width="1" stroke-dasharray="" stroke="none" points="10.0,438.2 75.0,438.2 75.0,443.2 10.0,443.2" />
<polygon fill="rgba(255,255,255,0.75)" stroke-width="1" stroke-dasharray="" stroke="black" points="39.2,356.4 3537.0,495.4 103.7,495.4 103.7,356.4" />
<polygon fill="none" stroke-width="1" stroke-dasharray="2" stroke="gray" points="39.2,356.4 103.7,356.4 94.5,347.2 30.0,347.2" />
<polygon fill="rgba(255,255,255,0.75)" stroke-width="1" stroke-dasharray="" stroke="black" points="103.7,356.4 103.7,495.4 94.5,486.2 94.5,347.2" />
<polygon fill="rgba(192,192,192,0.75)" stroke-width="1" stroke-dasharray="" stroke="black" points="30.0,347.2 3527.8,486.2 3537.0,495.4 39.2,356.4" />
<polygon fill="none" stroke-width="1" stroke-dasharray="2" stroke="gray" points="3527.8,486.2 94.5,486.2 103.7,495.4 3537.0,495.4" />
<polygon fill="none" stroke-width="1" stroke-dasharray="2" stroke="gray" points="30.0,347.2 94.5,347.2 94.5,486.2 3527.8,486.2" />
<polygon fill="rgba(192,192,192,0.5)" stroke-width="1" stroke-dasharray="" stroke="none" points="94.5,390.2 103.7,399.4 103.7,404.4 94.5,395.2" />
<polygon fill="rgba(192,192,192,0.5)" stroke-width="1" stroke-dasharray="" stroke="none" points="94.5,438.2 103.7,447.4 103.7,452.4 94.5,443.2" />
<polygon fill="rgba(192,192,192,0.5)" stroke-width="1" stroke-dasharray="" stroke="none" points="1112.1,390.2 94.5,390.2 94.5,395.2 1237.9,395.2" />
<polygon fill="rgba(192,192,192,0.5)" stroke-width="1" stroke-dasharray="" stroke="none" points="2319.9,438.2 94.5,438.2 94.5,443.2 2445.7,443.2 2319.9,438.2" />
<circle cx="105" cy="359.2" r="5" stroke="orange" fill="white" stroke-width="1" />
<circle cx="140" cy="378.2" r="5" stroke="orange" fill="white" stroke-width="1" />
<circle cx="105" cy="407.2" r="5" stroke="orange" fill="white" stroke-width="1" />
<circle cx="140" cy="426.2" r="5" stroke="orange" fill="white" stroke-width="1" />
<circle cx="105" cy="455.2" r="5" stroke="orange" fill="white" stroke-width="1" />
<circle cx="140" cy="474.2" r="5" stroke="orange" fill="white" stroke-width="1" />
<polygon fill="none" stroke-width="1" stroke-dasharray="2" stroke="gray" points="239.2,356.4 307.7,495.4 435.8,495.4 504.3,356.4" />
<polygon fill="none" stroke-width="1" stroke-dasharray="2" stroke="gray" points="230.0,347.2 298.5,486.2 307.7,495.4 239.2,356.4" />
<polygon fill="rgba(192,192,192,0.75)" stroke-width="1" stroke-dasharray="" stroke="black" points="298.5,486.2 426.6,486.2 435.8,495.4 307.7,495.4" />
<polygon fill="none" stroke-width="1" stroke-dasharray="2" stroke="gray" points="239.2,356.4 504.3,356.4 495.1,347.2 230.0,347.2" />
<polygon fill="rgba(255,255,255,0.75)" stroke-width="1" stroke-dasharray="" stroke="black" points="504.3,356.4 435.8,495.4 426.6,486.2 495.1,347.2" />
<polygon fill="rgba(255,255,255,0.75)" stroke-width="1" stroke-dasharray="" stroke="black" points="230.0,347.2 495.1,347.2 426.6,486.2 298.5,486.2" />
<polygon fill="rgba(192,192,192,0.5)" stroke-width="1" stroke-dasharray="" stroke="none" points="450.2,438.2 459.4,447.4 456.9,452.4 447.8,443.2" />
<polygon fill="rgba(192,192,192,0.5)" stroke-width="1" stroke-dasharray="" stroke="none" points="473.9,390.2 483.1,399.4 480.6,404.4 471.4,395.2" />
<polygon fill="rgba(192,192,192,0.5)" stroke-width="1" stroke-dasharray="" stroke="none" points="251.2,390.2 473.9,390.2 471.4,395.2 253.7,395.2" />
<polygon fill="rgba(192,192,192,0.5)" stroke-width="1" stroke-dasharray="" stroke="none" points="274.9,438.2 450.2,438.2 447.8,443.2 277.3,443.2" />
<polygon fill="none" stroke-width="1" stroke-dasharray="2" stroke="gray" points="527.7,356.4 459.2,495.4 596.6,495.4 596.6,356.4" />
<polygon fill="none" stroke-width="1" stroke-dasharray="2" stroke="gray" points="518.5,347.2 450.0,486.2 459.2,495.4 527.7,356.4" />
<polygon fill="rgba(192,192,192,0.75)" stroke-width="1" stroke-dasharray="" stroke="black" points="450.0,486.2 587.4,486.2 596.6,495.4 459.2,495.4" />
<polygon fill="none" stroke-width="1" stroke-dasharray="2" stroke="gray" points="527.7,356.4 596.6,356.4 587.4,347.2 518.5,347.2" />
<polygon fill="rgba(255,255,255,0.75)" stroke-width="1" stroke-dasharray="" stroke="black" points="596.6,356.4 596.6,495.4 587.4,486.2 587.4,347.2" />
<polygon fill="rgba(255,255,255,0.75)" stroke-width="1" stroke-dasharray="" stroke="black" points="518.5,347.2 587.4,347.2 587.4,486.2 450.0,486.2" />
<polygon fill="rgba(192,192,192,0.5)" stroke-width="1" stroke-dasharray="" stroke="none" points="587.4,390.2 596.6,399.4 596.6,404.4 587.4,395.2" />
<polygon fill="rgba(192,192,192,0.5)" stroke-width="1" stroke-dasharray="" stroke="none" points="587.4,438.2 596.6,447.4 596.6,452.4 587.4,443.2" />
<polygon fill="rgba(192,192,192,0.5)" stroke-width="1" stroke-dasharray="" stroke="none" points="473.7,438.2 587.4,438.2 587.4,443.2 471.2,443.2" />
<polygon fill="rgba(192,192,192,0.5)" stroke-width="1" stroke-dasharray="" stroke="none" points="497.3,390.2 587.4,390.2 587.4,395.2 494.9,395.2" />
<polygon fill="none" stroke-width="1" stroke-dasharray="2" stroke="gray" points="19.2,515.4 19.2,654.4 88.2,654.4 19.7,515.4" />
<polygon fill="none" stroke-width="1" stroke-dasharray="2" stroke="gray" points="10.0,506.2 10.0,645.2 19.2,654.4 19.2,515.4" />
<polygon fill="none" stroke-width="1" stroke-dasharray="2" stroke="gray" points="19.2,515.4 19.7,515.4 10.5,506.2 10.0,506.2" />
<polygon fill="rgba(192,192,192,0.75)" stroke-width="1" stroke-dasharray="" stroke="black" points="10.0,645.2 79.0,645.2 88.2,654.4 19.2,654.4" />
<polygon fill="rgba(255,255,255,0.75)" stroke-width="1" stroke-dasharray="" stroke="silver" points="19.7,515.4 88.2,654.4 79.0,645.2 10.5,506.2" />
<polygon fill="rgba(255,255,255,0.75)" stroke-width="1" stroke-dasharray="" stroke="black" points="10.0,506.2 10.5,506.2 79.0,645.2 10.0,645.2" />
<polygon fill="rgba(192,192,192,0.5)" stroke-width="1" stroke-dasharray="" stroke="none" points="31.7,549.2 40.9,558.4 43.3,563.4 34.2,554.2" />
<polygon fill="rgba(192,192,192,0.5)" stroke-width="1" stroke-dasharray="" stroke="none" points="55.3,597.2 64.5,606.4 67.0,611.4 57.8,602.2" />
<polygon fill="rgba(192,192,192,0.5)" stroke-width="1" stroke-dasharray="" stroke="none" points="31.7,549.2 10.0,549.2 10.0,554.2 34.2,554.2 31.7,549.2" />
<polygon fill="rgba(192,192,192,0.5)" stroke-width="1" stroke-dasharray="" stroke="none" points="10.0,597.2 55.3,597.2 57.8,602.2 10.0,602.2" />
<polygon fill="none" stroke-width="1" stroke-dasharray="2" stroke="gray" points="29.2,515.4 97.7,654.4 225.8,654.4 294.3,515.4" />
<polygon fill="none" stroke-width="1" stroke-dasharray="2" stroke="gray" points="20.0,506.2 88.5,645.2 97.7,654.4 29.2,515.4" />
<polygon fill="none" stroke-width="1" stroke-dasharray="2" stroke="gray" points="29.2,515.4 294.3,515.4 285.1,506.2 20.0,506.2" />
<polygon fill="rgba(192,192,192,0.75)" stroke-width="1" stroke-dasharray="" stroke="black" points="88.5,645.2 216.6,645.2 225.8,654.4 97.7,654.4" />
<polygon fill="rgba(255,255,255,0.75)" stroke-width="1" stroke-dasharray="" stroke="black" points="294.3,515.4 225.8,654.4 216.6,645.2 285.1,506.2" />
<polygon fill="rgba(255,255,255,0.75)" stroke-width="1" stroke-dasharray="" stroke="black" points="20.0,506.2 285.1,506.2 216.6,645.2 88.5,645.2" />
<polygon fill="rgba(192,192,192,0.5)" stroke-width="1" stroke-dasharray="" stroke="none" points="240.2,597.2 249.4,606.4 246.9,611.4 237.8,602.2" />
<polygon fill="rgba(192,192,192,0.5)" stroke-width="1" stroke-dasharray="" stroke="none" points="263.9,549.2 273.1,558.4 270.6,563.4 261.4,554.2" />
<polygon fill="rgba(192,192,192,0.5)" stroke-width="1" stroke-dasharray="" stroke="none" points="41.2,549.2 263.9,549.2 261.4,554.2 43.7,554.2" />
<polygon fill="rgba(192,192,192,0.5)" stroke-width="1" stroke-dasharray="" stroke="none" points="64.9,597.2 240.2,597.2 237.8,602.2 67.3,602.2" />
<circle cx="160" cy="518.2" r="5" stroke="orange" fill="white" stroke-width="1" />
<circle cx="195" cy="537.2" r="5" stroke="orange" fill="white" stroke-width="1" />
<rect x="285" y="554.1923881554251" width="40" height="10.0" style="fill: none; stroke: orange; stroke-width: 1;" />
<circle cx="160" cy="566.2" r="5" stroke="orange" fill="white" stroke-width="1" />
<circle cx="195" cy="585.2" r="5" stroke="orange" fill="white" stroke-width="1" />
<circle cx="160" cy="614.2" r="5" stroke="orange" fill="white" stroke-width="1" />
<circle cx="195" cy="633.2" r="5" stroke="orange" fill="white" stroke-width="1" />
<polygon fill="none" stroke-width="1" stroke-dasharray="2" stroke="gray" points="317.7,515.4 249.2,654.4 453.8,654.4 385.3,515.4" />
<polygon fill="none" stroke-width="1" stroke-dasharray="2" stroke="gray" points="308.5,506.2 240.0,645.2 249.2,654.4 317.7,515.4" />
<polygon fill="none" stroke-width="1" stroke-dasharray="2" stroke="gray" points="317.7,515.4 385.3,515.4 376.1,506.2 308.5,506.2" />
<polygon fill="rgba(192,192,192,0.75)" stroke-width="1" stroke-dasharray="" stroke="black" points="240.0,645.2 444.6,645.2 453.8,654.4 249.2,654.4" />
<polygon fill="rgba(255,255,255,0.75)" stroke-width="1" stroke-dasharray="" stroke="silver" points="385.3,515.4 453.8,654.4 444.6,645.2 376.1,506.2" />
<polygon fill="rgba(255,255,255,0.75)" stroke-width="1" stroke-dasharray="" stroke="black" points="308.5,506.2 376.1,506.2 444.6,645.2 240.0,645.2" />
<polygon fill="rgba(192,192,192,0.5)" stroke-width="1" stroke-dasharray="" stroke="none" points="397.3,549.2 406.4,558.4 408.9,563.4 399.7,554.2" />
<polygon fill="rgba(192,192,192,0.5)" stroke-width="1" stroke-dasharray="" stroke="none" points="420.9,597.2 430.1,606.4 432.6,611.4 423.4,602.2" />
<polygon fill="rgba(192,192,192,0.5)" stroke-width="1" stroke-dasharray="" stroke="none" points="287.3,549.2 397.3,549.2 399.7,554.2 284.9,554.2" />
<polygon fill="rgba(192,192,192,0.5)" stroke-width="1" stroke-dasharray="" stroke="none" points="263.7,597.2 420.9,597.2 423.4,602.2 261.2,602.2" />
<rect x="239.43434050120072" y="554.1923881554251" width="40.0" height="10.0" style="fill: none; stroke: orange; stroke-width: 1;" />
<polygon fill="none" stroke-width="1" stroke-dasharray="2" stroke="gray" points="459.2,515.4 527.7,654.4 596.1,654.4 596.1,515.4" />
<polygon fill="none" stroke-width="1" stroke-dasharray="2" stroke="gray" points="450.0,506.2 518.5,645.2 527.7,654.4 459.2,515.4" />
<polygon fill="none" stroke-width="1" stroke-dasharray="2" stroke="gray" points="459.2,515.4 596.1,515.4 586.9,506.2 450.0,506.2" />
<polygon fill="rgba(192,192,192,0.75)" stroke-width="1" stroke-dasharray="" stroke="black" points="518.5,645.2 586.9,645.2 596.1,654.4 527.7,654.4" />
<polygon fill="rgba(255,255,255,0.75)" stroke-width="1" stroke-dasharray="" stroke="black" points="596.1,515.4 596.1,654.4 586.9,645.2 586.9,506.2" />
<polygon fill="rgba(255,255,255,0.75)" stroke-width="1" stroke-dasharray="" stroke="black" points="450.0,506.2 586.9,506.2 586.9,645.2 518.5,645.2" />
<polygon fill="rgba(192,192,192,0.5)" stroke-width="1" stroke-dasharray="" stroke="none" points="586.9,549.2 596.1,558.4 596.1,563.4 586.9,554.2" />
<polygon fill="rgba(192,192,192,0.5)" stroke-width="1" stroke-dasharray="" stroke="none" points="586.9,597.2 596.1,606.4 596.1,611.4 586.9,602.2" />
<polygon fill="rgba(192,192,192,0.5)" stroke-width="1" stroke-dasharray="" stroke="none" points="471.2,549.2 586.9,549.2 586.9,554.2 473.7,554.2" />
<polygon fill="rgba(192,192,192,0.5)" stroke-width="1" stroke-dasharray="" stroke="none" points="494.9,597.2 586.9,597.2 586.9,602.2 497.3,602.2" />
<polygon fill="none" stroke-width="1" stroke-dasharray="3" stroke="green" points="284.0,159.0 215.5,40.4 78.5,40.4 10.0,159.0" />
<polygon fill="none" stroke-width="1" stroke-dasharray="3" stroke="green" points="416.0,138.6 484.5,20.0 210.6,20.0 279.1,138.6" />
<polygon fill="none" stroke-width="1" stroke-dasharray="3" stroke="green" points="215.5,306.8 284.0,188.2 10.0,188.2 78.5,306.8" />
<polygon fill="none" stroke-width="1" stroke-dasharray="3" stroke="green" points="484.5,327.2 416.0,208.6 279.1,208.6 210.6,327.2" />
</svg>
