<svg width="1100" viewBox="0.0 0.0 1100.0 726.7" xmlns="http://www.w3.org/2000/svg">
<polygon fill="none" stroke-width="1" stroke-dasharray="2" stroke="gray" points="19.2,29.2 19.2,72.2 1019.2,72.2 1019.2,29.2" />
<polygon fill="none" stroke-width="1" stroke-dasharray="2" stroke="gray" points="10.0,20.0 10.0,63.0 19.2,72.2 19.2,29.2" />
<polygon fill="none" stroke-width="1" stroke-dasharray="2" stroke="gray" points="19.2,29.2 1019.2,29.2 1010.0,20.0 10.0,20.0" />
<polygon fill="rgba(192,192,192,0.75)" stroke-width="1" stroke-dasharray="" stroke="black" points="10.0,63.0 1010.0,63.0 1019.2,72.2 19.2,72.2" />
<polygon fill="rgba(255,255,255,0.75)" stroke-width="1" stroke-dasharray="" stroke="black" points="1019.2,29.2 1019.2,72.2 1010.0,63.0 1010.0,20.0" />
<polygon fill="rgba(255,255,255,0.75)" stroke-width="1" stroke-dasharray="" stroke="black" points="10.0,20.0 1010.0,20.0 1010.0,63.0 10.0,63.0" />
<circle cx="325" cy="32" r="5" stroke="orange" fill="white" stroke-width="1" />
<circle cx="360" cy="51" r="5" stroke="orange" fill="white" stroke-width="1" />
<circle cx="665" cy="32" r="5" stroke="orange" fill="white" stroke-width="1" />
<circle cx="700" cy="51" r="5" stroke="orange" fill="white" stroke-width="1" />
<polygon fill="rgba(255,0,0,0.25)" stroke-width="1" stroke-dasharray="" stroke="rgba(255,0,0,0.25)" points="10.0,20.0 31.0,20.0 31.0,63.0 40.2,72.2 19.2,72.2 10.0,63.0" />
<text style="" text-anchor="left" x="20" y="30" fill="black">1</text>
<polygon fill="rgba(0,255,0,0.25)" stroke-width="1" stroke-dasharray="" stroke="green" points="520.0,20.0 526.0,20.0 526.0,63.0 535.2,72.2 529.2,72.2 520.0,63.0" />
<text style="" text-anchor="left" x="530" y="30" fill="black">2</text>
<polygon fill="rgba(0,255,0,0.25)" stroke-width="1" stroke-dasharray="" stroke="green" points="995.0,20.0 996.0,20.0 996.0,63.0 1005.2,72.2 1004.2,72.2 995.0,63.0" />
<text style="" text-anchor="left" x="1005" y="30" fill="black">3</text>
<polygon fill="rgba(255,0,0,0.25)" stroke-width="1" stroke-dasharray="" stroke="rgba(255,0,0,0.25)" points="995.0,20.0 1011.0,20.0 1011.0,63.0 1020.2,72.2 1004.2,72.2 995.0,63.0" />
<polygon fill="none" stroke-width="1" stroke-dasharray="2" stroke="gray" points="19.2,101.4 19.2,144.4 1019.2,144.4 1019.2,101.4" />
<polygon fill="none" stroke-width="1" stroke-dasharray="2" stroke="gray" points="10.0,92.2 10.0,135.2 19.2,144.4 19.2,101.4" />
<polygon fill="none" stroke-width="1" stroke-dasharray="2" stroke="gray" points="19.2,101.4 1019.2,101.4 1010.0,92.2 10.0,92.2" />
<polygon fill="rgba(192,192,192,0.75)" stroke-width="1" stroke-dasharray="" stroke="black" points="10.0,135.2 1010.0,135.2 1019.2,144.4 19.2,144.4" />
<polygon fill="rgba(255,255,255,0.75)" stroke-width="1" stroke-dasharray="" stroke="black" points="1019.2,101.4 1019.2,144.4 1010.0,135.2 1010.0,92.2" />
<polygon fill="rgba(255,255,255,0.75)" stroke-width="1" stroke-dasharray="" stroke="black" points="10.0,92.2 1010.0,92.2 1010.0,135.2 10.0,135.2" />
<rect x="790" y="92.19238815542512" width="40" height="10" style="fill: none; stroke: orange; stroke-width: 1;" />
<circle cx="325" cy="104.2" r="5" stroke="orange" fill="white" stroke-width="1" />
<circle cx="360" cy="123.2" r="5" stroke="orange" fill="white" stroke-width="1" />
<circle cx="665" cy="104.2" r="5" stroke="orange" fill="white" stroke-width="1" />
<circle cx="700" cy="123.2" r="5" stroke="orange" fill="white" stroke-width="1" />
<polygon fill="rgba(255,0,0,0.25)" stroke-width="1" stroke-dasharray="" stroke="rgba(255,0,0,0.25)" points="10.0,92.2 31.0,92.2 31.0,135.2 40.2,144.4 19.2,144.4 10.0,135.2" />
<text style="" text-anchor="left" x="20" y="102.19238815542512" fill="black">1</text>
<polygon fill="rgba(0,255,0,0.25)" stroke-width="1" stroke-dasharray="" stroke="green" points="520.0,92.2 526.0,92.2 526.0,135.2 535.2,144.4 529.2,144.4 520.0,135.2" />
<text style="" text-anchor="left" x="530" y="102.19238815542512" fill="black">2</text>
<polygon fill="rgba(0,255,0,0.25)" stroke-width="1" stroke-dasharray="" stroke="green" points="995.0,92.2 996.0,92.2 996.0,135.2 1005.2,144.4 1004.2,144.4 995.0,135.2" />
<text style="" text-anchor="left" x="1005" y="102.19238815542512" fill="black">3</text>
<polygon fill="rgba(255,0,0,0.25)" stroke-width="1" stroke-dasharray="" stroke="rgba(255,0,0,0.25)" points="995.0,92.2 1011.0,92.2 1011.0,135.2 1020.2,144.4 1004.2,144.4 995.0,135.2" />
<polygon fill="none" stroke-width="1" stroke-dasharray="2" stroke="gray" points="19.2,173.6 19.2,216.6 1019.2,216.6 1019.2,173.6" />
<polygon fill="none" stroke-width="1" stroke-dasharray="2" stroke="gray" points="10.0,164.4 10.0,207.4 19.2,216.6 19.2,173.6" />
<polygon fill="none" stroke-width="1" stroke-dasharray="2" stroke="gray" points="19.2,173.6 1019.2,173.6 1010.0,164.4 10.0,164.4" />
<polygon fill="rgba(192,192,192,0.75)" stroke-width="1" stroke-dasharray="" stroke="black" points="10.0,207.4 1010.0,207.4 1019.2,216.6 19.2,216.6" />
<polygon fill="rgba(255,255,255,0.75)" stroke-width="1" stroke-dasharray="" stroke="black" points="1019.2,173.6 1019.2,216.6 1010.0,207.4 1010.0,164.4" />
<polygon fill="rgba(255,255,255,0.75)" stroke-width="1" stroke-dasharray="" stroke="black" points="10.0,164.4 1010.0,164.4 1010.0,207.4 10.0,207.4" />
<rect x="370" y="197.38477631085024" width="40" height="10" style="fill: none; stroke: orange; stroke-width: 1;" />
<circle cx="325" cy="176.4" r="5" stroke="orange" fill="white" stroke-width="1" />
<circle cx="360" cy="195.4" r="5" stroke="orange" fill="white" stroke-width="1" />
<circle cx="665" cy="176.4" r="5" stroke="orange" fill="white" stroke-width="1" />
<circle cx="700" cy="195.4" r="5" stroke="orange" fill="white" stroke-width="1" />
<polygon fill="rgba(255,0,0,0.25)" stroke-width="1" stroke-dasharray="" stroke="rgba(255,0,0,0.25)" points="10.0,164.4 31.0,164.4 31.0,207.4 40.2,216.6 19.2,216.6 10.0,207.4" />
<text style="" text-anchor="left" x="20" y="174.38477631085024" fill="black">1</text>
<polygon fill="rgba(0,255,0,0.25)" stroke-width="1" stroke-dasharray="" stroke="green" points="520.0,164.4 526.0,164.4 526.0,207.4 535.2,216.6 529.2,216.6 520.0,207.4" />
<text style="" text-anchor="left" x="530" y="174.38477631085024" fill="black">2</text>
<polygon fill="rgba(0,255,0,0.25)" stroke-width="1" stroke-dasharray="" stroke="green" points="995.0,164.4 996.0,164.4 996.0,207.4 1005.2,216.6 1004.2,216.6 995.0,207.4" />
<text style="" text-anchor="left" x="1005" y="174.38477631085024" fill="black">3</text>
<polygon fill="rgba(255,0,0,0.25)" stroke-width="1" stroke-dasharray="" stroke="rgba(255,0,0,0.25)" points="995.0,164.4 1011.0,164.4 1011.0,207.4 1020.2,216.6 1004.2,216.6 995.0,207.4" />
<polygon fill="none" stroke-width="1" stroke-dasharray="2" stroke="gray" points="19.2,245.8 19.2,288.8 1019.2,288.8 1019.2,245.8" />
<polygon fill="none" stroke-width="1" stroke-dasharray="2" stroke="gray" points="10.0,236.6 10.0,279.6 19.2,288.8 19.2,245.8" />
<polygon fill="none" stroke-width="1" stroke-dasharray="2" stroke="gray" points="19.2,245.8 1019.2,245.8 1010.0,236.6 10.0,236.6" />
<polygon fill="rgba(192,192,192,0.75)" stroke-width="1" stroke-dasharray="" stroke="black" points="10.0,279.6 1010.0,279.6 1019.2,288.8 19.2,288.8" />
<polygon fill="rgba(255,255,255,0.75)" stroke-width="1" stroke-dasharray="" stroke="black" points="1019.2,245.8 1019.2,288.8 1010.0,279.6 1010.0,236.6" />
<polygon fill="rgba(255,255,255,0.75)" stroke-width="1" stroke-dasharray="" stroke="black" points="10.0,236.6 1010.0,236.6 1010.0,279.6 10.0,279.6" />
<circle cx="325" cy="248.6" r="5" stroke="orange" fill="white" stroke-width="1" />
<circle cx="360" cy="267.6" r="5" stroke="orange" fill="white" stroke-width="1" />
<circle cx="665" cy="248.6" r="5" stroke="orange" fill="white" stroke-width="1" />
<circle cx="700" cy="267.6" r="5" stroke="orange" fill="white" stroke-width="1" />
<polygon fill="rgba(255,0,0,0.25)" stroke-width="1" stroke-dasharray="" stroke="rgba(255,0,0,0.25)" points="10.0,236.6 31.0,236.6 31.0,279.6 40.2,288.8 19.2,288.8 10.0,279.6" />
<text style="" text-anchor="left" x="20" y="246.57716446627535" fill="black">1</text>
<polygon fill="rgba(0,255,0,0.25)" stroke-width="1" stroke-dasharray="" stroke="green" points="520.0,236.6 526.0,236.6 526.0,279.6 535.2,288.8 529.2,288.8 520.0,279.6" />
<text style="" text-anchor="left" x="530" y="246.57716446627535" fill="black">2</text>
<polygon fill="rgba(0,255,0,0.25)" stroke-width="1" stroke-dasharray="" stroke="green" points="995.0,236.6 996.0,236.6 996.0,279.6 1005.2,288.8 1004.2,288.8 995.0,279.6" />
<text style="" text-anchor="left" x="1005" y="246.57716446627535" fill="black">3</text>
<polygon fill="rgba(255,0,0,0.25)" stroke-width="1" stroke-dasharray="" stroke="rgba(255,0,0,0.25)" points="995.0,236.6 1011.0,236.6 1011.0,279.6 1020.2,288.8 1004.2,288.8 995.0,279.6" />
<polygon fill="none" stroke-width="1" stroke-dasharray="2" stroke="gray" points="19.2,318.0 19.2,361.0 1019.2,361.0 1019.2,318.0" />
<polygon fill="none" stroke-width="1" stroke-dasharray="2" stroke="gray" points="10.0,308.8 10.0,351.8 19.2,361.0 19.2,318.0" />
<polygon fill="none" stroke-width="1" stroke-dasharray="2" stroke="gray" points="19.2,318.0 1019.2,318.0 1010.0,308.8 10.0,308.8" />
<polygon fill="rgba(192,192,192,0.75)" stroke-width="1" stroke-dasharray="" stroke="black" points="10.0,351.8 1010.0,351.8 1019.2,361.0 19.2,361.0" />
<polygon fill="rgba(255,255,255,0.75)" stroke-width="1" stroke-dasharray="" stroke="black" points="1019.2,318.0 1019.2,361.0 1010.0,351.8 1010.0,308.8" />
<polygon fill="rgba(255,255,255,0.75)" stroke-width="1" stroke-dasharray="" stroke="black" points="10.0,308.8 1010.0,308.8 1010.0,351.8 10.0,351.8" />
<circle cx="325" cy="320.8" r="5" stroke="orange" fill="white" stroke-width="1" />
<circle cx="360" cy="339.8" r="5" stroke="orange" fill="white" stroke-width="1" />
<circle cx="665" cy="320.8" r="5" stroke="orange" fill="white" stroke-width="1" />
<circle cx="700" cy="339.8" r="5" stroke="orange" fill="white" stroke-width="1" />
<polygon fill="rgba(255,0,0,0.25)" stroke-width="1" stroke-dasharray="" stroke="rgba(255,0,0,0.25)" points="10.0,308.8 31.0,308.8 31.0,351.8 40.2,361.0 19.2,361.0 10.0,351.8" />
<text style="" text-anchor="left" x="20" y="318.7695526217005" fill="black">1</text>
<polygon fill="rgba(0,255,0,0.25)" stroke-width="1" stroke-dasharray="" stroke="green" points="520.0,308.8 526.0,308.8 526.0,351.8 535.2,361.0 529.2,361.0 520.0,351.8" />
<text style="" text-anchor="left" x="530" y="318.7695526217005" fill="black">2</text>
<polygon fill="rgba(0,255,0,0.25)" stroke-width="1" stroke-dasharray="" stroke="green" points="995.0,308.8 996.0,308.8 996.0,351.8 1005.2,361.0 1004.2,361.0 995.0,351.8" />
<text style="" text-anchor="left" x="1005" y="318.7695526217005" fill="black">3</text>
<polygon fill="rgba(255,0,0,0.25)" stroke-width="1" stroke-dasharray="" stroke="rgba(255,0,0,0.25)" points="995.0,308.8 1011.0,308.8 1011.0,351.8 1020.2,361.0 1004.2,361.0 995.0,351.8" />
<polygon fill="none" stroke-width="1" stroke-dasharray="2" stroke="gray" points="19.2,390.2 19.2,433.2 1019.2,433.2 1019.2,390.2" />
<polygon fill="none" stroke-width="1" stroke-dasharray="2" stroke="gray" points="10.0,381.0 10.0,424.0 19.2,433.2 19.2,390.2" />
<polygon fill="none" stroke-width="1" stroke-dasharray="2" stroke="gray" points="19.2,390.2 1019.2,390.2 1010.0,381.0 10.0,381.0" />
<polygon fill="rgba(192,192,192,0.75)" stroke-width="1" stroke-dasharray="" stroke="black" points="10.0,424.0 1010.0,424.0 1019.2,433.2 19.2,433.2" />
<polygon fill="rgba(255,255,255,0.75)" stroke-width="1" stroke-dasharray="" stroke="black" points="1019.2,390.2 1019.2,433.2 1010.0,424.0 1010.0,381.0" />
<polygon fill="rgba(255,255,255,0.75)" stroke-width="1" stroke-dasharray="" stroke="black" points="10.0,381.0 1010.0,381.0 1010.0,424.0 10.0,424.0" />
<circle cx="325" cy="393.0" r="5" stroke="orange" fill="white" stroke-width="1" />
<circle cx="360" cy="412.0" r="5" stroke="orange" fill="white" stroke-width="1" />
<circle cx="665" cy="393.0" r="5" stroke="orange" fill="white" stroke-width="1" />
<circle cx="700" cy="412.0" r="5" stroke="orange" fill="white" stroke-width="1" />
<polygon fill="rgba(255,0,0,0.25)" stroke-width="1" stroke-dasharray="" stroke="rgba(255,0,0,0.25)" points="10.0,381.0 31.0,381.0 31.0,424.0 40.2,433.2 19.2,433.2 10.0,424.0" />
<text style="" text-anchor="left" x="20" y="390.9619407771256" fill="black">1</text>
<polygon fill="rgba(0,255,0,0.25)" stroke-width="1" stroke-dasharray="" stroke="green" points="520.0,381.0 526.0,381.0 526.0,424.0 535.2,433.2 529.2,433.2 520.0,424.0" />
<text style="" text-anchor="left" x="530" y="390.9619407771256" fill="black">2</text>
<polygon fill="rgba(0,255,0,0.25)" stroke-width="1" stroke-dasharray="" stroke="green" points="995.0,381.0 996.0,381.0 996.0,424.0 1005.2,433.2 1004.2,433.2 995.0,424.0" />
<text style="" text-anchor="left" x="1005" y="390.9619407771256" fill="black">3</text>
<polygon fill="rgba(255,0,0,0.25)" stroke-width="1" stroke-dasharray="" stroke="rgba(255,0,0,0.25)" points="995.0,381.0 1011.0,381.0 1011.0,424.0 1020.2,433.2 1004.2,433.2 995.0,424.0" />
<polygon fill="none" stroke-width="1" stroke-dasharray="2" stroke="gray" points="19.2,462.3 19.2,467.3 509.2,467.3 509.2,462.3" />
<polygon fill="none" stroke-width="1" stroke-dasharray="2" stroke="gray" points="10.0,453.2 10.0,458.2 19.2,467.3 19.2,462.3" />
<polygon fill="none" stroke-width="1" stroke-dasharray="2" stroke="gray" points="19.2,462.3 509.2,462.3 500.0,453.2 10.0,453.2" />
<polygon fill="rgba(192,192,192,0.75)" stroke-width="1" stroke-dasharray="" stroke="black" points="10.0,458.2 500.0,458.2 509.2,467.3 19.2,467.3" />
<polygon fill="rgba(255,255,255,0.75)" stroke-width="1" stroke-dasharray="" stroke="black" points="509.2,462.3 509.2,467.3 500.0,458.2 500.0,453.2" />
<polygon fill="rgba(255,255,255,0.75)" stroke-width="1" stroke-dasharray="" stroke="black" points="10.0,453.2 500.0,453.2 500.0,458.2 10.0,458.2" />
<polygon fill="rgba(192,192,192,0.5)" stroke-width="1" stroke-dasharray="" stroke="none" points="500.0,453.2 509.2,462.3 509.2,467.3 500.0,458.2" />
<polygon fill="rgba(192,192,192,0.5)" stroke-width="1" stroke-dasharray="" stroke="none" points="10.0,453.2 500.0,453.2 500.0,458.2 10.0,458.2" />
<polygon fill="none" stroke-width="1" stroke-dasharray="2" stroke="gray" points="19.2,496.5 19.2,501.5 509.2,501.5 509.2,496.5" />
<polygon fill="none" stroke-width="1" stroke-dasharray="2" stroke="gray" points="10.0,487.3 10.0,492.3 19.2,501.5 19.2,496.5" />
<polygon fill="none" stroke-width="1" stroke-dasharray="2" stroke="gray" points="19.2,496.5 509.2,496.5 500.0,487.3 10.0,487.3" />
<polygon fill="rgba(192,192,192,0.75)" stroke-width="1" stroke-dasharray="" stroke="black" points="10.0,492.3 500.0,492.3 509.2,501.5 19.2,501.5" />
<polygon fill="rgba(255,255,255,0.75)" stroke-width="1" stroke-dasharray="" stroke="black" points="509.2,496.5 509.2,501.5 500.0,492.3 500.0,487.3" />
<polygon fill="rgba(255,255,255,0.75)" stroke-width="1" stroke-dasharray="" stroke="black" points="10.0,487.3 500.0,487.3 500.0,492.3 10.0,492.3" />
<polygon fill="rgba(192,192,192,0.5)" stroke-width="1" stroke-dasharray="" stroke="none" points="500.0,487.3 509.2,496.5 509.2,501.5 500.0,492.3" />
<polygon fill="rgba(192,192,192,0.5)" stroke-width="1" stroke-dasharray="" stroke="none" points="10.0,487.3 500.0,487.3 500.0,492.3 10.0,492.3" />
<polygon fill="none" stroke-width="1" stroke-dasharray="2" stroke="gray" points="19.2,530.7 19.2,535.7 509.2,535.7 509.2,530.7" />
<polygon fill="none" stroke-width="1" stroke-dasharray="2" stroke="gray" points="10.0,521.5 10.0,526.5 19.2,535.7 19.2,530.7" />
<polygon fill="none" stroke-width="1" stroke-dasharray="2" stroke="gray" points="19.2,530.7 509.2,530.7 500.0,521.5 10.0,521.5" />
<polygon fill="rgba(192,192,192,0.75)" stroke-width="1" stroke-dasharray="" stroke="black" points="10.0,526.5 500.0,526.5 509.2,535.7 19.2,535.7" />
<polygon fill="rgba(255,255,255,0.75)" stroke-width="1" stroke-dasharray="" stroke="black" points="509.2,530.7 509.2,535.7 500.0,526.5 500.0,521.5" />
<polygon fill="rgba(255,255,255,0.75)" stroke-width="1" stroke-dasharray="" stroke="black" points="10.0,521.5 500.0,521.5 500.0,526.5 10.0,526.5" />
<polygon fill="rgba(192,192,192,0.5)" stroke-width="1" stroke-dasharray="" stroke="none" points="500.0,521.5 509.2,530.7 509.2,535.7 500.0,526.5" />
<polygon fill="rgba(192,192,192,0.5)" stroke-width="1" stroke-dasharray="" stroke="none" points="10.0,521.5 500.0,521.5 500.0,526.5 10.0,526.5" />
<polygon fill="none" stroke-width="1" stroke-dasharray="2" stroke="gray" points="19.2,564.9 19.2,569.9 509.2,569.9 509.2,564.9" />
<polygon fill="none" stroke-width="1" stroke-dasharray="2" stroke="gray" points="10.0,555.7 10.0,560.7 19.2,569.9 19.2,564.9" />
<polygon fill="none" stroke-width="1" stroke-dasharray="2" stroke="gray" points="19.2,564.9 509.2,564.9 500.0,555.7 10.0,555.7" />
<polygon fill="rgba(192,192,192,0.75)" stroke-width="1" stroke-dasharray="" stroke="black" points="10.0,560.7 500.0,560.7 509.2,569.9 19.2,569.9" />
<polygon fill="rgba(255,255,255,0.75)" stroke-width="1" stroke-dasharray="" stroke="black" points="509.2,564.9 509.2,569.9 500.0,560.7 500.0,555.7" />
<polygon fill="rgba(255,255,255,0.75)" stroke-width="1" stroke-dasharray="" stroke="black" points="10.0,555.7 500.0,555.7 500.0,560.7 10.0,560.7" />
<polygon fill="rgba(192,192,192,0.5)" stroke-width="1" stroke-dasharray="" stroke="none" points="500.0,555.7 509.2,564.9 509.2,569.9 500.0,560.7" />
<polygon fill="rgba(192,192,192,0.5)" stroke-width="1" stroke-dasharray="" stroke="none" points="10.0,555.7 500.0,555.7 500.0,560.7 10.0,560.7" />
<polygon fill="none" stroke-width="1" stroke-dasharray="2" stroke="gray" points="19.2,599.1 19.2,604.1 489.2,604.1 489.2,599.1" />
<polygon fill="none" stroke-width="1" stroke-dasharray="2" stroke="gray" points="10.0,589.9 10.0,594.9 19.2,604.1 19.2,599.1" />
<polygon fill="none" stroke-width="1" stroke-dasharray="2" stroke="gray" points="19.2,599.1 489.2,599.1 480.0,589.9 10.0,589.9" />
<polygon fill="rgba(192,192,192,0.75)" stroke-width="1" stroke-dasharray="" stroke="black" points="10.0,594.9 480.0,594.9 489.2,604.1 19.2,604.1" />
<polygon fill="rgba(255,255,255,0.75)" stroke-width="1" stroke-dasharray="" stroke="black" points="489.2,599.1 489.2,604.1 480.0,594.9 480.0,589.9" />
<polygon fill="rgba(255,255,255,0.75)" stroke-width="1" stroke-dasharray="" stroke="black" points="10.0,589.9 480.0,589.9 480.0,594.9 10.0,594.9" />
<polygon fill="rgba(192,192,192,0.5)" stroke-width="1" stroke-dasharray="" stroke="none" points="480.0,589.9 489.2,599.1 489.2,604.1 480.0,594.9" />
<polygon fill="rgba(192,192,192,0.5)" stroke-width="1" stroke-dasharray="" stroke="none" points="10.0,589.9 480.0,589.9 480.0,594.9 10.0,594.9" />
<polygon fill="none" stroke-width="1" stroke-dasharray="2" stroke="gray" points="19.2,633.3 19.2,638.3 489.2,638.3 489.2,633.3" />
<polygon fill="none" stroke-width="1" stroke-dasharray="2" stroke="gray" points="10.0,624.1 10.0,629.1 19.2,638.3 19.2,633.3" />
<polygon fill="none" stroke-width="1" stroke-dasharray="2" stroke="gray" points="19.2,633.3 489.2,633.3 480.0,624.1 10.0,624.1" />
<polygon fill="rgba(192,192,192,0.75)" stroke-width="1" stroke-dasharray="" stroke="black" points="10.0,629.1 480.0,629.1 489.2,638.3 19.2,638.3" />
<polygon fill="rgba(255,255,255,0.75)" stroke-width="1" stroke-dasharray="" stroke="black" points="489.2,633.3 489.2,638.3 480.0,629.1 480.0,624.1" />
<polygon fill="rgba(255,255,255,0.75)" stroke-width="1" stroke-dasharray="" stroke="black" points="10.0,624.1 480.0,624.1 480.0,629.1 10.0,629.1" />
<polygon fill="rgba(192,192,192,0.5)" stroke-width="1" stroke-dasharray="" stroke="none" points="480.0,624.1 489.2,633.3 489.2,638.3 480.0,629.1" />
<polygon fill="rgba(192,192,192,0.5)" stroke-width="1" stroke-dasharray="" stroke="none" points="10.0,624.1 480.0,624.1 480.0,629.1 10.0,629.1" />
<polygon fill="none" stroke-width="1" stroke-dasharray="2" stroke="gray" points="19.2,667.5 19.2,672.5 489.2,672.5 489.2,667.5" />
<polygon fill="none" stroke-width="1" stroke-dasharray="2" stroke="gray" points="10.0,658.3 10.0,663.3 19.2,672.5 19.2,667.5" />
<polygon fill="none" stroke-width="1" stroke-dasharray="2" stroke="gray" points="19.2,667.5 489.2,667.5 480.0,658.3 10.0,658.3" />
<polygon fill="rgba(192,192,192,0.75)" stroke-width="1" stroke-dasharray="" stroke="black" points="10.0,663.3 480.0,663.3 489.2,672.5 19.2,672.5" />
<polygon fill="rgba(255,255,255,0.75)" stroke-width="1" stroke-dasharray="" stroke="black" points="489.2,667.5 489.2,672.5 480.0,663.3 480.0,658.3" />
<polygon fill="rgba(255,255,255,0.75)" stroke-width="1" stroke-dasharray="" stroke="black" points="10.0,658.3 480.0,658.3 480.0,663.3 10.0,663.3" />
<polygon fill="rgba(192,192,192,0.5)" stroke-width="1" stroke-dasharray="" stroke="none" points="480.0,658.3 489.2,667.5 489.2,672.5 480.0,663.3" />
<polygon fill="rgba(192,192,192,0.5)" stroke-width="1" stroke-dasharray="" stroke="none" points="10.0,658.3 480.0,658.3 480.0,663.3 10.0,663.3" />
<polygon fill="none" stroke-width="1" stroke-dasharray="2" stroke="gray" points="19.2,701.7 19.2,706.7 489.2,706.7 489.2,701.7" />
<polygon fill="none" stroke-width="1" stroke-dasharray="2" stroke="gray" points="10.0,692.5 10.0,697.5 19.2,706.7 19.2,701.7" />
<polygon fill="none" stroke-width="1" stroke-dasharray="2" stroke="gray" points="19.2,701.7 489.2,701.7 480.0,692.5 10.0,692.5" />
<polygon fill="rgba(192,192,192,0.75)" stroke-width="1" stroke-dasharray="" stroke="black" points="10.0,697.5 480.0,697.5 489.2,706.7 19.2,706.7" />
<polygon fill="rgba(255,255,255,0.75)" stroke-width="1" stroke-dasharray="" stroke="black" points="489.2,701.7 489.2,706.7 480.0,697.5 480.0,692.5" />
<polygon fill="rgba(255,255,255,0.75)" stroke-width="1" stroke-dasharray="" stroke="black" points="10.0,692.5 480.0,692.5 480.0,697.5 10.0,697.5" />
<polygon fill="rgba(192,192,192,0.5)" stroke-width="1" stroke-dasharray="" stroke="none" points="480.0,692.5 489.2,701.7 489.2,706.7 480.0,697.5" />
<polygon fill="rgba(192,192,192,0.5)" stroke-width="1" stroke-dasharray="" stroke="none" points="10.0,692.5 480.0,692.5 480.0,697.5 10.0,697.5" />
</svg>
