<svg width="1100" viewBox="0.0 0.0 550.0 188.2" xmlns="http://www.w3.org/2000/svg">
<polygon fill="none" stroke-width="1" stroke-dasharray="2" stroke="gray" points="19.2,132.4 34.2,132.4 34.2,144.5 19.2,144.5 19.2,150.2 164.2,150.2 164.2,144.4 179.2,148.3 179.2,148.3 179.2,128.5 179.2,128.5 164.2,132.4 164.2,104.7 179.2,108.6 179.2,88.8 164.2,92.7 164.2,65.0 179.2,68.9 179.2,68.9 179.2,49.1 179.2,49.1 164.2,52.9 164.2,47.2 19.2,47.2 19.2,52.9 19.2,52.9 34.2,52.9 34.2,65.0 19.2,65.0 19.2,92.6 34.2,92.6 34.2,104.7 19.2,104.7 19.2,104.7 19.2,132.4" />
<polygon fill="rgba(192,192,192,0.75)" stroke-width="1" stroke-dasharray="" stroke="black" points="157.7,30.7 164.2,34.2 19.2,34.2 18.5,30.7 157.7,30.7" />
<polygon fill="none" stroke-width="1" stroke-dasharray="2" stroke="gray" points="157.7,43.7 18.5,43.7 19.2,47.2 164.2,47.2 157.7,43.7" />
<polygon fill="rgba(192,192,192,0.75)" stroke-width="1" stroke-dasharray="" stroke="black" points="157.7,146.7 164.2,150.2 19.2,150.2 18.5,146.7 157.7,146.7" />
<polygon fill="none" stroke-width="1" stroke-dasharray="2" stroke="gray" points="157.7,159.7 18.5,159.7 19.2,163.2 164.2,163.2 157.7,159.7" />
<polygon fill="none" stroke-width="1" stroke-dasharray="2" stroke="gray" points="17.5,39.9 19.2,52.9 19.2,47.2 18.5,43.7 18.5,30.7 19.2,34.2 19.2,29.2 17.5,20.0 17.5,39.9" />
<polygon fill="none" stroke-width="1" stroke-dasharray="2" stroke="gray" points="17.5,59.7 17.5,79.6 19.2,92.7 19.2,65.0 17.5,59.7" />
<polygon fill="none" stroke-width="1" stroke-dasharray="2" stroke="gray" points="17.5,99.4 17.5,119.3 19.2,132.4 19.2,104.7 17.5,99.4" />
<polygon fill="none" stroke-width="1" stroke-dasharray="2" stroke="gray" points="17.5,139.1 17.5,159.0 19.2,168.2 19.2,163.2 18.5,159.7 18.5,146.7 19.2,150.2 19.2,144.4 17.5,139.1" />
<polygon fill="rgba(255,255,255,0.75)" stroke-width="1" stroke-dasharray="" stroke="black" points="17.5,39.9 32.5,39.9 34.2,52.9 19.2,52.9" />
<polygon fill="none" stroke-width="1" stroke-dasharray="2" stroke="gray" points="19.2,65.0 34.2,65.0 32.5,59.7 17.5,59.7" />
<polygon fill="rgba(255,255,255,0.75)" stroke-width="1" stroke-dasharray="" stroke="black" points="17.5,79.6 32.5,79.6 34.2,92.6 19.2,92.6" />
<polygon fill="none" stroke-width="1" stroke-dasharray="2" stroke="gray" points="19.2,104.7 34.2,104.7 32.5,99.4 17.5,99.4" />
<polygon fill="rgba(255,255,255,0.75)" stroke-width="1" stroke-dasharray="" stroke="black" points="17.5,119.3 32.5,119.3 34.2,132.4 19.2,132.4" />
<polygon fill="none" stroke-width="1" stroke-dasharray="2" stroke="gray" points="19.2,144.5 34.2,144.5 32.5,139.1 17.5,139.1" />
<polygon fill="none" stroke-width="1" stroke-dasharray="2" stroke="gray" points="32.5,39.9 32.5,59.7 34.2,65.0 34.2,52.9 32.5,39.9" />
<polygon fill="none" stroke-width="1" stroke-dasharray="2" stroke="gray" points="32.5,79.6 32.5,99.4 34.2,104.7 34.2,92.6 32.5,79.6" />
<polygon fill="none" stroke-width="1" stroke-dasharray="2" stroke="gray" points="32.5,119.3 32.5,139.1 34.2,144.5 34.2,132.4 32.5,119.3" />
<polygon fill="none" stroke-width="1" stroke-dasharray="2" stroke="gray" points="147.5,20.0 17.5,20.0 19.2,29.2 164.2,29.2 147.5,20.0" />
<polygon fill="rgba(192,192,192,0.75)" stroke-width="1" stroke-dasharray="" stroke="black" points="147.5,159.0 164.2,168.2 19.2,168.2 17.5,159.0 147.5,159.0" />
<polygon fill="rgba(255,255,255,0.75)" stroke-width="1" stroke-dasharray="" stroke="black" points="164.2,52.9 147.5,43.8 147.5,20.0 164.2,29.2 164.2,34.2 157.8,30.7 157.8,43.7 164.2,47.2 164.2,52.9" />
<polygon fill="rgba(255,255,255,0.75)" stroke-width="1" stroke-dasharray="" stroke="black" points="164.2,65.0 164.2,92.7 147.5,83.5 147.5,55.8 164.2,65.0" />
<polygon fill="rgba(255,255,255,0.75)" stroke-width="1" stroke-dasharray="" stroke="black" points="164.2,104.7 164.2,132.4 147.5,123.2 147.5,95.5 164.2,104.7" />
<polygon fill="rgba(255,255,255,0.75)" stroke-width="1" stroke-dasharray="" stroke="black" points="164.2,144.4 164.2,150.2 157.8,146.7 157.8,159.7 164.2,163.2 164.2,168.2 147.5,159.0 147.5,135.2 164.2,144.4" />
<polygon fill="none" stroke-width="1" stroke-dasharray="2" stroke="gray" points="162.5,39.9 147.5,43.7 164.2,52.9 179.2,49.0" />
<polygon fill="rgba(192,192,192,0.75)" stroke-width="1" stroke-dasharray="" stroke="silver" points="179.2,68.9 164.2,65.0 147.5,55.8 162.5,59.7" />
<polygon fill="none" stroke-width="1" stroke-dasharray="2" stroke="gray" points="162.5,79.6 147.5,83.5 164.2,92.6 179.2,88.8" />
<polygon fill="rgba(192,192,192,0.75)" stroke-width="1" stroke-dasharray="" stroke="silver" points="179.2,108.6 164.2,104.7 147.5,95.5 162.5,99.4" />
<polygon fill="none" stroke-width="1" stroke-dasharray="2" stroke="gray" points="162.5,119.3 147.5,123.2 164.2,132.4 179.2,128.5" />
<polygon fill="rgba(192,192,192,0.75)" stroke-width="1" stroke-dasharray="" stroke="silver" points="179.2,148.3 164.2,144.5 147.5,135.3 162.5,139.1" />
<polygon fill="rgba(255,255,255,0.75)" stroke-width="1" stroke-dasharray="" stroke="black" points="179.2,49.0 179.2,68.9 162.5,59.7 162.5,39.8 179.2,49.0" />
<polygon fill="rgba(255,255,255,0.75)" stroke-width="1" stroke-dasharray="" stroke="black" points="179.2,88.8 179.2,108.6 162.5,99.4 162.5,79.6 179.2,88.8" />
<polygon fill="rgba(255,255,255,0.75)" stroke-width="1" stroke-dasharray="" stroke="black" points="179.2,128.5 179.2,148.3 162.5,139.2 162.5,119.3 179.2,128.5" />
<polygon fill="rgba(255,255,255,0.75)" stroke-width="1" stroke-dasharray="" stroke="black" points="17.5,139.2 32.5,139.2 32.5,119.3 17.5,119.3 17.5,99.4 32.5,99.4 32.5,79.6 17.5,79.6 17.5,79.6 17.5,59.7 17.5,59.7 32.5,59.7 32.5,39.8 17.5,39.8 17.5,20.0 147.5,20.0 147.5,20.0 147.5,43.8 162.5,39.9 162.5,59.7 147.5,55.8 147.5,83.5 162.5,79.6 162.5,79.6 162.5,99.4 162.5,99.4 147.5,95.5 147.5,123.2 162.5,119.3 162.5,139.1 147.5,135.2 147.5,159.0 147.5,159.0 17.5,159.0 17.5,139.2" />
<polygon fill="rgba(192,192,192,0.5)" stroke-width="1" stroke-dasharray="" stroke="none" points="147.5,63.0 17.5,63.0 17.5,68.0 147.5,68.0 147.5,63.0" />
<polygon fill="rgba(192,192,192,0.5)" stroke-width="1" stroke-dasharray="" stroke="none" points="147.5,111.0 17.5,111.0 17.5,116.0 147.5,116.0 147.5,111.0" />
<polygon fill="none" stroke-width="1" stroke-dasharray="2" stroke="gray" points="309.2,132.4 324.2,132.4 324.2,144.5 309.2,144.5 309.2,150.2 454.2,150.2 454.2,144.4 469.2,148.3 469.2,148.3 469.2,128.5 469.2,128.5 454.2,132.4 454.2,104.7 469.2,108.6 469.2,88.8 454.2,92.7 454.2,65.0 469.2,68.9 469.2,68.9 469.2,49.1 469.2,49.1 454.2,52.9 454.2,47.2 309.2,47.2 309.2,52.9 309.2,52.9 324.2,52.9 324.2,65.0 309.2,65.0 309.2,92.6 324.2,92.6 324.2,104.7 309.2,104.7 309.2,104.7 309.2,132.4" />
<polygon fill="rgba(192,192,192,0.75)" stroke-width="1" stroke-dasharray="" stroke="black" points="447.7,30.7 454.2,34.2 309.2,34.2 308.5,30.7 447.7,30.7" />
<polygon fill="none" stroke-width="1" stroke-dasharray="2" stroke="gray" points="447.7,43.7 308.5,43.7 309.2,47.2 454.2,47.2 447.7,43.7" />
<polygon fill="rgba(192,192,192,0.75)" stroke-width="1" stroke-dasharray="" stroke="black" points="447.7,146.7 454.2,150.2 309.2,150.2 308.5,146.7 447.7,146.7" />
<polygon fill="none" stroke-width="1" stroke-dasharray="2" stroke="gray" points="447.7,159.7 308.5,159.7 309.2,163.2 454.2,163.2 447.7,159.7" />
<polygon fill="none" stroke-width="1" stroke-dasharray="2" stroke="gray" points="307.5,39.9 309.2,52.9 309.2,47.2 308.5,43.7 308.5,30.7 309.2,34.2 309.2,29.2 307.5,20.0 307.5,39.9" />
<polygon fill="none" stroke-width="1" stroke-dasharray="2" stroke="gray" points="307.5,59.7 307.5,79.6 309.2,92.7 309.2,65.0 307.5,59.7" />
<polygon fill="none" stroke-width="1" stroke-dasharray="2" stroke="gray" points="307.5,99.4 307.5,119.3 309.2,132.4 309.2,104.7 307.5,99.4" />
<polygon fill="none" stroke-width="1" stroke-dasharray="2" stroke="gray" points="307.5,139.1 307.5,159.0 309.2,168.2 309.2,163.2 308.5,159.7 308.5,146.7 309.2,150.2 309.2,144.4 307.5,139.1" />
<polygon fill="rgba(255,255,255,0.75)" stroke-width="1" stroke-dasharray="" stroke="black" points="307.5,39.9 322.5,39.9 324.2,52.9 309.2,52.9" />
<polygon fill="none" stroke-width="1" stroke-dasharray="2" stroke="gray" points="309.2,65.0 324.2,65.0 322.5,59.7 307.5,59.7" />
<polygon fill="rgba(255,255,255,0.75)" stroke-width="1" stroke-dasharray="" stroke="black" points="307.5,79.6 322.5,79.6 324.2,92.6 309.2,92.6" />
<polygon fill="none" stroke-width="1" stroke-dasharray="2" stroke="gray" points="309.2,104.7 324.2,104.7 322.5,99.4 307.5,99.4" />
<polygon fill="rgba(255,255,255,0.75)" stroke-width="1" stroke-dasharray="" stroke="black" points="307.5,119.3 322.5,119.3 324.2,132.4 309.2,132.4" />
<polygon fill="none" stroke-width="1" stroke-dasharray="2" stroke="gray" points="309.2,144.5 324.2,144.5 322.5,139.1 307.5,139.1" />
<polygon fill="none" stroke-width="1" stroke-dasharray="2" stroke="gray" points="322.5,39.9 322.5,59.7 324.2,65.0 324.2,52.9 322.5,39.9" />
<polygon fill="none" stroke-width="1" stroke-dasharray="2" stroke="gray" points="322.5,79.6 322.5,99.4 324.2,104.7 324.2,92.6 322.5,79.6" />
<polygon fill="none" stroke-width="1" stroke-dasharray="2" stroke="gray" points="322.5,119.3 322.5,139.1 324.2,144.5 324.2,132.4 322.5,119.3" />
<polygon fill="none" stroke-width="1" stroke-dasharray="2" stroke="gray" points="437.5,20.0 307.5,20.0 309.2,29.2 454.2,29.2 437.5,20.0" />
<polygon fill="rgba(192,192,192,0.75)" stroke-width="1" stroke-dasharray="" stroke="black" points="437.5,159.0 454.2,168.2 309.2,168.2 307.5,159.0 437.5,159.0" />
<polygon fill="rgba(255,255,255,0.75)" stroke-width="1" stroke-dasharray="" stroke="black" points="454.2,52.9 437.5,43.8 437.5,20.0 454.2,29.2 454.2,34.2 447.8,30.7 447.8,43.7 454.2,47.2 454.2,52.9" />
<polygon fill="rgba(255,255,255,0.75)" stroke-width="1" stroke-dasharray="" stroke="black" points="454.2,65.0 454.2,92.7 437.5,83.5 437.5,55.8 454.2,65.0" />
<polygon fill="rgba(255,255,255,0.75)" stroke-width="1" stroke-dasharray="" stroke="black" points="454.2,104.7 454.2,132.4 437.5,123.2 437.5,95.5 454.2,104.7" />
<polygon fill="rgba(255,255,255,0.75)" stroke-width="1" stroke-dasharray="" stroke="black" points="454.2,144.4 454.2,150.2 447.8,146.7 447.8,159.7 454.2,163.2 454.2,168.2 437.5,159.0 437.5,135.2 454.2,144.4" />
<polygon fill="none" stroke-width="1" stroke-dasharray="2" stroke="gray" points="452.5,39.9 437.5,43.7 454.2,52.9 469.2,49.0" />
<polygon fill="rgba(192,192,192,0.75)" stroke-width="1" stroke-dasharray="" stroke="silver" points="469.2,68.9 454.2,65.0 437.5,55.8 452.5,59.7" />
<polygon fill="none" stroke-width="1" stroke-dasharray="2" stroke="gray" points="452.5,79.6 437.5,83.5 454.2,92.6 469.2,88.8" />
<polygon fill="rgba(192,192,192,0.75)" stroke-width="1" stroke-dasharray="" stroke="silver" points="469.2,108.6 454.2,104.7 437.5,95.5 452.5,99.4" />
<polygon fill="none" stroke-width="1" stroke-dasharray="2" stroke="gray" points="452.5,119.3 437.5,123.2 454.2,132.4 469.2,128.5" />
<polygon fill="rgba(192,192,192,0.75)" stroke-width="1" stroke-dasharray="" stroke="silver" points="469.2,148.3 454.2,144.5 437.5,135.3 452.5,139.1" />
<polygon fill="rgba(255,255,255,0.75)" stroke-width="1" stroke-dasharray="" stroke="black" points="469.2,49.0 469.2,68.9 452.5,59.7 452.5,39.8 469.2,49.0" />
<polygon fill="rgba(255,255,255,0.75)" stroke-width="1" stroke-dasharray="" stroke="black" points="469.2,88.8 469.2,108.6 452.5,99.4 452.5,79.6 469.2,88.8" />
<polygon fill="rgba(255,255,255,0.75)" stroke-width="1" stroke-dasharray="" stroke="black" points="469.2,128.5 469.2,148.3 452.5,139.2 452.5,119.3 469.2,128.5" />
<polygon fill="rgba(255,255,255,0.75)" stroke-width="1" stroke-dasharray="" stroke="black" points="307.5,139.2 322.5,139.2 322.5,119.3 307.5,119.3 307.5,99.4 322.5,99.4 322.5,79.6 307.5,79.6 307.5,79.6 307.5,59.7 307.5,59.7 322.5,59.7 322.5,39.8 307.5,39.8 307.5,20.0 437.5,20.0 437.5,20.0 437.5,43.8 452.5,39.9 452.5,59.7 437.5,55.8 437.5,83.5 452.5,79.6 452.5,79.6 452.5,99.4 452.5,99.4 437.5,95.5 437.5,123.2 452.5,119.3 452.5,139.1 437.5,135.2 437.5,159.0 437.5,159.0 307.5,159.0 307.5,139.2" />
<polygon fill="rgba(192,192,192,0.5)" stroke-width="1" stroke-dasharray="" stroke="none" points="437.5,63.0 307.5,63.0 307.5,68.0 437.5,68.0 437.5,63.0" />
<polygon fill="rgba(192,192,192,0.5)" stroke-width="1" stroke-dasharray="" stroke="none" points="437.5,111.0 307.5,111.0 307.5,116.0 437.5,116.0 437.5,111.0" />
<circle cx="430" cy="32.0" r="5" stroke="orange" fill="white" stroke-width="1" />
<circle cx="430" cy="80.0" r="5" stroke="orange" fill="white" stroke-width="1" />
<circle cx="430" cy="128.0" r="5" stroke="orange" fill="white" stroke-width="1" />
</svg>
