<svg width="1000" viewBox="0 0 1000 916.2741699796952" xmlns="http://www.w3.org/2000/svg">
<polygon fill="none" stroke-width="1" stroke-dasharray="2" stroke="gray" points="24.14213562373095,34.14213562373095 24.14213562373095,134.14213562373095 574.142135623731,134.14213562373095 574.142135623731,34.14213562373095" />
<polygon fill="none" stroke-width="1" stroke-dasharray="2" stroke="gray" points="10.0,20.0 10.0,120.0 24.14213562373095,134.14213562373095 24.14213562373095,34.14213562373095" />
<polygon fill="none" stroke-width="1" stroke-dasharray="2" stroke="gray" points="24.14213562373095,34.14213562373095 574.142135623731,34.14213562373095 560.0,20.0 10.0,20.0" />
<polygon fill="rgba(192,192,192,0.75)" stroke-width="1" stroke-dasharray="" stroke="black" points="10.0,120.0 560.0,120.0 574.142135623731,134.14213562373095 24.14213562373095,134.14213562373095" />
<polygon fill="rgba(255,255,255,0.75)" stroke-width="1" stroke-dasharray="" stroke="black" points="574.142135623731,34.14213562373095 574.142135623731,134.14213562373095 560.0,120.0 560.0,20.0" />
<polygon fill="rgba(255,255,255,0.75)" stroke-width="1" stroke-dasharray="" stroke="black" points="10.0,20.0 560.0,20.0 560.0,120.0 10.0,120.0" />
<polygon fill="rgba(0,0,255,0.25)" stroke-width="1" stroke-dasharray="" stroke="blue" points="10.0,32.5 561.0,32.5 561.0,37.5 10.0,37.5" />
<text style="" text-anchor="left" x="20" y="42.5" fill="black">1</text>
<polygon fill="rgba(0,0,255,0.25)" stroke-width="1" stroke-dasharray="" stroke="blue" points="10.0,50.0 561.0,50.0 561.0,55.0 10.0,55.0" />
<text style="" text-anchor="left" x="20" y="60.0" fill="black">2</text>
<polygon fill="rgba(0,0,255,0.25)" stroke-width="1" stroke-dasharray="" stroke="blue" points="10.0,67.5 561.0,67.5 561.0,72.5 10.0,72.5" />
<text style="" text-anchor="left" x="20" y="77.5" fill="black">3</text>
<polygon fill="rgba(0,0,255,0.25)" stroke-width="1" stroke-dasharray="" stroke="blue" points="10.0,85.0 561.0,85.0 561.0,90.0 10.0,90.0" />
<text style="" text-anchor="left" x="20" y="95.0" fill="black">4</text>
<polygon fill="rgba(0,0,255,0.25)" stroke-width="1" stroke-dasharray="" stroke="blue" points="10.0,102.5 561.0,102.5 561.0,107.5 10.0,107.5" />
<text style="" text-anchor="left" x="20" y="112.5" fill="black">5</text>
<polygon fill="rgba(0,0,255,0.25)" stroke-width="1" stroke-dasharray="" stroke="blue" points="10.0,120.0 561.0,120.0 561.0,125.0 10.0,125.0" />
<text style="" text-anchor="left" x="20" y="130.0" fill="black">6</text>
<polygon fill="rgba(255,0,0,0.25)" stroke-width="1" stroke-dasharray="" stroke="rgba(255,0,0,0.25)" points="10.0,125.0 561.0,125.0 561.0,120.0 575.142135623731,134.14213562373095 24.14213562373095,134.14213562373095 10.0,120.0" />
<polygon fill="rgba(0,255,0,0.25)" stroke-width="1" stroke-dasharray="" stroke="green" points="242.5,20.0 248.5,20.0 248.5,32.5 242.5,32.5" />
<text style="" text-anchor="left" x="252.5" y="30" fill="black">7</text>
<polygon fill="rgba(0,255,0,0.25)" stroke-width="1" stroke-dasharray="" stroke="green" points="422.5,20.0 428.5,20.0 428.5,32.5 422.5,32.5" />
<text style="" text-anchor="left" x="432.5" y="30" fill="black">8</text>
<polygon fill="rgba(0,255,0,0.25)" stroke-width="1" stroke-dasharray="" stroke="green" points="512.5,20.0 518.5,20.0 518.5,32.5 512.5,32.5" />
<text style="" text-anchor="left" x="522.5" y="30" fill="black">9</text>
<polygon fill="rgba(255,0,0,0.25)" stroke-width="1" stroke-dasharray="" stroke="rgba(255,0,0,0.25)" points="517.5,20.0 561.0,20.0 561.0,32.5 517.5,32.5" />
<polygon fill="rgba(0,255,0,0.25)" stroke-width="1" stroke-dasharray="" stroke="green" points="242.5,37.5 248.5,37.5 248.5,50.0 242.5,50.0" />
<text style="" text-anchor="left" x="252.5" y="47.5" fill="black">10</text>
<polygon fill="rgba(0,255,0,0.25)" stroke-width="1" stroke-dasharray="" stroke="green" points="422.5,37.5 428.5,37.5 428.5,50.0 422.5,50.0" />
<text style="" text-anchor="left" x="432.5" y="47.5" fill="black">11</text>
<polygon fill="rgba(0,255,0,0.25)" stroke-width="1" stroke-dasharray="" stroke="green" points="512.5,37.5 518.5,37.5 518.5,50.0 512.5,50.0" />
<text style="" text-anchor="left" x="522.5" y="47.5" fill="black">12</text>
<polygon fill="rgba(255,0,0,0.25)" stroke-width="1" stroke-dasharray="" stroke="rgba(255,0,0,0.25)" points="517.5,37.5 561.0,37.5 561.0,50.0 517.5,50.0" />
<polygon fill="rgba(0,255,0,0.25)" stroke-width="1" stroke-dasharray="" stroke="green" points="242.5,55.0 248.5,55.0 248.5,67.5 242.5,67.5" />
<text style="" text-anchor="left" x="252.5" y="65.0" fill="black">13</text>
<polygon fill="rgba(0,255,0,0.25)" stroke-width="1" stroke-dasharray="" stroke="green" points="422.5,55.0 428.5,55.0 428.5,67.5 422.5,67.5" />
<text style="" text-anchor="left" x="432.5" y="65.0" fill="black">14</text>
<polygon fill="rgba(0,255,0,0.25)" stroke-width="1" stroke-dasharray="" stroke="green" points="512.5,55.0 518.5,55.0 518.5,67.5 512.5,67.5" />
<text style="" text-anchor="left" x="522.5" y="65.0" fill="black">15</text>
<polygon fill="rgba(255,0,0,0.25)" stroke-width="1" stroke-dasharray="" stroke="rgba(255,0,0,0.25)" points="517.5,55.0 561.0,55.0 561.0,67.5 517.5,67.5" />
<polygon fill="rgba(0,255,0,0.25)" stroke-width="1" stroke-dasharray="" stroke="green" points="242.5,72.5 248.5,72.5 248.5,85.0 242.5,85.0" />
<text style="" text-anchor="left" x="252.5" y="82.5" fill="black">16</text>
<polygon fill="rgba(0,255,0,0.25)" stroke-width="1" stroke-dasharray="" stroke="green" points="422.5,72.5 428.5,72.5 428.5,85.0 422.5,85.0" />
<text style="" text-anchor="left" x="432.5" y="82.5" fill="black">17</text>
<polygon fill="rgba(0,255,0,0.25)" stroke-width="1" stroke-dasharray="" stroke="green" points="512.5,72.5 518.5,72.5 518.5,85.0 512.5,85.0" />
<text style="" text-anchor="left" x="522.5" y="82.5" fill="black">18</text>
<polygon fill="rgba(255,0,0,0.25)" stroke-width="1" stroke-dasharray="" stroke="rgba(255,0,0,0.25)" points="517.5,72.5 561.0,72.5 561.0,85.0 517.5,85.0" />
<polygon fill="rgba(0,255,0,0.25)" stroke-width="1" stroke-dasharray="" stroke="green" points="242.5,90.0 248.5,90.0 248.5,102.5 242.5,102.5" />
<text style="" text-anchor="left" x="252.5" y="100.0" fill="black">19</text>
<polygon fill="rgba(0,255,0,0.25)" stroke-width="1" stroke-dasharray="" stroke="green" points="422.5,90.0 428.5,90.0 428.5,102.5 422.5,102.5" />
<text style="" text-anchor="left" x="432.5" y="100.0" fill="black">20</text>
<polygon fill="rgba(255,0,0,0.25)" stroke-width="1" stroke-dasharray="" stroke="rgba(255,0,0,0.25)" points="427.5,90.0 561.0,90.0 561.0,102.5 427.5,102.5" />
<polygon fill="rgba(0,255,0,0.25)" stroke-width="1" stroke-dasharray="" stroke="green" points="242.5,107.5 248.5,107.5 248.5,120.0 262.64213562373095,134.14213562373095 256.64213562373095,134.14213562373095 242.5,120.0" />
<text style="" text-anchor="left" x="252.5" y="117.5" fill="black">21</text>
<polygon fill="rgba(0,255,0,0.25)" stroke-width="1" stroke-dasharray="" stroke="green" points="422.5,107.5 428.5,107.5 428.5,120.0 442.64213562373095,134.14213562373095 436.64213562373095,134.14213562373095 422.5,120.0" />
<text style="" text-anchor="left" x="432.5" y="117.5" fill="black">22</text>
<polygon fill="rgba(255,0,0,0.25)" stroke-width="1" stroke-dasharray="" stroke="rgba(255,0,0,0.25)" points="427.5,107.5 561.0,107.5 561.0,120.0 575.142135623731,134.14213562373095 441.64213562373095,134.14213562373095 427.5,120.0" />
<text style="" text-anchor="start" x="126.25" y="26.25" fill="black">top-back</text>
<text style="" text-anchor="start" x="335.0" y="26.25" fill="black">left-bottom</text>
<text style="" text-anchor="start" x="470.0" y="26.25" fill="black">left-back</text>
<text style="" text-anchor="start" x="126.25" y="43.75" fill="black">top-front</text>
<text style="" text-anchor="start" x="335.0" y="43.75" fill="black">left-top</text>
<text style="" text-anchor="start" x="470.0" y="43.75" fill="black">left-front</text>
<text style="" text-anchor="start" x="126.25" y="61.25" fill="black">bottom-front</text>
<text style="" text-anchor="start" x="335.0" y="61.25" fill="black">right-top</text>
<text style="" text-anchor="start" x="470.0" y="61.25" fill="black">right-front</text>
<text style="" text-anchor="start" x="126.25" y="78.75" fill="black">bottom-back</text>
<text style="" text-anchor="start" x="335.0" y="78.75" fill="black">right-bottom</text>
<text style="" text-anchor="start" x="470.0" y="78.75" fill="black">right-back</text>
<text style="" text-anchor="start" x="126.25" y="96.25" fill="black">lid-back</text>
<text style="" text-anchor="start" x="335.0" y="96.25" fill="black">lid-left</text>
<text style="" text-anchor="start" x="126.25" y="113.75" fill="black">lid-front</text>
<text style="" text-anchor="start" x="335.0" y="113.75" fill="black">lid-right</text>
<polygon fill="none" stroke-width="1" stroke-dasharray="2" stroke="gray" points="24.14213562373095,184.14213562373095 24.14213562373095,196.64213562373095 256.64213562373095,196.64213562373095 256.64213562373095,184.14213562373095" />
<polygon fill="none" stroke-width="1" stroke-dasharray="2" stroke="gray" points="10.0,170.0 10.0,182.5 24.14213562373095,196.64213562373095 24.14213562373095,184.14213562373095" />
<polygon fill="none" stroke-width="1" stroke-dasharray="2" stroke="gray" points="24.14213562373095,184.14213562373095 256.64213562373095,184.14213562373095 242.5,170.0 10.0,170.0" />
<polygon fill="rgba(192,192,192,0.75)" stroke-width="1" stroke-dasharray="" stroke="black" points="10.0,182.5 242.5,182.5 256.64213562373095,196.64213562373095 24.14213562373095,196.64213562373095" />
<polygon fill="rgba(255,255,255,0.75)" stroke-width="1" stroke-dasharray="" stroke="black" points="256.64213562373095,184.14213562373095 256.64213562373095,196.64213562373095 242.5,182.5 242.5,170.0" />
<polygon fill="rgba(255,255,255,0.75)" stroke-width="1" stroke-dasharray="" stroke="black" points="10.0,170.0 242.5,170.0 242.5,182.5 10.0,182.5" />
<text style="" text-anchor="middle" x="126.25" y="176.25" fill="black">top-back</text>
<polygon fill="none" stroke-width="1" stroke-dasharray="2" stroke="gray" points="24.14213562373095,230.7842712474619 24.14213562373095,243.2842712474619 199.14213562373095,243.2842712474619 199.14213562373095,230.7842712474619" />
<polygon fill="none" stroke-width="1" stroke-dasharray="2" stroke="gray" points="10.0,216.64213562373095 10.0,229.14213562373095 24.14213562373095,243.2842712474619 24.14213562373095,230.7842712474619" />
<polygon fill="none" stroke-width="1" stroke-dasharray="2" stroke="gray" points="24.14213562373095,230.7842712474619 199.14213562373095,230.7842712474619 185.0,216.64213562373095 10.0,216.64213562373095" />
<polygon fill="rgba(192,192,192,0.75)" stroke-width="1" stroke-dasharray="" stroke="black" points="10.0,229.14213562373095 185.0,229.14213562373095 199.14213562373095,243.2842712474619 24.14213562373095,243.2842712474619" />
<polygon fill="rgba(255,255,255,0.75)" stroke-width="1" stroke-dasharray="" stroke="black" points="199.14213562373095,230.7842712474619 199.14213562373095,243.2842712474619 185.0,229.14213562373095 185.0,216.64213562373095" />
<polygon fill="rgba(255,255,255,0.75)" stroke-width="1" stroke-dasharray="" stroke="black" points="10.0,216.64213562373095 185.0,216.64213562373095 185.0,229.14213562373095 10.0,229.14213562373095" />
<text style="" text-anchor="middle" x="97.5" y="222.89213562373095" fill="black">left-bottom</text>
<polygon fill="none" stroke-width="1" stroke-dasharray="2" stroke="gray" points="24.14213562373095,277.42640687119285 24.14213562373095,289.92640687119285 109.14213562373095,289.92640687119285 109.14213562373095,277.42640687119285" />
<polygon fill="none" stroke-width="1" stroke-dasharray="2" stroke="gray" points="10.0,263.2842712474619 10.0,275.7842712474619 24.14213562373095,289.92640687119285 24.14213562373095,277.42640687119285" />
<polygon fill="none" stroke-width="1" stroke-dasharray="2" stroke="gray" points="24.14213562373095,277.42640687119285 109.14213562373095,277.42640687119285 95.0,263.2842712474619 10.0,263.2842712474619" />
<polygon fill="rgba(192,192,192,0.75)" stroke-width="1" stroke-dasharray="" stroke="black" points="10.0,275.7842712474619 95.0,275.7842712474619 109.14213562373095,289.92640687119285 24.14213562373095,289.92640687119285" />
<polygon fill="rgba(255,255,255,0.75)" stroke-width="1" stroke-dasharray="" stroke="black" points="109.14213562373095,277.42640687119285 109.14213562373095,289.92640687119285 95.0,275.7842712474619 95.0,263.2842712474619" />
<polygon fill="rgba(255,255,255,0.75)" stroke-width="1" stroke-dasharray="" stroke="black" points="10.0,263.2842712474619 95.0,263.2842712474619 95.0,275.7842712474619 10.0,275.7842712474619" />
<text style="" text-anchor="middle" x="52.5" y="269.5342712474619" fill="black">left-back</text>
<polygon fill="none" stroke-width="1" stroke-dasharray="2" stroke="gray" points="24.14213562373095,324.0685424949238 24.14213562373095,336.5685424949238 256.64213562373095,336.5685424949238 256.64213562373095,324.0685424949238" />
<polygon fill="none" stroke-width="1" stroke-dasharray="2" stroke="gray" points="10.0,309.92640687119285 10.0,322.42640687119285 24.14213562373095,336.5685424949238 24.14213562373095,324.0685424949238" />
<polygon fill="none" stroke-width="1" stroke-dasharray="2" stroke="gray" points="24.14213562373095,324.0685424949238 256.64213562373095,324.0685424949238 242.5,309.92640687119285 10.0,309.92640687119285" />
<polygon fill="rgba(192,192,192,0.75)" stroke-width="1" stroke-dasharray="" stroke="black" points="10.0,322.42640687119285 242.5,322.42640687119285 256.64213562373095,336.5685424949238 24.14213562373095,336.5685424949238" />
<polygon fill="rgba(255,255,255,0.75)" stroke-width="1" stroke-dasharray="" stroke="black" points="256.64213562373095,324.0685424949238 256.64213562373095,336.5685424949238 242.5,322.42640687119285 242.5,309.92640687119285" />
<polygon fill="rgba(255,255,255,0.75)" stroke-width="1" stroke-dasharray="" stroke="black" points="10.0,309.92640687119285 242.5,309.92640687119285 242.5,322.42640687119285 10.0,322.42640687119285" />
<text style="" text-anchor="middle" x="126.25" y="316.17640687119285" fill="black">top-front</text>
<polygon fill="none" stroke-width="1" stroke-dasharray="2" stroke="gray" points="24.14213562373095,370.71067811865476 24.14213562373095,383.21067811865476 199.14213562373095,383.21067811865476 199.14213562373095,370.71067811865476" />
<polygon fill="none" stroke-width="1" stroke-dasharray="2" stroke="gray" points="10.0,356.5685424949238 10.0,369.0685424949238 24.14213562373095,383.21067811865476 24.14213562373095,370.71067811865476" />
<polygon fill="none" stroke-width="1" stroke-dasharray="2" stroke="gray" points="24.14213562373095,370.71067811865476 199.14213562373095,370.71067811865476 185.0,356.5685424949238 10.0,356.5685424949238" />
<polygon fill="rgba(192,192,192,0.75)" stroke-width="1" stroke-dasharray="" stroke="black" points="10.0,369.0685424949238 185.0,369.0685424949238 199.14213562373095,383.21067811865476 24.14213562373095,383.21067811865476" />
<polygon fill="rgba(255,255,255,0.75)" stroke-width="1" stroke-dasharray="" stroke="black" points="199.14213562373095,370.71067811865476 199.14213562373095,383.21067811865476 185.0,369.0685424949238 185.0,356.5685424949238" />
<polygon fill="rgba(255,255,255,0.75)" stroke-width="1" stroke-dasharray="" stroke="black" points="10.0,356.5685424949238 185.0,356.5685424949238 185.0,369.0685424949238 10.0,369.0685424949238" />
<text style="" text-anchor="middle" x="97.5" y="362.8185424949238" fill="black">left-top</text>
<polygon fill="none" stroke-width="1" stroke-dasharray="2" stroke="gray" points="24.14213562373095,417.3528137423857 24.14213562373095,429.8528137423857 109.14213562373095,429.8528137423857 109.14213562373095,417.3528137423857" />
<polygon fill="none" stroke-width="1" stroke-dasharray="2" stroke="gray" points="10.0,403.21067811865476 10.0,415.71067811865476 24.14213562373095,429.8528137423857 24.14213562373095,417.3528137423857" />
<polygon fill="none" stroke-width="1" stroke-dasharray="2" stroke="gray" points="24.14213562373095,417.3528137423857 109.14213562373095,417.3528137423857 95.0,403.21067811865476 10.0,403.21067811865476" />
<polygon fill="rgba(192,192,192,0.75)" stroke-width="1" stroke-dasharray="" stroke="black" points="10.0,415.71067811865476 95.0,415.71067811865476 109.14213562373095,429.8528137423857 24.14213562373095,429.8528137423857" />
<polygon fill="rgba(255,255,255,0.75)" stroke-width="1" stroke-dasharray="" stroke="black" points="109.14213562373095,417.3528137423857 109.14213562373095,429.8528137423857 95.0,415.71067811865476 95.0,403.21067811865476" />
<polygon fill="rgba(255,255,255,0.75)" stroke-width="1" stroke-dasharray="" stroke="black" points="10.0,403.21067811865476 95.0,403.21067811865476 95.0,415.71067811865476 10.0,415.71067811865476" />
<text style="" text-anchor="middle" x="52.5" y="409.46067811865476" fill="black">left-front</text>
<polygon fill="none" stroke-width="1" stroke-dasharray="2" stroke="gray" points="24.14213562373095,463.99494936611666 24.14213562373095,476.49494936611666 256.64213562373095,476.49494936611666 256.64213562373095,463.99494936611666" />
<polygon fill="none" stroke-width="1" stroke-dasharray="2" stroke="gray" points="10.0,449.8528137423857 10.0,462.3528137423857 24.14213562373095,476.49494936611666 24.14213562373095,463.99494936611666" />
<polygon fill="none" stroke-width="1" stroke-dasharray="2" stroke="gray" points="24.14213562373095,463.99494936611666 256.64213562373095,463.99494936611666 242.5,449.8528137423857 10.0,449.8528137423857" />
<polygon fill="rgba(192,192,192,0.75)" stroke-width="1" stroke-dasharray="" stroke="black" points="10.0,462.3528137423857 242.5,462.3528137423857 256.64213562373095,476.49494936611666 24.14213562373095,476.49494936611666" />
<polygon fill="rgba(255,255,255,0.75)" stroke-width="1" stroke-dasharray="" stroke="black" points="256.64213562373095,463.99494936611666 256.64213562373095,476.49494936611666 242.5,462.3528137423857 242.5,449.8528137423857" />
<polygon fill="rgba(255,255,255,0.75)" stroke-width="1" stroke-dasharray="" stroke="black" points="10.0,449.8528137423857 242.5,449.8528137423857 242.5,462.3528137423857 10.0,462.3528137423857" />
<text style="" text-anchor="middle" x="126.25" y="456.1028137423857" fill="black">bottom-front</text>
<polygon fill="none" stroke-width="1" stroke-dasharray="2" stroke="gray" points="24.14213562373095,510.6370849898476 24.14213562373095,523.1370849898476 199.14213562373095,523.1370849898476 199.14213562373095,510.6370849898476" />
<polygon fill="none" stroke-width="1" stroke-dasharray="2" stroke="gray" points="10.0,496.49494936611666 10.0,508.99494936611666 24.14213562373095,523.1370849898476 24.14213562373095,510.6370849898476" />
<polygon fill="none" stroke-width="1" stroke-dasharray="2" stroke="gray" points="24.14213562373095,510.6370849898476 199.14213562373095,510.6370849898476 185.0,496.49494936611666 10.0,496.49494936611666" />
<polygon fill="rgba(192,192,192,0.75)" stroke-width="1" stroke-dasharray="" stroke="black" points="10.0,508.99494936611666 185.0,508.99494936611666 199.14213562373095,523.1370849898476 24.14213562373095,523.1370849898476" />
<polygon fill="rgba(255,255,255,0.75)" stroke-width="1" stroke-dasharray="" stroke="black" points="199.14213562373095,510.6370849898476 199.14213562373095,523.1370849898476 185.0,508.99494936611666 185.0,496.49494936611666" />
<polygon fill="rgba(255,255,255,0.75)" stroke-width="1" stroke-dasharray="" stroke="black" points="10.0,496.49494936611666 185.0,496.49494936611666 185.0,508.99494936611666 10.0,508.99494936611666" />
<text style="" text-anchor="middle" x="97.5" y="502.74494936611666" fill="black">right-top</text>
<polygon fill="none" stroke-width="1" stroke-dasharray="2" stroke="gray" points="24.14213562373095,557.2792206135786 24.14213562373095,569.7792206135786 109.14213562373095,569.7792206135786 109.14213562373095,557.2792206135786" />
<polygon fill="none" stroke-width="1" stroke-dasharray="2" stroke="gray" points="10.0,543.1370849898476 10.0,555.6370849898476 24.14213562373095,569.7792206135786 24.14213562373095,557.2792206135786" />
<polygon fill="none" stroke-width="1" stroke-dasharray="2" stroke="gray" points="24.14213562373095,557.2792206135786 109.14213562373095,557.2792206135786 95.0,543.1370849898476 10.0,543.1370849898476" />
<polygon fill="rgba(192,192,192,0.75)" stroke-width="1" stroke-dasharray="" stroke="black" points="10.0,555.6370849898476 95.0,555.6370849898476 109.14213562373095,569.7792206135786 24.14213562373095,569.7792206135786" />
<polygon fill="rgba(255,255,255,0.75)" stroke-width="1" stroke-dasharray="" stroke="black" points="109.14213562373095,557.2792206135786 109.14213562373095,569.7792206135786 95.0,555.6370849898476 95.0,543.1370849898476" />
<polygon fill="rgba(255,255,255,0.75)" stroke-width="1" stroke-dasharray="" stroke="black" points="10.0,543.1370849898476 95.0,543.1370849898476 95.0,555.6370849898476 10.0,555.6370849898476" />
<text style="" text-anchor="middle" x="52.5" y="549.3870849898476" fill="black">right-front</text>
<polygon fill="none" stroke-width="1" stroke-dasharray="2" stroke="gray" points="24.14213562373095,603.9213562373095 24.14213562373095,616.4213562373095 256.64213562373095,616.4213562373095 256.64213562373095,603.9213562373095" />
<polygon fill="none" stroke-width="1" stroke-dasharray="2" stroke="gray" points="10.0,589.7792206135786 10.0,602.2792206135786 24.14213562373095,616.4213562373095 24.14213562373095,603.9213562373095" />
<polygon fill="none" stroke-width="1" stroke-dasharray="2" stroke="gray" points="24.14213562373095,603.9213562373095 256.64213562373095,603.9213562373095 242.5,589.7792206135786 10.0,589.7792206135786" />
<polygon fill="rgba(192,192,192,0.75)" stroke-width="1" stroke-dasharray="" stroke="black" points="10.0,602.2792206135786 242.5,602.2792206135786 256.64213562373095,616.4213562373095 24.14213562373095,616.4213562373095" />
<polygon fill="rgba(255,255,255,0.75)" stroke-width="1" stroke-dasharray="" stroke="black" points="256.64213562373095,603.9213562373095 256.64213562373095,616.4213562373095 242.5,602.2792206135786 242.5,589.7792206135786" />
<polygon fill="rgba(255,255,255,0.75)" stroke-width="1" stroke-dasharray="" stroke="black" points="10.0,589.7792206135786 242.5,589.7792206135786 242.5,602.2792206135786 10.0,602.2792206135786" />
<text style="" text-anchor="middle" x="126.25" y="596.0292206135786" fill="black">bottom-back</text>
<polygon fill="none" stroke-width="1" stroke-dasharray="2" stroke="gray" points="24.14213562373095,650.5634918610405 24.14213562373095,663.0634918610405 199.14213562373095,663.0634918610405 199.14213562373095,650.5634918610405" />
<polygon fill="none" stroke-width="1" stroke-dasharray="2" stroke="gray" points="10.0,636.4213562373095 10.0,648.9213562373095 24.14213562373095,663.0634918610405 24.14213562373095,650.5634918610405" />
<polygon fill="none" stroke-width="1" stroke-dasharray="2" stroke="gray" points="24.14213562373095,650.5634918610405 199.14213562373095,650.5634918610405 185.0,636.4213562373095 10.0,636.4213562373095" />
<polygon fill="rgba(192,192,192,0.75)" stroke-width="1" stroke-dasharray="" stroke="black" points="10.0,648.9213562373095 185.0,648.9213562373095 199.14213562373095,663.0634918610405 24.14213562373095,663.0634918610405" />
<polygon fill="rgba(255,255,255,0.75)" stroke-width="1" stroke-dasharray="" stroke="black" points="199.14213562373095,650.5634918610405 199.14213562373095,663.0634918610405 185.0,648.9213562373095 185.0,636.4213562373095" />
<polygon fill="rgba(255,255,255,0.75)" stroke-width="1" stroke-dasharray="" stroke="black" points="10.0,636.4213562373095 185.0,636.4213562373095 185.0,648.9213562373095 10.0,648.9213562373095" />
<text style="" text-anchor="middle" x="97.5" y="642.6713562373095" fill="black">right-bottom</text>
<polygon fill="none" stroke-width="1" stroke-dasharray="2" stroke="gray" points="24.14213562373095,697.2056274847714 24.14213562373095,709.7056274847714 109.14213562373095,709.7056274847714 109.14213562373095,697.2056274847714" />
<polygon fill="none" stroke-width="1" stroke-dasharray="2" stroke="gray" points="10.0,683.0634918610405 10.0,695.5634918610405 24.14213562373095,709.7056274847714 24.14213562373095,697.2056274847714" />
<polygon fill="none" stroke-width="1" stroke-dasharray="2" stroke="gray" points="24.14213562373095,697.2056274847714 109.14213562373095,697.2056274847714 95.0,683.0634918610405 10.0,683.0634918610405" />
<polygon fill="rgba(192,192,192,0.75)" stroke-width="1" stroke-dasharray="" stroke="black" points="10.0,695.5634918610405 95.0,695.5634918610405 109.14213562373095,709.7056274847714 24.14213562373095,709.7056274847714" />
<polygon fill="rgba(255,255,255,0.75)" stroke-width="1" stroke-dasharray="" stroke="black" points="109.14213562373095,697.2056274847714 109.14213562373095,709.7056274847714 95.0,695.5634918610405 95.0,683.0634918610405" />
<polygon fill="rgba(255,255,255,0.75)" stroke-width="1" stroke-dasharray="" stroke="black" points="10.0,683.0634918610405 95.0,683.0634918610405 95.0,695.5634918610405 10.0,695.5634918610405" />
<text style="" text-anchor="middle" x="52.5" y="689.3134918610405" fill="black">right-back</text>
<polygon fill="none" stroke-width="1" stroke-dasharray="2" stroke="gray" points="24.14213562373095,743.8477631085024 24.14213562373095,756.3477631085024 256.64213562373095,756.3477631085024 256.64213562373095,743.8477631085024" />
<polygon fill="none" stroke-width="1" stroke-dasharray="2" stroke="gray" points="10.0,729.7056274847714 10.0,742.2056274847714 24.14213562373095,756.3477631085024 24.14213562373095,743.8477631085024" />
<polygon fill="none" stroke-width="1" stroke-dasharray="2" stroke="gray" points="24.14213562373095,743.8477631085024 256.64213562373095,743.8477631085024 242.5,729.7056274847714 10.0,729.7056274847714" />
<polygon fill="rgba(192,192,192,0.75)" stroke-width="1" stroke-dasharray="" stroke="black" points="10.0,742.2056274847714 242.5,742.2056274847714 256.64213562373095,756.3477631085024 24.14213562373095,756.3477631085024" />
<polygon fill="rgba(255,255,255,0.75)" stroke-width="1" stroke-dasharray="" stroke="black" points="256.64213562373095,743.8477631085024 256.64213562373095,756.3477631085024 242.5,742.2056274847714 242.5,729.7056274847714" />
<polygon fill="rgba(255,255,255,0.75)" stroke-width="1" stroke-dasharray="" stroke="black" points="10.0,729.7056274847714 242.5,729.7056274847714 242.5,742.2056274847714 10.0,742.2056274847714" />
<text style="" text-anchor="middle" x="126.25" y="735.9556274847714" fill="black">lid-back</text>
<polygon fill="none" stroke-width="1" stroke-dasharray="2" stroke="gray" points="24.14213562373095,790.4898987322333 24.14213562373095,802.9898987322333 199.14213562373095,802.9898987322333 199.14213562373095,790.4898987322333" />
<polygon fill="none" stroke-width="1" stroke-dasharray="2" stroke="gray" points="10.0,776.3477631085024 10.0,788.8477631085024 24.14213562373095,802.9898987322333 24.14213562373095,790.4898987322333" />
<polygon fill="none" stroke-width="1" stroke-dasharray="2" stroke="gray" points="24.14213562373095,790.4898987322333 199.14213562373095,790.4898987322333 185.0,776.3477631085024 10.0,776.3477631085024" />
<polygon fill="rgba(192,192,192,0.75)" stroke-width="1" stroke-dasharray="" stroke="black" points="10.0,788.8477631085024 185.0,788.8477631085024 199.14213562373095,802.9898987322333 24.14213562373095,802.9898987322333" />
<polygon fill="rgba(255,255,255,0.75)" stroke-width="1" stroke-dasharray="" stroke="black" points="199.14213562373095,790.4898987322333 199.14213562373095,802.9898987322333 185.0,788.8477631085024 185.0,776.3477631085024" />
<polygon fill="rgba(255,255,255,0.75)" stroke-width="1" stroke-dasharray="" stroke="black" points="10.0,776.3477631085024 185.0,776.3477631085024 185.0,788.8477631085024 10.0,788.8477631085024" />
<text style="" text-anchor="middle" x="97.5" y="782.5977631085024" fill="black">lid-left</text>
<polygon fill="none" stroke-width="1" stroke-dasharray="2" stroke="gray" points="24.14213562373095,837.1320343559643 24.14213562373095,849.6320343559643 256.64213562373095,849.6320343559643 256.64213562373095,837.1320343559643" />
<polygon fill="none" stroke-width="1" stroke-dasharray="2" stroke="gray" points="10.0,822.9898987322333 10.0,835.4898987322333 24.14213562373095,849.6320343559643 24.14213562373095,837.1320343559643" />
<polygon fill="none" stroke-width="1" stroke-dasharray="2" stroke="gray" points="24.14213562373095,837.1320343559643 256.64213562373095,837.1320343559643 242.5,822.9898987322333 10.0,822.9898987322333" />
<polygon fill="rgba(192,192,192,0.75)" stroke-width="1" stroke-dasharray="" stroke="black" points="10.0,835.4898987322333 242.5,835.4898987322333 256.64213562373095,849.6320343559643 24.14213562373095,849.6320343559643" />
<polygon fill="rgba(255,255,255,0.75)" stroke-width="1" stroke-dasharray="" stroke="black" points="256.64213562373095,837.1320343559643 256.64213562373095,849.6320343559643 242.5,835.4898987322333 242.5,822.9898987322333" />
<polygon fill="rgba(255,255,255,0.75)" stroke-width="1" stroke-dasharray="" stroke="black" points="10.0,822.9898987322333 242.5,822.9898987322333 242.5,835.4898987322333 10.0,835.4898987322333" />
<text style="" text-anchor="middle" x="126.25" y="829.2398987322333" fill="black">lid-front</text>
<polygon fill="none" stroke-width="1" stroke-dasharray="2" stroke="gray" points="24.14213562373095,883.7741699796952 24.14213562373095,896.2741699796952 199.14213562373095,896.2741699796952 199.14213562373095,883.7741699796952" />
<polygon fill="none" stroke-width="1" stroke-dasharray="2" stroke="gray" points="10.0,869.6320343559643 10.0,882.1320343559643 24.14213562373095,896.2741699796952 24.14213562373095,883.7741699796952" />
<polygon fill="none" stroke-width="1" stroke-dasharray="2" stroke="gray" points="24.14213562373095,883.7741699796952 199.14213562373095,883.7741699796952 185.0,869.6320343559643 10.0,869.6320343559643" />
<polygon fill="rgba(192,192,192,0.75)" stroke-width="1" stroke-dasharray="" stroke="black" points="10.0,882.1320343559643 185.0,882.1320343559643 199.14213562373095,896.2741699796952 24.14213562373095,896.2741699796952" />
<polygon fill="rgba(255,255,255,0.75)" stroke-width="1" stroke-dasharray="" stroke="black" points="199.14213562373095,883.7741699796952 199.14213562373095,896.2741699796952 185.0,882.1320343559643 185.0,869.6320343559643" />
<polygon fill="rgba(255,255,255,0.75)" stroke-width="1" stroke-dasharray="" stroke="black" points="10.0,869.6320343559643 185.0,869.6320343559643 185.0,882.1320343559643 10.0,882.1320343559643" />
<text style="" text-anchor="middle" x="97.5" y="875.8820343559643" fill="black">lid-right</text>
</svg>
