<svg width="1000" viewBox="0 0 1000 1004.142135623731" xmlns="http://www.w3.org/2000/svg">
<polygon fill="none" stroke-width="1" stroke-dasharray="2" stroke="gray" points="24.14213562373095,34.14213562373095 24.14213562373095,134.14213562373095 574.142135623731,134.14213562373095 574.142135623731,34.14213562373095" />
<polygon fill="none" stroke-width="1" stroke-dasharray="2" stroke="gray" points="10.0,20.0 10.0,120.0 24.14213562373095,134.14213562373095 24.14213562373095,34.14213562373095" />
<polygon fill="none" stroke-width="1" stroke-dasharray="2" stroke="gray" points="24.14213562373095,34.14213562373095 574.142135623731,34.14213562373095 560.0,20.0 10.0,20.0" />
<polygon fill="rgba(192,192,192,0.75)" stroke-width="1" stroke-dasharray="" stroke="black" points="10.0,120.0 560.0,120.0 574.142135623731,134.14213562373095 24.14213562373095,134.14213562373095" />
<polygon fill="rgba(255,255,255,0.75)" stroke-width="1" stroke-dasharray="" stroke="black" points="574.142135623731,34.14213562373095 574.142135623731,134.14213562373095 560.0,120.0 560.0,20.0" />
<polygon fill="rgba(255,255,255,0.75)" stroke-width="1" stroke-dasharray="" stroke="black" points="10.0,20.0 560.0,20.0 560.0,120.0 10.0,120.0" />
<polygon fill="rgba(0,0,255,0.25)" stroke-width="1" stroke-dasharray="" stroke="blue" points="10.0,32.5 561.0,32.5 561.0,37.5 10.0,37.5" />
<text style="" text-anchor="left" x="20" y="42.5" fill="black">1</text>
<polygon fill="rgba(0,0,255,0.25)" stroke-width="1" stroke-dasharray="" stroke="blue" points="10.0,50.0 561.0,50.0 561.0,55.0 10.0,55.0" />
<text style="" text-anchor="left" x="20" y="60.0" fill="black">2</text>
<polygon fill="rgba(0,0,255,0.25)" stroke-width="1" stroke-dasharray="" stroke="blue" points="10.0,67.5 561.0,67.5 561.0,72.5 10.0,72.5" />
<text style="" text-anchor="left" x="20" y="77.5" fill="black">3</text>
<polygon fill="rgba(0,0,255,0.25)" stroke-width="1" stroke-dasharray="" stroke="blue" points="10.0,85.0 561.0,85.0 561.0,90.0 10.0,90.0" />
<text style="" text-anchor="left" x="20" y="95.0" fill="black">4</text>
<polygon fill="rgba(0,0,255,0.25)" stroke-width="1" stroke-dasharray="" stroke="blue" points="10.0,102.5 561.0,102.5 561.0,107.5 10.0,107.5" />
<text style="" text-anchor="left" x="20" y="112.5" fill="black">5</text>
<polygon fill="rgba(0,0,255,0.25)" stroke-width="1" stroke-dasharray="" stroke="blue" points="10.0,120.0 561.0,120.0 561.0,125.0 10.0,125.0" />
<text style="" text-anchor="left" x="20" y="130.0" fill="black">6</text>
<polygon fill="rgba(255,0,0,0.25)" stroke-width="1" stroke-dasharray="" stroke="rgba(255,0,0,0.25)" points="10.0,125.0 561.0,125.0 561.0,120.0 575.142135623731,134.14213562373095 24.14213562373095,134.14213562373095 10.0,120.0" />
<polygon fill="rgba(0,255,0,0.25)" stroke-width="1" stroke-dasharray="" stroke="green" points="242.5,20.0 248.5,20.0 248.5,32.5 242.5,32.5" />
<text style="" text-anchor="left" x="252.5" y="30" fill="black">7</text>
<polygon fill="rgba(0,255,0,0.25)" stroke-width="1" stroke-dasharray="" stroke="green" points="422.5,20.0 428.5,20.0 428.5,32.5 422.5,32.5" />
<text style="" text-anchor="left" x="432.5" y="30" fill="black">8</text>
<polygon fill="rgba(0,255,0,0.25)" stroke-width="1" stroke-dasharray="" stroke="green" points="512.5,20.0 518.5,20.0 518.5,32.5 512.5,32.5" />
<text style="" text-anchor="left" x="522.5" y="30" fill="black">9</text>
<polygon fill="rgba(255,0,0,0.25)" stroke-width="1" stroke-dasharray="" stroke="rgba(255,0,0,0.25)" points="517.5,20.0 561.0,20.0 561.0,32.5 517.5,32.5" />
<polygon fill="rgba(0,255,0,0.25)" stroke-width="1" stroke-dasharray="" stroke="green" points="242.5,37.5 248.5,37.5 248.5,50.0 242.5,50.0" />
<text style="" text-anchor="left" x="252.5" y="47.5" fill="black">10</text>
<polygon fill="rgba(0,255,0,0.25)" stroke-width="1" stroke-dasharray="" stroke="green" points="422.5,37.5 428.5,37.5 428.5,50.0 422.5,50.0" />
<text style="" text-anchor="left" x="432.5" y="47.5" fill="black">11</text>
<polygon fill="rgba(0,255,0,0.25)" stroke-width="1" stroke-dasharray="" stroke="green" points="512.5,37.5 518.5,37.5 518.5,50.0 512.5,50.0" />
<text style="" text-anchor="left" x="522.5" y="47.5" fill="black">12</text>
<polygon fill="rgba(255,0,0,0.25)" stroke-width="1" stroke-dasharray="" stroke="rgba(255,0,0,0.25)" points="517.5,37.5 561.0,37.5 561.0,50.0 517.5,50.0" />
<polygon fill="rgba(0,255,0,0.25)" stroke-width="1" stroke-dasharray="" stroke="green" points="242.5,55.0 248.5,55.0 248.5,67.5 242.5,67.5" />
<text style="" text-anchor="left" x="252.5" y="65.0" fill="black">13</text>
<polygon fill="rgba(0,255,0,0.25)" stroke-width="1" stroke-dasharray="" stroke="green" points="422.5,55.0 428.5,55.0 428.5,67.5 422.5,67.5" />
<text style="" text-anchor="left" x="432.5" y="65.0" fill="black">14</text>
<polygon fill="rgba(0,255,0,0.25)" stroke-width="1" stroke-dasharray="" stroke="green" points="512.5,55.0 518.5,55.0 518.5,67.5 512.5,67.5" />
<text style="" text-anchor="left" x="522.5" y="65.0" fill="black">15</text>
<polygon fill="rgba(255,0,0,0.25)" stroke-width="1" stroke-dasharray="" stroke="rgba(255,0,0,0.25)" points="517.5,55.0 561.0,55.0 561.0,67.5 517.5,67.5" />
<polygon fill="rgba(0,255,0,0.25)" stroke-width="1" stroke-dasharray="" stroke="green" points="242.5,72.5 248.5,72.5 248.5,85.0 242.5,85.0" />
<text style="" text-anchor="left" x="252.5" y="82.5" fill="black">16</text>
<polygon fill="rgba(0,255,0,0.25)" stroke-width="1" stroke-dasharray="" stroke="green" points="422.5,72.5 428.5,72.5 428.5,85.0 422.5,85.0" />
<text style="" text-anchor="left" x="432.5" y="82.5" fill="black">17</text>
<polygon fill="rgba(0,255,0,0.25)" stroke-width="1" stroke-dasharray="" stroke="green" points="512.5,72.5 518.5,72.5 518.5,85.0 512.5,85.0" />
<text style="" text-anchor="left" x="522.5" y="82.5" fill="black">18</text>
<polygon fill="rgba(255,0,0,0.25)" stroke-width="1" stroke-dasharray="" stroke="rgba(255,0,0,0.25)" points="517.5,72.5 561.0,72.5 561.0,85.0 517.5,85.0" />
<polygon fill="rgba(0,255,0,0.25)" stroke-width="1" stroke-dasharray="" stroke="green" points="242.5,90.0 248.5,90.0 248.5,102.5 242.5,102.5" />
<text style="" text-anchor="left" x="252.5" y="100.0" fill="black">19</text>
<polygon fill="rgba(0,255,0,0.25)" stroke-width="1" stroke-dasharray="" stroke="green" points="422.5,90.0 428.5,90.0 428.5,102.5 422.5,102.5" />
<text style="" text-anchor="left" x="432.5" y="100.0" fill="black">20</text>
<polygon fill="rgba(255,0,0,0.25)" stroke-width="1" stroke-dasharray="" stroke="rgba(255,0,0,0.25)" points="427.5,90.0 561.0,90.0 561.0,102.5 427.5,102.5" />
<polygon fill="rgba(0,255,0,0.25)" stroke-width="1" stroke-dasharray="" stroke="green" points="242.5,107.5 248.5,107.5 248.5,120.0 262.64213562373095,134.14213562373095 256.64213562373095,134.14213562373095 242.5,120.0" />
<text style="" text-anchor="left" x="252.5" y="117.5" fill="black">21</text>
<polygon fill="rgba(0,255,0,0.25)" stroke-width="1" stroke-dasharray="" stroke="green" points="422.5,107.5 428.5,107.5 428.5,120.0 442.64213562373095,134.14213562373095 436.64213562373095,134.14213562373095 422.5,120.0" />
<text style="" text-anchor="left" x="432.5" y="117.5" fill="black">22</text>
<polygon fill="rgba(255,0,0,0.25)" stroke-width="1" stroke-dasharray="" stroke="rgba(255,0,0,0.25)" points="427.5,107.5 561.0,107.5 561.0,120.0 575.142135623731,134.14213562373095 441.64213562373095,134.14213562373095 427.5,120.0" />
<text style="" text-anchor="start" x="126.25" y="26.25" fill="black">top-back</text>
<text style="" text-anchor="start" x="335.0" y="26.25" fill="black">left-bottom</text>
<text style="" text-anchor="start" x="470.0" y="26.25" fill="black">left-back</text>
<text style="" text-anchor="start" x="126.25" y="43.75" fill="black">top-front</text>
<text style="" text-anchor="start" x="335.0" y="43.75" fill="black">left-top</text>
<text style="" text-anchor="start" x="470.0" y="43.75" fill="black">left-front</text>
<text style="" text-anchor="start" x="126.25" y="61.25" fill="black">bottom-front</text>
<text style="" text-anchor="start" x="335.0" y="61.25" fill="black">right-top</text>
<text style="" text-anchor="start" x="470.0" y="61.25" fill="black">right-front</text>
<text style="" text-anchor="start" x="126.25" y="78.75" fill="black">bottom-back</text>
<text style="" text-anchor="start" x="335.0" y="78.75" fill="black">right-bottom</text>
<text style="" text-anchor="start" x="470.0" y="78.75" fill="black">right-back</text>
<text style="" text-anchor="start" x="126.25" y="96.25" fill="black">lid-back</text>
<text style="" text-anchor="start" x="335.0" y="96.25" fill="black">lid-left</text>
<text style="" text-anchor="start" x="126.25" y="113.75" fill="black">lid-front</text>
<text style="" text-anchor="start" x="335.0" y="113.75" fill="black">lid-right</text>
<polygon fill="none" stroke-width="1" stroke-dasharray="2" stroke="gray" points="24.14213562373095,184.14213562373095 24.14213562373095,196.64213562373095 256.64213562373095,196.64213562373095 256.64213562373095,184.14213562373095" />
<polygon fill="none" stroke-width="1" stroke-dasharray="2" stroke="gray" points="10.0,170.0 10.0,182.5 24.14213562373095,196.64213562373095 24.14213562373095,184.14213562373095" />
<polygon fill="none" stroke-width="1" stroke-dasharray="2" stroke="gray" points="24.14213562373095,184.14213562373095 256.64213562373095,184.14213562373095 242.5,170.0 10.0,170.0" />
<polygon fill="rgba(192,192,192,0.75)" stroke-width="1" stroke-dasharray="" stroke="black" points="10.0,182.5 242.5,182.5 256.64213562373095,196.64213562373095 24.14213562373095,196.64213562373095" />
<polygon fill="rgba(255,255,255,0.75)" stroke-width="1" stroke-dasharray="" stroke="black" points="256.64213562373095,184.14213562373095 256.64213562373095,196.64213562373095 242.5,182.5 242.5,170.0" />
<polygon fill="rgba(255,255,255,0.75)" stroke-width="1" stroke-dasharray="" stroke="black" points="10.0,170.0 242.5,170.0 242.5,182.5 10.0,182.5" />
<text style="" text-anchor="middle" x="126.25" y="176.25" fill="black">top-back</text>
<polygon fill="none" stroke-width="1" stroke-dasharray="2" stroke="gray" points="24.14213562373095,236.64213562373095 24.14213562373095,249.14213562373095 199.14213562373095,249.14213562373095 199.14213562373095,236.64213562373095" />
<polygon fill="none" stroke-width="1" stroke-dasharray="2" stroke="gray" points="10.0,222.5 10.0,235.0 24.14213562373095,249.14213562373095 24.14213562373095,236.64213562373095" />
<polygon fill="none" stroke-width="1" stroke-dasharray="2" stroke="gray" points="24.14213562373095,236.64213562373095 199.14213562373095,236.64213562373095 185.0,222.5 10.0,222.5" />
<polygon fill="rgba(192,192,192,0.75)" stroke-width="1" stroke-dasharray="" stroke="black" points="10.0,235.0 185.0,235.0 199.14213562373095,249.14213562373095 24.14213562373095,249.14213562373095" />
<polygon fill="rgba(255,255,255,0.75)" stroke-width="1" stroke-dasharray="" stroke="black" points="199.14213562373095,236.64213562373095 199.14213562373095,249.14213562373095 185.0,235.0 185.0,222.5" />
<polygon fill="rgba(255,255,255,0.75)" stroke-width="1" stroke-dasharray="" stroke="black" points="10.0,222.5 185.0,222.5 185.0,235.0 10.0,235.0" />
<text style="" text-anchor="middle" x="97.5" y="228.75" fill="black">left-bottom</text>
<polygon fill="none" stroke-width="1" stroke-dasharray="2" stroke="gray" points="24.14213562373095,289.14213562373095 24.14213562373095,301.64213562373095 109.14213562373095,301.64213562373095 109.14213562373095,289.14213562373095" />
<polygon fill="none" stroke-width="1" stroke-dasharray="2" stroke="gray" points="10.0,275.0 10.0,287.5 24.14213562373095,301.64213562373095 24.14213562373095,289.14213562373095" />
<polygon fill="none" stroke-width="1" stroke-dasharray="2" stroke="gray" points="24.14213562373095,289.14213562373095 109.14213562373095,289.14213562373095 95.0,275.0 10.0,275.0" />
<polygon fill="rgba(192,192,192,0.75)" stroke-width="1" stroke-dasharray="" stroke="black" points="10.0,287.5 95.0,287.5 109.14213562373095,301.64213562373095 24.14213562373095,301.64213562373095" />
<polygon fill="rgba(255,255,255,0.75)" stroke-width="1" stroke-dasharray="" stroke="black" points="109.14213562373095,289.14213562373095 109.14213562373095,301.64213562373095 95.0,287.5 95.0,275.0" />
<polygon fill="rgba(255,255,255,0.75)" stroke-width="1" stroke-dasharray="" stroke="black" points="10.0,275.0 95.0,275.0 95.0,287.5 10.0,287.5" />
<text style="" text-anchor="middle" x="52.5" y="281.25" fill="black">left-back</text>
<polygon fill="none" stroke-width="1" stroke-dasharray="2" stroke="gray" points="24.14213562373095,341.64213562373095 24.14213562373095,354.14213562373095 256.64213562373095,354.14213562373095 256.64213562373095,341.64213562373095" />
<polygon fill="none" stroke-width="1" stroke-dasharray="2" stroke="gray" points="10.0,327.5 10.0,340.0 24.14213562373095,354.14213562373095 24.14213562373095,341.64213562373095" />
<polygon fill="none" stroke-width="1" stroke-dasharray="2" stroke="gray" points="24.14213562373095,341.64213562373095 256.64213562373095,341.64213562373095 242.5,327.5 10.0,327.5" />
<polygon fill="rgba(192,192,192,0.75)" stroke-width="1" stroke-dasharray="" stroke="black" points="10.0,340.0 242.5,340.0 256.64213562373095,354.14213562373095 24.14213562373095,354.14213562373095" />
<polygon fill="rgba(255,255,255,0.75)" stroke-width="1" stroke-dasharray="" stroke="black" points="256.64213562373095,341.64213562373095 256.64213562373095,354.14213562373095 242.5,340.0 242.5,327.5" />
<polygon fill="rgba(255,255,255,0.75)" stroke-width="1" stroke-dasharray="" stroke="black" points="10.0,327.5 242.5,327.5 242.5,340.0 10.0,340.0" />
<text style="" text-anchor="middle" x="126.25" y="333.75" fill="black">top-front</text>
<polygon fill="none" stroke-width="1" stroke-dasharray="2" stroke="gray" points="24.14213562373095,394.14213562373095 24.14213562373095,406.64213562373095 199.14213562373095,406.64213562373095 199.14213562373095,394.14213562373095" />
<polygon fill="none" stroke-width="1" stroke-dasharray="2" stroke="gray" points="10.0,380.0 10.0,392.5 24.14213562373095,406.64213562373095 24.14213562373095,394.14213562373095" />
<polygon fill="none" stroke-width="1" stroke-dasharray="2" stroke="gray" points="24.14213562373095,394.14213562373095 199.14213562373095,394.14213562373095 185.0,380.0 10.0,380.0" />
<polygon fill="rgba(192,192,192,0.75)" stroke-width="1" stroke-dasharray="" stroke="black" points="10.0,392.5 185.0,392.5 199.14213562373095,406.64213562373095 24.14213562373095,406.64213562373095" />
<polygon fill="rgba(255,255,255,0.75)" stroke-width="1" stroke-dasharray="" stroke="black" points="199.14213562373095,394.14213562373095 199.14213562373095,406.64213562373095 185.0,392.5 185.0,380.0" />
<polygon fill="rgba(255,255,255,0.75)" stroke-width="1" stroke-dasharray="" stroke="black" points="10.0,380.0 185.0,380.0 185.0,392.5 10.0,392.5" />
<text style="" text-anchor="middle" x="97.5" y="386.25" fill="black">left-top</text>
<polygon fill="none" stroke-width="1" stroke-dasharray="2" stroke="gray" points="24.14213562373095,446.64213562373095 24.14213562373095,459.14213562373095 109.14213562373095,459.14213562373095 109.14213562373095,446.64213562373095" />
<polygon fill="none" stroke-width="1" stroke-dasharray="2" stroke="gray" points="10.0,432.5 10.0,445.0 24.14213562373095,459.14213562373095 24.14213562373095,446.64213562373095" />
<polygon fill="none" stroke-width="1" stroke-dasharray="2" stroke="gray" points="24.14213562373095,446.64213562373095 109.14213562373095,446.64213562373095 95.0,432.5 10.0,432.5" />
<polygon fill="rgba(192,192,192,0.75)" stroke-width="1" stroke-dasharray="" stroke="black" points="10.0,445.0 95.0,445.0 109.14213562373095,459.14213562373095 24.14213562373095,459.14213562373095" />
<polygon fill="rgba(255,255,255,0.75)" stroke-width="1" stroke-dasharray="" stroke="black" points="109.14213562373095,446.64213562373095 109.14213562373095,459.14213562373095 95.0,445.0 95.0,432.5" />
<polygon fill="rgba(255,255,255,0.75)" stroke-width="1" stroke-dasharray="" stroke="black" points="10.0,432.5 95.0,432.5 95.0,445.0 10.0,445.0" />
<text style="" text-anchor="middle" x="52.5" y="438.75" fill="black">left-front</text>
<polygon fill="none" stroke-width="1" stroke-dasharray="2" stroke="gray" points="24.14213562373095,499.14213562373095 24.14213562373095,511.64213562373095 256.64213562373095,511.64213562373095 256.64213562373095,499.14213562373095" />
<polygon fill="none" stroke-width="1" stroke-dasharray="2" stroke="gray" points="10.0,485.0 10.0,497.5 24.14213562373095,511.64213562373095 24.14213562373095,499.14213562373095" />
<polygon fill="none" stroke-width="1" stroke-dasharray="2" stroke="gray" points="24.14213562373095,499.14213562373095 256.64213562373095,499.14213562373095 242.5,485.0 10.0,485.0" />
<polygon fill="rgba(192,192,192,0.75)" stroke-width="1" stroke-dasharray="" stroke="black" points="10.0,497.5 242.5,497.5 256.64213562373095,511.64213562373095 24.14213562373095,511.64213562373095" />
<polygon fill="rgba(255,255,255,0.75)" stroke-width="1" stroke-dasharray="" stroke="black" points="256.64213562373095,499.14213562373095 256.64213562373095,511.64213562373095 242.5,497.5 242.5,485.0" />
<polygon fill="rgba(255,255,255,0.75)" stroke-width="1" stroke-dasharray="" stroke="black" points="10.0,485.0 242.5,485.0 242.5,497.5 10.0,497.5" />
<text style="" text-anchor="middle" x="126.25" y="491.25" fill="black">bottom-front</text>
<polygon fill="none" stroke-width="1" stroke-dasharray="2" stroke="gray" points="24.14213562373095,551.642135623731 24.14213562373095,564.142135623731 199.14213562373095,564.142135623731 199.14213562373095,551.642135623731" />
<polygon fill="none" stroke-width="1" stroke-dasharray="2" stroke="gray" points="10.0,537.5 10.0,550.0 24.14213562373095,564.142135623731 24.14213562373095,551.642135623731" />
<polygon fill="none" stroke-width="1" stroke-dasharray="2" stroke="gray" points="24.14213562373095,551.642135623731 199.14213562373095,551.642135623731 185.0,537.5 10.0,537.5" />
<polygon fill="rgba(192,192,192,0.75)" stroke-width="1" stroke-dasharray="" stroke="black" points="10.0,550.0 185.0,550.0 199.14213562373095,564.142135623731 24.14213562373095,564.142135623731" />
<polygon fill="rgba(255,255,255,0.75)" stroke-width="1" stroke-dasharray="" stroke="black" points="199.14213562373095,551.642135623731 199.14213562373095,564.142135623731 185.0,550.0 185.0,537.5" />
<polygon fill="rgba(255,255,255,0.75)" stroke-width="1" stroke-dasharray="" stroke="black" points="10.0,537.5 185.0,537.5 185.0,550.0 10.0,550.0" />
<text style="" text-anchor="middle" x="97.5" y="543.75" fill="black">right-top</text>
<polygon fill="none" stroke-width="1" stroke-dasharray="2" stroke="gray" points="24.14213562373095,604.142135623731 24.14213562373095,616.642135623731 109.14213562373095,616.642135623731 109.14213562373095,604.142135623731" />
<polygon fill="none" stroke-width="1" stroke-dasharray="2" stroke="gray" points="10.0,590.0 10.0,602.5 24.14213562373095,616.642135623731 24.14213562373095,604.142135623731" />
<polygon fill="none" stroke-width="1" stroke-dasharray="2" stroke="gray" points="24.14213562373095,604.142135623731 109.14213562373095,604.142135623731 95.0,590.0 10.0,590.0" />
<polygon fill="rgba(192,192,192,0.75)" stroke-width="1" stroke-dasharray="" stroke="black" points="10.0,602.5 95.0,602.5 109.14213562373095,616.642135623731 24.14213562373095,616.642135623731" />
<polygon fill="rgba(255,255,255,0.75)" stroke-width="1" stroke-dasharray="" stroke="black" points="109.14213562373095,604.142135623731 109.14213562373095,616.642135623731 95.0,602.5 95.0,590.0" />
<polygon fill="rgba(255,255,255,0.75)" stroke-width="1" stroke-dasharray="" stroke="black" points="10.0,590.0 95.0,590.0 95.0,602.5 10.0,602.5" />
<text style="" text-anchor="middle" x="52.5" y="596.25" fill="black">right-front</text>
<polygon fill="none" stroke-width="1" stroke-dasharray="2" stroke="gray" points="24.14213562373095,656.642135623731 24.14213562373095,669.142135623731 256.64213562373095,669.142135623731 256.64213562373095,656.642135623731" />
<polygon fill="none" stroke-width="1" stroke-dasharray="2" stroke="gray" points="10.0,642.5 10.0,655.0 24.14213562373095,669.142135623731 24.14213562373095,656.642135623731" />
<polygon fill="none" stroke-width="1" stroke-dasharray="2" stroke="gray" points="24.14213562373095,656.642135623731 256.64213562373095,656.642135623731 242.5,642.5 10.0,642.5" />
<polygon fill="rgba(192,192,192,0.75)" stroke-width="1" stroke-dasharray="" stroke="black" points="10.0,655.0 242.5,655.0 256.64213562373095,669.142135623731 24.14213562373095,669.142135623731" />
<polygon fill="rgba(255,255,255,0.75)" stroke-width="1" stroke-dasharray="" stroke="black" points="256.64213562373095,656.642135623731 256.64213562373095,669.142135623731 242.5,655.0 242.5,642.5" />
<polygon fill="rgba(255,255,255,0.75)" stroke-width="1" stroke-dasharray="" stroke="black" points="10.0,642.5 242.5,642.5 242.5,655.0 10.0,655.0" />
<text style="" text-anchor="middle" x="126.25" y="648.75" fill="black">bottom-back</text>
<polygon fill="none" stroke-width="1" stroke-dasharray="2" stroke="gray" points="24.14213562373095,709.142135623731 24.14213562373095,721.642135623731 199.14213562373095,721.642135623731 199.14213562373095,709.142135623731" />
<polygon fill="none" stroke-width="1" stroke-dasharray="2" stroke="gray" points="10.0,695.0 10.0,707.5 24.14213562373095,721.642135623731 24.14213562373095,709.142135623731" />
<polygon fill="none" stroke-width="1" stroke-dasharray="2" stroke="gray" points="24.14213562373095,709.142135623731 199.14213562373095,709.142135623731 185.0,695.0 10.0,695.0" />
<polygon fill="rgba(192,192,192,0.75)" stroke-width="1" stroke-dasharray="" stroke="black" points="10.0,707.5 185.0,707.5 199.14213562373095,721.642135623731 24.14213562373095,721.642135623731" />
<polygon fill="rgba(255,255,255,0.75)" stroke-width="1" stroke-dasharray="" stroke="black" points="199.14213562373095,709.142135623731 199.14213562373095,721.642135623731 185.0,707.5 185.0,695.0" />
<polygon fill="rgba(255,255,255,0.75)" stroke-width="1" stroke-dasharray="" stroke="black" points="10.0,695.0 185.0,695.0 185.0,707.5 10.0,707.5" />
<text style="" text-anchor="middle" x="97.5" y="701.25" fill="black">right-bottom</text>
<polygon fill="none" stroke-width="1" stroke-dasharray="2" stroke="gray" points="24.14213562373095,761.642135623731 24.14213562373095,774.142135623731 109.14213562373095,774.142135623731 109.14213562373095,761.642135623731" />
<polygon fill="none" stroke-width="1" stroke-dasharray="2" stroke="gray" points="10.0,747.5 10.0,760.0 24.14213562373095,774.142135623731 24.14213562373095,761.642135623731" />
<polygon fill="none" stroke-width="1" stroke-dasharray="2" stroke="gray" points="24.14213562373095,761.642135623731 109.14213562373095,761.642135623731 95.0,747.5 10.0,747.5" />
<polygon fill="rgba(192,192,192,0.75)" stroke-width="1" stroke-dasharray="" stroke="black" points="10.0,760.0 95.0,760.0 109.14213562373095,774.142135623731 24.14213562373095,774.142135623731" />
<polygon fill="rgba(255,255,255,0.75)" stroke-width="1" stroke-dasharray="" stroke="black" points="109.14213562373095,761.642135623731 109.14213562373095,774.142135623731 95.0,760.0 95.0,747.5" />
<polygon fill="rgba(255,255,255,0.75)" stroke-width="1" stroke-dasharray="" stroke="black" points="10.0,747.5 95.0,747.5 95.0,760.0 10.0,760.0" />
<text style="" text-anchor="middle" x="52.5" y="753.75" fill="black">right-back</text>
<polygon fill="none" stroke-width="1" stroke-dasharray="2" stroke="gray" points="24.14213562373095,814.142135623731 24.14213562373095,826.642135623731 256.64213562373095,826.642135623731 256.64213562373095,814.142135623731" />
<polygon fill="none" stroke-width="1" stroke-dasharray="2" stroke="gray" points="10.0,800.0 10.0,812.5 24.14213562373095,826.642135623731 24.14213562373095,814.142135623731" />
<polygon fill="none" stroke-width="1" stroke-dasharray="2" stroke="gray" points="24.14213562373095,814.142135623731 256.64213562373095,814.142135623731 242.5,800.0 10.0,800.0" />
<polygon fill="rgba(192,192,192,0.75)" stroke-width="1" stroke-dasharray="" stroke="black" points="10.0,812.5 242.5,812.5 256.64213562373095,826.642135623731 24.14213562373095,826.642135623731" />
<polygon fill="rgba(255,255,255,0.75)" stroke-width="1" stroke-dasharray="" stroke="black" points="256.64213562373095,814.142135623731 256.64213562373095,826.642135623731 242.5,812.5 242.5,800.0" />
<polygon fill="rgba(255,255,255,0.75)" stroke-width="1" stroke-dasharray="" stroke="black" points="10.0,800.0 242.5,800.0 242.5,812.5 10.0,812.5" />
<text style="" text-anchor="middle" x="126.25" y="806.25" fill="black">lid-back</text>
<polygon fill="none" stroke-width="1" stroke-dasharray="2" stroke="gray" points="24.14213562373095,866.642135623731 24.14213562373095,879.142135623731 199.14213562373095,879.142135623731 199.14213562373095,866.642135623731" />
<polygon fill="none" stroke-width="1" stroke-dasharray="2" stroke="gray" points="10.0,852.5 10.0,865.0 24.14213562373095,879.142135623731 24.14213562373095,866.642135623731" />
<polygon fill="none" stroke-width="1" stroke-dasharray="2" stroke="gray" points="24.14213562373095,866.642135623731 199.14213562373095,866.642135623731 185.0,852.5 10.0,852.5" />
<polygon fill="rgba(192,192,192,0.75)" stroke-width="1" stroke-dasharray="" stroke="black" points="10.0,865.0 185.0,865.0 199.14213562373095,879.142135623731 24.14213562373095,879.142135623731" />
<polygon fill="rgba(255,255,255,0.75)" stroke-width="1" stroke-dasharray="" stroke="black" points="199.14213562373095,866.642135623731 199.14213562373095,879.142135623731 185.0,865.0 185.0,852.5" />
<polygon fill="rgba(255,255,255,0.75)" stroke-width="1" stroke-dasharray="" stroke="black" points="10.0,852.5 185.0,852.5 185.0,865.0 10.0,865.0" />
<text style="" text-anchor="middle" x="97.5" y="858.75" fill="black">lid-left</text>
<polygon fill="none" stroke-width="1" stroke-dasharray="2" stroke="gray" points="24.14213562373095,919.142135623731 24.14213562373095,931.642135623731 256.64213562373095,931.642135623731 256.64213562373095,919.142135623731" />
<polygon fill="none" stroke-width="1" stroke-dasharray="2" stroke="gray" points="10.0,905.0 10.0,917.5 24.14213562373095,931.642135623731 24.14213562373095,919.142135623731" />
<polygon fill="none" stroke-width="1" stroke-dasharray="2" stroke="gray" points="24.14213562373095,919.142135623731 256.64213562373095,919.142135623731 242.5,905.0 10.0,905.0" />
<polygon fill="rgba(192,192,192,0.75)" stroke-width="1" stroke-dasharray="" stroke="black" points="10.0,917.5 242.5,917.5 256.64213562373095,931.642135623731 24.14213562373095,931.642135623731" />
<polygon fill="rgba(255,255,255,0.75)" stroke-width="1" stroke-dasharray="" stroke="black" points="256.64213562373095,919.142135623731 256.64213562373095,931.642135623731 242.5,917.5 242.5,905.0" />
<polygon fill="rgba(255,255,255,0.75)" stroke-width="1" stroke-dasharray="" stroke="black" points="10.0,905.0 242.5,905.0 242.5,917.5 10.0,917.5" />
<text style="" text-anchor="middle" x="126.25" y="911.25" fill="black">lid-front</text>
<polygon fill="none" stroke-width="1" stroke-dasharray="2" stroke="gray" points="24.14213562373095,971.642135623731 24.14213562373095,984.142135623731 199.14213562373095,984.142135623731 199.14213562373095,971.642135623731" />
<polygon fill="none" stroke-width="1" stroke-dasharray="2" stroke="gray" points="10.0,957.5 10.0,970.0 24.14213562373095,984.142135623731 24.14213562373095,971.642135623731" />
<polygon fill="none" stroke-width="1" stroke-dasharray="2" stroke="gray" points="24.14213562373095,971.642135623731 199.14213562373095,971.642135623731 185.0,957.5 10.0,957.5" />
<polygon fill="rgba(192,192,192,0.75)" stroke-width="1" stroke-dasharray="" stroke="black" points="10.0,970.0 185.0,970.0 199.14213562373095,984.142135623731 24.14213562373095,984.142135623731" />
<polygon fill="rgba(255,255,255,0.75)" stroke-width="1" stroke-dasharray="" stroke="black" points="199.14213562373095,971.642135623731 199.14213562373095,984.142135623731 185.0,970.0 185.0,957.5" />
<polygon fill="rgba(255,255,255,0.75)" stroke-width="1" stroke-dasharray="" stroke="black" points="10.0,957.5 185.0,957.5 185.0,970.0 10.0,970.0" />
<text style="" text-anchor="middle" x="97.5" y="963.75" fill="black">lid-right</text>
</svg>
