<svg width="1000" viewBox="0 0 1000 915.6568542494924" xmlns="http://www.w3.org/2000/svg">
<polygon fill="none" stroke-width="1" stroke-dasharray="2" stroke="gray" points="15.65685424949238,25.65685424949238 15.65685424949238,125.65685424949238 565.6568542494924,125.65685424949238 565.6568542494924,25.65685424949238" />
<polygon fill="none" stroke-width="1" stroke-dasharray="2" stroke="gray" points="10.0,20.0 10.0,120.0 15.65685424949238,125.65685424949238 15.65685424949238,25.65685424949238" />
<polygon fill="none" stroke-width="1" stroke-dasharray="2" stroke="gray" points="15.65685424949238,25.65685424949238 565.6568542494924,25.65685424949238 560.0,20.0 10.0,20.0" />
<polygon fill="rgba(192,192,192,0.75)" stroke-width="1" stroke-dasharray="" stroke="black" points="10.0,120.0 560.0,120.0 565.6568542494924,125.65685424949238 15.65685424949238,125.65685424949238" />
<polygon fill="rgba(255,255,255,0.75)" stroke-width="1" stroke-dasharray="" stroke="black" points="565.6568542494924,25.65685424949238 565.6568542494924,125.65685424949238 560.0,120.0 560.0,20.0" />
<polygon fill="rgba(255,255,255,0.75)" stroke-width="1" stroke-dasharray="" stroke="black" points="10.0,20.0 560.0,20.0 560.0,120.0 10.0,120.0" />
<polygon fill="rgba(0,255,0,0.25)" stroke-width="1" stroke-dasharray="" stroke="green" points="155.0,20.0 156.0,20.0 156.0,120.0 161.65685424949237,125.65685424949238 160.65685424949237,125.65685424949238 155.0,120.0" />
<text style="" text-anchor="left" x="165" y="30" fill="black">1</text>
<polygon fill="rgba(0,0,255,0.25)" stroke-width="1" stroke-dasharray="" stroke="blue" points="10.0,75.0 156.0,75.0 156.0,80.0 10.0,80.0" />
<text style="" text-anchor="left" x="20" y="85" fill="black">2</text>
<polygon fill="rgba(255,0,0,0.25)" stroke-width="1" stroke-dasharray="" stroke="rgba(255,0,0,0.25)" points="10.0,80.0 156.0,80.0 156.0,120.0 161.65685424949237,125.65685424949238 15.65685424949238,125.65685424949238 10.0,120.0" />
<polygon fill="rgba(0,255,0,0.25)" stroke-width="1" stroke-dasharray="" stroke="green" points="357.5,20.0 358.5,20.0 358.5,120.0 364.15685424949237,125.65685424949238 363.15685424949237,125.65685424949238 357.5,120.0" />
<text style="" text-anchor="left" x="367.5" y="30" fill="black">3</text>
<polygon fill="rgba(0,0,255,0.25)" stroke-width="1" stroke-dasharray="" stroke="blue" points="155.0,75.0 358.5,75.0 358.5,75.0 155.0,75.0" />
<text style="" text-anchor="left" x="165" y="85" fill="black">4</text>
<polygon fill="rgba(0,255,0,0.25)" stroke-width="1" stroke-dasharray="" stroke="green" points="560.0,20.0 561.0,20.0 561.0,120.0 566.6568542494924,125.65685424949238 565.6568542494924,125.65685424949238 560.0,120.0" />
<text style="" text-anchor="left" x="570.0" y="30" fill="black">5</text>
<polygon fill="rgba(255,0,0,0.25)" stroke-width="1" stroke-dasharray="" stroke="rgba(255,0,0,0.25)" points="560.0,20.0 561.0,20.0 561.0,120.0 566.6568542494924,125.65685424949238 565.6568542494924,125.65685424949238 560.0,120.0" />
<text style="" text-anchor="start" x="82.5" y="47.5" fill="black">left</text>
<text style="" text-anchor="start" x="256.25" y="47.5" fill="black">front</text>
<text style="" text-anchor="start" x="256.25" y="97.5" fill="black">top2</text>
<text style="" text-anchor="start" x="458.75" y="70.0" fill="black">top1</text>
<polygon fill="none" stroke-width="1" stroke-dasharray="2" stroke="gray" points="15.65685424949238,175.65685424949237 15.65685424949238,275.65685424949237 565.6568542494924,275.65685424949237 565.6568542494924,175.65685424949237" />
<polygon fill="none" stroke-width="1" stroke-dasharray="2" stroke="gray" points="10.0,170.0 10.0,270.0 15.65685424949238,275.65685424949237 15.65685424949238,175.65685424949237" />
<polygon fill="none" stroke-width="1" stroke-dasharray="2" stroke="gray" points="15.65685424949238,175.65685424949237 565.6568542494924,175.65685424949237 560.0,170.0 10.0,170.0" />
<polygon fill="rgba(192,192,192,0.75)" stroke-width="1" stroke-dasharray="" stroke="black" points="10.0,270.0 560.0,270.0 565.6568542494924,275.65685424949237 15.65685424949238,275.65685424949237" />
<polygon fill="rgba(255,255,255,0.75)" stroke-width="1" stroke-dasharray="" stroke="black" points="565.6568542494924,175.65685424949237 565.6568542494924,275.65685424949237 560.0,270.0 560.0,170.0" />
<polygon fill="rgba(255,255,255,0.75)" stroke-width="1" stroke-dasharray="" stroke="black" points="10.0,170.0 560.0,170.0 560.0,270.0 10.0,270.0" />
<polygon fill="rgba(0,255,0,0.25)" stroke-width="1" stroke-dasharray="" stroke="green" points="155.0,170.0 156.0,170.0 156.0,270.0 161.65685424949237,275.65685424949237 160.65685424949237,275.65685424949237 155.0,270.0" />
<text style="" text-anchor="left" x="165" y="180" fill="black">1</text>
<polygon fill="rgba(0,0,255,0.25)" stroke-width="1" stroke-dasharray="" stroke="blue" points="10.0,225.0 156.0,225.0 156.0,230.0 10.0,230.0" />
<text style="" text-anchor="left" x="20" y="235" fill="black">2</text>
<polygon fill="rgba(255,0,0,0.25)" stroke-width="1" stroke-dasharray="" stroke="rgba(255,0,0,0.25)" points="10.0,230.0 156.0,230.0 156.0,270.0 161.65685424949237,275.65685424949237 15.65685424949238,275.65685424949237 10.0,270.0" />
<polygon fill="rgba(0,255,0,0.25)" stroke-width="1" stroke-dasharray="" stroke="green" points="357.5,170.0 358.5,170.0 358.5,270.0 364.15685424949237,275.65685424949237 363.15685424949237,275.65685424949237 357.5,270.0" />
<text style="" text-anchor="left" x="367.5" y="180" fill="black">3</text>
<polygon fill="rgba(0,0,255,0.25)" stroke-width="1" stroke-dasharray="" stroke="blue" points="155.0,225.0 358.5,225.0 358.5,225.0 155.0,225.0" />
<text style="" text-anchor="left" x="165" y="235" fill="black">4</text>
<polygon fill="rgba(0,255,0,0.25)" stroke-width="1" stroke-dasharray="" stroke="green" points="560.0,170.0 561.0,170.0 561.0,270.0 566.6568542494924,275.65685424949237 565.6568542494924,275.65685424949237 560.0,270.0" />
<text style="" text-anchor="left" x="570.0" y="180" fill="black">5</text>
<polygon fill="rgba(255,0,0,0.25)" stroke-width="1" stroke-dasharray="" stroke="rgba(255,0,0,0.25)" points="560.0,170.0 561.0,170.0 561.0,270.0 566.6568542494924,275.65685424949237 565.6568542494924,275.65685424949237 560.0,270.0" />
<text style="" text-anchor="start" x="82.5" y="197.5" fill="black">right</text>
<text style="" text-anchor="start" x="256.25" y="197.5" fill="black">back</text>
<text style="" text-anchor="start" x="256.25" y="247.5" fill="black">bottom2</text>
<text style="" text-anchor="start" x="458.75" y="220.0" fill="black">bottom1</text>
<polygon fill="none" stroke-width="1" stroke-dasharray="2" stroke="gray" points="15.65685424949238,305.65685424949237 15.65685424949238,360.65685424949237 160.65685424949237,360.65685424949237 160.65685424949237,305.65685424949237" />
<polygon fill="none" stroke-width="1" stroke-dasharray="2" stroke="gray" points="10.0,300.0 10.0,355.0 15.65685424949238,360.65685424949237 15.65685424949238,305.65685424949237" />
<polygon fill="none" stroke-width="1" stroke-dasharray="2" stroke="gray" points="15.65685424949238,305.65685424949237 160.65685424949237,305.65685424949237 155.0,300.0 10.0,300.0" />
<polygon fill="rgba(192,192,192,0.75)" stroke-width="1" stroke-dasharray="" stroke="black" points="10.0,355.0 155.0,355.0 160.65685424949237,360.65685424949237 15.65685424949238,360.65685424949237" />
<polygon fill="rgba(255,255,255,0.75)" stroke-width="1" stroke-dasharray="" stroke="black" points="160.65685424949237,305.65685424949237 160.65685424949237,360.65685424949237 155.0,355.0 155.0,300.0" />
<polygon fill="rgba(255,255,255,0.75)" stroke-width="1" stroke-dasharray="" stroke="black" points="10.0,300.0 155.0,300.0 155.0,355.0 10.0,355.0" />
<text style="" text-anchor="middle" x="82.5" y="327.5" fill="black">left</text>
<polygon fill="none" stroke-width="1" stroke-dasharray="2" stroke="gray" points="15.65685424949238,376.65685424949237 15.65685424949238,431.65685424949237 218.15685424949237,431.65685424949237 218.15685424949237,376.65685424949237" />
<polygon fill="none" stroke-width="1" stroke-dasharray="2" stroke="gray" points="10.0,371.0 10.0,426.0 15.65685424949238,431.65685424949237 15.65685424949238,376.65685424949237" />
<polygon fill="none" stroke-width="1" stroke-dasharray="2" stroke="gray" points="15.65685424949238,376.65685424949237 218.15685424949237,376.65685424949237 212.5,371.0 10.0,371.0" />
<polygon fill="rgba(192,192,192,0.75)" stroke-width="1" stroke-dasharray="" stroke="black" points="10.0,426.0 212.5,426.0 218.15685424949237,431.65685424949237 15.65685424949238,431.65685424949237" />
<polygon fill="rgba(255,255,255,0.75)" stroke-width="1" stroke-dasharray="" stroke="black" points="218.15685424949237,376.65685424949237 218.15685424949237,431.65685424949237 212.5,426.0 212.5,371.0" />
<polygon fill="rgba(255,255,255,0.75)" stroke-width="1" stroke-dasharray="" stroke="black" points="10.0,371.0 212.5,371.0 212.5,426.0 10.0,426.0" />
<text style="" text-anchor="middle" x="111.25" y="398.5" fill="black">front</text>
<polygon fill="none" stroke-width="1" stroke-dasharray="2" stroke="gray" points="15.65685424949238,447.65685424949237 15.65685424949238,502.65685424949237 160.65685424949237,502.65685424949237 160.65685424949237,447.65685424949237" />
<polygon fill="none" stroke-width="1" stroke-dasharray="2" stroke="gray" points="10.0,442.0 10.0,497.0 15.65685424949238,502.65685424949237 15.65685424949238,447.65685424949237" />
<polygon fill="none" stroke-width="1" stroke-dasharray="2" stroke="gray" points="15.65685424949238,447.65685424949237 160.65685424949237,447.65685424949237 155.0,442.0 10.0,442.0" />
<polygon fill="rgba(192,192,192,0.75)" stroke-width="1" stroke-dasharray="" stroke="black" points="10.0,497.0 155.0,497.0 160.65685424949237,502.65685424949237 15.65685424949238,502.65685424949237" />
<polygon fill="rgba(255,255,255,0.75)" stroke-width="1" stroke-dasharray="" stroke="black" points="160.65685424949237,447.65685424949237 160.65685424949237,502.65685424949237 155.0,497.0 155.0,442.0" />
<polygon fill="rgba(255,255,255,0.75)" stroke-width="1" stroke-dasharray="" stroke="black" points="10.0,442.0 155.0,442.0 155.0,497.0 10.0,497.0" />
<text style="" text-anchor="middle" x="82.5" y="469.5" fill="black">right</text>
<polygon fill="none" stroke-width="1" stroke-dasharray="2" stroke="gray" points="15.65685424949238,518.6568542494924 15.65685424949238,573.6568542494924 218.15685424949237,573.6568542494924 218.15685424949237,518.6568542494924" />
<polygon fill="none" stroke-width="1" stroke-dasharray="2" stroke="gray" points="10.0,513.0 10.0,568.0 15.65685424949238,573.6568542494924 15.65685424949238,518.6568542494924" />
<polygon fill="none" stroke-width="1" stroke-dasharray="2" stroke="gray" points="15.65685424949238,518.6568542494924 218.15685424949237,518.6568542494924 212.5,513.0 10.0,513.0" />
<polygon fill="rgba(192,192,192,0.75)" stroke-width="1" stroke-dasharray="" stroke="black" points="10.0,568.0 212.5,568.0 218.15685424949237,573.6568542494924 15.65685424949238,573.6568542494924" />
<polygon fill="rgba(255,255,255,0.75)" stroke-width="1" stroke-dasharray="" stroke="black" points="218.15685424949237,518.6568542494924 218.15685424949237,573.6568542494924 212.5,568.0 212.5,513.0" />
<polygon fill="rgba(255,255,255,0.75)" stroke-width="1" stroke-dasharray="" stroke="black" points="10.0,513.0 212.5,513.0 212.5,568.0 10.0,568.0" />
<text style="" text-anchor="middle" x="111.25" y="540.5" fill="black">back</text>
<polygon fill="none" stroke-width="1" stroke-dasharray="2" stroke="gray" points="15.65685424949238,589.6568542494924 15.65685424949238,734.6568542494924 218.15685424949237,734.6568542494924 218.15685424949237,589.6568542494924" />
<polygon fill="none" stroke-width="1" stroke-dasharray="2" stroke="gray" points="10.0,584.0 10.0,729.0 15.65685424949238,734.6568542494924 15.65685424949238,589.6568542494924" />
<polygon fill="none" stroke-width="1" stroke-dasharray="2" stroke="gray" points="15.65685424949238,589.6568542494924 218.15685424949237,589.6568542494924 212.5,584.0 10.0,584.0" />
<polygon fill="rgba(192,192,192,0.75)" stroke-width="1" stroke-dasharray="" stroke="black" points="10.0,729.0 212.5,729.0 218.15685424949237,734.6568542494924 15.65685424949238,734.6568542494924" />
<polygon fill="rgba(255,255,255,0.75)" stroke-width="1" stroke-dasharray="" stroke="black" points="218.15685424949237,589.6568542494924 218.15685424949237,734.6568542494924 212.5,729.0 212.5,584.0" />
<polygon fill="rgba(255,255,255,0.75)" stroke-width="1" stroke-dasharray="" stroke="black" points="10.0,584.0 212.5,584.0 212.5,729.0 10.0,729.0" />
<text style="" text-anchor="middle" x="111.25" y="656.5" fill="black">top</text>
<polygon fill="none" stroke-width="1" stroke-dasharray="2" stroke="gray" points="15.65685424949238,750.6568542494924 15.65685424949238,895.6568542494924 218.15685424949237,895.6568542494924 218.15685424949237,750.6568542494924" />
<polygon fill="none" stroke-width="1" stroke-dasharray="2" stroke="gray" points="10.0,745.0 10.0,890.0 15.65685424949238,895.6568542494924 15.65685424949238,750.6568542494924" />
<polygon fill="none" stroke-width="1" stroke-dasharray="2" stroke="gray" points="15.65685424949238,750.6568542494924 218.15685424949237,750.6568542494924 212.5,745.0 10.0,745.0" />
<polygon fill="rgba(192,192,192,0.75)" stroke-width="1" stroke-dasharray="" stroke="black" points="10.0,890.0 212.5,890.0 218.15685424949237,895.6568542494924 15.65685424949238,895.6568542494924" />
<polygon fill="rgba(255,255,255,0.75)" stroke-width="1" stroke-dasharray="" stroke="black" points="218.15685424949237,750.6568542494924 218.15685424949237,895.6568542494924 212.5,890.0 212.5,745.0" />
<polygon fill="rgba(255,255,255,0.75)" stroke-width="1" stroke-dasharray="" stroke="black" points="10.0,745.0 212.5,745.0 212.5,890.0 10.0,890.0" />
<text style="" text-anchor="middle" x="111.25" y="817.5" fill="black">bottom</text>
</svg>
