<svg width="1100" viewBox="0 0 550 336.3847763108502" xmlns="http://www.w3.org/2000/svg">
<polygon fill="none" stroke-width="1" stroke-dasharray="2" stroke="gray" points="19.19238815542512,29.192388155425117 19.19238815542512,158.1923881554251 489.19238815542514,158.1923881554251 489.19238815542514,29.192388155425117" />
<polygon fill="none" stroke-width="1" stroke-dasharray="2" stroke="gray" points="10.0,20.0 10.0,149.0 19.19238815542512,158.1923881554251 19.19238815542512,29.192388155425117" />
<polygon fill="none" stroke-width="1" stroke-dasharray="2" stroke="gray" points="19.19238815542512,29.192388155425117 489.19238815542514,29.192388155425117 480.0,20.0 10.0,20.0" />
<polygon fill="rgba(192,192,192,0.75)" stroke-width="1" stroke-dasharray="" stroke="black" points="10.0,149.0 480.0,149.0 489.19238815542514,158.1923881554251 19.19238815542512,158.1923881554251" />
<polygon fill="rgba(255,255,255,0.75)" stroke-width="1" stroke-dasharray="" stroke="black" points="489.19238815542514,29.192388155425117 489.19238815542514,158.1923881554251 480.0,149.0 480.0,20.0" />
<polygon fill="rgba(255,255,255,0.75)" stroke-width="1" stroke-dasharray="" stroke="black" points="10.0,20.0 480.0,20.0 480.0,149.0 10.0,149.0" />
<circle cx="150" cy="32.0" r="5" stroke="orange" fill="white" stroke-width="1" />
<circle cx="185" cy="51.0" r="5" stroke="orange" fill="white" stroke-width="1" />
<rect x="275" y="63.0" width="40" height="10.0" style="fill: none; stroke: orange; stroke-width: 1;" />
<circle cx="150" cy="75.0" r="5" stroke="orange" fill="white" stroke-width="1" />
<circle cx="185" cy="94.0" r="5" stroke="orange" fill="white" stroke-width="1" />
<circle cx="150" cy="118.0" r="5" stroke="orange" fill="white" stroke-width="1" />
<circle cx="185" cy="137.0" r="5" stroke="orange" fill="white" stroke-width="1" />
<polygon fill="none" stroke-width="1" stroke-dasharray="2" stroke="gray" points="19.19238815542512,187.3847763108502 19.19238815542512,316.3847763108502 489.19238815542514,316.3847763108502 489.19238815542514,187.3847763108502" />
<polygon fill="none" stroke-width="1" stroke-dasharray="2" stroke="gray" points="10.0,178.1923881554251 10.0,307.1923881554251 19.19238815542512,316.3847763108502 19.19238815542512,187.3847763108502" />
<polygon fill="none" stroke-width="1" stroke-dasharray="2" stroke="gray" points="19.19238815542512,187.3847763108502 489.19238815542514,187.3847763108502 480.0,178.1923881554251 10.0,178.1923881554251" />
<polygon fill="rgba(192,192,192,0.75)" stroke-width="1" stroke-dasharray="" stroke="black" points="10.0,307.1923881554251 480.0,307.1923881554251 489.19238815542514,316.3847763108502 19.19238815542512,316.3847763108502" />
<polygon fill="rgba(255,255,255,0.75)" stroke-width="1" stroke-dasharray="" stroke="black" points="489.19238815542514,187.3847763108502 489.19238815542514,316.3847763108502 480.0,307.1923881554251 480.0,178.1923881554251" />
<polygon fill="rgba(255,255,255,0.75)" stroke-width="1" stroke-dasharray="" stroke="black" points="10.0,178.1923881554251 480.0,178.1923881554251 480.0,307.1923881554251 10.0,307.1923881554251" />
<circle cx="150" cy="190.1923881554251" r="5" stroke="orange" fill="white" stroke-width="1" />
<circle cx="185" cy="209.1923881554251" r="5" stroke="orange" fill="white" stroke-width="1" />
<circle cx="150" cy="233.1923881554251" r="5" stroke="orange" fill="white" stroke-width="1" />
<circle cx="185" cy="252.1923881554251" r="5" stroke="orange" fill="white" stroke-width="1" />
<circle cx="150" cy="276.1923881554251" r="5" stroke="orange" fill="white" stroke-width="1" />
<circle cx="185" cy="295.1923881554251" r="5" stroke="orange" fill="white" stroke-width="1" />
<polygon fill="none" stroke-width="1" stroke-dasharray="3" stroke="green" points="215.4833395016047,30.364138624765303 283.97778600213957,149.0 10.0,149.0 78.49444650053489,30.36413862476533" />
<polygon fill="none" stroke-width="1" stroke-dasharray="3" stroke="green" points="484.5434455009388,19.999999999999986 416.0489990004039,138.6358613752347 279.06010599933416,138.6358613752347 210.56565949879922,20.000000000000014" />
<polygon fill="none" stroke-width="1" stroke-dasharray="3" stroke="green" points="283.97778600213957,178.19238815542508 215.4833395016047,296.82824953065983 78.49444650053495,296.82824953065983 10.0,178.19238815542514" />
<polygon fill="none" stroke-width="1" stroke-dasharray="3" stroke="green" points="416.0489990004039,188.5565267801904 484.5434455009388,307.1923881554251 210.56565949879922,307.1923881554251 279.0601059993341,188.55652678019044" />
</svg>
