<svg width="1100" viewBox="0.0 0.0 550.0 326.6" xmlns="http://www.w3.org/2000/svg">
<polygon fill="none" stroke-width="1" stroke-dasharray="2" stroke="gray" points="180.1,217.6 195.1,221.5 195.1,205.6 189.3,205.6 189.3,192.6 195.1,192.6 195.1,187.6 180.1,187.6 180.1,217.6" />
<polygon fill="none" stroke-width="1" stroke-dasharray="2" stroke="gray" points="180.1,230.6 180.1,245.6 195.1,249.5 195.1,226.7 180.1,230.6" />
<polygon fill="none" stroke-width="1" stroke-dasharray="2" stroke="gray" points="180.1,258.6 180.1,273.6 195.1,277.5 195.1,254.7 180.1,258.6" />
<polygon fill="none" stroke-width="1" stroke-dasharray="2" stroke="gray" points="180.1,286.6 180.1,316.6 195.1,316.6 195.1,311.6 189.3,311.6 189.3,298.6 195.1,298.6 195.1,282.7 180.1,286.6" />
<polygon fill="none" stroke-width="1" stroke-dasharray="2" stroke="gray" points="325.1,286.6 310.0,286.6 310.0,273.6 325.1,273.6 325.1,258.6 310.0,258.6 310.0,245.6 325.1,245.6 325.1,245.6 325.1,230.6 325.1,230.6 310.0,230.6 310.0,217.6 325.1,217.6 325.1,187.6 195.1,187.6 195.1,187.6 195.1,221.5 180.1,217.6 180.1,230.6 195.1,226.7 195.1,249.5 180.1,245.6 180.1,245.6 180.1,258.6 180.1,258.6 195.1,254.7 195.1,277.5 180.1,273.6 180.1,286.6 195.1,282.7 195.1,316.6 195.1,316.6 325.1,316.6 325.1,286.6" />
<polygon fill="none" stroke-width="1" stroke-dasharray="2" stroke="gray" points="310.0,217.6 310.0,230.6 325.1,230.6 325.1,217.6 310.0,217.6" />
<polygon fill="none" stroke-width="1" stroke-dasharray="2" stroke="gray" points="310.0,245.6 310.0,258.6 325.1,258.6 325.1,245.6 310.0,245.6" />
<polygon fill="none" stroke-width="1" stroke-dasharray="2" stroke="gray" points="310.0,273.6 310.0,286.6 325.1,286.6 325.1,273.6 310.0,273.6" />
<polygon fill="rgba(192,192,192,0.75)" stroke-width="1" stroke-dasharray="" stroke="silver" points="180.1,217.6 163.4,208.4 178.4,212.3 195.1,221.5" />
<polygon fill="none" stroke-width="1" stroke-dasharray="2" stroke="gray" points="195.1,226.7 178.4,217.5 163.4,221.4 180.1,230.6" />
<polygon fill="rgba(192,192,192,0.75)" stroke-width="1" stroke-dasharray="" stroke="silver" points="180.1,245.6 163.4,236.4 178.4,240.3 195.1,249.5" />
<polygon fill="none" stroke-width="1" stroke-dasharray="2" stroke="gray" points="195.1,254.7 178.4,245.5 163.4,249.4 180.1,258.6" />
<polygon fill="rgba(192,192,192,0.75)" stroke-width="1" stroke-dasharray="" stroke="silver" points="180.1,273.6 163.4,264.4 178.4,268.3 195.1,277.5" />
<polygon fill="none" stroke-width="1" stroke-dasharray="2" stroke="gray" points="195.1,282.7 178.4,273.5 163.4,277.4 180.1,286.6" />
<polygon fill="none" stroke-width="1" stroke-dasharray="2" stroke="gray" points="163.4,208.4 163.4,221.4 180.1,230.6 180.1,217.6 163.4,208.4" />
<polygon fill="none" stroke-width="1" stroke-dasharray="2" stroke="gray" points="163.4,236.4 163.4,249.4 180.1,258.6 180.1,245.6 163.4,236.4" />
<polygon fill="none" stroke-width="1" stroke-dasharray="2" stroke="gray" points="163.4,264.4 163.4,277.4 180.1,286.6 180.1,273.6 163.4,264.4" />
<polygon fill="none" stroke-width="1" stroke-dasharray="2" stroke="gray" points="180.1,217.6 195.1,221.5 178.4,212.3 163.4,208.4" />
<polygon fill="rgba(255,255,255,0.75)" stroke-width="1" stroke-dasharray="" stroke="black" points="163.4,221.4 178.4,217.5 195.1,226.7 180.1,230.6" />
<polygon fill="none" stroke-width="1" stroke-dasharray="2" stroke="gray" points="180.1,245.6 195.1,249.5 178.4,240.3 163.4,236.4" />
<polygon fill="rgba(255,255,255,0.75)" stroke-width="1" stroke-dasharray="" stroke="black" points="163.4,249.4 178.4,245.5 195.1,254.7 180.1,258.6" />
<polygon fill="none" stroke-width="1" stroke-dasharray="2" stroke="gray" points="180.1,273.6 195.1,277.5 178.4,268.3 163.4,264.4" />
<polygon fill="rgba(255,255,255,0.75)" stroke-width="1" stroke-dasharray="" stroke="black" points="163.4,277.4 178.4,273.5 195.1,282.7 180.1,286.6" />
<polygon fill="none" stroke-width="1" stroke-dasharray="2" stroke="gray" points="178.4,212.3 195.1,221.5 195.1,187.6 178.4,178.4 178.4,183.4 184.8,186.9 184.8,199.9 178.4,196.4 178.4,212.3" />
<polygon fill="none" stroke-width="1" stroke-dasharray="2" stroke="gray" points="178.4,217.5 178.4,240.3 195.1,249.5 195.1,226.7 178.4,217.5" />
<polygon fill="none" stroke-width="1" stroke-dasharray="2" stroke="gray" points="178.4,245.5 178.4,268.3 195.1,277.5 195.1,254.7 178.4,245.5" />
<polygon fill="none" stroke-width="1" stroke-dasharray="2" stroke="gray" points="178.4,273.5 178.4,289.4 184.8,292.9 184.8,305.9 178.4,302.4 178.4,307.4 195.1,316.6 195.1,282.7 178.4,273.5" />
<polygon fill="none" stroke-width="1" stroke-dasharray="2" stroke="gray" points="195.1,187.6 325.1,187.6 323.4,178.4 178.4,178.4 195.1,187.6" />
<polygon fill="rgba(192,192,192,0.75)" stroke-width="1" stroke-dasharray="" stroke="black" points="195.1,316.6 178.4,307.4 323.4,307.4 325.1,316.6 195.1,316.6" />
<polygon fill="rgba(255,255,255,0.75)" stroke-width="1" stroke-dasharray="" stroke="silver" points="310.0,217.6 310.0,230.6 308.4,217.5 308.4,212.3 310.0,217.6" />
<polygon fill="rgba(255,255,255,0.75)" stroke-width="1" stroke-dasharray="" stroke="silver" points="310.0,245.6 310.0,258.6 308.4,245.5 308.4,240.3 310.0,245.6" />
<polygon fill="rgba(255,255,255,0.75)" stroke-width="1" stroke-dasharray="" stroke="silver" points="310.0,273.6 310.0,286.6 308.4,273.5 308.4,268.3 310.0,273.6" />
<polygon fill="none" stroke-width="1" stroke-dasharray="2" stroke="gray" points="325.1,217.6 323.4,212.3 308.4,212.3 310.0,217.6" />
<polygon fill="rgba(255,255,255,0.75)" stroke-width="1" stroke-dasharray="" stroke="black" points="310.0,230.6 308.4,217.5 323.4,217.5 325.1,230.6" />
<polygon fill="none" stroke-width="1" stroke-dasharray="2" stroke="gray" points="325.1,245.6 323.4,240.3 308.4,240.3 310.0,245.6" />
<polygon fill="rgba(255,255,255,0.75)" stroke-width="1" stroke-dasharray="" stroke="black" points="310.0,258.6 308.4,245.5 323.4,245.5 325.1,258.6" />
<polygon fill="none" stroke-width="1" stroke-dasharray="2" stroke="gray" points="325.1,273.6 323.4,268.3 308.4,268.3 310.0,273.6" />
<polygon fill="rgba(255,255,255,0.75)" stroke-width="1" stroke-dasharray="" stroke="black" points="310.0,286.6 308.4,273.5 323.4,273.5 325.1,286.6" />
<polygon fill="rgba(192,192,192,0.75)" stroke-width="1" stroke-dasharray="" stroke="silver" points="325.1,217.6 310.0,217.6 308.4,212.3 323.4,212.3" />
<polygon fill="none" stroke-width="1" stroke-dasharray="2" stroke="gray" points="323.4,217.5 308.4,217.5 310.0,230.6 325.1,230.6" />
<polygon fill="rgba(192,192,192,0.75)" stroke-width="1" stroke-dasharray="" stroke="silver" points="325.1,245.6 310.0,245.6 308.4,240.3 323.4,240.3" />
<polygon fill="none" stroke-width="1" stroke-dasharray="2" stroke="gray" points="323.4,245.5 308.4,245.5 310.0,258.6 325.1,258.6" />
<polygon fill="rgba(192,192,192,0.75)" stroke-width="1" stroke-dasharray="" stroke="silver" points="325.1,273.6 310.0,273.6 308.4,268.3 323.4,268.3" />
<polygon fill="none" stroke-width="1" stroke-dasharray="2" stroke="gray" points="323.4,273.5 308.4,273.5 310.0,286.6 325.1,286.6" />
<polygon fill="rgba(255,255,255,0.75)" stroke-width="1" stroke-dasharray="" stroke="silver" points="325.1,217.6 323.4,212.3 323.4,196.4 324.0,199.9 324.0,186.9 323.4,183.4 323.4,178.4 325.1,187.6 325.1,217.6" />
<polygon fill="rgba(255,255,255,0.75)" stroke-width="1" stroke-dasharray="" stroke="silver" points="325.1,230.6 325.1,245.6 323.4,240.3 323.4,217.5 325.1,230.6" />
<polygon fill="rgba(255,255,255,0.75)" stroke-width="1" stroke-dasharray="" stroke="silver" points="325.1,258.6 325.1,273.6 323.4,268.3 323.4,245.5 325.1,258.6" />
<polygon fill="rgba(255,255,255,0.75)" stroke-width="1" stroke-dasharray="" stroke="silver" points="325.1,286.6 325.1,316.6 323.4,307.4 323.4,302.4 324.0,305.9 324.0,292.9 323.4,289.4 323.4,273.5 325.1,286.6" />
<polygon fill="rgba(192,192,192,0.75)" stroke-width="1" stroke-dasharray="" stroke="black" points="184.8,186.9 178.4,183.4 323.4,183.4 324.0,186.9 184.8,186.9" />
<polygon fill="none" stroke-width="1" stroke-dasharray="2" stroke="gray" points="184.8,199.9 324.0,199.9 323.4,196.4 178.4,196.4 184.8,199.9" />
<polygon fill="rgba(192,192,192,0.75)" stroke-width="1" stroke-dasharray="" stroke="black" points="184.8,292.9 178.4,289.4 323.4,289.4 324.0,292.9 184.8,292.9" />
<polygon fill="none" stroke-width="1" stroke-dasharray="2" stroke="gray" points="184.8,305.9 324.0,305.9 323.4,302.4 178.4,302.4 184.8,305.9" />
<polygon fill="none" stroke-width="1" stroke-dasharray="2" stroke="gray" points="163.4,208.4 163.4,221.4 178.4,217.5 178.4,212.3 163.4,208.4" />
<polygon fill="none" stroke-width="1" stroke-dasharray="2" stroke="gray" points="163.4,236.4 163.4,249.4 178.4,245.5 178.4,240.3 163.4,236.4" />
<polygon fill="none" stroke-width="1" stroke-dasharray="2" stroke="gray" points="163.4,264.4 163.4,277.4 178.4,273.5 178.4,268.3 163.4,264.4" />
<polygon fill="none" stroke-width="1" stroke-dasharray="2" stroke="gray" points="308.4,217.5 308.4,240.3 323.4,240.3 323.4,217.5 308.4,217.5" />
<polygon fill="none" stroke-width="1" stroke-dasharray="2" stroke="gray" points="308.4,245.5 308.4,268.3 323.4,268.3 323.4,245.5 308.4,245.5" />
<polygon fill="none" stroke-width="1" stroke-dasharray="2" stroke="gray" points="308.4,212.3 323.4,212.3 323.4,178.4 308.4,178.4 308.4,183.4 314.1,183.4 314.1,196.4 308.4,196.4 308.4,212.3" />
<polygon fill="none" stroke-width="1" stroke-dasharray="2" stroke="gray" points="308.4,273.5 308.4,289.4 314.1,289.4 314.1,302.4 308.4,302.4 308.4,307.4 323.4,307.4 323.4,273.5 308.4,273.5" />
<polygon fill="rgba(255,255,255,0.75)" stroke-width="1" stroke-dasharray="" stroke="black" points="323.4,268.3 308.3,268.3 308.3,273.5 323.4,273.5 323.4,289.4 178.4,289.4 178.4,273.5 163.4,277.4 163.4,277.4 163.4,264.4 163.4,264.4 178.4,268.3 178.4,245.5 163.4,249.4 163.4,236.4 178.4,240.3 178.4,217.5 163.4,221.4 163.4,221.4 163.4,208.4 163.4,208.4 178.4,212.3 178.4,196.4 323.4,196.4 323.4,212.3 323.4,212.3 308.3,212.3 308.3,217.5 323.4,217.5 323.4,240.3 308.3,240.3 308.3,245.5 323.4,245.5 323.4,245.5 323.4,268.3" />
<polygon fill="none" stroke-width="1" stroke-dasharray="2" stroke="gray" points="35.5,108.0 180.1,187.6 195.1,187.6 33.8,98.8 35.5,108.0" />
<polygon fill="rgba(192,192,192,0.75)" stroke-width="1" stroke-dasharray="" stroke="black" points="35.5,237.0 33.8,227.8 195.1,316.6 180.1,316.6 35.5,237.0" />
<polygon fill="rgba(192,192,192,0.75)" stroke-width="1" stroke-dasharray="" stroke="black" points="34.5,107.3 33.8,103.8 195.1,192.6 189.3,192.6 34.5,107.3" />
<polygon fill="none" stroke-width="1" stroke-dasharray="2" stroke="gray" points="34.5,120.3 189.3,205.6 195.1,205.6 33.8,116.8 34.5,120.3" />
<polygon fill="rgba(192,192,192,0.75)" stroke-width="1" stroke-dasharray="" stroke="black" points="34.5,213.3 33.8,209.8 195.1,298.6 189.3,298.6 34.5,213.3" />
<polygon fill="none" stroke-width="1" stroke-dasharray="2" stroke="gray" points="34.5,226.3 189.3,311.6 195.1,311.6 33.8,222.8 34.5,226.3" />
<polygon fill="none" stroke-width="1" stroke-dasharray="2" stroke="gray" points="180.1,286.6 163.4,277.4 163.4,264.4 180.1,273.6 180.1,258.6 163.4,249.4 163.4,236.4 180.1,245.6 180.1,245.6 180.1,230.6 180.1,230.6 163.4,221.4 163.4,208.4 180.1,217.6 180.1,187.6 35.5,108.0 35.5,108.0 35.5,141.9 18.8,128.8 18.8,141.8 35.5,147.1 35.5,169.9 18.8,156.8 18.8,156.8 18.8,169.8 18.8,169.8 35.5,175.1 35.5,197.9 18.8,184.8 18.8,197.8 35.5,203.1 35.5,237.0 35.5,237.0 180.1,316.6 180.1,286.6" />
<polygon fill="rgba(255,255,255,0.75)" stroke-width="1" stroke-dasharray="" stroke="silver" points="308.8,197.8 310.5,207.0 310.5,194.0 308.8,184.8 308.8,169.8 310.5,179.0 310.5,166.0 308.8,156.8 308.8,156.8 308.8,141.8 308.8,141.8 310.5,151.0 310.5,138.0 308.8,128.8 308.8,98.8 323.4,178.4 323.4,178.4 323.4,212.3 325.1,217.6 325.1,230.6 323.4,217.5 323.4,240.3 325.1,245.6 325.1,245.6 325.1,258.6 325.1,258.6 323.4,245.5 323.4,268.3 325.1,273.6 325.1,286.6 323.4,273.5 323.4,307.4 323.4,307.4 308.8,227.8 308.8,197.8" />
<polygon fill="rgba(255,255,255,0.75)" stroke-width="1" stroke-dasharray="" stroke="black" points="195.1,277.4 178.4,268.3 178.4,273.5 195.1,282.7 195.1,298.6 33.8,209.8 33.8,193.9 17.1,188.6 17.1,188.6 17.1,175.6 17.1,175.6 33.8,188.7 33.8,165.9 17.1,160.6 17.1,147.6 33.8,160.7 33.8,137.9 17.1,132.6 17.1,132.6 17.1,119.6 17.1,119.6 33.8,132.7 33.8,116.8 195.1,205.6 195.1,221.4 195.1,221.4 178.4,212.3 178.4,217.5 195.1,226.7 195.1,249.4 178.4,240.3 178.4,245.5 195.1,254.7 195.1,254.7 195.1,277.4" />
<polygon fill="none" stroke-width="1" stroke-dasharray="2" stroke="gray" points="292.1,179.5 293.8,188.7 293.8,193.9 292.1,184.7 292.1,200.6 308.4,289.4 308.4,273.5 310.0,286.6 310.0,286.6 310.0,273.6 310.0,273.6 308.4,268.3 308.4,245.5 310.0,258.6 310.0,245.6 308.4,240.3 308.4,217.5 310.0,230.6 310.0,230.6 310.0,217.6 310.0,217.6 308.4,212.3 308.4,196.4 292.1,107.6 292.1,123.5 292.1,123.5 293.8,132.7 293.8,137.9 292.1,128.7 292.1,151.5 293.8,160.7 293.8,165.9 292.1,156.7 292.1,156.7 292.1,179.5" />
<polygon fill="rgba(192,192,192,0.75)" stroke-width="1" stroke-dasharray="" stroke="black" points="314.1,183.4 308.4,183.4 292.1,94.6 298.5,98.1 314.1,183.4" />
<polygon fill="none" stroke-width="1" stroke-dasharray="2" stroke="gray" points="314.1,196.4 298.5,111.1 292.1,107.6 308.4,196.4 314.1,196.4" />
<polygon fill="rgba(192,192,192,0.75)" stroke-width="1" stroke-dasharray="" stroke="black" points="314.1,289.4 308.4,289.4 292.1,200.6 298.5,204.1 314.1,289.4" />
<polygon fill="none" stroke-width="1" stroke-dasharray="2" stroke="gray" points="314.1,302.4 298.5,217.1 292.1,213.6 308.4,302.4 314.1,302.4" />
<polygon fill="none" stroke-width="1" stroke-dasharray="2" stroke="gray" points="323.4,178.4 308.8,98.8 292.1,89.6 308.4,178.4 323.4,178.4" />
<polygon fill="rgba(192,192,192,0.75)" stroke-width="1" stroke-dasharray="" stroke="black" points="323.4,307.4 308.4,307.4 292.1,218.6 308.8,227.8 323.4,307.4" />
<polygon fill="none" stroke-width="1" stroke-dasharray="2" stroke="gray" points="18.8,128.8 35.5,141.9 35.5,126.0 29.1,122.4 29.1,109.4 35.5,113.0 35.5,108.0 18.8,98.8 18.8,128.8" />
<polygon fill="none" stroke-width="1" stroke-dasharray="2" stroke="gray" points="18.8,141.8 18.8,156.8 35.5,169.9 35.5,147.1 18.8,141.8" />
<polygon fill="none" stroke-width="1" stroke-dasharray="2" stroke="gray" points="18.8,169.8 18.8,184.8 35.5,197.9 35.5,175.1 18.8,169.8" />
<polygon fill="none" stroke-width="1" stroke-dasharray="2" stroke="gray" points="18.8,197.8 18.8,227.8 35.5,237.0 35.5,232.0 29.1,228.4 29.1,215.4 35.5,219.0 35.5,203.1 18.8,197.8" />
<polygon fill="none" stroke-width="1" stroke-dasharray="2" stroke="gray" points="33.8,132.7 35.5,141.9 35.5,108.0 33.8,98.8 33.8,103.8 34.4,107.3 34.4,120.3 33.8,116.8 33.8,132.7" />
<polygon fill="none" stroke-width="1" stroke-dasharray="2" stroke="gray" points="33.8,137.9 33.8,160.7 35.5,169.9 35.5,147.1 33.8,137.9" />
<polygon fill="none" stroke-width="1" stroke-dasharray="2" stroke="gray" points="33.8,165.9 33.8,188.7 35.5,197.9 35.5,175.1 33.8,165.9" />
<polygon fill="none" stroke-width="1" stroke-dasharray="2" stroke="gray" points="33.8,193.9 33.8,209.8 34.4,213.3 34.4,226.3 33.8,222.8 33.8,227.8 35.5,237.0 35.5,203.1 33.8,193.9" />
<polygon fill="rgba(255,255,255,0.75)" stroke-width="1" stroke-dasharray="" stroke="silver" points="310.5,138.0 310.5,151.0 308.8,141.8 308.8,128.8 310.5,138.0" />
<polygon fill="rgba(255,255,255,0.75)" stroke-width="1" stroke-dasharray="" stroke="silver" points="310.5,166.0 310.5,179.0 308.8,169.8 308.8,156.8 310.5,166.0" />
<polygon fill="rgba(255,255,255,0.75)" stroke-width="1" stroke-dasharray="" stroke="silver" points="310.5,194.0 310.5,207.0 308.8,197.8 308.8,184.8 310.5,194.0" />
<polygon fill="rgba(255,255,255,0.75)" stroke-width="1" stroke-dasharray="" stroke="black" points="310.5,138.0 310.5,151.0 293.8,137.9 293.8,132.7 310.5,138.0" />
<polygon fill="rgba(255,255,255,0.75)" stroke-width="1" stroke-dasharray="" stroke="black" points="310.5,166.0 310.5,179.0 293.8,165.9 293.8,160.7 310.5,166.0" />
<polygon fill="rgba(255,255,255,0.75)" stroke-width="1" stroke-dasharray="" stroke="black" points="310.5,194.0 310.5,207.0 293.8,193.9 293.8,188.7 310.5,194.0" />
<polygon fill="rgba(192,192,192,0.75)" stroke-width="1" stroke-dasharray="" stroke="silver" points="18.8,128.8 17.1,119.6 33.8,132.7 35.5,141.9" />
<polygon fill="none" stroke-width="1" stroke-dasharray="2" stroke="gray" points="35.5,147.1 33.8,137.9 17.1,132.6 18.8,141.8" />
<polygon fill="rgba(192,192,192,0.75)" stroke-width="1" stroke-dasharray="" stroke="silver" points="18.8,156.8 17.1,147.6 33.8,160.7 35.5,169.9" />
<polygon fill="none" stroke-width="1" stroke-dasharray="2" stroke="gray" points="35.5,175.1 33.8,165.9 17.1,160.6 18.8,169.8" />
<polygon fill="rgba(192,192,192,0.75)" stroke-width="1" stroke-dasharray="" stroke="silver" points="18.8,184.8 17.1,175.6 33.8,188.7 35.5,197.9" />
<polygon fill="none" stroke-width="1" stroke-dasharray="2" stroke="gray" points="35.5,203.1 33.8,193.9 17.1,188.6 18.8,197.8" />
<polygon fill="none" stroke-width="1" stroke-dasharray="2" stroke="gray" points="18.8,128.8 35.5,141.9 33.8,132.7 17.1,119.6" />
<polygon fill="rgba(255,255,255,0.75)" stroke-width="1" stroke-dasharray="" stroke="black" points="17.1,132.6 33.8,137.9 35.5,147.1 18.8,141.8" />
<polygon fill="none" stroke-width="1" stroke-dasharray="2" stroke="gray" points="18.8,156.8 35.5,169.9 33.8,160.7 17.1,147.6" />
<polygon fill="rgba(255,255,255,0.75)" stroke-width="1" stroke-dasharray="" stroke="black" points="17.1,160.6 33.8,165.9 35.5,175.1 18.8,169.8" />
<polygon fill="none" stroke-width="1" stroke-dasharray="2" stroke="gray" points="18.8,184.8 35.5,197.9 33.8,188.7 17.1,175.6" />
<polygon fill="rgba(255,255,255,0.75)" stroke-width="1" stroke-dasharray="" stroke="black" points="17.1,188.6 33.8,193.9 35.5,203.1 18.8,197.8" />
<polygon fill="none" stroke-width="1" stroke-dasharray="2" stroke="gray" points="308.8,128.8 292.1,123.5 293.8,132.7 310.5,138.0" />
<polygon fill="rgba(192,192,192,0.75)" stroke-width="1" stroke-dasharray="" stroke="silver" points="310.5,151.0 293.8,137.9 292.1,128.7 308.8,141.8" />
<polygon fill="none" stroke-width="1" stroke-dasharray="2" stroke="gray" points="308.8,156.8 292.1,151.5 293.8,160.7 310.5,166.0" />
<polygon fill="rgba(192,192,192,0.75)" stroke-width="1" stroke-dasharray="" stroke="silver" points="310.5,179.0 293.8,165.9 292.1,156.7 308.8,169.8" />
<polygon fill="none" stroke-width="1" stroke-dasharray="2" stroke="gray" points="308.8,184.8 292.1,179.5 293.8,188.7 310.5,194.0" />
<polygon fill="rgba(192,192,192,0.75)" stroke-width="1" stroke-dasharray="" stroke="silver" points="310.5,207.0 293.8,193.9 292.1,184.7 308.8,197.8" />
<polygon fill="rgba(255,255,255,0.75)" stroke-width="1" stroke-dasharray="" stroke="black" points="308.8,128.8 310.5,138.0 293.8,132.7 292.1,123.5" />
<polygon fill="none" stroke-width="1" stroke-dasharray="2" stroke="gray" points="292.1,128.7 293.8,137.9 310.5,151.0 308.8,141.8" />
<polygon fill="rgba(255,255,255,0.75)" stroke-width="1" stroke-dasharray="" stroke="black" points="308.8,156.8 310.5,166.0 293.8,160.7 292.1,151.5" />
<polygon fill="none" stroke-width="1" stroke-dasharray="2" stroke="gray" points="292.1,156.7 293.8,165.9 310.5,179.0 308.8,169.8" />
<polygon fill="rgba(255,255,255,0.75)" stroke-width="1" stroke-dasharray="" stroke="black" points="308.8,184.8 310.5,194.0 293.8,188.7 292.1,179.5" />
<polygon fill="none" stroke-width="1" stroke-dasharray="2" stroke="gray" points="292.1,184.7 293.8,193.9 310.5,207.0 308.8,197.8" />
<polygon fill="none" stroke-width="1" stroke-dasharray="2" stroke="gray" points="17.1,119.6 17.1,132.6 33.8,137.9 33.8,132.7 17.1,119.6" />
<polygon fill="none" stroke-width="1" stroke-dasharray="2" stroke="gray" points="17.1,147.6 17.1,160.6 33.8,165.9 33.8,160.7 17.1,147.6" />
<polygon fill="none" stroke-width="1" stroke-dasharray="2" stroke="gray" points="17.1,175.6 17.1,188.6 33.8,193.9 33.8,188.7 17.1,175.6" />
<polygon fill="none" stroke-width="1" stroke-dasharray="2" stroke="gray" points="17.1,119.6 17.1,132.6 18.8,141.8 18.8,128.8 17.1,119.6" />
<polygon fill="none" stroke-width="1" stroke-dasharray="2" stroke="gray" points="17.1,147.6 17.1,160.6 18.8,169.8 18.8,156.8 17.1,147.6" />
<polygon fill="none" stroke-width="1" stroke-dasharray="2" stroke="gray" points="17.1,175.6 17.1,188.6 18.8,197.8 18.8,184.8 17.1,175.6" />
<polygon fill="rgba(255,255,255,0.75)" stroke-width="1" stroke-dasharray="" stroke="silver" points="293.8,132.7 292.1,123.5 292.1,89.6 293.8,98.8 293.8,103.8 293.1,100.3 293.1,113.3 293.8,116.8 293.8,132.7" />
<polygon fill="rgba(255,255,255,0.75)" stroke-width="1" stroke-dasharray="" stroke="silver" points="293.8,137.9 293.8,160.7 292.1,151.5 292.1,128.7 293.8,137.9" />
<polygon fill="rgba(255,255,255,0.75)" stroke-width="1" stroke-dasharray="" stroke="silver" points="293.8,165.9 293.8,188.7 292.1,179.5 292.1,156.7 293.8,165.9" />
<polygon fill="rgba(255,255,255,0.75)" stroke-width="1" stroke-dasharray="" stroke="silver" points="293.8,193.9 293.8,209.8 293.1,206.3 293.1,219.3 293.8,222.8 293.8,227.8 292.1,218.6 292.1,184.7 293.8,193.9" />
<polygon fill="rgba(255,255,255,0.75)" stroke-width="1" stroke-dasharray="" stroke="black" points="308.8,128.8 292.1,123.5 292.1,107.6 298.5,111.1 298.5,98.1 292.1,94.6 292.1,89.6 308.8,98.8 308.8,128.8" />
<polygon fill="rgba(255,255,255,0.75)" stroke-width="1" stroke-dasharray="" stroke="black" points="308.8,141.8 308.8,156.8 292.1,151.5 292.1,128.7 308.8,141.8" />
<polygon fill="rgba(255,255,255,0.75)" stroke-width="1" stroke-dasharray="" stroke="black" points="308.8,169.8 308.8,184.8 292.1,179.5 292.1,156.7 308.8,169.8" />
<polygon fill="rgba(255,255,255,0.75)" stroke-width="1" stroke-dasharray="" stroke="black" points="308.8,197.8 308.8,227.8 292.1,218.6 292.1,213.6 298.5,217.1 298.5,204.1 292.1,200.6 292.1,184.7 308.8,197.8" />
<polygon fill="rgba(192,192,192,0.75)" stroke-width="1" stroke-dasharray="" stroke="black" points="13.4,24.2 19.2,24.2 35.5,113.0 29.1,109.4 13.4,24.2" />
<polygon fill="none" stroke-width="1" stroke-dasharray="2" stroke="gray" points="13.4,37.2 29.1,122.4 35.5,126.0 19.2,37.2 13.4,37.2" />
<polygon fill="rgba(192,192,192,0.75)" stroke-width="1" stroke-dasharray="" stroke="black" points="13.4,130.2 19.2,130.2 35.5,219.0 29.1,215.4 13.4,130.2" />
<polygon fill="none" stroke-width="1" stroke-dasharray="2" stroke="gray" points="13.4,143.2 29.1,228.4 35.5,232.0 19.2,143.2 13.4,143.2" />
<polygon fill="none" stroke-width="1" stroke-dasharray="2" stroke="gray" points="4.2,19.2 18.8,98.8 35.5,108.0 19.2,19.2 4.2,19.2" />
<polygon fill="rgba(192,192,192,0.75)" stroke-width="1" stroke-dasharray="" stroke="black" points="4.2,148.2 19.2,148.2 35.5,237.0 18.8,227.8 4.2,148.2" />
<polygon fill="rgba(255,255,255,0.75)" stroke-width="1" stroke-dasharray="" stroke="silver" points="35.5,197.9 33.8,188.7 33.8,193.9 35.5,203.1 35.5,219.0 19.2,130.2 19.2,114.3 17.5,109.0 17.5,109.0 17.5,96.0 17.5,96.0 19.2,109.1 19.2,86.3 17.5,81.0 17.5,68.0 19.2,81.1 19.2,58.3 17.5,53.0 17.5,53.0 17.5,40.0 17.5,40.0 19.2,53.1 19.2,37.2 35.5,126.0 35.5,141.9 35.5,141.9 33.8,132.7 33.8,137.9 35.5,147.1 35.5,169.9 33.8,160.7 33.8,165.9 35.5,175.1 35.5,175.1 35.5,197.9" />
<polygon fill="none" stroke-width="1" stroke-dasharray="2" stroke="gray" points="132.5,99.9 149.2,109.1 149.2,114.3 132.5,105.1 132.5,121.0 293.7,209.8 293.7,193.9 310.5,207.0 310.5,207.0 310.5,194.0 310.5,194.0 293.7,188.7 293.7,165.9 310.5,179.0 310.5,166.0 293.7,160.7 293.7,137.9 310.5,151.0 310.5,151.0 310.5,138.0 310.5,138.0 293.7,132.7 293.7,116.8 132.5,28.0 132.5,43.9 132.5,43.9 149.2,53.1 149.2,58.3 132.5,49.1 132.5,71.9 149.2,81.1 149.2,86.3 132.5,77.1 132.5,77.1 132.5,99.9" />
<polygon fill="none" stroke-width="1" stroke-dasharray="2" stroke="gray" points="18.8,197.8 17.1,188.6 17.1,175.6 18.8,184.8 18.8,169.8 17.1,160.6 17.1,147.6 18.8,156.8 18.8,156.8 18.8,141.8 18.8,141.8 17.1,132.6 17.1,119.6 18.8,128.8 18.8,98.8 4.2,19.2 4.2,19.2 4.2,53.1 2.5,40.0 2.5,53.0 4.2,58.3 4.2,81.1 2.5,68.0 2.5,68.0 2.5,81.0 2.5,81.0 4.2,86.3 4.2,109.1 2.5,96.0 2.5,109.0 4.2,114.3 4.2,148.2 4.2,148.2 18.8,227.8 18.8,197.8" />
<polygon fill="rgba(255,255,255,0.75)" stroke-width="1" stroke-dasharray="" stroke="black" points="147.5,109.0 164.2,118.2 164.2,105.2 147.5,96.0 147.5,81.0 164.2,90.2 164.2,77.2 147.5,68.0 147.5,68.0 147.5,53.0 147.5,53.0 164.2,62.2 164.2,49.2 147.5,40.0 147.5,10.0 292.1,89.6 292.1,89.6 292.1,123.5 308.8,128.8 308.8,141.8 292.1,128.7 292.1,151.5 308.8,156.8 308.8,156.8 308.8,169.8 308.8,169.8 292.1,156.7 292.1,179.5 308.8,184.8 308.8,197.8 292.1,184.7 292.1,218.6 292.1,218.6 147.5,139.0 147.5,109.0" />
<polygon fill="rgba(192,192,192,0.75)" stroke-width="1" stroke-dasharray="" stroke="black" points="293.1,100.2 293.7,103.8 132.5,15.0 138.2,15.0 293.1,100.2" />
<polygon fill="none" stroke-width="1" stroke-dasharray="2" stroke="gray" points="293.1,113.2 138.2,28.0 132.5,28.0 293.7,116.8 293.1,113.2" />
<polygon fill="rgba(192,192,192,0.75)" stroke-width="1" stroke-dasharray="" stroke="black" points="293.1,206.2 293.7,209.8 132.5,121.0 138.2,121.0 293.1,206.2" />
<polygon fill="none" stroke-width="1" stroke-dasharray="2" stroke="gray" points="293.1,219.2 138.2,134.0 132.5,134.0 293.7,222.8 293.1,219.2" />
<polygon fill="none" stroke-width="1" stroke-dasharray="2" stroke="gray" points="292.1,89.6 147.5,10.0 132.5,10.0 293.7,98.8 292.1,89.6" />
<polygon fill="rgba(192,192,192,0.75)" stroke-width="1" stroke-dasharray="" stroke="black" points="292.1,218.6 293.7,227.8 132.5,139.0 147.5,139.0 292.1,218.6" />
<polygon fill="rgba(255,255,255,0.75)" stroke-width="1" stroke-dasharray="" stroke="black" points="19.2,53.1 4.2,53.1 4.2,19.2 19.2,19.2 19.2,24.2 13.4,24.2 13.4,37.2 19.2,37.2 19.2,53.1" />
<polygon fill="rgba(255,255,255,0.75)" stroke-width="1" stroke-dasharray="" stroke="black" points="19.2,114.3 19.2,130.2 13.4,130.2 13.4,143.2 19.2,143.2 19.2,148.2 4.2,148.2 4.2,114.3 19.2,114.3" />
<polygon fill="rgba(255,255,255,0.75)" stroke-width="1" stroke-dasharray="" stroke="black" points="19.2,58.3 19.2,81.1 4.2,81.1 4.2,58.3 19.2,58.3" />
<polygon fill="rgba(255,255,255,0.75)" stroke-width="1" stroke-dasharray="" stroke="black" points="19.2,86.3 19.2,109.1 4.2,109.1 4.2,86.3 19.2,86.3" />
<polygon fill="none" stroke-width="1" stroke-dasharray="2" stroke="gray" points="4.2,109.1 19.2,109.1 19.2,114.3 4.2,114.3 4.2,130.2 149.2,130.2 149.2,114.3 164.2,118.2 164.2,118.2 164.2,105.2 164.2,105.2 149.2,109.1 149.2,86.3 164.2,90.2 164.2,77.2 149.2,81.1 149.2,58.3 164.2,62.2 164.2,62.2 164.2,49.2 164.2,49.2 149.2,53.1 149.2,37.2 4.2,37.2 4.2,53.1 4.2,53.1 19.2,53.1 19.2,58.3 4.2,58.3 4.2,81.1 19.2,81.1 19.2,86.3 4.2,86.3 4.2,86.3 4.2,109.1" />
<polygon fill="rgba(255,255,255,0.75)" stroke-width="1" stroke-dasharray="" stroke="black" points="164.2,49.2 164.2,62.2 149.2,58.3 149.2,53.1 164.2,49.2" />
<polygon fill="rgba(255,255,255,0.75)" stroke-width="1" stroke-dasharray="" stroke="black" points="164.2,77.2 164.2,90.2 149.2,86.3 149.2,81.1 164.2,77.2" />
<polygon fill="rgba(255,255,255,0.75)" stroke-width="1" stroke-dasharray="" stroke="black" points="164.2,105.2 164.2,118.2 149.2,114.3 149.2,109.1 164.2,105.2" />
<polygon fill="rgba(192,192,192,0.75)" stroke-width="1" stroke-dasharray="" stroke="black" points="142.7,20.7 149.2,24.2 4.2,24.2 3.5,20.7 142.7,20.7" />
<polygon fill="none" stroke-width="1" stroke-dasharray="2" stroke="gray" points="142.7,33.7 3.5,33.7 4.2,37.2 149.2,37.2 142.7,33.7" />
<polygon fill="rgba(192,192,192,0.75)" stroke-width="1" stroke-dasharray="" stroke="black" points="142.7,126.7 149.2,130.2 4.2,130.2 3.5,126.7 142.7,126.7" />
<polygon fill="none" stroke-width="1" stroke-dasharray="2" stroke="gray" points="142.7,139.7 3.5,139.7 4.2,143.2 149.2,143.2 142.7,139.7" />
<polygon fill="none" stroke-width="1" stroke-dasharray="2" stroke="gray" points="2.5,40.0 4.2,53.1 19.2,53.1 17.5,40.0" />
<polygon fill="rgba(192,192,192,0.75)" stroke-width="1" stroke-dasharray="" stroke="silver" points="17.5,53.0 19.2,58.3 4.2,58.3 2.5,53.0" />
<polygon fill="none" stroke-width="1" stroke-dasharray="2" stroke="gray" points="2.5,68.0 4.2,81.1 19.2,81.1 17.5,68.0" />
<polygon fill="rgba(192,192,192,0.75)" stroke-width="1" stroke-dasharray="" stroke="silver" points="17.5,81.0 19.2,86.3 4.2,86.3 2.5,81.0" />
<polygon fill="none" stroke-width="1" stroke-dasharray="2" stroke="gray" points="2.5,96.0 4.2,109.1 19.2,109.1 17.5,96.0" />
<polygon fill="rgba(192,192,192,0.75)" stroke-width="1" stroke-dasharray="" stroke="silver" points="17.5,109.0 19.2,114.3 4.2,114.3 2.5,109.0" />
<polygon fill="none" stroke-width="1" stroke-dasharray="2" stroke="gray" points="2.5,40.0 4.2,53.1 4.2,37.2 3.5,33.7 3.5,20.7 4.2,24.2 4.2,19.2 2.5,10.0 2.5,40.0" />
<polygon fill="none" stroke-width="1" stroke-dasharray="2" stroke="gray" points="2.5,53.0 2.5,68.0 4.2,81.1 4.2,58.3 2.5,53.0" />
<polygon fill="none" stroke-width="1" stroke-dasharray="2" stroke="gray" points="2.5,81.0 2.5,96.0 4.2,109.1 4.2,86.3 2.5,81.0" />
<polygon fill="none" stroke-width="1" stroke-dasharray="2" stroke="gray" points="2.5,109.0 2.5,139.0 4.2,148.2 4.2,143.2 3.5,139.7 3.5,126.7 4.2,130.2 4.2,114.3 2.5,109.0" />
<polygon fill="rgba(255,255,255,0.75)" stroke-width="1" stroke-dasharray="" stroke="black" points="2.5,40.0 17.5,40.0 19.2,53.1 4.2,53.1" />
<polygon fill="none" stroke-width="1" stroke-dasharray="2" stroke="gray" points="4.2,58.3 19.2,58.3 17.5,53.0 2.5,53.0" />
<polygon fill="rgba(255,255,255,0.75)" stroke-width="1" stroke-dasharray="" stroke="black" points="2.5,68.0 17.5,68.0 19.2,81.1 4.2,81.1" />
<polygon fill="none" stroke-width="1" stroke-dasharray="2" stroke="gray" points="4.2,86.3 19.2,86.3 17.5,81.0 2.5,81.0" />
<polygon fill="rgba(255,255,255,0.75)" stroke-width="1" stroke-dasharray="" stroke="black" points="2.5,96.0 17.5,96.0 19.2,109.1 4.2,109.1" />
<polygon fill="none" stroke-width="1" stroke-dasharray="2" stroke="gray" points="4.2,114.3 19.2,114.3 17.5,109.0 2.5,109.0" />
<polygon fill="none" stroke-width="1" stroke-dasharray="2" stroke="gray" points="17.5,40.0 17.5,53.0 19.2,58.3 19.2,53.1 17.5,40.0" />
<polygon fill="none" stroke-width="1" stroke-dasharray="2" stroke="gray" points="17.5,68.0 17.5,81.0 19.2,86.3 19.2,81.1 17.5,68.0" />
<polygon fill="none" stroke-width="1" stroke-dasharray="2" stroke="gray" points="17.5,96.0 17.5,109.0 19.2,114.3 19.2,109.1 17.5,96.0" />
<polygon fill="none" stroke-width="1" stroke-dasharray="2" stroke="gray" points="132.5,10.0 2.5,10.0 4.2,19.2 149.2,19.2 132.5,10.0" />
<polygon fill="rgba(192,192,192,0.75)" stroke-width="1" stroke-dasharray="" stroke="black" points="132.5,139.0 149.2,148.2 4.2,148.2 2.5,139.0 132.5,139.0" />
<polygon fill="rgba(255,255,255,0.75)" stroke-width="1" stroke-dasharray="" stroke="black" points="149.2,53.1 132.5,43.9 132.5,10.0 149.2,19.2 149.2,24.2 142.7,20.7 142.7,33.7 149.2,37.2 149.2,53.1" />
<polygon fill="rgba(255,255,255,0.75)" stroke-width="1" stroke-dasharray="" stroke="black" points="149.2,58.3 149.2,81.1 132.5,71.9 132.5,49.1 149.2,58.3" />
<polygon fill="rgba(255,255,255,0.75)" stroke-width="1" stroke-dasharray="" stroke="black" points="149.2,86.3 149.2,109.1 132.5,99.9 132.5,77.1 149.2,86.3" />
<polygon fill="rgba(255,255,255,0.75)" stroke-width="1" stroke-dasharray="" stroke="black" points="149.2,114.3 149.2,130.2 142.7,126.7 142.7,139.7 149.2,143.2 149.2,148.2 132.5,139.0 132.5,105.1 149.2,114.3" />
<polygon fill="none" stroke-width="1" stroke-dasharray="2" stroke="gray" points="147.5,40.0 132.5,43.9 149.2,53.1 164.2,49.2" />
<polygon fill="rgba(192,192,192,0.75)" stroke-width="1" stroke-dasharray="" stroke="silver" points="164.2,62.2 149.2,58.3 132.5,49.1 147.5,53.0" />
<polygon fill="none" stroke-width="1" stroke-dasharray="2" stroke="gray" points="147.5,68.0 132.5,71.9 149.2,81.1 164.2,77.2" />
<polygon fill="rgba(192,192,192,0.75)" stroke-width="1" stroke-dasharray="" stroke="silver" points="164.2,90.2 149.2,86.3 132.5,77.1 147.5,81.0" />
<polygon fill="none" stroke-width="1" stroke-dasharray="2" stroke="gray" points="147.5,96.0 132.5,99.9 149.2,109.1 164.2,105.2" />
<polygon fill="rgba(192,192,192,0.75)" stroke-width="1" stroke-dasharray="" stroke="silver" points="164.2,118.2 149.2,114.3 132.5,105.1 147.5,109.0" />
<polygon fill="rgba(255,255,255,0.75)" stroke-width="1" stroke-dasharray="" stroke="black" points="164.2,49.2 164.2,62.2 147.5,53.0 147.5,40.0 164.2,49.2" />
<polygon fill="rgba(255,255,255,0.75)" stroke-width="1" stroke-dasharray="" stroke="black" points="164.2,77.2 164.2,90.2 147.5,81.0 147.5,68.0 164.2,77.2" />
<polygon fill="rgba(255,255,255,0.75)" stroke-width="1" stroke-dasharray="" stroke="black" points="164.2,105.2 164.2,118.2 147.5,109.0 147.5,96.0 164.2,105.2" />
<polygon fill="rgba(255,255,255,0.75)" stroke-width="1" stroke-dasharray="" stroke="black" points="147.5,40.0 164.2,49.2 149.2,53.1 132.5,43.9" />
<polygon fill="none" stroke-width="1" stroke-dasharray="2" stroke="gray" points="132.5,49.1 149.2,58.3 164.2,62.2 147.5,53.0" />
<polygon fill="rgba(255,255,255,0.75)" stroke-width="1" stroke-dasharray="" stroke="black" points="147.5,68.0 164.2,77.2 149.2,81.1 132.5,71.9" />
<polygon fill="none" stroke-width="1" stroke-dasharray="2" stroke="gray" points="132.5,77.1 149.2,86.3 164.2,90.2 147.5,81.0" />
<polygon fill="rgba(255,255,255,0.75)" stroke-width="1" stroke-dasharray="" stroke="black" points="147.5,96.0 164.2,105.2 149.2,109.1 132.5,99.9" />
<polygon fill="none" stroke-width="1" stroke-dasharray="2" stroke="gray" points="132.5,105.1 149.2,114.3 164.2,118.2 147.5,109.0" />
<polygon fill="rgba(255,255,255,0.75)" stroke-width="1" stroke-dasharray="" stroke="black" points="17.5,40.0 17.5,53.0 2.5,53.0 2.5,40.0 17.5,40.0" />
<polygon fill="rgba(255,255,255,0.75)" stroke-width="1" stroke-dasharray="" stroke="black" points="17.5,68.0 17.5,81.0 2.5,81.0 2.5,68.0 17.5,68.0" />
<polygon fill="rgba(255,255,255,0.75)" stroke-width="1" stroke-dasharray="" stroke="black" points="17.5,96.0 17.5,109.0 2.5,109.0 2.5,96.0 17.5,96.0" />
<polygon fill="rgba(255,255,255,0.75)" stroke-width="1" stroke-dasharray="" stroke="black" points="147.5,40.0 132.5,43.9 132.5,28.0 138.2,28.0 138.2,15.0 132.5,15.0 132.5,10.0 147.5,10.0 147.5,40.0" />
<polygon fill="rgba(255,255,255,0.75)" stroke-width="1" stroke-dasharray="" stroke="black" points="147.5,53.0 147.5,68.0 132.5,71.9 132.5,49.1 147.5,53.0" />
<polygon fill="rgba(255,255,255,0.75)" stroke-width="1" stroke-dasharray="" stroke="black" points="147.5,81.0 147.5,96.0 132.5,99.9 132.5,77.1 147.5,81.0" />
<polygon fill="rgba(255,255,255,0.75)" stroke-width="1" stroke-dasharray="" stroke="black" points="147.5,109.0 147.5,139.0 132.5,139.0 132.5,134.0 138.2,134.0 138.2,121.0 132.5,121.0 132.5,105.1 147.5,109.0" />
<polygon fill="rgba(255,255,255,0.75)" stroke-width="1" stroke-dasharray="" stroke="black" points="2.5,109.0 17.5,109.0 17.5,96.0 2.5,96.0 2.5,81.0 17.5,81.0 17.5,68.0 2.5,68.0 2.5,68.0 2.5,53.0 2.5,53.0 17.5,53.0 17.5,40.0 2.5,40.0 2.5,10.0 132.5,10.0 132.5,10.0 132.5,43.9 147.5,40.0 147.5,53.0 132.5,49.1 132.5,71.9 147.5,68.0 147.5,68.0 147.5,81.0 147.5,81.0 132.5,77.1 132.5,99.9 147.5,96.0 147.5,109.0 132.5,105.1 132.5,139.0 132.5,139.0 2.5,139.0 2.5,109.0" />
</svg>
