<svg width="1100" viewBox="0 0 550 488.19238815542514" xmlns="http://www.w3.org/2000/svg">
<polygon fill="none" stroke-width="1" stroke-dasharray="2" stroke="gray" points="19.19238815542512,29.192388155425117 19.19238815542512,34.19238815542512 179.1923881554251,34.19238815542512 179.1923881554251,29.192388155425117" />
<polygon fill="none" stroke-width="1" stroke-dasharray="2" stroke="gray" points="19.19238815542512,47.19238815542512 19.19238815542512,140.1923881554251 179.1923881554251,140.1923881554251 179.1923881554251,47.19238815542512" />
<polygon fill="none" stroke-width="1" stroke-dasharray="2" stroke="gray" points="19.19238815542512,153.1923881554251 19.19238815542512,158.1923881554251 179.1923881554251,158.1923881554251 179.1923881554251,153.1923881554251" />
<polygon fill="rgba(192,192,192,0.75)" stroke-width="1" stroke-dasharray="" stroke="black" points="18.54360559544051,30.65685424949238 172.77010290354426,30.65685424949238 179.1923881554251,34.19238815542512 19.19238815542512,34.19238815542512" />
<polygon fill="none" stroke-width="1" stroke-dasharray="2" stroke="gray" points="19.19238815542512,47.19238815542512 179.1923881554251,47.19238815542512 172.77010290354426,43.65685424949238 18.54360559544051,43.65685424949238" />
<polygon fill="rgba(192,192,192,0.75)" stroke-width="1" stroke-dasharray="" stroke="black" points="18.54360559544051,136.65685424949237 172.77010290354426,136.65685424949237 179.1923881554251,140.1923881554251 19.19238815542512,140.1923881554251" />
<polygon fill="none" stroke-width="1" stroke-dasharray="2" stroke="gray" points="19.19238815542512,153.1923881554251 179.1923881554251,153.1923881554251 172.77010290354426,149.65685424949237 18.54360559544051,149.65685424949237" />
<polygon fill="none" stroke-width="1" stroke-dasharray="2" stroke="gray" points="18.54360559544051,30.65685424949238 18.54360559544051,43.65685424949238 172.77010290354426,43.65685424949238 172.77010290354426,30.65685424949238" />
<polygon fill="none" stroke-width="1" stroke-dasharray="2" stroke="gray" points="18.54360559544051,136.65685424949237 18.54360559544051,149.65685424949237 172.77010290354426,149.65685424949237 172.77010290354426,136.65685424949237" />
<polygon fill="none" stroke-width="1" stroke-dasharray="2" stroke="gray" points="17.505553499465137,20.0 17.505553499465137,149.0 19.19238815542512,158.1923881554251 19.19238815542512,153.1923881554251 18.54360559544051,149.65685424949237 18.54360559544051,136.65685424949237 19.19238815542512,140.1923881554251 19.19238815542512,47.19238815542512 18.54360559544051,43.65685424949238 18.54360559544051,30.65685424949238 19.19238815542512,34.19238815542512 19.19238815542512,29.192388155425117" />
<polygon fill="none" stroke-width="1" stroke-dasharray="2" stroke="gray" points="19.19238815542512,29.192388155425117 179.1923881554251,29.192388155425117 162.49444650053488,20.0 17.505553499465137,20.0" />
<polygon fill="rgba(192,192,192,0.75)" stroke-width="1" stroke-dasharray="" stroke="black" points="17.505553499465137,149.0 162.49444650053488,149.0 179.1923881554251,158.1923881554251 19.19238815542512,158.1923881554251" />
<polygon fill="rgba(255,255,255,0.75)" stroke-width="1" stroke-dasharray="" stroke="black" points="179.1923881554251,29.192388155425117 179.1923881554251,34.19238815542512 172.77010290354426,30.65685424949238 172.77010290354426,43.65685424949238 179.1923881554251,47.19238815542512 179.1923881554251,140.1923881554251 172.77010290354426,136.65685424949237 172.77010290354426,149.65685424949237 179.1923881554251,153.1923881554251 179.1923881554251,158.1923881554251 162.49444650053488,149.0 162.49444650053488,20.0" />
<polygon fill="rgba(255,255,255,0.75)" stroke-width="1" stroke-dasharray="" stroke="black" points="17.505553499465137,20.0 162.49444650053488,20.0 162.49444650053488,149.0 17.505553499465137,149.0" />
<polygon fill="none" stroke-width="1" stroke-dasharray="2" stroke="gray" points="19.19238815542512,184.1923881554251 19.19238815542512,189.1923881554251 179.1923881554251,189.1923881554251 179.1923881554251,184.1923881554251" />
<polygon fill="none" stroke-width="1" stroke-dasharray="2" stroke="gray" points="19.19238815542512,202.1923881554251 19.19238815542512,295.19238815542514 179.1923881554251,295.19238815542514 179.1923881554251,202.1923881554251" />
<polygon fill="none" stroke-width="1" stroke-dasharray="2" stroke="gray" points="19.19238815542512,308.19238815542514 19.19238815542512,313.19238815542514 179.1923881554251,313.19238815542514 179.1923881554251,308.19238815542514" />
<polygon fill="rgba(192,192,192,0.75)" stroke-width="1" stroke-dasharray="" stroke="black" points="18.54360559544051,185.65685424949237 172.77010290354426,185.65685424949237 179.1923881554251,189.1923881554251 19.19238815542512,189.1923881554251" />
<polygon fill="none" stroke-width="1" stroke-dasharray="2" stroke="gray" points="19.19238815542512,202.1923881554251 179.1923881554251,202.1923881554251 172.77010290354426,198.65685424949237 18.54360559544051,198.65685424949237" />
<polygon fill="rgba(192,192,192,0.75)" stroke-width="1" stroke-dasharray="" stroke="black" points="18.54360559544051,291.65685424949237 172.77010290354426,291.65685424949237 179.1923881554251,295.19238815542514 19.19238815542512,295.19238815542514" />
<polygon fill="none" stroke-width="1" stroke-dasharray="2" stroke="gray" points="19.19238815542512,308.19238815542514 179.1923881554251,308.19238815542514 172.77010290354426,304.65685424949237 18.54360559544051,304.65685424949237" />
<polygon fill="none" stroke-width="1" stroke-dasharray="2" stroke="gray" points="18.54360559544051,185.65685424949237 18.54360559544051,198.65685424949237 172.77010290354426,198.65685424949237 172.77010290354426,185.65685424949237" />
<polygon fill="none" stroke-width="1" stroke-dasharray="2" stroke="gray" points="18.54360559544051,291.65685424949237 18.54360559544051,304.65685424949237 172.77010290354426,304.65685424949237 172.77010290354426,291.65685424949237" />
<polygon fill="none" stroke-width="1" stroke-dasharray="2" stroke="gray" points="17.505553499465137,175.0 17.505553499465137,304.0 19.19238815542512,313.19238815542514 19.19238815542512,308.19238815542514 18.54360559544051,304.65685424949237 18.54360559544051,291.65685424949237 19.19238815542512,295.19238815542514 19.19238815542512,202.1923881554251 18.54360559544051,198.65685424949237 18.54360559544051,185.65685424949237 19.19238815542512,189.1923881554251 19.19238815542512,184.1923881554251" />
<polygon fill="none" stroke-width="1" stroke-dasharray="2" stroke="gray" points="19.19238815542512,184.1923881554251 179.1923881554251,184.1923881554251 162.49444650053488,175.0 17.505553499465137,175.0" />
<polygon fill="rgba(192,192,192,0.75)" stroke-width="1" stroke-dasharray="" stroke="black" points="17.505553499465137,304.0 162.49444650053488,304.0 179.1923881554251,313.19238815542514 19.19238815542512,313.19238815542514" />
<polygon fill="rgba(255,255,255,0.75)" stroke-width="1" stroke-dasharray="" stroke="black" points="179.1923881554251,184.1923881554251 179.1923881554251,189.1923881554251 172.77010290354426,185.65685424949237 172.77010290354426,198.65685424949237 179.1923881554251,202.1923881554251 179.1923881554251,295.19238815542514 172.77010290354426,291.65685424949237 172.77010290354426,304.65685424949237 179.1923881554251,308.19238815542514 179.1923881554251,313.19238815542514 162.49444650053488,304.0 162.49444650053488,175.0" />
<polygon fill="rgba(255,255,255,0.75)" stroke-width="1" stroke-dasharray="" stroke="black" points="17.505553499465137,175.0 162.49444650053488,175.0 162.49444650053488,304.0 17.505553499465137,304.0" />
<circle cx="140" cy="187.0" r="5" stroke="orange" fill="white" stroke-width="1" />
<circle cx="140" cy="230.0" r="5" stroke="orange" fill="white" stroke-width="1" />
<circle cx="140" cy="273.0" r="5" stroke="orange" fill="white" stroke-width="1" />
<polygon fill="none" stroke-width="1" stroke-dasharray="2" stroke="gray" points="19.19238815542512,339.19238815542514 19.19238815542512,344.19238815542514 179.1923881554251,344.19238815542514 179.1923881554251,339.19238815542514" />
<polygon fill="none" stroke-width="1" stroke-dasharray="2" stroke="gray" points="19.19238815542512,357.19238815542514 19.19238815542512,450.19238815542514 179.1923881554251,450.19238815542514 179.1923881554251,357.19238815542514" />
<polygon fill="none" stroke-width="1" stroke-dasharray="2" stroke="gray" points="19.19238815542512,463.19238815542514 19.19238815542512,468.19238815542514 179.1923881554251,468.19238815542514 179.1923881554251,463.19238815542514" />
<polygon fill="rgba(192,192,192,0.75)" stroke-width="1" stroke-dasharray="" stroke="black" points="18.54360559544051,340.65685424949237 172.77010290354426,340.65685424949237 179.1923881554251,344.19238815542514 19.19238815542512,344.19238815542514" />
<polygon fill="none" stroke-width="1" stroke-dasharray="2" stroke="gray" points="19.19238815542512,357.19238815542514 179.1923881554251,357.19238815542514 172.77010290354426,353.65685424949237 18.54360559544051,353.65685424949237" />
<polygon fill="rgba(192,192,192,0.75)" stroke-width="1" stroke-dasharray="" stroke="black" points="18.54360559544051,446.65685424949237 172.77010290354426,446.65685424949237 179.1923881554251,450.19238815542514 19.19238815542512,450.19238815542514" />
<polygon fill="none" stroke-width="1" stroke-dasharray="2" stroke="gray" points="19.19238815542512,463.19238815542514 179.1923881554251,463.19238815542514 172.77010290354426,459.65685424949237 18.54360559544051,459.65685424949237" />
<polygon fill="none" stroke-width="1" stroke-dasharray="2" stroke="gray" points="18.54360559544051,340.65685424949237 18.54360559544051,353.65685424949237 172.77010290354426,353.65685424949237 172.77010290354426,340.65685424949237" />
<polygon fill="none" stroke-width="1" stroke-dasharray="2" stroke="gray" points="18.54360559544051,446.65685424949237 18.54360559544051,459.65685424949237 172.77010290354426,459.65685424949237 172.77010290354426,446.65685424949237" />
<polygon fill="none" stroke-width="1" stroke-dasharray="2" stroke="gray" points="17.505553499465137,330.0 17.505553499465137,459.0 19.19238815542512,468.19238815542514 19.19238815542512,463.19238815542514 18.54360559544051,459.65685424949237 18.54360559544051,446.65685424949237 19.19238815542512,450.19238815542514 19.19238815542512,357.19238815542514 18.54360559544051,353.65685424949237 18.54360559544051,340.65685424949237 19.19238815542512,344.19238815542514 19.19238815542512,339.19238815542514" />
<polygon fill="none" stroke-width="1" stroke-dasharray="2" stroke="gray" points="19.19238815542512,339.19238815542514 179.1923881554251,339.19238815542514 162.49444650053488,330.0 17.505553499465137,330.0" />
<polygon fill="rgba(192,192,192,0.75)" stroke-width="1" stroke-dasharray="" stroke="black" points="17.505553499465137,459.0 162.49444650053488,459.0 179.1923881554251,468.19238815542514 19.19238815542512,468.19238815542514" />
<polygon fill="rgba(255,255,255,0.75)" stroke-width="1" stroke-dasharray="" stroke="black" points="179.1923881554251,339.19238815542514 179.1923881554251,344.19238815542514 172.77010290354426,340.65685424949237 172.77010290354426,353.65685424949237 179.1923881554251,357.19238815542514 179.1923881554251,450.19238815542514 172.77010290354426,446.65685424949237 172.77010290354426,459.65685424949237 179.1923881554251,463.19238815542514 179.1923881554251,468.19238815542514 162.49444650053488,459.0 162.49444650053488,330.0" />
<polygon fill="rgba(255,255,255,0.75)" stroke-width="1" stroke-dasharray="" stroke="black" points="17.505553499465137,330.0 162.49444650053488,330.0 162.49444650053488,459.0 17.505553499465137,459.0" />
<rect x="20" y="449.0" width="40" height="10.0" style="fill: none; stroke: orange; stroke-width: 1;" />
<polygon fill="none" stroke-width="1" stroke-dasharray="2" stroke="gray" points="309.19238815542514,29.192388155425117 309.19238815542514,34.19238815542512 469.19238815542514,34.19238815542512 469.19238815542514,29.192388155425117" />
<polygon fill="none" stroke-width="1" stroke-dasharray="2" stroke="gray" points="309.19238815542514,47.19238815542512 309.19238815542514,140.1923881554251 469.19238815542514,140.1923881554251 469.19238815542514,47.19238815542512" />
<polygon fill="none" stroke-width="1" stroke-dasharray="2" stroke="gray" points="309.19238815542514,153.1923881554251 309.19238815542514,158.1923881554251 469.19238815542514,158.1923881554251 469.19238815542514,153.1923881554251" />
<polygon fill="rgba(192,192,192,0.75)" stroke-width="1" stroke-dasharray="" stroke="black" points="308.5436055954405,30.65685424949238 462.7701029035442,30.65685424949238 469.19238815542514,34.19238815542512 309.19238815542514,34.19238815542512" />
<polygon fill="none" stroke-width="1" stroke-dasharray="2" stroke="gray" points="309.19238815542514,47.19238815542512 469.19238815542514,47.19238815542512 462.7701029035442,43.65685424949238 308.5436055954405,43.65685424949238" />
<polygon fill="rgba(192,192,192,0.75)" stroke-width="1" stroke-dasharray="" stroke="black" points="308.5436055954405,136.65685424949237 462.7701029035442,136.65685424949237 469.19238815542514,140.1923881554251 309.19238815542514,140.1923881554251" />
<polygon fill="none" stroke-width="1" stroke-dasharray="2" stroke="gray" points="309.19238815542514,153.1923881554251 469.19238815542514,153.1923881554251 462.7701029035442,149.65685424949237 308.5436055954405,149.65685424949237" />
<polygon fill="none" stroke-width="1" stroke-dasharray="2" stroke="gray" points="308.5436055954405,30.65685424949238 308.5436055954405,43.65685424949238 462.7701029035442,43.65685424949238 462.7701029035442,30.65685424949238" />
<polygon fill="none" stroke-width="1" stroke-dasharray="2" stroke="gray" points="308.5436055954405,136.65685424949237 308.5436055954405,149.65685424949237 462.7701029035442,149.65685424949237 462.7701029035442,136.65685424949237" />
<polygon fill="none" stroke-width="1" stroke-dasharray="2" stroke="gray" points="307.5055534994651,20.0 307.5055534994651,149.0 309.19238815542514,158.1923881554251 309.19238815542514,153.1923881554251 308.5436055954405,149.65685424949237 308.5436055954405,136.65685424949237 309.19238815542514,140.1923881554251 309.19238815542514,47.19238815542512 308.5436055954405,43.65685424949238 308.5436055954405,30.65685424949238 309.19238815542514,34.19238815542512 309.19238815542514,29.192388155425117" />
<polygon fill="none" stroke-width="1" stroke-dasharray="2" stroke="gray" points="309.19238815542514,29.192388155425117 469.19238815542514,29.192388155425117 452.4944465005349,20.0 307.5055534994651,20.0" />
<polygon fill="rgba(192,192,192,0.75)" stroke-width="1" stroke-dasharray="" stroke="black" points="307.5055534994651,149.0 452.4944465005349,149.0 469.19238815542514,158.1923881554251 309.19238815542514,158.1923881554251" />
<polygon fill="rgba(255,255,255,0.75)" stroke-width="1" stroke-dasharray="" stroke="black" points="469.19238815542514,29.192388155425117 469.19238815542514,34.19238815542512 462.7701029035442,30.65685424949238 462.7701029035442,43.65685424949238 469.19238815542514,47.19238815542512 469.19238815542514,140.1923881554251 462.7701029035442,136.65685424949237 462.7701029035442,149.65685424949237 469.19238815542514,153.1923881554251 469.19238815542514,158.1923881554251 452.4944465005349,149.0 452.4944465005349,20.0" />
<polygon fill="rgba(255,255,255,0.75)" stroke-width="1" stroke-dasharray="" stroke="black" points="307.5055534994651,20.0 452.4944465005349,20.0 452.4944465005349,149.0 307.5055534994651,149.0" />
<polygon fill="none" stroke-width="1" stroke-dasharray="2" stroke="gray" points="309.19238815542514,184.1923881554251 309.19238815542514,189.1923881554251 469.19238815542514,189.1923881554251 469.19238815542514,184.1923881554251" />
<polygon fill="none" stroke-width="1" stroke-dasharray="2" stroke="gray" points="309.19238815542514,202.1923881554251 309.19238815542514,295.19238815542514 469.19238815542514,295.19238815542514 469.19238815542514,202.1923881554251" />
<polygon fill="none" stroke-width="1" stroke-dasharray="2" stroke="gray" points="309.19238815542514,308.19238815542514 309.19238815542514,313.19238815542514 469.19238815542514,313.19238815542514 469.19238815542514,308.19238815542514" />
<polygon fill="rgba(192,192,192,0.75)" stroke-width="1" stroke-dasharray="" stroke="black" points="308.5436055954405,185.65685424949237 462.7701029035442,185.65685424949237 469.19238815542514,189.1923881554251 309.19238815542514,189.1923881554251" />
<polygon fill="none" stroke-width="1" stroke-dasharray="2" stroke="gray" points="309.19238815542514,202.1923881554251 469.19238815542514,202.1923881554251 462.7701029035442,198.65685424949237 308.5436055954405,198.65685424949237" />
<polygon fill="rgba(192,192,192,0.75)" stroke-width="1" stroke-dasharray="" stroke="black" points="308.5436055954405,291.65685424949237 462.7701029035442,291.65685424949237 469.19238815542514,295.19238815542514 309.19238815542514,295.19238815542514" />
<polygon fill="none" stroke-width="1" stroke-dasharray="2" stroke="gray" points="309.19238815542514,308.19238815542514 469.19238815542514,308.19238815542514 462.7701029035442,304.65685424949237 308.5436055954405,304.65685424949237" />
<polygon fill="none" stroke-width="1" stroke-dasharray="2" stroke="gray" points="308.5436055954405,185.65685424949237 308.5436055954405,198.65685424949237 462.7701029035442,198.65685424949237 462.7701029035442,185.65685424949237" />
<polygon fill="none" stroke-width="1" stroke-dasharray="2" stroke="gray" points="308.5436055954405,291.65685424949237 308.5436055954405,304.65685424949237 462.7701029035442,304.65685424949237 462.7701029035442,291.65685424949237" />
<polygon fill="none" stroke-width="1" stroke-dasharray="2" stroke="gray" points="307.5055534994651,175.0 307.5055534994651,304.0 309.19238815542514,313.19238815542514 309.19238815542514,308.19238815542514 308.5436055954405,304.65685424949237 308.5436055954405,291.65685424949237 309.19238815542514,295.19238815542514 309.19238815542514,202.1923881554251 308.5436055954405,198.65685424949237 308.5436055954405,185.65685424949237 309.19238815542514,189.1923881554251 309.19238815542514,184.1923881554251" />
<polygon fill="none" stroke-width="1" stroke-dasharray="2" stroke="gray" points="309.19238815542514,184.1923881554251 469.19238815542514,184.1923881554251 452.4944465005349,175.0 307.5055534994651,175.0" />
<polygon fill="rgba(192,192,192,0.75)" stroke-width="1" stroke-dasharray="" stroke="black" points="307.5055534994651,304.0 452.4944465005349,304.0 469.19238815542514,313.19238815542514 309.19238815542514,313.19238815542514" />
<polygon fill="rgba(255,255,255,0.75)" stroke-width="1" stroke-dasharray="" stroke="black" points="469.19238815542514,184.1923881554251 469.19238815542514,189.1923881554251 462.7701029035442,185.65685424949237 462.7701029035442,198.65685424949237 469.19238815542514,202.1923881554251 469.19238815542514,295.19238815542514 462.7701029035442,291.65685424949237 462.7701029035442,304.65685424949237 469.19238815542514,308.19238815542514 469.19238815542514,313.19238815542514 452.4944465005349,304.0 452.4944465005349,175.0" />
<polygon fill="rgba(255,255,255,0.75)" stroke-width="1" stroke-dasharray="" stroke="black" points="307.5055534994651,175.0 452.4944465005349,175.0 452.4944465005349,304.0 307.5055534994651,304.0" />
<circle cx="430" cy="187.0" r="5" stroke="orange" fill="white" stroke-width="1" />
<circle cx="430" cy="230.0" r="5" stroke="orange" fill="white" stroke-width="1" />
<circle cx="430" cy="273.0" r="5" stroke="orange" fill="white" stroke-width="1" />
<polygon fill="none" stroke-width="1" stroke-dasharray="2" stroke="gray" points="309.19238815542514,339.19238815542514 309.19238815542514,344.19238815542514 469.19238815542514,344.19238815542514 469.19238815542514,339.19238815542514" />
<polygon fill="none" stroke-width="1" stroke-dasharray="2" stroke="gray" points="309.19238815542514,357.19238815542514 309.19238815542514,450.19238815542514 469.19238815542514,450.19238815542514 469.19238815542514,357.19238815542514" />
<polygon fill="none" stroke-width="1" stroke-dasharray="2" stroke="gray" points="309.19238815542514,463.19238815542514 309.19238815542514,468.19238815542514 469.19238815542514,468.19238815542514 469.19238815542514,463.19238815542514" />
<polygon fill="rgba(192,192,192,0.75)" stroke-width="1" stroke-dasharray="" stroke="black" points="308.5436055954405,340.65685424949237 462.7701029035442,340.65685424949237 469.19238815542514,344.19238815542514 309.19238815542514,344.19238815542514" />
<polygon fill="none" stroke-width="1" stroke-dasharray="2" stroke="gray" points="309.19238815542514,357.19238815542514 469.19238815542514,357.19238815542514 462.7701029035442,353.65685424949237 308.5436055954405,353.65685424949237" />
<polygon fill="rgba(192,192,192,0.75)" stroke-width="1" stroke-dasharray="" stroke="black" points="308.5436055954405,446.65685424949237 462.7701029035442,446.65685424949237 469.19238815542514,450.19238815542514 309.19238815542514,450.19238815542514" />
<polygon fill="none" stroke-width="1" stroke-dasharray="2" stroke="gray" points="309.19238815542514,463.19238815542514 469.19238815542514,463.19238815542514 462.7701029035442,459.65685424949237 308.5436055954405,459.65685424949237" />
<polygon fill="none" stroke-width="1" stroke-dasharray="2" stroke="gray" points="308.5436055954405,340.65685424949237 308.5436055954405,353.65685424949237 462.7701029035442,353.65685424949237 462.7701029035442,340.65685424949237" />
<polygon fill="none" stroke-width="1" stroke-dasharray="2" stroke="gray" points="308.5436055954405,446.65685424949237 308.5436055954405,459.65685424949237 462.7701029035442,459.65685424949237 462.7701029035442,446.65685424949237" />
<polygon fill="none" stroke-width="1" stroke-dasharray="2" stroke="gray" points="307.5055534994651,330.0 307.5055534994651,459.0 309.19238815542514,468.19238815542514 309.19238815542514,463.19238815542514 308.5436055954405,459.65685424949237 308.5436055954405,446.65685424949237 309.19238815542514,450.19238815542514 309.19238815542514,357.19238815542514 308.5436055954405,353.65685424949237 308.5436055954405,340.65685424949237 309.19238815542514,344.19238815542514 309.19238815542514,339.19238815542514" />
<polygon fill="none" stroke-width="1" stroke-dasharray="2" stroke="gray" points="309.19238815542514,339.19238815542514 469.19238815542514,339.19238815542514 452.4944465005349,330.0 307.5055534994651,330.0" />
<polygon fill="rgba(192,192,192,0.75)" stroke-width="1" stroke-dasharray="" stroke="black" points="307.5055534994651,459.0 452.4944465005349,459.0 469.19238815542514,468.19238815542514 309.19238815542514,468.19238815542514" />
<polygon fill="rgba(255,255,255,0.75)" stroke-width="1" stroke-dasharray="" stroke="black" points="469.19238815542514,339.19238815542514 469.19238815542514,344.19238815542514 462.7701029035442,340.65685424949237 462.7701029035442,353.65685424949237 469.19238815542514,357.19238815542514 469.19238815542514,450.19238815542514 462.7701029035442,446.65685424949237 462.7701029035442,459.65685424949237 469.19238815542514,463.19238815542514 469.19238815542514,468.19238815542514 452.4944465005349,459.0 452.4944465005349,330.0" />
<polygon fill="rgba(255,255,255,0.75)" stroke-width="1" stroke-dasharray="" stroke="black" points="307.5055534994651,330.0 452.4944465005349,330.0 452.4944465005349,459.0 307.5055534994651,459.0" />
</svg>
