<svg width="1100" viewBox="0 0 550 643.1923881554251" xmlns="http://www.w3.org/2000/svg">
<polygon fill="none" stroke-width="1" stroke-dasharray="2" stroke="gray" points="19.19238815542512,29.192388155425117 19.19238815542512,158.1923881554251 489.19238815542514,158.1923881554251 489.19238815542514,29.192388155425117" />
<polygon fill="none" stroke-width="1" stroke-dasharray="2" stroke="gray" points="10.0,20.0 10.0,149.0 19.19238815542512,158.1923881554251 19.19238815542512,29.192388155425117" />
<polygon fill="none" stroke-width="1" stroke-dasharray="2" stroke="gray" points="19.19238815542512,29.192388155425117 489.19238815542514,29.192388155425117 480.0,20.0 10.0,20.0" />
<polygon fill="rgba(192,192,192,0.75)" stroke-width="1" stroke-dasharray="" stroke="black" points="10.0,149.0 480.0,149.0 489.19238815542514,158.1923881554251 19.19238815542512,158.1923881554251" />
<polygon fill="rgba(255,255,255,0.75)" stroke-width="1" stroke-dasharray="" stroke="black" points="489.19238815542514,29.192388155425117 489.19238815542514,158.1923881554251 480.0,149.0 480.0,20.0" />
<polygon fill="rgba(255,255,255,0.75)" stroke-width="1" stroke-dasharray="" stroke="black" points="10.0,20.0 480.0,20.0 480.0,149.0 10.0,149.0" />
<circle cx="150" cy="32.0" r="5" stroke="orange" fill="white" stroke-width="1" />
<circle cx="185" cy="51.0" r="5" stroke="orange" fill="white" stroke-width="1" />
<rect x="275" y="63.0" width="40" height="10.0" style="fill: none; stroke: orange; stroke-width: 1;" />
<circle cx="150" cy="75.0" r="5" stroke="orange" fill="white" stroke-width="1" />
<circle cx="185" cy="94.0" r="5" stroke="orange" fill="white" stroke-width="1" />
<circle cx="150" cy="118.0" r="5" stroke="orange" fill="white" stroke-width="1" />
<circle cx="185" cy="137.0" r="5" stroke="orange" fill="white" stroke-width="1" />
<polygon fill="none" stroke-width="1" stroke-dasharray="2" stroke="gray" points="19.19238815542512,184.1923881554251 19.19238815542512,313.19238815542514 489.19238815542514,313.19238815542514 489.19238815542514,184.1923881554251" />
<polygon fill="none" stroke-width="1" stroke-dasharray="2" stroke="gray" points="10.0,175.0 10.0,304.0 19.19238815542512,313.19238815542514 19.19238815542512,184.1923881554251" />
<polygon fill="none" stroke-width="1" stroke-dasharray="2" stroke="gray" points="19.19238815542512,184.1923881554251 489.19238815542514,184.1923881554251 480.0,175.0 10.0,175.0" />
<polygon fill="rgba(192,192,192,0.75)" stroke-width="1" stroke-dasharray="" stroke="black" points="10.0,304.0 480.0,304.0 489.19238815542514,313.19238815542514 19.19238815542512,313.19238815542514" />
<polygon fill="rgba(255,255,255,0.75)" stroke-width="1" stroke-dasharray="" stroke="black" points="489.19238815542514,184.1923881554251 489.19238815542514,313.19238815542514 480.0,304.0 480.0,175.0" />
<polygon fill="rgba(255,255,255,0.75)" stroke-width="1" stroke-dasharray="" stroke="black" points="10.0,175.0 480.0,175.0 480.0,304.0 10.0,304.0" />
<circle cx="150" cy="187.0" r="5" stroke="orange" fill="white" stroke-width="1" />
<circle cx="185" cy="206.0" r="5" stroke="orange" fill="white" stroke-width="1" />
<circle cx="150" cy="230.0" r="5" stroke="orange" fill="white" stroke-width="1" />
<circle cx="185" cy="249.0" r="5" stroke="orange" fill="white" stroke-width="1" />
<circle cx="150" cy="273.0" r="5" stroke="orange" fill="white" stroke-width="1" />
<circle cx="185" cy="292.0" r="5" stroke="orange" fill="white" stroke-width="1" />
<polygon fill="none" stroke-width="1" stroke-dasharray="2" stroke="gray" points="19.19238815542512,339.19238815542514 19.19238815542512,468.19238815542514 509.19238815542514,468.19238815542514 509.19238815542514,339.19238815542514" />
<polygon fill="none" stroke-width="1" stroke-dasharray="2" stroke="gray" points="10.0,330.0 10.0,335.0 13.535533905932738,338.5355339059327 13.535533905932738,351.5355339059327 10.0,348.0 10.0,441.0 13.535533905932738,444.5355339059327 13.535533905932738,457.5355339059327 10.0,454.0 10.0,459.0 19.19238815542512,468.19238815542514 19.19238815542512,339.19238815542514" />
<polygon fill="none" stroke-width="1" stroke-dasharray="2" stroke="gray" points="19.19238815542512,339.19238815542514 509.19238815542514,339.19238815542514 500.0,330.0 10.0,330.0" />
<polygon fill="rgba(192,192,192,0.75)" stroke-width="1" stroke-dasharray="" stroke="black" points="10.0,459.0 500.0,459.0 509.19238815542514,468.19238815542514 19.19238815542512,468.19238815542514" />
<polygon fill="rgba(255,255,255,0.75)" stroke-width="1" stroke-dasharray="" stroke="black" points="509.19238815542514,339.19238815542514 509.19238815542514,468.19238815542514 500.0,459.0 500.0,454.0 503.53553390593277,457.5355339059327 503.53553390593277,444.5355339059327 500.0,441.0 500.0,348.0 503.53553390593277,351.5355339059327 503.53553390593277,338.5355339059327 500.0,335.0 500.0,330.0" />
<polygon fill="rgba(255,255,255,0.75)" stroke-width="1" stroke-dasharray="" stroke="black" points="13.535533905932738,338.5355339059327 503.53553390593277,338.5355339059327 503.53553390593277,351.5355339059327 13.535533905932738,351.5355339059327" />
<polygon fill="rgba(255,255,255,0.75)" stroke-width="1" stroke-dasharray="" stroke="black" points="13.535533905932738,444.5355339059327 503.53553390593277,444.5355339059327 503.53553390593277,457.5355339059327 13.535533905932738,457.5355339059327" />
<polygon fill="rgba(192,192,192,0.75)" stroke-width="1" stroke-dasharray="" stroke="black" points="10.0,335.0 500.0,335.0 503.53553390593277,338.5355339059327 13.535533905932738,338.5355339059327" />
<polygon fill="none" stroke-width="1" stroke-dasharray="2" stroke="gray" points="13.535533905932738,351.5355339059327 503.53553390593277,351.5355339059327 500.0,348.0 10.0,348.0" />
<polygon fill="rgba(192,192,192,0.75)" stroke-width="1" stroke-dasharray="" stroke="black" points="10.0,441.0 500.0,441.0 503.53553390593277,444.5355339059327 13.535533905932738,444.5355339059327" />
<polygon fill="none" stroke-width="1" stroke-dasharray="2" stroke="gray" points="13.535533905932738,457.5355339059327 503.53553390593277,457.5355339059327 500.0,454.0 10.0,454.0" />
<polygon fill="rgba(255,255,255,0.75)" stroke-width="1" stroke-dasharray="" stroke="black" points="10.0,330.0 500.0,330.0 500.0,335.0 10.0,335.0" />
<polygon fill="rgba(255,255,255,0.75)" stroke-width="1" stroke-dasharray="" stroke="black" points="10.0,348.0 500.0,348.0 500.0,441.0 10.0,441.0" />
<polygon fill="rgba(255,255,255,0.75)" stroke-width="1" stroke-dasharray="" stroke="black" points="10.0,454.0 500.0,454.0 500.0,459.0 10.0,459.0" />
<circle cx="305" cy="342.0" r="5" stroke="orange" fill="white" stroke-width="1" />
<circle cx="340" cy="361.0" r="5" stroke="orange" fill="white" stroke-width="1" />
<circle cx="305" cy="385.0" r="5" stroke="orange" fill="white" stroke-width="1" />
<circle cx="340" cy="404.0" r="5" stroke="orange" fill="white" stroke-width="1" />
<rect x="350" y="449.0" width="40" height="10.0" style="fill: none; stroke: orange; stroke-width: 1;" />
<circle cx="305" cy="428.0" r="5" stroke="orange" fill="white" stroke-width="1" />
<circle cx="340" cy="447.0" r="5" stroke="orange" fill="white" stroke-width="1" />
<polygon fill="rgba(0,255,0,0.25)" stroke-width="1" stroke-dasharray="" stroke="green" points="170.0,330.0 176.0,330.0 176.0,459.0 185.1923881554251,468.19238815542514 179.1923881554251,468.19238815542514 170.0,459.0" />
<text style="" text-anchor="left" x="180" y="340" fill="black">1</text>
<polygon fill="rgba(0,255,0,0.25)" stroke-width="1" stroke-dasharray="" stroke="green" points="335.0,330.0 341.0,330.0 341.0,459.0 350.19238815542514,468.19238815542514 344.19238815542514,468.19238815542514 335.0,459.0" />
<text style="" text-anchor="left" x="345" y="340" fill="black">2</text>
<polygon fill="none" stroke-width="1" stroke-dasharray="2" stroke="gray" points="19.19238815542512,494.19238815542514 19.19238815542512,623.1923881554251 509.19238815542514,623.1923881554251 509.19238815542514,494.19238815542514" />
<polygon fill="none" stroke-width="1" stroke-dasharray="2" stroke="gray" points="10.0,485.0 10.0,490.0 13.535533905932738,493.5355339059327 13.535533905932738,506.5355339059327 10.0,503.0 10.0,596.0 13.535533905932738,599.5355339059328 13.535533905932738,612.5355339059328 10.0,609.0 10.0,614.0 19.19238815542512,623.1923881554251 19.19238815542512,494.19238815542514" />
<polygon fill="none" stroke-width="1" stroke-dasharray="2" stroke="gray" points="19.19238815542512,494.19238815542514 509.19238815542514,494.19238815542514 500.0,485.0 10.0,485.0" />
<polygon fill="rgba(192,192,192,0.75)" stroke-width="1" stroke-dasharray="" stroke="black" points="10.0,614.0 500.0,614.0 509.19238815542514,623.1923881554251 19.19238815542512,623.1923881554251" />
<polygon fill="rgba(255,255,255,0.75)" stroke-width="1" stroke-dasharray="" stroke="black" points="509.19238815542514,494.19238815542514 509.19238815542514,623.1923881554251 500.0,614.0 500.0,609.0 503.53553390593277,612.5355339059328 503.53553390593277,599.5355339059328 500.0,596.0 500.0,503.0 503.53553390593277,506.5355339059327 503.53553390593277,493.5355339059327 500.0,490.0 500.0,485.0" />
<polygon fill="rgba(255,255,255,0.75)" stroke-width="1" stroke-dasharray="" stroke="black" points="13.535533905932738,493.5355339059327 503.53553390593277,493.5355339059327 503.53553390593277,506.5355339059327 13.535533905932738,506.5355339059327" />
<polygon fill="rgba(255,255,255,0.75)" stroke-width="1" stroke-dasharray="" stroke="black" points="13.535533905932738,599.5355339059328 503.53553390593277,599.5355339059328 503.53553390593277,612.5355339059328 13.535533905932738,612.5355339059328" />
<polygon fill="rgba(192,192,192,0.75)" stroke-width="1" stroke-dasharray="" stroke="black" points="10.0,490.0 500.0,490.0 503.53553390593277,493.5355339059327 13.535533905932738,493.5355339059327" />
<polygon fill="none" stroke-width="1" stroke-dasharray="2" stroke="gray" points="13.535533905932738,506.5355339059327 503.53553390593277,506.5355339059327 500.0,503.0 10.0,503.0" />
<polygon fill="rgba(192,192,192,0.75)" stroke-width="1" stroke-dasharray="" stroke="black" points="10.0,596.0 500.0,596.0 503.53553390593277,599.5355339059328 13.535533905932738,599.5355339059328" />
<polygon fill="none" stroke-width="1" stroke-dasharray="2" stroke="gray" points="13.535533905932738,612.5355339059328 503.53553390593277,612.5355339059328 500.0,609.0 10.0,609.0" />
<polygon fill="rgba(255,255,255,0.75)" stroke-width="1" stroke-dasharray="" stroke="black" points="10.0,485.0 500.0,485.0 500.0,490.0 10.0,490.0" />
<polygon fill="rgba(255,255,255,0.75)" stroke-width="1" stroke-dasharray="" stroke="black" points="10.0,503.0 500.0,503.0 500.0,596.0 10.0,596.0" />
<polygon fill="rgba(255,255,255,0.75)" stroke-width="1" stroke-dasharray="" stroke="black" points="10.0,609.0 500.0,609.0 500.0,614.0 10.0,614.0" />
<circle cx="305" cy="497.0" r="5" stroke="orange" fill="white" stroke-width="1" />
<circle cx="340" cy="516.0" r="5" stroke="orange" fill="white" stroke-width="1" />
<circle cx="305" cy="540.0" r="5" stroke="orange" fill="white" stroke-width="1" />
<circle cx="340" cy="559.0" r="5" stroke="orange" fill="white" stroke-width="1" />
<circle cx="305" cy="583.0" r="5" stroke="orange" fill="white" stroke-width="1" />
<circle cx="340" cy="602.0" r="5" stroke="orange" fill="white" stroke-width="1" />
<polygon fill="rgba(0,255,0,0.25)" stroke-width="1" stroke-dasharray="" stroke="green" points="170.0,485.0 176.0,485.0 176.0,614.0 185.1923881554251,623.1923881554251 179.1923881554251,623.1923881554251 170.0,614.0" />
<text style="" text-anchor="left" x="180" y="495" fill="black">1</text>
<polygon fill="rgba(0,255,0,0.25)" stroke-width="1" stroke-dasharray="" stroke="green" points="335.0,485.0 341.0,485.0 341.0,614.0 350.19238815542514,623.1923881554251 344.19238815542514,623.1923881554251 335.0,614.0" />
<text style="" text-anchor="left" x="345" y="495" fill="black">2</text>
</svg>
