<svg width="1100" viewBox="0.0 0.0 550.0 178.2" xmlns="http://www.w3.org/2000/svg">
<polygon fill="none" stroke-width="1" stroke-dasharray="2" stroke="gray" points="19.19238815542512,119.06754853482 34.213495154355364,119.06754853482 34.213495154355364,124.31722777603024 19.19238815542512,124.31722777603024 19.19238815542512,140.1923881554251 164.17128115649487,140.1923881554251 164.17128115649487,124.29722777603023 179.1923881554251,128.17980340875297 179.1923881554251,128.17980340875297 179.1923881554251,115.20497290209725 179.1923881554251,115.20497290209725 164.17128115649487,119.08754853482002 164.17128115649487,96.29722777603023 179.1923881554251,100.17980340875299 179.1923881554251,87.20497290209725 164.17128115649487,91.08754853482002 164.17128115649487,68.29722777603023 179.1923881554251,72.17980340875299 179.1923881554251,72.17980340875299 179.1923881554251,59.20497290209727 179.1923881554251,59.20497290209727 164.17128115649487,63.08754853482 164.17128115649487,47.19238815542512 19.19238815542512,47.19238815542512 19.19238815542512,63.067548534820006 19.19238815542512,63.067548534820006 34.213495154355364,63.067548534820006 34.213495154355364,68.31722777603022 19.19238815542512,68.31722777603022 19.19238815542512,91.06754853482002 34.213495154355364,91.06754853482 34.213495154355364,96.31722777603024 19.19238815542512,96.31722777603024 19.19238815542512,96.31722777603024 19.19238815542512,119.06754853482" />
<polygon fill="rgba(192,192,192,0.75)" stroke-width="1" stroke-dasharray="" stroke="black" points="157.74899590461402,30.65685424949238 164.17128115649487,34.19238815542512 19.19238815542512,34.19238815542512 18.54360559544051,30.65685424949238 157.74899590461402,30.65685424949238" />
<polygon fill="none" stroke-width="1" stroke-dasharray="2" stroke="gray" points="157.74899590461402,43.65685424949238 18.54360559544051,43.65685424949238 19.19238815542512,47.19238815542512 164.17128115649487,47.19238815542512 157.74899590461402,43.65685424949238" />
<polygon fill="rgba(192,192,192,0.75)" stroke-width="1" stroke-dasharray="" stroke="black" points="157.74899590461402,136.65685424949237 164.17128115649487,140.1923881554251 19.19238815542512,140.1923881554251 18.54360559544051,136.65685424949237 157.74899590461402,136.65685424949237" />
<polygon fill="none" stroke-width="1" stroke-dasharray="2" stroke="gray" points="157.74899590461402,149.65685424949237 18.54360559544051,149.65685424949237 19.19238815542512,153.1923881554251 164.17128115649487,153.1923881554251 157.74899590461402,149.65685424949237" />
<polygon fill="none" stroke-width="1" stroke-dasharray="2" stroke="gray" points="17.505553499465137,50.01298399414701 19.19238815542512,63.084564540673 19.19238815542512,47.19238815542512 18.54360559544051,43.65685424949238 18.54360559544051,30.65685424949238 19.19238815542512,34.19238815542512 19.19238815542512,29.192388155425117 17.505553499465137,20.0 17.505553499465137,50.01298399414701" />
<polygon fill="none" stroke-width="1" stroke-dasharray="2" stroke="gray" points="17.505553499465137,62.98701600585299 17.505553499465137,78.01298399414699 19.19238815542512,91.08456454067301 19.19238815542512,68.30021177017724 17.505553499465137,62.98701600585299" />
<polygon fill="none" stroke-width="1" stroke-dasharray="2" stroke="gray" points="17.505553499465137,90.987016005853 17.505553499465137,106.01298399414702 19.19238815542512,119.08456454067301 19.19238815542512,96.30021177017723 17.505553499465137,90.987016005853" />
<polygon fill="none" stroke-width="1" stroke-dasharray="2" stroke="gray" points="17.505553499465137,118.987016005853 17.505553499465137,149.0 19.19238815542512,158.1923881554251 19.19238815542512,153.1923881554251 18.54360559544051,149.65685424949237 18.54360559544051,136.65685424949237 19.19238815542512,140.1923881554251 19.19238815542512,124.30021177017723 17.505553499465137,118.987016005853" />
<polygon fill="rgba(255,255,255,0.75)" stroke-width="1" stroke-dasharray="" stroke="black" points="17.505553499465137,50.0 32.51666049839538,50.0 34.203495154355366,63.07754853482001 19.19238815542512,63.07754853482001" />
<polygon fill="none" stroke-width="1" stroke-dasharray="2" stroke="gray" points="19.19238815542512,68.30722777603023 34.203495154355366,68.30722777603023 32.51666049839538,63.0 17.505553499465137,63.0" />
<polygon fill="rgba(255,255,255,0.75)" stroke-width="1" stroke-dasharray="" stroke="black" points="17.505553499465137,78.0 32.51666049839538,78.0 34.203495154355366,91.07754853482001 19.19238815542512,91.07754853482001" />
<polygon fill="none" stroke-width="1" stroke-dasharray="2" stroke="gray" points="19.19238815542512,96.30722777603023 34.203495154355366,96.30722777603023 32.51666049839538,91.0 17.505553499465137,91.0" />
<polygon fill="rgba(255,255,255,0.75)" stroke-width="1" stroke-dasharray="" stroke="black" points="17.505553499465137,106.0 32.51666049839538,106.0 34.203495154355366,119.07754853482001 19.19238815542512,119.07754853482001" />
<polygon fill="none" stroke-width="1" stroke-dasharray="2" stroke="gray" points="19.19238815542512,124.30722777603023 34.203495154355366,124.30722777603023 32.51666049839538,119.0 17.505553499465137,119.0" />
<polygon fill="none" stroke-width="1" stroke-dasharray="2" stroke="gray" points="32.51666049839538,49.992983994147 32.51666049839538,63.00701600585299 34.203495154355366,68.32021177017722 34.203495154355366,63.064564540673004 32.51666049839538,49.992983994147" />
<polygon fill="none" stroke-width="1" stroke-dasharray="2" stroke="gray" points="32.51666049839538,77.99298399414701 32.51666049839538,91.007016005853 34.203495154355366,96.32021177017724 34.203495154355366,91.064564540673 32.51666049839538,77.99298399414701" />
<polygon fill="none" stroke-width="1" stroke-dasharray="2" stroke="gray" points="32.51666049839538,105.992983994147 32.51666049839538,119.007016005853 34.203495154355366,124.32021177017724 34.203495154355366,119.064564540673 32.51666049839538,105.992983994147" />
<polygon fill="none" stroke-width="1" stroke-dasharray="2" stroke="gray" points="147.47333950160464,20.0 17.505553499465137,20.0 19.19238815542512,29.192388155425117 164.17128115649487,29.192388155425117 147.47333950160464,20.0" />
<polygon fill="rgba(192,192,192,0.75)" stroke-width="1" stroke-dasharray="" stroke="black" points="147.47333950160464,149.0 164.17128115649487,158.1923881554251 19.19238815542512,158.1923881554251 17.505553499465137,149.0 147.47333950160464,149.0" />
<polygon fill="rgba(255,255,255,0.75)" stroke-width="1" stroke-dasharray="" stroke="black" points="164.18128115649486,63.08754853482 147.48333950160463,53.895160379394895 147.48333950160463,20.0 164.18128115649486,29.192388155425117 164.18128115649486,34.19238815542512 157.758995904614,30.65685424949238 157.758995904614,43.65685424949238 164.18128115649486,47.19238815542512 164.18128115649486,63.08754853482" />
<polygon fill="rgba(255,255,255,0.75)" stroke-width="1" stroke-dasharray="" stroke="black" points="164.18128115649486,68.29722777603023 164.18128115649486,91.08754853482002 147.48333950160463,81.8951603793949 147.48333950160463,59.10483962060509 164.18128115649486,68.29722777603023" />
<polygon fill="rgba(255,255,255,0.75)" stroke-width="1" stroke-dasharray="" stroke="black" points="164.18128115649486,96.29722777603023 164.18128115649486,119.08754853482002 147.48333950160463,109.8951603793949 147.48333950160463,87.1048396206051 164.18128115649486,96.29722777603023" />
<polygon fill="rgba(255,255,255,0.75)" stroke-width="1" stroke-dasharray="" stroke="black" points="164.18128115649486,124.29722777603024 164.18128115649486,140.1923881554251 157.758995904614,136.65685424949237 157.758995904614,149.65685424949237 164.18128115649486,153.1923881554251 164.18128115649486,158.1923881554251 147.48333950160463,149.0 147.48333950160463,115.1048396206051 164.18128115649486,124.29722777603024" />
<polygon fill="none" stroke-width="1" stroke-dasharray="2" stroke="gray" points="162.49444650053488,50.0 147.48333950160463,53.88516037939489 164.18128115649486,63.07754853482001 179.1923881554251,59.19238815542512" />
<polygon fill="rgba(192,192,192,0.75)" stroke-width="1" stroke-dasharray="" stroke="silver" points="179.1923881554251,72.19238815542512 164.18128115649486,68.30722777603023 147.48333950160463,59.11483962060511 162.49444650053488,63.0" />
<polygon fill="none" stroke-width="1" stroke-dasharray="2" stroke="gray" points="162.49444650053488,78.0 147.48333950160463,81.88516037939489 164.18128115649486,91.07754853482001 179.1923881554251,87.19238815542512" />
<polygon fill="rgba(192,192,192,0.75)" stroke-width="1" stroke-dasharray="" stroke="silver" points="179.1923881554251,100.19238815542512 164.18128115649486,96.30722777603023 147.48333950160463,87.11483962060511 162.49444650053488,91.0" />
<polygon fill="none" stroke-width="1" stroke-dasharray="2" stroke="gray" points="162.49444650053488,106.0 147.48333950160463,109.88516037939489 164.18128115649486,119.07754853482001 179.1923881554251,115.19238815542512" />
<polygon fill="rgba(192,192,192,0.75)" stroke-width="1" stroke-dasharray="" stroke="silver" points="179.1923881554251,128.1923881554251 164.18128115649486,124.30722777603023 147.48333950160463,115.11483962060511 162.49444650053488,119.0" />
<polygon fill="rgba(255,255,255,0.75)" stroke-width="1" stroke-dasharray="" stroke="black" points="179.1923881554251,59.182388155425116 179.1923881554251,72.20238815542511 162.49444650053488,63.00999999999999 162.49444650053488,49.989999999999995 179.1923881554251,59.182388155425116" />
<polygon fill="rgba(255,255,255,0.75)" stroke-width="1" stroke-dasharray="" stroke="black" points="179.1923881554251,87.18238815542513 179.1923881554251,100.20238815542513 162.49444650053488,91.01 162.49444650053488,77.99000000000001 179.1923881554251,87.18238815542513" />
<polygon fill="rgba(255,255,255,0.75)" stroke-width="1" stroke-dasharray="" stroke="black" points="179.1923881554251,115.18238815542512 179.1923881554251,128.20238815542513 162.49444650053488,119.01 162.49444650053488,105.99 179.1923881554251,115.18238815542512" />
<polygon fill="rgba(255,255,255,0.75)" stroke-width="1" stroke-dasharray="" stroke="black" points="17.505553499465137,119.01 32.52666049839538,119.01 32.52666049839538,105.99 17.505553499465137,105.99 17.505553499465137,91.01 32.52666049839538,91.01 32.52666049839538,77.99000000000001 17.505553499465137,77.99000000000001 17.505553499465137,77.99000000000001 17.505553499465137,63.00999999999998 17.505553499465137,63.00999999999998 32.52666049839538,63.01 32.52666049839538,49.989999999999995 17.505553499465137,49.989999999999995 17.505553499465137,20.0 147.47333950160464,20.0 147.47333950160464,20.0 147.47333950160464,53.89516037939489 162.49444650053488,50.01258474667213 162.49444650053488,62.98741525332787 147.47333950160464,59.10483962060511 147.47333950160464,81.8951603793949 162.49444650053488,78.01258474667213 162.49444650053488,78.01258474667213 162.49444650053488,90.98741525332787 162.49444650053488,90.98741525332787 147.47333950160464,87.1048396206051 147.47333950160464,109.8951603793949 162.49444650053488,106.01258474667213 162.49444650053488,118.98741525332787 147.47333950160464,115.1048396206051 147.47333950160464,149.0 147.47333950160464,149.0 17.505553499465137,149.0 17.505553499465137,119.01" />
<polygon fill="none" stroke-width="1" stroke-dasharray="2" stroke="gray" points="469.19238815542514,119.06754853482 469.19238815542514,96.31722777603024 469.19238815542514,96.31722777603024 454.1712811564949,96.31722777603024 454.1712811564949,91.06754853482 469.19238815542514,91.06754853482002 469.19238815542514,68.31722777603024 454.1712811564949,68.31722777603022 454.1712811564949,63.067548534820006 469.19238815542514,63.067548534820006 469.19238815542514,63.067548534820006 469.19238815542514,47.19238815542512 324.21349515435537,47.19238815542512 324.21349515435537,63.08754853482 309.19238815542514,59.20497290209725 309.19238815542514,59.20497290209725 309.19238815542514,72.17980340875299 309.19238815542514,72.17980340875299 324.21349515435537,68.29722777603023 324.21349515435537,91.08754853482002 309.19238815542514,87.20497290209725 309.19238815542514,100.17980340875299 324.21349515435537,96.29722777603023 324.21349515435537,119.08754853482002 309.19238815542514,115.20497290209725 309.19238815542514,115.20497290209725 309.19238815542514,128.17980340875297 309.19238815542514,128.17980340875297 324.21349515435537,124.29722777603023 324.21349515435537,140.1923881554251 469.19238815542514,140.1923881554251 469.19238815542514,124.31722777603024 454.1712811564949,124.31722777603024 454.1712811564949,119.06754853482 469.19238815542514,119.06754853482" />
<polygon fill="rgba(192,192,192,0.75)" stroke-width="1" stroke-dasharray="" stroke="black" points="323.56471259437075,30.65685424949238 462.7701029035442,30.65685424949238 469.19238815542514,34.19238815542512 324.21349515435537,34.19238815542512 323.56471259437075,30.65685424949238" />
<polygon fill="none" stroke-width="1" stroke-dasharray="2" stroke="gray" points="323.56471259437075,43.65685424949238 324.21349515435537,47.19238815542512 469.19238815542514,47.19238815542512 462.7701029035442,43.65685424949238 323.56471259437075,43.65685424949238" />
<polygon fill="rgba(192,192,192,0.75)" stroke-width="1" stroke-dasharray="" stroke="black" points="323.56471259437075,136.65685424949237 462.7701029035442,136.65685424949237 469.19238815542514,140.1923881554251 324.21349515435537,140.1923881554251 323.56471259437075,136.65685424949237" />
<polygon fill="none" stroke-width="1" stroke-dasharray="2" stroke="gray" points="323.56471259437075,149.65685424949237 324.21349515435537,153.1923881554251 469.19238815542514,153.1923881554251 462.7701029035442,149.65685424949237 323.56471259437075,149.65685424949237" />
<polygon fill="none" stroke-width="1" stroke-dasharray="2" stroke="gray" points="307.5055534994651,49.989999999999995 307.5055534994651,63.01 309.19238815542514,72.20238815542511 309.19238815542514,59.182388155425116 307.5055534994651,49.989999999999995" />
<polygon fill="none" stroke-width="1" stroke-dasharray="2" stroke="gray" points="307.5055534994651,77.99000000000001 307.5055534994651,91.01 309.19238815542514,100.20238815542513 309.19238815542514,87.18238815542512 307.5055534994651,77.99000000000001" />
<polygon fill="none" stroke-width="1" stroke-dasharray="2" stroke="gray" points="307.5055534994651,105.99000000000001 307.5055534994651,119.01 309.19238815542514,128.20238815542513 309.19238815542514,115.18238815542512 307.5055534994651,105.99000000000001" />
<polygon fill="none" stroke-width="1" stroke-dasharray="2" stroke="gray" points="309.19238815542514,59.19238815542512 324.2034951543554,63.07754853482001 322.51666049839537,53.88516037939489 307.5055534994651,50.0" />
<polygon fill="rgba(255,255,255,0.75)" stroke-width="1" stroke-dasharray="" stroke="black" points="307.5055534994651,63.0 322.51666049839537,59.11483962060511 324.2034951543554,68.30722777603023 309.19238815542514,72.19238815542512" />
<polygon fill="none" stroke-width="1" stroke-dasharray="2" stroke="gray" points="309.19238815542514,87.19238815542512 324.2034951543554,91.07754853482001 322.51666049839537,81.88516037939489 307.5055534994651,78.0" />
<polygon fill="rgba(255,255,255,0.75)" stroke-width="1" stroke-dasharray="" stroke="black" points="307.5055534994651,91.0 322.51666049839537,87.11483962060511 324.2034951543554,96.30722777603023 309.19238815542514,100.19238815542512" />
<polygon fill="none" stroke-width="1" stroke-dasharray="2" stroke="gray" points="309.19238815542514,115.19238815542512 324.2034951543554,119.07754853482001 322.51666049839537,109.88516037939489 307.5055534994651,106.0" />
<polygon fill="rgba(255,255,255,0.75)" stroke-width="1" stroke-dasharray="" stroke="black" points="307.5055534994651,119.0 322.51666049839537,115.11483962060511 324.2034951543554,124.30722777603023 309.19238815542514,128.1923881554251" />
<polygon fill="none" stroke-width="1" stroke-dasharray="2" stroke="gray" points="322.51666049839537,53.89516037939489 324.2034951543554,63.08754853482 324.2034951543554,47.19238815542512 323.55471259437076,43.65685424949238 323.55471259437076,30.65685424949238 324.2034951543554,34.19238815542512 324.2034951543554,29.192388155425117 322.51666049839537,20.0 322.51666049839537,53.89516037939489" />
<polygon fill="none" stroke-width="1" stroke-dasharray="2" stroke="gray" points="322.51666049839537,59.10483962060511 322.51666049839537,81.89516037939488 324.2034951543554,91.08754853482 324.2034951543554,68.29722777603023 322.51666049839537,59.10483962060511" />
<polygon fill="none" stroke-width="1" stroke-dasharray="2" stroke="gray" points="322.51666049839537,87.1048396206051 322.51666049839537,109.89516037939491 324.2034951543554,119.08754853482002 324.2034951543554,96.29722777603023 322.51666049839537,87.1048396206051" />
<polygon fill="none" stroke-width="1" stroke-dasharray="2" stroke="gray" points="322.51666049839537,115.1048396206051 322.51666049839537,149.0 324.2034951543554,158.1923881554251 324.2034951543554,153.1923881554251 323.55471259437076,149.65685424949237 323.55471259437076,136.65685424949237 324.2034951543554,140.1923881554251 324.2034951543554,124.29722777603023 322.51666049839537,115.1048396206051" />
<polygon fill="none" stroke-width="1" stroke-dasharray="2" stroke="gray" points="322.52666049839536,20.0 324.21349515435537,29.192388155425117 469.19238815542514,29.192388155425117 452.4944465005349,20.0 322.52666049839536,20.0" />
<polygon fill="rgba(192,192,192,0.75)" stroke-width="1" stroke-dasharray="" stroke="black" points="322.52666049839536,149.0 452.4944465005349,149.0 469.19238815542514,158.1923881554251 324.21349515435537,158.1923881554251 322.52666049839536,149.0" />
<polygon fill="rgba(255,255,255,0.75)" stroke-width="1" stroke-dasharray="" stroke="black" points="454.1812811564949,63.064564540673004 454.1812811564949,68.32021177017722 437.48333950160463,63.007016005853 437.48333950160463,49.992983994147 454.1812811564949,63.064564540673004" />
<polygon fill="rgba(255,255,255,0.75)" stroke-width="1" stroke-dasharray="" stroke="black" points="454.1812811564949,91.064564540673 454.1812811564949,96.32021177017724 437.48333950160463,91.00701600585299 437.48333950160463,77.992983994147 454.1812811564949,91.064564540673" />
<polygon fill="rgba(255,255,255,0.75)" stroke-width="1" stroke-dasharray="" stroke="black" points="454.1812811564949,119.064564540673 454.1812811564949,124.32021177017724 437.48333950160463,119.007016005853 437.48333950160463,105.992983994147 454.1812811564949,119.064564540673" />
<polygon fill="rgba(255,255,255,0.75)" stroke-width="1" stroke-dasharray="" stroke="black" points="469.19238815542514,63.07754853482001 454.1812811564949,63.07754853482001 437.48333950160463,50.0 452.4944465005349,50.0" />
<polygon fill="none" stroke-width="1" stroke-dasharray="2" stroke="gray" points="452.4944465005349,63.0 437.48333950160463,63.0 454.1812811564949,68.30722777603023 469.19238815542514,68.30722777603023" />
<polygon fill="rgba(255,255,255,0.75)" stroke-width="1" stroke-dasharray="" stroke="black" points="469.19238815542514,91.07754853482001 454.1812811564949,91.07754853482001 437.48333950160463,78.0 452.4944465005349,78.0" />
<polygon fill="none" stroke-width="1" stroke-dasharray="2" stroke="gray" points="452.4944465005349,91.0 437.48333950160463,91.0 454.1812811564949,96.30722777603023 469.19238815542514,96.30722777603023" />
<polygon fill="rgba(255,255,255,0.75)" stroke-width="1" stroke-dasharray="" stroke="black" points="469.19238815542514,119.07754853482001 454.1812811564949,119.07754853482001 437.48333950160463,106.0 452.4944465005349,106.0" />
<polygon fill="none" stroke-width="1" stroke-dasharray="2" stroke="gray" points="452.4944465005349,119.0 437.48333950160463,119.0 454.1812811564949,124.30722777603023 469.19238815542514,124.30722777603023" />
<polygon fill="rgba(255,255,255,0.75)" stroke-width="1" stroke-dasharray="" stroke="black" points="469.19238815542514,63.084564540673 452.4944465005349,50.01298399414701 452.4944465005349,20.0 469.19238815542514,29.192388155425117 469.19238815542514,34.19238815542512 462.7701029035442,30.65685424949238 462.7701029035442,43.65685424949238 469.19238815542514,47.19238815542512 469.19238815542514,63.084564540673" />
<polygon fill="rgba(255,255,255,0.75)" stroke-width="1" stroke-dasharray="" stroke="black" points="469.19238815542514,68.30021177017723 469.19238815542514,91.084564540673 452.4944465005349,78.012983994147 452.4944465005349,62.98701600585301 469.19238815542514,68.30021177017723" />
<polygon fill="rgba(255,255,255,0.75)" stroke-width="1" stroke-dasharray="" stroke="black" points="469.19238815542514,96.30021177017723 469.19238815542514,119.08456454067303 452.4944465005349,106.012983994147 452.4944465005349,90.987016005853 469.19238815542514,96.30021177017723" />
<polygon fill="rgba(255,255,255,0.75)" stroke-width="1" stroke-dasharray="" stroke="black" points="469.19238815542514,124.30021177017723 469.19238815542514,140.1923881554251 462.7701029035442,136.65685424949237 462.7701029035442,149.65685424949237 469.19238815542514,153.1923881554251 469.19238815542514,158.1923881554251 452.4944465005349,149.0 452.4944465005349,118.987016005853 469.19238815542514,124.30021177017723" />
<polygon fill="rgba(255,255,255,0.75)" stroke-width="1" stroke-dasharray="" stroke="black" points="452.4944465005349,119.01 452.4944465005349,149.0 322.52666049839536,149.0 322.52666049839536,149.0 322.52666049839536,115.1048396206051 307.5055534994651,118.98741525332787 307.5055534994651,106.01258474667213 322.52666049839536,109.8951603793949 322.52666049839536,87.1048396206051 307.5055534994651,90.98741525332787 307.5055534994651,90.98741525332787 307.5055534994651,78.01258474667213 307.5055534994651,78.01258474667213 322.52666049839536,81.8951603793949 322.52666049839536,59.10483962060511 307.5055534994651,62.98741525332787 307.5055534994651,50.01258474667213 322.52666049839536,53.89516037939489 322.52666049839536,20.0 322.52666049839536,20.0 452.4944465005349,20.0 452.4944465005349,49.99000000000001 437.47333950160464,49.989999999999995 437.47333950160464,63.01 452.4944465005349,63.00999999999998 452.4944465005349,63.00999999999998 452.4944465005349,77.99000000000001 452.4944465005349,77.99000000000001 437.47333950160464,77.99000000000001 437.47333950160464,91.01 452.4944465005349,91.01 452.4944465005349,105.99 437.47333950160464,105.99 437.47333950160464,119.01 452.4944465005349,119.01" />
<circle cx="430" cy="32.0" r="5" stroke="orange" fill="white" stroke-width="1" />
<circle cx="430" cy="75.0" r="5" stroke="orange" fill="white" stroke-width="1" />
<circle cx="430" cy="118.0" r="5" stroke="orange" fill="white" stroke-width="1" />
</svg>
