<svg width="1100" viewBox="0.0 0.0 550.0 178.2" xmlns="http://www.w3.org/2000/svg">
<polygon fill="none" stroke-width="1" stroke-dasharray="2" stroke="gray" points="19.2,119.1 34.2,119.1 34.2,124.3 19.2,124.3 19.2,140.2 164.2,140.2 164.2,124.3 179.2,128.2 179.2,128.2 179.2,115.2 179.2,115.2 164.2,119.1 164.2,96.3 179.2,100.2 179.2,87.2 164.2,91.1 164.2,68.3 179.2,72.2 179.2,72.2 179.2,59.2 179.2,59.2 164.2,63.1 164.2,47.2 19.2,47.2 19.2,63.1 19.2,63.1 34.2,63.1 34.2,68.3 19.2,68.3 19.2,91.1 34.2,91.1 34.2,96.3 19.2,96.3 19.2,96.3 19.2,119.1" />
<polygon fill="rgba(192,192,192,0.75)" stroke-width="1" stroke-dasharray="" stroke="black" points="157.7,30.7 164.2,34.2 19.2,34.2 18.5,30.7 157.7,30.7" />
<polygon fill="none" stroke-width="1" stroke-dasharray="2" stroke="gray" points="157.7,43.7 18.5,43.7 19.2,47.2 164.2,47.2 157.7,43.7" />
<polygon fill="rgba(192,192,192,0.75)" stroke-width="1" stroke-dasharray="" stroke="black" points="157.7,136.7 164.2,140.2 19.2,140.2 18.5,136.7 157.7,136.7" />
<polygon fill="none" stroke-width="1" stroke-dasharray="2" stroke="gray" points="157.7,149.7 18.5,149.7 19.2,153.2 164.2,153.2 157.7,149.7" />
<polygon fill="none" stroke-width="1" stroke-dasharray="2" stroke="gray" points="17.5,50.0 19.2,63.1 19.2,47.2 18.5,43.7 18.5,30.7 19.2,34.2 19.2,29.2 17.5,20.0 17.5,50.0" />
<polygon fill="none" stroke-width="1" stroke-dasharray="2" stroke="gray" points="17.5,63.0 17.5,78.0 19.2,91.1 19.2,68.3 17.5,63.0" />
<polygon fill="none" stroke-width="1" stroke-dasharray="2" stroke="gray" points="17.5,91.0 17.5,106.0 19.2,119.1 19.2,96.3 17.5,91.0" />
<polygon fill="none" stroke-width="1" stroke-dasharray="2" stroke="gray" points="17.5,119.0 17.5,149.0 19.2,158.2 19.2,153.2 18.5,149.7 18.5,136.7 19.2,140.2 19.2,124.3 17.5,119.0" />
<polygon fill="rgba(255,255,255,0.75)" stroke-width="1" stroke-dasharray="" stroke="black" points="17.5,50.0 32.5,50.0 34.2,63.1 19.2,63.1" />
<polygon fill="none" stroke-width="1" stroke-dasharray="2" stroke="gray" points="19.2,68.3 34.2,68.3 32.5,63.0 17.5,63.0" />
<polygon fill="rgba(255,255,255,0.75)" stroke-width="1" stroke-dasharray="" stroke="black" points="17.5,78.0 32.5,78.0 34.2,91.1 19.2,91.1" />
<polygon fill="none" stroke-width="1" stroke-dasharray="2" stroke="gray" points="19.2,96.3 34.2,96.3 32.5,91.0 17.5,91.0" />
<polygon fill="rgba(255,255,255,0.75)" stroke-width="1" stroke-dasharray="" stroke="black" points="17.5,106.0 32.5,106.0 34.2,119.1 19.2,119.1" />
<polygon fill="none" stroke-width="1" stroke-dasharray="2" stroke="gray" points="19.2,124.3 34.2,124.3 32.5,119.0 17.5,119.0" />
<polygon fill="none" stroke-width="1" stroke-dasharray="2" stroke="gray" points="32.5,50.0 32.5,63.0 34.2,68.3 34.2,63.1 32.5,50.0" />
<polygon fill="none" stroke-width="1" stroke-dasharray="2" stroke="gray" points="32.5,78.0 32.5,91.0 34.2,96.3 34.2,91.1 32.5,78.0" />
<polygon fill="none" stroke-width="1" stroke-dasharray="2" stroke="gray" points="32.5,106.0 32.5,119.0 34.2,124.3 34.2,119.1 32.5,106.0" />
<polygon fill="none" stroke-width="1" stroke-dasharray="2" stroke="gray" points="147.5,20.0 17.5,20.0 19.2,29.2 164.2,29.2 147.5,20.0" />
<polygon fill="rgba(192,192,192,0.75)" stroke-width="1" stroke-dasharray="" stroke="black" points="147.5,149.0 164.2,158.2 19.2,158.2 17.5,149.0 147.5,149.0" />
<polygon fill="rgba(255,255,255,0.75)" stroke-width="1" stroke-dasharray="" stroke="black" points="164.2,63.1 147.5,53.9 147.5,20.0 164.2,29.2 164.2,34.2 157.8,30.7 157.8,43.7 164.2,47.2 164.2,63.1" />
<polygon fill="rgba(255,255,255,0.75)" stroke-width="1" stroke-dasharray="" stroke="black" points="164.2,68.3 164.2,91.1 147.5,81.9 147.5,59.1 164.2,68.3" />
<polygon fill="rgba(255,255,255,0.75)" stroke-width="1" stroke-dasharray="" stroke="black" points="164.2,96.3 164.2,119.1 147.5,109.9 147.5,87.1 164.2,96.3" />
<polygon fill="rgba(255,255,255,0.75)" stroke-width="1" stroke-dasharray="" stroke="black" points="164.2,124.3 164.2,140.2 157.8,136.7 157.8,149.7 164.2,153.2 164.2,158.2 147.5,149.0 147.5,115.1 164.2,124.3" />
<polygon fill="none" stroke-width="1" stroke-dasharray="2" stroke="gray" points="162.5,50.0 147.5,53.9 164.2,63.1 179.2,59.2" />
<polygon fill="rgba(192,192,192,0.75)" stroke-width="1" stroke-dasharray="" stroke="silver" points="179.2,72.2 164.2,68.3 147.5,59.1 162.5,63.0" />
<polygon fill="none" stroke-width="1" stroke-dasharray="2" stroke="gray" points="162.5,78.0 147.5,81.9 164.2,91.1 179.2,87.2" />
<polygon fill="rgba(192,192,192,0.75)" stroke-width="1" stroke-dasharray="" stroke="silver" points="179.2,100.2 164.2,96.3 147.5,87.1 162.5,91.0" />
<polygon fill="none" stroke-width="1" stroke-dasharray="2" stroke="gray" points="162.5,106.0 147.5,109.9 164.2,119.1 179.2,115.2" />
<polygon fill="rgba(192,192,192,0.75)" stroke-width="1" stroke-dasharray="" stroke="silver" points="179.2,128.2 164.2,124.3 147.5,115.1 162.5,119.0" />
<polygon fill="rgba(255,255,255,0.75)" stroke-width="1" stroke-dasharray="" stroke="black" points="179.2,59.2 179.2,72.2 162.5,63.0 162.5,50.0 179.2,59.2" />
<polygon fill="rgba(255,255,255,0.75)" stroke-width="1" stroke-dasharray="" stroke="black" points="179.2,87.2 179.2,100.2 162.5,91.0 162.5,78.0 179.2,87.2" />
<polygon fill="rgba(255,255,255,0.75)" stroke-width="1" stroke-dasharray="" stroke="black" points="179.2,115.2 179.2,128.2 162.5,119.0 162.5,106.0 179.2,115.2" />
<polygon fill="rgba(255,255,255,0.75)" stroke-width="1" stroke-dasharray="" stroke="black" points="17.5,119.0 32.5,119.0 32.5,106.0 17.5,106.0 17.5,91.0 32.5,91.0 32.5,78.0 17.5,78.0 17.5,78.0 17.5,63.0 17.5,63.0 32.5,63.0 32.5,50.0 17.5,50.0 17.5,20.0 147.5,20.0 147.5,20.0 147.5,53.9 162.5,50.0 162.5,63.0 147.5,59.1 147.5,81.9 162.5,78.0 162.5,78.0 162.5,91.0 162.5,91.0 147.5,87.1 147.5,109.9 162.5,106.0 162.5,119.0 147.5,115.1 147.5,149.0 147.5,149.0 17.5,149.0 17.5,119.0" />
<polygon fill="none" stroke-width="1" stroke-dasharray="2" stroke="gray" points="469.2,119.1 469.2,96.3 469.2,96.3 454.2,96.3 454.2,91.1 469.2,91.1 469.2,68.3 454.2,68.3 454.2,63.1 469.2,63.1 469.2,63.1 469.2,47.2 324.2,47.2 324.2,63.1 309.2,59.2 309.2,59.2 309.2,72.2 309.2,72.2 324.2,68.3 324.2,91.1 309.2,87.2 309.2,100.2 324.2,96.3 324.2,119.1 309.2,115.2 309.2,115.2 309.2,128.2 309.2,128.2 324.2,124.3 324.2,140.2 469.2,140.2 469.2,124.3 454.2,124.3 454.2,119.1 469.2,119.1" />
<polygon fill="rgba(192,192,192,0.75)" stroke-width="1" stroke-dasharray="" stroke="black" points="323.6,30.7 462.8,30.7 469.2,34.2 324.2,34.2 323.6,30.7" />
<polygon fill="none" stroke-width="1" stroke-dasharray="2" stroke="gray" points="323.6,43.7 324.2,47.2 469.2,47.2 462.8,43.7 323.6,43.7" />
<polygon fill="rgba(192,192,192,0.75)" stroke-width="1" stroke-dasharray="" stroke="black" points="323.6,136.7 462.8,136.7 469.2,140.2 324.2,140.2 323.6,136.7" />
<polygon fill="none" stroke-width="1" stroke-dasharray="2" stroke="gray" points="323.6,149.7 324.2,153.2 469.2,153.2 462.8,149.7 323.6,149.7" />
<polygon fill="none" stroke-width="1" stroke-dasharray="2" stroke="gray" points="307.5,50.0 307.5,63.0 309.2,72.2 309.2,59.2 307.5,50.0" />
<polygon fill="none" stroke-width="1" stroke-dasharray="2" stroke="gray" points="307.5,78.0 307.5,91.0 309.2,100.2 309.2,87.2 307.5,78.0" />
<polygon fill="none" stroke-width="1" stroke-dasharray="2" stroke="gray" points="307.5,106.0 307.5,119.0 309.2,128.2 309.2,115.2 307.5,106.0" />
<polygon fill="none" stroke-width="1" stroke-dasharray="2" stroke="gray" points="309.2,59.2 324.2,63.1 322.5,53.9 307.5,50.0" />
<polygon fill="rgba(255,255,255,0.75)" stroke-width="1" stroke-dasharray="" stroke="black" points="307.5,63.0 322.5,59.1 324.2,68.3 309.2,72.2" />
<polygon fill="none" stroke-width="1" stroke-dasharray="2" stroke="gray" points="309.2,87.2 324.2,91.1 322.5,81.9 307.5,78.0" />
<polygon fill="rgba(255,255,255,0.75)" stroke-width="1" stroke-dasharray="" stroke="black" points="307.5,91.0 322.5,87.1 324.2,96.3 309.2,100.2" />
<polygon fill="none" stroke-width="1" stroke-dasharray="2" stroke="gray" points="309.2,115.2 324.2,119.1 322.5,109.9 307.5,106.0" />
<polygon fill="rgba(255,255,255,0.75)" stroke-width="1" stroke-dasharray="" stroke="black" points="307.5,119.0 322.5,115.1 324.2,124.3 309.2,128.2" />
<polygon fill="none" stroke-width="1" stroke-dasharray="2" stroke="gray" points="322.5,53.9 324.2,63.1 324.2,47.2 323.6,43.7 323.6,30.7 324.2,34.2 324.2,29.2 322.5,20.0 322.5,53.9" />
<polygon fill="none" stroke-width="1" stroke-dasharray="2" stroke="gray" points="322.5,59.1 322.5,81.9 324.2,91.1 324.2,68.3 322.5,59.1" />
<polygon fill="none" stroke-width="1" stroke-dasharray="2" stroke="gray" points="322.5,87.1 322.5,109.9 324.2,119.1 324.2,96.3 322.5,87.1" />
<polygon fill="none" stroke-width="1" stroke-dasharray="2" stroke="gray" points="322.5,115.1 322.5,149.0 324.2,158.2 324.2,153.2 323.6,149.7 323.6,136.7 324.2,140.2 324.2,124.3 322.5,115.1" />
<polygon fill="none" stroke-width="1" stroke-dasharray="2" stroke="gray" points="322.5,20.0 324.2,29.2 469.2,29.2 452.5,20.0 322.5,20.0" />
<polygon fill="rgba(192,192,192,0.75)" stroke-width="1" stroke-dasharray="" stroke="black" points="322.5,149.0 452.5,149.0 469.2,158.2 324.2,158.2 322.5,149.0" />
<polygon fill="rgba(255,255,255,0.75)" stroke-width="1" stroke-dasharray="" stroke="black" points="454.2,63.1 454.2,68.3 437.5,63.0 437.5,50.0 454.2,63.1" />
<polygon fill="rgba(255,255,255,0.75)" stroke-width="1" stroke-dasharray="" stroke="black" points="454.2,91.1 454.2,96.3 437.5,91.0 437.5,78.0 454.2,91.1" />
<polygon fill="rgba(255,255,255,0.75)" stroke-width="1" stroke-dasharray="" stroke="black" points="454.2,119.1 454.2,124.3 437.5,119.0 437.5,106.0 454.2,119.1" />
<polygon fill="rgba(255,255,255,0.75)" stroke-width="1" stroke-dasharray="" stroke="black" points="469.2,63.1 454.2,63.1 437.5,50.0 452.5,50.0" />
<polygon fill="none" stroke-width="1" stroke-dasharray="2" stroke="gray" points="452.5,63.0 437.5,63.0 454.2,68.3 469.2,68.3" />
<polygon fill="rgba(255,255,255,0.75)" stroke-width="1" stroke-dasharray="" stroke="black" points="469.2,91.1 454.2,91.1 437.5,78.0 452.5,78.0" />
<polygon fill="none" stroke-width="1" stroke-dasharray="2" stroke="gray" points="452.5,91.0 437.5,91.0 454.2,96.3 469.2,96.3" />
<polygon fill="rgba(255,255,255,0.75)" stroke-width="1" stroke-dasharray="" stroke="black" points="469.2,119.1 454.2,119.1 437.5,106.0 452.5,106.0" />
<polygon fill="none" stroke-width="1" stroke-dasharray="2" stroke="gray" points="452.5,119.0 437.5,119.0 454.2,124.3 469.2,124.3" />
<polygon fill="rgba(255,255,255,0.75)" stroke-width="1" stroke-dasharray="" stroke="black" points="469.2,63.1 452.5,50.0 452.5,20.0 469.2,29.2 469.2,34.2 462.8,30.7 462.8,43.7 469.2,47.2 469.2,63.1" />
<polygon fill="rgba(255,255,255,0.75)" stroke-width="1" stroke-dasharray="" stroke="black" points="469.2,68.3 469.2,91.1 452.5,78.0 452.5,63.0 469.2,68.3" />
<polygon fill="rgba(255,255,255,0.75)" stroke-width="1" stroke-dasharray="" stroke="black" points="469.2,96.3 469.2,119.1 452.5,106.0 452.5,91.0 469.2,96.3" />
<polygon fill="rgba(255,255,255,0.75)" stroke-width="1" stroke-dasharray="" stroke="black" points="469.2,124.3 469.2,140.2 462.8,136.7 462.8,149.7 469.2,153.2 469.2,158.2 452.5,149.0 452.5,119.0 469.2,124.3" />
<polygon fill="rgba(255,255,255,0.75)" stroke-width="1" stroke-dasharray="" stroke="black" points="452.5,119.0 452.5,149.0 322.5,149.0 322.5,149.0 322.5,115.1 307.5,119.0 307.5,106.0 322.5,109.9 322.5,87.1 307.5,91.0 307.5,91.0 307.5,78.0 307.5,78.0 322.5,81.9 322.5,59.1 307.5,63.0 307.5,50.0 322.5,53.9 322.5,20.0 322.5,20.0 452.5,20.0 452.5,50.0 437.5,50.0 437.5,63.0 452.5,63.0 452.5,63.0 452.5,78.0 452.5,78.0 437.5,78.0 437.5,91.0 452.5,91.0 452.5,106.0 437.5,106.0 437.5,119.0 452.5,119.0" />
<circle cx="430" cy="32.0" r="5" stroke="orange" fill="white" stroke-width="1" />
<circle cx="430" cy="75.0" r="5" stroke="orange" fill="white" stroke-width="1" />
<circle cx="430" cy="118.0" r="5" stroke="orange" fill="white" stroke-width="1" />
</svg>
