<svg width="1100" viewBox="0 0 550 494.57716446627535" xmlns="http://www.w3.org/2000/svg">
<polygon fill="none" stroke-width="1" stroke-dasharray="2" stroke="gray" points="19.19238815542512,29.192388155425117 19.19238815542512,34.19238815542512 179.1923881554251,34.19238815542512 179.1923881554251,29.192388155425117" />
<polygon fill="none" stroke-width="1" stroke-dasharray="2" stroke="gray" points="19.19238815542512,47.19238815542512 19.19238815542512,140.1923881554251 179.1923881554251,140.1923881554251 179.1923881554251,47.19238815542512" />
<polygon fill="none" stroke-width="1" stroke-dasharray="2" stroke="gray" points="19.19238815542512,153.1923881554251 19.19238815542512,158.1923881554251 179.1923881554251,158.1923881554251 179.1923881554251,153.1923881554251" />
<polygon fill="rgba(192,192,192,0.75)" stroke-width="1" stroke-dasharray="" stroke="black" points="18.54360559544051,30.65685424949238 172.77010290354426,30.65685424949238 179.1923881554251,34.19238815542512 19.19238815542512,34.19238815542512" />
<polygon fill="none" stroke-width="1" stroke-dasharray="2" stroke="gray" points="19.19238815542512,47.19238815542512 179.1923881554251,47.19238815542512 172.77010290354426,43.65685424949238 18.54360559544051,43.65685424949238" />
<polygon fill="rgba(192,192,192,0.75)" stroke-width="1" stroke-dasharray="" stroke="black" points="18.54360559544051,136.65685424949237 172.77010290354426,136.65685424949237 179.1923881554251,140.1923881554251 19.19238815542512,140.1923881554251" />
<polygon fill="none" stroke-width="1" stroke-dasharray="2" stroke="gray" points="19.19238815542512,153.1923881554251 179.1923881554251,153.1923881554251 172.77010290354426,149.65685424949237 18.54360559544051,149.65685424949237" />
<polygon fill="none" stroke-width="1" stroke-dasharray="2" stroke="gray" points="18.54360559544051,30.65685424949238 18.54360559544051,43.65685424949238 172.77010290354426,43.65685424949238 172.77010290354426,30.65685424949238" />
<polygon fill="none" stroke-width="1" stroke-dasharray="2" stroke="gray" points="18.54360559544051,136.65685424949237 18.54360559544051,149.65685424949237 172.77010290354426,149.65685424949237 172.77010290354426,136.65685424949237" />
<polygon fill="none" stroke-width="1" stroke-dasharray="2" stroke="gray" points="17.505553499465137,20.0 17.505553499465137,149.0 19.19238815542512,158.1923881554251 19.19238815542512,153.1923881554251 18.54360559544051,149.65685424949237 18.54360559544051,136.65685424949237 19.19238815542512,140.1923881554251 19.19238815542512,47.19238815542512 18.54360559544051,43.65685424949238 18.54360559544051,30.65685424949238 19.19238815542512,34.19238815542512 19.19238815542512,29.192388155425117" />
<polygon fill="none" stroke-width="1" stroke-dasharray="2" stroke="gray" points="19.19238815542512,29.192388155425117 179.1923881554251,29.192388155425117 162.49444650053488,20.0 17.505553499465137,20.0" />
<polygon fill="rgba(192,192,192,0.75)" stroke-width="1" stroke-dasharray="" stroke="black" points="17.505553499465137,149.0 162.49444650053488,149.0 179.1923881554251,158.1923881554251 19.19238815542512,158.1923881554251" />
<polygon fill="rgba(255,255,255,0.75)" stroke-width="1" stroke-dasharray="" stroke="black" points="179.1923881554251,29.192388155425117 179.1923881554251,34.19238815542512 172.77010290354426,30.65685424949238 172.77010290354426,43.65685424949238 179.1923881554251,47.19238815542512 179.1923881554251,140.1923881554251 172.77010290354426,136.65685424949237 172.77010290354426,149.65685424949237 179.1923881554251,153.1923881554251 179.1923881554251,158.1923881554251 162.49444650053488,149.0 162.49444650053488,20.0" />
<polygon fill="rgba(255,255,255,0.75)" stroke-width="1" stroke-dasharray="" stroke="black" points="17.505553499465137,20.0 162.49444650053488,20.0 162.49444650053488,149.0 17.505553499465137,149.0" />
<polygon fill="none" stroke-width="1" stroke-dasharray="2" stroke="gray" points="19.19238815542512,187.3847763108502 19.19238815542512,192.3847763108502 179.1923881554251,192.3847763108502 179.1923881554251,187.3847763108502" />
<polygon fill="none" stroke-width="1" stroke-dasharray="2" stroke="gray" points="19.19238815542512,205.3847763108502 19.19238815542512,298.3847763108502 179.1923881554251,298.3847763108502 179.1923881554251,205.3847763108502" />
<polygon fill="none" stroke-width="1" stroke-dasharray="2" stroke="gray" points="19.19238815542512,311.3847763108502 19.19238815542512,316.3847763108502 179.1923881554251,316.3847763108502 179.1923881554251,311.3847763108502" />
<polygon fill="rgba(192,192,192,0.75)" stroke-width="1" stroke-dasharray="" stroke="black" points="18.54360559544051,188.84924240491748 172.77010290354426,188.84924240491748 179.1923881554251,192.3847763108502 19.19238815542512,192.3847763108502" />
<polygon fill="none" stroke-width="1" stroke-dasharray="2" stroke="gray" points="19.19238815542512,205.3847763108502 179.1923881554251,205.3847763108502 172.77010290354426,201.84924240491748 18.54360559544051,201.84924240491748" />
<polygon fill="rgba(192,192,192,0.75)" stroke-width="1" stroke-dasharray="" stroke="black" points="18.54360559544051,294.84924240491745 172.77010290354426,294.84924240491745 179.1923881554251,298.3847763108502 19.19238815542512,298.3847763108502" />
<polygon fill="none" stroke-width="1" stroke-dasharray="2" stroke="gray" points="19.19238815542512,311.3847763108502 179.1923881554251,311.3847763108502 172.77010290354426,307.84924240491745 18.54360559544051,307.84924240491745" />
<polygon fill="none" stroke-width="1" stroke-dasharray="2" stroke="gray" points="18.54360559544051,188.84924240491748 18.54360559544051,201.84924240491748 172.77010290354426,201.84924240491748 172.77010290354426,188.84924240491748" />
<polygon fill="none" stroke-width="1" stroke-dasharray="2" stroke="gray" points="18.54360559544051,294.84924240491745 18.54360559544051,307.84924240491745 172.77010290354426,307.84924240491745 172.77010290354426,294.84924240491745" />
<polygon fill="none" stroke-width="1" stroke-dasharray="2" stroke="gray" points="17.505553499465137,178.1923881554251 17.505553499465137,307.1923881554251 19.19238815542512,316.3847763108502 19.19238815542512,311.3847763108502 18.54360559544051,307.84924240491745 18.54360559544051,294.84924240491745 19.19238815542512,298.3847763108502 19.19238815542512,205.3847763108502 18.54360559544051,201.84924240491748 18.54360559544051,188.84924240491748 19.19238815542512,192.3847763108502 19.19238815542512,187.3847763108502" />
<polygon fill="none" stroke-width="1" stroke-dasharray="2" stroke="gray" points="19.19238815542512,187.3847763108502 179.1923881554251,187.3847763108502 162.49444650053488,178.1923881554251 17.505553499465137,178.1923881554251" />
<polygon fill="rgba(192,192,192,0.75)" stroke-width="1" stroke-dasharray="" stroke="black" points="17.505553499465137,307.1923881554251 162.49444650053488,307.1923881554251 179.1923881554251,316.3847763108502 19.19238815542512,316.3847763108502" />
<polygon fill="rgba(255,255,255,0.75)" stroke-width="1" stroke-dasharray="" stroke="black" points="179.1923881554251,187.3847763108502 179.1923881554251,192.3847763108502 172.77010290354426,188.84924240491748 172.77010290354426,201.84924240491748 179.1923881554251,205.3847763108502 179.1923881554251,298.3847763108502 172.77010290354426,294.84924240491745 172.77010290354426,307.84924240491745 179.1923881554251,311.3847763108502 179.1923881554251,316.3847763108502 162.49444650053488,307.1923881554251 162.49444650053488,178.1923881554251" />
<polygon fill="rgba(255,255,255,0.75)" stroke-width="1" stroke-dasharray="" stroke="black" points="17.505553499465137,178.1923881554251 162.49444650053488,178.1923881554251 162.49444650053488,307.1923881554251 17.505553499465137,307.1923881554251" />
<circle cx="140" cy="190.1923881554251" r="5" stroke="orange" fill="white" stroke-width="1" />
<circle cx="140" cy="233.1923881554251" r="5" stroke="orange" fill="white" stroke-width="1" />
<circle cx="140" cy="276.1923881554251" r="5" stroke="orange" fill="white" stroke-width="1" />
<polygon fill="none" stroke-width="1" stroke-dasharray="2" stroke="gray" points="19.19238815542512,345.57716446627535 19.19238815542512,350.57716446627535 179.1923881554251,350.57716446627535 179.1923881554251,345.57716446627535" />
<polygon fill="none" stroke-width="1" stroke-dasharray="2" stroke="gray" points="19.19238815542512,363.57716446627535 19.19238815542512,456.57716446627535 179.1923881554251,456.57716446627535 179.1923881554251,363.57716446627535" />
<polygon fill="none" stroke-width="1" stroke-dasharray="2" stroke="gray" points="19.19238815542512,469.57716446627535 19.19238815542512,474.57716446627535 179.1923881554251,474.57716446627535 179.1923881554251,469.57716446627535" />
<polygon fill="rgba(192,192,192,0.75)" stroke-width="1" stroke-dasharray="" stroke="black" points="18.54360559544051,347.0416305603426 172.77010290354426,347.0416305603426 179.1923881554251,350.57716446627535 19.19238815542512,350.57716446627535" />
<polygon fill="none" stroke-width="1" stroke-dasharray="2" stroke="gray" points="19.19238815542512,363.57716446627535 179.1923881554251,363.57716446627535 172.77010290354426,360.0416305603426 18.54360559544051,360.0416305603426" />
<polygon fill="rgba(192,192,192,0.75)" stroke-width="1" stroke-dasharray="" stroke="black" points="18.54360559544051,453.0416305603426 172.77010290354426,453.0416305603426 179.1923881554251,456.57716446627535 19.19238815542512,456.57716446627535" />
<polygon fill="none" stroke-width="1" stroke-dasharray="2" stroke="gray" points="19.19238815542512,469.57716446627535 179.1923881554251,469.57716446627535 172.77010290354426,466.0416305603426 18.54360559544051,466.0416305603426" />
<polygon fill="none" stroke-width="1" stroke-dasharray="2" stroke="gray" points="18.54360559544051,347.0416305603426 18.54360559544051,360.0416305603426 172.77010290354426,360.0416305603426 172.77010290354426,347.0416305603426" />
<polygon fill="none" stroke-width="1" stroke-dasharray="2" stroke="gray" points="18.54360559544051,453.0416305603426 18.54360559544051,466.0416305603426 172.77010290354426,466.0416305603426 172.77010290354426,453.0416305603426" />
<polygon fill="none" stroke-width="1" stroke-dasharray="2" stroke="gray" points="17.505553499465137,336.3847763108502 17.505553499465137,465.3847763108502 19.19238815542512,474.57716446627535 19.19238815542512,469.57716446627535 18.54360559544051,466.0416305603426 18.54360559544051,453.0416305603426 19.19238815542512,456.57716446627535 19.19238815542512,363.57716446627535 18.54360559544051,360.0416305603426 18.54360559544051,347.0416305603426 19.19238815542512,350.57716446627535 19.19238815542512,345.57716446627535" />
<polygon fill="none" stroke-width="1" stroke-dasharray="2" stroke="gray" points="19.19238815542512,345.57716446627535 179.1923881554251,345.57716446627535 162.49444650053488,336.3847763108502 17.505553499465137,336.3847763108502" />
<polygon fill="rgba(192,192,192,0.75)" stroke-width="1" stroke-dasharray="" stroke="black" points="17.505553499465137,465.3847763108502 162.49444650053488,465.3847763108502 179.1923881554251,474.57716446627535 19.19238815542512,474.57716446627535" />
<polygon fill="rgba(255,255,255,0.75)" stroke-width="1" stroke-dasharray="" stroke="black" points="179.1923881554251,345.57716446627535 179.1923881554251,350.57716446627535 172.77010290354426,347.0416305603426 172.77010290354426,360.0416305603426 179.1923881554251,363.57716446627535 179.1923881554251,456.57716446627535 172.77010290354426,453.0416305603426 172.77010290354426,466.0416305603426 179.1923881554251,469.57716446627535 179.1923881554251,474.57716446627535 162.49444650053488,465.3847763108502 162.49444650053488,336.3847763108502" />
<polygon fill="rgba(255,255,255,0.75)" stroke-width="1" stroke-dasharray="" stroke="black" points="17.505553499465137,336.3847763108502 162.49444650053488,336.3847763108502 162.49444650053488,465.3847763108502 17.505553499465137,465.3847763108502" />
<rect x="20" y="455.3847763108502" width="40" height="10.0" style="fill: none; stroke: orange; stroke-width: 1;" />
<polygon fill="none" stroke-width="1" stroke-dasharray="2" stroke="gray" points="309.19238815542514,29.192388155425117 309.19238815542514,34.19238815542512 469.19238815542514,34.19238815542512 469.19238815542514,29.192388155425117" />
<polygon fill="none" stroke-width="1" stroke-dasharray="2" stroke="gray" points="309.19238815542514,47.19238815542512 309.19238815542514,140.1923881554251 469.19238815542514,140.1923881554251 469.19238815542514,47.19238815542512" />
<polygon fill="none" stroke-width="1" stroke-dasharray="2" stroke="gray" points="309.19238815542514,153.1923881554251 309.19238815542514,158.1923881554251 469.19238815542514,158.1923881554251 469.19238815542514,153.1923881554251" />
<polygon fill="rgba(192,192,192,0.75)" stroke-width="1" stroke-dasharray="" stroke="black" points="308.5436055954405,30.65685424949238 462.7701029035442,30.65685424949238 469.19238815542514,34.19238815542512 309.19238815542514,34.19238815542512" />
<polygon fill="none" stroke-width="1" stroke-dasharray="2" stroke="gray" points="309.19238815542514,47.19238815542512 469.19238815542514,47.19238815542512 462.7701029035442,43.65685424949238 308.5436055954405,43.65685424949238" />
<polygon fill="rgba(192,192,192,0.75)" stroke-width="1" stroke-dasharray="" stroke="black" points="308.5436055954405,136.65685424949237 462.7701029035442,136.65685424949237 469.19238815542514,140.1923881554251 309.19238815542514,140.1923881554251" />
<polygon fill="none" stroke-width="1" stroke-dasharray="2" stroke="gray" points="309.19238815542514,153.1923881554251 469.19238815542514,153.1923881554251 462.7701029035442,149.65685424949237 308.5436055954405,149.65685424949237" />
<polygon fill="none" stroke-width="1" stroke-dasharray="2" stroke="gray" points="308.5436055954405,30.65685424949238 308.5436055954405,43.65685424949238 462.7701029035442,43.65685424949238 462.7701029035442,30.65685424949238" />
<polygon fill="none" stroke-width="1" stroke-dasharray="2" stroke="gray" points="308.5436055954405,136.65685424949237 308.5436055954405,149.65685424949237 462.7701029035442,149.65685424949237 462.7701029035442,136.65685424949237" />
<polygon fill="none" stroke-width="1" stroke-dasharray="2" stroke="gray" points="307.5055534994651,20.0 307.5055534994651,149.0 309.19238815542514,158.1923881554251 309.19238815542514,153.1923881554251 308.5436055954405,149.65685424949237 308.5436055954405,136.65685424949237 309.19238815542514,140.1923881554251 309.19238815542514,47.19238815542512 308.5436055954405,43.65685424949238 308.5436055954405,30.65685424949238 309.19238815542514,34.19238815542512 309.19238815542514,29.192388155425117" />
<polygon fill="none" stroke-width="1" stroke-dasharray="2" stroke="gray" points="309.19238815542514,29.192388155425117 469.19238815542514,29.192388155425117 452.4944465005349,20.0 307.5055534994651,20.0" />
<polygon fill="rgba(192,192,192,0.75)" stroke-width="1" stroke-dasharray="" stroke="black" points="307.5055534994651,149.0 452.4944465005349,149.0 469.19238815542514,158.1923881554251 309.19238815542514,158.1923881554251" />
<polygon fill="rgba(255,255,255,0.75)" stroke-width="1" stroke-dasharray="" stroke="black" points="469.19238815542514,29.192388155425117 469.19238815542514,34.19238815542512 462.7701029035442,30.65685424949238 462.7701029035442,43.65685424949238 469.19238815542514,47.19238815542512 469.19238815542514,140.1923881554251 462.7701029035442,136.65685424949237 462.7701029035442,149.65685424949237 469.19238815542514,153.1923881554251 469.19238815542514,158.1923881554251 452.4944465005349,149.0 452.4944465005349,20.0" />
<polygon fill="rgba(255,255,255,0.75)" stroke-width="1" stroke-dasharray="" stroke="black" points="307.5055534994651,20.0 452.4944465005349,20.0 452.4944465005349,149.0 307.5055534994651,149.0" />
<polygon fill="none" stroke-width="1" stroke-dasharray="2" stroke="gray" points="309.19238815542514,187.3847763108502 309.19238815542514,192.3847763108502 469.19238815542514,192.3847763108502 469.19238815542514,187.3847763108502" />
<polygon fill="none" stroke-width="1" stroke-dasharray="2" stroke="gray" points="309.19238815542514,205.3847763108502 309.19238815542514,298.3847763108502 469.19238815542514,298.3847763108502 469.19238815542514,205.3847763108502" />
<polygon fill="none" stroke-width="1" stroke-dasharray="2" stroke="gray" points="309.19238815542514,311.3847763108502 309.19238815542514,316.3847763108502 469.19238815542514,316.3847763108502 469.19238815542514,311.3847763108502" />
<polygon fill="rgba(192,192,192,0.75)" stroke-width="1" stroke-dasharray="" stroke="black" points="308.5436055954405,188.84924240491748 462.7701029035442,188.84924240491748 469.19238815542514,192.3847763108502 309.19238815542514,192.3847763108502" />
<polygon fill="none" stroke-width="1" stroke-dasharray="2" stroke="gray" points="309.19238815542514,205.3847763108502 469.19238815542514,205.3847763108502 462.7701029035442,201.84924240491748 308.5436055954405,201.84924240491748" />
<polygon fill="rgba(192,192,192,0.75)" stroke-width="1" stroke-dasharray="" stroke="black" points="308.5436055954405,294.84924240491745 462.7701029035442,294.84924240491745 469.19238815542514,298.3847763108502 309.19238815542514,298.3847763108502" />
<polygon fill="none" stroke-width="1" stroke-dasharray="2" stroke="gray" points="309.19238815542514,311.3847763108502 469.19238815542514,311.3847763108502 462.7701029035442,307.84924240491745 308.5436055954405,307.84924240491745" />
<polygon fill="none" stroke-width="1" stroke-dasharray="2" stroke="gray" points="308.5436055954405,188.84924240491748 308.5436055954405,201.84924240491748 462.7701029035442,201.84924240491748 462.7701029035442,188.84924240491748" />
<polygon fill="none" stroke-width="1" stroke-dasharray="2" stroke="gray" points="308.5436055954405,294.84924240491745 308.5436055954405,307.84924240491745 462.7701029035442,307.84924240491745 462.7701029035442,294.84924240491745" />
<polygon fill="none" stroke-width="1" stroke-dasharray="2" stroke="gray" points="307.5055534994651,178.1923881554251 307.5055534994651,307.1923881554251 309.19238815542514,316.3847763108502 309.19238815542514,311.3847763108502 308.5436055954405,307.84924240491745 308.5436055954405,294.84924240491745 309.19238815542514,298.3847763108502 309.19238815542514,205.3847763108502 308.5436055954405,201.84924240491748 308.5436055954405,188.84924240491748 309.19238815542514,192.3847763108502 309.19238815542514,187.3847763108502" />
<polygon fill="none" stroke-width="1" stroke-dasharray="2" stroke="gray" points="309.19238815542514,187.3847763108502 469.19238815542514,187.3847763108502 452.4944465005349,178.1923881554251 307.5055534994651,178.1923881554251" />
<polygon fill="rgba(192,192,192,0.75)" stroke-width="1" stroke-dasharray="" stroke="black" points="307.5055534994651,307.1923881554251 452.4944465005349,307.1923881554251 469.19238815542514,316.3847763108502 309.19238815542514,316.3847763108502" />
<polygon fill="rgba(255,255,255,0.75)" stroke-width="1" stroke-dasharray="" stroke="black" points="469.19238815542514,187.3847763108502 469.19238815542514,192.3847763108502 462.7701029035442,188.84924240491748 462.7701029035442,201.84924240491748 469.19238815542514,205.3847763108502 469.19238815542514,298.3847763108502 462.7701029035442,294.84924240491745 462.7701029035442,307.84924240491745 469.19238815542514,311.3847763108502 469.19238815542514,316.3847763108502 452.4944465005349,307.1923881554251 452.4944465005349,178.1923881554251" />
<polygon fill="rgba(255,255,255,0.75)" stroke-width="1" stroke-dasharray="" stroke="black" points="307.5055534994651,178.1923881554251 452.4944465005349,178.1923881554251 452.4944465005349,307.1923881554251 307.5055534994651,307.1923881554251" />
<circle cx="430" cy="190.1923881554251" r="5" stroke="orange" fill="white" stroke-width="1" />
<circle cx="430" cy="233.1923881554251" r="5" stroke="orange" fill="white" stroke-width="1" />
<circle cx="430" cy="276.1923881554251" r="5" stroke="orange" fill="white" stroke-width="1" />
<polygon fill="none" stroke-width="1" stroke-dasharray="2" stroke="gray" points="309.19238815542514,345.57716446627535 309.19238815542514,350.57716446627535 469.19238815542514,350.57716446627535 469.19238815542514,345.57716446627535" />
<polygon fill="none" stroke-width="1" stroke-dasharray="2" stroke="gray" points="309.19238815542514,363.57716446627535 309.19238815542514,456.57716446627535 469.19238815542514,456.57716446627535 469.19238815542514,363.57716446627535" />
<polygon fill="none" stroke-width="1" stroke-dasharray="2" stroke="gray" points="309.19238815542514,469.57716446627535 309.19238815542514,474.57716446627535 469.19238815542514,474.57716446627535 469.19238815542514,469.57716446627535" />
<polygon fill="rgba(192,192,192,0.75)" stroke-width="1" stroke-dasharray="" stroke="black" points="308.5436055954405,347.0416305603426 462.7701029035442,347.0416305603426 469.19238815542514,350.57716446627535 309.19238815542514,350.57716446627535" />
<polygon fill="none" stroke-width="1" stroke-dasharray="2" stroke="gray" points="309.19238815542514,363.57716446627535 469.19238815542514,363.57716446627535 462.7701029035442,360.0416305603426 308.5436055954405,360.0416305603426" />
<polygon fill="rgba(192,192,192,0.75)" stroke-width="1" stroke-dasharray="" stroke="black" points="308.5436055954405,453.0416305603426 462.7701029035442,453.0416305603426 469.19238815542514,456.57716446627535 309.19238815542514,456.57716446627535" />
<polygon fill="none" stroke-width="1" stroke-dasharray="2" stroke="gray" points="309.19238815542514,469.57716446627535 469.19238815542514,469.57716446627535 462.7701029035442,466.0416305603426 308.5436055954405,466.0416305603426" />
<polygon fill="none" stroke-width="1" stroke-dasharray="2" stroke="gray" points="308.5436055954405,347.0416305603426 308.5436055954405,360.0416305603426 462.7701029035442,360.0416305603426 462.7701029035442,347.0416305603426" />
<polygon fill="none" stroke-width="1" stroke-dasharray="2" stroke="gray" points="308.5436055954405,453.0416305603426 308.5436055954405,466.0416305603426 462.7701029035442,466.0416305603426 462.7701029035442,453.0416305603426" />
<polygon fill="none" stroke-width="1" stroke-dasharray="2" stroke="gray" points="307.5055534994651,336.3847763108502 307.5055534994651,465.3847763108502 309.19238815542514,474.57716446627535 309.19238815542514,469.57716446627535 308.5436055954405,466.0416305603426 308.5436055954405,453.0416305603426 309.19238815542514,456.57716446627535 309.19238815542514,363.57716446627535 308.5436055954405,360.0416305603426 308.5436055954405,347.0416305603426 309.19238815542514,350.57716446627535 309.19238815542514,345.57716446627535" />
<polygon fill="none" stroke-width="1" stroke-dasharray="2" stroke="gray" points="309.19238815542514,345.57716446627535 469.19238815542514,345.57716446627535 452.4944465005349,336.3847763108502 307.5055534994651,336.3847763108502" />
<polygon fill="rgba(192,192,192,0.75)" stroke-width="1" stroke-dasharray="" stroke="black" points="307.5055534994651,465.3847763108502 452.4944465005349,465.3847763108502 469.19238815542514,474.57716446627535 309.19238815542514,474.57716446627535" />
<polygon fill="rgba(255,255,255,0.75)" stroke-width="1" stroke-dasharray="" stroke="black" points="469.19238815542514,345.57716446627535 469.19238815542514,350.57716446627535 462.7701029035442,347.0416305603426 462.7701029035442,360.0416305603426 469.19238815542514,363.57716446627535 469.19238815542514,456.57716446627535 462.7701029035442,453.0416305603426 462.7701029035442,466.0416305603426 469.19238815542514,469.57716446627535 469.19238815542514,474.57716446627535 452.4944465005349,465.3847763108502 452.4944465005349,336.3847763108502" />
<polygon fill="rgba(255,255,255,0.75)" stroke-width="1" stroke-dasharray="" stroke="black" points="307.5055534994651,336.3847763108502 452.4944465005349,336.3847763108502 452.4944465005349,465.3847763108502 307.5055534994651,465.3847763108502" />
</svg>
