<svg width="1100" viewBox="0.0 0.0 550.0 494.6" xmlns="http://www.w3.org/2000/svg">
<polygon fill="none" stroke-width="1" stroke-dasharray="2" stroke="gray" points="19.2,29.2 19.2,34.2 179.2,34.2 179.2,29.2" />
<polygon fill="none" stroke-width="1" stroke-dasharray="2" stroke="gray" points="19.2,47.2 19.2,140.2 179.2,140.2 179.2,47.2" />
<polygon fill="none" stroke-width="1" stroke-dasharray="2" stroke="gray" points="19.2,153.2 19.2,158.2 179.2,158.2 179.2,153.2" />
<polygon fill="rgba(192,192,192,0.75)" stroke-width="1" stroke-dasharray="" stroke="black" points="18.5,30.7 172.8,30.7 179.2,34.2 19.2,34.2" />
<polygon fill="none" stroke-width="1" stroke-dasharray="2" stroke="gray" points="19.2,47.2 179.2,47.2 172.8,43.7 18.5,43.7" />
<polygon fill="rgba(192,192,192,0.75)" stroke-width="1" stroke-dasharray="" stroke="black" points="18.5,136.7 172.8,136.7 179.2,140.2 19.2,140.2" />
<polygon fill="none" stroke-width="1" stroke-dasharray="2" stroke="gray" points="19.2,153.2 179.2,153.2 172.8,149.7 18.5,149.7" />
<polygon fill="none" stroke-width="1" stroke-dasharray="2" stroke="gray" points="18.5,30.7 18.5,43.7 172.8,43.7 172.8,30.7" />
<polygon fill="none" stroke-width="1" stroke-dasharray="2" stroke="gray" points="18.5,136.7 18.5,149.7 172.8,149.7 172.8,136.7" />
<polygon fill="none" stroke-width="1" stroke-dasharray="2" stroke="gray" points="17.5,20.0 17.5,149.0 19.2,158.2 19.2,153.2 18.5,149.7 18.5,136.7 19.2,140.2 19.2,47.2 18.5,43.7 18.5,30.7 19.2,34.2 19.2,29.2" />
<polygon fill="none" stroke-width="1" stroke-dasharray="2" stroke="gray" points="19.2,29.2 179.2,29.2 162.5,20.0 17.5,20.0" />
<polygon fill="rgba(192,192,192,0.75)" stroke-width="1" stroke-dasharray="" stroke="black" points="17.5,149.0 162.5,149.0 179.2,158.2 19.2,158.2" />
<polygon fill="rgba(255,255,255,0.75)" stroke-width="1" stroke-dasharray="" stroke="black" points="179.2,29.2 179.2,34.2 172.8,30.7 172.8,43.7 179.2,47.2 179.2,140.2 172.8,136.7 172.8,149.7 179.2,153.2 179.2,158.2 162.5,149.0 162.5,20.0" />
<polygon fill="rgba(255,255,255,0.75)" stroke-width="1" stroke-dasharray="" stroke="black" points="17.5,20.0 162.5,20.0 162.5,149.0 17.5,149.0" />
<polygon fill="none" stroke-width="1" stroke-dasharray="2" stroke="gray" points="19.2,187.4 19.2,192.4 179.2,192.4 179.2,187.4" />
<polygon fill="none" stroke-width="1" stroke-dasharray="2" stroke="gray" points="19.2,205.4 19.2,298.4 179.2,298.4 179.2,205.4" />
<polygon fill="none" stroke-width="1" stroke-dasharray="2" stroke="gray" points="19.2,311.4 19.2,316.4 179.2,316.4 179.2,311.4" />
<polygon fill="rgba(192,192,192,0.75)" stroke-width="1" stroke-dasharray="" stroke="black" points="18.5,188.8 172.8,188.8 179.2,192.4 19.2,192.4" />
<polygon fill="none" stroke-width="1" stroke-dasharray="2" stroke="gray" points="19.2,205.4 179.2,205.4 172.8,201.8 18.5,201.8" />
<polygon fill="rgba(192,192,192,0.75)" stroke-width="1" stroke-dasharray="" stroke="black" points="18.5,294.8 172.8,294.8 179.2,298.4 19.2,298.4" />
<polygon fill="none" stroke-width="1" stroke-dasharray="2" stroke="gray" points="19.2,311.4 179.2,311.4 172.8,307.8 18.5,307.8" />
<polygon fill="none" stroke-width="1" stroke-dasharray="2" stroke="gray" points="18.5,188.8 18.5,201.8 172.8,201.8 172.8,188.8" />
<polygon fill="none" stroke-width="1" stroke-dasharray="2" stroke="gray" points="18.5,294.8 18.5,307.8 172.8,307.8 172.8,294.8" />
<polygon fill="none" stroke-width="1" stroke-dasharray="2" stroke="gray" points="17.5,178.2 17.5,307.2 19.2,316.4 19.2,311.4 18.5,307.8 18.5,294.8 19.2,298.4 19.2,205.4 18.5,201.8 18.5,188.8 19.2,192.4 19.2,187.4" />
<polygon fill="none" stroke-width="1" stroke-dasharray="2" stroke="gray" points="19.2,187.4 179.2,187.4 162.5,178.2 17.5,178.2" />
<polygon fill="rgba(192,192,192,0.75)" stroke-width="1" stroke-dasharray="" stroke="black" points="17.5,307.2 162.5,307.2 179.2,316.4 19.2,316.4" />
<polygon fill="rgba(255,255,255,0.75)" stroke-width="1" stroke-dasharray="" stroke="black" points="179.2,187.4 179.2,192.4 172.8,188.8 172.8,201.8 179.2,205.4 179.2,298.4 172.8,294.8 172.8,307.8 179.2,311.4 179.2,316.4 162.5,307.2 162.5,178.2" />
<polygon fill="rgba(255,255,255,0.75)" stroke-width="1" stroke-dasharray="" stroke="black" points="17.5,178.2 162.5,178.2 162.5,307.2 17.5,307.2" />
<circle cx="140" cy="190.2" r="5" stroke="orange" fill="white" stroke-width="1" />
<circle cx="140" cy="233.2" r="5" stroke="orange" fill="white" stroke-width="1" />
<circle cx="140" cy="276.2" r="5" stroke="orange" fill="white" stroke-width="1" />
<polygon fill="none" stroke-width="1" stroke-dasharray="2" stroke="gray" points="19.2,345.6 19.2,350.6 179.2,350.6 179.2,345.6" />
<polygon fill="none" stroke-width="1" stroke-dasharray="2" stroke="gray" points="19.2,363.6 19.2,456.6 179.2,456.6 179.2,363.6" />
<polygon fill="none" stroke-width="1" stroke-dasharray="2" stroke="gray" points="19.2,469.6 19.2,474.6 179.2,474.6 179.2,469.6" />
<polygon fill="rgba(192,192,192,0.75)" stroke-width="1" stroke-dasharray="" stroke="black" points="18.5,347.0 172.8,347.0 179.2,350.6 19.2,350.6" />
<polygon fill="none" stroke-width="1" stroke-dasharray="2" stroke="gray" points="19.2,363.6 179.2,363.6 172.8,360.0 18.5,360.0" />
<polygon fill="rgba(192,192,192,0.75)" stroke-width="1" stroke-dasharray="" stroke="black" points="18.5,453.0 172.8,453.0 179.2,456.6 19.2,456.6" />
<polygon fill="none" stroke-width="1" stroke-dasharray="2" stroke="gray" points="19.2,469.6 179.2,469.6 172.8,466.0 18.5,466.0" />
<polygon fill="none" stroke-width="1" stroke-dasharray="2" stroke="gray" points="18.5,347.0 18.5,360.0 172.8,360.0 172.8,347.0" />
<polygon fill="none" stroke-width="1" stroke-dasharray="2" stroke="gray" points="18.5,453.0 18.5,466.0 172.8,466.0 172.8,453.0" />
<polygon fill="none" stroke-width="1" stroke-dasharray="2" stroke="gray" points="17.5,336.4 17.5,465.4 19.2,474.6 19.2,469.6 18.5,466.0 18.5,453.0 19.2,456.6 19.2,363.6 18.5,360.0 18.5,347.0 19.2,350.6 19.2,345.6" />
<polygon fill="none" stroke-width="1" stroke-dasharray="2" stroke="gray" points="19.2,345.6 179.2,345.6 162.5,336.4 17.5,336.4" />
<polygon fill="rgba(192,192,192,0.75)" stroke-width="1" stroke-dasharray="" stroke="black" points="17.5,465.4 162.5,465.4 179.2,474.6 19.2,474.6" />
<polygon fill="rgba(255,255,255,0.75)" stroke-width="1" stroke-dasharray="" stroke="black" points="179.2,345.6 179.2,350.6 172.8,347.0 172.8,360.0 179.2,363.6 179.2,456.6 172.8,453.0 172.8,466.0 179.2,469.6 179.2,474.6 162.5,465.4 162.5,336.4" />
<polygon fill="rgba(255,255,255,0.75)" stroke-width="1" stroke-dasharray="" stroke="black" points="17.5,336.4 162.5,336.4 162.5,465.4 17.5,465.4" />
<rect x="20" y="455.3847763108502" width="40" height="10.0" style="fill: none; stroke: orange; stroke-width: 1;" />
<polygon fill="none" stroke-width="1" stroke-dasharray="2" stroke="gray" points="309.2,29.2 309.2,34.2 469.2,34.2 469.2,29.2" />
<polygon fill="none" stroke-width="1" stroke-dasharray="2" stroke="gray" points="309.2,47.2 309.2,140.2 469.2,140.2 469.2,47.2" />
<polygon fill="none" stroke-width="1" stroke-dasharray="2" stroke="gray" points="309.2,153.2 309.2,158.2 469.2,158.2 469.2,153.2" />
<polygon fill="rgba(192,192,192,0.75)" stroke-width="1" stroke-dasharray="" stroke="black" points="308.5,30.7 462.8,30.7 469.2,34.2 309.2,34.2" />
<polygon fill="none" stroke-width="1" stroke-dasharray="2" stroke="gray" points="309.2,47.2 469.2,47.2 462.8,43.7 308.5,43.7" />
<polygon fill="rgba(192,192,192,0.75)" stroke-width="1" stroke-dasharray="" stroke="black" points="308.5,136.7 462.8,136.7 469.2,140.2 309.2,140.2" />
<polygon fill="none" stroke-width="1" stroke-dasharray="2" stroke="gray" points="309.2,153.2 469.2,153.2 462.8,149.7 308.5,149.7" />
<polygon fill="none" stroke-width="1" stroke-dasharray="2" stroke="gray" points="308.5,30.7 308.5,43.7 462.8,43.7 462.8,30.7" />
<polygon fill="none" stroke-width="1" stroke-dasharray="2" stroke="gray" points="308.5,136.7 308.5,149.7 462.8,149.7 462.8,136.7" />
<polygon fill="none" stroke-width="1" stroke-dasharray="2" stroke="gray" points="307.5,20.0 307.5,149.0 309.2,158.2 309.2,153.2 308.5,149.7 308.5,136.7 309.2,140.2 309.2,47.2 308.5,43.7 308.5,30.7 309.2,34.2 309.2,29.2" />
<polygon fill="none" stroke-width="1" stroke-dasharray="2" stroke="gray" points="309.2,29.2 469.2,29.2 452.5,20.0 307.5,20.0" />
<polygon fill="rgba(192,192,192,0.75)" stroke-width="1" stroke-dasharray="" stroke="black" points="307.5,149.0 452.5,149.0 469.2,158.2 309.2,158.2" />
<polygon fill="rgba(255,255,255,0.75)" stroke-width="1" stroke-dasharray="" stroke="black" points="469.2,29.2 469.2,34.2 462.8,30.7 462.8,43.7 469.2,47.2 469.2,140.2 462.8,136.7 462.8,149.7 469.2,153.2 469.2,158.2 452.5,149.0 452.5,20.0" />
<polygon fill="rgba(255,255,255,0.75)" stroke-width="1" stroke-dasharray="" stroke="black" points="307.5,20.0 452.5,20.0 452.5,149.0 307.5,149.0" />
<polygon fill="none" stroke-width="1" stroke-dasharray="2" stroke="gray" points="309.2,187.4 309.2,192.4 469.2,192.4 469.2,187.4" />
<polygon fill="none" stroke-width="1" stroke-dasharray="2" stroke="gray" points="309.2,205.4 309.2,298.4 469.2,298.4 469.2,205.4" />
<polygon fill="none" stroke-width="1" stroke-dasharray="2" stroke="gray" points="309.2,311.4 309.2,316.4 469.2,316.4 469.2,311.4" />
<polygon fill="rgba(192,192,192,0.75)" stroke-width="1" stroke-dasharray="" stroke="black" points="308.5,188.8 462.8,188.8 469.2,192.4 309.2,192.4" />
<polygon fill="none" stroke-width="1" stroke-dasharray="2" stroke="gray" points="309.2,205.4 469.2,205.4 462.8,201.8 308.5,201.8" />
<polygon fill="rgba(192,192,192,0.75)" stroke-width="1" stroke-dasharray="" stroke="black" points="308.5,294.8 462.8,294.8 469.2,298.4 309.2,298.4" />
<polygon fill="none" stroke-width="1" stroke-dasharray="2" stroke="gray" points="309.2,311.4 469.2,311.4 462.8,307.8 308.5,307.8" />
<polygon fill="none" stroke-width="1" stroke-dasharray="2" stroke="gray" points="308.5,188.8 308.5,201.8 462.8,201.8 462.8,188.8" />
<polygon fill="none" stroke-width="1" stroke-dasharray="2" stroke="gray" points="308.5,294.8 308.5,307.8 462.8,307.8 462.8,294.8" />
<polygon fill="none" stroke-width="1" stroke-dasharray="2" stroke="gray" points="307.5,178.2 307.5,307.2 309.2,316.4 309.2,311.4 308.5,307.8 308.5,294.8 309.2,298.4 309.2,205.4 308.5,201.8 308.5,188.8 309.2,192.4 309.2,187.4" />
<polygon fill="none" stroke-width="1" stroke-dasharray="2" stroke="gray" points="309.2,187.4 469.2,187.4 452.5,178.2 307.5,178.2" />
<polygon fill="rgba(192,192,192,0.75)" stroke-width="1" stroke-dasharray="" stroke="black" points="307.5,307.2 452.5,307.2 469.2,316.4 309.2,316.4" />
<polygon fill="rgba(255,255,255,0.75)" stroke-width="1" stroke-dasharray="" stroke="black" points="469.2,187.4 469.2,192.4 462.8,188.8 462.8,201.8 469.2,205.4 469.2,298.4 462.8,294.8 462.8,307.8 469.2,311.4 469.2,316.4 452.5,307.2 452.5,178.2" />
<polygon fill="rgba(255,255,255,0.75)" stroke-width="1" stroke-dasharray="" stroke="black" points="307.5,178.2 452.5,178.2 452.5,307.2 307.5,307.2" />
<circle cx="430" cy="190.2" r="5" stroke="orange" fill="white" stroke-width="1" />
<circle cx="430" cy="233.2" r="5" stroke="orange" fill="white" stroke-width="1" />
<circle cx="430" cy="276.2" r="5" stroke="orange" fill="white" stroke-width="1" />
<polygon fill="none" stroke-width="1" stroke-dasharray="2" stroke="gray" points="309.2,345.6 309.2,350.6 469.2,350.6 469.2,345.6" />
<polygon fill="none" stroke-width="1" stroke-dasharray="2" stroke="gray" points="309.2,363.6 309.2,456.6 469.2,456.6 469.2,363.6" />
<polygon fill="none" stroke-width="1" stroke-dasharray="2" stroke="gray" points="309.2,469.6 309.2,474.6 469.2,474.6 469.2,469.6" />
<polygon fill="rgba(192,192,192,0.75)" stroke-width="1" stroke-dasharray="" stroke="black" points="308.5,347.0 462.8,347.0 469.2,350.6 309.2,350.6" />
<polygon fill="none" stroke-width="1" stroke-dasharray="2" stroke="gray" points="309.2,363.6 469.2,363.6 462.8,360.0 308.5,360.0" />
<polygon fill="rgba(192,192,192,0.75)" stroke-width="1" stroke-dasharray="" stroke="black" points="308.5,453.0 462.8,453.0 469.2,456.6 309.2,456.6" />
<polygon fill="none" stroke-width="1" stroke-dasharray="2" stroke="gray" points="309.2,469.6 469.2,469.6 462.8,466.0 308.5,466.0" />
<polygon fill="none" stroke-width="1" stroke-dasharray="2" stroke="gray" points="308.5,347.0 308.5,360.0 462.8,360.0 462.8,347.0" />
<polygon fill="none" stroke-width="1" stroke-dasharray="2" stroke="gray" points="308.5,453.0 308.5,466.0 462.8,466.0 462.8,453.0" />
<polygon fill="none" stroke-width="1" stroke-dasharray="2" stroke="gray" points="307.5,336.4 307.5,465.4 309.2,474.6 309.2,469.6 308.5,466.0 308.5,453.0 309.2,456.6 309.2,363.6 308.5,360.0 308.5,347.0 309.2,350.6 309.2,345.6" />
<polygon fill="none" stroke-width="1" stroke-dasharray="2" stroke="gray" points="309.2,345.6 469.2,345.6 452.5,336.4 307.5,336.4" />
<polygon fill="rgba(192,192,192,0.75)" stroke-width="1" stroke-dasharray="" stroke="black" points="307.5,465.4 452.5,465.4 469.2,474.6 309.2,474.6" />
<polygon fill="rgba(255,255,255,0.75)" stroke-width="1" stroke-dasharray="" stroke="black" points="469.2,345.6 469.2,350.6 462.8,347.0 462.8,360.0 469.2,363.6 469.2,456.6 462.8,453.0 462.8,466.0 469.2,469.6 469.2,474.6 452.5,465.4 452.5,336.4" />
<polygon fill="rgba(255,255,255,0.75)" stroke-width="1" stroke-dasharray="" stroke="black" points="307.5,336.4 452.5,336.4 452.5,465.4 307.5,465.4" />
</svg>
