<svg width="1100" viewBox="0.0 -167.6 550.0 306.6" xmlns="http://www.w3.org/2000/svg">
<polygon fill="none" stroke-width="1" stroke-dasharray="2" stroke="gray" points="180.1,-137.6 195.1,-133.7 195.1,-149.6 189.3,-149.6 189.3,-162.6 195.1,-162.6 195.1,-167.6 180.1,-167.6 180.1,-137.6" />
<polygon fill="none" stroke-width="1" stroke-dasharray="2" stroke="gray" points="180.1,-124.6 180.1,-109.6 195.1,-105.7 195.1,-128.5 180.1,-124.6" />
<polygon fill="none" stroke-width="1" stroke-dasharray="2" stroke="gray" points="180.1,-96.6 180.1,-81.6 195.1,-77.7 195.1,-100.5 180.1,-96.6" />
<polygon fill="none" stroke-width="1" stroke-dasharray="2" stroke="gray" points="180.1,-68.6 180.1,-38.6 195.1,-38.6 195.1,-43.6 189.3,-43.6 189.3,-56.6 195.1,-56.6 195.1,-72.5 180.1,-68.6" />
<polygon fill="none" stroke-width="1" stroke-dasharray="2" stroke="gray" points="325.1,-68.6 310.0,-68.6 310.0,-81.6 325.1,-81.6 325.1,-96.6 310.0,-96.6 310.0,-109.6 325.1,-109.6 325.1,-109.6 325.1,-124.6 325.1,-124.6 310.0,-124.6 310.0,-137.6 325.1,-137.6 325.1,-167.6 195.1,-167.6 195.1,-167.6 195.1,-133.7 180.1,-137.6 180.1,-124.6 195.1,-128.5 195.1,-105.7 180.1,-109.6 180.1,-109.6 180.1,-96.6 180.1,-96.6 195.1,-100.5 195.1,-77.7 180.1,-81.6 180.1,-68.6 195.1,-72.5 195.1,-38.6 195.1,-38.6 325.1,-38.6 325.1,-68.6" />
<polygon fill="none" stroke-width="1" stroke-dasharray="2" stroke="gray" points="310.0,-137.6 310.0,-124.6 325.1,-124.6 325.1,-137.6 310.0,-137.6" />
<polygon fill="none" stroke-width="1" stroke-dasharray="2" stroke="gray" points="310.0,-109.6 310.0,-96.6 325.1,-96.6 325.1,-109.6 310.0,-109.6" />
<polygon fill="none" stroke-width="1" stroke-dasharray="2" stroke="gray" points="310.0,-81.6 310.0,-68.6 325.1,-68.6 325.1,-81.6 310.0,-81.6" />
<polygon fill="none" stroke-width="1" stroke-dasharray="2" stroke="gray" points="180.1,-137.6 163.4,-128.4 178.4,-124.5 195.1,-133.7" />
<polygon fill="rgba(255,255,255,0.75)" stroke-width="1" stroke-dasharray="" stroke="silver" points="195.1,-128.5 178.4,-119.3 163.4,-115.4 180.1,-124.6" />
<polygon fill="none" stroke-width="1" stroke-dasharray="2" stroke="gray" points="180.1,-109.6 163.4,-100.4 178.4,-96.5 195.1,-105.7" />
<polygon fill="rgba(255,255,255,0.75)" stroke-width="1" stroke-dasharray="" stroke="silver" points="195.1,-100.5 178.4,-91.3 163.4,-87.4 180.1,-96.6" />
<polygon fill="none" stroke-width="1" stroke-dasharray="2" stroke="gray" points="180.1,-81.6 163.4,-72.4 178.4,-68.5 195.1,-77.7" />
<polygon fill="rgba(255,255,255,0.75)" stroke-width="1" stroke-dasharray="" stroke="silver" points="195.1,-72.5 178.4,-63.3 163.4,-59.4 180.1,-68.6" />
<polygon fill="none" stroke-width="1" stroke-dasharray="2" stroke="gray" points="163.4,-128.4 163.4,-115.4 180.1,-124.6 180.1,-137.6 163.4,-128.4" />
<polygon fill="none" stroke-width="1" stroke-dasharray="2" stroke="gray" points="163.4,-100.4 163.4,-87.4 180.1,-96.6 180.1,-109.6 163.4,-100.4" />
<polygon fill="none" stroke-width="1" stroke-dasharray="2" stroke="gray" points="163.4,-72.4 163.4,-59.4 180.1,-68.6 180.1,-81.6 163.4,-72.4" />
<polygon fill="rgba(255,255,255,0.75)" stroke-width="1" stroke-dasharray="" stroke="black" points="180.1,-137.6 195.1,-133.7 178.4,-124.5 163.4,-128.4" />
<polygon fill="none" stroke-width="1" stroke-dasharray="2" stroke="gray" points="163.4,-115.4 178.4,-119.3 195.1,-128.5 180.1,-124.6" />
<polygon fill="rgba(255,255,255,0.75)" stroke-width="1" stroke-dasharray="" stroke="black" points="180.1,-109.6 195.1,-105.7 178.4,-96.5 163.4,-100.4" />
<polygon fill="none" stroke-width="1" stroke-dasharray="2" stroke="gray" points="163.4,-87.4 178.4,-91.3 195.1,-100.5 180.1,-96.6" />
<polygon fill="rgba(255,255,255,0.75)" stroke-width="1" stroke-dasharray="" stroke="black" points="180.1,-81.6 195.1,-77.7 178.4,-68.5 163.4,-72.4" />
<polygon fill="none" stroke-width="1" stroke-dasharray="2" stroke="gray" points="163.4,-59.4 178.4,-63.3 195.1,-72.5 180.1,-68.6" />
<polygon fill="none" stroke-width="1" stroke-dasharray="2" stroke="gray" points="178.4,-124.5 195.1,-133.7 195.1,-167.6 178.4,-158.4 178.4,-153.4 184.8,-156.9 184.8,-143.9 178.4,-140.4 178.4,-124.5" />
<polygon fill="none" stroke-width="1" stroke-dasharray="2" stroke="gray" points="178.4,-119.3 178.4,-96.5 195.1,-105.7 195.1,-128.5 178.4,-119.3" />
<polygon fill="none" stroke-width="1" stroke-dasharray="2" stroke="gray" points="178.4,-91.3 178.4,-68.5 195.1,-77.7 195.1,-100.5 178.4,-91.3" />
<polygon fill="none" stroke-width="1" stroke-dasharray="2" stroke="gray" points="178.4,-63.3 178.4,-47.4 184.8,-50.9 184.8,-37.9 178.4,-34.4 178.4,-29.4 195.1,-38.6 195.1,-72.5 178.4,-63.3" />
<polygon fill="rgba(255,255,255,0.75)" stroke-width="1" stroke-dasharray="" stroke="black" points="195.1,-167.6 325.1,-167.6 323.4,-158.4 178.4,-158.4 195.1,-167.6" />
<polygon fill="none" stroke-width="1" stroke-dasharray="2" stroke="gray" points="195.1,-38.6 178.4,-29.4 323.4,-29.4 325.1,-38.6 195.1,-38.6" />
<polygon fill="rgba(255,255,255,0.75)" stroke-width="1" stroke-dasharray="" stroke="silver" points="310.0,-137.6 310.0,-124.6 308.4,-119.3 308.4,-124.5 310.0,-137.6" />
<polygon fill="rgba(255,255,255,0.75)" stroke-width="1" stroke-dasharray="" stroke="silver" points="310.0,-109.6 310.0,-96.6 308.4,-91.3 308.4,-96.5 310.0,-109.6" />
<polygon fill="rgba(255,255,255,0.75)" stroke-width="1" stroke-dasharray="" stroke="silver" points="310.0,-81.6 310.0,-68.6 308.4,-63.3 308.4,-68.5 310.0,-81.6" />
<polygon fill="rgba(255,255,255,0.75)" stroke-width="1" stroke-dasharray="" stroke="black" points="325.1,-137.6 323.4,-124.5 308.4,-124.5 310.0,-137.6" />
<polygon fill="none" stroke-width="1" stroke-dasharray="2" stroke="gray" points="310.0,-124.6 308.4,-119.3 323.4,-119.3 325.1,-124.6" />
<polygon fill="rgba(255,255,255,0.75)" stroke-width="1" stroke-dasharray="" stroke="black" points="325.1,-109.6 323.4,-96.5 308.4,-96.5 310.0,-109.6" />
<polygon fill="none" stroke-width="1" stroke-dasharray="2" stroke="gray" points="310.0,-96.6 308.4,-91.3 323.4,-91.3 325.1,-96.6" />
<polygon fill="rgba(255,255,255,0.75)" stroke-width="1" stroke-dasharray="" stroke="black" points="325.1,-81.6 323.4,-68.5 308.4,-68.5 310.0,-81.6" />
<polygon fill="none" stroke-width="1" stroke-dasharray="2" stroke="gray" points="310.0,-68.6 308.4,-63.3 323.4,-63.3 325.1,-68.6" />
<polygon fill="none" stroke-width="1" stroke-dasharray="2" stroke="gray" points="325.1,-137.6 310.0,-137.6 308.4,-124.5 323.4,-124.5" />
<polygon fill="rgba(255,255,255,0.75)" stroke-width="1" stroke-dasharray="" stroke="silver" points="323.4,-119.3 308.4,-119.3 310.0,-124.6 325.1,-124.6" />
<polygon fill="none" stroke-width="1" stroke-dasharray="2" stroke="gray" points="325.1,-109.6 310.0,-109.6 308.4,-96.5 323.4,-96.5" />
<polygon fill="rgba(255,255,255,0.75)" stroke-width="1" stroke-dasharray="" stroke="silver" points="323.4,-91.3 308.4,-91.3 310.0,-96.6 325.1,-96.6" />
<polygon fill="none" stroke-width="1" stroke-dasharray="2" stroke="gray" points="325.1,-81.6 310.0,-81.6 308.4,-68.5 323.4,-68.5" />
<polygon fill="rgba(255,255,255,0.75)" stroke-width="1" stroke-dasharray="" stroke="silver" points="323.4,-63.3 308.4,-63.3 310.0,-68.6 325.1,-68.6" />
<polygon fill="rgba(255,255,255,0.75)" stroke-width="1" stroke-dasharray="" stroke="silver" points="325.1,-137.6 323.4,-124.5 323.4,-140.4 324.0,-143.9 324.0,-156.9 323.4,-153.4 323.4,-158.4 325.1,-167.6 325.1,-137.6" />
<polygon fill="rgba(255,255,255,0.75)" stroke-width="1" stroke-dasharray="" stroke="silver" points="325.1,-124.6 325.1,-109.6 323.4,-96.5 323.4,-119.3 325.1,-124.6" />
<polygon fill="rgba(255,255,255,0.75)" stroke-width="1" stroke-dasharray="" stroke="silver" points="325.1,-96.6 325.1,-81.6 323.4,-68.5 323.4,-91.3 325.1,-96.6" />
<polygon fill="rgba(255,255,255,0.75)" stroke-width="1" stroke-dasharray="" stroke="silver" points="325.1,-68.6 325.1,-38.6 323.4,-29.4 323.4,-34.4 324.0,-37.9 324.0,-50.9 323.4,-47.4 323.4,-63.3 325.1,-68.6" />
<polygon fill="none" stroke-width="1" stroke-dasharray="2" stroke="gray" points="184.8,-156.9 178.4,-153.4 323.4,-153.4 324.0,-156.9 184.8,-156.9" />
<polygon fill="rgba(255,255,255,0.75)" stroke-width="1" stroke-dasharray="" stroke="black" points="184.8,-143.9 324.0,-143.9 323.4,-140.4 178.4,-140.4 184.8,-143.9" />
<polygon fill="none" stroke-width="1" stroke-dasharray="2" stroke="gray" points="184.8,-50.9 178.4,-47.4 323.4,-47.4 324.0,-50.9 184.8,-50.9" />
<polygon fill="rgba(255,255,255,0.75)" stroke-width="1" stroke-dasharray="" stroke="black" points="184.8,-37.9 324.0,-37.9 323.4,-34.4 178.4,-34.4 184.8,-37.9" />
<polygon fill="none" stroke-width="1" stroke-dasharray="2" stroke="gray" points="163.4,-128.4 163.4,-115.4 178.4,-119.3 178.4,-124.5 163.4,-128.4" />
<polygon fill="none" stroke-width="1" stroke-dasharray="2" stroke="gray" points="163.4,-100.4 163.4,-87.4 178.4,-91.3 178.4,-96.5 163.4,-100.4" />
<polygon fill="none" stroke-width="1" stroke-dasharray="2" stroke="gray" points="163.4,-72.4 163.4,-59.4 178.4,-63.3 178.4,-68.5 163.4,-72.4" />
<polygon fill="none" stroke-width="1" stroke-dasharray="2" stroke="gray" points="308.4,-119.3 308.4,-96.5 323.4,-96.5 323.4,-119.3 308.4,-119.3" />
<polygon fill="none" stroke-width="1" stroke-dasharray="2" stroke="gray" points="308.4,-91.3 308.4,-68.5 323.4,-68.5 323.4,-91.3 308.4,-91.3" />
<polygon fill="none" stroke-width="1" stroke-dasharray="2" stroke="gray" points="308.4,-124.5 323.4,-124.5 323.4,-158.4 308.4,-158.4 308.4,-153.4 314.1,-153.4 314.1,-140.4 308.4,-140.4 308.4,-124.5" />
<polygon fill="none" stroke-width="1" stroke-dasharray="2" stroke="gray" points="308.4,-63.3 308.4,-47.4 314.1,-47.4 314.1,-34.4 308.4,-34.4 308.4,-29.4 323.4,-29.4 323.4,-63.3 308.4,-63.3" />
<polygon fill="rgba(255,255,255,0.75)" stroke-width="1" stroke-dasharray="" stroke="black" points="323.4,-68.5 308.3,-68.5 308.3,-63.3 323.4,-63.3 323.4,-47.4 178.4,-47.4 178.4,-63.3 163.4,-59.4 163.4,-59.4 163.4,-72.4 163.4,-72.4 178.4,-68.5 178.4,-91.3 163.4,-87.4 163.4,-100.4 178.4,-96.5 178.4,-119.3 163.4,-115.4 163.4,-115.4 163.4,-128.4 163.4,-128.4 178.4,-124.5 178.4,-140.4 323.4,-140.4 323.4,-124.5 323.4,-124.5 308.3,-124.5 308.3,-119.3 323.4,-119.3 323.4,-96.5 308.3,-96.5 308.3,-91.3 323.4,-91.3 323.4,-91.3 323.4,-68.5" />
<polygon fill="rgba(255,255,255,0.75)" stroke-width="1" stroke-dasharray="" stroke="black" points="35.5,-88.0 180.1,-167.6 195.1,-167.6 33.8,-78.8 35.5,-88.0" />
<polygon fill="none" stroke-width="1" stroke-dasharray="2" stroke="gray" points="35.5,41.0 33.8,50.2 195.1,-38.6 180.1,-38.6 35.5,41.0" />
<polygon fill="none" stroke-width="1" stroke-dasharray="2" stroke="gray" points="34.5,-77.3 33.8,-73.8 195.1,-162.6 189.3,-162.6 34.5,-77.3" />
<polygon fill="rgba(255,255,255,0.75)" stroke-width="1" stroke-dasharray="" stroke="black" points="34.5,-64.3 189.3,-149.6 195.1,-149.6 33.8,-60.8 34.5,-64.3" />
<polygon fill="none" stroke-width="1" stroke-dasharray="2" stroke="gray" points="34.5,28.7 33.8,32.2 195.1,-56.6 189.3,-56.6 34.5,28.7" />
<polygon fill="rgba(255,255,255,0.75)" stroke-width="1" stroke-dasharray="" stroke="black" points="34.5,41.7 189.3,-43.6 195.1,-43.6 33.8,45.2 34.5,41.7" />
<polygon fill="none" stroke-width="1" stroke-dasharray="2" stroke="gray" points="180.1,-68.6 163.4,-59.4 163.4,-72.4 180.1,-81.6 180.1,-96.6 163.4,-87.4 163.4,-100.4 180.1,-109.6 180.1,-109.6 180.1,-124.6 180.1,-124.6 163.4,-115.4 163.4,-128.4 180.1,-137.6 180.1,-167.6 35.5,-88.0 35.5,-88.0 35.5,-54.1 18.8,-48.8 18.8,-35.8 35.5,-48.9 35.5,-26.1 18.8,-20.8 18.8,-20.8 18.8,-7.8 18.8,-7.8 35.5,-20.9 35.5,1.9 18.8,7.2 18.8,20.2 35.5,7.1 35.5,41.0 35.5,41.0 180.1,-38.6 180.1,-68.6" />
<polygon fill="rgba(255,255,255,0.75)" stroke-width="1" stroke-dasharray="" stroke="silver" points="308.8,20.2 310.5,11.0 310.5,-2.0 308.8,7.2 308.8,-7.8 310.5,-17.0 310.5,-30.0 308.8,-20.8 308.8,-20.8 308.8,-35.8 308.8,-35.8 310.5,-45.0 310.5,-58.0 308.8,-48.8 308.8,-78.8 323.4,-158.4 323.4,-158.4 323.4,-124.5 325.1,-137.6 325.1,-124.6 323.4,-119.3 323.4,-96.5 325.1,-109.6 325.1,-109.6 325.1,-96.6 325.1,-96.6 323.4,-91.3 323.4,-68.5 325.1,-81.6 325.1,-68.6 323.4,-63.3 323.4,-29.4 323.4,-29.4 308.8,50.2 308.8,20.2" />
<polygon fill="rgba(255,255,255,0.75)" stroke-width="1" stroke-dasharray="" stroke="black" points="195.1,-77.7 178.4,-68.5 178.4,-63.3 195.1,-72.4 195.1,-56.6 33.8,32.2 33.8,16.3 17.1,29.4 17.1,29.4 17.1,16.4 17.1,16.4 33.8,11.1 33.8,-11.7 17.1,1.4 17.1,-11.6 33.8,-16.9 33.8,-39.7 17.1,-26.6 17.1,-26.6 17.1,-39.6 17.1,-39.6 33.8,-44.9 33.8,-60.8 195.1,-149.6 195.1,-133.7 195.1,-133.7 178.4,-124.5 178.4,-119.3 195.1,-128.4 195.1,-105.7 178.4,-96.5 178.4,-91.3 195.1,-100.4 195.1,-100.4 195.1,-77.7" />
<polygon fill="none" stroke-width="1" stroke-dasharray="2" stroke="gray" points="292.1,20.3 293.8,11.1 293.8,16.3 292.1,25.5 292.1,41.4 308.4,-47.4 308.4,-63.3 310.0,-68.6 310.0,-68.6 310.0,-81.6 310.0,-81.6 308.4,-68.5 308.4,-91.3 310.0,-96.6 310.0,-109.6 308.4,-96.5 308.4,-119.3 310.0,-124.6 310.0,-124.6 310.0,-137.6 310.0,-137.6 308.4,-124.5 308.4,-140.4 292.1,-51.6 292.1,-35.7 292.1,-35.7 293.8,-44.9 293.8,-39.7 292.1,-30.5 292.1,-7.7 293.8,-16.9 293.8,-11.7 292.1,-2.5 292.1,-2.5 292.1,20.3" />
<polygon fill="none" stroke-width="1" stroke-dasharray="2" stroke="gray" points="314.1,-153.4 308.4,-153.4 292.1,-64.6 298.5,-68.1 314.1,-153.4" />
<polygon fill="rgba(255,255,255,0.75)" stroke-width="1" stroke-dasharray="" stroke="black" points="314.1,-140.4 298.5,-55.1 292.1,-51.6 308.4,-140.4 314.1,-140.4" />
<polygon fill="none" stroke-width="1" stroke-dasharray="2" stroke="gray" points="314.1,-47.4 308.4,-47.4 292.1,41.4 298.5,37.9 314.1,-47.4" />
<polygon fill="rgba(255,255,255,0.75)" stroke-width="1" stroke-dasharray="" stroke="black" points="314.1,-34.4 298.5,50.9 292.1,54.4 308.4,-34.4 314.1,-34.4" />
<polygon fill="rgba(255,255,255,0.75)" stroke-width="1" stroke-dasharray="" stroke="black" points="323.4,-158.4 308.8,-78.8 292.1,-69.6 308.4,-158.4 323.4,-158.4" />
<polygon fill="none" stroke-width="1" stroke-dasharray="2" stroke="gray" points="323.4,-29.4 308.4,-29.4 292.1,59.4 308.8,50.2 323.4,-29.4" />
<polygon fill="none" stroke-width="1" stroke-dasharray="2" stroke="gray" points="18.8,-48.8 35.5,-54.1 35.5,-70.0 29.1,-66.4 29.1,-79.4 35.5,-83.0 35.5,-88.0 18.8,-78.8 18.8,-48.8" />
<polygon fill="none" stroke-width="1" stroke-dasharray="2" stroke="gray" points="18.8,-35.8 18.8,-20.8 35.5,-26.1 35.5,-48.9 18.8,-35.8" />
<polygon fill="none" stroke-width="1" stroke-dasharray="2" stroke="gray" points="18.8,-7.8 18.8,7.2 35.5,1.9 35.5,-20.9 18.8,-7.8" />
<polygon fill="none" stroke-width="1" stroke-dasharray="2" stroke="gray" points="18.8,20.2 18.8,50.2 35.5,41.0 35.5,36.0 29.1,39.6 29.1,26.6 35.5,23.0 35.5,7.1 18.8,20.2" />
<polygon fill="none" stroke-width="1" stroke-dasharray="2" stroke="gray" points="33.8,-44.9 35.5,-54.1 35.5,-88.0 33.8,-78.8 33.8,-73.8 34.4,-77.3 34.4,-64.3 33.8,-60.8 33.8,-44.9" />
<polygon fill="none" stroke-width="1" stroke-dasharray="2" stroke="gray" points="33.8,-39.7 33.8,-16.9 35.5,-26.1 35.5,-48.9 33.8,-39.7" />
<polygon fill="none" stroke-width="1" stroke-dasharray="2" stroke="gray" points="33.8,-11.7 33.8,11.1 35.5,1.9 35.5,-20.9 33.8,-11.7" />
<polygon fill="none" stroke-width="1" stroke-dasharray="2" stroke="gray" points="33.8,16.3 33.8,32.2 34.4,28.7 34.4,41.7 33.8,45.2 33.8,50.2 35.5,41.0 35.5,7.1 33.8,16.3" />
<polygon fill="rgba(255,255,255,0.75)" stroke-width="1" stroke-dasharray="" stroke="silver" points="310.5,-58.0 310.5,-45.0 308.8,-35.8 308.8,-48.8 310.5,-58.0" />
<polygon fill="rgba(255,255,255,0.75)" stroke-width="1" stroke-dasharray="" stroke="silver" points="310.5,-30.0 310.5,-17.0 308.8,-7.8 308.8,-20.8 310.5,-30.0" />
<polygon fill="rgba(255,255,255,0.75)" stroke-width="1" stroke-dasharray="" stroke="silver" points="310.5,-2.0 310.5,11.0 308.8,20.2 308.8,7.2 310.5,-2.0" />
<polygon fill="rgba(255,255,255,0.75)" stroke-width="1" stroke-dasharray="" stroke="black" points="310.5,-58.0 310.5,-45.0 293.8,-39.7 293.8,-44.9 310.5,-58.0" />
<polygon fill="rgba(255,255,255,0.75)" stroke-width="1" stroke-dasharray="" stroke="black" points="310.5,-30.0 310.5,-17.0 293.8,-11.7 293.8,-16.9 310.5,-30.0" />
<polygon fill="rgba(255,255,255,0.75)" stroke-width="1" stroke-dasharray="" stroke="black" points="310.5,-2.0 310.5,11.0 293.8,16.3 293.8,11.1 310.5,-2.0" />
<polygon fill="none" stroke-width="1" stroke-dasharray="2" stroke="gray" points="18.8,-48.8 17.1,-39.6 33.8,-44.9 35.5,-54.1" />
<polygon fill="rgba(255,255,255,0.75)" stroke-width="1" stroke-dasharray="" stroke="silver" points="35.5,-48.9 33.8,-39.7 17.1,-26.6 18.8,-35.8" />
<polygon fill="none" stroke-width="1" stroke-dasharray="2" stroke="gray" points="18.8,-20.8 17.1,-11.6 33.8,-16.9 35.5,-26.1" />
<polygon fill="rgba(255,255,255,0.75)" stroke-width="1" stroke-dasharray="" stroke="silver" points="35.5,-20.9 33.8,-11.7 17.1,1.4 18.8,-7.8" />
<polygon fill="none" stroke-width="1" stroke-dasharray="2" stroke="gray" points="18.8,7.2 17.1,16.4 33.8,11.1 35.5,1.9" />
<polygon fill="rgba(255,255,255,0.75)" stroke-width="1" stroke-dasharray="" stroke="silver" points="35.5,7.1 33.8,16.3 17.1,29.4 18.8,20.2" />
<polygon fill="rgba(255,255,255,0.75)" stroke-width="1" stroke-dasharray="" stroke="black" points="18.8,-48.8 35.5,-54.1 33.8,-44.9 17.1,-39.6" />
<polygon fill="none" stroke-width="1" stroke-dasharray="2" stroke="gray" points="17.1,-26.6 33.8,-39.7 35.5,-48.9 18.8,-35.8" />
<polygon fill="rgba(255,255,255,0.75)" stroke-width="1" stroke-dasharray="" stroke="black" points="18.8,-20.8 35.5,-26.1 33.8,-16.9 17.1,-11.6" />
<polygon fill="none" stroke-width="1" stroke-dasharray="2" stroke="gray" points="17.1,1.4 33.8,-11.7 35.5,-20.9 18.8,-7.8" />
<polygon fill="rgba(255,255,255,0.75)" stroke-width="1" stroke-dasharray="" stroke="black" points="18.8,7.2 35.5,1.9 33.8,11.1 17.1,16.4" />
<polygon fill="none" stroke-width="1" stroke-dasharray="2" stroke="gray" points="17.1,29.4 33.8,16.3 35.5,7.1 18.8,20.2" />
<polygon fill="rgba(255,255,255,0.75)" stroke-width="1" stroke-dasharray="" stroke="silver" points="308.8,-48.8 292.1,-35.7 293.8,-44.9 310.5,-58.0" />
<polygon fill="none" stroke-width="1" stroke-dasharray="2" stroke="gray" points="310.5,-45.0 293.8,-39.7 292.1,-30.5 308.8,-35.8" />
<polygon fill="rgba(255,255,255,0.75)" stroke-width="1" stroke-dasharray="" stroke="silver" points="308.8,-20.8 292.1,-7.7 293.8,-16.9 310.5,-30.0" />
<polygon fill="none" stroke-width="1" stroke-dasharray="2" stroke="gray" points="310.5,-17.0 293.8,-11.7 292.1,-2.5 308.8,-7.8" />
<polygon fill="rgba(255,255,255,0.75)" stroke-width="1" stroke-dasharray="" stroke="silver" points="308.8,7.2 292.1,20.3 293.8,11.1 310.5,-2.0" />
<polygon fill="none" stroke-width="1" stroke-dasharray="2" stroke="gray" points="310.5,11.0 293.8,16.3 292.1,25.5 308.8,20.2" />
<polygon fill="none" stroke-width="1" stroke-dasharray="2" stroke="gray" points="308.8,-48.8 310.5,-58.0 293.8,-44.9 292.1,-35.7" />
<polygon fill="rgba(255,255,255,0.75)" stroke-width="1" stroke-dasharray="" stroke="black" points="292.1,-30.5 293.8,-39.7 310.5,-45.0 308.8,-35.8" />
<polygon fill="none" stroke-width="1" stroke-dasharray="2" stroke="gray" points="308.8,-20.8 310.5,-30.0 293.8,-16.9 292.1,-7.7" />
<polygon fill="rgba(255,255,255,0.75)" stroke-width="1" stroke-dasharray="" stroke="black" points="292.1,-2.5 293.8,-11.7 310.5,-17.0 308.8,-7.8" />
<polygon fill="none" stroke-width="1" stroke-dasharray="2" stroke="gray" points="308.8,7.2 310.5,-2.0 293.8,11.1 292.1,20.3" />
<polygon fill="rgba(255,255,255,0.75)" stroke-width="1" stroke-dasharray="" stroke="black" points="292.1,25.5 293.8,16.3 310.5,11.0 308.8,20.2" />
<polygon fill="none" stroke-width="1" stroke-dasharray="2" stroke="gray" points="17.1,-39.6 17.1,-26.6 33.8,-39.7 33.8,-44.9 17.1,-39.6" />
<polygon fill="none" stroke-width="1" stroke-dasharray="2" stroke="gray" points="17.1,-11.6 17.1,1.4 33.8,-11.7 33.8,-16.9 17.1,-11.6" />
<polygon fill="none" stroke-width="1" stroke-dasharray="2" stroke="gray" points="17.1,16.4 17.1,29.4 33.8,16.3 33.8,11.1 17.1,16.4" />
<polygon fill="none" stroke-width="1" stroke-dasharray="2" stroke="gray" points="17.1,-39.6 17.1,-26.6 18.8,-35.8 18.8,-48.8 17.1,-39.6" />
<polygon fill="none" stroke-width="1" stroke-dasharray="2" stroke="gray" points="17.1,-11.6 17.1,1.4 18.8,-7.8 18.8,-20.8 17.1,-11.6" />
<polygon fill="none" stroke-width="1" stroke-dasharray="2" stroke="gray" points="17.1,16.4 17.1,29.4 18.8,20.2 18.8,7.2 17.1,16.4" />
<polygon fill="rgba(255,255,255,0.75)" stroke-width="1" stroke-dasharray="" stroke="silver" points="293.8,-44.9 292.1,-35.7 292.1,-69.6 293.8,-78.8 293.8,-73.8 293.1,-70.3 293.1,-57.3 293.8,-60.8 293.8,-44.9" />
<polygon fill="rgba(255,255,255,0.75)" stroke-width="1" stroke-dasharray="" stroke="silver" points="293.8,-39.7 293.8,-16.9 292.1,-7.7 292.1,-30.5 293.8,-39.7" />
<polygon fill="rgba(255,255,255,0.75)" stroke-width="1" stroke-dasharray="" stroke="silver" points="293.8,-11.7 293.8,11.1 292.1,20.3 292.1,-2.5 293.8,-11.7" />
<polygon fill="rgba(255,255,255,0.75)" stroke-width="1" stroke-dasharray="" stroke="silver" points="293.8,16.3 293.8,32.2 293.1,35.7 293.1,48.7 293.8,45.2 293.8,50.2 292.1,59.4 292.1,25.5 293.8,16.3" />
<polygon fill="rgba(255,255,255,0.75)" stroke-width="1" stroke-dasharray="" stroke="black" points="308.8,-48.8 292.1,-35.7 292.1,-51.6 298.5,-55.1 298.5,-68.1 292.1,-64.6 292.1,-69.6 308.8,-78.8 308.8,-48.8" />
<polygon fill="rgba(255,255,255,0.75)" stroke-width="1" stroke-dasharray="" stroke="black" points="308.8,-35.8 308.8,-20.8 292.1,-7.7 292.1,-30.5 308.8,-35.8" />
<polygon fill="rgba(255,255,255,0.75)" stroke-width="1" stroke-dasharray="" stroke="black" points="308.8,-7.8 308.8,7.2 292.1,20.3 292.1,-2.5 308.8,-7.8" />
<polygon fill="rgba(255,255,255,0.75)" stroke-width="1" stroke-dasharray="" stroke="black" points="308.8,20.2 308.8,50.2 292.1,59.4 292.1,54.4 298.5,50.9 298.5,37.9 292.1,41.4 292.1,25.5 308.8,20.2" />
<polygon fill="none" stroke-width="1" stroke-dasharray="2" stroke="gray" points="13.4,5.8 19.2,5.8 35.5,-83.0 29.1,-79.4 13.4,5.8" />
<polygon fill="rgba(255,255,255,0.75)" stroke-width="1" stroke-dasharray="" stroke="black" points="13.4,18.8 29.1,-66.4 35.5,-70.0 19.2,18.8 13.4,18.8" />
<polygon fill="none" stroke-width="1" stroke-dasharray="2" stroke="gray" points="13.4,111.8 19.2,111.8 35.5,23.0 29.1,26.6 13.4,111.8" />
<polygon fill="rgba(255,255,255,0.75)" stroke-width="1" stroke-dasharray="" stroke="black" points="13.4,124.8 29.1,39.6 35.5,36.0 19.2,124.8 13.4,124.8" />
<polygon fill="rgba(255,255,255,0.75)" stroke-width="1" stroke-dasharray="" stroke="black" points="4.2,0.8 18.8,-78.8 35.5,-88.0 19.2,0.8 4.2,0.8" />
<polygon fill="none" stroke-width="1" stroke-dasharray="2" stroke="gray" points="4.2,129.8 19.2,129.8 35.5,41.0 18.8,50.2 4.2,129.8" />
<polygon fill="rgba(255,255,255,0.75)" stroke-width="1" stroke-dasharray="" stroke="silver" points="35.5,1.9 33.8,11.1 33.8,16.3 35.5,7.1 35.5,23.0 19.2,111.8 19.2,95.9 17.5,109.0 17.5,109.0 17.5,96.0 17.5,96.0 19.2,90.7 19.2,67.9 17.5,81.0 17.5,68.0 19.2,62.7 19.2,39.9 17.5,53.0 17.5,53.0 17.5,40.0 17.5,40.0 19.2,34.7 19.2,18.8 35.5,-70.0 35.5,-54.1 35.5,-54.1 33.8,-44.9 33.8,-39.7 35.5,-48.9 35.5,-26.1 33.8,-16.9 33.8,-11.7 35.5,-20.9 35.5,-20.9 35.5,1.9" />
<polygon fill="none" stroke-width="1" stroke-dasharray="2" stroke="gray" points="132.5,99.9 149.2,90.7 149.2,95.9 132.5,105.1 132.5,121.0 293.7,32.2 293.7,16.3 310.5,11.0 310.5,11.0 310.5,-2.0 310.5,-2.0 293.7,11.1 293.7,-11.7 310.5,-17.0 310.5,-30.0 293.7,-16.9 293.7,-39.7 310.5,-45.0 310.5,-45.0 310.5,-58.0 310.5,-58.0 293.7,-44.9 293.7,-60.8 132.5,28.0 132.5,43.9 132.5,43.9 149.2,34.7 149.2,39.9 132.5,49.1 132.5,71.9 149.2,62.7 149.2,67.9 132.5,77.1 132.5,77.1 132.5,99.9" />
<polygon fill="none" stroke-width="1" stroke-dasharray="2" stroke="gray" points="18.8,20.2 17.1,29.4 17.1,16.4 18.8,7.2 18.8,-7.8 17.1,1.4 17.1,-11.6 18.8,-20.8 18.8,-20.8 18.8,-35.8 18.8,-35.8 17.1,-26.6 17.1,-39.6 18.8,-48.8 18.8,-78.8 4.2,0.8 4.2,0.8 4.2,34.7 2.5,40.0 2.5,53.0 4.2,39.9 4.2,62.7 2.5,68.0 2.5,68.0 2.5,81.0 2.5,81.0 4.2,67.9 4.2,90.7 2.5,96.0 2.5,109.0 4.2,95.9 4.2,129.8 4.2,129.8 18.8,50.2 18.8,20.2" />
<polygon fill="rgba(255,255,255,0.75)" stroke-width="1" stroke-dasharray="" stroke="black" points="147.5,109.0 164.2,99.8 164.2,86.8 147.5,96.0 147.5,81.0 164.2,71.8 164.2,58.8 147.5,68.0 147.5,68.0 147.5,53.0 147.5,53.0 164.2,43.8 164.2,30.8 147.5,40.0 147.5,10.0 292.1,-69.6 292.1,-69.6 292.1,-35.7 308.8,-48.8 308.8,-35.8 292.1,-30.5 292.1,-7.7 308.8,-20.8 308.8,-20.8 308.8,-7.8 308.8,-7.8 292.1,-2.5 292.1,20.3 308.8,7.2 308.8,20.2 292.1,25.5 292.1,59.4 292.1,59.4 147.5,139.0 147.5,109.0" />
<polygon fill="none" stroke-width="1" stroke-dasharray="2" stroke="gray" points="293.1,-70.2 293.7,-73.8 132.5,15.0 138.2,15.0 293.1,-70.2" />
<polygon fill="rgba(255,255,255,0.75)" stroke-width="1" stroke-dasharray="" stroke="black" points="293.1,-57.2 138.2,28.0 132.5,28.0 293.7,-60.8 293.1,-57.2" />
<polygon fill="none" stroke-width="1" stroke-dasharray="2" stroke="gray" points="293.1,35.8 293.7,32.2 132.5,121.0 138.2,121.0 293.1,35.8" />
<polygon fill="rgba(255,255,255,0.75)" stroke-width="1" stroke-dasharray="" stroke="black" points="293.1,48.8 138.2,134.0 132.5,134.0 293.7,45.2 293.1,48.8" />
<polygon fill="rgba(255,255,255,0.75)" stroke-width="1" stroke-dasharray="" stroke="black" points="292.1,-69.6 147.5,10.0 132.5,10.0 293.7,-78.8 292.1,-69.6" />
<polygon fill="none" stroke-width="1" stroke-dasharray="2" stroke="gray" points="292.1,59.4 293.7,50.2 132.5,139.0 147.5,139.0 292.1,59.4" />
<polygon fill="rgba(255,255,255,0.75)" stroke-width="1" stroke-dasharray="" stroke="black" points="19.2,34.7 4.2,34.7 4.2,0.8 19.2,0.8 19.2,5.8 13.4,5.8 13.4,18.8 19.2,18.8 19.2,34.7" />
<polygon fill="rgba(255,255,255,0.75)" stroke-width="1" stroke-dasharray="" stroke="black" points="19.2,95.9 19.2,111.8 13.4,111.8 13.4,124.8 19.2,124.8 19.2,129.8 4.2,129.8 4.2,95.9 19.2,95.9" />
<polygon fill="rgba(255,255,255,0.75)" stroke-width="1" stroke-dasharray="" stroke="black" points="19.2,39.9 19.2,62.7 4.2,62.7 4.2,39.9 19.2,39.9" />
<polygon fill="rgba(255,255,255,0.75)" stroke-width="1" stroke-dasharray="" stroke="black" points="19.2,67.9 19.2,90.7 4.2,90.7 4.2,67.9 19.2,67.9" />
<polygon fill="none" stroke-width="1" stroke-dasharray="2" stroke="gray" points="4.2,90.7 19.2,90.7 19.2,95.9 4.2,95.9 4.2,111.8 149.2,111.8 149.2,95.9 164.2,99.8 164.2,99.8 164.2,86.8 164.2,86.8 149.2,90.7 149.2,67.9 164.2,71.8 164.2,58.8 149.2,62.7 149.2,39.9 164.2,43.8 164.2,43.8 164.2,30.8 164.2,30.8 149.2,34.7 149.2,18.8 4.2,18.8 4.2,34.7 4.2,34.7 19.2,34.7 19.2,39.9 4.2,39.9 4.2,62.7 19.2,62.7 19.2,67.9 4.2,67.9 4.2,67.9 4.2,90.7" />
<polygon fill="rgba(255,255,255,0.75)" stroke-width="1" stroke-dasharray="" stroke="black" points="164.2,30.8 164.2,43.8 149.2,39.9 149.2,34.7 164.2,30.8" />
<polygon fill="rgba(255,255,255,0.75)" stroke-width="1" stroke-dasharray="" stroke="black" points="164.2,58.8 164.2,71.8 149.2,67.9 149.2,62.7 164.2,58.8" />
<polygon fill="rgba(255,255,255,0.75)" stroke-width="1" stroke-dasharray="" stroke="black" points="164.2,86.8 164.2,99.8 149.2,95.9 149.2,90.7 164.2,86.8" />
<polygon fill="none" stroke-width="1" stroke-dasharray="2" stroke="gray" points="142.7,9.3 149.2,5.8 4.2,5.8 3.5,9.3 142.7,9.3" />
<polygon fill="rgba(255,255,255,0.75)" stroke-width="1" stroke-dasharray="" stroke="black" points="142.7,22.3 3.5,22.3 4.2,18.8 149.2,18.8 142.7,22.3" />
<polygon fill="none" stroke-width="1" stroke-dasharray="2" stroke="gray" points="142.7,115.3 149.2,111.8 4.2,111.8 3.5,115.3 142.7,115.3" />
<polygon fill="rgba(255,255,255,0.75)" stroke-width="1" stroke-dasharray="" stroke="black" points="142.7,128.3 3.5,128.3 4.2,124.8 149.2,124.8 142.7,128.3" />
<polygon fill="rgba(255,255,255,0.75)" stroke-width="1" stroke-dasharray="" stroke="silver" points="2.5,40.0 4.2,34.7 19.2,34.7 17.5,40.0" />
<polygon fill="none" stroke-width="1" stroke-dasharray="2" stroke="gray" points="17.5,53.0 19.2,39.9 4.2,39.9 2.5,53.0" />
<polygon fill="rgba(255,255,255,0.75)" stroke-width="1" stroke-dasharray="" stroke="silver" points="2.5,68.0 4.2,62.7 19.2,62.7 17.5,68.0" />
<polygon fill="none" stroke-width="1" stroke-dasharray="2" stroke="gray" points="17.5,81.0 19.2,67.9 4.2,67.9 2.5,81.0" />
<polygon fill="rgba(255,255,255,0.75)" stroke-width="1" stroke-dasharray="" stroke="silver" points="2.5,96.0 4.2,90.7 19.2,90.7 17.5,96.0" />
<polygon fill="none" stroke-width="1" stroke-dasharray="2" stroke="gray" points="17.5,109.0 19.2,95.9 4.2,95.9 2.5,109.0" />
<polygon fill="none" stroke-width="1" stroke-dasharray="2" stroke="gray" points="2.5,40.0 4.2,34.7 4.2,18.8 3.5,22.3 3.5,9.3 4.2,5.8 4.2,0.8 2.5,10.0 2.5,40.0" />
<polygon fill="none" stroke-width="1" stroke-dasharray="2" stroke="gray" points="2.5,53.0 2.5,68.0 4.2,62.7 4.2,39.9 2.5,53.0" />
<polygon fill="none" stroke-width="1" stroke-dasharray="2" stroke="gray" points="2.5,81.0 2.5,96.0 4.2,90.7 4.2,67.9 2.5,81.0" />
<polygon fill="none" stroke-width="1" stroke-dasharray="2" stroke="gray" points="2.5,109.0 2.5,139.0 4.2,129.8 4.2,124.8 3.5,128.3 3.5,115.3 4.2,111.8 4.2,95.9 2.5,109.0" />
<polygon fill="none" stroke-width="1" stroke-dasharray="2" stroke="gray" points="2.5,40.0 17.5,40.0 19.2,34.7 4.2,34.7" />
<polygon fill="rgba(255,255,255,0.75)" stroke-width="1" stroke-dasharray="" stroke="black" points="4.2,39.9 19.2,39.9 17.5,53.0 2.5,53.0" />
<polygon fill="none" stroke-width="1" stroke-dasharray="2" stroke="gray" points="2.5,68.0 17.5,68.0 19.2,62.7 4.2,62.7" />
<polygon fill="rgba(255,255,255,0.75)" stroke-width="1" stroke-dasharray="" stroke="black" points="4.2,67.9 19.2,67.9 17.5,81.0 2.5,81.0" />
<polygon fill="none" stroke-width="1" stroke-dasharray="2" stroke="gray" points="2.5,96.0 17.5,96.0 19.2,90.7 4.2,90.7" />
<polygon fill="rgba(255,255,255,0.75)" stroke-width="1" stroke-dasharray="" stroke="black" points="4.2,95.9 19.2,95.9 17.5,109.0 2.5,109.0" />
<polygon fill="none" stroke-width="1" stroke-dasharray="2" stroke="gray" points="17.5,40.0 17.5,53.0 19.2,39.9 19.2,34.7 17.5,40.0" />
<polygon fill="none" stroke-width="1" stroke-dasharray="2" stroke="gray" points="17.5,68.0 17.5,81.0 19.2,67.9 19.2,62.7 17.5,68.0" />
<polygon fill="none" stroke-width="1" stroke-dasharray="2" stroke="gray" points="17.5,96.0 17.5,109.0 19.2,95.9 19.2,90.7 17.5,96.0" />
<polygon fill="rgba(255,255,255,0.75)" stroke-width="1" stroke-dasharray="" stroke="black" points="132.5,10.0 2.5,10.0 4.2,0.8 149.2,0.8 132.5,10.0" />
<polygon fill="none" stroke-width="1" stroke-dasharray="2" stroke="gray" points="132.5,139.0 149.2,129.8 4.2,129.8 2.5,139.0 132.5,139.0" />
<polygon fill="rgba(255,255,255,0.75)" stroke-width="1" stroke-dasharray="" stroke="black" points="149.2,34.7 132.5,43.9 132.5,10.0 149.2,0.8 149.2,5.8 142.7,9.3 142.7,22.3 149.2,18.8 149.2,34.7" />
<polygon fill="rgba(255,255,255,0.75)" stroke-width="1" stroke-dasharray="" stroke="black" points="149.2,39.9 149.2,62.7 132.5,71.9 132.5,49.1 149.2,39.9" />
<polygon fill="rgba(255,255,255,0.75)" stroke-width="1" stroke-dasharray="" stroke="black" points="149.2,67.9 149.2,90.7 132.5,99.9 132.5,77.1 149.2,67.9" />
<polygon fill="rgba(255,255,255,0.75)" stroke-width="1" stroke-dasharray="" stroke="black" points="149.2,95.9 149.2,111.8 142.7,115.3 142.7,128.3 149.2,124.8 149.2,129.8 132.5,139.0 132.5,105.1 149.2,95.9" />
<polygon fill="rgba(255,255,255,0.75)" stroke-width="1" stroke-dasharray="" stroke="silver" points="147.5,40.0 132.5,43.9 149.2,34.7 164.2,30.8" />
<polygon fill="none" stroke-width="1" stroke-dasharray="2" stroke="gray" points="164.2,43.8 149.2,39.9 132.5,49.1 147.5,53.0" />
<polygon fill="rgba(255,255,255,0.75)" stroke-width="1" stroke-dasharray="" stroke="silver" points="147.5,68.0 132.5,71.9 149.2,62.7 164.2,58.8" />
<polygon fill="none" stroke-width="1" stroke-dasharray="2" stroke="gray" points="164.2,71.8 149.2,67.9 132.5,77.1 147.5,81.0" />
<polygon fill="rgba(255,255,255,0.75)" stroke-width="1" stroke-dasharray="" stroke="silver" points="147.5,96.0 132.5,99.9 149.2,90.7 164.2,86.8" />
<polygon fill="none" stroke-width="1" stroke-dasharray="2" stroke="gray" points="164.2,99.8 149.2,95.9 132.5,105.1 147.5,109.0" />
<polygon fill="rgba(255,255,255,0.75)" stroke-width="1" stroke-dasharray="" stroke="black" points="164.2,30.8 164.2,43.8 147.5,53.0 147.5,40.0 164.2,30.8" />
<polygon fill="rgba(255,255,255,0.75)" stroke-width="1" stroke-dasharray="" stroke="black" points="164.2,58.8 164.2,71.8 147.5,81.0 147.5,68.0 164.2,58.8" />
<polygon fill="rgba(255,255,255,0.75)" stroke-width="1" stroke-dasharray="" stroke="black" points="164.2,86.8 164.2,99.8 147.5,109.0 147.5,96.0 164.2,86.8" />
<polygon fill="none" stroke-width="1" stroke-dasharray="2" stroke="gray" points="147.5,40.0 164.2,30.8 149.2,34.7 132.5,43.9" />
<polygon fill="rgba(255,255,255,0.75)" stroke-width="1" stroke-dasharray="" stroke="black" points="132.5,49.1 149.2,39.9 164.2,43.8 147.5,53.0" />
<polygon fill="none" stroke-width="1" stroke-dasharray="2" stroke="gray" points="147.5,68.0 164.2,58.8 149.2,62.7 132.5,71.9" />
<polygon fill="rgba(255,255,255,0.75)" stroke-width="1" stroke-dasharray="" stroke="black" points="132.5,77.1 149.2,67.9 164.2,71.8 147.5,81.0" />
<polygon fill="none" stroke-width="1" stroke-dasharray="2" stroke="gray" points="147.5,96.0 164.2,86.8 149.2,90.7 132.5,99.9" />
<polygon fill="rgba(255,255,255,0.75)" stroke-width="1" stroke-dasharray="" stroke="black" points="132.5,105.1 149.2,95.9 164.2,99.8 147.5,109.0" />
<polygon fill="rgba(255,255,255,0.75)" stroke-width="1" stroke-dasharray="" stroke="black" points="17.5,40.0 17.5,53.0 2.5,53.0 2.5,40.0 17.5,40.0" />
<polygon fill="rgba(255,255,255,0.75)" stroke-width="1" stroke-dasharray="" stroke="black" points="17.5,68.0 17.5,81.0 2.5,81.0 2.5,68.0 17.5,68.0" />
<polygon fill="rgba(255,255,255,0.75)" stroke-width="1" stroke-dasharray="" stroke="black" points="17.5,96.0 17.5,109.0 2.5,109.0 2.5,96.0 17.5,96.0" />
<polygon fill="rgba(255,255,255,0.75)" stroke-width="1" stroke-dasharray="" stroke="black" points="147.5,40.0 132.5,43.9 132.5,28.0 138.2,28.0 138.2,15.0 132.5,15.0 132.5,10.0 147.5,10.0 147.5,40.0" />
<polygon fill="rgba(255,255,255,0.75)" stroke-width="1" stroke-dasharray="" stroke="black" points="147.5,53.0 147.5,68.0 132.5,71.9 132.5,49.1 147.5,53.0" />
<polygon fill="rgba(255,255,255,0.75)" stroke-width="1" stroke-dasharray="" stroke="black" points="147.5,81.0 147.5,96.0 132.5,99.9 132.5,77.1 147.5,81.0" />
<polygon fill="rgba(255,255,255,0.75)" stroke-width="1" stroke-dasharray="" stroke="black" points="147.5,109.0 147.5,139.0 132.5,139.0 132.5,134.0 138.2,134.0 138.2,121.0 132.5,121.0 132.5,105.1 147.5,109.0" />
<polygon fill="rgba(255,255,255,0.75)" stroke-width="1" stroke-dasharray="" stroke="black" points="2.5,109.0 17.5,109.0 17.5,96.0 2.5,96.0 2.5,81.0 17.5,81.0 17.5,68.0 2.5,68.0 2.5,68.0 2.5,53.0 2.5,53.0 17.5,53.0 17.5,40.0 2.5,40.0 2.5,10.0 132.5,10.0 132.5,10.0 132.5,43.9 147.5,40.0 147.5,53.0 132.5,49.1 132.5,71.9 147.5,68.0 147.5,68.0 147.5,81.0 147.5,81.0 132.5,77.1 132.5,99.9 147.5,96.0 147.5,109.0 132.5,105.1 132.5,139.0 132.5,139.0 2.5,139.0 2.5,109.0" />
</svg>
